<svg width="668" height="599" viewBox="0 0 668 599" fill="none" xmlns="http://www.w3.org/2000/svg">
<g clip-path="url(#clip0_1_2)">
<path d="M400.29 396.9C418.58 397.59 436.34 398.87 454.33 396.88C465.43 396.2 476.23 392.55 480.82 382.77C485.21 373.41 486.38 360.64 478.66 352.71C457.36 330.82 386.67 360.52 334.27 313.83C321.83 302.75 320.68 283.42 328.67 268.85C340.53 247.21 362.74 236.93 386.79 234.15L462.02 228.6C475.92 227.57 488.11 219.36 486.75 203.97C486.04 195.94 476.85 190.59 468.73 190.31L407.83 188.22C385.23 187.45 364.16 177.98 347.51 162.69C322.77 139.97 329.45 87.79 340.47 56.81L336.67 53.3C363.79 -0.799999 441.77 2.21 496.35 3.84C526.44 -0.53 554.93 3.77 581.8 17.37C628.58 34.04 667.56 95.96 667.19 144.03C666.89 183.17 650.04 223.79 624.22 251.64C608.33 268.78 589.7 276.48 569.79 291.27C599.86 304.35 619.4 322.97 635.88 348.62C657.27 381.94 669.81 421.98 661.13 461.64C656.69 481.9 649.19 503.96 634.56 517.9C625.82 528.38 621.49 541.36 609.29 550.42C578.29 585.75 532.9 602.99 486.85 596.74C487.97 588.79 482.75 593.04 484.15 585.26C484.3 584.39 480.81 584.72 479.68 584.76C478.63 584.8 478.74 586.2 479.29 588.8C446.68 589.15 413.97 589.54 383.06 580.53C327.97 564.47 326.14 510.29 334.08 460.2C339.71 424.7 363.42 400.88 400.29 396.9Z" fill="black"></path>
<path d="M354.94 570.19C391.72 595.91 437.82 588.29 479.47 593.96C446.4 598.98 411.71 595.84 381.29 587.57C352.75 579.81 333.51 561.1 327.67 532.2C321.99 504.12 324.28 474.13 331.74 446.32C339.43 417.66 360.8 399.63 390.37 393.27C420.61 386.77 480.09 402.08 476.21 368.39C474.99 357.79 464.69 350.12 452.35 350.28C417.55 350.73 383.7 349.16 351.05 334.03C338.93 328.97 328.45 321.13 320.57 310.62C309.32 282.74 321.04 253.06 347.52 238.59C391.18 214.73 479.51 236.74 478.75 208.33C477.97 178.8 400.26 216.73 345.03 171.08C315.8 146.92 319.77 88.23 336.24 55.06C328.81 88.72 317.05 139.24 345.08 165.21C362.59 181.44 385.57 190.72 409.47 191.38L466.24 192.94C473.15 193.13 479.82 196.08 482.03 202.02C484.32 208.15 481.67 216.43 475.84 220.68C460.87 231.58 405.94 224.79 364.08 235.85C330.78 244.65 311.64 275.44 323.5 308.06C330.54 318.58 340.82 326.29 352.72 331.36C378.95 343.31 405.52 348.27 434.44 347.43C446.57 347.07 459.09 346.24 469.92 351.26C479.43 355.67 481.8 366.93 479.43 375.96C477.03 385.09 469.48 391.13 459.22 393.07C438.52 395.34 417.56 394.31 397.31 394.14C361.05 399.63 338.08 423.19 331.72 458.42C325.04 495.37 321.84 547.02 354.94 570.17V570.19Z" fill="black"></path>
<path d="M222.39 172.43L253.47 172.95L253.41 175.11L218.19 174.88C192.46 174.71 167.96 159.13 158.58 134.76C152.31 118.48 154.97 101.97 156.43 84.82C158.49 60.5 170.66 35.55 193.58 24.08C212.94 14.39 235.56 7.93 257.62 9.66C212.31 17.31 182.98 19.61 163.26 64.77C158.49 86.6 156.42 107.98 159.95 130.18C169.51 155.96 194.61 171.96 222.4 172.43H222.39Z" fill="black"></path>
<path d="M158.68 455.08C150.86 481.31 149.46 510.79 158.65 536.72C166.56 559.06 187.61 573.18 208.99 580.22C225.13 585.53 240.37 587.33 256.83 592.22L119.53 590.13C97.59 589.8 76.87 587.87 55.92 583.58C28.44 577.95 9.13 558.56 4.11 530.83C-0.56 505.04 -1.03 478.61 1.64 452.29C6.46 404.89 45.95 392.07 89.42 391.54L129.4 391.05C143.37 390.88 151.31 384.3 151.58 371.25C152.22 339.54 114.02 356.91 84.61 345.7C74.7 341.92 62.85 336.19 61.94 323.67C75.1 337.32 86.91 343.89 104 345.45C110.78 346.07 117.37 348.34 124.62 347.24C131.87 346.14 139.3 349.09 146.61 350.64C139.9 343.09 130.53 344.53 121.43 344.53C96.19 345.98 73 336.47 59.42 314.67C37.6 277.7 71.29 215.74 98.91 218.41L130.53 214.48C138.16 211.83 143.96 206.45 143.28 199.18C142.71 193.09 135.55 186.93 128.04 186.84C93.3 186.44 32.44 189.81 15.21 160.86C2.1 135.99 -1.92 107.94 1.32 79.91C3.67 19.83 50.61 0.6 105.97 0.18C160.42 -0.24 214.09 0.03 270.58 1.74C244.24 8.84 219.38 6.76 196.83 18.66C170.9 32.34 156.29 51.82 153.17 81.17C148.69 123.3 149.9 154.09 193.63 174.28C213.07 179.54 231.66 176.82 250.07 178.54C266.87 185.54 295.84 171.74 303.09 197.53C304.96 206.06 298.47 211.94 291.5 217.72C251.18 227.47 205.06 219 171.03 246.4C158.32 256.63 149.72 270.18 150.89 287.21C153.75 328.92 213.62 339.57 249.74 346.28C259.68 348.13 269.93 356.75 272.41 364.28C276.48 376.64 272.37 386.42 263.67 394.44C277.66 390.5 281.12 376.18 277.49 364.17C274.03 351.31 263.47 343.03 249.77 343.32C224.81 339.04 201.15 332.14 178.82 320.56C160.7 311.16 149.34 290.92 156.82 271.18C172.03 231.05 232.71 227.45 273.51 224.13C287.67 222.98 297.68 218.59 305.59 205.74C302.34 237.7 243.23 219.3 188.66 242.8C171.18 250.33 157.52 265.67 158.27 284.79C159.79 323.32 227.12 336.91 261.38 342.1C270.85 343.54 278.23 353.36 280.69 360.29C284.41 370.77 284.24 381.92 277.52 389.76C267.74 401.17 254.07 400.31 240.58 399.62C201.96 397.67 169.93 417.29 158.66 455.1L158.68 455.08Z" fill="black"></path>
<path d="M161.46 519.7C167.65 564.35 219.6 580.23 258.91 586.19C223.72 585.85 180.88 571.06 164.36 540.27C152.99 519.08 156.44 496.61 158.23 474.05C161.5 432.85 190.88 403.35 232.68 402.74C240.76 402.62 249.63 401.28 257.47 402.15L256.98 404.72L224.98 406.37C201.16 409.83 178.83 421.94 169.41 444.83C159.69 468.44 157.98 494.67 161.45 519.7H161.46Z" fill="black"></path>
</g>
<defs>
<clipPath id="clip0_1_2">
<rect width="667.19" height="598.01" fill="white"></rect>
</clipPath>
</defs>
</svg>