<svg width="155" height="20" viewBox="0 0 155 20" fill="none" xmlns="http://www.w3.org/2000/svg">
<g clip-path="url(#clip0_1375_3101)">
<path d="M111.228 15.6915C110.719 15.3481 110.357 14.8142 110.142 14.0899C109.926 13.3655 109.82 12.4008 109.82 11.1988V9.55974C109.82 8.34525 109.942 7.36804 110.189 6.63123C110.435 5.89442 110.819 5.35743 111.341 5.02024C111.862 4.68306 112.546 4.51447 113.395 4.51447C114.244 4.51447 114.9 4.68618 115.403 5.02961C115.905 5.37304 116.274 5.91003 116.508 6.6406C116.742 7.37116 116.857 8.34525 116.857 9.55974V11.1988C116.857 12.4008 116.745 13.3687 116.517 14.0992C116.289 14.8298 115.921 15.3637 115.412 15.7009C114.903 16.038 114.213 16.2066 113.339 16.2066C112.465 16.2066 111.74 16.0349 111.231 15.6915H111.228ZM114.082 13.9244C114.222 13.556 114.294 12.9534 114.294 12.1198V8.60126C114.294 7.78952 114.222 7.19945 114.082 6.8248C113.941 6.45015 113.692 6.26283 113.336 6.26283C112.98 6.26283 112.749 6.45015 112.608 6.8248C112.468 7.19945 112.396 7.79264 112.396 8.60126V12.1198C112.396 12.9534 112.465 13.556 112.599 13.9244C112.733 14.2928 112.98 14.477 113.336 14.477C113.692 14.477 113.941 14.2928 114.082 13.9244Z" fill="#EBEBEB"></path>
<path d="M150.349 11.2238V11.7951C150.349 12.5195 150.371 13.0627 150.415 13.4249C150.459 13.787 150.546 14.0524 150.683 14.2179C150.818 14.3833 151.027 14.4676 151.311 14.4676C151.692 14.4676 151.951 14.3209 152.094 14.0243C152.235 13.7308 152.313 13.2375 152.326 12.5507L154.517 12.6787C154.53 12.7786 154.536 12.9128 154.536 13.0845C154.536 14.1273 154.252 14.9078 153.68 15.423C153.109 15.9381 152.301 16.1973 151.258 16.1973C150.006 16.1973 149.129 15.8039 148.623 15.0171C148.12 14.2303 147.867 13.0159 147.867 11.3705V9.4005C147.867 7.70522 148.129 6.46887 148.651 5.68836C149.172 4.90784 150.065 4.51758 151.33 4.51758C152.201 4.51758 152.872 4.6768 153.337 4.99526C153.802 5.31371 154.133 5.81324 154.324 6.48761C154.514 7.16197 154.608 8.09547 154.608 9.28811V11.2207H150.352L150.349 11.2238ZM150.671 6.472C150.543 6.63122 150.455 6.89348 150.412 7.25564C150.368 7.6178 150.346 8.16728 150.346 8.90409V9.71583H152.207V8.90409C152.207 8.17977 152.182 7.63029 152.132 7.25564C152.082 6.88099 151.995 6.61873 151.863 6.46263C151.735 6.30965 151.536 6.2316 151.264 6.2316C150.992 6.2316 150.796 6.31277 150.665 6.472H150.671Z" fill="#EBEBEB"></path>
<path d="M105.041 11.0146L102.15 0.571289H104.673L105.685 5.30435C105.944 6.47201 106.134 7.46483 106.256 8.28905H106.331C106.415 7.69898 106.606 6.71241 106.902 5.32308L107.951 0.571289H110.474L107.545 11.0146V16.0256H105.041V11.0146Z" fill="#EBEBEB"></path>
<path d="M125.062 4.73303V16.0224H123.074L122.852 14.6425H122.796C122.256 15.6853 121.444 16.2067 120.364 16.2067C119.614 16.2067 119.062 15.96 118.706 15.4698C118.35 14.9797 118.172 14.2116 118.172 13.1689V4.73303H120.713V13.0221C120.713 13.5248 120.769 13.8838 120.879 14.0993C120.988 14.3147 121.172 14.4208 121.431 14.4208C121.653 14.4208 121.865 14.3521 122.068 14.2179C122.271 14.0836 122.421 13.9119 122.521 13.7027V4.73303H125.062Z" fill="#EBEBEB"></path>
<path d="M138.101 4.73303V16.0224H136.113L135.891 14.6425H135.835C135.295 15.6853 134.483 16.2067 133.403 16.2067C132.653 16.2067 132.101 15.96 131.745 15.4698C131.389 14.9797 131.211 14.2116 131.211 13.1689V4.73303H133.752V13.0221C133.752 13.5248 133.809 13.8838 133.918 14.0993C134.027 14.3147 134.211 14.4208 134.47 14.4208C134.692 14.4208 134.904 14.3521 135.107 14.2179C135.31 14.0836 135.46 13.9119 135.56 13.7027V4.73303H138.101Z" fill="#EBEBEB"></path>
<path d="M131.97 2.61625H129.447V16.0256H126.962V2.61625H124.439V0.571289H131.973V2.61625H131.97Z" fill="#EBEBEB"></path>
<path d="M146.512 6.53762C146.359 5.82579 146.109 5.31065 145.766 4.98907C145.422 4.67062 144.948 4.5114 144.348 4.5114C143.883 4.5114 143.446 4.64252 143.04 4.9079C142.634 5.17328 142.322 5.51982 142.1 5.94755H142.082V0H139.631V16.0225H141.729L141.988 14.9547H142.044C142.241 15.3356 142.534 15.6353 142.928 15.857C143.321 16.0787 143.755 16.1879 144.236 16.1879C145.094 16.1879 145.728 15.7914 146.134 15.0016C146.54 14.2086 146.743 12.9722 146.743 11.2894V9.50359C146.743 8.23915 146.665 7.24945 146.512 6.53762ZM144.183 11.1427C144.183 11.9669 144.149 12.6101 144.083 13.0752C144.014 13.5436 143.902 13.8745 143.743 14.0712C143.583 14.2679 143.368 14.3647 143.099 14.3647C142.89 14.3647 142.697 14.3147 142.519 14.2179C142.341 14.1211 142.197 13.9713 142.085 13.7746V7.36497C142.169 7.05901 142.319 6.80612 142.528 6.60943C142.737 6.41274 142.965 6.31595 143.209 6.31595C143.468 6.31595 143.665 6.41586 143.808 6.6188C143.949 6.82173 144.049 7.16204 144.102 7.63971C144.158 8.11739 144.186 8.80112 144.186 9.68467V11.1396L144.183 11.1427Z" fill="#EBEBEB"></path>
<path d="M6.44894 12.906V2.96267H7.34879V14.4808H6.50893L6.44894 12.906ZM0.817366 10.5064V10.349C0.817366 9.71906 0.889854 9.15165 1.03483 8.64673C1.17981 8.13682 1.38727 7.70189 1.65723 7.34195C1.93218 6.97701 2.26213 6.69955 2.64707 6.50958C3.032 6.31462 3.46693 6.21713 3.95185 6.21713C4.42677 6.21713 4.8467 6.29462 5.21164 6.44959C5.57658 6.60457 5.88903 6.82703 6.14899 7.11698C6.41395 7.40694 6.62641 7.75188 6.78639 8.15181C6.95136 8.55175 7.07134 8.99667 7.14633 9.48659V11.4888C7.08634 11.9487 6.97635 12.3711 6.81638 12.7561C6.65641 13.136 6.44394 13.4684 6.17898 13.7534C5.91403 14.0333 5.59408 14.2508 5.21914 14.4058C4.8492 14.5558 4.42177 14.6307 3.93685 14.6307C3.45693 14.6307 3.0245 14.5308 2.63957 14.3308C2.25463 14.1308 1.92718 13.8484 1.65723 13.4834C1.38727 13.1135 1.17981 12.6761 1.03483 12.1712C0.889854 11.6662 0.817366 11.1113 0.817366 10.5064ZM1.71722 10.349V10.5064C1.71722 10.9813 1.76471 11.4213 1.85969 11.8262C1.95468 12.2311 2.09966 12.5836 2.29462 12.8835C2.48959 13.1835 2.73705 13.4184 3.037 13.5884C3.33695 13.7584 3.69189 13.8434 4.10183 13.8434C4.61674 13.8434 5.04917 13.7459 5.39911 13.5509C5.74906 13.351 6.02901 13.0885 6.23898 12.7636C6.44894 12.4336 6.60142 12.0737 6.6964 11.6837V9.35162C6.63641 9.08666 6.54892 8.8167 6.43394 8.54175C6.31896 8.26679 6.16149 8.01434 5.96152 7.78437C5.76655 7.54941 5.51659 7.36194 5.21164 7.22197C4.91169 7.07699 4.54675 7.0045 4.11682 7.0045C3.70189 7.0045 3.34445 7.08949 3.0445 7.25946C2.74455 7.42943 2.49459 7.66689 2.29462 7.97184C2.09966 8.27179 1.95468 8.62424 1.85969 9.02917C1.76471 9.4341 1.71722 9.87403 1.71722 10.349ZM12.8454 14.6307C12.3155 14.6307 11.8281 14.5333 11.3831 14.3383C10.9432 14.1433 10.5583 13.8684 10.2283 13.5134C9.90337 13.1585 9.65091 12.7386 9.47094 12.2536C9.29597 11.7637 9.20849 11.2288 9.20849 10.6489V10.3265C9.20849 9.70156 9.30097 9.13665 9.48594 8.63173C9.67091 8.12682 9.92587 7.69439 10.2508 7.33445C10.5758 6.97451 10.9457 6.69955 11.3606 6.50958C11.7806 6.31462 12.2205 6.21713 12.6804 6.21713C13.1953 6.21713 13.6528 6.30962 14.0527 6.49459C14.4526 6.67456 14.7876 6.93201 15.0575 7.26696C15.3325 7.5969 15.5399 7.98934 15.6799 8.44427C15.8199 8.89419 15.8899 9.39161 15.8899 9.93652V10.4839H9.7484V9.71906H14.9975V9.61407C14.9875 9.15915 14.8951 8.73422 14.7201 8.33928C14.5501 7.93935 14.2952 7.6144 13.9552 7.36444C13.6153 7.11448 13.1903 6.9895 12.6804 6.9895C12.3005 6.9895 11.9505 7.06949 11.6306 7.22947C11.3156 7.38944 11.0432 7.6194 10.8132 7.91935C10.5883 8.2143 10.4133 8.56675 10.2883 8.97668C10.1683 9.38161 10.1083 9.83154 10.1083 10.3265V10.6489C10.1083 11.0988 10.1733 11.5188 10.3033 11.9087C10.4383 12.2936 10.6283 12.6336 10.8732 12.9285C11.1232 13.2235 11.4181 13.4534 11.7581 13.6184C12.098 13.7834 12.473 13.8659 12.8829 13.8659C13.3628 13.8659 13.7877 13.7784 14.1577 13.6034C14.5276 13.4234 14.8601 13.141 15.155 12.7561L15.7174 13.191C15.5424 13.4509 15.3225 13.6909 15.0575 13.9109C14.7976 14.1308 14.4851 14.3058 14.1202 14.4358C13.7552 14.5658 13.3303 14.6307 12.8454 14.6307ZM19.9617 13.6184L22.5638 6.36711H23.4861L20.4491 14.4808H19.7967L19.9617 13.6184ZM17.6071 6.36711L20.2392 13.6409L20.3817 14.4808H19.7218L16.6773 6.36711H17.6071ZM28.0079 14.6307C27.478 14.6307 26.9906 14.5333 26.5456 14.3383C26.1057 14.1433 25.7208 13.8684 25.3908 13.5134C25.0659 13.1585 24.8134 12.7386 24.6335 12.2536C24.4585 11.7637 24.371 11.2288 24.371 10.6489V10.3265C24.371 9.70156 24.4635 9.13665 24.6484 8.63173C24.8334 8.12682 25.0884 7.69439 25.4133 7.33445C25.7383 6.97451 26.1082 6.69955 26.5231 6.50958C26.9431 6.31462 27.383 6.21713 27.8429 6.21713C28.3578 6.21713 28.8153 6.30962 29.2152 6.49459C29.6151 6.67456 29.9501 6.93201 30.22 7.26696C30.495 7.5969 30.7025 7.98934 30.8424 8.44427C30.9824 8.89419 31.0524 9.39161 31.0524 9.93652V10.4839H24.9109V9.71906H30.16V9.61407C30.15 9.15915 30.0576 8.73422 29.8826 8.33928C29.7126 7.93935 29.4577 7.6144 29.1177 7.36444C28.7778 7.11448 28.3528 6.9895 27.8429 6.9895C27.463 6.9895 27.113 7.06949 26.7931 7.22947C26.4781 7.38944 26.2057 7.6194 25.9757 7.91935C25.7508 8.2143 25.5758 8.56675 25.4508 8.97668C25.3308 9.38161 25.2708 9.83154 25.2708 10.3265V10.6489C25.2708 11.0988 25.3358 11.5188 25.4658 11.9087C25.6008 12.2936 25.7908 12.6336 26.0357 12.9285C26.2857 13.2235 26.5806 13.4534 26.9206 13.6184C27.2605 13.7834 27.6355 13.8659 28.0454 13.8659C28.5253 13.8659 28.9502 13.7784 29.3202 13.6034C29.6901 13.4234 30.0226 13.141 30.3175 12.7561L30.8799 13.191C30.705 13.4509 30.485 13.6909 30.22 13.9109C29.9601 14.1308 29.6476 14.3058 29.2827 14.4358C28.9177 14.5658 28.4928 14.6307 28.0079 14.6307ZM33.8194 2.96267V14.4808H32.9271V2.96267H33.8194ZM35.7766 10.5514V10.304C35.7766 9.71406 35.8616 9.16915 36.0316 8.66923C36.2016 8.16931 36.444 7.73688 36.759 7.37194C37.0789 7.007 37.4613 6.72455 37.9063 6.52458C38.3512 6.31961 38.8461 6.21713 39.391 6.21713C39.9409 6.21713 40.4384 6.31961 40.8833 6.52458C41.3282 6.72455 41.7106 7.007 42.0306 7.37194C42.3505 7.73688 42.5955 8.16931 42.7655 8.66923C42.9354 9.16915 43.0204 9.71406 43.0204 10.304V10.5514C43.0204 11.1413 42.9354 11.6862 42.7655 12.1862C42.5955 12.6811 42.3505 13.111 42.0306 13.4759C41.7156 13.8409 41.3357 14.1258 40.8908 14.3308C40.4459 14.5308 39.9509 14.6307 39.406 14.6307C38.8561 14.6307 38.3587 14.5308 37.9138 14.3308C37.4688 14.1258 37.0864 13.8409 36.7665 13.4759C36.4465 13.111 36.2016 12.6811 36.0316 12.1862C35.8616 11.6862 35.7766 11.1413 35.7766 10.5514ZM36.669 10.304V10.5514C36.669 10.9963 36.729 11.4188 36.8489 11.8187C36.9689 12.2136 37.1439 12.5661 37.3739 12.876C37.6038 13.181 37.8888 13.4209 38.2287 13.5959C38.5687 13.7709 38.9611 13.8584 39.406 13.8584C39.846 13.8584 40.2334 13.7709 40.5683 13.5959C40.9083 13.4209 41.1932 13.181 41.4232 12.876C41.6532 12.5661 41.8256 12.2136 41.9406 11.8187C42.0606 11.4188 42.1206 10.9963 42.1206 10.5514V10.304C42.1206 9.86403 42.0606 9.4466 41.9406 9.05167C41.8256 8.65673 41.6507 8.30429 41.4157 7.99434C41.1857 7.68439 40.9008 7.43943 40.5608 7.25946C40.2209 7.07949 39.831 6.9895 39.391 6.9895C38.9511 6.9895 38.5612 7.07949 38.2212 7.25946C37.8863 7.43943 37.6013 7.68439 37.3664 7.99434C37.1364 8.30429 36.9614 8.65673 36.8414 9.05167C36.7265 9.4466 36.669 9.86403 36.669 10.304ZM45.765 7.92685V17.6003H44.8651V6.36711H45.705L45.765 7.92685ZM51.4041 10.349V10.5064C51.4041 11.1113 51.3341 11.6662 51.1941 12.1712C51.0541 12.6761 50.8516 13.1135 50.5867 13.4834C50.3267 13.8484 50.0043 14.1308 49.6193 14.3308C49.2344 14.5308 48.797 14.6307 48.3071 14.6307C47.8221 14.6307 47.3897 14.5558 47.0098 14.4058C46.6298 14.2558 46.3024 14.0433 46.0274 13.7684C45.7575 13.4884 45.54 13.1635 45.375 12.7936C45.2151 12.4186 45.1026 12.0087 45.0376 11.5638V9.48659C45.1126 8.99667 45.2351 8.55175 45.405 8.15181C45.575 7.75188 45.7925 7.40694 46.0574 7.11698C46.3274 6.82703 46.6473 6.60457 47.0173 6.44959C47.3872 6.29462 47.8096 6.21713 48.2846 6.21713C48.7795 6.21713 49.2194 6.31462 49.6044 6.50958C49.9943 6.69955 50.3217 6.97701 50.5867 7.34195C50.8566 7.70189 51.0591 8.13682 51.1941 8.64673C51.3341 9.15165 51.4041 9.71906 51.4041 10.349ZM50.5042 10.5064V10.349C50.5042 9.87403 50.4542 9.4341 50.3542 9.02917C50.2592 8.62424 50.1118 8.27179 49.9118 7.97184C49.7168 7.66689 49.4669 7.42943 49.1619 7.25946C48.862 7.08949 48.5045 7.0045 48.0896 7.0045C47.6597 7.0045 47.2922 7.07699 46.9873 7.22197C46.6873 7.36194 46.4374 7.54941 46.2374 7.78437C46.0374 8.01434 45.88 8.26679 45.765 8.54175C45.65 8.8167 45.565 9.08666 45.51 9.35162V11.7437C45.605 12.1237 45.7575 12.4761 45.9674 12.801C46.1774 13.121 46.4574 13.3785 46.8073 13.5734C47.1623 13.7634 47.5947 13.8584 48.1046 13.8584C48.5145 13.8584 48.8695 13.7734 49.1694 13.6034C49.4694 13.4334 49.7168 13.196 49.9118 12.891C50.1118 12.5861 50.2592 12.2311 50.3542 11.8262C50.4542 11.4213 50.5042 10.9813 50.5042 10.5064ZM56.5332 14.6307C56.0033 14.6307 55.5159 14.5333 55.071 14.3383C54.631 14.1433 54.2461 13.8684 53.9161 13.5134C53.5912 13.1585 53.3387 12.7386 53.1588 12.2536C52.9838 11.7637 52.8963 11.2288 52.8963 10.6489V10.3265C52.8963 9.70156 52.9888 9.13665 53.1738 8.63173C53.3587 8.12682 53.6137 7.69439 53.9386 7.33445C54.2636 6.97451 54.6335 6.69955 55.0485 6.50958C55.4684 6.31462 55.9083 6.21713 56.3682 6.21713C56.8832 6.21713 57.3406 6.30962 57.7405 6.49459C58.1404 6.67456 58.4754 6.93201 58.7453 7.26696C59.0203 7.5969 59.2278 7.98934 59.3677 8.44427C59.5077 8.89419 59.5777 9.39161 59.5777 9.93652V10.4839H53.4362V9.71906H58.6854V9.61407C58.6754 9.15915 58.5829 8.73422 58.4079 8.33928C58.2379 7.93935 57.983 7.6144 57.643 7.36444C57.3031 7.11448 56.8782 6.9895 56.3682 6.9895C55.9883 6.9895 55.6384 7.06949 55.3184 7.22947C55.0035 7.38944 54.731 7.6194 54.501 7.91935C54.2761 8.2143 54.1011 8.56675 53.9761 8.97668C53.8562 9.38161 53.7962 9.83154 53.7962 10.3265V10.6489C53.7962 11.0988 53.8612 11.5188 53.9911 11.9087C54.1261 12.2936 54.3161 12.6336 54.561 12.9285C54.811 13.2235 55.1059 13.4534 55.4459 13.6184C55.7858 13.7834 56.1608 13.8659 56.5707 13.8659C57.0506 13.8659 57.4756 13.7784 57.8455 13.6034C58.2154 13.4234 58.5479 13.141 58.8428 12.7561L59.4052 13.191C59.2303 13.4509 59.0103 13.6909 58.7453 13.9109C58.4854 14.1308 58.1729 14.3058 57.808 14.4358C57.4431 14.5658 57.0181 14.6307 56.5332 14.6307ZM66.6191 12.906V2.96267H67.5189V14.4808H66.679L66.6191 12.906ZM60.9875 10.5064V10.349C60.9875 9.71906 61.06 9.15165 61.2049 8.64673C61.3499 8.13682 61.5574 7.70189 61.8273 7.34195C62.1023 6.97701 62.4322 6.69955 62.8172 6.50958C63.2021 6.31462 63.637 6.21713 64.122 6.21713C64.5969 6.21713 65.0168 6.29462 65.3818 6.44959C65.7467 6.60457 66.0591 6.82703 66.3191 7.11698C66.5841 7.40694 66.7965 7.75188 66.9565 8.15181C67.1215 8.55175 67.2415 8.99667 67.3164 9.48659V11.4888C67.2565 11.9487 67.1465 12.3711 66.9865 12.7561C66.8265 13.136 66.6141 13.4684 66.3491 13.7534C66.0841 14.0333 65.7642 14.2508 65.3893 14.4058C65.0193 14.5558 64.5919 14.6307 64.107 14.6307C63.627 14.6307 63.1946 14.5308 62.8097 14.3308C62.4247 14.1308 62.0973 13.8484 61.8273 13.4834C61.5574 13.1135 61.3499 12.6761 61.2049 12.1712C61.06 11.6662 60.9875 11.1113 60.9875 10.5064ZM61.8873 10.349V10.5064C61.8873 10.9813 61.9348 11.4213 62.0298 11.8262C62.1248 12.2311 62.2698 12.5836 62.4647 12.8835C62.6597 13.1835 62.9072 13.4184 63.2071 13.5884C63.5071 13.7584 63.862 13.8434 64.2719 13.8434C64.7869 13.8434 65.2193 13.7459 65.5692 13.5509C65.9192 13.351 66.1991 13.0885 66.4091 12.7636C66.6191 12.4336 66.7715 12.0737 66.8665 11.6837V9.35162C66.8065 9.08666 66.719 8.8167 66.6041 8.54175C66.4891 8.26679 66.3316 8.01434 66.1316 7.78437C65.9367 7.54941 65.6867 7.36194 65.3818 7.22197C65.0818 7.07699 64.7169 7.0045 64.2869 7.0045C63.872 7.0045 63.5146 7.08949 63.2146 7.25946C62.9147 7.42943 62.6647 7.66689 62.4647 7.97184C62.2698 8.27179 62.1248 8.62424 62.0298 9.02917C61.9348 9.4341 61.8873 9.87403 61.8873 10.349ZM75.88 12.5836L77.8372 6.36711H78.4671L78.0922 8.03933L76.045 14.4808H75.4151L75.88 12.5836ZM73.8479 6.36711L75.5651 12.6211L75.9325 14.4808H75.2801L72.9255 6.36711H73.8479ZM80.9042 12.5986L82.5764 6.36711H83.4988L81.1442 14.4808H80.4993L80.9042 12.5986ZM78.5946 6.36711L80.5218 12.5311L81.0092 14.4808H80.3793L78.2871 8.03183L77.9347 6.36711H78.5946ZM86.2208 6.36711V14.4808H85.3285V6.36711H86.2208ZM85.171 4.02749C85.171 3.85252 85.2235 3.70754 85.3285 3.59256C85.4385 3.47258 85.5909 3.41259 85.7859 3.41259C85.9709 3.41259 86.1184 3.47258 86.2283 3.59256C86.3433 3.70754 86.4008 3.85252 86.4008 4.02749C86.4008 4.18746 86.3433 4.32744 86.2283 4.44742C86.1184 4.5624 85.9709 4.61989 85.7859 4.61989C85.5909 4.61989 85.4385 4.5624 85.3285 4.44742C85.2235 4.32744 85.171 4.18746 85.171 4.02749ZM91.7399 6.36711V7.10199H87.6756V6.36711H91.7399ZM89.1679 4.28245H90.0602V12.5086C90.0602 12.8835 90.1102 13.166 90.2102 13.356C90.3102 13.5459 90.4401 13.6734 90.6001 13.7384C90.7601 13.8034 90.9326 13.8359 91.1175 13.8359C91.2525 13.8359 91.3825 13.8284 91.5075 13.8134C91.6324 13.7934 91.7449 13.7734 91.8449 13.7534L91.8824 14.5108C91.7724 14.5458 91.6299 14.5733 91.455 14.5933C91.28 14.6183 91.105 14.6307 90.9301 14.6307C90.5851 14.6307 90.2802 14.5683 90.0152 14.4433C89.7503 14.3133 89.5428 14.0933 89.3928 13.7834C89.2428 13.4684 89.1679 13.041 89.1679 12.5011V4.28245ZM94.5145 2.96267V14.4808H93.6221V2.96267H94.5145ZM94.312 9.92152L93.9146 9.69656C93.9446 9.21664 94.0421 8.76671 94.207 8.34678C94.372 7.92685 94.5945 7.55691 94.8744 7.23696C95.1594 6.91702 95.4918 6.66706 95.8718 6.48709C96.2567 6.30712 96.6816 6.21713 97.1465 6.21713C97.5515 6.21713 97.9139 6.27212 98.2339 6.3821C98.5538 6.49209 98.8263 6.66706 99.0512 6.90702C99.2762 7.14698 99.4462 7.45443 99.5611 7.82937C99.6811 8.2043 99.7411 8.66173 99.7411 9.20164V14.4808H98.8413V9.19414C98.8413 8.63423 98.7638 8.19681 98.6088 7.88186C98.4538 7.56191 98.2339 7.33445 97.9489 7.19947C97.664 7.06449 97.3265 6.997 96.9366 6.997C96.5066 6.997 96.1292 7.09199 95.8043 7.28196C95.4843 7.46693 95.2144 7.70939 94.9944 8.00934C94.7794 8.30429 94.6145 8.62174 94.4995 8.96168C94.3845 9.29663 94.322 9.61657 94.312 9.92152Z" fill="#EBEBEB"></path>
</g>
<defs>
<clipPath id="clip0_1375_3101">
<rect width="154.602" height="20" fill="white"></rect>
</clipPath>
</defs>
</svg>