<svg width="153" height="109" viewBox="0 0 153 109" fill="none" xmlns="http://www.w3.org/2000/svg">
<g clip-path="url(#clip0_1_618)">
<path d="M74.2266 3.58202L99.7197 0.981519C103.642 0.59093 107.769 -0.0994532 111.674 0.0101858C115.607 0.121538 119.689 2.89506 120.944 6.64848C121.833 9.30894 122.141 12.7557 122.6 15.5584L124.307 25.8867C124.823 29.2941 125.39 32.6929 126.002 36.0831C128.104 38.4832 131.584 39.6944 134.642 38.3975C135.223 38.1509 135.724 37.8236 136.255 37.4862C133.797 33.4158 134.391 29.5048 138.53 26.9454C146.869 21.7889 155.087 28.7185 152.525 37.8014C151.144 42.6272 147.224 46.8723 142.907 49.298C138.37 51.8454 133.585 52.2617 128.586 50.9581C128.978 52.678 129.346 55.1723 129.65 56.9539C129.957 58.751 130.695 62.5969 130.592 64.2569C130.505 65.5709 130.096 66.842 129.4 67.9607C126.026 73.273 117.822 74.7069 111.978 75.3801C113.171 76.5519 114.271 77.811 115.276 79.1473C115.837 79.8993 116.403 80.7936 116.98 81.5096C119.48 79.1952 122.104 77.3571 125.734 77.429C127.22 77.4581 128.935 78.1331 129.942 79.2432C130.796 80.1374 131.436 81.8077 131.27 83.1045C130.427 89.7103 125.547 95.7233 120.949 100.277C118.291 102.908 114.113 104.284 111.245 101.072C109.948 99.6189 109.291 97.5306 108.388 95.8193C105.473 89.4893 101.787 84.2198 95.6427 80.6599C90.984 77.9601 90.2977 78.0783 85.1277 78.6916L77.0595 79.6715C75.752 79.8377 73.4458 80.194 72.2361 80.2334C72.291 81.1567 72.3854 82.1161 72.3597 83.0463C72.2327 87.5364 70.9046 91.9802 67.991 95.4492C64.5026 99.6018 57.2941 101.407 52.2253 99.4031C50.2949 102.341 48.4881 104.947 44.7251 105.706C43.0675 106.028 41.3516 105.676 39.9549 104.729C34.79 101.246 36.2811 93.659 39.4761 89.2889C42.7003 84.8793 48.4709 80.0501 53.9961 83.8857C55.7377 85.0969 55.9574 86.4348 58.315 86.6318C59.36 85.0609 59.487 83.8429 59.5505 81.9602C58.6102 82.1127 57.095 82.3987 56.1959 82.457C56.1856 83.0703 56.1959 83.5757 56.0844 84.1804C55.2161 83.9011 54.9141 83.6288 54.1591 83.2502C53.0095 82.6746 51.6402 82.1983 50.3653 82.0681C48.3697 81.866 47.0004 82.5735 45.1438 82.9846C44.5638 83.1148 43.0109 83.024 42.3777 83.0172C38.0948 82.9692 33.8446 81.4788 31.9142 77.3793C30.8091 75.0324 30.5792 72.276 30.1296 69.6635L28.8599 62.268C28.5665 60.4744 28.3091 58.5368 27.9453 56.7672C24.2029 56.0203 21.811 57.2572 19.7176 60.3408C20.0556 60.5463 20.6167 60.9678 20.965 60.8992L21.0285 60.668C21.2704 60.6971 21.2773 60.7142 21.5004 60.8204C22.2554 61.5194 21.7389 61.6958 21.847 61.8466C24.6027 65.6325 24.6044 69.0279 20.6562 73.5077C14.9062 80.0329 4.25901 76.0431 4.43918 66.5354C4.65195 55.3607 10.4946 46.2213 22.0546 44.3763C23.3364 44.1861 24.5495 44.1947 25.8536 44.1793L24.3505 29.0234L23.7997 23.7367C23.7105 22.8374 23.6161 21.9226 23.5492 21.0215C22.9023 14.0543 30.9344 8.19542 37.206 7.38341C49.4318 5.80049 61.9527 4.99533 74.2283 3.57859L74.2266 3.58202Z" fill="#EBEBEB"></path>
<path d="M30.8691 47.3606C30.169 44.1571 29.8292 40.5031 29.2699 37.2499C28.997 35.6618 28.9387 33.6917 28.7774 32.0506L27.6706 21.6092C27.4561 19.7505 27.7135 18.0168 28.985 16.5435C30.6941 14.5649 33.6488 12.5982 36.1558 11.7639C36.607 11.6132 37.803 11.3973 38.5855 11.3288C43.9185 10.8628 49.2996 10.1656 54.6394 9.77159C54.7149 9.83155 54.7922 9.89151 54.8677 9.95147L55.0358 9.72876C58.6478 9.45467 62.6355 8.95615 66.2767 8.5964L96.1059 5.58647L106.415 4.50549C107.841 4.35817 109.936 4.05666 111.297 4.02754C112.27 4.00869 113.234 4.21769 114.113 4.63569C117.738 6.36422 117.591 10.3095 118.188 13.7529C119.166 19.5517 120.103 25.3557 121.004 31.1683C121.204 32.5371 121.563 36.0147 121.923 37.1437C122.435 38.7386 125.909 41.2448 127.486 41.9643C130.192 43.1875 133.276 43.2869 136.054 42.2384C137.922 41.5241 140.39 39.8298 141.401 37.9848C141.823 36.2648 139.434 35.7954 139.005 34.0652C138.406 31.6566 140.287 30.3837 142.351 29.6831L142.579 29.6282C145.975 28.2749 148.952 30.9336 149.026 34.2862C149.091 37.1608 147.013 40.2084 145.181 42.2573C142.346 45.4282 138.362 47.4377 134.086 47.5679C130.446 47.7221 125.573 46.1546 122.867 43.6569C123.936 48.654 124.779 53.7505 125.671 58.7819C126.158 61.5263 127.756 64.5397 125.429 66.95C124.125 68.3017 122.174 69.2336 120.441 69.924C119.307 70.3471 117.738 70.2837 116.546 70.5356C116.098 70.6298 115.703 70.8953 115.26 70.9964C111.841 70.8388 108.505 71.841 105.102 72.05C104.809 72.0517 104.183 72.3926 103.917 72.3155C102.429 71.8838 97.4426 69.148 96.2123 70.5887C96.4868 70.9844 98.1907 71.4607 98.781 71.7193C101.082 72.7284 103.121 73.9481 105.128 75.4351C108.162 77.6553 110.818 80.3466 112.996 83.4096C113.613 84.2884 115.756 88.2663 116.215 88.5455C116.674 88.8264 117.018 88.0915 117.229 87.7643C118.823 85.294 121.651 82.1453 124.619 81.4892C125.247 81.3504 126.054 81.2305 126.613 81.6245C126.949 81.8627 127.136 82.255 127.207 82.6541C127.594 84.8623 124.914 89.0423 123.62 90.7862C122.153 92.7649 117.616 98.5329 115.226 98.7984C115.029 98.819 114.828 98.7985 114.644 98.7196C114.246 98.55 113.91 98.1612 113.704 97.7911C112.922 96.3795 112.352 94.7401 111.679 93.2668C110.413 90.495 108.992 87.8791 107.299 85.342C105.748 83.0207 103.807 80.8331 101.626 79.0823C99.2838 77.203 94.0468 74.0115 91.0903 73.5352C89.4997 73.28 87.5264 73.859 85.922 74.0903L80.6302 74.8423C76.1534 75.5224 71.6646 76.1152 67.1655 76.624C67.4589 77.4137 67.6769 78.2309 67.8124 79.0634C69.4648 88.5352 64.5779 98.8293 53.2238 95.3174C52.5083 95.0964 51.1373 93.9983 50.5076 94.1028C49.9636 94.5157 48.2872 97.9539 47.6609 98.8396C45.8214 101.724 41.5917 103.542 40.6806 98.7676C39.8003 94.1508 45.039 87.7215 49.3579 86.572C51.3398 86.0444 53.078 88.5729 54.5897 89.5716C60.1286 93.2326 63.6702 88.8658 63.5896 83.3925C63.5913 80.9204 63.3905 79.6133 62.8415 77.1636C60.9145 77.46 57.1189 77.9807 55.2572 78.087C54.4558 79.1748 53.7317 79.4797 52.7228 78.4159C51.4925 78.6026 49.14 78.863 47.8513 78.899C44.1416 78.9761 39.7694 79.9029 36.6911 77.2595C36.0219 76.6856 35.2738 75.5447 35.0833 74.6796C34.4227 71.6748 34.0932 68.5724 33.5974 65.5316L32.2161 57.4817C32.0359 56.3716 31.751 54.9446 31.6927 53.855C29.8721 52.6901 27.4647 52.3681 25.3473 52.4503C22.3376 52.6302 19.9302 53.6803 17.8128 55.9142C16.5413 57.2556 14.7122 60.2586 14.8048 62.3058C14.846 63.2103 17.7991 63.726 18.4906 64.4095C19.0002 64.9114 19.5922 65.2541 19.6334 66.1963C19.9182 68.9647 16.8673 72.3052 14.1613 72.6033C12.895 72.7438 11.3438 72.0243 10.3881 71.2448C9.04453 70.1501 8.67561 68.6854 8.56236 67.034C8.31699 62.7581 9.98141 57.086 12.7406 53.8413C17.461 48.2909 24.6987 47.1533 31.413 49.2194C32.2126 49.466 34.7316 50.5093 35.2515 50.4648C35.55 50.2746 35.4694 50.398 35.5775 50.1324C35.4162 49.1834 31.8334 47.5713 30.8605 47.3623L30.8691 47.3606Z" fill="#1F1E25"></path>
<path d="M142.585 29.6299C142.763 29.7207 142.71 29.6796 142.835 29.8526L142.768 30.0068C142.528 30.089 142.65 30.089 142.396 29.9759L142.356 29.6847L142.585 29.6299Z" fill="#151516"></path>
<path d="M41.65 28.429C41.4612 26.5908 40.9842 24.6584 40.7749 22.8134C40.5501 21.2973 40.1915 19.7641 41.0649 18.3662C42.3123 16.367 45.2894 16.5177 47.4377 16.2933L54.9637 15.5001L78.1386 13.0435L97.8921 10.9364L104.112 10.3111C106.597 10.0559 110.497 9.07599 111.54 12.3138C112.311 14.7053 112.649 17.5987 113.043 20.1067C113.502 23.0498 114.087 26.0666 114.49 29.0029C112.321 29.3386 109.392 29.5374 107.122 29.7875C105.54 26.8444 103.784 24.8246 100.469 23.8207C97.5043 22.923 94.4414 23.6957 91.4025 24.0417L78.674 25.5184C75.2731 25.9467 71.867 26.3287 68.4575 26.6662C61.0946 27.3686 53.0264 26.5788 50.8918 35.5572L42.6778 36.4669L41.6483 28.429H41.65Z" fill="#EBEBEB"></path>
<path d="M113.045 20.1035C113.503 23.0466 114.088 26.0634 114.492 28.9997C112.323 29.3355 109.394 29.5342 107.124 29.7843C105.542 26.8412 103.786 24.8214 100.471 23.8175C97.506 22.9199 94.4431 23.6925 91.4043 24.0385L78.6757 25.5152C75.2748 25.9435 71.8688 26.3255 68.4593 26.663C61.0963 27.3654 53.0282 26.5756 50.8936 35.5541L42.6796 36.4637L41.65 28.4258C43.2269 28.138 44.8485 27.9701 46.4425 27.8005L46.8921 27.7628C47.7947 27.6583 48.7007 27.5693 49.6067 27.4956L49.8417 27.4528C50.2553 27.4425 50.8301 27.3637 51.2539 27.3191C51.2848 27.3071 51.5079 27.2866 51.5491 27.2814C52.0604 27.2352 52.673 27.141 53.1895 27.0742C54.8058 26.8874 56.6813 26.6459 58.2925 26.5654C58.7713 26.3649 66.8995 25.6232 67.9376 25.5238L68.0766 25.5032C71.414 25.1555 75.0329 24.6004 78.2691 24.3109C79.8477 24.0334 81.5087 23.8741 83.1079 23.6771C85.8482 23.3293 88.5919 23.0055 91.3374 22.7057L108.294 20.7425C109.354 20.6123 110.408 20.4787 111.472 20.3828C111.866 20.3468 112.793 20.3348 113.047 20.1018L113.045 20.1035Z" fill="#EB10EB"></path>
<path d="M53.1877 27.0774C54.8041 26.8907 56.6795 26.6491 58.2908 26.5686C57.4551 27.1151 54.931 26.7502 54.5003 27.199C54.7371 27.6136 55.3034 27.641 55.1575 28.0299C54.847 28.8556 53.7093 29.2976 52.908 29.0509L52.7707 28.9087L52.8136 28.7374C53.047 28.7494 53.1722 28.7991 53.3387 28.7014L53.3679 28.477C52.896 28.0367 53.0676 27.6462 53.1894 27.0791L53.1877 27.0774Z" fill="#FC6AFB"></path>
<path d="M53.3679 28.4753C53.4606 27.7524 54.3906 27.7489 54.9894 27.8209L55.0838 28.0008C54.9088 28.1875 54.9276 28.2029 54.7097 28.2937C54.1915 28.513 54.2739 29.1605 53.6647 28.955C53.4949 28.7511 53.452 28.7288 53.3662 28.4736L53.3679 28.4753Z" fill="#EA91E9"></path>
<path d="M67.9359 25.5269L68.0749 25.5063C68.4198 25.5954 68.9466 25.5406 69.1267 25.6657C68.9002 25.9637 68.4816 26.0134 68.1624 25.8267L68.1058 25.5869L67.9376 25.5269H67.9359Z" fill="#FC6AFB"></path>
<path d="M51.2521 27.3223C51.2829 27.3103 51.5055 27.2898 51.5465 27.2847C51.4832 27.526 51.4438 27.7691 51.4062 28.0156L51.3275 27.9796C51.3138 27.8906 51.259 27.3394 51.2521 27.3223Z" fill="#EA91E9"></path>
<path d="M49.6068 27.4988L49.8413 27.4561C49.9012 27.7197 49.9834 27.9336 49.908 28.1852L49.8379 28.1784C49.754 27.961 49.6821 27.6101 49.6068 27.5006V27.4988Z" fill="#EA91E9"></path>
<path d="M46.3927 29.6182L46.5094 29.6473C46.8457 29.9608 46.3258 30.3942 46.0804 30.6203L45.9706 30.5038C46.1679 30.1749 46.2417 30.055 46.367 29.6953L46.3927 29.6182Z" fill="#FC6AFB"></path>
<path d="M50.6791 28.7119C51.0291 28.7941 50.9914 28.729 51.2041 28.9466C51.0051 29.0785 51.0154 29.022 50.6997 28.9706C50.4492 29.2036 50.571 29.1813 50.3222 29.195C50.3874 28.8986 50.4045 28.9655 50.6791 28.7119Z" fill="#FC6AFB"></path>
<path d="M99.3814 21.8901L99.6331 21.909C99.7495 22.1726 99.6844 22.1469 99.568 22.5149C99.4362 22.4807 99.5098 22.5115 99.3609 22.39C99.3729 22.2222 99.3814 22.0562 99.3797 21.8884L99.3814 21.8901Z" fill="#FC6AFB"></path>
<path d="M42.7705 29.7856C42.9421 29.873 42.8872 29.8062 42.9489 29.9741L42.6658 30.3099C42.5182 30.2191 42.5714 30.2842 42.5182 30.106L42.7722 29.7856H42.7705Z" fill="#FC6AFB"></path>
<path d="M109.269 21.0645C109.549 21.3075 109.517 21.388 109.494 21.7354C109.219 21.5454 109.272 21.3794 109.269 21.0645Z" fill="#FC6AFB"></path>
<path d="M72.7627 18.3114C75.3829 18.0767 78.0048 17.7238 80.6198 17.4223L98.0328 15.3734C100.131 15.1182 102.232 14.8766 104.334 14.6471C105.197 14.5529 106.051 14.4466 106.918 14.3576C107.424 14.3062 107.841 14.8629 107.911 15.3203C108.124 16.7097 105.722 16.5298 104.678 16.6274C103.46 16.7491 102.242 16.8878 101.027 17.042L80.6387 19.4267C79.3895 19.5637 75.5304 20.2078 74.5232 20.165C73.4473 20.3603 70.6556 20.6121 69.5746 20.643L69.5574 20.5145C69.9349 20.2901 70.8392 20.1479 70.9284 19.8378C70.6933 19.6768 70.0979 19.3633 69.9795 19.2142L70.019 19.0172L70.1717 18.9504C70.4874 19.0806 70.9473 19.3787 71.2047 19.6117C71.1051 19.9029 71.0502 20.0622 70.9902 20.362C71.1515 20.2609 71.5084 20.2712 71.5015 20.2781C71.9717 19.9115 72.4281 18.6917 72.8245 18.4142L72.7644 18.3097L72.7627 18.3114Z" fill="#EB10EB"></path>
<path d="M86.9636 16.7542C87.4801 16.7781 87.4012 16.7713 87.7255 17.0574L87.686 17.2133C87.4492 17.2492 87.5402 17.2544 87.3085 17.167C87.1386 17.3263 86.9087 17.5542 86.6874 17.5799L86.6805 17.424C86.8555 17.1465 86.8813 17.0728 86.9653 16.7542H86.9636Z" fill="#FC6AFB"></path>
<path d="M48.3714 22.8324C48.0453 22.8667 47.6798 22.8958 47.359 22.9438L47.2595 22.9592C46.906 23.014 46.3929 23.0483 46.0926 22.8341C45.3256 22.2842 45.3582 21.2272 46.4478 21.1125C47.4225 21.0097 48.3919 20.9326 49.3631 20.8349C50.9812 20.6671 52.5959 20.4855 54.2106 20.2902C60.3895 19.5809 66.5736 18.9214 72.7629 18.3098L72.8229 18.4143C72.4266 18.6901 71.9684 19.9116 71.5 20.2782C71.5068 20.273 71.1499 20.2628 70.9886 20.3621C71.0504 20.0623 71.1053 19.903 71.2031 19.6118C70.944 19.3788 70.4859 19.0807 70.1702 18.9505L70.0174 19.0173L69.978 19.2143C70.0981 19.3634 70.6918 19.6769 70.9269 19.8379C70.8376 20.148 69.9334 20.2902 69.5559 20.5146L69.573 20.6431C67.6358 20.9686 64.7119 20.9925 62.5859 21.2255L54.6258 22.1181C52.9511 22.3202 50.7033 22.6474 49.0526 22.7416C48.8003 22.7879 48.6287 22.829 48.3696 22.8307L48.3714 22.8324Z" fill="#EB10EB"></path>
<path d="M48.3712 22.8325L48.4072 22.7074C48.6475 22.5224 48.6406 22.5327 48.8139 22.2843L48.7796 22.1198C48.632 22.0958 48.6011 22.0958 48.4433 22.0924H48.3077V21.916C48.5445 21.7926 48.5394 21.784 48.7985 21.7395L48.9409 21.8885C49.0112 22.2363 49.0576 22.3939 49.0507 22.7434C48.7985 22.7896 48.6269 22.8308 48.3678 22.8325H48.3712Z" fill="#FC6AFB"></path>
<path d="M45.8677 21.998C46.3842 22.0854 46.331 22.1505 46.4923 22.5925C46.1971 22.5634 46.0273 22.2293 45.8677 21.998Z" fill="#EA91E9"></path>
<path d="M57.6629 20.5164L57.7007 20.5129C57.9032 20.6209 57.9838 20.8264 58.1039 21.0354C57.7539 20.9309 57.6475 20.8556 57.6629 20.5164Z" fill="#EA91E9"></path>
<path d="M114.816 36.0577C115.087 36.0269 115.327 35.9583 115.554 36.0817C115.808 36.9776 116.136 39.4754 116.287 40.4707C116.443 41.4865 116.906 44.1145 116.925 45.0601C116.933 45.4969 116.875 45.9303 116.752 46.3501C116.54 47.0696 115.888 48.0717 115.214 48.279C113.491 48.8067 110.727 49.0619 108.966 49.2846L93.9026 51.068C83.2949 52.4196 72.6718 53.6496 62.0366 54.7614C57.6542 55.2377 53.0899 55.8527 48.6886 56.1165C45.5005 56.3084 45.2208 53.1031 44.8467 50.7288C44.4812 48.2602 44.1415 45.7864 43.8275 43.3093C46.367 43.0318 49.0747 42.7714 51.5954 42.4356C51.7412 42.7491 51.8973 43.0575 52.0655 43.359C54.1297 47.0353 57.9545 49.3137 62.2236 48.9728C65.084 48.745 67.9856 48.3253 70.8375 47.9809L85.2476 46.2781L95.6991 45.0841C97.1336 44.9196 98.7809 44.8511 100.176 44.5701C104.342 43.729 106.842 40.7242 107.892 36.8217C110.015 36.4843 112.596 36.3421 114.819 36.0611L114.816 36.0577Z" fill="#EB10EB"></path>
<path d="M74.3191 49.4164L74.4358 49.3925C74.6263 49.8961 74.8768 49.8601 74.8768 50.1976L74.7378 50.1788C74.4564 49.9407 74.4341 49.8721 74.2402 49.5483L74.3191 49.4182V49.4164Z" fill="#FC6AFB"></path>
<path d="M79.4068 47.7152C79.8374 47.7563 80.2047 47.9379 80.1292 48.4261C79.8306 48.0852 79.8872 48.0989 79.393 47.9962L79.4068 47.7152Z" fill="#FC6AFB"></path>
<path d="M92.3668 47.5388C92.4354 47.6022 92.4543 47.657 92.5041 47.7427C92.4852 48.039 92.2604 48.2189 92.0528 48.457C91.9618 48.3988 92.015 48.4416 91.9189 48.3046C92.1351 48.0185 92.1935 47.9397 92.3359 47.6108L92.3668 47.5388Z" fill="#FC6AFB"></path>
<path d="M48.0761 51.8678L48.1808 51.8079C48.4673 51.9021 48.6063 52.0563 48.5943 52.3492L48.536 52.3543C48.361 52.1916 48.2786 52.1333 48.0898 51.998L48.0778 51.8661L48.0761 51.8678Z" fill="#FC6AFB"></path>
<path d="M74.2882 51.1022C74.573 50.9788 74.8647 51.3557 75.0037 51.5561C74.7532 51.551 74.3637 51.3574 74.2882 51.1022Z" fill="#FC6AFB"></path>
<path d="M48.6577 45.334L48.7812 45.4282L48.7504 45.555L48.3317 45.7126L48.1807 45.5978L48.2013 45.4847L48.6577 45.334Z" fill="#FC6AFB"></path>
<path d="M89.4412 49.5792C89.5956 49.6906 89.5373 49.6203 89.6162 49.7916L89.3417 50.0212C89.1546 49.891 89.2267 49.9715 89.1186 49.7797L89.4412 49.5792Z" fill="#FC6AFB"></path>
<path d="M60.2041 30.4814C64.3635 29.8681 68.2277 32.7513 68.8145 36.9073C69.4031 41.0633 66.4895 44.9024 62.3233 45.4643C58.1948 46.0193 54.3907 43.143 53.8073 39.0247C53.2239 34.9064 56.0808 31.0896 60.2024 30.4814H60.2041Z" fill="white"></path>
<path d="M61.9577 32.5234C63.0044 32.729 63.6581 33.0048 64.5264 33.5993C64.3188 34.0344 64.1403 34.4473 63.9516 34.891C64.293 35.4409 64.5641 35.7184 65.0412 36.121C65.4341 36.0113 65.906 35.8126 66.2337 36.1518C66.7553 36.6914 66.6575 37.8752 66.6524 38.5793C65.0892 38.79 65.2848 38.7454 64.7271 40.1194C65.0343 40.4363 65.3946 40.7738 65.7155 41.0838C65.1956 42.0466 64.4303 42.5537 63.4419 42.9357C63.2978 42.7473 63.0147 42.3156 62.8671 42.1939C61.6934 41.2226 61.3245 42.2727 60.8166 43.1858C60.7119 43.376 60.3876 43.2903 60.2126 43.2749C59.3495 43.0813 58.7747 42.8912 58.1141 42.2847C58.4401 41.7982 58.5688 41.5704 58.8245 41.0444C58.5104 40.4671 58.3183 40.2924 57.788 39.9069C57.3762 40.0166 56.9284 40.1057 56.5097 40.1982C56.1545 39.5917 55.4218 37.9506 56.2712 37.4709C56.4805 37.3527 57.1103 37.2636 57.3745 37.2208C57.6594 36.6709 57.7297 36.4345 57.915 35.8469C57.5839 35.5214 57.1703 35.225 56.7997 34.9389C57.3951 33.8819 58.0437 33.4811 59.075 32.9723C59.3392 33.2721 59.7493 33.8545 59.9981 34.192C61.7278 33.9642 61.1872 33.8819 61.9131 32.5988L61.956 32.5251L61.9577 32.5234Z" fill="black"></path>
<path d="M97.0941 26.5103C101.169 26.0992 104.809 29.0594 105.228 33.128C105.648 37.1967 102.688 40.8353 98.6127 41.2585C94.5306 41.6833 90.8757 38.7213 90.4553 34.6441C90.0349 30.5669 93.0103 26.9232 97.0941 26.5103Z" fill="white"></path>
<path d="M98.4155 28.5334C99.0847 28.6311 100.459 29.0183 100.864 29.5647C100.922 29.8491 100.562 30.4967 100.427 30.8119C100.68 31.3549 100.873 31.5896 101.32 31.9819C101.672 31.9237 102.295 31.7592 102.582 31.9203C103.036 32.4685 103.081 33.2753 103.088 33.9486C103.112 34.7606 101.9 34.4334 101.453 34.9902C100.85 35.7371 101.808 36.5662 102.292 37.0116C101.581 37.8648 101.099 38.2965 100.111 38.7727C99.8191 38.3718 99.5857 38.0789 99.2666 37.702C98.7913 37.7328 98.5013 37.7911 98.0414 37.8802C97.7222 38.5312 97.899 39.1719 97.0891 39.1684C95.3852 38.7008 94.5873 38.8001 95.5293 36.9534C95.1278 36.3281 95.0111 36.1671 94.3659 35.809L93.1717 36.1825C92.8594 35.5144 92.6295 34.8051 92.5642 34.0548C92.5231 33.2 93.786 33.3558 94.3059 32.6929C94.9442 31.8774 94.0005 31.2898 93.3656 30.9027C94.0159 29.9159 94.4963 29.4996 95.5551 29.0046C95.8468 29.2889 96.1488 29.736 96.3976 30.0718C98.1341 29.9519 97.7102 29.9313 98.4172 28.5334H98.4155Z" fill="black"></path>
<path d="M104.984 53.6048C105.907 53.5637 106.813 54.2935 107.27 55.0404C109.191 58.1925 111.021 61.3857 112.961 64.5293C113.394 65.2317 114.279 66.3846 114.116 67.2634C114.077 67.4759 113.938 67.5238 113.771 67.6009C113.38 67.5838 113.1 67.4176 112.833 67.1367C112.119 66.3812 111.566 65.1717 111.036 64.2741C110.166 62.7991 106.405 56.3955 105.384 55.6862C104.979 55.4036 104.039 55.4618 103.553 55.4841C101.552 55.5766 99.5017 55.9141 97.5079 56.1265C92.5197 56.661 87.5351 57.2469 82.5572 57.879C78.3687 58.3775 74.1802 58.9 69.9985 59.4499C66.9374 59.8525 63.7853 60.2568 60.7739 60.9129C58.2721 61.4132 58.2841 60.5069 57.6887 63.4586C56.9646 67.0476 56.1495 70.64 55.4837 74.2461C55.3379 75.0392 54.7682 75.9969 53.9652 75.0409C53.519 74.491 54.0527 73.2422 54.1694 72.6529C54.3272 71.8905 54.5074 71.0597 54.6756 70.2665L56.8342 60.0786C57.1327 59.7994 57.4038 59.5527 57.8157 59.4773C61.3556 58.8195 64.9469 58.4306 68.5194 58.0178L82.3994 56.3937L97.8648 54.4494C100.152 54.1667 102.717 53.7898 104.984 53.6099V53.6048Z" fill="white"></path>
<path d="M78.7597 36.5716C79.9351 36.4688 81.0779 36.3043 82.2601 36.2461C82.4677 37.2979 82.7938 38.3241 83.2382 39.3006C83.59 40.0955 83.9554 40.7499 84.1939 41.591L84.2197 41.6818C81.7831 41.9302 78.5023 42.1786 76.2305 42.833C76.3626 41.8822 76.5222 40.9006 76.5719 39.9447C76.6251 38.9322 76.541 37.8376 76.6371 36.8354C77.1021 36.796 77.5568 36.7275 78.0184 36.6641L78.7597 36.5716Z" fill="white"></path>
<path d="M74.5867 29.738C75.4859 29.6249 81.6889 28.8438 82.2242 29.075C82.2791 29.3611 82.032 30.2537 81.9926 30.7265C81.8862 31.9959 81.9686 33.142 81.8656 34.4045L81.3405 34.4234C81.1878 34.4491 80.4311 34.5656 80.3367 34.6032C79.9489 34.6324 78.3703 34.7266 78.1112 34.8688C77.6462 34.9202 76.6201 35.0675 76.2014 35.0795C75.8582 33.1882 75.4687 31.4563 74.5885 29.738H74.5867Z" fill="white"></path>
<path d="M81.8638 34.4028C83.0032 34.4645 84.0825 34.0465 85.1961 34.0328C85.7126 34.0259 86.2977 34.8294 86.2171 35.2062C85.9974 36.2341 83.0512 36.1741 82.2585 36.2444C81.0762 36.3026 79.9334 36.4654 78.7581 36.5699L78.0168 36.6624C77.5552 36.7258 77.1005 36.7943 76.6355 36.8337C75.4996 37.0016 74.3619 37.1164 73.2191 37.2397C72.3783 36.6829 72.1141 35.9377 73.214 35.506C74.0205 35.1891 75.3245 35.1274 76.1962 35.0778C76.6149 35.0658 77.6427 34.9167 78.106 34.867C78.3668 34.7249 79.9455 34.6289 80.3315 34.6015C80.4259 34.5638 81.1843 34.4473 81.3353 34.4216L81.8604 34.4028H81.8638Z" fill="#EB10EB"></path>
<path d="M78.504 35.9274L78.6447 35.8691C78.643 35.5025 78.5813 35.5573 78.7683 35.3672C79.1406 35.583 78.8592 36.2066 78.7614 36.5715L78.0202 36.664C78.0682 36.1535 78.1231 36.1963 78.504 35.9274Z" fill="#FC6AFB"></path>
<path d="M80.3351 34.6013C80.4295 34.5636 81.1879 34.4471 81.3389 34.4214C81.3852 34.8308 81.0747 35.2163 80.6886 35.3259C80.3162 34.9679 80.5976 34.8205 80.3334 34.6013H80.3351Z" fill="#FC6AFB"></path>
<path d="M49.7747 38.1133C50.1642 38.0602 50.3273 37.9985 50.6104 38.1921C50.8129 38.5724 50.8317 39.3656 50.9244 39.9086C48.68 40.1536 46.4579 40.4431 44.2084 40.6641C43.5752 40.7635 43.3144 40.7669 43.2251 39.9891C43.1822 39.614 43.129 39.2319 43.069 38.8585C45.1916 38.5484 47.6299 38.3154 49.773 38.1133H49.7747Z" fill="#EB10EB"></path>
<path d="M114.013 31.5041C114.377 31.4407 114.487 31.4133 114.734 31.5726C115.017 32.0694 115.02 32.7307 115.094 33.3285C113.472 33.63 110.787 33.7945 109.028 34.0052L108.045 34.1012C108.036 33.493 107.937 32.7975 107.865 32.1859C109.682 31.881 112.136 31.6942 114.013 31.5007V31.5041Z" fill="#EB10EB"></path>
<path d="M120.662 60.0857C120.921 60.1011 121.198 60.1354 121.443 60.2245C121.997 60.43 122.44 60.86 122.658 61.4099C123.179 62.6896 122.658 63.9333 121.352 64.4113C118.873 64.5312 118.087 61.1889 120.662 60.0874V60.0857Z" fill="white"></path>
<path d="M61.9526 67.8101C63.3974 67.9128 64.9966 68.6049 64.6432 70.5151C64.5488 71.0256 63.8899 71.5446 63.4317 71.7845L62.5652 71.8941L62.4811 71.8599C61.292 71.3648 61.0483 70.9519 60.7412 69.7442C60.9625 68.8979 61.0947 68.1972 61.9526 67.8118V67.8101Z" fill="white"></path>
<path d="M46.7565 69.691C49.5397 69.5933 50.4388 72.5279 48.1464 73.5146C46.4768 73.7254 45.8111 72.963 45.4404 71.4503C45.5176 71.2448 45.5966 71.0392 45.6789 70.8353C45.95 70.1672 46.1096 69.9668 46.7582 69.691H46.7565Z" fill="white"></path>
<path d="M71.0073 64.8841C73.4868 64.6683 73.914 68.2915 71.6559 68.987C69.4956 69.0333 68.5467 65.9086 71.0073 64.8841Z" fill="white"></path>
<path d="M104.665 63.0116C105.083 63.0253 105.368 63.0596 105.753 63.2497C106.212 63.4707 106.552 63.8819 106.684 64.3752C106.822 64.8874 106.744 65.4356 106.47 65.8896C106.121 66.4652 105.746 66.604 105.135 66.7702C102.455 66.753 102.278 63.8647 104.665 63.0133V63.0116Z" fill="white"></path>
<path d="M95.8519 62.9158C96.7819 62.9346 97.554 63.392 97.6398 64.3873C97.6845 64.9252 97.506 65.458 97.1457 65.8623C96.6892 66.3814 96.2946 66.4328 95.6477 66.4636C94.299 66.2992 93.2591 65.2148 94.0708 63.8648C94.4946 63.159 95.1072 63.0888 95.8519 62.9175V62.9158Z" fill="white"></path>
<path d="M41.6912 65.3552L41.8885 65.3038C41.8851 65.6482 41.8748 65.8366 41.9263 66.1724C42.266 67.5446 42.4702 69.0795 42.7276 70.4843C43.1085 72.4818 43.5358 74.4707 44.0094 76.4493C43.3916 76.1649 42.3192 75.4352 42.23 74.8681C41.9434 73.0608 41.7272 68.9408 41.7804 67.2037C41.6877 66.6555 41.6998 65.9257 41.6929 65.3552H41.6912Z" fill="white"></path>
<path d="M41.6912 65.3552L41.8885 65.3038C41.8851 65.6482 41.8748 65.8366 41.9263 66.1724C41.7632 66.4653 41.7924 66.8559 41.7804 67.2037C41.6877 66.6555 41.6998 65.9257 41.6929 65.3552H41.6912Z" fill="#C2C6C7"></path>
<path d="M34.1345 15.0857C34.3696 15.1063 34.289 15.0891 34.5069 15.1816C34.7694 15.6219 34.9067 17.0609 34.9822 17.6502C34.7282 17.8849 33.4156 18.207 33.0141 18.3218C32.5988 18.5102 32.5628 18.5684 32.1492 18.3629C31.6791 17.3607 33.2835 15.5876 34.1345 15.0857Z" fill="white"></path>
<path d="M39.3387 14.366C39.711 14.4413 39.8311 14.4773 40.0233 14.8097C40.0748 15.1848 40.0405 15.2277 39.9135 15.6011C39.6166 15.6268 39.5669 15.5412 39.3816 15.3185C39.246 14.8953 39.2803 14.8234 39.3387 14.366Z" fill="white"></path>
<path d="M39.0624 71.1782C39.2717 71.7744 39.0023 71.9902 38.5459 72.2506L38.5493 72.0279C38.8994 71.7624 38.932 71.5877 39.0624 71.1782Z" fill="#2E2E2F"></path>
<path d="M41.6913 65.3553L41.578 64.1372L41.7067 64.0687L41.6895 64.0088L41.5831 64.0019L41.5917 63.9231L41.6672 63.9505L41.6964 64.0481L41.5746 64.091L41.7187 64.1338C41.7873 64.5227 41.844 64.9133 41.8903 65.3039L41.693 65.3553H41.6913Z" fill="#5D5D61"></path>
<path d="M35.8383 14.563C36.0923 14.6058 36.3548 14.6692 36.5316 14.8525C36.3274 14.9416 36.3034 14.8833 36.0288 14.8148C35.7371 14.7531 35.6256 14.9107 35.3768 14.7874C35.7852 14.7206 35.2807 14.6658 35.8401 14.563H35.8383Z" fill="#151516"></path>
<path d="M34.6784 34.3772C34.8586 34.4457 35.037 34.5177 35.2138 34.5948L35.2172 34.713L35.0473 34.8089L35.001 34.9151L34.9941 35.0213L34.8792 35.0162C34.8242 34.7969 34.7676 34.5845 34.6784 34.3772Z" fill="#151516"></path>
<path d="M40.7663 52.524C41.0082 52.6628 41.0391 52.644 41.1455 52.8889L41.0477 52.9318L40.8143 52.7964C40.5741 52.9866 40.6153 53.026 40.3905 53.0037C40.49 52.6919 40.4797 52.7759 40.7663 52.5258V52.524Z" fill="#C2C6C7"></path>
<path d="M36.4832 57.014L36.6954 57.1082C36.6372 57.406 36.627 57.5361 36.6098 57.8391C36.5037 57.7227 36.4472 57.6303 36.3565 57.5002C36.3308 57.1698 36.3052 57.329 36.4832 57.0123V57.014Z" fill="#151516"></path>
<path d="M36.4047 38.9956C36.4527 39.011 36.4853 39.0556 36.5231 39.0881C36.2931 39.4239 36.2914 39.4359 36.2468 39.8333C36.1456 39.7819 36.2108 39.8213 36.0735 39.6877C36.0872 39.3845 36.2279 39.2474 36.4047 38.9956Z" fill="#2E2E2F"></path>
<path d="M29.8035 30.4678L29.9507 30.5243C30.0911 30.7211 30.0363 31.0806 30.0278 31.3459C29.771 31.1131 29.8532 30.9231 29.8035 30.4661V30.4678Z" fill="#959297"></path>
<path d="M47.2091 63.0149C47.3495 63.0645 47.2793 63.0252 47.406 63.1518C47.3306 63.2785 47.2844 63.3589 47.2177 63.4925L47.1646 63.6037L47.1201 63.6602L47.0328 63.5917C47.0191 63.2648 47.0345 63.2768 47.2074 63.0132L47.2091 63.0149Z" fill="#151516"></path>
<path d="M37.4651 11.9763C37.5903 12.0346 37.5783 12.0397 37.6864 12.1305C37.4599 12.271 37.4205 12.3292 37.2695 12.5382L37.2643 12.6153L37.206 12.5913C37.2214 12.2436 37.254 12.247 37.4651 11.978V11.9763Z" fill="#5D5D61"></path>
<path d="M71.7109 9.87451L71.7744 9.97216C71.4707 10.1657 71.4484 10.1675 71.3077 10.4844L71.2442 10.4227L71.2631 10.152C71.4552 9.86423 71.3231 9.97045 71.7126 9.87451H71.7109Z" fill="#2E2E2F"></path>
<path d="M38.8202 22.0974L38.8972 22.1659C39.0068 22.4158 38.9417 22.5887 38.8938 22.8608C38.6268 22.6109 38.7552 22.4432 38.8202 22.0957V22.0974Z" fill="#5D5D61"></path>
<path d="M53.6118 40.8389L53.8932 40.8937L53.9309 40.9948L53.7284 41.1729L53.4093 41.1421L53.3887 41.0427L53.6118 40.8389Z" fill="#2E2E2F"></path>
<path d="M73.9759 9.45483C74.2635 9.537 74.1865 9.46168 74.3628 9.63799C74.2755 9.68934 74.3371 9.66024 74.1659 9.68078L73.9777 9.45483H73.9759Z" fill="#151516"></path>
<path d="M85.548 60.6305C85.747 60.6031 85.9032 60.5962 86.1022 60.5859L86.1932 60.6699C85.9307 60.8172 85.7934 60.7281 85.548 60.6288V60.6305Z" fill="#151516"></path>
<path d="M48.7144 91.1958L48.9083 91.2866L48.9048 91.3979L48.5565 91.6104C48.3901 91.5179 48.445 91.583 48.3763 91.4254L48.7126 91.1958H48.7144Z" fill="#5D5D61"></path>
<path d="M83.7891 30.824L83.8935 30.8C83.9072 30.9592 83.9278 31.0209 83.9757 31.1715C83.9346 31.1835 83.9688 31.1783 83.8319 31.1664L83.7874 30.8257L83.7891 30.824Z" fill="#151516"></path>
<path d="M37.8879 22.4641L37.9581 22.6079L37.6483 23.017C37.5644 22.9519 37.6021 22.9982 37.5627 22.8612L37.8879 22.4641Z" fill="#2E2E2F"></path>
<path d="M115.216 89.3334L115.363 89.4498C115.372 89.6004 115.392 89.7391 115.428 89.8845L115.303 89.8794C115.291 89.7117 115.284 89.6381 115.249 89.4772L115.218 89.3334H115.216Z" fill="#2E2E2F"></path>
<path d="M32.1387 51.8919L32.2996 52.0134C32.327 52.2616 32.3133 52.2564 32.4297 52.4721L32.2791 52.5063L32.1387 51.8901V51.8919Z" fill="#151516"></path>
<path d="M37.1132 28.1462C37.4049 28.1925 37.4804 28.1462 37.6366 28.3158C37.4204 28.3998 37.2848 28.2559 37.1132 28.1462Z" fill="#151516"></path>
<path d="M89.1135 66.0353C89.3332 66.061 89.2662 66.0421 89.4584 66.1261L89.3469 66.2768C89.0706 66.3145 89.1822 66.3488 88.9608 66.258L89.1135 66.037V66.0353Z" fill="#151516"></path>
<path d="M29.0176 25.0113L29.1546 24.9856L29.2384 25.4666C29.1083 25.4255 29.1357 25.4255 29.0193 25.3365V25.0113H29.0176Z" fill="#2E2E2F"></path>
<path d="M116.932 9.52832C117.012 9.59342 116.978 9.54888 117.009 9.67736L116.534 9.85381L116.486 9.74417L116.934 9.52832H116.932Z" fill="#151516"></path>
<path d="M39.1414 13.1771L39.6012 13.1411L39.6973 13.2542C39.4348 13.309 39.3953 13.2679 39.1414 13.1771Z" fill="#151516"></path>
<path d="M78.4953 9.66529L78.6322 9.66016L78.55 10.0025L78.4063 9.92718L78.4953 9.66529Z" fill="#151516"></path>
<path d="M86.0164 44.7617L86.0954 44.7566L86.1315 45.0434L85.9769 45.0468L86.0164 44.7617Z" fill="#151516"></path>
<path d="M82.1521 53.5383L82.4148 53.4799L82.408 53.6327L82.1487 53.6447L82.1521 53.54V53.5383Z" fill="#151516"></path>
<path d="M47.201 105.555L47.3332 105.514C47.6575 105.61 47.7381 105.608 47.9646 105.863L47.9509 106.031L47.8822 106.084C47.7656 106.007 47.2851 105.641 47.201 105.555Z" fill="#FC6AFB"></path>
<path d="M35.328 81.7325L35.3965 81.8061C35.4188 82.0852 35.3417 82.0869 35.1517 82.3847C35.0559 82.2991 35.1021 82.3573 35.0439 82.193L35.328 81.7325Z" fill="#EA91E9"></path>
<path d="M66.2648 108.762L66.3712 108.757L66.5035 108.956C66.4022 109.016 66.464 108.994 66.3146 108.999L66.2648 108.76V108.762Z" fill="#2E2E2F"></path>
<path d="M6.72806 33.0494L6.85515 33.0339L6.84485 33.3087L6.69887 33.3122L6.72806 33.0477V33.0494Z" fill="#5D5D61"></path>
<path d="M131.656 10.3882C132.571 10.3573 132.737 10.6914 133.02 11.4811C132.958 11.697 132.833 12.1064 132.703 12.2777C131.747 13.5232 129.261 15.7382 128.011 16.5417C126.447 17.0368 126.5 15.9661 127.193 14.9211C127.89 13.8726 128.816 12.9801 129.683 12.067C130.27 11.4486 130.88 10.7668 131.654 10.3882H131.656Z" fill="black"></path>
<path d="M127.6 6.28359C129.835 6.23219 128.562 8.4678 127.936 9.49738C127.358 10.4464 126.755 11.93 125.894 12.6187C124.52 12.9424 124.533 11.6285 124.936 10.8233C125.552 9.59503 126.337 6.85234 127.601 6.28359H127.6Z" fill="black"></path>
<path d="M132.776 18.2222C133.157 18.1914 133.42 18.1759 133.739 18.4449C133.966 18.6351 134.105 18.9091 134.127 19.2038C134.262 20.857 130.535 20.6737 129.48 20.7216C128.76 20.6959 128.226 20.7901 127.931 20.0192C128.046 18.8218 131.723 18.3781 132.776 18.2222Z" fill="black"></path>
</g>
<defs>
<clipPath id="clip0_1_618">
<rect width="153" height="109" fill="white"></rect>
</clipPath>
</defs>
</svg>