<svg width="142" height="134" viewBox="0 0 142 134" fill="none" xmlns="http://www.w3.org/2000/svg">
<path d="M29.0132 24.5483C30.2132 21.8721 31.0107 19.7595 32.6356 17.1632C37.6464 9.16182 44.5051 3.17511 53.7442 0.883192C62.6272 -1.31982 72.2285 0.743055 79.943 5.46401C86.8361 9.68018 92.01 15.8959 95.357 23.2539C96.3999 25.49 97.2243 27.8211 97.8198 30.2185C100.573 31.3833 102.498 34.1529 102.295 37.1968C102.268 37.6006 102.196 38.0059 102.13 38.4053C102.391 38.7142 103.1 39.2672 103.455 39.6348C104.47 40.6881 105.048 41.6977 105.729 42.9635C108.247 48.8839 107.976 54.2664 105.681 60.2214C105.035 61.9001 104.325 63.098 103.471 64.6531C103.3 64.9394 103.22 64.9529 103.254 65.2061C103.458 65.307 103.458 65.307 103.679 65.3522C104.342 65.5994 104.91 65.741 105.569 65.9565C111.833 67.8868 117.371 71.6373 120.498 77.5668C121.233 78.9471 121.783 80.4177 122.136 81.9427C122.292 82.6072 122.374 83.3425 122.563 83.9784C122.814 84.8253 123.565 85.541 123.962 86.3291C124.307 87.0177 124.569 87.6054 124.771 88.3694C127.132 97.2553 120.972 103.712 112.158 103.747C111.848 103.697 111.183 103.674 110.841 103.655C109.812 103.378 109.237 103.352 108.241 102.879L107.964 102.749C108.651 103.313 109.62 104.017 110.457 104.327C110.663 104.419 111.007 104.589 111.209 104.652C111.872 104.893 113.216 105.297 113.904 105.32C115.737 105.645 117.166 105.495 118.919 105.106C125.727 103.87 126.119 96.3647 131.636 93.5605C134.951 91.8758 139.934 92.2842 141.717 96.0001C142.014 96.9343 142.052 97.4135 141.946 98.3945C141.632 99.6979 141.108 100.481 139.965 101.187C138.438 102.13 137.308 102.068 135.605 102.041C134.86 102.77 133.63 105.563 132.938 106.675C129.528 112.185 123.561 115.56 117.114 115.63C101.913 115.782 93.2623 102.972 93.376 88.8516C93.4 86.0157 93.6244 83.1527 94.1301 80.362L92.8 80.3409L90.7292 93.6735C89.9841 98.4442 89.9886 101.3 87.3971 105.623C85.889 107.561 84.6127 108.923 82.2591 109.869C80.7584 110.461 79.539 110.817 77.9021 110.763C79.3609 111.569 80.8407 111.537 82.3294 110.803C84.7129 109.922 85.6406 107.995 87.6709 106.516C93.5586 102.793 100.438 109.422 103.35 114.197C103.577 114.578 103.791 114.971 103.987 115.371C105.461 118.422 105.962 121.517 104.494 124.66C103.478 126.315 102.896 126.868 101.192 127.801C100.769 127.974 100.44 128.113 100.001 128.241C99.916 128.26 99.4267 128.366 99.3699 128.385C97.4323 128.626 96.3834 128.432 94.5461 127.81C93.1277 126.906 92.8942 126.951 91.6494 125.622C91.3651 125.253 91.0733 124.888 90.813 124.501C89.9422 125.007 89.1896 125.424 88.2395 125.792C86.7403 126.353 85.7109 126.686 84.107 126.964C84.0935 126.967 84.08 126.97 84.0651 126.972C79.8038 127.638 75.4438 126.777 71.7467 124.541C71.1437 124.18 70.1442 123.402 69.5443 122.961C65.1693 119.239 63.4951 115.669 62.147 110.285C62.114 109.911 62.0362 109.559 61.9644 109.191C60.1899 109.114 58.1102 108.831 56.3177 108.641C55.0384 108.505 52.7298 108.329 51.5522 108.043C50.5902 109.31 49.3977 110.838 48.5568 112.181C48.2591 112.63 47.8371 113.229 47.5918 113.69C47.3269 114.072 47.0411 114.533 46.8511 114.958C46.5519 115.327 46.0267 116.368 45.7948 116.819L45.5659 117.304C44.5784 118.913 43.3694 122.472 42.8861 124.353C42.1111 127.373 42.5121 131.345 39.3326 133.126C37.796 133.897 36.8354 134.042 35.0968 133.991C34.5747 133.976 34.1452 133.986 33.6275 133.839C28.521 132.339 25.6138 130.35 21.4394 127.177C21.2194 126.966 21.0458 126.838 20.802 126.652C20.6479 126.443 18.8195 124.745 18.4768 124.374C15.3857 121.029 13.5109 118.157 12.8585 113.565C12.7718 111.421 13.2102 109.477 14.5508 107.778C18.9092 102.252 26.5833 104.658 31.2052 108.42C32.1867 106.935 33.0904 105.642 34.1871 104.249C34.1123 104.223 34.0375 104.196 33.9627 104.167C29.7299 102.531 26.8078 99.6331 24.945 95.5239C24.7295 94.8006 24.4752 94.2009 24.2896 93.4354C23.8168 91.4871 23.8797 89.6834 23.9111 87.7079C24.0443 87.1051 24.2103 85.3783 24.3136 84.6625C24.6443 82.3917 25.0348 80.1299 25.4866 77.8817C21.6054 77.5035 20.181 77.2925 16.5362 75.6772C16.3537 75.5265 15.4724 75.0564 15.1971 74.8951C14.1887 74.309 13.4077 73.5842 12.483 72.9106L11.3698 71.8302C10.1489 70.456 9.58631 69.5609 8.84868 67.9109C8.83371 67.8551 8.81726 67.7994 8.7993 67.7436C8.77536 67.6668 8.65716 67.3443 8.59731 67.3277C7.39435 67.0083 6.40834 66.6813 5.30264 66.0996C0.900765 63.7249 -0.400945 58.7131 0.101784 54.0207C0.872337 48.1877 4.05629 43.2543 10.3569 43.2242C11.4147 41.1794 13.5049 39.6936 15.7911 39.4857C16.7697 39.3968 17.9741 39.4857 18.8614 39.9317C19.0574 38.3947 19.406 36.8818 19.9012 35.4157C21.4513 30.7279 24.5859 26.7679 29.0042 24.5498L29.0132 24.5483ZM47.9643 22.4025L62.0033 23.932C63.6851 24.1203 65.6421 24.2846 67.2925 24.5362C71.6165 24.9958 75.9301 25.5443 80.2317 26.1847C79.524 24.6809 78.8118 23.3051 77.7944 21.9731C74.1975 17.2566 68.3802 15.2525 62.6407 15.4092C56.2758 15.8146 52.3153 17.6936 47.9643 22.4025ZM25.7844 65.3824C26.3844 65.4321 27.0502 65.5044 27.6472 65.4879C28.0811 63.199 28.3399 60.8317 28.8307 58.5503C27.0666 58.0169 24.2777 56.7948 23.1974 55.2714C22.2653 56.944 21.3346 58.4418 20.6179 60.2787C19.8504 62.2496 20.2708 63.5696 22.2428 64.534C23.1959 65.0012 24.6891 65.4095 25.7859 65.3824H25.7844Z" fill="#EBEBEB"></path>
<path d="M59.868 3.80199C67.1127 3.41623 74.5833 6.0487 80.3961 10.3432C86.3511 14.7432 90.4986 20.8942 93.1454 27.794C93.8083 29.5224 94.507 31.6003 94.7898 33.4206C95.1773 33.4462 95.5633 33.499 95.9434 33.5803C96.7917 33.7627 97.5922 34.2569 98.0336 35.0164C98.9328 36.5684 98.5348 38.0708 98.1637 39.6665C98.8206 40.1382 99.259 40.4305 99.8634 40.988C102.409 43.3297 103.713 47.0305 103.824 50.448C104.036 55.5954 102.184 60.6132 98.6829 64.3698C99.3981 65.8495 100.221 66.835 100.782 68.5076C105.744 69.6965 109.842 71.0512 113.678 74.6706C115.948 76.7983 117.594 79.5121 118.437 82.5168C118.714 83.5083 118.832 84.5556 119.159 85.4928C119.316 85.9464 119.917 86.8595 120.182 87.2965C121.035 88.6813 121.512 90.268 121.568 91.8969C121.621 93.883 120.899 95.9097 119.518 97.3743C116.852 100.204 111.465 101.232 108.473 98.3613C107.044 96.9916 106.549 95.1035 106.508 93.1793C103.646 92.7558 102.97 89.8356 104.358 87.5904C105.426 85.862 107.407 85.0649 109.309 84.6384C108.003 80.3605 104.998 78.0369 100.71 77.1178C100.311 81.1923 99.4729 85.6134 99.4999 89.6984C99.5373 95.1834 101.596 101.363 105.573 105.205C111.413 110.847 123.239 110.737 127.772 103.396C129.743 100.322 131.318 96.7173 135.406 96.428C138.273 96.2246 138.858 98.5301 136.229 98.5226C133.448 98.4065 131.936 100.596 130.742 102.883C127.307 109.569 121.179 112.172 113.893 111.335C102.898 110.161 96.6406 98.8721 96.9503 88.5683C97.0655 84.75 97.7134 80.7176 98.0829 76.8676C95.0501 76.7772 92.8148 76.5512 89.6338 76.6295L89.6188 76.7847C89.4587 78.5176 89.0473 80.5971 88.757 82.333L87.397 90.8241C86.9975 93.449 86.6384 98.7395 85.8334 101.053C85.2993 102.612 84.3417 103.991 83.0669 105.031C79.7603 107.751 75.9539 107.208 72.0308 106.816C72.8178 110.517 75.5873 114.693 79.5942 115.253C82.5283 115.663 84.9791 113.932 87.0259 112.034C88.3381 110.815 89.8522 108.76 91.8557 109.14C94.9618 109.724 97.3782 112.268 99.2276 114.673C99.4939 115.06 99.7527 115.452 100.003 115.848C101.086 117.599 102.108 119.906 101.614 122.016C101.099 124.217 98.8041 125.043 96.8052 124.427C94.3693 123.675 92.713 121.757 91.5235 119.576C89.4348 121.416 86.6922 122.62 83.9661 123.096C79.9892 123.788 75.903 122.852 72.6158 120.494C68.8199 117.771 66.6085 113.413 65.5552 108.948C65.2903 107.824 65.1392 106.7 64.9507 105.563C61.9074 105.208 58.8686 104.818 55.8342 104.39C54.3141 104.179 51.7226 103.739 50.2608 103.662C49.4289 104.496 48.5357 105.686 47.807 106.625C44.2191 111.248 40.8481 116.677 39.5539 122.48C39.3803 123.257 39.2382 124.041 39.1275 124.829C38.9449 126.235 38.9569 128.412 37.9754 129.473C37.4876 129.999 36.4896 130.385 35.7864 130.331C31.0479 129.966 24.9598 125.04 21.6337 121.947C19.1978 119.682 16.3864 116.159 16.4418 112.881C16.3939 111.766 16.7814 110.216 17.6597 109.456C21.2252 106.381 27.1158 109.464 30.0095 112.108C30.7965 112.827 31.4444 113.546 32.1326 114.268C33.0229 113.002 33.7994 111.411 34.778 110.103C36.9101 107.253 39.2202 104.518 41.5035 101.795C37.0522 100.852 32.8972 100.507 29.7387 96.538C28.4938 94.9679 27.7368 93.0617 27.5587 91.0621C27.3418 88.7265 27.9417 86.5913 28.2485 84.3235C28.7018 80.9828 29.405 77.4779 29.7836 74.1508C24.071 74.1613 18.2986 73.7695 14.1601 69.2234C12.6878 67.6065 12.0713 66.056 11.7497 63.9162C8.77518 63.856 6.40816 62.979 4.78626 60.3269C2.13047 55.9842 3.96035 47.0109 10.0904 47.1043C10.4689 47.1103 11.6883 47.3499 12.1073 47.2535C12.8943 46.4323 13.011 45.3172 13.8219 44.4342C14.9905 43.1609 16.0752 42.9906 17.6433 43.4035C17.6627 44.2534 17.6253 44.4206 17.3096 45.2117C16.575 45.2072 15.9944 45.1153 15.384 45.6638C14.5356 46.4262 14.2633 47.6498 14.175 48.7287C16.2652 47.6754 18.7819 47.264 20.1494 49.8347C21.3165 52.0272 19.343 54.2106 18.4318 56.0746C17.3395 58.2761 16.0857 61.0125 16.741 63.5124C18.0936 68.6704 26.4306 69.9843 30.7217 68.8014C30.9476 67.8446 31.1945 65.732 31.3531 64.6847C31.811 61.6108 32.2868 58.5398 32.779 55.4719C32.3541 55.4673 31.9202 55.4658 31.4982 55.4191C25.6002 54.7998 22.1364 48.6082 22.1319 43.081C22.1289 37.6654 24.6964 31.195 29.5771 28.4209C30.2923 28.014 31.1032 27.7323 31.8723 27.4505C32.2658 26.4951 32.577 25.5503 33.0004 24.5769C34.4952 21.0931 36.4657 17.8368 38.8566 14.9014C44.4331 8.15829 51.2304 4.59911 59.8621 3.80349L59.868 3.80199ZM47.9641 22.4025L62.0031 23.932C63.6849 24.1203 65.6419 24.2846 67.2923 24.5362C71.6163 24.9958 75.9299 25.5443 80.2316 26.1847C79.5239 24.6809 78.8117 23.3051 77.7942 21.9731C74.1973 17.2566 68.38 15.2525 62.6405 15.4092C56.2756 15.8146 52.3151 17.6936 47.9641 22.4025Z" fill="black"></path>
<path d="M36.3401 97.8248C33.611 97.3019 31.3951 95.9382 30.3223 93.2545C29.2645 90.607 29.9677 87.6611 30.3627 84.9412C30.7338 82.3645 31.1228 79.7908 31.5283 77.2186L34.624 57.4367L37.0688 41.8619L37.784 37.3323C38.0009 35.9746 38.1835 34.305 38.7191 33.0604C39.5256 31.1843 40.8482 29.7785 42.7514 29.0235C44.2147 28.4434 45.9324 28.3922 47.4974 28.4163C50.1098 28.4585 52.8105 28.7824 55.4124 29.0642C58.5171 29.3701 61.6187 29.7106 64.7159 30.0874L73.0753 31.0563C74.9665 31.2763 78.0532 31.4601 79.7305 32.206C80.3723 32.0267 82.2217 32.8856 82.8456 33.2412C84.662 34.2764 86.4724 36.2654 86.6101 38.4504C85.7632 39.6122 84.5333 40.6624 83.6161 41.9206C80.6686 45.965 79.7349 50.7689 80.3768 55.6963C80.7165 58.3212 81.71 61.1767 83.5129 63.1371C83.263 64.9227 83.1867 67.8144 81.5723 68.7878C78.8971 70.4001 78.1071 72.7026 80.6357 75.0939C80.1509 76.5646 79.928 78.9454 79.6945 80.5081L78.7654 86.4661C78.1385 90.6356 77.531 95.6383 75.945 99.5064C74.1256 103.947 69.2913 102.936 65.5987 102.314C65.5358 102.287 65.473 102.259 65.4102 102.232C64.5319 102.223 61.6427 101.636 60.7464 101.461C59.8068 101.378 57.6298 100.915 56.6229 100.736C53.8938 100.257 51.1602 99.8048 48.4221 99.3798C46.1793 99.0649 43.9334 98.7861 41.6831 98.542C40.6148 98.426 37.1391 98.09 36.3386 97.8202L36.3401 97.8248Z" fill="#EB1010"></path>
<path d="M36.3401 97.8248C33.611 97.3019 31.3951 95.9382 30.3223 93.2545C29.2645 90.607 29.9677 87.6611 30.3627 84.9412C30.7338 82.3645 31.1228 79.7908 31.5283 77.2186L34.624 57.4367L37.0688 41.8619L37.784 37.3323C38.0009 35.9746 38.1835 34.305 38.7191 33.0604C39.5256 31.1843 40.8482 29.7785 42.7514 29.0235C44.2147 28.4434 45.9324 28.3922 47.4974 28.4163C50.1098 28.4585 52.8105 28.7824 55.4124 29.0642C58.5171 29.3701 61.6187 29.7106 64.7159 30.0874L73.0753 31.0563C74.9665 31.2763 78.0532 31.4601 79.7305 32.206C80.3723 32.0267 82.2217 32.8856 82.8456 33.2412C84.662 34.2764 86.4724 36.2654 86.6101 38.4504C85.7632 39.6122 84.5333 40.6624 83.6161 41.9206C80.6686 45.965 79.7349 50.7689 80.3768 55.6963C80.7165 58.3212 81.71 61.1767 83.5129 63.1371C83.263 64.9227 83.1867 67.8144 81.5723 68.7878C78.8971 70.4001 78.1071 72.7026 80.6357 75.0939C80.1509 76.5646 79.928 78.9454 79.6945 80.5081L78.7654 86.4661C78.1385 90.6356 77.531 95.6383 75.945 99.5064C74.1256 103.947 69.2913 102.936 65.5987 102.314C65.5358 102.287 65.473 102.259 65.4102 102.232C64.5319 102.223 61.6427 101.636 60.7464 101.461C60.7868 101.303 61.0756 101.284 61.2312 101.242C63.8451 100.525 67.8699 99.6902 69.5966 97.4239C69.9886 96.9086 70.3013 95.8779 70.4015 95.2541C70.7726 92.92 71.1257 90.5693 71.4938 88.2367L73.9595 72.6137L78.3584 45.6561C78.5903 44.1945 79.91 37.1409 79.6975 36.053C79.5748 35.4231 79.1858 34.9213 78.6487 34.5853C78.3345 34.3879 77.9589 34.2372 77.5939 34.1709C76.1545 33.9087 74.6343 33.8078 73.177 33.6269C69.7746 33.2035 66.3692 32.8102 62.9608 32.4471C60.2347 32.1352 57.5056 31.8489 54.775 31.5867C51.3248 31.222 47.2535 30.6087 43.7838 31.1889C42.8801 31.3411 42.0677 31.7946 41.5096 32.53C40.9515 33.2653 40.6866 34.1363 40.5161 35.0374C39.961 37.9968 39.5046 40.9759 39.0154 43.9474L35.7461 64.7148L33.3851 79.7215C32.9826 82.2876 32.5248 84.9246 32.2031 87.4983C31.7452 91.166 32.9901 95.7513 36.3641 97.7087L36.3386 97.8172L36.3401 97.8248Z" fill="#EBEBEB"></path>
<path d="M79.7304 32.2074C80.3723 32.0281 82.2216 32.887 82.8455 33.2426C84.6619 34.2778 86.4724 36.2669 86.61 38.4518C85.7632 39.6136 84.5333 40.6639 83.6161 41.9221C80.6685 45.9665 79.7349 50.7703 80.3768 55.6977C80.7164 58.3227 81.7099 61.1781 83.5128 63.1385C83.263 64.9242 83.1867 67.8158 81.5722 68.7892C78.897 70.4016 78.107 72.704 80.6356 75.0954C80.1508 76.5661 79.9279 78.9469 79.6945 80.5095L78.7653 86.4676C78.1384 90.637 77.531 95.6398 75.945 99.5079C74.1256 103.949 69.2913 102.937 65.5986 102.315C65.5358 102.288 65.4729 102.261 65.4101 102.234C67.5646 101.806 70.1352 100.84 71.5072 99.0212C72.0099 98.3536 72.3989 97.3154 72.5456 96.4927C73.0004 93.9461 73.346 91.3543 73.747 88.7987C74.6522 83.2309 75.529 77.657 76.3729 72.0802L79.6257 51.9788L81.1488 42.8774C81.5079 40.6925 82.2306 37.4498 82.0436 35.295C81.9164 33.8454 80.8077 32.9804 79.7274 32.2044L79.7304 32.2074Z" fill="#EB1010"></path>
<path d="M79.0645 62.7996L79.1872 62.9035C79.25 63.1401 79.1363 63.3059 79.0346 63.5409C78.9792 63.3255 79.0391 63.0361 79.066 62.7996H79.0645Z" fill="#3FB15F"></path>
<path d="M57.9634 38.9115C58.1355 38.9039 58.3076 38.8979 58.4796 38.8919C61.9419 38.8045 65.2979 40.0943 67.819 42.4842C74.6732 49.0676 72.1611 59.4543 70.9327 67.8053C70.3372 71.8542 69.5038 77.3708 67.9986 81.15C67.0664 83.4404 65.7228 85.5364 64.0336 87.3341C61.5978 89.8897 57.8647 91.8411 54.3052 91.9179C50.8609 91.9721 47.3777 90.9837 44.7683 88.6405C37.9246 82.4926 39.542 71.8452 40.7165 63.7428C41.6981 56.9786 42.6003 49.928 47.1129 44.6028C50.017 41.1732 53.5272 39.2369 57.9634 38.913V38.9115Z" fill="black"></path>
<path d="M57.6432 41.4716C64.0096 41.0542 69.1491 45.6049 69.7596 51.9246C70.2384 56.8731 69.1955 62.459 68.4803 67.3593C67.9357 71.0887 67.3985 74.987 66.3257 78.5853C64.656 84.1848 60.3738 88.6315 54.4413 89.305L54.335 89.3171C53.6842 89.3909 53.0004 89.3487 52.36 89.2779C45.3338 88.5064 41.8476 82.4896 42.1035 75.7811C42.2725 71.3313 42.9563 67.0233 43.5907 62.6263C44.0485 59.4544 44.3358 55.862 45.3054 52.8272C46.0251 50.5639 47.1622 48.4559 48.6539 46.6145C50.9341 43.7876 54.0193 41.8453 57.6462 41.4731L57.6432 41.4716Z" fill="#EBEBEB"></path>
<path d="M57.4202 43.2769C60.2376 43.1036 62.0286 43.4411 64.3986 45.0986C66.4559 46.5377 67.9027 49.25 68.196 51.7634C68.8409 57.271 67.4165 63.5349 66.6175 69.0184C66.0953 71.9326 65.8125 74.9102 64.9612 77.7521C63.4275 82.8708 59.9369 86.656 54.6208 87.4547C48.7706 88.1644 44.6126 84.1471 43.9034 78.4919C43.5159 75.4059 43.86 72.8141 44.2341 69.7718C44.4899 67.6908 44.7622 65.6129 45.0525 63.538C45.5238 60.0978 45.9053 56.0459 46.9662 52.7911C47.5422 51.0552 48.4055 49.4308 49.5187 47.9858C51.4862 45.3834 54.1914 43.7063 57.4187 43.2784L57.4202 43.2769Z" fill="black"></path>
<path d="M55.9091 53.8248C60.1464 53.3652 64.843 56.29 65.0405 60.7397C65.1587 63.3917 64.3807 69.1434 63.5099 71.6372C63.1867 72.579 62.702 73.456 62.0735 74.2245C60.4516 76.2165 58.4033 77.1704 55.8942 77.4145C53.9147 77.6917 51.4803 77.0121 49.9108 75.7675C48.1901 74.3963 47.0874 72.3876 46.848 70.1891C46.6011 68.069 47.2834 62.5931 47.9822 60.5785C48.3906 59.388 48.9981 58.276 49.7791 57.2905C51.3427 55.3135 53.4089 54.105 55.9076 53.8232L55.9091 53.8248Z" fill="#EBEBEB"></path>
<path d="M55.9734 60.1507C58.484 59.89 60.7732 61.2929 60.8765 64.0203C61.0096 67.5162 59.8501 71.1371 55.8881 71.4325C50.2788 71.5108 49.4948 66.4568 52.0428 62.3431C52.8343 61.0668 54.522 60.3601 55.9734 60.1522V60.1507Z" fill="black"></path>
<path d="M43.7598 41.0828C44.1877 41.0542 44.5453 41.1386 44.5273 41.6494C44.3014 41.4113 44.1488 41.2968 43.8181 41.238L43.7598 41.0828Z" fill="#3FB15F"></path>
<path d="M69.3705 81.4288C69.5546 81.6534 69.4947 82.0888 69.5187 82.4701C69.2344 82.1988 69.3286 81.7829 69.3705 81.4288Z" fill="#3FB15F"></path>
<path d="M40.0656 87.854H40.1239L40.1823 87.9278C39.9863 88.068 39.7918 88.2096 39.6002 88.3543L39.5673 88.4221L39.497 88.3573C39.6601 88.074 39.7783 88.0348 40.0656 87.854Z" fill="#3FB15F"></path>
<path d="M68.0255 87.1729C68.1647 87.1985 68.0958 87.1684 68.22 87.2754C68.0749 87.414 67.846 87.4155 67.6335 87.4502L67.5766 87.5134L67.5108 87.4803C67.638 87.2799 67.7966 87.2558 68.0255 87.1714V87.1729Z" fill="#3FB15F"></path>
<path d="M38.312 65.5344L38.3689 65.5736C38.3749 65.7785 38.2761 65.8072 38.0951 66.0166L38.0367 65.9533C38.0697 65.7168 38.1101 65.7484 38.312 65.5359V65.5344Z" fill="#3FB15F"></path>
<path d="M48.6509 92.245L48.7628 92.2585L48.7449 92.4869H48.621L48.6509 92.245Z" fill="#3FB15F"></path>
<path d="M61.719 11.4236C66.052 11.086 71.5731 12.406 75.2208 14.7612C81.5304 18.8327 84.5079 24.5844 86.1402 31.7012C81.5319 30.0271 79.129 29.9126 74.2618 29.3069L66.3004 28.3063C62.3953 27.8136 58.4841 27.3766 54.567 26.9953C51.6255 26.688 48.4804 26.2464 45.5179 26.4197C43.7614 26.5222 41.918 27.3238 40.344 28.0682C41.2896 24.8632 43.3649 21.4607 45.5837 18.9729C49.7911 14.2595 55.4573 11.7189 61.7175 11.4251L61.719 11.4236ZM47.9642 22.4025L62.0032 23.9319C63.685 24.1203 65.6421 24.2845 67.2924 24.5362C71.6165 24.9958 75.93 25.5443 80.2317 26.1847C79.524 24.6808 78.8118 23.3051 77.7943 21.973C74.1974 17.2566 68.3801 15.2525 62.6406 15.4092C56.2757 15.8145 52.3152 17.6936 47.9642 22.4025Z" fill="#EBEBEB"></path>
<path d="M82.8111 70.8401C83.9033 70.5492 85.2529 70.4784 86.3915 70.4091C89.1072 70.2418 91.9799 70.0716 94.694 70.0701C99.5358 70.0701 104.521 71.1008 108.732 73.572C112.795 75.9664 115.481 79.524 116.691 84.1124C116.922 84.893 116.932 85.8739 117.27 86.6062C117.579 87.2768 118.102 87.8946 118.448 88.5576C119.804 91.1539 119.623 95.1682 116.718 96.672C116.702 96.0813 117.028 93.0119 116.118 93.143C115.073 93.9567 114.565 98.4335 112.617 98.2482C110.747 98.0704 114.163 93.821 112.713 93.1384C111.319 93.2545 110.769 97.011 109.433 95.9502C108.254 95.0145 108.917 92.2434 109.287 91.0424C109.39 90.6386 110.117 89.0594 109.14 89.1091C108.194 89.2839 107.25 91.2036 106.155 90.9791C105.985 90.8646 105.898 90.7501 105.863 90.5497C105.501 88.431 107.796 87.0025 109.59 86.6966C110.014 86.6243 110.57 86.5053 110.949 86.3621C111.392 85.8965 111.633 85.5123 111.597 84.8402C111.492 82.9416 110.243 80.7777 109.197 79.2769C108.805 79.1639 108.482 78.861 108.181 78.6003C103.802 74.7986 97.6371 74.0045 92.0607 74.1521C89.8942 74.2094 82.7452 75.2401 81.656 72.7703C81.5213 72.4539 81.5228 72.0953 81.6665 71.7803C81.8864 71.2846 82.3308 71.0209 82.8141 70.8416L82.8111 70.8401Z" fill="#EBEBEB"></path>
<path d="M109.195 79.274C108.803 79.1609 108.48 78.8581 108.179 78.5974C103.8 74.7956 97.6356 74.0015 92.0592 74.1492C89.8927 74.2064 82.7438 75.2371 81.6545 72.7674C81.5199 72.451 81.5214 72.0923 81.665 71.7774C81.8849 71.2816 82.3293 71.0179 82.8126 70.8386C82.8859 71.1988 82.9936 71.7744 83.3587 71.9763C84.5198 72.6167 85.9951 72.5805 87.2923 72.5625C88.6778 72.5459 90.0603 72.3786 91.4428 72.3485C92.7056 72.3214 94.0597 72.2671 95.324 72.3485C99.5403 72.6197 104.421 73.56 107.389 76.8329C107.915 77.4115 108.872 78.5793 109.195 79.274Z" fill="#606060"></path>
<path d="M88.1496 58.2204C84.4285 45.9486 96.6691 35.1761 100.649 46.6448C102.908 51.5692 100.239 61.7057 94.4248 63.2457C91.2393 64.0896 88.772 61.0578 88.1511 58.2189L88.1496 58.2204Z" fill="#EB1010"></path>
<path d="M88.1496 58.2204C84.4285 45.9486 96.6691 35.1761 100.649 46.6448L100.534 46.5498C100.119 46.2048 99.7722 45.7331 99.3054 45.4529C96.8277 43.9626 93.5959 44.4237 91.8004 46.7246C89.5246 49.6434 88.2858 54.5346 88.2454 58.1661L88.1496 58.2204Z" fill="#EBEBEB"></path>
<path d="M91.5475 111.508C92.0113 111.514 92.4632 111.677 92.8791 111.872C95.4122 113.05 98.1443 116.443 99.075 119.088C99.3398 119.843 99.5044 120.792 99.1214 121.534C98.9807 121.805 98.7653 122.017 98.469 122.105C97.8122 122.301 97.1254 122.154 96.5239 121.856C94.118 120.666 93.0333 116.965 92.0862 116.63C91.2752 116.344 90.0034 117.887 89.4438 118.368C89.0818 118.68 88.6763 118.957 88.2738 119.213C85.2514 121.136 81.2595 121.52 77.8347 120.723C77.3514 120.577 76.8741 120.406 76.4088 120.212C73.15 118.83 70.5556 116.046 69.215 112.771C69.978 112.422 70.9835 112.138 71.8004 111.903C73.144 113.996 74.3754 115.434 76.6751 116.559C80.468 118.413 84.8145 117.057 87.9132 114.463C89.1177 113.454 89.9286 112.075 91.4488 111.542L91.5475 111.507V111.508Z" fill="#EBEBEB"></path>
<path d="M45.4401 105.284L45.5837 105.299C45.6062 105.659 44.5035 106.92 44.2222 107.292C43.5968 108.135 42.9893 108.991 42.4013 109.859C39.7844 113.728 37.8468 117.875 36.9491 122.48C36.6842 123.839 36.5511 124.98 35.8314 126.193C34.5506 125.123 34.0673 123.922 33.0634 122.646C30.1921 118.999 26.7179 115.226 22.4552 113.279C21.2193 112.768 20.2378 112.646 18.9765 112.316C18.8523 112.283 18.6907 112.007 18.6922 111.881C18.7117 110.853 19.759 110.274 20.6852 110.276C24.9703 110.137 28.5373 113.229 31.1931 116.296C32.043 117.277 33.1068 118.781 34.0584 119.608C34.2589 118.767 34.3187 117.893 34.5431 117.024C35.5965 112.954 38.1894 109.592 40.9006 106.497C41.4018 105.924 44.5633 105.416 45.4386 105.284H45.4401Z" fill="#EBEBEB"></path>
<path d="M60.4607 5.7624C64.2506 5.59966 68.7856 6.71021 72.2284 8.2939C80.6761 12.1816 86.4006 19.5651 89.604 28.2069C90.1815 29.7635 91.8349 34.6743 91.2947 36.3891C91.184 36.7432 90.4045 36.9888 90.0469 37.1184C89.7461 36.1164 89.7207 35.0857 89.5157 34.0686C87.427 23.7451 81.5708 14.5112 72.0115 9.82486C69.9257 8.80925 67.7128 8.08295 65.4341 7.66706C51.2769 5.13856 40.142 14.7583 34.8514 27.1401C34.6913 27.5138 34.5581 27.6238 34.199 27.5303C33.5257 26.8251 34.5312 25.0124 34.9052 24.253C39.9909 13.9114 48.6345 6.26418 60.4622 5.7624H60.4607Z" fill="#EBEBEB"></path>
<path d="M9.3124 49.0676C10.5094 48.9968 12.64 49.9567 12.9871 51.1878C13.7262 53.8112 9.93931 50.4072 9.15081 52.0256C9.06552 52.1989 9.05804 52.4008 9.12836 52.5816C9.45753 53.4405 11.0345 53.3938 11.7797 53.8368C12.7836 54.4335 13.0784 55.4386 13.3701 56.4934C11.3667 57.2197 10.1189 56.2493 9.02812 56.7044C8.86653 57.1263 9.02812 57.6537 9.37225 57.9339C10.3164 58.7024 11.6405 58.6663 12.7687 58.5804C13.4928 58.5065 14.3143 58.2971 15.1117 58.2112C15.0983 58.8908 14.9217 60.2696 14.5252 60.7668C13.1637 62.4876 9.64157 62.0778 8.02415 60.916C4.94195 58.7039 5.1574 53.3456 7.10398 50.4555C7.67404 49.6086 8.33836 49.2304 9.3139 49.0676H9.3124Z" fill="#EBEBEB"></path>
<path d="M35.6743 31.4856L35.8015 31.573C35.8299 31.9362 35.3796 32.7559 35.2075 33.1206C32.821 38.176 31.6525 43.878 32.3916 49.4608C32.5173 50.4056 32.8195 51.3143 32.9512 52.2591L32.9662 52.3661C32.034 52.2561 31.8694 52.1189 31.2051 51.48C28.1618 48.1122 28.9578 42.0261 30.5064 38.155C31.5418 35.5692 33.0111 32.67 35.6743 31.4841V31.4856Z" fill="#EB1010"></path>
<path d="M92.2103 38.7532C92.7954 38.7065 93.4731 39.029 93.4627 39.689C93.2831 40.0446 92.6038 40.4002 92.2552 40.5765C89.0324 42.2099 86.9826 45.4888 85.9098 48.8777C85.2514 50.9572 85.3382 52.8935 83.5846 54.4938C82.7931 55.0347 82.6271 53.9302 82.5523 53.3576C82.0914 49.8783 83.3871 46.0599 85.4579 43.2949C86.9855 41.2561 89.6234 39.1088 92.2088 38.7532H92.2103Z" fill="#EBEBEB"></path>
<path d="M31.3516 29.4575C31.4713 29.4861 31.425 29.4801 31.5372 29.5826C31.606 30.2667 30.2265 32.4531 29.8285 33.1779C29.1657 34.3909 28.5792 35.6431 28.0734 36.93C26.7179 40.3385 26.4815 42.0261 25.6855 45.4708C25.5553 45.3382 25.3892 45.1393 25.2635 44.9946C25.1019 44.7611 24.9613 44.4733 24.8775 44.2035C23.3723 39.3711 26.4889 31.1693 31.3531 29.459L31.3516 29.4575Z" fill="#EBEBEB"></path>
<path d="M16.388 49.7367C17.582 49.693 18.191 49.8874 18.5531 51.1004C18.2793 52.5726 17.4115 54.1066 16.4449 55.2232C16.1442 55.4944 15.8404 55.7747 15.4185 55.7355C15.2554 55.6406 15.0983 55.4914 15.0489 55.3015C14.636 53.6967 14.5178 50.4585 16.388 49.7352V49.7367Z" fill="#EBEBEB"></path>
<path d="M96.3967 65.7244L96.5209 65.7349C96.8979 66.1403 97.5877 67.6908 97.8585 68.2604C95.8311 68.2514 93.8023 68.2574 91.7734 68.283L90.6647 68.3478C90.5435 67.5974 90.4463 66.7656 90.343 66.0046C92.6921 66.1026 94.0596 66.1644 96.3982 65.7259L96.3967 65.7244Z" fill="#EBEBEB"></path>
<path d="M94.2377 35.5873C94.8392 35.5467 95.4062 35.4713 95.9464 35.8058C97.1493 36.5547 96.5793 38.7352 95.9419 39.7191C95.7579 39.7899 95.7608 39.7764 95.5604 39.7658C94.8796 38.9235 96.1244 37.8642 93.6602 36.9978C93.6272 36.2458 93.4612 35.8947 94.2377 35.5873Z" fill="#EBEBEB"></path>
<path d="M26.5368 47.8743L26.839 47.9541C26.9737 48.1214 27.8654 50.6499 28.036 51.1245L27.9043 51.1939C27.059 50.347 25.7453 49.1536 26.5383 47.8743H26.5368Z" fill="#EB1010"></path>
<path d="M69.5471 122.959C70.1471 123.401 71.1451 124.178 71.7496 124.54C75.4467 126.776 79.8067 127.636 84.0679 126.97C84.0829 126.969 84.0964 126.966 84.1098 126.963L84.0934 127.136C83.2959 127.572 81.7847 127.555 80.878 127.499L80.8959 127.487C79.9877 127.371 79.084 127.331 78.1758 127.243C77.0222 127.133 72.764 126.22 72.0847 125.344C71.7166 124.87 71.1795 124.781 70.7112 124.437C70.4733 124.263 70.2563 123.922 69.9975 123.808C69.7192 123.684 69.3077 123.27 69.1447 123.009L69.1895 122.986C69.2688 123.024 69.3466 123.063 69.4259 123.101L69.5486 122.958L69.5471 122.959Z" fill="black"></path>
<path d="M82.265 109.868C84.6186 108.921 85.8949 107.559 87.403 105.621C87.6978 106.137 87.2819 106.085 87.6769 106.516C85.6465 107.993 84.7203 109.92 82.3354 110.803L82.2471 110.754L82.295 110.674C82.3069 110.421 82.3458 110.097 82.2665 109.869L82.265 109.868Z" fill="url(#paint0_linear_1_576)"></path>
<path d="M77.9065 110.763C79.5434 110.817 80.7643 110.461 82.2635 109.869C82.3428 110.098 82.3039 110.421 82.2919 110.674L82.2441 110.754L82.3323 110.803C80.8436 111.537 79.3638 111.57 77.905 110.763H77.9065Z" fill="url(#paint1_linear_1_576)"></path>
<path d="M90.8174 124.499C91.0777 124.886 91.368 125.251 91.6538 125.62L91.4653 125.849C91.0269 125.869 91.1017 125.414 90.4897 125.475C89.8329 125.543 88.8588 126.149 88.2439 125.79C89.194 125.423 89.9481 125.005 90.8174 124.499Z" fill="black"></path>
<path d="M107.967 102.745L108.244 102.874C109.24 103.347 109.815 103.372 110.844 103.65C111.182 104.259 111.129 103.646 111.287 104.087C110.976 104.339 110.843 104.334 110.46 104.322C109.622 104.012 108.652 103.308 107.967 102.745Z" fill="black"></path>
<path d="M110.844 103.65C111.185 103.67 111.851 103.693 112.161 103.742L111.491 103.806L111.521 103.991C112.05 104.173 112.275 104.009 112.635 104.253C112.465 104.301 112.362 104.325 112.198 104.399L112.157 104.494L112.182 104.511C111.781 104.761 111.766 104.678 111.214 104.646C111.013 104.583 110.668 104.414 110.461 104.321C110.843 104.333 110.978 104.337 111.289 104.086C111.13 103.644 111.184 104.258 110.846 103.649L110.844 103.65Z" fill="url(#paint2_linear_1_576)"></path>
<path d="M41.7159 132.583C42.6241 132.488 42.6271 132.612 43.462 133.004C42.5553 133.224 41.9898 133.139 41.0726 133.084L41.0845 133.025C41.288 132.852 41.5484 133.032 41.9284 132.897V132.79L41.7159 132.583Z" fill="black"></path>
<path d="M100.006 128.239C100.444 128.111 100.775 127.972 101.197 127.799L101.511 127.918L101.494 128.022C101.08 128.229 100.46 128.326 100.004 128.239H100.006Z" fill="black"></path>
<defs>
<linearGradient id="paint0_linear_1_576" x1="84.1241" y1="107.672" x2="85.7412" y2="108.844" gradientUnits="userSpaceOnUse">
<stop stop-color="#989899" stop-opacity="0.02"></stop>
<stop offset="1" stop-color="#8A8987" stop-opacity="0.05"></stop>
</linearGradient>
<linearGradient id="paint1_linear_1_576" x1="80.2975" y1="111.21" x2="80.1724" y2="110.682" gradientUnits="userSpaceOnUse">
<stop stop-color="#9D9C9C" stop-opacity="0.02"></stop>
<stop offset="1" stop-color="#969695" stop-opacity="0.07"></stop>
</linearGradient>
<linearGradient id="paint2_linear_1_576" x1="111.722" y1="104.741" x2="111.456" y2="104.058" gradientUnits="userSpaceOnUse">
<stop stop-color="#ACAAAA" stop-opacity="0"></stop>
<stop offset="1" stop-color="#9A9B99" stop-opacity="0.05"></stop>
</linearGradient>
</defs>
</svg>