<svg xmlns="http://www.w3.org/2000/svg" width="285.781" height="186.539" viewBox="0 0 285.781 186.539" fill="none">
  <path d="M 0.463 186.076 L 12.407 186.076 L 12.407 174.133 L 0.463 174.133 L 0.463 186.076 Z M 12.407 186.539 L 0 186.539 L 0 0 L 285.781 0 L 285.781 186.539 L 12.407 186.539 Z M 285.318 12.407 L 285.318 0.463 L 273.375 0.463 L 273.375 12.407 L 285.318 12.407 Z M 272.911 12.407 L 272.911 0.463 L 260.968 0.463 L 260.968 12.407 L 272.911 12.407 Z M 260.505 12.407 L 260.505 0.463 L 248.561 0.463 L 248.561 12.407 L 260.505 12.407 Z M 248.098 12.407 L 248.098 0.463 L 236.155 0.463 L 236.155 12.407 L 248.098 12.407 Z M 235.69 12.407 L 235.69 0.463 L 223.747 0.463 L 223.747 12.407 L 235.69 12.407 Z M 223.284 12.407 L 223.284 0.463 L 211.354 0.463 L 211.354 12.407 L 223.284 12.407 Z M 210.891 12.407 L 210.891 0.463 L 198.947 0.463 L 198.947 12.407 L 210.891 12.407 Z M 198.484 12.407 L 198.484 0.463 L 186.54 0.463 L 186.54 12.407 L 198.484 12.407 Z M 186.076 12.407 L 186.076 0.463 L 174.133 0.463 L 174.133 12.407 L 186.076 12.407 Z M 173.669 12.407 L 173.669 0.463 L 161.726 0.463 L 161.726 12.407 L 173.669 12.407 Z M 161.263 12.407 L 161.263 0.463 L 149.319 0.463 L 149.319 12.407 L 161.263 12.407 Z M 148.856 12.407 L 148.856 0.463 L 136.912 0.463 L 136.912 12.407 L 148.856 12.407 Z M 136.449 12.407 L 136.449 0.463 L 124.52 0.463 L 124.52 12.407 L 136.449 12.407 Z M 124.041 12.407 L 124.041 0.463 L 112.112 0.463 L 112.112 12.407 L 124.041 12.407 Z M 111.649 12.407 L 111.649 0.463 L 99.705 0.463 L 99.705 12.407 L 111.649 12.407 Z M 99.242 12.407 L 99.242 0.463 L 87.298 0.463 L 87.298 12.407 L 99.242 12.407 Z M 86.835 12.407 L 86.835 0.463 L 74.892 0.463 L 74.892 12.407 L 86.835 12.407 Z M 74.427 12.407 L 74.427 0.463 L 62.484 0.463 L 62.484 12.407 L 74.427 12.407 Z M 62.021 12.407 L 62.021 0.463 L 50.077 0.463 L 50.077 12.407 L 62.021 12.407 Z M 49.614 12.407 L 49.614 0.463 L 37.67 0.463 L 37.67 12.407 L 49.614 12.407 Z M 37.207 12.407 L 37.207 0.463 L 25.278 0.463 L 25.278 12.407 L 37.207 12.407 Z M 24.813 12.407 L 24.813 0.463 L 12.87 0.463 L 12.87 12.407 L 24.813 12.407 Z M 12.407 12.407 L 12.407 0.463 L 0.463 0.463 L 0.463 12.407 L 12.407 12.407 Z M 285.318 12.87 L 273.375 12.87 L 273.375 24.813 L 285.318 24.813 L 285.318 12.87 Z M 272.911 12.87 L 260.968 12.87 L 260.968 24.813 L 272.911 24.813 L 272.911 12.87 Z M 260.505 12.87 L 248.561 12.87 L 248.561 24.813 L 260.505 24.813 L 260.505 12.87 Z M 248.098 12.87 L 236.155 12.87 L 236.155 24.813 L 248.098 24.813 L 248.098 12.87 Z M 235.69 12.87 L 223.747 12.87 L 223.747 24.813 L 235.69 24.813 L 235.69 12.87 Z M 223.284 12.87 L 211.354 12.87 L 211.354 24.813 L 223.284 24.813 L 223.284 12.87 Z M 210.891 12.87 L 198.947 12.87 L 198.947 24.813 L 210.891 24.813 L 210.891 12.87 Z M 198.484 12.87 L 186.54 12.87 L 186.54 24.813 L 198.484 24.813 L 198.484 12.87 Z M 186.076 12.87 L 174.133 12.87 L 174.133 24.813 L 186.076 24.813 L 186.076 12.87 Z M 173.669 12.87 L 161.726 12.87 L 161.726 24.813 L 173.669 24.813 L 173.669 12.87 Z M 161.263 12.87 L 149.319 12.87 L 149.319 24.813 L 161.263 24.813 L 161.263 12.87 Z M 148.856 12.87 L 136.912 12.87 L 136.912 24.813 L 148.856 24.813 L 148.856 12.87 Z M 136.449 12.87 L 124.52 12.87 L 124.52 24.813 L 136.449 24.813 L 136.449 12.87 Z M 124.041 12.87 L 112.112 12.87 L 112.112 24.813 L 124.041 24.813 L 124.041 12.87 Z M 111.649 12.87 L 99.705 12.87 L 99.705 24.813 L 111.649 24.813 L 111.649 12.87 Z M 99.242 12.87 L 87.298 12.87 L 87.298 24.813 L 99.242 24.813 L 99.242 12.87 Z M 86.835 12.87 L 74.892 12.87 L 74.892 24.813 L 86.835 24.813 L 86.835 12.87 Z M 74.427 12.87 L 62.484 12.87 L 62.484 24.813 L 74.427 24.813 L 74.427 12.87 Z M 62.021 12.87 L 50.077 12.87 L 50.077 24.813 L 62.021 24.813 L 62.021 12.87 Z M 49.614 12.87 L 37.67 12.87 L 37.67 24.813 L 49.614 24.813 L 49.614 12.87 Z M 37.207 12.87 L 25.278 12.87 L 25.278 24.813 L 37.207 24.813 L 37.207 12.87 Z M 24.813 12.87 L 12.87 12.87 L 12.87 24.813 L 24.813 24.813 L 24.813 12.87 Z M 12.407 12.87 L 0.463 12.87 L 0.463 24.813 L 12.407 24.813 L 12.407 12.87 Z M 285.318 37.221 L 285.318 25.278 L 273.375 25.278 L 273.375 37.221 L 285.318 37.221 Z M 272.911 37.221 L 272.911 25.278 L 260.968 25.278 L 260.968 37.221 L 272.911 37.221 Z M 260.505 37.221 L 260.505 25.278 L 248.561 25.278 L 248.561 37.221 L 260.505 37.221 Z M 248.098 37.221 L 248.098 25.278 L 236.155 25.278 L 236.155 37.221 L 248.098 37.221 Z M 235.69 37.221 L 235.69 25.278 L 223.747 25.278 L 223.747 37.221 L 235.69 37.221 Z M 223.284 37.221 L 223.284 25.278 L 211.354 25.278 L 211.354 37.221 L 223.284 37.221 Z M 210.891 37.221 L 210.891 25.278 L 198.947 25.278 L 198.947 37.221 L 210.891 37.221 Z M 198.484 37.221 L 198.484 25.278 L 186.54 25.278 L 186.54 37.221 L 198.484 37.221 Z M 186.076 37.221 L 186.076 25.278 L 174.133 25.278 L 174.133 37.221 L 186.076 37.221 Z M 173.669 37.221 L 173.669 25.278 L 161.726 25.278 L 161.726 37.221 L 173.669 37.221 Z M 161.263 37.221 L 161.263 25.278 L 149.319 25.278 L 149.319 37.221 L 161.263 37.221 Z M 148.856 37.221 L 148.856 25.278 L 136.912 25.278 L 136.912 37.221 L 148.856 37.221 Z M 136.449 37.221 L 136.449 25.278 L 124.52 25.278 L 124.52 37.221 L 136.449 37.221 Z M 124.041 37.221 L 124.041 25.278 L 112.112 25.278 L 112.112 37.221 L 124.041 37.221 Z M 111.649 37.221 L 111.649 25.278 L 99.705 25.278 L 99.705 37.221 L 111.649 37.221 Z M 99.242 37.221 L 99.242 25.278 L 87.298 25.278 L 87.298 37.221 L 99.242 37.221 Z M 86.835 37.221 L 86.835 25.278 L 74.892 25.278 L 74.892 37.221 L 86.835 37.221 Z M 74.427 37.221 L 74.427 25.278 L 62.484 25.278 L 62.484 37.221 L 74.427 37.221 Z M 62.021 37.221 L 62.021 25.278 L 50.077 25.278 L 50.077 37.221 L 62.021 37.221 Z M 49.614 37.221 L 49.614 25.278 L 37.67 25.278 L 37.67 37.221 L 49.614 37.221 Z M 37.207 37.221 L 37.207 25.278 L 25.278 25.278 L 25.278 37.221 L 37.207 37.221 Z M 24.813 37.221 L 24.813 25.278 L 12.87 25.278 L 12.87 37.221 L 24.813 37.221 Z M 12.407 37.221 L 12.407 25.278 L 0.463 25.278 L 0.463 37.221 L 12.407 37.221 Z M 285.318 37.684 L 273.375 37.684 L 273.375 49.614 L 285.318 49.614 L 285.318 37.684 Z M 272.911 37.684 L 260.968 37.684 L 260.968 49.614 L 272.911 49.614 L 272.911 37.684 Z M 260.505 37.684 L 248.561 37.684 L 248.561 49.614 L 260.505 49.614 L 260.505 37.684 Z M 248.098 37.684 L 236.155 37.684 L 236.155 49.614 L 248.098 49.614 L 248.098 37.684 Z M 235.69 37.684 L 223.747 37.684 L 223.747 49.614 L 235.69 49.614 L 235.69 37.684 Z M 223.284 37.684 L 211.354 37.684 L 211.354 49.614 L 223.284 49.614 L 223.284 37.684 Z M 210.891 37.684 L 198.947 37.684 L 198.947 49.614 L 210.891 49.614 L 210.891 37.684 Z M 198.484 37.684 L 186.54 37.684 L 186.54 49.614 L 198.484 49.614 L 198.484 37.684 Z M 186.076 37.684 L 174.133 37.684 L 174.133 49.614 L 186.076 49.614 L 186.076 37.684 Z M 173.669 37.684 L 161.726 37.684 L 161.726 49.614 L 173.669 49.614 L 173.669 37.684 Z M 161.263 37.684 L 149.319 37.684 L 149.319 49.614 L 161.263 49.614 L 161.263 37.684 Z M 148.856 37.684 L 136.912 37.684 L 136.912 49.614 L 148.856 49.614 L 148.856 37.684 Z M 136.449 37.684 L 124.52 37.684 L 124.52 49.614 L 136.449 49.614 L 136.449 37.684 Z M 124.041 37.684 L 112.112 37.684 L 112.112 49.614 L 124.041 49.614 L 124.041 37.684 Z M 111.649 37.684 L 99.705 37.684 L 99.705 49.614 L 111.649 49.614 L 111.649 37.684 Z M 99.242 37.684 L 87.298 37.684 L 87.298 49.614 L 99.242 49.614 L 99.242 37.684 Z M 86.835 37.684 L 74.892 37.684 L 74.892 49.614 L 86.835 49.614 L 86.835 37.684 Z M 74.427 37.684 L 62.484 37.684 L 62.484 49.614 L 74.427 49.614 L 74.427 37.684 Z M 62.021 37.684 L 50.077 37.684 L 50.077 49.614 L 62.021 49.614 L 62.021 37.684 Z M 49.614 37.684 L 37.67 37.684 L 37.67 49.614 L 49.614 49.614 L 49.614 37.684 Z M 37.207 37.684 L 25.278 37.684 L 25.278 49.614 L 37.207 49.614 L 37.207 37.684 Z M 24.813 37.684 L 12.87 37.684 L 12.87 49.614 L 24.813 49.614 L 24.813 37.684 Z M 12.407 37.684 L 0.463 37.684 L 0.463 49.614 L 12.407 49.614 L 12.407 37.684 Z M 285.318 62.021 L 285.318 50.091 L 273.375 50.091 L 273.375 62.021 L 285.318 62.021 Z M 272.911 62.021 L 272.911 50.091 L 260.968 50.091 L 260.968 62.021 L 272.911 62.021 Z M 260.505 62.021 L 260.505 50.091 L 248.561 50.091 L 248.561 62.021 L 260.505 62.021 Z M 248.098 62.021 L 248.098 50.091 L 236.155 50.091 L 236.155 62.021 L 248.098 62.021 Z M 235.69 62.021 L 235.69 50.091 L 223.747 50.091 L 223.747 62.021 L 235.69 62.021 Z M 223.284 62.021 L 223.284 50.091 L 211.354 50.091 L 211.354 62.021 L 223.284 62.021 Z M 210.891 62.021 L 210.891 50.091 L 198.947 50.091 L 198.947 62.021 L 210.891 62.021 Z M 198.484 62.021 L 198.484 50.091 L 186.54 50.091 L 186.54 62.021 L 198.484 62.021 Z M 186.076 62.021 L 186.076 50.091 L 174.133 50.091 L 174.133 62.021 L 186.076 62.021 Z M 173.669 62.021 L 173.669 50.091 L 161.726 50.091 L 161.726 62.021 L 173.669 62.021 Z M 161.263 62.021 L 161.263 50.091 L 149.319 50.091 L 149.319 62.021 L 161.263 62.021 Z M 148.856 62.021 L 148.856 50.091 L 136.912 50.091 L 136.912 62.021 L 148.856 62.021 Z M 136.449 62.021 L 136.449 50.091 L 124.52 50.091 L 124.52 62.021 L 136.449 62.021 Z M 124.041 62.021 L 124.041 50.091 L 112.112 50.091 L 112.112 62.021 L 124.041 62.021 Z M 111.649 62.021 L 111.649 50.091 L 99.705 50.091 L 99.705 62.021 L 111.649 62.021 Z M 99.242 62.021 L 99.242 50.091 L 87.298 50.091 L 87.298 62.021 L 99.242 62.021 Z M 86.835 62.021 L 86.835 50.091 L 74.892 50.091 L 74.892 62.021 L 86.835 62.021 Z M 74.427 62.021 L 74.427 50.091 L 62.484 50.091 L 62.484 62.021 L 74.427 62.021 Z M 62.021 62.021 L 62.021 50.091 L 50.077 50.091 L 50.077 62.021 L 62.021 62.021 Z M 49.614 62.021 L 49.614 50.091 L 37.67 50.091 L 37.67 62.021 L 49.614 62.021 Z M 37.207 62.021 L 37.207 50.091 L 25.278 50.091 L 25.278 62.021 L 37.207 62.021 Z M 24.813 62.021 L 24.813 50.091 L 12.87 50.091 L 12.87 62.021 L 24.813 62.021 Z M 12.407 62.021 L 12.407 50.091 L 0.463 50.091 L 0.463 62.021 L 12.407 62.021 Z M 285.318 62.484 L 273.375 62.484 L 273.375 74.427 L 285.318 74.427 L 285.318 62.484 Z M 272.911 62.484 L 260.968 62.484 L 260.968 74.427 L 272.911 74.427 L 272.911 62.484 Z M 260.505 62.484 L 248.561 62.484 L 248.561 74.427 L 260.505 74.427 L 260.505 62.484 Z M 248.098 62.484 L 236.155 62.484 L 236.155 74.427 L 248.098 74.427 L 248.098 62.484 Z M 235.69 62.484 L 223.747 62.484 L 223.747 74.427 L 235.69 74.427 L 235.69 62.484 Z M 223.284 62.484 L 211.354 62.484 L 211.354 74.427 L 223.284 74.427 L 223.284 62.484 Z M 210.891 62.484 L 198.947 62.484 L 198.947 74.427 L 210.891 74.427 L 210.891 62.484 Z M 198.484 62.484 L 186.54 62.484 L 186.54 74.427 L 198.484 74.427 L 198.484 62.484 Z M 186.076 62.484 L 174.133 62.484 L 174.133 74.427 L 186.076 74.427 L 186.076 62.484 Z M 173.669 62.484 L 161.726 62.484 L 161.726 74.427 L 173.669 74.427 L 173.669 62.484 Z M 161.263 62.484 L 149.319 62.484 L 149.319 74.427 L 161.263 74.427 L 161.263 62.484 Z M 148.856 62.484 L 136.912 62.484 L 136.912 74.427 L 148.856 74.427 L 148.856 62.484 Z M 136.449 62.484 L 124.52 62.484 L 124.52 74.427 L 136.449 74.427 L 136.449 62.484 Z M 124.041 62.484 L 112.112 62.484 L 112.112 74.427 L 124.041 74.427 L 124.041 62.484 Z M 111.649 62.484 L 99.705 62.484 L 99.705 74.427 L 111.649 74.427 L 111.649 62.484 Z M 99.242 62.484 L 87.298 62.484 L 87.298 74.427 L 99.242 74.427 L 99.242 62.484 Z M 86.835 62.484 L 74.892 62.484 L 74.892 74.427 L 86.835 74.427 L 86.835 62.484 Z M 74.427 62.484 L 62.484 62.484 L 62.484 74.427 L 74.427 74.427 L 74.427 62.484 Z M 62.021 62.484 L 50.077 62.484 L 50.077 74.427 L 62.021 74.427 L 62.021 62.484 Z M 49.614 62.484 L 37.67 62.484 L 37.67 74.427 L 49.614 74.427 L 49.614 62.484 Z M 37.207 62.484 L 25.278 62.484 L 25.278 74.427 L 37.207 74.427 L 37.207 62.484 Z M 24.813 62.484 L 12.87 62.484 L 12.87 74.427 L 24.813 74.427 L 24.813 62.484 Z M 12.407 62.484 L 0.463 62.484 L 0.463 74.427 L 12.407 74.427 L 12.407 62.484 Z M 285.318 86.835 L 285.318 74.892 L 273.375 74.892 L 273.375 86.835 L 285.318 86.835 Z M 272.911 86.835 L 272.911 74.892 L 260.968 74.892 L 260.968 86.835 L 272.911 86.835 Z M 260.505 86.835 L 260.505 74.892 L 248.561 74.892 L 248.561 86.835 L 260.505 86.835 Z M 248.098 86.835 L 248.098 74.892 L 236.155 74.892 L 236.155 86.835 L 248.098 86.835 Z M 235.69 86.835 L 235.69 74.892 L 223.747 74.892 L 223.747 86.835 L 235.69 86.835 Z M 223.284 86.835 L 223.284 74.892 L 211.354 74.892 L 211.354 86.835 L 223.284 86.835 Z M 210.891 86.835 L 210.891 74.892 L 198.947 74.892 L 198.947 86.835 L 210.891 86.835 Z M 198.484 86.835 L 198.484 74.892 L 186.54 74.892 L 186.54 86.835 L 198.484 86.835 Z M 186.076 86.835 L 186.076 74.892 L 174.133 74.892 L 174.133 86.835 L 186.076 86.835 Z M 173.669 86.835 L 173.669 74.892 L 161.726 74.892 L 161.726 86.835 L 173.669 86.835 Z M 161.263 86.835 L 161.263 74.892 L 149.319 74.892 L 149.319 86.835 L 161.263 86.835 Z M 148.856 86.835 L 148.856 74.892 L 136.912 74.892 L 136.912 86.835 L 148.856 86.835 Z M 136.449 86.835 L 136.449 74.892 L 124.52 74.892 L 124.52 86.835 L 136.449 86.835 Z M 124.041 86.835 L 124.041 74.892 L 112.112 74.892 L 112.112 86.835 L 124.041 86.835 Z M 111.649 86.835 L 111.649 74.892 L 99.705 74.892 L 99.705 86.835 L 111.649 86.835 Z M 99.242 86.835 L 99.242 74.892 L 87.298 74.892 L 87.298 86.835 L 99.242 86.835 Z M 86.835 86.835 L 86.835 74.892 L 74.892 74.892 L 74.892 86.835 L 86.835 86.835 Z M 74.427 86.835 L 74.427 74.892 L 62.484 74.892 L 62.484 86.835 L 74.427 86.835 Z M 62.021 86.835 L 62.021 74.892 L 50.077 74.892 L 50.077 86.835 L 62.021 86.835 Z M 49.614 86.835 L 49.614 74.892 L 37.67 74.892 L 37.67 86.835 L 49.614 86.835 Z M 37.207 86.835 L 37.207 74.892 L 25.278 74.892 L 25.278 86.835 L 37.207 86.835 Z M 24.813 86.835 L 24.813 74.892 L 12.87 74.892 L 12.87 86.835 L 24.813 86.835 Z M 12.407 86.835 L 12.407 74.892 L 0.463 74.892 L 0.463 86.835 L 12.407 86.835 Z M 285.318 87.298 L 273.375 87.298 L 273.375 99.242 L 285.318 99.242 L 285.318 87.298 Z M 272.911 87.298 L 260.968 87.298 L 260.968 99.242 L 272.911 99.242 L 272.911 87.298 Z M 260.505 87.298 L 248.561 87.298 L 248.561 99.242 L 260.505 99.242 L 260.505 87.298 Z M 248.098 87.298 L 236.155 87.298 L 236.155 99.242 L 248.098 99.242 L 248.098 87.298 Z M 235.69 87.298 L 223.747 87.298 L 223.747 99.242 L 235.69 99.242 L 235.69 87.298 Z M 223.284 87.298 L 211.354 87.298 L 211.354 99.242 L 223.284 99.242 L 223.284 87.298 Z M 210.891 87.298 L 198.947 87.298 L 198.947 99.242 L 210.891 99.242 L 210.891 87.298 Z M 198.484 87.298 L 186.54 87.298 L 186.54 99.242 L 198.484 99.242 L 198.484 87.298 Z M 186.076 87.298 L 174.133 87.298 L 174.133 99.242 L 186.076 99.242 L 186.076 87.298 Z M 173.669 87.298 L 161.726 87.298 L 161.726 99.242 L 173.669 99.242 L 173.669 87.298 Z M 161.263 87.298 L 149.319 87.298 L 149.319 99.242 L 161.263 99.242 L 161.263 87.298 Z M 148.856 87.298 L 136.912 87.298 L 136.912 99.242 L 148.856 99.242 L 148.856 87.298 Z M 136.449 87.298 L 124.52 87.298 L 124.52 99.242 L 136.449 99.242 L 136.449 87.298 Z M 124.041 87.298 L 112.112 87.298 L 112.112 99.242 L 124.041 99.242 L 124.041 87.298 Z M 111.649 87.298 L 99.705 87.298 L 99.705 99.242 L 111.649 99.242 L 111.649 87.298 Z M 99.242 87.298 L 87.298 87.298 L 87.298 99.242 L 99.242 99.242 L 99.242 87.298 Z M 86.835 87.298 L 74.892 87.298 L 74.892 99.242 L 86.835 99.242 L 86.835 87.298 Z M 74.427 87.298 L 62.484 87.298 L 62.484 99.242 L 74.427 99.242 L 74.427 87.298 Z M 62.021 87.298 L 50.077 87.298 L 50.077 99.242 L 62.021 99.242 L 62.021 87.298 Z M 49.614 87.298 L 37.67 87.298 L 37.67 99.242 L 49.614 99.242 L 49.614 87.298 Z M 37.207 87.298 L 25.278 87.298 L 25.278 99.242 L 37.207 99.242 L 37.207 87.298 Z M 24.813 87.298 L 12.87 87.298 L 12.87 99.242 L 24.813 99.242 L 24.813 87.298 Z M 12.407 87.298 L 0.463 87.298 L 0.463 99.242 L 12.407 99.242 L 12.407 87.298 Z M 285.318 111.649 L 285.318 99.705 L 273.375 99.705 L 273.375 111.649 L 285.318 111.649 Z M 272.911 111.649 L 272.911 99.705 L 260.968 99.705 L 260.968 111.649 L 272.911 111.649 Z M 260.505 111.649 L 260.505 99.705 L 248.561 99.705 L 248.561 111.649 L 260.505 111.649 Z M 248.098 111.649 L 248.098 99.705 L 236.155 99.705 L 236.155 111.649 L 248.098 111.649 Z M 235.69 111.649 L 235.69 99.705 L 223.747 99.705 L 223.747 111.649 L 235.69 111.649 Z M 223.284 111.649 L 223.284 99.705 L 211.354 99.705 L 211.354 111.649 L 223.284 111.649 Z M 210.891 111.649 L 210.891 99.705 L 198.947 99.705 L 198.947 111.649 L 210.891 111.649 Z M 198.484 111.649 L 198.484 99.705 L 186.54 99.705 L 186.54 111.649 L 198.484 111.649 Z M 186.076 111.649 L 186.076 99.705 L 174.133 99.705 L 174.133 111.649 L 186.076 111.649 Z M 173.669 111.649 L 173.669 99.705 L 161.726 99.705 L 161.726 111.649 L 173.669 111.649 Z M 161.263 111.649 L 161.263 99.705 L 149.319 99.705 L 149.319 111.649 L 161.263 111.649 Z M 148.856 111.649 L 148.856 99.705 L 136.912 99.705 L 136.912 111.649 L 148.856 111.649 Z M 136.449 111.649 L 136.449 99.705 L 124.52 99.705 L 124.52 111.649 L 136.449 111.649 Z M 124.041 111.649 L 124.041 99.705 L 112.112 99.705 L 112.112 111.649 L 124.041 111.649 Z M 111.649 111.649 L 111.649 99.705 L 99.705 99.705 L 99.705 111.649 L 111.649 111.649 Z M 99.242 111.649 L 99.242 99.705 L 87.298 99.705 L 87.298 111.649 L 99.242 111.649 Z M 86.835 111.649 L 86.835 99.705 L 74.892 99.705 L 74.892 111.649 L 86.835 111.649 Z M 74.427 111.649 L 74.427 99.705 L 62.484 99.705 L 62.484 111.649 L 74.427 111.649 Z M 62.021 111.649 L 62.021 99.705 L 50.077 99.705 L 50.077 111.649 L 62.021 111.649 Z M 49.614 111.649 L 49.614 99.705 L 37.67 99.705 L 37.67 111.649 L 49.614 111.649 Z M 37.207 111.649 L 37.207 99.705 L 25.278 99.705 L 25.278 111.649 L 37.207 111.649 Z M 24.813 111.649 L 24.813 99.705 L 12.87 99.705 L 12.87 111.649 L 24.813 111.649 Z M 12.407 111.649 L 12.407 99.705 L 0.463 99.705 L 0.463 111.649 L 12.407 111.649 Z M 285.318 112.112 L 273.375 112.112 L 273.375 124.055 L 285.318 124.055 L 285.318 112.112 Z M 272.911 112.112 L 260.968 112.112 L 260.968 124.055 L 272.911 124.055 L 272.911 112.112 Z M 260.505 112.112 L 248.561 112.112 L 248.561 124.055 L 260.505 124.055 L 260.505 112.112 Z M 248.098 112.112 L 236.155 112.112 L 236.155 124.055 L 248.098 124.055 L 248.098 112.112 Z M 235.69 112.112 L 223.747 112.112 L 223.747 124.055 L 235.69 124.055 L 235.69 112.112 Z M 223.284 112.112 L 211.354 112.112 L 211.354 124.055 L 223.284 124.055 L 223.284 112.112 Z M 210.891 112.112 L 198.947 112.112 L 198.947 124.055 L 210.891 124.055 L 210.891 112.112 Z M 198.484 112.112 L 186.54 112.112 L 186.54 124.055 L 198.484 124.055 L 198.484 112.112 Z M 186.076 112.112 L 174.133 112.112 L 174.133 124.055 L 186.076 124.055 L 186.076 112.112 Z M 173.669 112.112 L 161.726 112.112 L 161.726 124.055 L 173.669 124.055 L 173.669 112.112 Z M 161.263 112.112 L 149.319 112.112 L 149.319 124.055 L 161.263 124.055 L 161.263 112.112 Z M 148.856 112.112 L 136.912 112.112 L 136.912 124.055 L 148.856 124.055 L 148.856 112.112 Z M 136.449 112.112 L 124.52 112.112 L 124.52 124.055 L 136.449 124.055 L 136.449 112.112 Z M 124.041 112.112 L 112.112 112.112 L 112.112 124.055 L 124.041 124.055 L 124.041 112.112 Z M 111.649 112.112 L 99.705 112.112 L 99.705 124.055 L 111.649 124.055 L 111.649 112.112 Z M 99.242 112.112 L 87.298 112.112 L 87.298 124.055 L 99.242 124.055 L 99.242 112.112 Z M 86.835 112.112 L 74.892 112.112 L 74.892 124.055 L 86.835 124.055 L 86.835 112.112 Z M 74.427 112.112 L 62.484 112.112 L 62.484 124.055 L 74.427 124.055 L 74.427 112.112 Z M 62.021 112.112 L 50.077 112.112 L 50.077 124.055 L 62.021 124.055 L 62.021 112.112 Z M 49.614 112.112 L 37.67 112.112 L 37.67 124.055 L 49.614 124.055 L 49.614 112.112 Z M 37.207 112.112 L 25.278 112.112 L 25.278 124.055 L 37.207 124.055 L 37.207 112.112 Z M 24.813 112.112 L 12.87 112.112 L 12.87 124.055 L 24.813 124.055 L 24.813 112.112 Z M 12.407 112.112 L 0.463 112.112 L 0.463 124.055 L 12.407 124.055 L 12.407 112.112 Z M 285.318 136.462 L 285.318 124.518 L 273.375 124.518 L 273.375 136.462 L 285.318 136.462 Z M 272.911 136.462 L 272.911 124.518 L 260.968 124.518 L 260.968 136.462 L 272.911 136.462 Z M 260.505 136.462 L 260.505 124.518 L 248.561 124.518 L 248.561 136.462 L 260.505 136.462 Z M 248.098 136.462 L 248.098 124.518 L 236.155 124.518 L 236.155 136.462 L 248.098 136.462 Z M 235.69 136.462 L 235.69 124.518 L 223.747 124.518 L 223.747 136.462 L 235.69 136.462 Z M 223.284 136.462 L 223.284 124.518 L 211.354 124.518 L 211.354 136.462 L 223.284 136.462 Z M 210.891 136.462 L 210.891 124.518 L 198.947 124.518 L 198.947 136.462 L 210.891 136.462 Z M 198.484 136.462 L 198.484 124.518 L 186.54 124.518 L 186.54 136.462 L 198.484 136.462 Z M 186.076 136.462 L 186.076 124.518 L 174.133 124.518 L 174.133 136.462 L 186.076 136.462 Z M 173.669 136.462 L 173.669 124.518 L 161.726 124.518 L 161.726 136.462 L 173.669 136.462 Z M 161.263 136.462 L 161.263 124.518 L 149.319 124.518 L 149.319 136.462 L 161.263 136.462 Z M 148.856 136.462 L 148.856 124.518 L 136.912 124.518 L 136.912 136.462 L 148.856 136.462 Z M 136.449 136.462 L 136.449 124.518 L 124.52 124.518 L 124.52 136.462 L 136.449 136.462 Z M 124.041 136.462 L 124.041 124.518 L 112.112 124.518 L 112.112 136.462 L 124.041 136.462 Z M 111.649 136.462 L 111.649 124.518 L 99.705 124.518 L 99.705 136.462 L 111.649 136.462 Z M 99.242 136.462 L 99.242 124.518 L 87.298 124.518 L 87.298 136.462 L 99.242 136.462 Z M 86.835 136.462 L 86.835 124.518 L 74.892 124.518 L 74.892 136.462 L 86.835 136.462 Z M 74.427 136.462 L 74.427 124.518 L 62.484 124.518 L 62.484 136.462 L 74.427 136.462 Z M 62.021 136.462 L 62.021 124.518 L 50.077 124.518 L 50.077 136.462 L 62.021 136.462 Z M 49.614 136.462 L 49.614 124.518 L 37.67 124.518 L 37.67 136.462 L 49.614 136.462 Z M 37.207 136.462 L 37.207 124.518 L 25.278 124.518 L 25.278 136.462 L 37.207 136.462 Z M 24.813 136.462 L 24.813 124.518 L 12.87 124.518 L 12.87 136.462 L 24.813 136.462 Z M 12.407 136.462 L 12.407 124.518 L 0.463 124.518 L 0.463 136.462 L 12.407 136.462 Z M 285.318 136.925 L 273.375 136.925 L 273.375 148.855 L 285.318 148.855 L 285.318 136.925 Z M 272.911 136.925 L 260.968 136.925 L 260.968 148.855 L 272.911 148.855 L 272.911 136.925 Z M 260.505 136.925 L 248.561 136.925 L 248.561 148.855 L 260.505 148.855 L 260.505 136.925 Z M 248.098 136.925 L 236.155 136.925 L 236.155 148.855 L 248.098 148.855 L 248.098 136.925 Z M 235.69 136.925 L 223.747 136.925 L 223.747 148.855 L 235.69 148.855 L 235.69 136.925 Z M 223.284 136.925 L 211.354 136.925 L 211.354 148.855 L 223.284 148.855 L 223.284 136.925 Z M 210.891 136.925 L 198.947 136.925 L 198.947 148.855 L 210.891 148.855 L 210.891 136.925 Z M 198.484 136.925 L 186.54 136.925 L 186.54 148.855 L 198.484 148.855 L 198.484 136.925 Z M 186.076 136.925 L 174.133 136.925 L 174.133 148.855 L 186.076 148.855 L 186.076 136.925 Z M 173.669 136.925 L 161.726 136.925 L 161.726 148.855 L 173.669 148.855 L 173.669 136.925 Z M 161.263 136.925 L 149.319 136.925 L 149.319 148.855 L 161.263 148.855 L 161.263 136.925 Z M 148.856 136.925 L 136.912 136.925 L 136.912 148.855 L 148.856 148.855 L 148.856 136.925 Z M 136.449 136.925 L 124.52 136.925 L 124.52 148.855 L 136.449 148.855 L 136.449 136.925 Z M 124.041 136.925 L 112.112 136.925 L 112.112 148.855 L 124.041 148.855 L 124.041 136.925 Z M 111.649 136.925 L 99.705 136.925 L 99.705 148.855 L 111.649 148.855 L 111.649 136.925 Z M 99.242 136.925 L 87.298 136.925 L 87.298 148.855 L 99.242 148.855 L 99.242 136.925 Z M 86.835 136.925 L 74.892 136.925 L 74.892 148.855 L 86.835 148.855 L 86.835 136.925 Z M 74.427 136.925 L 62.484 136.925 L 62.484 148.855 L 74.427 148.855 L 74.427 136.925 Z M 62.021 136.925 L 50.077 136.925 L 50.077 148.855 L 62.021 148.855 L 62.021 136.925 Z M 49.614 136.925 L 37.67 136.925 L 37.67 148.855 L 49.614 148.855 L 49.614 136.925 Z M 37.207 136.925 L 25.278 136.925 L 25.278 148.855 L 37.207 148.855 L 37.207 136.925 Z M 24.813 136.925 L 12.87 136.925 L 12.87 148.855 L 24.813 148.855 L 24.813 136.925 Z M 12.407 136.925 L 0.463 136.925 L 0.463 148.855 L 12.407 148.855 L 12.407 136.925 Z M 285.318 161.263 L 285.318 149.333 L 273.375 149.333 L 273.375 161.263 L 285.318 161.263 Z M 272.911 161.263 L 272.911 149.333 L 260.968 149.333 L 260.968 161.263 L 272.911 161.263 Z M 260.505 161.263 L 260.505 149.333 L 248.561 149.333 L 248.561 161.263 L 260.505 161.263 Z M 248.098 161.263 L 248.098 149.333 L 236.155 149.333 L 236.155 161.263 L 248.098 161.263 Z M 235.69 161.263 L 235.69 149.333 L 223.747 149.333 L 223.747 161.263 L 235.69 161.263 Z M 223.284 161.263 L 223.284 149.333 L 211.354 149.333 L 211.354 161.263 L 223.284 161.263 Z M 210.891 161.263 L 210.891 149.333 L 198.947 149.333 L 198.947 161.263 L 210.891 161.263 Z M 198.484 161.263 L 198.484 149.333 L 186.54 149.333 L 186.54 161.263 L 198.484 161.263 Z M 186.076 161.263 L 186.076 149.333 L 174.133 149.333 L 174.133 161.263 L 186.076 161.263 Z M 173.669 161.263 L 173.669 149.333 L 161.726 149.333 L 161.726 161.263 L 173.669 161.263 Z M 161.263 161.263 L 161.263 149.333 L 149.319 149.333 L 149.319 161.263 L 161.263 161.263 Z M 148.856 161.263 L 148.856 149.333 L 136.912 149.333 L 136.912 161.263 L 148.856 161.263 Z M 136.449 161.263 L 136.449 149.333 L 124.52 149.333 L 124.52 161.263 L 136.449 161.263 Z M 124.041 161.263 L 124.041 149.333 L 112.112 149.333 L 112.112 161.263 L 124.041 161.263 Z M 111.649 161.263 L 111.649 149.333 L 99.705 149.333 L 99.705 161.263 L 111.649 161.263 Z M 99.242 161.263 L 99.242 149.333 L 87.298 149.333 L 87.298 161.263 L 99.242 161.263 Z M 86.835 161.263 L 86.835 149.333 L 74.892 149.333 L 74.892 161.263 L 86.835 161.263 Z M 74.427 161.263 L 74.427 149.333 L 62.484 149.333 L 62.484 161.263 L 74.427 161.263 Z M 62.021 161.263 L 62.021 149.333 L 50.077 149.333 L 50.077 161.263 L 62.021 161.263 Z M 49.614 161.263 L 49.614 149.333 L 37.67 149.333 L 37.67 161.263 L 49.614 161.263 Z M 37.207 161.263 L 37.207 149.333 L 25.278 149.333 L 25.278 161.263 L 37.207 161.263 Z M 24.813 161.263 L 24.813 149.333 L 12.87 149.333 L 12.87 161.263 L 24.813 161.263 Z M 12.407 161.263 L 12.407 149.333 L 0.463 149.333 L 0.463 161.263 L 12.407 161.263 Z M 285.318 161.726 L 273.375 161.726 L 273.375 173.67 L 285.318 173.67 L 285.318 161.726 Z M 272.911 161.726 L 260.968 161.726 L 260.968 173.67 L 272.911 173.67 L 272.911 161.726 Z M 260.505 161.726 L 248.561 161.726 L 248.561 173.67 L 260.505 173.67 L 260.505 161.726 Z M 248.098 161.726 L 236.155 161.726 L 236.155 173.67 L 248.098 173.67 L 248.098 161.726 Z M 235.69 161.726 L 223.747 161.726 L 223.747 173.67 L 235.69 173.67 L 235.69 161.726 Z M 223.284 161.726 L 211.354 161.726 L 211.354 173.67 L 223.284 173.67 L 223.284 161.726 Z M 210.891 161.726 L 198.947 161.726 L 198.947 173.67 L 210.891 173.67 L 210.891 161.726 Z M 198.484 161.726 L 186.54 161.726 L 186.54 173.67 L 198.484 173.67 L 198.484 161.726 Z M 186.076 161.726 L 174.133 161.726 L 174.133 173.67 L 186.076 173.67 L 186.076 161.726 Z M 173.669 161.726 L 161.726 161.726 L 161.726 173.67 L 173.669 173.67 L 173.669 161.726 Z M 161.263 161.726 L 149.319 161.726 L 149.319 173.67 L 161.263 173.67 L 161.263 161.726 Z M 148.856 161.726 L 136.912 161.726 L 136.912 173.67 L 148.856 173.67 L 148.856 161.726 Z M 136.449 161.726 L 124.52 161.726 L 124.52 173.67 L 136.449 173.67 L 136.449 161.726 Z M 124.041 161.726 L 112.112 161.726 L 112.112 173.67 L 124.041 173.67 L 124.041 161.726 Z M 111.649 161.726 L 99.705 161.726 L 99.705 173.67 L 111.649 173.67 L 111.649 161.726 Z M 99.242 161.726 L 87.298 161.726 L 87.298 173.67 L 99.242 173.67 L 99.242 161.726 Z M 86.835 161.726 L 74.892 161.726 L 74.892 173.67 L 86.835 173.67 L 86.835 161.726 Z M 74.427 161.726 L 62.484 161.726 L 62.484 173.67 L 74.427 173.67 L 74.427 161.726 Z M 62.021 161.726 L 50.077 161.726 L 50.077 173.67 L 62.021 173.67 L 62.021 161.726 Z M 49.614 161.726 L 37.67 161.726 L 37.67 173.67 L 49.614 173.67 L 49.614 161.726 Z M 37.207 161.726 L 25.278 161.726 L 25.278 173.67 L 37.207 173.67 L 37.207 161.726 Z M 24.813 161.726 L 12.87 161.726 L 12.87 173.67 L 24.813 173.67 L 24.813 161.726 Z M 12.407 161.726 L 0.463 161.726 L 0.463 173.67 L 12.407 173.67 L 12.407 161.726 Z M 273.375 186.076 L 285.318 186.076 L 285.318 174.133 L 273.375 174.133 L 273.375 186.076 Z M 260.968 186.076 L 272.911 186.076 L 272.911 174.133 L 260.968 174.133 L 260.968 186.076 Z M 248.561 186.076 L 260.505 186.076 L 260.505 174.133 L 248.561 174.133 L 248.561 186.076 Z M 236.153 186.076 L 248.097 186.076 L 248.097 174.133 L 236.153 174.133 L 236.153 186.076 Z M 223.747 186.076 L 235.69 186.076 L 235.69 174.133 L 223.747 174.133 L 223.747 186.076 Z M 211.354 186.076 L 223.284 186.076 L 223.284 174.133 L 211.354 174.133 L 211.354 186.076 Z M 198.947 186.076 L 210.891 186.076 L 210.891 174.133 L 198.947 174.133 L 198.947 186.076 Z M 186.539 186.076 L 198.483 186.076 L 198.483 174.133 L 186.539 174.133 L 186.539 186.076 Z M 174.133 186.076 L 186.076 186.076 L 186.076 174.133 L 174.133 174.133 L 174.133 186.076 Z M 161.726 186.076 L 173.669 186.076 L 173.669 174.133 L 161.726 174.133 L 161.726 186.076 Z M 149.319 186.076 L 161.263 186.076 L 161.263 174.133 L 149.319 174.133 L 149.319 186.076 Z M 136.912 186.076 L 148.856 186.076 L 148.856 174.133 L 136.912 174.133 L 136.912 186.076 Z M 124.518 186.076 L 136.448 186.076 L 136.448 174.133 L 124.518 174.133 L 124.518 186.076 Z M 112.112 186.076 L 124.041 186.076 L 124.041 174.133 L 112.112 174.133 L 112.112 186.076 Z M 99.705 186.076 L 111.649 186.076 L 111.649 174.133 L 99.705 174.133 L 99.705 186.076 Z M 87.298 186.076 L 99.242 186.076 L 99.242 174.133 L 87.298 174.133 L 87.298 186.076 Z M 74.89 186.076 L 86.834 186.076 L 86.834 174.133 L 74.89 174.133 L 74.89 186.076 Z M 62.484 186.076 L 74.427 186.076 L 74.427 174.133 L 62.484 174.133 L 62.484 186.076 Z M 50.077 186.076 L 62.021 186.076 L 62.021 174.133 L 50.077 174.133 L 50.077 186.076 Z M 37.67 186.076 L 49.614 186.076 L 49.614 174.133 L 37.67 174.133 L 37.67 186.076 Z M 25.276 186.076 L 37.206 186.076 L 37.206 174.133 L 25.276 174.133 L 25.276 186.076 Z M 12.87 186.076 L 24.813 186.076 L 24.813 174.133 L 12.87 174.133 L 12.87 186.076 Z" fill="currentColor" fill-rule="nonzero"></path>
</svg>