<svg width="1920" height="356" viewBox="0 0 1920 356" fill="none" xmlns="http://www.w3.org/2000/svg">
<path d="M1780.5 290.782C1799.43 284.185 1821.15 286.14 1840.75 287.477C1903.57 291.768 1965.73 305.872 2028.83 306.166V314.735C1966.53 315.31 1904.8 304.358 1842.66 301.651C1822.89 300.789 1801.93 299.524 1782.56 304.458C1772.42 307.038 1763.48 312.056 1753.99 316.242C1742.02 321.522 1729.32 323.736 1716.29 324.249C1685.36 325.469 1654.9 327.599 1624.13 331.304C1582.73 336.288 1541.45 342.2 1500.06 347.318C1467.34 351.365 1433.17 357.064 1400.09 355.089C1379.36 353.851 1361.96 346.072 1344.62 335.212C1336.66 330.226 1328.65 325.3 1319.91 321.768C1307.75 316.855 1294.93 315.014 1281.88 314.745C1268.84 315.014 1256.02 316.855 1243.86 321.768C1235.12 325.3 1227.11 330.226 1219.15 335.212C1201.81 346.073 1184.4 353.851 1163.67 355.089C1130.6 357.064 1096.43 351.365 1063.7 347.318C1022.32 342.2 981.034 336.288 939.632 331.304C908.864 327.599 878.404 325.469 847.479 324.249C834.45 323.736 821.748 321.522 809.779 316.242C800.286 312.056 791.349 307.038 781.211 304.458C761.839 299.524 740.872 300.789 721.109 301.651C658.964 304.358 597.239 315.31 534.941 314.735C472.644 315.31 410.919 304.358 348.773 301.651C329.011 300.789 308.045 299.524 288.673 304.458C278.535 307.038 269.596 312.056 260.104 316.242C248.135 321.522 235.433 323.736 222.403 324.249C191.478 325.469 161.019 327.599 130.251 331.304C88.8491 336.288 47.5641 342.2 6.17969 347.318C-26.5436 351.365 -60.7166 357.064 -93.791 355.089C-114.521 353.851 -131.923 346.073 -149.265 335.212C-157.228 330.226 -165.236 325.3 -173.975 321.768C-186.237 316.812 -199.175 314.982 -212.34 314.738L-212.338 314.733V306.164C-199.151 306.333 -186.165 308.089 -173.915 313.167C-165.296 316.741 -157.468 321.764 -149.688 326.854C-132.588 338.044 -115.42 345.839 -94.6953 346.974C-80.6166 347.746 -66.3685 346.488 -52.3496 345.305C-33.005 343.674 -13.7075 341.485 5.56738 339.194C47.9157 334.158 90.1768 328.415 132.54 323.497C150.395 321.425 168.273 319.465 186.195 318.057C199.2 317.036 212.178 317.052 225.186 316.38C238.091 315.71 250.718 313.184 261.628 305.984C269.905 300.52 277.082 294.107 286.62 290.782C305.549 284.185 327.267 286.14 346.863 287.477C409.686 291.768 471.842 305.871 534.941 306.165C598.041 305.871 660.197 291.768 723.021 287.477C742.617 286.14 764.335 284.185 783.264 290.782C792.801 294.107 799.978 300.52 808.255 305.984C819.165 313.184 831.792 315.71 844.697 316.38C857.705 317.052 870.683 317.036 883.688 318.057C901.611 319.465 919.488 321.425 937.343 323.497C979.706 328.415 1021.97 334.158 1064.32 339.194C1083.59 341.485 1102.89 343.674 1122.23 345.305C1136.25 346.488 1150.5 347.746 1164.58 346.974C1185.3 345.839 1202.47 338.044 1219.57 326.854C1227.35 321.764 1235.18 316.741 1243.8 313.167C1255.84 308.175 1268.59 306.395 1281.55 306.175V306.164C1281.66 306.165 1281.77 306.167 1281.88 306.169C1282 306.167 1282.11 306.165 1282.22 306.164V306.175C1295.18 306.395 1307.93 308.175 1319.97 313.167C1328.59 316.741 1336.42 321.764 1344.2 326.854C1361.3 338.044 1378.46 345.839 1399.19 346.974C1413.27 347.746 1427.51 346.488 1441.53 345.305C1460.88 343.674 1480.18 341.485 1499.45 339.194C1541.8 334.158 1584.06 328.415 1626.42 323.497C1644.28 321.425 1662.16 319.465 1680.08 318.057C1693.08 317.036 1706.06 317.052 1719.07 316.38C1731.97 315.71 1744.6 313.184 1755.51 305.984C1763.79 300.52 1770.97 294.107 1780.5 290.782Z" fill="#10EBEB"></path>
<path d="M1808.67 258.372C1821 255.831 1833.42 257.433 1845.83 258.915C1907.4 266.274 1966.92 286.347 2028.83 291.331V299.455C1965.94 296.603 1904.68 279.556 1842.14 273.477C1821.57 271.477 1800.62 270.451 1781.19 278.791C1771 283.167 1763.16 290.524 1754.26 296.887C1743.37 304.67 1730.92 308.288 1717.68 309.545C1704.61 310.788 1691.41 310.708 1678.31 311.809C1660.5 313.306 1642.74 315.326 1624.99 317.451C1583.44 322.427 1541.98 328.165 1500.41 333.016C1481.35 335.24 1462.27 337.317 1443.13 338.751C1429.01 339.807 1414.57 341.01 1400.43 339.65C1379.8 337.663 1362.26 329.614 1344.72 319.099C1324.79 307.158 1305.38 299.972 1281.88 299.459C1258.39 299.973 1238.98 307.158 1219.05 319.099C1201.5 329.614 1183.97 337.663 1163.33 339.65C1149.2 341.01 1134.75 339.807 1120.63 338.751C1101.5 337.317 1082.41 335.24 1063.35 333.016C1021.79 328.165 980.326 322.427 938.772 317.451C921.027 315.326 903.262 313.306 885.452 311.809C872.355 310.708 859.155 310.788 846.09 309.545C832.848 308.288 820.396 304.67 809.511 296.887C800.611 290.524 792.766 283.167 782.573 278.791C763.146 270.451 742.198 271.477 721.625 273.477C659.084 279.556 597.831 296.601 534.944 299.454V299.455L534.941 299.454L534.939 299.455V299.454C472.052 296.601 410.799 279.556 348.258 273.477C327.685 271.477 306.736 270.451 287.31 278.791C277.117 283.167 269.273 290.524 260.373 296.887C249.488 304.67 237.035 308.288 223.793 309.545C210.728 310.788 197.529 310.708 184.432 311.809C166.621 313.306 148.856 315.326 131.11 317.451C89.5566 322.427 48.097 328.165 6.52832 333.016C-12.5296 335.24 -31.6149 337.317 -50.75 338.751C-64.8686 339.807 -79.3141 341.01 -93.4502 339.65C-114.082 337.662 -131.621 329.614 -149.167 319.099C-169.192 307.1 -188.691 299.902 -212.34 299.452L-212.343 299.455V291.331C-188.612 291.881 -167.952 298.515 -146.998 309.197C-128.373 318.69 -109.851 326.881 -88.9717 329.915C-74.9951 331.944 -60.5624 331.023 -46.5186 330.199C-28.0258 329.113 -9.57992 327.26 8.82812 325.203C48.6357 320.755 88.3068 315.174 128.06 310.288C145.314 308.168 162.589 306.146 179.908 304.624C192.966 303.476 206.262 303.658 219.242 301.917C233.251 300.037 246.114 295.347 257.774 287.358C268.189 280.223 277.717 272.075 289.228 266.643C297.353 262.808 305.994 260.182 314.782 258.372C327.112 255.831 339.537 257.433 351.944 258.915C413.519 266.274 473.033 286.346 534.941 291.33C596.85 286.346 656.363 266.274 717.938 258.915C730.346 257.433 742.771 255.831 755.101 258.372C763.889 260.182 772.53 262.808 780.655 266.643C792.166 272.075 801.694 280.223 812.108 287.358C823.768 295.347 836.632 300.037 850.641 301.917C863.621 303.658 876.918 303.476 889.976 304.624C907.295 306.146 924.57 308.168 941.824 310.288C981.577 315.174 1021.25 320.755 1061.06 325.203C1079.46 327.26 1097.91 329.113 1116.4 330.199C1130.45 331.023 1144.88 331.944 1158.85 329.915C1179.73 326.881 1198.26 318.69 1216.88 309.197C1237.63 298.618 1258.1 292.01 1281.54 291.349V291.331C1281.66 291.333 1281.77 291.336 1281.88 291.339C1282 291.336 1282.11 291.333 1282.23 291.331V291.349C1305.67 292.01 1326.13 298.618 1346.89 309.197C1365.51 318.69 1384.03 326.881 1404.91 329.915C1418.89 331.944 1433.32 331.023 1447.37 330.199C1465.86 329.113 1484.3 327.26 1502.71 325.203C1542.52 320.755 1582.19 315.174 1621.94 310.288C1639.2 308.168 1656.47 306.146 1673.79 304.624C1686.85 303.476 1700.15 303.658 1713.13 301.917C1727.13 300.037 1740 295.347 1751.66 287.358C1762.07 280.223 1771.6 272.075 1783.11 266.643C1791.24 262.808 1799.88 260.182 1808.67 258.372Z" fill="#EBEB10"></path>
<path d="M1819.34 239.18C1831.87 235.686 1843.87 236.842 1856.67 238.493C1915.13 246.029 1970.15 270.087 2028.83 276.487V284.168C1968.28 278.156 1910.76 255.924 1850.51 248.169C1837.93 246.55 1825.66 245.003 1813.25 248.119C1803.73 250.51 1794.41 253.695 1785.53 257.879C1772.44 264.037 1760.93 272.622 1748.67 280.175C1735.8 288.105 1722.01 293.415 1707.04 295.701C1694.24 297.653 1681.04 297.412 1668.14 298.557C1651.52 300.034 1634.94 301.996 1618.39 304.053C1580.76 308.728 1543.21 314.051 1505.51 318.015C1487.95 319.861 1470.35 321.445 1452.71 322.162C1438.88 322.722 1424.73 323.195 1411.07 320.697C1389.63 316.777 1369.89 308.638 1349.96 300.129C1327.92 290.717 1305.96 284.77 1281.88 284.172C1257.8 284.77 1235.85 290.717 1213.81 300.129C1193.88 308.638 1174.14 316.777 1152.7 320.697C1139.03 323.195 1124.88 322.722 1111.06 322.162C1093.42 321.445 1075.81 319.861 1058.26 318.015C1020.55 314.051 983.004 308.728 945.379 304.053C928.824 301.996 912.249 300.034 895.63 298.557C882.724 297.412 869.53 297.653 856.731 295.701C841.756 293.415 827.966 288.105 815.098 280.175C802.84 272.622 791.324 264.037 778.241 257.879C769.354 253.695 760.035 250.51 750.513 248.119C738.105 245.003 725.837 246.55 713.261 248.169C653.002 255.924 595.486 278.156 534.941 284.168C474.397 278.156 416.881 255.924 356.623 248.169C344.046 246.55 331.778 245.003 319.371 248.119C309.848 250.51 300.529 253.695 291.642 257.879C278.559 264.037 267.044 272.622 254.786 280.175C241.918 288.105 228.128 293.415 213.152 295.701C200.354 297.653 187.159 297.412 174.254 298.557C157.634 300.034 141.06 301.996 124.505 304.053C86.8793 308.728 49.3308 314.051 11.623 318.015C-5.93045 319.861 -23.5341 321.445 -41.1748 322.162C-54.9995 322.722 -69.1511 323.195 -82.8164 320.697C-104.253 316.777 -123.997 308.638 -143.927 300.129C-166.068 290.673 -188.127 284.713 -212.338 284.163V276.487C-187.212 276.968 -163.398 282.023 -139.702 290.149C-118.113 297.553 -96.7977 305.464 -74.4365 310.315C-45.5367 316.586 -13.8868 312.855 15.2422 310.076C50.2573 306.734 85.0956 301.787 119.996 297.444C135.587 295.504 151.195 293.651 166.848 292.279C179.494 291.168 192.41 291.435 204.942 289.463C221.235 286.897 236.48 281.239 251.012 273.539C265.643 265.786 279.657 256.97 294.805 250.201C304.731 245.765 314.987 242.102 325.459 239.18C337.988 235.686 349.987 236.842 362.788 238.493C421.25 246.029 476.265 270.087 534.941 276.487C593.618 270.087 648.633 246.029 707.096 238.493C719.897 236.842 731.895 235.686 744.425 239.18C754.897 242.102 765.152 245.765 775.078 250.201C790.225 256.97 804.239 265.786 818.871 273.539C833.403 281.239 848.648 286.897 864.941 289.463C877.473 291.435 890.389 291.168 903.035 292.279C918.688 293.651 934.297 295.504 949.888 297.444C984.788 301.787 1019.63 306.734 1054.64 310.076C1083.77 312.855 1115.42 316.586 1144.32 310.315C1166.68 305.464 1188 297.553 1209.58 290.149C1233.07 282.096 1256.67 277.061 1281.55 276.504V276.487C1281.66 276.489 1281.77 276.492 1281.88 276.495C1282 276.492 1282.11 276.489 1282.22 276.487V276.504C1307.1 277.061 1330.7 282.096 1354.18 290.149C1375.77 297.553 1397.09 305.464 1419.45 310.315C1448.35 316.586 1480 312.855 1509.12 310.076C1544.14 306.734 1578.98 301.787 1613.88 297.444C1629.47 295.504 1645.08 293.651 1660.73 292.279C1673.38 291.168 1686.29 291.435 1698.83 289.463C1715.12 286.897 1730.36 281.239 1744.9 273.539C1759.53 265.786 1773.54 256.97 1788.69 250.201C1798.61 245.765 1808.87 242.102 1819.34 239.18ZM-212.338 284.163V284.168L-212.34 284.163H-212.338Z" fill="#1010EB"></path>
<path d="M359.724 222.978C365.415 223.008 371.1 223.349 376.76 223.942C431.002 229.615 480.63 255.976 534.939 261.637V268.874C478.41 262.656 426.11 237.235 369.718 230.453C356.72 228.892 344.968 228.347 332.329 232.045C320.794 235.42 309.457 239.434 298.348 244.019C280.851 251.241 264.114 260.082 246.854 267.822C230.429 275.187 213.426 280.91 195.581 283.592C183.365 285.427 170.844 285.164 158.528 286.207C143.991 287.44 129.494 289.143 115.017 290.934C83.1352 294.874 51.3012 299.374 19.2754 302.022C-8.42136 304.31 -37.5984 306.338 -64.8418 299.649C-88.3886 293.866 -111.437 286.349 -134.842 280.061C-160.282 273.227 -185.968 269.225 -212.34 268.874H-212.343V261.637C-158.09 262.005 -107.006 275.302 -54.9902 289.303C-29.3959 296.191 -2.922 296.032 23.3623 294.272C52.3592 292.329 81.1646 288.294 109.997 284.778C123.328 283.151 136.678 281.607 150.066 280.527C162.023 279.563 174.116 279.827 185.993 278.205C205.48 275.545 224.309 269.965 242.66 262.996C262.573 255.435 282.014 246.707 301.937 239.173C314.247 234.518 326.704 230.254 339.32 226.511C346.252 224.454 352.473 222.94 359.724 222.978ZM1853.61 222.978C1859.3 223.008 1864.98 223.349 1870.64 223.942C1924.89 229.615 1974.51 255.976 2028.82 261.637V268.874C1972.29 262.656 1919.99 237.235 1863.6 230.453C1850.6 228.892 1838.85 228.347 1826.21 232.045C1814.68 235.42 1803.34 239.434 1792.23 244.019C1774.73 251.241 1758 260.082 1740.74 267.822C1724.31 275.187 1707.31 280.91 1689.46 283.592C1677.25 285.427 1664.73 285.164 1652.41 286.207C1637.88 287.44 1623.38 289.143 1608.9 290.934C1577.02 294.874 1545.18 299.374 1513.16 302.022C1485.46 304.31 1456.29 306.338 1429.04 299.649C1405.5 293.866 1382.45 286.349 1359.04 280.061C1333.71 273.256 1308.14 269.261 1281.88 268.88C1255.63 269.261 1230.06 273.256 1204.73 280.061C1181.32 286.349 1158.27 293.866 1134.72 299.649C1107.48 306.338 1078.31 304.31 1050.61 302.022C1018.58 299.374 986.748 294.874 954.866 290.934C940.389 289.143 925.891 287.44 911.354 286.207C899.039 285.164 886.517 285.427 874.302 283.592C856.457 280.91 839.453 275.187 823.028 267.822C805.769 260.082 789.032 251.241 771.536 244.019C760.427 239.434 749.09 235.42 737.555 232.045C724.916 228.347 713.164 228.892 700.166 230.453C643.774 237.235 591.474 262.656 534.944 268.874V261.637C589.254 255.976 638.881 229.615 693.124 223.942C698.783 223.349 704.467 223.008 710.159 222.978C717.41 222.94 723.63 224.454 730.562 226.511C743.179 230.254 755.636 234.518 767.946 239.173C787.869 246.707 807.311 255.435 827.224 262.996C845.574 269.964 864.403 275.545 883.89 278.205C895.766 279.827 907.86 279.563 919.816 280.527C933.205 281.607 946.554 283.151 959.886 284.778C988.718 288.294 1017.52 292.329 1046.52 294.272C1072.8 296.032 1099.28 296.191 1124.87 289.303C1176.67 275.361 1227.54 262.119 1281.54 261.644V261.637C1281.65 261.638 1281.77 261.639 1281.88 261.64C1282 261.639 1282.11 261.638 1282.23 261.637V261.644C1336.22 262.119 1387.1 275.361 1438.89 289.303C1464.49 296.191 1490.96 296.032 1517.25 294.272C1546.24 292.329 1575.05 288.294 1603.88 284.778C1617.21 283.151 1630.56 281.607 1643.95 280.527C1655.91 279.563 1668 279.827 1679.88 278.205C1699.36 275.545 1718.19 269.964 1736.54 262.996C1756.46 255.435 1775.9 246.707 1795.82 239.173C1808.13 234.518 1820.59 230.254 1833.2 226.511C1840.14 224.454 1846.36 222.94 1853.61 222.978Z" fill="#EB1010"></path>
<path d="M1803.19 231.214C1829.76 222.838 1856.93 211.29 1885.18 212.799C1934.84 215.449 1979.2 242.941 2028.83 246.796V253.588C1977.07 248.841 1930.38 221.752 1878.63 217.636C1865.42 216.585 1853.84 217.638 1841.13 221.396C1827.28 225.493 1813.54 229.953 1799.88 234.628C1777.16 242.398 1754.67 250.872 1731.78 258.095C1711.26 264.562 1690.35 269.82 1668.95 272.318C1657.47 273.661 1645.87 273.376 1634.33 274.243C1622.25 275.15 1610.22 276.505 1598.19 277.939C1548.76 283.837 1498.82 291.98 1450.14 277.715C1395.06 261.574 1339.27 253.582 1281.88 253.588C1224.49 253.582 1168.71 261.574 1113.63 277.715C1064.95 291.98 1015 283.837 965.575 277.939C953.552 276.505 941.513 275.15 929.435 274.243C917.902 273.376 906.298 273.661 894.817 272.318C873.42 269.82 852.507 264.562 831.991 258.095C809.092 250.872 786.609 242.398 763.892 234.628C750.226 229.953 736.489 225.493 722.637 221.396C709.928 217.638 698.35 216.585 685.141 217.636C633.389 221.752 586.698 248.841 534.941 253.588C483.185 248.841 436.495 221.752 384.743 217.636C371.534 216.585 359.956 217.638 347.247 221.396C333.395 225.493 319.657 229.953 305.992 234.628C283.275 242.398 260.792 250.872 237.893 258.095C217.377 264.562 196.463 269.82 175.065 272.318C163.585 273.661 151.982 273.376 140.449 274.243C128.371 275.15 116.331 276.505 104.308 277.939C54.8801 283.837 4.93418 291.98 -43.7461 277.715C-98.9327 261.542 -154.829 253.551 -212.34 253.588H-212.338V246.796C-152.109 246.415 -92.3167 249.909 -34.4746 268C-23.5021 271.432 -12.883 274.971 -1.45215 276.604C9.57014 278.181 20.7369 278.574 31.8613 278.338C54.5462 277.855 77.0819 274.789 99.5898 272.164C110.535 270.886 121.496 269.681 132.493 268.919C143.677 268.144 154.897 268.445 166.046 267.345C189.03 265.073 211.653 260.187 233.922 254.165C259.282 247.306 284.261 239.111 309.31 231.214C335.873 222.839 363.042 211.29 391.299 212.799C440.956 215.449 485.312 242.941 534.941 246.796C584.571 242.941 628.927 215.449 678.584 212.799C706.841 211.29 734.01 222.838 760.573 231.214C785.622 239.111 810.602 247.306 835.962 254.165C858.231 260.187 880.853 265.073 903.837 267.345C914.986 268.445 926.206 268.144 937.391 268.919C948.388 269.681 959.348 270.886 970.293 272.164C992.801 274.789 1015.34 277.855 1038.02 278.338C1049.15 278.574 1060.31 278.181 1071.34 276.604C1082.77 274.971 1093.39 271.432 1104.36 268C1162.09 249.943 1221.77 246.428 1281.88 246.794C1342 246.428 1401.67 249.943 1459.41 268C1470.38 271.432 1481 274.971 1492.43 276.604C1503.45 278.181 1514.62 278.574 1525.75 278.338C1548.43 277.855 1570.97 274.789 1593.47 272.164C1604.42 270.886 1615.38 269.681 1626.38 268.919C1637.56 268.144 1648.78 268.445 1659.93 267.345C1682.91 265.073 1705.54 260.187 1727.8 254.165C1753.16 247.306 1778.14 239.111 1803.19 231.214Z" fill="#EB10EB"></path>
<path d="M1897.72 202.573C1918.9 202.287 1939.05 208.832 1958.82 215.708C1981.71 223.667 2004.42 230.907 2028.83 231.953V238.301C2003.75 236.854 1980.25 229.322 1956.64 221.278C1935.94 214.223 1914.85 207.347 1892.77 206.993C1879.59 206.784 1867.73 209.481 1855.13 213.14C1839.09 217.797 1823.06 222.502 1807.01 227.119C1779.21 235.113 1751.32 242.916 1723.08 249.262C1698.83 254.713 1674.27 259.079 1649.46 260.977C1628.91 262.548 1608.46 262.56 1587.91 264.901C1568.77 267.083 1549.56 269.638 1530.25 269.352C1520.52 269.207 1510.79 268.315 1501.27 266.306C1490.45 264.022 1480.55 259.624 1470.13 256.093C1409.47 235.531 1345.37 237.529 1282.22 238.29V238.299C1282.11 238.298 1282 238.295 1281.88 238.294C1281.77 238.295 1281.66 238.298 1281.54 238.299V238.29C1218.39 237.529 1154.29 235.531 1093.63 256.093C1083.22 259.624 1073.32 264.022 1062.5 266.306C1052.97 268.315 1043.24 269.207 1033.51 269.352C1014.2 269.638 994.995 267.083 975.853 264.901C955.308 262.56 934.855 262.548 914.305 260.977C889.497 259.079 864.936 254.713 840.682 249.262C812.447 242.916 784.561 235.113 756.757 227.119C740.703 222.502 724.676 217.797 708.635 213.14C696.041 209.481 684.176 206.784 670.999 206.993C648.917 207.347 627.826 214.223 607.124 221.278C583.52 229.322 560.018 236.854 534.941 238.301C509.865 236.854 486.363 229.322 462.759 221.278C442.057 214.223 420.966 207.347 398.884 206.993C385.707 206.784 373.842 209.481 361.248 213.14C345.206 217.797 329.18 222.502 313.126 227.119C285.322 235.113 257.436 242.916 229.201 249.262C204.947 254.713 180.386 259.079 155.579 260.977C135.029 262.548 114.576 262.56 94.0303 264.901C74.8875 267.083 55.6798 269.638 36.3701 269.352C26.6405 269.207 16.9106 268.315 7.38281 266.306C-3.43514 264.022 -13.334 259.624 -23.751 256.093C-84.6269 235.457 -148.97 237.544 -212.34 238.299V231.95C-146.965 231.004 -79.5356 224.825 -16.7715 247.49C-6.66589 251.141 2.79957 256.065 13.2314 258.842C21.7728 261.116 30.5536 262.366 39.3789 262.777C56.4118 263.572 73.3928 261.345 90.2812 259.438C109.81 257.231 129.17 257.226 148.731 256.03C174.697 254.444 200.481 250.482 225.983 245.443C256.129 239.489 285.953 231.99 315.6 223.939C332.486 219.354 349.314 214.572 366.118 209.695C378.665 206.054 390.692 202.75 403.834 202.573C425.014 202.287 445.166 208.832 464.938 215.708C487.828 223.667 510.533 230.907 534.941 231.953C559.35 230.907 582.055 223.667 604.944 215.708C624.717 208.832 644.869 202.287 666.05 202.573C679.192 202.75 691.218 206.054 703.765 209.695C720.569 214.572 737.398 219.354 754.284 223.939C783.931 231.99 813.755 239.489 843.9 245.443C869.402 250.482 895.186 254.444 921.151 256.03C940.713 257.226 960.073 257.231 979.602 259.438C996.49 261.345 1013.47 263.572 1030.5 262.777C1039.33 262.366 1048.11 261.116 1056.65 258.842C1067.08 256.065 1076.55 251.141 1086.66 247.49C1149.31 224.864 1216.61 230.982 1281.88 231.944C1347.15 230.982 1414.46 224.864 1477.11 247.49C1487.22 251.141 1496.68 256.065 1507.12 258.842C1515.66 261.116 1524.44 262.366 1533.26 262.777C1550.3 263.572 1567.28 261.345 1584.17 259.438C1603.69 257.231 1623.05 257.226 1642.62 256.03C1668.58 254.444 1694.36 250.482 1719.87 245.443C1750.01 239.489 1779.84 231.99 1809.48 223.939C1826.37 219.354 1843.2 214.572 1860 209.695C1872.55 206.054 1884.57 202.75 1897.72 202.573Z" fill="#10EB10"></path>
<path d="M1905.68 190.779C1925.36 189.294 1943.84 195.221 1962.05 201.93C1983.89 209.974 2005.33 216.716 2028.83 217.107V223.009C2005.09 222.421 1983.27 215.534 1961.14 207.589C1942.42 200.873 1923.38 194.746 1903.22 195.817C1890.09 196.514 1877.89 200.549 1865.36 204.24C1847.73 209.435 1830 214.333 1812.2 218.896C1780.41 227.037 1748.33 234.142 1715.97 239.579C1689.18 244.079 1662.14 247.508 1634.98 248.654C1616.44 249.436 1598.2 249.528 1579.72 251.66C1565.47 253.303 1551.11 255.181 1536.75 253.806C1528.93 253.056 1521.23 251.351 1513.79 248.811C1503.73 245.374 1494.65 239.913 1484.8 235.988C1420.42 210.313 1349.5 221.917 1282.22 222.996V223.009C1282.11 223.007 1282 223.004 1281.88 223.002C1281.77 223.004 1281.66 223.007 1281.54 223.009V222.996C1214.27 221.917 1143.34 210.313 1078.96 235.988C1069.12 239.913 1060.04 245.374 1049.98 248.811C1042.54 251.351 1034.84 253.056 1027.01 253.806C1012.65 255.181 998.294 253.303 984.043 251.66C965.568 249.528 947.327 249.436 928.784 248.654C901.628 247.508 874.583 244.079 847.796 239.579C815.434 234.142 783.358 227.037 751.571 218.896C733.764 214.333 716.04 209.435 698.407 204.24C685.88 200.549 673.674 196.514 660.542 195.817C640.39 194.746 621.345 200.873 602.631 207.589C580.494 215.534 558.673 222.421 534.941 223.009C511.21 222.421 489.39 215.534 467.253 207.589C448.539 200.873 429.493 194.746 409.341 195.817C396.209 196.514 384.003 200.549 371.477 204.24C353.843 209.435 336.12 214.333 318.312 218.896C286.526 227.037 254.449 234.142 222.087 239.579C195.3 244.079 168.256 247.508 141.1 248.654C122.557 249.436 104.315 249.528 85.8398 251.66C71.5893 253.303 57.2287 255.181 42.8711 253.806C35.0447 253.056 27.345 251.351 19.9072 248.811C9.84408 245.374 0.764836 239.913 -9.0791 235.988C-73.6765 210.227 -144.86 221.998 -212.34 223.009V217.107C-144.058 216.23 -70.8593 200.902 -5.73633 228.887C11.1122 236.127 25.9805 245.765 44.5752 248.119C57.6053 249.767 70.6508 248.021 83.5938 246.457C101.683 244.268 119.518 244.019 137.699 243.439C165.281 242.555 192.784 239.432 220.045 235.241C253.491 230.098 286.67 223.206 319.488 214.975C337.707 210.405 355.821 205.409 373.806 199.983C386.355 196.197 398.633 191.772 411.795 190.779C431.473 189.294 449.956 195.221 468.17 201.93C490.005 209.974 511.442 216.716 534.941 217.107C558.441 216.716 579.878 209.974 601.714 201.93C619.928 195.221 638.411 189.294 658.089 190.779C671.251 191.772 683.529 196.197 696.078 199.983C714.063 205.409 732.177 210.405 750.396 214.975C783.214 223.206 816.393 230.098 849.839 235.241C877.1 239.432 904.602 242.555 932.185 243.439C950.366 244.019 968.201 244.268 986.29 246.457C999.233 248.021 1012.28 249.767 1025.31 248.119C1043.9 245.765 1058.77 236.127 1075.62 228.887C1140.63 200.949 1213.7 216.178 1281.88 217.101C1350.07 216.178 1423.13 200.948 1488.15 228.887C1505 236.127 1519.86 245.765 1538.46 248.119C1551.49 249.767 1564.53 248.021 1577.48 246.457C1595.57 244.268 1613.4 244.019 1631.58 243.439C1659.16 242.555 1686.67 239.432 1713.93 235.241C1747.37 230.098 1780.55 223.206 1813.37 214.975C1831.59 210.405 1849.7 205.409 1867.69 199.983C1880.24 196.197 1892.52 191.772 1905.68 190.779Z" fill="#10EBEB"></path>
<path d="M1906.18 174.865C1925.84 173.231 1944.14 179.515 1962.18 186.523C1983.92 194.965 2005.23 201.759 2028.83 201.66V207.689C2005.31 207.512 1984.09 200.8 1962.38 192.45C1944.52 185.579 1926.46 179.667 1907.05 181.494C1893.84 182.74 1881.5 187.509 1868.91 191.404C1850.76 197.017 1832.46 202.111 1814.03 206.728C1780.49 215.133 1746.55 222.009 1712.34 227.033C1684.98 231.05 1657.36 234.023 1629.69 234.511C1611.54 234.83 1593.75 235.641 1575.72 237.885C1563.78 239.374 1551.78 240.859 1539.79 238.934C1521.6 236.013 1506.29 226.417 1489.97 218.579C1426.13 187.923 1352.39 207.445 1284.76 207.756H1279.01C1211.38 207.445 1137.64 187.923 1073.8 218.579C1057.48 226.417 1042.17 236.013 1023.98 238.934C1011.99 240.859 999.99 239.374 988.046 237.885C970.019 235.641 952.229 234.83 934.075 234.511C906.408 234.023 878.786 231.05 851.428 227.033C817.217 222.009 783.273 215.133 749.735 206.728C731.31 202.111 713.004 197.017 694.857 191.404C682.271 187.509 669.931 182.74 656.719 181.494C637.305 179.667 619.245 185.579 601.383 192.45C579.677 200.8 558.453 207.512 534.941 207.689C511.43 207.512 490.207 200.8 468.501 192.45C450.639 185.578 432.579 179.667 413.165 181.494C399.953 182.74 387.612 187.509 375.025 191.404C356.879 197.017 338.574 202.111 320.148 206.728C286.61 215.133 252.666 222.009 218.455 227.033C191.097 231.05 163.475 234.023 135.809 234.511C117.655 234.83 99.8638 235.641 81.8369 237.885C69.8931 239.374 57.892 240.859 45.9033 238.934C27.7145 236.013 12.4021 226.417 -3.91602 218.579C-68.7675 187.437 -143.839 208.077 -212.34 207.756V202.823C-143.812 204.934 -69.0709 181.019 -3.89062 211.835C12.4299 219.553 28.2198 228.096 46.1719 231.443C58.365 233.717 70.678 233.122 82.9658 232.093C101.035 230.581 118.922 229.334 137.059 229.192C164.75 228.978 192.4 225.359 219.663 220.742C253.405 215.026 286.822 207.445 319.966 198.96C338.155 194.303 356.269 189.347 374.313 184.152C386.833 180.546 399.225 175.953 412.298 174.865C431.959 173.231 450.257 179.515 468.299 186.523C489.7 194.833 510.679 201.547 533.837 201.66H536.046C559.204 201.547 580.183 194.833 601.584 186.523C619.626 179.515 637.925 173.231 657.586 174.865C670.658 175.953 683.051 180.546 695.57 184.152C713.615 189.347 731.728 194.303 749.917 198.96C783.061 207.445 816.477 215.026 850.22 220.742C877.483 225.359 905.132 228.978 932.824 229.192C950.961 229.334 968.849 230.581 986.918 232.093C999.206 233.122 1011.52 233.716 1023.71 231.443C1041.66 228.096 1057.45 219.553 1073.77 211.835C1138.74 181.121 1213.2 204.775 1281.54 202.841V202.823C1281.66 202.826 1281.77 202.828 1281.88 202.831C1282 202.828 1282.11 202.826 1282.22 202.823V202.841C1350.57 204.775 1425.03 181.121 1489.99 211.835C1506.31 219.553 1522.1 228.096 1540.06 231.443C1552.25 233.716 1564.56 233.122 1576.85 232.093C1594.92 230.581 1612.81 229.334 1630.94 229.192C1658.63 228.978 1686.28 225.359 1713.55 220.742C1747.29 215.026 1780.71 207.445 1813.85 198.96C1832.04 194.303 1850.15 189.347 1868.2 184.152C1880.72 180.546 1893.11 175.953 1906.18 174.865Z" fill="#EBEB10"></path>
<path d="M1900.39 150.349C1921.38 149.811 1940.83 157.713 1959.86 165.63C1982.18 174.92 2004.31 182.663 2028.83 182.327V189.27C2004.72 189.601 1982.96 182.286 1960.89 173.361C1942.27 165.83 1923.28 158.553 1902.83 159.546C1889.92 160.174 1877.5 164.3 1865.09 167.6C1847.54 172.267 1830.07 177.202 1812.6 182.162C1780.72 191.22 1748.87 200.499 1716.56 207.925C1690.08 214.009 1662.98 219.168 1635.73 219.414C1617.44 219.581 1599.12 220.849 1580.82 220.537C1548.24 219.982 1519.63 209.121 1490.07 196.292C1423.97 167.595 1350.32 198.736 1281.88 195.325C1213.45 198.735 1139.8 167.596 1073.69 196.292C1044.14 209.121 1015.53 219.982 982.949 220.537C964.643 220.849 946.325 219.581 928.034 219.414C900.786 219.168 873.682 214.009 847.211 207.925C814.901 200.499 783.044 191.22 751.165 182.162C733.699 177.202 716.225 172.267 698.679 167.6C686.266 164.3 673.849 160.174 660.934 159.546C640.483 158.553 621.494 165.83 602.872 173.361C580.81 182.286 559.049 189.601 534.941 189.27C510.834 189.601 489.074 182.286 467.012 173.361C448.39 165.83 429.401 158.553 408.95 159.546C396.035 160.174 383.617 164.3 371.205 167.6C353.659 172.267 336.184 177.202 318.718 182.162C286.839 191.22 254.983 200.499 222.673 207.925C196.202 214.009 169.097 219.168 141.849 219.414C123.558 219.581 105.239 220.849 86.9336 220.537C54.3547 219.982 25.7439 209.121 -3.80859 196.292C-70.0251 167.548 -143.807 198.84 -212.34 195.309V192.046C-175.982 193.909 -139.889 185.236 -104.007 180.723C-70.9272 176.561 -35.3465 174.215 -3.75391 186.974C26.5234 199.202 56.8334 211.686 89.7461 214.187C135.243 217.644 180.606 212.687 224.546 200.783C255.877 192.295 286.68 181.973 317.702 172.447C334.668 167.237 351.696 162.219 368.868 157.731C381.233 154.498 393.641 150.678 406.509 150.349C427.5 149.811 446.949 157.713 465.975 165.63C488.301 174.92 510.428 182.663 534.941 182.327C559.455 182.663 581.582 174.92 603.908 165.63C622.934 157.713 642.383 149.811 663.374 150.349C676.242 150.678 688.65 154.498 701.015 157.731C718.187 162.219 735.216 167.237 752.182 172.447C783.204 181.973 814.007 192.295 845.338 200.783C889.278 212.687 934.641 217.644 980.138 214.187C1013.05 211.686 1043.36 199.202 1073.64 186.974C1105.23 174.215 1140.81 176.562 1173.89 180.723C1209.55 185.208 1245.42 193.799 1281.54 192.078V192.046C1281.66 192.052 1281.77 192.056 1281.88 192.062C1282 192.056 1282.11 192.052 1282.22 192.046V192.078C1318.35 193.799 1354.22 185.208 1389.88 180.723C1422.96 176.562 1458.54 174.215 1490.13 186.974C1520.41 199.202 1550.72 211.686 1583.63 214.187C1629.13 217.644 1674.49 212.687 1718.43 200.783C1749.76 192.295 1780.56 181.973 1811.58 172.447C1828.55 167.237 1845.58 162.219 1862.75 157.731C1875.12 154.498 1887.52 150.678 1900.39 150.349Z" fill="#1010EB"></path>
<path d="M1853.77 124.573C1866.06 121.271 1878.35 118.63 1891.14 119.31C1914.09 120.533 1935.18 130.562 1955.75 139.949C1979.14 150.623 2002.71 160.049 2028.83 160.049V167.122C2003.25 167.271 1980.18 158.41 1957.14 148.202C1937.09 139.316 1916.55 129.965 1894.24 129.34C1881.43 128.981 1869.1 132.024 1856.79 135.269C1840.57 139.548 1824.64 144.887 1808.92 150.745C1779.94 161.543 1751.73 174.263 1722.81 185.211C1698.84 194.283 1673.79 202.638 1647.99 203.861C1628.89 204.765 1609.43 204.234 1590.64 200.471C1555.9 193.516 1523.81 176.623 1490.27 165.708C1457.97 155.198 1422.38 161.426 1390.01 168.285C1354.52 175.803 1318.51 187.427 1281.88 186.272C1245.25 187.427 1209.25 175.803 1173.76 168.285C1141.38 161.426 1105.8 155.198 1073.5 165.708C1039.96 176.623 1007.87 193.516 973.125 200.471C954.336 204.234 934.879 204.765 915.781 203.861C889.98 202.638 864.924 194.283 840.956 185.211C812.039 174.263 783.826 161.543 754.847 150.745C739.129 144.887 723.2 139.548 706.974 135.269C694.668 132.024 682.336 128.981 669.527 129.34C647.218 129.965 626.675 139.316 606.623 148.202C583.59 158.41 560.517 167.271 534.941 167.122C509.366 167.271 486.293 158.41 463.26 148.202C443.208 139.316 422.665 129.965 400.356 129.34C387.548 128.981 375.215 132.024 362.91 135.269C346.684 139.548 330.754 144.887 315.036 150.745C286.057 161.543 257.844 174.263 228.927 185.211C204.959 194.283 179.903 202.638 154.102 203.861C135.004 204.765 115.547 204.234 96.7578 200.471C62.0168 193.516 29.9257 176.623 -3.61719 165.708C-35.917 155.198 -71.4999 161.426 -103.877 168.285C-139.472 175.826 -175.591 187.501 -212.34 186.263H-212.335V183.972C-175.345 184.732 -139.226 171.537 -103.812 162.527C-71.7766 154.376 -36.231 146.24 -3.54492 155.564C32.0505 165.718 64.4155 185.041 100.272 194.148C119.189 198.952 139.061 200.399 158.521 199.159C183.804 197.548 208.073 188.039 231.047 177.985C258.751 165.862 285.668 152 313.664 140.527C328.752 134.343 344.131 128.807 359.889 124.573C372.181 121.271 384.464 118.63 397.258 119.31C420.209 120.533 441.298 130.562 461.865 139.949C485.257 150.623 508.828 160.048 534.941 160.049C561.056 160.048 584.627 150.623 608.019 139.949C628.586 130.562 649.675 120.533 672.626 119.31C685.419 118.63 697.702 121.271 709.995 124.573C725.753 128.807 741.132 134.343 756.22 140.527C784.215 152 811.132 165.862 838.836 177.985C861.81 188.039 886.079 197.547 911.362 199.159C930.821 200.399 950.694 198.952 969.61 194.148C1005.47 185.041 1037.83 165.718 1073.43 155.564C1106.11 146.24 1141.66 154.376 1173.7 162.527C1208.89 171.483 1244.79 184.57 1281.55 183.982V183.972C1281.66 183.975 1281.77 183.975 1281.88 183.977C1281.99 183.975 1282.11 183.975 1282.22 183.972V183.982C1318.98 184.57 1354.87 171.483 1390.07 162.527C1422.11 154.376 1457.65 146.24 1490.34 155.564C1525.93 165.718 1558.3 185.041 1594.16 194.148C1613.07 198.952 1632.95 200.399 1652.4 199.159C1677.69 197.547 1701.96 188.039 1724.93 177.985C1752.63 165.862 1779.55 152 1807.55 140.527C1822.63 134.343 1838.01 128.807 1853.77 124.573Z" fill="#EB1010"></path>
<path d="M1802.73 106.262C1826.38 92.8861 1852.75 81.767 1880.39 85.4478C1933.26 92.4858 1974.27 135.249 2028.83 136.489V143.066C1975.52 142.197 1935.24 100.711 1883.41 94.9234C1855.62 91.8229 1828.29 103.322 1804.09 115.838C1778.43 129.103 1754.77 145.719 1730.1 160.654C1709.68 173.016 1687.52 185.347 1663.4 188.074C1643.07 190.372 1621.9 186.068 1602.87 179.023C1564.72 164.9 1531.14 138.391 1490.5 130.9C1456.8 124.686 1421.47 137.493 1390.21 148.732C1355.54 161.199 1319.66 178.096 1282.22 178.929V178.945C1282.11 178.943 1282 178.939 1281.88 178.937C1281.77 178.939 1281.66 178.943 1281.55 178.945V178.929C1244.1 178.096 1208.23 161.199 1173.55 148.732C1142.29 137.493 1106.96 124.686 1073.26 130.9C1032.63 138.391 999.044 164.9 960.893 179.023C941.862 186.068 920.698 190.372 900.367 188.074C876.243 185.347 854.086 173.016 833.665 160.654C808.997 145.719 785.333 129.103 759.679 115.838C735.474 103.322 708.142 91.8229 680.355 94.9234C628.526 100.711 588.248 142.197 534.941 143.066C481.636 142.197 441.357 100.711 389.528 94.9234C361.742 91.8228 334.409 103.321 310.204 115.838C284.55 129.103 260.886 145.719 236.218 160.654C215.797 173.016 193.64 185.347 169.516 188.074C149.185 190.372 128.022 186.068 108.991 179.023C70.8401 164.9 37.2522 138.391 -3.37988 130.9C-37.0798 124.686 -72.4121 137.493 -103.671 148.732C-138.551 161.274 -174.651 178.302 -212.338 178.945V177.056C-174.344 175.831 -138.249 157.271 -103.61 143.397C-72.6233 130.985 -37.4216 116.384 -3.31348 121.32C39.02 127.446 73.7191 157.299 112.403 173.178C131.402 180.976 153.177 186.574 173.822 183.807C197.551 180.627 218.849 167.164 238.236 153.947C261.706 137.951 284.079 120.276 308.852 106.262C332.493 92.8861 358.862 81.767 386.507 85.4478C439.382 92.4859 480.383 135.248 534.941 136.489C589.5 135.249 630.502 92.4858 683.377 85.4478C711.021 81.767 737.391 92.8861 761.032 106.262C785.805 120.276 808.178 137.951 831.647 153.947C851.034 167.164 872.332 180.627 896.061 183.807C916.705 186.574 938.481 180.976 957.479 173.178C996.164 157.299 1030.86 127.446 1073.2 121.32C1107.3 116.384 1142.51 130.985 1173.49 143.397C1208.03 157.23 1244.01 175.719 1281.88 177.043C1319.75 175.719 1355.74 157.23 1390.27 143.397C1421.26 130.985 1456.46 116.384 1490.57 121.32C1532.9 127.446 1567.6 157.299 1606.29 173.178C1625.29 180.976 1647.06 186.574 1667.71 183.807C1691.43 180.627 1712.73 167.164 1732.12 153.947C1755.59 137.951 1777.96 120.276 1802.73 106.262ZM-212.338 178.951L-212.34 178.946L-212.338 178.945V178.951ZM1281.55 178.951L1281.54 178.946L1281.55 178.945V178.951ZM1282.22 178.946L1282.22 178.951V178.945L1282.22 178.946Z" fill="#EB10EB"></path>
<path d="M1833.98 53.1193C1846.04 49.334 1858.41 50.064 1870.68 52.6017C1926.58 64.1674 1970.33 110.907 2028.83 113.338V118.949C1971.07 116.758 1927.96 70.6967 1872.51 60.3713C1860.01 58.0427 1847.75 57.896 1835.56 61.7736C1822.45 65.9476 1810.37 72.8442 1799.22 80.8185C1776.68 96.9366 1757.74 117.35 1737.43 136.041C1720.8 151.337 1701.81 167.919 1678.92 172.282C1657.56 176.354 1633.94 167.014 1615.18 157.533C1594.6 147.128 1575.74 133.74 1556.05 121.823C1536.69 110.103 1513.92 96.9166 1490.74 95.9553C1455.55 94.496 1420.8 113.714 1390.42 129.135C1356.69 146.253 1320.82 168.745 1282.23 171.636V171.69H1282.22C1282.11 171.682 1282 171.671 1281.88 171.663C1281.77 171.671 1281.66 171.682 1281.54 171.69H1281.54V171.636C1242.94 168.745 1207.07 146.253 1173.35 129.135C1142.96 113.714 1108.21 94.496 1073.03 95.9553C1049.84 96.9166 1027.08 110.103 1007.72 121.823C988.024 133.74 969.162 147.128 948.582 157.533C929.83 167.014 906.206 176.354 884.849 172.282C861.954 167.919 842.963 151.337 826.339 136.041C806.025 117.35 787.082 96.9366 764.549 80.8185C753.399 72.8442 741.316 65.9476 728.204 61.7736C716.018 57.896 703.755 58.0427 691.258 60.3713C635.81 70.6967 592.694 116.758 534.941 118.949C477.189 116.758 434.073 70.6966 378.625 60.3713C366.128 58.0428 353.865 57.896 341.68 61.7736C328.567 65.9476 316.483 72.8441 305.334 80.8185C282.801 96.9366 263.857 117.351 243.544 136.041C226.919 151.337 207.928 167.919 185.034 172.282C163.677 176.354 140.052 167.014 121.301 157.533C100.721 147.128 81.8592 133.74 62.166 121.823C42.8015 110.103 20.042 96.9166 -3.14355 95.9553C-38.3306 94.4959 -73.0819 113.714 -103.464 129.135C-137.388 146.354 -173.484 169.015 -212.34 171.69H-212.343V169.764C-193.397 168.29 -175.566 161.334 -158.483 153.367C-139.184 144.369 -120.639 133.847 -101.909 123.746C-72.2844 107.77 -38.4925 87.9305 -3.75391 87.9728C20.2289 88.0027 44.0624 102.333 63.7607 114.636C83.9423 127.24 103.18 141.426 124.226 152.608C142.798 162.477 166.938 172.962 188.417 168.524C211.02 163.854 229.259 146.357 244.959 130.555C264.617 110.766 282.739 89.1216 305.043 72.1642C315.657 64.0952 327.309 57.1314 340.093 53.1193C352.156 49.3338 364.532 50.064 376.8 52.6017C432.699 64.1675 476.444 110.907 534.941 113.338C593.439 110.907 637.185 64.1674 693.084 52.6017C705.352 50.064 717.727 49.334 729.79 53.1193C742.574 57.1314 754.227 64.0952 764.841 72.1642C787.144 89.1216 805.266 110.766 824.925 130.555C840.625 146.357 858.863 163.854 881.466 168.524C902.945 172.962 927.085 162.477 945.657 152.608C966.703 141.426 985.941 127.24 1006.12 114.636C1025.82 102.333 1049.65 88.0029 1073.64 87.9728C1108.38 87.9305 1142.17 107.77 1171.79 123.746C1190.52 133.847 1209.07 144.369 1228.37 153.367C1245.35 161.286 1263.06 168.204 1281.88 169.736C1300.7 168.205 1318.42 161.286 1335.4 153.367C1354.7 144.369 1373.24 133.847 1391.97 123.746C1421.6 107.77 1455.39 87.9305 1490.13 87.9728C1514.11 88.0029 1537.95 102.333 1557.64 114.636C1577.83 127.24 1597.06 141.426 1618.11 152.608C1636.68 162.477 1660.82 172.962 1682.3 168.524C1704.9 163.854 1723.14 146.357 1738.84 130.555C1758.5 110.766 1776.62 89.1216 1798.93 72.1642C1809.54 64.0952 1821.19 57.1314 1833.98 53.1193Z" fill="#10EB10"></path>
<path d="M1826.38 22.7708C1838.25 19.1522 1851.09 21.261 1862.88 24.2893C1920.88 39.1871 1967.33 89.4948 2028.83 92.2766V96.6047C1967.85 93.7806 1921.95 44.1709 1864.27 29.8831C1852.37 26.9344 1839.63 25.0741 1827.72 28.7874C1815.72 32.528 1805.24 39.9597 1796.09 48.4221C1775.59 67.3968 1760.55 91.4499 1743.57 113.423C1730.17 130.771 1713.86 151.255 1691.46 156.729C1669.35 162.133 1643.78 148.483 1625.47 137.455C1602.95 123.887 1582.51 107.237 1560.7 92.6204C1540.8 79.2915 1515.33 62.9417 1490.27 64.9963C1474.16 66.3188 1458.66 72.634 1444.28 79.6643C1426.22 88.4954 1409.11 99.1802 1392.12 109.879C1373.45 121.629 1354.93 133.715 1335.45 144.095C1318.79 152.974 1301.19 160.899 1282.22 162.753V162.819C1282.11 162.808 1282 162.796 1281.88 162.785C1281.77 162.796 1281.66 162.808 1281.54 162.819V162.753C1262.57 160.899 1244.97 152.974 1228.31 144.095C1208.84 133.715 1190.31 121.629 1171.65 109.879C1154.65 99.1802 1137.54 88.4954 1119.48 79.6643C1105.1 72.634 1089.6 66.3188 1073.49 64.9963C1048.43 62.9417 1022.96 79.2915 1003.07 92.6204C981.258 107.237 960.813 123.887 938.295 137.455C919.989 148.483 894.419 162.133 872.305 156.729C849.911 151.255 833.596 130.771 820.194 113.423C803.221 91.4499 788.175 67.3968 767.675 48.4221C758.531 39.9597 748.052 32.528 736.048 28.7874C724.136 25.0741 711.397 26.9344 699.495 29.8831C641.82 44.1709 595.917 93.7806 534.941 96.6047C473.966 93.7805 428.063 44.1707 370.388 29.8831C358.486 26.9344 345.748 25.0742 333.836 28.7874C321.832 32.528 311.352 39.9596 302.208 48.4221C281.708 67.3968 266.663 91.4499 249.689 113.423C236.288 130.771 219.972 151.255 197.579 156.729C175.465 162.133 149.895 148.483 131.589 137.455C109.071 123.887 88.6247 107.237 66.8115 92.6204C46.9189 79.2915 21.4494 62.9417 -3.60938 64.9963C-19.7182 66.3188 -35.2195 72.6338 -49.5996 79.6643C-67.6614 88.4954 -84.7719 99.1802 -101.768 109.879C-120.432 121.629 -138.952 133.715 -158.429 144.095C-175.29 153.08 -193.11 161.09 -212.34 162.819V160.572C-193.048 158.885 -175.22 150.672 -158.416 141.488C-138.89 130.814 -120.377 118.379 -101.732 106.263C-84.7293 95.2154 -67.6319 84.1546 -49.5527 74.9251C-35.2199 67.6081 -19.7479 60.9416 -3.57422 59.3303C21.7536 56.8052 47.4749 73.4263 67.4521 87.0042C89.6513 102.094 110.366 119.337 133.218 133.473C151.501 144.784 177.257 159.035 199.576 153.479C222.02 147.893 237.927 126.664 250.825 108.967C267.196 86.5033 281.516 61.873 301.628 42.4202C310.433 33.9029 320.654 26.3819 332.501 22.7708C344.37 19.1523 357.204 21.261 368.998 24.2893C426.997 39.1872 473.448 89.4947 534.941 92.2766C596.435 89.4948 642.887 39.1871 700.886 24.2893C712.68 21.261 725.514 19.1522 737.383 22.7708C749.23 26.3819 759.45 33.9029 768.256 42.4202C788.368 61.873 802.688 86.5033 819.059 108.967C831.957 126.664 847.863 147.893 870.307 153.479C892.625 159.035 918.382 144.784 936.665 133.473C959.517 119.337 980.232 102.094 1002.43 87.0042C1022.41 73.4263 1048.13 56.805 1073.46 59.3303C1089.63 60.9417 1105.1 67.6082 1119.44 74.9251C1137.51 84.1546 1154.61 95.2153 1171.62 106.263C1190.26 118.379 1208.77 130.814 1228.3 141.488C1245 150.618 1262.72 158.787 1281.88 160.539C1301.04 158.787 1318.76 150.618 1335.47 141.488C1354.99 130.814 1373.51 118.379 1392.15 106.263C1409.15 95.2153 1426.25 84.1546 1444.33 74.9251C1458.66 67.6082 1474.14 60.9417 1490.31 59.3303C1515.64 56.805 1541.36 73.4263 1561.33 87.0042C1583.53 102.094 1604.25 119.337 1627.1 133.473C1645.39 144.784 1671.14 159.035 1693.46 153.479C1715.9 147.893 1731.81 126.664 1744.71 108.967C1761.08 86.5033 1775.4 61.873 1795.51 42.4202C1804.32 33.9029 1814.54 26.3819 1826.38 22.7708Z" fill="#10EBEB"></path>
<path d="M1823.35 1.06175C1835.11 -1.54077 1848.11 1.06699 1859.48 4.2971C1888.93 12.66 1915.48 29.3552 1942.09 43.9866C1968.85 58.705 1997.56 74.3007 2028.83 74.9856V77.8723C1997.53 76.9633 1968.88 61.4524 1942.07 46.6965C1915.55 32.1075 1889.07 15.5011 1859.69 7.25022C1848.25 4.03759 1835.25 1.43292 1823.48 4.30686C1811.96 7.11862 1802.34 14.7193 1794.4 23.2414C1775.15 43.9171 1762.84 70.2685 1747.99 94.0373C1736.27 112.795 1721.15 136.203 1698.04 141.595C1674.74 147.029 1649.53 132.235 1630.98 119.893C1607.27 104.121 1585.91 85.1513 1562.64 68.7766C1542.1 54.3271 1516.7 38.4362 1490.39 42.0373C1474.07 44.2737 1458.66 51.8314 1444.48 59.8606C1426.36 70.1162 1409.29 82.1532 1392.26 94.0998C1373.7 107.125 1355.21 120.418 1335.5 131.693C1319.06 141.099 1301.39 149.517 1282.23 150.624V150.655L1282.22 150.662C1282.11 150.657 1282 150.649 1281.88 150.643C1281.77 150.649 1281.66 150.657 1281.54 150.662L1281.54 150.655V150.624C1262.37 149.517 1244.7 141.099 1228.26 131.693C1208.56 120.418 1190.07 107.125 1171.5 94.0998C1154.48 82.1532 1137.41 70.1162 1119.29 59.8606C1105.11 51.8314 1089.7 44.2737 1073.37 42.0373C1047.07 38.4362 1021.67 54.3271 1001.13 68.7766C977.856 85.1513 956.493 104.121 932.784 119.893C914.232 132.235 889.023 147.029 865.73 141.595C842.62 136.203 827.5 112.795 815.78 94.0373C800.929 70.2685 788.621 43.9171 769.366 23.2414C761.43 14.7193 751.808 7.11862 740.29 4.30686C728.52 1.43292 715.513 4.03759 704.074 7.25022C674.701 15.5011 648.215 32.1075 621.701 46.6965C594.886 61.4524 566.233 76.9633 534.941 77.8723C503.65 76.9632 474.997 61.4523 448.183 46.6965C421.669 32.1075 395.183 15.5011 365.81 7.25022C354.371 4.03756 341.363 1.43294 329.594 4.30686C318.076 7.11857 308.453 14.7191 300.517 23.2414C281.262 43.917 268.954 70.2686 254.104 94.0373C242.384 112.795 227.263 136.203 204.152 141.595C180.86 147.029 155.651 132.235 137.099 119.893C113.39 104.121 92.0272 85.1512 68.752 68.7766C48.2117 54.3271 22.8114 38.4362 -3.49023 42.0373C-19.8182 44.2738 -35.2224 51.8315 -49.4082 59.8606C-67.5272 70.1162 -84.5946 82.1532 -101.62 94.0998C-120.183 107.125 -138.673 120.418 -158.379 131.693C-175.016 141.211 -192.908 149.718 -212.34 150.662L-212.343 150.655V147.95C-192.911 147.333 -174.991 138.885 -158.377 129.392C-138.631 118.11 -120.145 104.732 -101.603 91.6145C-84.5697 79.5683 -67.5121 67.4099 -49.3857 57.0373C-35.2274 48.936 -19.8282 41.2752 -3.48535 39.0188C23.0357 35.3578 48.023 50.5989 68.7676 65.2502C92.1972 81.7966 113.617 101.045 137.425 117.069C156.132 129.66 180.899 144.12 204.461 138.893C227.838 133.708 242.984 109.974 254.614 91.009C269.296 67.0709 281.315 40.4233 300.537 19.6282C308.379 11.1457 317.961 3.60947 329.467 1.06175C341.224 -1.54068 354.227 1.06701 365.601 4.2971C395.043 12.66 421.597 29.3553 448.202 43.9866C474.967 58.705 503.678 74.3006 534.941 74.9856C566.205 74.3007 594.916 58.705 621.681 43.9866C648.286 29.3552 674.84 12.66 704.283 4.2971C715.657 1.06699 728.66 -1.54077 740.417 1.06175C751.923 3.60952 761.505 11.1458 769.347 19.6282C788.569 40.4233 800.588 67.0709 815.27 91.009C826.9 109.974 842.045 133.708 865.422 138.893C888.984 144.12 913.751 129.66 932.458 117.069C956.266 101.045 977.686 81.7967 1001.12 65.2502C1021.86 50.599 1046.85 35.3578 1073.37 39.0188C1089.71 41.2751 1105.11 48.9359 1119.27 57.0373C1137.4 67.41 1154.45 79.5682 1171.49 91.6145C1190.03 104.732 1208.51 118.11 1228.26 129.392C1244.78 138.829 1262.58 147.231 1281.88 147.937C1301.18 147.232 1318.99 138.83 1335.51 129.392C1355.25 118.11 1373.74 104.732 1392.28 91.6145C1409.31 79.5682 1426.37 67.41 1444.5 57.0373C1458.66 48.9359 1474.06 41.2751 1490.4 39.0188C1516.92 35.3578 1541.91 50.599 1562.65 65.2502C1586.08 81.7967 1607.5 101.045 1631.31 117.069C1650.02 129.66 1674.78 144.12 1698.34 138.893C1721.72 133.708 1736.87 109.974 1748.5 91.009C1763.18 67.0709 1775.2 40.4233 1794.42 19.6282C1802.26 11.1458 1811.84 3.60952 1823.35 1.06175Z" fill="#EBEB10"></path>
</svg>