<svg width="393" height="357" viewBox="0 0 393 357" fill="none" xmlns="http://www.w3.org/2000/svg">
<g clip-path="url(#clip0_171_454)">
<path d="M561.342 316.511C548.106 316.756 535.098 318.597 522.768 323.581C513.982 327.132 505.931 332.086 497.924 337.1C480.488 348.022 462.991 355.843 442.149 357.088C408.895 359.074 374.536 353.344 341.635 349.274C300.025 344.127 258.516 338.182 216.889 333.17C185.954 329.444 155.329 327.302 124.236 326.075C111.135 325.559 98.3651 323.333 86.3311 318.023C76.7866 313.813 67.8005 308.767 57.6073 306.172C38.13 301.211 17.0499 302.483 -2.8206 303.35C-65.3047 306.072 -127.366 317.087 -190.002 316.508V307.89C-126.559 307.595 -64.065 293.412 -0.899673 289.097C18.803 287.752 40.6395 285.786 59.671 292.42C69.2607 295.763 76.476 302.213 84.7984 307.707C95.768 314.948 108.463 317.487 121.439 318.161C134.517 318.837 147.566 318.822 160.641 319.849C178.661 321.264 196.636 323.235 214.588 325.319C257.181 330.265 299.672 336.04 342.251 341.104C361.63 343.409 381.032 345.61 400.482 347.25C414.577 348.44 428.903 349.705 443.058 348.928C463.896 347.786 481.156 339.947 498.35 328.695C506.171 323.576 514.043 318.524 522.708 314.93C535.025 309.824 548.081 308.058 561.34 307.888V316.506L561.342 316.511Z" fill="#10EBEB"></path>
<path d="M561.342 301.138C537.565 301.592 517.96 308.83 497.826 320.896C480.185 331.47 462.551 339.564 441.806 341.563C427.593 342.93 413.07 341.721 398.874 340.659C379.635 339.216 360.446 337.128 341.284 334.891C299.489 330.012 257.805 324.242 216.025 319.238C198.183 317.102 180.322 315.071 162.415 313.565C149.246 312.459 135.975 312.539 122.839 311.289C109.525 310.024 97.0052 306.385 86.0606 298.559C77.1122 292.16 69.2256 284.762 58.9773 280.361C39.4449 271.974 18.3823 273.006 -2.30219 275.017C-65.1845 281.13 -126.772 298.273 -190.002 301.141V292.971C-127.756 287.96 -67.9194 267.774 -6.00879 260.373C6.46599 258.883 18.9583 257.272 31.3554 259.827C40.1912 261.648 48.8792 264.287 57.0488 268.144C68.622 273.607 78.2016 281.801 88.6728 288.977C100.396 297.011 113.329 301.727 127.415 303.618C140.465 305.368 153.834 305.186 166.963 306.34C184.376 307.87 201.745 309.904 219.093 312.035C259.062 316.949 298.948 322.562 338.972 327.035C357.48 329.103 376.026 330.967 394.619 332.059C408.74 332.887 423.25 333.814 437.303 331.773C458.296 328.723 476.919 320.485 495.645 310.938C516.712 300.197 537.484 293.525 561.345 292.971V301.141L561.342 301.138Z" fill="#EBEB10"></path>
<path d="M561.342 285.763C536.999 286.317 514.819 292.31 492.557 301.819C472.518 310.377 452.668 318.562 431.114 322.504C417.375 325.016 403.147 324.54 389.247 323.976C371.51 323.255 353.811 321.662 336.162 319.806C298.25 315.819 260.497 310.467 222.667 305.766C206.022 303.698 189.358 301.724 172.648 300.239C159.672 299.087 146.406 299.33 133.538 297.366C118.481 295.067 104.616 289.728 91.6781 281.753C79.3536 274.157 67.7754 265.524 54.6219 259.331C45.686 255.123 36.3167 251.92 26.7421 249.516C14.2673 246.383 1.93282 247.938 -10.7123 249.566C-71.298 257.365 -129.126 279.722 -190 285.768V278.044C-131.005 271.608 -75.6908 247.415 -16.9108 239.836C-4.04036 238.176 8.0237 237.013 20.6212 240.527C31.15 243.465 41.4609 247.149 51.4412 251.61C66.6709 258.417 80.7611 267.283 95.4724 275.079C110.083 282.823 125.411 288.513 141.793 291.093C154.393 293.076 167.378 292.808 180.094 293.925C195.832 295.305 211.525 297.168 227.2 299.119C262.29 303.487 297.318 308.461 332.523 311.822C361.811 314.617 393.632 318.369 422.689 312.062C445.172 307.184 466.603 299.23 488.309 291.784C512.134 283.612 536.077 278.528 561.339 278.044V285.768L561.342 285.763Z" fill="#1010EB"></path>
<path d="M561.342 270.388C534.827 270.741 509.001 274.766 483.423 281.638C459.891 287.962 436.717 295.52 413.042 301.336C385.651 308.063 356.316 306.024 328.468 303.723C296.268 301.06 264.261 296.535 232.207 292.573C217.651 290.772 203.075 289.059 188.458 287.819C176.076 286.77 163.486 287.035 151.204 285.189C133.262 282.492 116.167 276.737 99.6523 269.331C82.2988 261.547 65.4712 252.656 47.8798 245.393C36.7099 240.783 25.312 236.745 13.7138 233.352C1.0061 229.633 -10.81 230.181 -23.8784 231.752C-80.5771 238.571 -133.161 264.134 -189.998 270.388V263.11C-135.393 257.417 -85.4959 230.908 -30.9585 225.202C-25.2683 224.606 -19.5531 224.263 -13.8304 224.233C-6.53989 224.196 -0.286209 225.718 6.68375 227.787C19.3689 231.551 31.8938 235.839 44.2709 240.52C64.3017 248.096 83.8491 256.874 103.87 264.477C122.32 271.485 141.252 277.098 160.844 279.772C172.785 281.403 184.945 281.137 196.966 282.106C210.428 283.193 223.849 284.746 237.253 286.382C266.242 289.918 295.204 293.975 324.359 295.929C350.786 297.699 377.403 297.86 403.137 290.932C455.435 276.852 506.797 263.481 561.344 263.11V270.388H561.342Z" fill="#EB1010"></path>
<path d="M561.342 255.015C503.519 254.978 447.318 263.015 391.832 279.279C342.887 293.624 292.67 285.435 242.973 279.504C230.884 278.062 218.78 276.699 206.636 275.788C195.04 274.916 183.374 275.202 171.831 273.852C150.318 271.34 129.29 266.053 108.663 259.549C85.6398 252.286 63.0345 243.763 40.1937 235.949C26.4541 231.248 12.642 226.762 -1.28543 222.643C-14.0632 218.863 -25.7041 217.804 -38.9853 218.861C-91.0182 223.001 -137.962 250.242 -190 255.015V248.186C-140.101 244.309 -95.5037 216.662 -45.577 213.997C-17.1663 212.479 10.15 224.093 36.8577 232.515C62.0427 240.457 87.1575 248.699 112.656 255.597C135.046 261.652 157.791 266.566 180.9 268.85C192.11 269.957 203.39 269.654 214.635 270.433C225.692 271.199 236.712 272.412 247.717 273.696C270.347 276.336 293.005 279.419 315.813 279.905C326.998 280.143 338.226 279.747 349.308 278.162C360.801 276.519 371.478 272.96 382.51 269.509C440.666 251.316 500.784 247.803 561.339 248.186V255.015H561.342Z" fill="#EB10EB"></path>
<path d="M561.342 239.64C497.628 238.882 432.935 236.783 371.728 257.535C361.255 261.086 351.302 265.509 340.425 267.806C330.845 269.827 321.063 270.723 311.28 270.869C291.866 271.157 272.554 268.587 253.307 266.393C232.65 264.039 212.086 264.026 191.424 262.446C166.482 260.538 141.788 256.147 117.402 250.665C89.0134 244.284 60.9758 236.437 33.0208 228.398C16.8795 223.755 0.765732 219.024 -15.3631 214.34C-28.0257 210.661 -39.9545 207.949 -53.2032 208.159C-75.4053 208.515 -96.6107 215.43 -117.425 222.525C-141.158 230.614 -164.787 238.188 -190 239.643V233.259C-165.459 232.207 -142.63 224.927 -119.617 216.922C-99.7363 210.007 -79.4751 203.426 -58.1796 203.714C-44.9659 203.892 -32.8744 207.215 -20.2593 210.876C-3.36414 215.78 13.5561 220.589 30.5339 225.2C60.3421 233.297 90.3282 240.838 120.637 246.826C146.278 251.892 172.202 255.877 198.309 257.472C217.976 258.674 237.441 258.679 257.076 260.898C274.056 262.817 291.129 265.056 308.255 264.257C317.128 263.844 325.957 262.586 334.544 260.3C345.033 257.507 354.55 252.556 364.711 248.884C427.816 226.091 495.612 232.305 561.342 233.256V239.64Z" fill="#10EB10"></path>
<path d="M561.342 224.265C493.496 223.249 421.925 211.41 356.977 237.316C347.079 241.263 337.95 246.756 327.832 250.212C320.354 252.766 312.613 254.482 304.744 255.236C290.308 256.618 275.87 254.73 261.542 253.077C242.966 250.933 224.626 250.84 205.982 250.054C178.678 248.902 151.487 245.453 124.554 240.928C92.0162 235.46 59.7661 228.315 27.8065 220.128C9.90205 215.54 -7.91728 210.614 -25.6464 205.389C-38.2414 201.678 -50.5134 197.62 -63.7169 196.919C-83.9781 195.842 -103.127 202.003 -121.943 208.758C-144.201 216.747 -166.14 223.674 -190 224.265V218.33C-166.373 217.937 -144.819 211.157 -122.865 203.068C-104.552 196.32 -85.9692 190.36 -66.1838 191.852C-52.9502 192.852 -40.6057 197.302 -27.9881 201.109C-9.90582 206.566 8.3067 211.59 26.6244 216.186C59.6209 224.463 92.9804 231.393 126.608 236.565C154.017 240.78 181.669 243.92 209.401 244.81C227.681 245.393 245.613 245.644 263.801 247.845C276.814 249.418 289.93 251.173 303.031 249.515C321.727 247.149 336.676 237.456 353.616 230.176C419.093 202.033 492.689 217.448 561.342 218.33V224.265Z" fill="#10EBEB"></path>
<path d="M561.342 208.926C492.469 209.249 416.989 188.492 351.785 219.81C335.378 227.692 319.983 237.342 301.696 240.279C289.642 242.215 277.575 240.723 265.566 239.225C247.441 236.968 229.554 236.152 211.302 235.831C183.485 235.341 155.712 232.35 128.206 228.31C93.8094 223.259 59.681 216.344 25.9607 207.891C7.43515 203.248 -10.9702 198.127 -29.2153 192.481C-41.8704 188.564 -54.2776 183.768 -67.5613 182.516C-87.0812 180.678 -105.239 186.623 -123.198 193.533C-145.022 201.931 -166.36 208.68 -190 208.858V202.795C-166.275 202.895 -144.854 196.063 -122.995 187.573C-104.855 180.525 -86.4576 174.206 -66.6898 175.849C-53.5463 176.944 -41.0865 181.562 -28.499 185.188C-10.3566 190.413 7.85591 195.397 26.1436 200.08C59.4681 208.613 93.0656 216.236 126.991 221.984C154.403 226.627 182.202 230.266 210.045 230.482C228.28 230.625 246.264 231.879 264.432 233.4C276.786 234.434 289.166 235.032 301.425 232.746C319.475 229.38 335.351 220.79 351.76 213.028C417.295 182.038 492.441 206.088 561.342 203.964V208.931V208.926Z" fill="#EBEB10"></path>
<path d="M561.342 196.409C492.436 199.96 418.254 168.491 351.678 197.398C321.964 210.299 293.198 221.221 260.442 221.779C242.037 222.092 223.619 220.817 205.228 220.65C177.832 220.402 150.581 215.215 123.966 209.097C91.4803 201.628 59.4505 192.296 27.3983 183.188C9.83693 178.199 -7.73193 173.237 -25.3734 168.544C-37.8532 165.226 -50.338 161.076 -63.3237 160.445C-83.8855 159.445 -102.977 166.763 -121.701 174.337C-143.883 183.313 -165.762 190.669 -190 190.335V183.353C-165.353 183.691 -143.106 175.905 -120.659 166.563C-101.529 158.601 -81.9746 150.655 -60.8694 151.196C-47.9313 151.526 -35.4565 155.368 -23.0242 158.619C-5.75841 163.132 11.3622 168.178 28.4201 173.418C59.6108 182.997 90.5811 193.378 122.082 201.914C166.261 213.885 211.87 218.869 257.615 215.393C290.706 212.878 321.181 200.323 351.622 188.026C383.387 175.196 419.161 177.555 452.42 181.74C488.497 186.278 524.787 195.001 561.342 193.128V196.406V196.409Z" fill="#1010EB"></path>
<path d="M561.342 187.312C524.394 188.557 488.079 176.816 452.29 169.233C419.737 162.335 383.96 156.072 351.485 166.64C317.76 177.618 285.494 194.605 250.564 201.6C231.673 205.385 212.111 205.918 192.909 205.009C166.968 203.779 141.775 195.377 117.677 186.253C88.6027 175.243 60.237 162.453 31.1 151.594C15.2968 145.703 -0.719345 140.333 -17.0335 136.031C-29.4056 132.767 -41.8052 129.707 -54.6832 130.068C-77.1133 130.696 -97.7677 140.101 -117.929 149.037C-141.088 159.302 -164.287 168.213 -190.002 168.063V160.95C-163.746 160.95 -140.046 151.471 -116.526 140.737C-95.8468 131.297 -74.6439 121.212 -51.5677 119.982C-38.7047 119.298 -26.3551 121.953 -13.9956 125.274C1.84773 129.532 17.3103 135.099 32.4799 141.318C60.6277 152.856 87.6911 166.796 115.546 178.987C138.645 189.098 163.046 198.66 188.466 200.281C208.031 201.528 228.012 200.073 247.031 195.242C283.083 186.083 315.623 166.65 351.412 156.44C384.276 147.063 420.015 155.245 452.225 163.442C487.831 172.503 524.146 185.772 561.337 185.008V187.312H561.342Z" fill="#EB1010"></path>
<path d="M561.342 179.954C523.449 179.308 487.152 162.182 452.082 149.569C420.653 138.267 385.13 125.389 351.247 131.637C310.394 139.171 276.623 165.828 238.265 180.031C219.131 187.117 197.853 191.444 177.411 189.133C153.155 186.39 130.878 173.991 110.346 161.558C85.5446 146.539 61.7522 129.829 35.9586 116.49C11.6226 103.903 -15.8589 92.3397 -43.7964 95.4578C-95.9069 101.278 -136.404 142.998 -190 143.872V137.257C-135.145 136.01 -93.9209 93.0059 -40.7584 85.9283C-12.9638 82.2266 13.5486 93.4091 37.3185 106.861C62.2255 120.953 84.7207 138.728 108.318 154.814C127.81 168.105 149.223 181.644 173.081 184.842C193.838 187.625 215.732 181.995 234.834 174.153C273.728 158.185 308.616 128.164 351.179 122.003C385.473 117.039 420.866 131.723 452.022 144.205C486.849 158.157 523.139 176.821 561.339 178.053V179.959L561.342 179.954Z" fill="#EB10EB"></path>
<path d="M561.342 172.656C522.275 169.966 485.982 147.178 451.874 129.862C421.327 114.355 386.387 95.0275 351.009 96.4951C327.697 97.4618 304.814 110.723 285.344 122.509C265.544 134.493 246.58 147.957 225.888 158.421C207.034 167.955 183.282 177.347 161.808 173.252C138.79 168.864 119.696 152.19 102.981 136.807C82.5568 118.011 63.5103 97.4819 40.8548 81.2729C29.6448 73.2536 17.4956 66.3187 4.31206 62.1212C-7.93982 58.2217 -20.2693 58.3695 -32.8343 60.7112C-88.5839 71.0947 -131.934 117.415 -190 119.619V113.976C-131.185 111.532 -87.2014 64.528 -30.9985 52.8972C-18.664 50.3452 -6.22176 49.6114 5.90741 53.4182C18.7604 57.4529 30.4763 64.4554 41.1479 72.5699C63.5729 89.6228 81.793 111.389 101.558 131.29C117.344 147.181 135.682 164.777 158.407 169.473C180.003 173.936 204.274 163.392 222.948 153.467C244.108 142.222 263.45 127.956 283.741 115.281C303.547 102.909 327.509 88.4983 351.622 88.4683C386.55 88.4257 420.525 108.376 450.311 124.443C469.142 134.601 487.788 145.182 507.193 154.231C524.368 162.243 542.295 169.238 561.344 170.72V172.656H561.342Z" fill="#10EB10"></path>
<path d="M561.342 163.735C542.007 161.997 524.09 153.942 507.138 144.906C487.555 134.468 468.934 122.313 450.168 110.497C433.08 99.738 415.877 88.9938 397.717 80.113C383.259 73.0429 367.674 66.6915 351.477 65.3616C326.282 63.2954 300.674 79.7373 280.673 93.1412C258.742 107.84 238.185 124.585 215.544 138.229C197.139 149.319 171.431 163.046 149.196 157.611C126.681 152.107 110.276 131.507 96.8023 114.061C79.7368 91.9641 64.6098 67.7759 43.998 48.6944C34.804 40.1842 24.2677 32.7108 12.1987 28.9491C0.22226 25.2149 -12.5856 27.0858 -24.552 30.0511C-82.5406 44.4192 -128.693 94.3083 -190 97.1484V92.7956C-128.172 89.9981 -81.4686 39.4078 -23.1545 24.426C-11.2958 21.3806 1.60724 19.2593 13.5411 22.8983C25.4523 26.5298 35.7282 34.0933 44.5815 42.6586C64.8026 62.221 79.2008 86.9903 95.6602 109.581C108.628 127.377 124.622 148.726 147.187 154.343C169.627 159.931 195.524 145.6 213.906 134.225C236.882 120.009 257.71 102.668 280.03 87.4937C300.115 73.8393 325.977 57.1244 351.442 59.6639C367.704 61.2843 383.259 67.9888 397.67 75.347C415.847 84.6285 433.038 95.7509 450.133 106.861C468.879 119.045 487.493 131.55 507.125 142.284C524.02 151.521 541.945 159.78 561.342 161.476V163.732V163.735Z" fill="#10EBEB"></path>
<path d="M561.342 151.511C541.805 150.561 523.815 142.006 507.088 132.434C487.275 121.096 468.684 107.727 450.021 94.6289C432.903 82.615 415.742 70.5108 397.524 60.1974C383.261 52.123 367.774 44.5219 351.357 42.2729C324.912 38.6514 299.374 54.6325 278.722 69.1634C255.32 85.6304 233.842 104.707 210.004 120.568C191.351 132.98 166.006 147.857 142.587 142.392C119.35 136.97 104.148 113.43 92.3643 94.5663C77.4326 70.6636 65.0581 44.1638 45.6985 23.3716C37.7192 14.8013 28.0445 7.15769 16.4638 4.33013C4.63014 1.43997 -8.44823 4.05965 -19.9488 7.29042C-49.4815 15.5877 -76.1116 32.2876 -102.769 46.9588C-129.73 61.7978 -158.539 77.3957 -190 78.3098V75.4071C-158.566 74.7184 -129.7 59.0354 -102.789 44.2339C-76.0389 29.5201 -49.3413 12.7301 -19.7384 4.32012C-8.30296 1.07181 4.77039 -1.55037 16.5915 1.06681C28.1597 3.62888 37.7944 11.2074 45.6785 19.7377C65.0055 40.65 77.0896 67.4479 91.8509 91.5209C103.544 110.592 118.772 134.46 142.276 139.674C165.966 144.931 190.868 130.39 209.676 117.728C233.614 101.614 255.15 82.2568 278.707 65.6171C299.564 50.8833 324.687 35.5559 351.352 39.2375C367.784 41.5065 383.266 49.2103 397.502 57.3574C415.727 67.7885 432.878 80.0153 450.003 92.1295C468.646 105.321 487.232 118.775 507.085 130.12C523.79 139.667 541.807 148.162 561.344 148.783V151.503L561.342 151.511Z" fill="#EBEB10"></path>
</g>
<defs>
<clipPath id="clip0_171_454">
<rect width="751" height="357" fill="white" transform="translate(-190)"></rect>
</clipPath>
</defs>
</svg>