<svg width="1007" height="212" viewBox="0 0 1007 212" fill="none" xmlns="http://www.w3.org/2000/svg">
<mask id="mask0_1414_6633" style="mask-type:alpha" maskUnits="userSpaceOnUse" x="0" y="15" width="288" height="173">
<path d="M268 59.5L277 16L30 15.5L21 58.5L31 59.5L22 86.5L37 88.5L22 126L40 124.5L0 187.5H247.5L287.5 122.5L269.5 126L283.5 86.5H269.5L277 59.5H268Z" fill="#D9D9D9"></path>
</mask>
<g mask="url(#mask0_1414_6633)">
<rect width="279.859" height="4.93357" transform="matrix(-1 0 0 1 288.973 137.843)" fill="#EBEB10"></rect>
<rect width="279.859" height="6.57809" transform="matrix(-1 0 0 1 288.973 124.687)" fill="#10EBEB"></rect>
<rect width="279.859" height="9.86713" transform="matrix(-1 0 0 1 288.973 106.597)" fill="#10EB10"></rect>
<rect width="279.859" height="13.1562" transform="matrix(-1 0 0 1 288.973 83.5732)" fill="#EB10EB"></rect>
<rect width="279.859" height="16.4452" transform="matrix(-1 0 0 1 288.973 55.6167)" fill="#EB1010"></rect>
<rect width="279.859" height="18.0897" transform="matrix(-1 0 0 1 288.973 21.0815)" fill="#1010EB"></rect>
</g>
<mask id="mask1_1414_6633" style="mask-type:alpha" maskUnits="userSpaceOnUse" x="719" y="20" width="288" height="172">
<path d="M987 64L996 20.5L749 20L740 63L750 64L741 91L756 93L741 130.5L759 129L719 192H966.5L1006.5 127L988.5 130.5L1002.5 91H988.5L996 64H987Z" fill="#D9D9D9"></path>
</mask>
<g mask="url(#mask1_1414_6633)">
<rect width="279.859" height="4.93357" transform="matrix(-1 0 0 1 1007.97 142.343)" fill="#EBEB10"></rect>
<rect width="279.859" height="6.57809" transform="matrix(-1 0 0 1 1007.97 129.187)" fill="#10EBEB"></rect>
<rect width="279.859" height="9.86713" transform="matrix(-1 0 0 1 1007.97 111.097)" fill="#10EB10"></rect>
<rect width="279.859" height="13.1562" transform="matrix(-1 0 0 1 1007.97 88.0732)" fill="#EB10EB"></rect>
<rect width="279.859" height="16.4452" transform="matrix(-1 0 0 1 1007.97 60.1167)" fill="#EB1010"></rect>
<rect width="279.859" height="18.0897" transform="matrix(-1 0 0 1 1007.97 25.5815)" fill="#1010EB"></rect>
</g>
<g clip-path="url(#clip0_1414_6633)">
<path d="M696.699 26.7782C698.598 26.4392 701.178 26.4123 702.958 27.3593C703.098 27.5691 703.237 27.779 703.377 27.9888C702.889 30.5284 701.419 35.7366 700.748 37.9103C697.326 49.0316 695.605 59.7709 692.595 71.0644C690.074 80.5231 687.103 91.4507 685.885 101.404C685.714 102.793 686.459 102.308 686.829 102.798C686.175 103.541 686.202 103.551 685.741 104.498C685.596 107.527 685.537 130.814 686.245 131.922L687.173 131.788L687.194 132.041L686.298 132.46C685.8 133.439 685.96 142.645 685.783 145.153C683.901 145.212 671.891 144.733 670.609 144.039C669.789 140.445 670.389 133.762 670.32 129.867C670.148 120.365 670.727 110.616 670.008 101.119C669.343 93.5061 665.669 82.8098 664.709 76.052C663.963 70.8007 654.411 30.8673 655.414 28.5699C657.248 27.171 666.592 27.4346 669.488 27.4561L670.942 28.7851C671.505 35.7312 672.583 42.7096 674.337 49.306C675.485 53.6372 675.565 64.2259 678.017 67.5671C680.173 65.1674 684.63 33.1594 686.926 27.9404C687.505 26.6222 695.133 26.9773 696.693 26.789L696.699 26.7782Z" fill="#EBEBEB"></path>
<path d="M638.443 30.0496C639.505 30.1734 641.715 30.4585 642.643 30.3294C655.376 28.5431 651.402 33.294 651.767 44.1248C652.217 57.4574 651.863 72.3935 651.852 85.8606C651.852 86.6731 652.491 88.68 652.748 89.5408L652.147 89.8314C651.895 91.2034 652.458 98.4777 652.394 100.646C652.308 103.53 652.308 107.135 652.239 110.099C652.228 112.273 652.239 114.452 652.212 116.626C652.201 117.32 651.649 117.621 651.654 117.691C651.826 124.836 652.614 131.712 652.367 138.863C652.088 139.32 651.466 140.644 650.978 140.558C646.462 139.751 642.959 139.928 638.491 140.079L636.925 138.486C637.027 137.464 637.3 134.387 636.705 133.881C637.118 134.231 637.418 131.422 637.327 130.647C636.92 127.231 638.175 118.999 637.086 116.378C637.998 115.485 637.847 115.986 637.944 114.979C637.451 114.667 637.724 114.748 637.113 114.764C636.303 110.831 637.542 101.05 637.236 96.729C637.172 95.7982 636.753 95.2225 636.152 94.6361C634.559 94.0227 628.058 94.0281 626.256 94.9266C625.393 96.8528 626.465 113.274 626.117 116.647C625.918 118.557 627.018 121.974 626.058 124.648C625.194 127.069 628.321 136.302 625.634 138.492C624.459 138.755 612.868 138.938 611.978 138.535C610.117 136.646 611.248 132.536 611.302 129.926C611.366 126.875 611.517 123.852 611.463 120.801C611.645 118.687 611.045 113.295 611.098 112.666C611.57 107.269 611.468 102.481 611.538 97.2563C611.581 93.9474 611.238 82.4979 611.656 79.9529C610.932 80.1735 611.028 80.1143 610.251 80.1412L609.945 79.7915C610.626 78.7208 610.213 78.9737 611.082 78.5863C611.243 78.1397 611.35 77.8277 611.495 77.3757C612.654 73.5395 611.769 37.0549 611.141 31.6745L612.412 30.3025C617.814 31.4109 622.319 29.9797 625.42 30.7329C627.49 35.3117 625.575 69.7571 626.213 76.644C626.433 79.0167 634.978 77.946 636.93 77.9407C636.952 75.9122 636.893 75.1321 637.021 71.764C637.204 66.9001 637.29 59.7656 637.08 54.6811C637.075 54.5466 637.794 53.901 637.982 53.7342C637.928 53.5943 637.204 52.373 637.07 52.7173C638.142 49.9518 637.67 47.6328 637.322 44.6359C636.801 40.1917 636.614 36.3232 637.209 31.8413L638.454 30.055L638.443 30.0496Z" fill="#EBEBEB"></path>
<path d="M584.815 31.9974C584.955 32.0351 585.271 32.1373 585.389 32.1104C587.605 31.6477 589.707 32.4978 591.842 32.9444C597.78 34.1873 602.543 38.3947 604.93 44.3293C606.362 47.8912 605.906 51.679 605.879 55.456C605.858 58.7434 606.861 64.1454 605.573 67.1853C604.259 67.8525 593.392 70.5696 591.499 70.279C590.957 67.5888 591.74 55.1439 591.617 51.34C588.339 47.5038 586.473 47.6544 582.16 49.4138C581.635 50.237 581.12 51.2109 580.637 52.0771C581.222 54.5306 581.683 62.9671 580.991 65.1623L580.149 65.3291L580.042 65.8617L580.937 66.9701C581.179 69.3267 580.819 71.5865 580.862 73.9431C580.905 76.0415 581.409 78.3927 581.179 80.4642C581.104 81.1098 580.846 81.6371 580.514 82.1805C580.17 82.7401 581.361 90.9291 581.007 92.8337C580.916 93.3126 580.626 93.3449 580.261 93.587C579.875 94.3833 581.206 93.7376 581.093 95.9705C580.803 101.83 580.733 107.818 580.975 113.683C581.152 117.89 581.238 120.484 584.917 122.625C586.655 122.227 590.319 121.145 591.118 119.268C593.473 113.726 590.399 102.411 591.981 97.208L592.7 96.8583C596.374 98.3648 604.195 99.6937 606.351 100.985C607.397 103.39 605.616 117.788 605.836 121.361C605.906 122.48 604.64 125.735 604.238 126.908C601.186 135.818 583.126 141.769 577.413 133.192L576.99 133.606C575.477 133.574 570.011 128.759 569.142 127.182L569.636 126.601C569.496 126.413 568.338 125.245 568.386 125.385C567.426 122.453 566.015 119.547 565.951 116.416C565.779 108.222 566.584 100.156 565.886 91.9513C565.779 90.6547 566.809 87.3834 566.723 85.8499C566.611 83.8 566.026 81.9922 566.004 79.953C566.031 77.7417 567.104 72.4958 566.407 70.6933C565.758 70.6395 565.865 70.7471 565.355 70.4458C566.337 70.1338 566.219 70.3328 566.836 69.6442C566.884 67.6749 566.09 65.8725 566.026 64.0647C565.693 54.7835 565.007 46.277 571.181 38.696C573.417 35.9466 575.815 34.58 579.124 34.3648L579.484 34.3433C580.546 32.7292 582.772 32.5516 584.805 31.9974H584.815Z" fill="#EBEBEB"></path>
<path d="M559.965 117.81C559.348 115.453 559.241 113.01 558.748 110.621C558.361 108.749 557.294 107 556.854 105.187C555.658 100.329 554.424 94.6362 552.552 90.0252C559.853 83.4395 559.971 80.7224 560.909 70.5696C561.172 67.7772 560.99 64.1884 560.979 61.3852C560.952 53.1962 560.26 48.2678 554.945 41.9566C550.187 36.3018 544.914 37.7491 541.208 34.6984L540.956 34.8329L541.036 35.527C539.899 36.065 528.115 35.8821 526.747 35.5162C526.012 34.1604 526.989 34.1765 526.216 33.2026C525.755 34.2572 525.723 34.3056 525.669 35.4409C524.312 36.4416 520.59 34.3218 520.82 38.7875C521.206 39.0888 521.437 39.2825 521.759 39.6591C521.212 39.9927 521.416 39.8851 520.75 40.0035C520.391 41.7144 520.536 44.2701 521.362 45.8466L521.126 46.5891C521.716 46.5299 521.432 46.6106 521.989 46.3362C521.957 48.2194 520.949 50.1778 520.96 51.5714C521.003 56.2685 521.206 61.0032 521.373 65.7003C521.448 67.8579 519.941 71.8501 521.024 74.0776C522.188 74.3789 525.218 73.5665 526.415 73.6902C525.481 79.302 519.334 96.1158 520.868 100.538C522.724 102.131 529.257 99.8928 529.547 102.147C529.923 105.047 523.545 127.623 521.989 131.836C526.5 131.336 531.392 131.987 534.809 131.637C535.984 127.457 534.755 122.921 535.045 119.133C535.474 113.462 535.501 108.195 535.78 102.545C535.919 99.7422 535.619 96.9013 535.86 93.9475C537.008 94.1196 538.596 94.2057 539.159 95.2764C540.704 98.2249 540.076 101.216 541.149 104.541C543.032 109.879 546.599 131.589 549.098 133.553C552.027 134.075 553.947 132.278 556.554 131.852C558.764 131.497 561.698 132.74 563.822 131.336C565.645 128.495 560.448 121.199 559.96 117.81H559.965ZM546.261 75.1967C544.475 77.8331 543.321 78.8285 540.468 79.6248L540.307 79.6571C538.816 78.6348 538.102 80.222 535.651 78.8231C534.712 75.1537 535.737 65.5873 535.345 61.3583C535.024 57.8664 534.82 51.1194 535.378 47.7297C537.126 47.8374 538.274 47.7566 540.017 47.6383C547.21 47.3047 546.314 54.9933 546.427 60.2876C546.54 65.3721 546.137 70.1983 546.255 75.1967H546.261Z" fill="#EBEBEB"></path>
<path d="M509.476 149.172L509.021 149.151C513.145 136.711 518.6 122.824 523.626 110.745C518.557 110.363 513.135 110.751 508.313 110.013C510.597 101.712 514.148 90.9884 516.905 82.6756C515.253 82.638 508.2 82.7402 507.25 81.9331C507.208 79.5227 508.366 78.1238 508.779 75.9286C510.077 69.0686 511.316 62.2032 512.829 55.3862C513 54.6114 512.866 51.8028 512.877 50.8613L513.682 50.6837C514.341 46.2449 515.162 42.3548 516.128 37.9806C514.24 38.255 503.362 40.0359 502.675 39.4064C503.823 37.9806 503.222 37.4694 503.861 35.9844C507.041 28.5595 508.35 20.5965 511.938 13.3329C512.577 12.047 512.657 8.81336 513.301 7.30146C514.347 4.84799 515.264 2.55056 516.026 0.000244141C514.288 2.49675 512.282 4.51979 510.528 6.90331C505.4 13.8817 499.94 20.2144 495.638 27.7201C494.801 27.9515 494.715 27.8708 494.19 28.5218C494.442 28.9522 494.549 29.1621 494.753 29.6194L494.463 29.9584L493.97 29.4418C492.028 30.378 491.186 35.3173 489.652 35.5594L489.046 34.7846C488.863 35.328 488.912 34.9568 488.858 35.5325C488.601 38.1904 483.773 41.5209 482.786 44.2918C482.202 45.9382 481.558 45.1526 480.93 45.9489C480.399 46.6269 481.15 47.7191 480.362 48.7091L479.659 48.2356C478.581 49.005 475.803 52.244 474.671 53.4331C477.283 53.8097 481.499 52.8628 482.84 53.7559L482.4 54.7728L482.786 54.7459C483.349 53.8259 483.376 53.7721 484.122 53.008C484.959 52.8412 484.551 52.7982 485.372 53.2286C486.412 55.3754 467.805 120.075 466.239 127.968C466.019 129.06 465.568 130.556 466.228 131.6C468.819 132.224 477.143 131.982 480.099 131.783C481.048 128.969 481.649 123.637 483.51 122.367C485.023 121.334 495.155 121.85 496.936 122.211C497.783 125.149 490.832 144.889 490.419 149.608C490.338 150.533 489.073 155.338 488.681 156.253C488.627 157.447 488.44 157.474 488.906 158.389C488.021 159.336 487.243 163.963 487.388 165.173C486.707 166.239 485.414 167.944 485.779 169.214C487.442 170.037 490.977 167.982 493.031 167.605C495.15 167.218 497.161 166.422 499.387 166.12C496.85 175.38 494.447 184.575 491.459 193.722C490.676 196.122 489.625 198.5 488.783 200.91C487.576 204.364 486.632 208.168 485.248 211.52C488.359 207.291 490.451 204.241 493.004 199.592C493.927 198.236 494.485 197.214 495.268 195.777C496.839 192.554 501.125 188.137 502.08 184.979C502.584 182.87 504.51 182.789 505.867 180.556C509.954 173.847 513.778 166.621 518.16 160.132C519.281 158.475 525.831 148.101 525.9 147.617C524.661 146.821 513.167 149.328 509.471 149.172H509.476ZM496.067 108.566C493.331 108.663 490.489 108.701 487.828 108.141C486.932 108.077 487.276 108.265 486.729 107.646C486.686 107.167 486.648 106.791 486.788 106.317C489.496 96.8369 492.108 87.3243 494.587 77.7741C495.257 75.1969 495.59 72.4529 496.689 70.0155C498.347 72.0601 496.19 103.643 496.072 108.561L496.067 108.566Z" fill="#EBEBEB"></path>
<path d="M432.28 82.2935L432.167 82.7347C432.741 83.3643 432.409 83.2244 433.176 83.2674C434.645 85.5864 434.179 88.3411 434.206 91.0905L434.318 102.922C434.436 108.658 434.511 114.393 434.533 120.129C434.533 122.318 434.624 125.891 434.415 127.909L433.916 128.237C433.331 129.695 435.954 131.352 433.948 133.494C431.862 134.247 429.421 133.596 427.195 133.671C425.586 133.725 422.437 134.758 421.048 134.301C420.415 133.467 420.072 132.159 420.099 131.11C420.303 122.34 420.351 113.452 419.739 104.708C419.428 100.27 421.611 96.6808 419.106 93.0705C419.112 93.0813 420.619 89.4979 420.571 88.8415C420.587 87.2435 419.675 84.5587 419.782 83.0576C420.404 74.4113 419.707 65.6681 420.136 57.0164C420.233 55.0848 419.965 53.3792 420.013 51.367C420.517 51.184 420.254 51.3132 420.775 50.9473C420.163 48.0849 419.423 38.2549 420.474 35.8391C420.769 35.6346 429.968 34.8437 431.148 34.8599C431.722 34.8652 433.219 34.8706 433.696 35.2203C434.05 35.4786 444.568 73.6042 445.4 76.5311C445.936 78.425 447.159 84.747 448.168 85.8177C449.728 84.4565 447.417 37.733 448.441 36.3341C450.034 34.1604 453.022 36.1673 455.065 36.1404C456.771 36.1189 458.477 35.3818 460.193 35.2957C461.019 35.2526 461.856 35.4302 462.414 36.1135C463.015 36.8506 463.068 37.4478 462.934 38.3571C462.408 38.9597 462.188 39.1588 461.808 39.869C463.712 41.8436 461.362 44.6953 462.446 47.0842C463.331 49.0372 463.17 49.5699 461.749 50.9527C461.62 51.7705 461.502 51.4746 461.834 51.9857L462.5 51.3454L462.72 51.5069C462.661 54.5199 462.762 57.4145 462.789 60.4114C462.811 63.1393 462.435 65.9694 462.484 68.7134C462.516 70.4405 462.816 72.0869 462.945 73.7979C462.162 80.4965 462.441 87.2973 462.596 94.0336C462.612 94.647 461.995 98.4455 462.011 98.4832C463.09 100.791 462.339 102.976 462.36 105.429C462.425 113.199 461.379 120.898 462.349 128.646C462.526 130.034 462.693 131.734 461.824 132.902C460.794 133.198 450.656 133.531 449.503 133.058C448.033 132.455 442.621 108.125 441.763 104.988C440.937 101.954 439.602 99.0966 438.711 96.0889C437.199 90.9775 436.287 85.4088 434.163 80.5288C433.621 81.6909 433.605 82.0837 432.301 82.2882L432.28 82.2935Z" fill="#EBEBEB"></path>
<path d="M414.455 109.045C415.448 103.266 413.549 92.2259 414.852 86.8616C413.983 84.123 413.619 83.9938 415.201 81.5081C415.002 80.8678 414.155 78.2207 414.182 77.6988C414.589 69.3807 415.104 61.2831 413.946 52.9758C413.586 50.3824 413.699 47.2187 413.409 44.4371C410.443 39.8637 409.306 37.8515 405.669 33.8753C402.221 33.3642 396.717 29.5441 391.702 29.9961C385.013 32.4172 378.276 34.1282 375.069 41.6931C371.985 48.9566 373.24 60.4223 373.24 68.1109C373.24 81.3413 373.095 94.5072 373.229 107.657L373.497 108.066L374.35 107.797L374.447 108.485L374.184 108.857L373.417 108.711C373.09 110.987 372.73 122.2 373.835 124.363C374.211 125.095 375.509 126.069 375.342 127.694C375.155 129.571 378.287 132.681 379.634 133.913C382.793 136.792 388.462 139.923 392.668 139.321C393.998 139.127 396.31 138.492 397.318 138.514C397.946 138.524 399.147 138.583 399.694 138.309C400.214 138.04 401.03 137.26 401.577 137.007C404.64 135.581 406.088 135.081 408.539 132.471C411.484 129.329 412.363 125.687 413.865 121.576C414.305 120.365 414.568 117.993 414.863 116.744C415.153 115.534 415.153 117.864 415.641 116.206C415.061 113.963 414.08 111.256 414.461 109.045H414.455ZM399.185 112.806C399.169 116.787 397.457 118.945 393.891 120.037C393.086 120.091 391.766 119.655 390.94 119.435C385.539 114.393 388.94 108.087 388.173 101.733C388.071 101.507 387.717 100.969 387.722 100.716C387.905 86.0922 388.044 71.3875 387.803 56.7582C387.77 54.6814 387.942 52.4485 388.028 50.3609C389.519 48.0312 389.9 47.8698 392.179 46.5892C393.751 46.4547 398.235 46.7291 398.46 49.0266C399.641 60.9119 398.643 73.1523 398.863 85.0861C399.034 94.3296 399.372 103.552 399.179 112.811L399.185 112.806Z" fill="#EBEBEB"></path>
<path d="M351.651 23.5126L352.005 23.2974C352.949 23.5341 353.346 23.5825 354.226 24.1044L354.236 24.6317L353.201 25.8746L353.276 26.3158C354.714 27.3542 357.192 27.634 357.621 28.1182C359.251 29.9583 362.234 32.2396 363.462 34.3702C364.122 35.5109 365.42 37.7061 365.693 38.9167L365.13 39.869C365.447 40.4124 365.774 40.9559 366.106 41.4885C366.181 44.9266 366.568 55.2086 366.144 57.8719C365.484 58.5821 364.127 59.104 363.258 59.1955C361.043 59.4322 353.614 61.8372 352.091 60.632C350.793 57.8611 351.935 54.1755 352.005 51.1087C352.048 49.2632 352.059 47.5092 352.043 45.6637C350.761 44.2433 349.929 43.291 348.089 43.0973C343.45 42.5861 339.727 44.2971 340.14 50.5707C340.366 54.0464 340.43 57.4683 340.21 60.9495C343.273 68.7726 346.024 68.0947 350.246 73.3836C354.558 78.7855 365.307 88.3788 367.319 94.6739C368.745 101.711 368.955 111.445 368.52 118.595C367.919 128.592 362.046 138.6 354.054 142.07C346.754 145.239 338.252 143.474 331.488 139.891C324.371 131.853 323.7 130.809 323.689 118.38C323.689 116.927 323.883 114.667 323.368 113.355C323.03 113.532 322.751 113.677 322.408 113.839L322.236 113.365L323.057 112.074C322.665 110.223 322.719 112.268 321.984 110.842C324.145 110.035 322.944 108.146 323.791 107.786C325.556 107.033 336.793 104.068 337.968 104.004C341.036 105.994 337.244 121.102 340.221 125.127C341.31 126.596 343.745 126.746 345.483 127.102C353.845 123.997 352.193 120.177 352.536 110.691C352.981 98.2895 340.811 92.9575 334.717 84.6878C331.971 80.9646 325.556 77.4888 325.17 71.5758C324.891 67.3575 324.14 62.8488 324.086 58.9533L324.698 58.4261C324.274 58.1247 323.915 57.845 323.507 57.5221C323.598 57.3016 323.732 56.8657 324.001 56.6936C324.934 56.091 323.652 53.9872 323.529 52.9596C323.116 49.4677 324.017 45.2656 324.821 41.9136C325.283 39.9874 325.465 39.1857 326.393 37.507C328.817 33.1166 333.516 29.3449 337.684 27.6232C339.014 27.0744 340.714 26.9829 342.184 26.2835C343.021 25.8853 346.984 24.3196 347.607 24.5133C348.921 24.9115 350.272 26.3911 352.246 25.8692C352.852 25.202 352.734 25.5948 352.772 24.7339C352.198 24.0345 352.536 24.2658 351.726 24.0237L351.635 23.5072L351.651 23.5126Z" fill="#EBEBEB"></path>
</g>
<defs>
<clipPath id="clip0_1414_6633">
<rect width="381.377" height="211.52" fill="white" transform="translate(322)"></rect>
</clipPath>
</defs>
</svg>