<svg width="220" height="122" viewBox="0 0 220 122" fill="none" xmlns="http://www.w3.org/2000/svg">
<g clip-path="url(#clip0_171_910)">
<path d="M215.392 15.3932C216.484 15.1984 217.967 15.1829 218.99 15.7273C219.071 15.8479 219.151 15.9685 219.231 16.0891C218.95 17.549 218.106 20.5429 217.72 21.7924C215.753 28.1854 214.763 34.3587 213.033 40.8507C211.584 46.288 209.876 52.5696 209.176 58.2914C209.078 59.0894 209.506 58.811 209.719 59.0925C209.343 59.5193 209.358 59.5255 209.093 60.0698C209.01 61.8111 208.976 75.1971 209.383 75.8342L209.916 75.7569L209.929 75.9023L209.414 76.1435C209.127 76.7064 209.219 81.9983 209.118 83.4396C208.035 83.4736 201.132 83.1984 200.395 82.7994C199.923 80.7333 200.268 76.892 200.228 74.6527C200.13 69.1907 200.463 63.5864 200.05 58.1275C199.667 53.7511 197.555 47.6024 197.003 43.7178C196.575 40.6991 191.083 17.7438 191.66 16.4232C192.714 15.619 198.085 15.7706 199.75 15.7829L200.586 16.5469C200.91 20.5398 201.53 24.5512 202.538 28.3431C203.198 30.8329 203.244 36.9196 204.653 38.8403C205.892 37.4609 208.455 19.0614 209.774 16.0613C210.107 15.3035 214.492 15.5077 215.389 15.3994L215.392 15.3932Z" fill="#EBEBEB"></path>
<path d="M181.904 17.2737C182.515 17.3449 183.785 17.5088 184.318 17.4346C191.638 16.4077 189.353 19.1387 189.563 25.3647C189.822 33.0288 189.619 41.6147 189.612 49.3561C189.612 49.8232 189.979 50.9768 190.127 51.4717L189.782 51.6387C189.637 52.4274 189.961 56.6089 189.924 57.8554C189.875 59.5131 189.875 61.5854 189.834 63.2896C189.828 64.5391 189.834 65.7917 189.819 67.0412C189.813 67.4402 189.495 67.6134 189.498 67.6536C189.597 71.7609 190.05 75.7136 189.908 79.8241C189.748 80.087 189.39 80.8478 189.11 80.7983C186.514 80.3344 184.5 80.4365 181.932 80.5231L181.032 79.6076C181.09 79.0199 181.247 77.2508 180.905 76.9601C181.143 77.1611 181.315 75.5466 181.263 75.1012C181.028 73.1373 181.75 68.4052 181.124 66.8989C181.648 66.3855 181.562 66.6732 181.617 66.0948C181.334 65.9154 181.491 65.9618 181.139 65.9711C180.674 63.7102 181.386 58.0873 181.21 55.6038C181.173 55.0687 180.933 54.7377 180.588 54.4006C179.672 54.048 175.935 54.0511 174.899 54.5676C174.402 55.6749 175.019 65.1143 174.819 67.0536C174.705 68.1516 175.337 70.1155 174.785 71.6527C174.288 73.0445 176.086 78.3519 174.541 79.6107C173.866 79.7622 167.203 79.8674 166.691 79.6354C165.621 78.5498 166.272 76.1868 166.302 74.6868C166.339 72.9331 166.426 71.1949 166.395 69.4413C166.5 68.2258 166.154 65.1267 166.185 64.7649C166.457 61.6627 166.398 58.91 166.438 55.9069C166.463 54.0047 166.265 47.4231 166.506 45.9602C166.09 46.087 166.145 46.0529 165.698 46.0684L165.522 45.8674C165.914 45.2519 165.677 45.3973 166.176 45.1746C166.269 44.9179 166.33 44.7385 166.413 44.4787C167.079 42.2735 166.571 21.3007 166.21 18.2078L166.941 17.4191C170.046 18.0562 172.636 17.2335 174.418 17.6665C175.608 20.2986 174.507 40.0992 174.874 44.058C175.001 45.422 179.912 44.8065 181.035 44.8034C181.047 43.6374 181.013 43.1889 181.087 41.2528C181.192 38.4568 181.241 34.3557 181.121 31.4329C181.118 31.3556 181.531 30.9845 181.639 30.8886C181.608 30.8082 181.192 30.1061 181.115 30.304C181.731 28.7143 181.46 27.3813 181.26 25.6585C180.961 23.1038 180.853 20.88 181.195 18.3037L181.91 17.2768L181.904 17.2737Z" fill="#EBEBEB"></path>
<path d="M151.077 18.3933C151.157 18.415 151.339 18.4738 151.407 18.4583C152.68 18.1923 153.889 18.681 155.116 18.9377C158.529 19.6521 161.267 22.0708 162.639 25.4822C163.463 27.5297 163.201 29.7071 163.185 31.8783C163.173 33.768 163.749 36.8733 163.009 38.6208C162.254 39.0043 156.007 40.5662 154.919 40.3992C154.607 38.8527 155.058 31.6989 154.987 29.5122C153.103 27.307 152.03 27.3936 149.551 28.405C149.249 28.8782 148.953 29.438 148.675 29.936C149.011 31.3463 149.276 36.1959 148.879 37.4578L148.394 37.5537L148.333 37.8599L148.848 38.497C148.986 39.8517 148.78 41.1507 148.805 42.5054C148.829 43.7116 149.119 45.0632 148.986 46.254C148.943 46.6251 148.795 46.9282 148.604 47.2406C148.407 47.5623 149.091 52.2696 148.888 53.3645C148.835 53.6398 148.669 53.6583 148.459 53.7975C148.237 54.2552 149.002 53.8841 148.937 55.1676C148.771 58.5358 148.731 61.9782 148.869 65.3494C148.971 67.768 149.02 69.2588 151.136 70.4898C152.135 70.2609 154.24 69.6392 154.7 68.5598C156.053 65.3741 154.287 58.8698 155.196 55.879L155.609 55.678C157.722 56.544 162.217 57.3079 163.457 58.0502C164.058 59.4327 163.034 67.7093 163.161 69.7629C163.201 70.4062 162.473 72.2774 162.242 72.9517C160.487 78.0735 150.106 81.4942 146.822 76.5642L146.578 76.8023C145.709 76.7838 142.567 74.0156 142.067 73.1094L142.351 72.7754C142.271 72.6671 141.605 71.996 141.633 72.0764C141.081 70.3908 140.27 68.7206 140.233 66.9206C140.134 62.2101 140.597 57.5739 140.196 52.8573C140.134 52.1119 140.726 50.2314 140.677 49.3499C140.612 48.1716 140.276 47.1324 140.264 45.9602C140.279 44.689 140.896 41.6734 140.495 40.6373C140.122 40.6064 140.184 40.6682 139.891 40.495C140.455 40.3156 140.387 40.4301 140.742 40.0342C140.769 38.9022 140.313 37.8661 140.276 36.8269C140.085 31.4917 139.69 26.6018 143.239 22.244C144.525 20.6635 145.903 19.8779 147.806 19.7542L148.012 19.7418C148.623 18.814 149.902 18.7119 151.071 18.3933H151.077Z" fill="#EBEBEB"></path>
<path d="M136.792 67.7216C136.437 66.3669 136.376 64.9628 136.092 63.5895C135.87 62.5132 135.256 61.508 135.004 60.4657C134.316 57.6729 133.607 54.4006 132.531 51.75C136.727 47.9643 136.795 46.4024 137.335 40.5662C137.486 38.9609 137.381 36.898 137.375 35.2866C137.359 30.5792 136.962 27.7462 133.906 24.1182C131.171 20.8676 128.14 21.6996 126.01 19.9459L125.865 20.0233L125.911 20.4222C125.257 20.7315 118.483 20.6264 117.697 20.4161C117.274 19.6367 117.836 19.6459 117.392 19.0861C117.126 19.6923 117.108 19.7202 117.077 20.3728C116.297 20.948 114.157 19.7294 114.29 22.2965C114.512 22.4697 114.644 22.5811 114.829 22.7976C114.515 22.9893 114.632 22.9275 114.25 22.9955C114.043 23.9791 114.126 25.4482 114.601 26.3544L114.466 26.7812C114.805 26.7472 114.641 26.7936 114.962 26.6358C114.943 27.7183 114.364 28.8441 114.37 29.6452C114.395 32.3453 114.512 35.067 114.607 37.7671C114.651 39.0073 113.784 41.3023 114.407 42.5827C115.076 42.7559 116.818 42.2889 117.506 42.36C116.969 45.5859 113.436 55.2511 114.318 57.7935C115.384 58.709 119.14 57.4223 119.306 58.7182C119.522 60.3853 115.856 73.363 114.962 75.7847C117.555 75.4971 120.367 75.8713 122.331 75.6703C123.006 73.2671 122.3 70.6598 122.467 68.4825C122.713 65.2226 122.729 62.1946 122.889 58.9471C122.969 57.3357 122.797 55.7027 122.935 54.0047C123.595 54.1037 124.508 54.1532 124.832 54.7686C125.72 56.4635 125.359 58.1832 125.976 60.0946C127.058 63.1627 129.108 75.6425 130.545 76.7714C132.229 77.0714 133.332 76.0384 134.831 75.794C136.101 75.5899 137.788 76.3043 139.009 75.4971C140.057 73.8641 137.069 69.6701 136.789 67.7216H136.792ZM128.914 43.226C127.887 44.7415 127.224 45.3137 125.584 45.7715L125.492 45.79C124.634 45.2024 124.224 46.1148 122.815 45.3106C122.276 43.2013 122.865 37.7021 122.639 35.2711C122.454 33.2639 122.337 29.3854 122.658 27.4369C123.663 27.4987 124.323 27.4524 125.325 27.3843C129.46 27.1926 128.945 31.6123 129.01 34.6557C129.074 37.5784 128.843 40.3527 128.911 43.226H128.914Z" fill="#EBEBEB"></path>
<path d="M107.769 85.75L107.507 85.7376C109.878 78.5869 113.014 70.6042 115.903 63.6607C112.989 63.4411 109.872 63.6638 107.1 63.24C108.413 58.4677 110.455 52.3036 112.039 47.5251C111.09 47.5035 107.035 47.5623 106.489 47.0983C106.465 45.7127 107.131 44.9086 107.368 43.6467C108.114 39.7033 108.827 35.7567 109.696 31.8381C109.795 31.3927 109.718 29.7782 109.724 29.237L110.186 29.1349C110.566 26.5833 111.037 24.3471 111.592 21.8326C110.507 21.9904 104.254 23.0141 103.859 22.6522C104.519 21.8326 104.174 21.5388 104.541 20.6852C106.369 16.417 107.121 11.8395 109.184 7.66415C109.551 6.92495 109.597 5.06613 109.967 4.19703C110.569 2.78668 111.096 1.46602 111.534 0C110.535 1.43509 109.382 2.59802 108.373 3.96816C105.426 7.97962 102.287 11.6199 99.814 15.9345C99.333 16.0675 99.2836 16.0211 98.9815 16.3953C99.1264 16.6428 99.188 16.7634 99.3052 17.0263L99.1387 17.2211L98.855 16.9242C97.7389 17.4624 97.2548 20.3016 96.373 20.4408L96.0245 19.9954C95.9197 20.3078 95.9475 20.0944 95.9166 20.4254C95.7686 21.9532 92.9936 23.8677 92.4263 25.4606C92.0902 26.407 91.7202 25.9554 91.3595 26.4132C91.0542 26.8029 91.4859 27.4307 91.0326 27.9998L90.6287 27.7276C90.009 28.1699 88.4118 30.0318 87.7612 30.7154C89.2628 30.9319 91.6863 30.3875 92.4571 30.9009L92.2043 31.4855L92.4263 31.47C92.75 30.9411 92.7655 30.9102 93.194 30.471C93.675 30.3751 93.4407 30.3504 93.9125 30.5978C94.5106 31.8319 83.8146 69.0237 82.9142 73.561C82.7878 74.1888 82.5288 75.0486 82.9081 75.6487C84.3973 76.0074 89.1826 75.8683 90.8815 75.7538C91.4273 74.1362 91.7726 71.0712 92.8425 70.3413C93.712 69.7475 99.5365 70.0444 100.56 70.2516C101.047 71.9403 97.0513 83.2881 96.8139 86.0005C96.7676 86.5325 96.04 89.2944 95.8149 89.8202C95.784 90.5068 95.6761 90.5223 95.9444 91.0481C95.4356 91.5924 94.9885 94.2523 95.0718 94.9482C94.6802 95.5606 93.9371 96.541 94.1468 97.271C95.1026 97.7442 97.1345 96.5627 98.3155 96.3462C99.5334 96.1235 100.69 95.6658 101.969 95.4926C100.511 100.815 99.1294 106.101 97.412 111.359C96.9619 112.738 96.3575 114.105 95.8735 115.491C95.1797 117.477 94.637 119.663 93.8415 121.59C95.6299 119.159 96.8324 117.406 98.3 114.733C98.8304 113.954 99.151 113.366 99.6012 112.54C100.505 110.688 102.968 108.149 103.517 106.333C103.807 105.121 104.914 105.074 105.694 103.791C108.043 99.9339 110.242 95.7802 112.761 92.0502C113.405 91.0976 117.17 85.1345 117.21 84.8562C116.498 84.3984 109.89 85.8397 107.766 85.75H107.769ZM100.061 62.4081C98.4881 62.4637 96.854 62.4854 95.3246 62.1637C94.8097 62.1266 95.007 62.2349 94.6925 61.8792C94.6679 61.6039 94.6463 61.3874 94.7265 61.1152C96.2835 55.6656 97.7851 50.1974 99.2096 44.7075C99.595 43.226 99.7862 41.6487 100.418 40.2476C101.371 41.4229 100.132 59.5781 100.064 62.405L100.061 62.4081Z" fill="#EBEBEB"></path>
<path d="M63.3933 47.3056L63.3285 47.5592C63.6584 47.9211 63.4673 47.8406 63.9082 47.8654C64.753 49.1984 64.4848 50.782 64.5002 52.3624L64.5649 59.1637C64.6328 62.4607 64.6759 65.7577 64.6883 69.0547C64.6883 70.3135 64.7407 72.3672 64.6204 73.527L64.3337 73.7156C63.9976 74.5538 65.5054 75.5064 64.3522 76.7374C63.1528 77.1704 61.7499 76.7962 60.4703 76.8395C59.5453 76.8704 57.7354 77.4642 56.9368 77.2013C56.573 76.7219 56.3756 75.9704 56.391 75.3672C56.5082 70.3259 56.536 65.2164 56.1845 60.1905C56.0056 57.6389 57.2605 55.5759 55.8206 53.5006C55.8237 53.5068 56.6901 51.4469 56.6624 51.0696C56.6716 50.151 56.1475 48.6077 56.2091 47.7448C56.5668 42.7745 56.166 37.7486 56.4126 32.7752C56.4681 31.6649 56.314 30.6845 56.3417 29.5277C56.6315 29.4226 56.4805 29.4968 56.7795 29.2865C56.428 27.6411 56.0025 21.9904 56.6069 20.6017C56.7765 20.4841 62.0644 20.0295 62.7427 20.0388C63.0726 20.0419 63.9329 20.045 64.2073 20.246C64.4108 20.3945 70.4572 42.3106 70.9351 43.9931C71.2434 45.0818 71.9464 48.7159 72.5261 49.3314C73.4234 48.5489 72.0944 21.6904 72.6833 20.8862C73.5991 19.6367 75.3165 20.7903 76.4913 20.7749C77.4718 20.7625 78.4523 20.3388 79.4389 20.2893C79.9138 20.2646 80.3948 20.3666 80.7154 20.7594C81.0608 21.1831 81.0916 21.5264 81.0145 22.0491C80.7123 22.3955 80.5859 22.51 80.367 22.9182C81.4616 24.0533 80.1111 25.6926 80.7339 27.0658C81.2427 28.1885 81.1502 28.4947 80.3331 29.2896C80.2591 29.7597 80.1913 29.5896 80.3824 29.8834L80.7648 29.5153L80.8912 29.6081C80.8573 31.3401 80.9158 33.0041 80.9313 34.7268C80.9436 36.2949 80.7278 37.9218 80.7555 39.4992C80.774 40.492 80.9467 41.4384 81.0207 42.4219C80.5705 46.2726 80.7308 50.182 80.8203 54.0542C80.8295 54.4068 80.4749 56.5904 80.4842 56.612C81.1039 57.9389 80.6723 59.1946 80.6846 60.6049C80.7216 65.0711 80.1203 69.497 80.6784 73.9507C80.7802 74.7487 80.8758 75.726 80.3763 76.3972C79.7843 76.5673 73.9568 76.759 73.2939 76.4869C72.449 76.1405 69.3379 62.1545 68.8446 60.3513C68.3698 58.6069 67.602 56.9646 67.0902 55.2357C66.2207 52.2975 65.6965 49.0963 64.4755 46.2911C64.1641 46.9592 64.1549 47.185 63.4056 47.3025L63.3933 47.3056Z" fill="#EBEBEB"></path>
<path d="M53.1474 62.6833C53.7178 59.3616 52.6263 53.015 53.3756 49.9314C52.8761 48.3571 52.6664 48.2829 53.576 46.854C53.4619 46.486 52.9747 44.9643 52.9901 44.6643C53.2245 39.8827 53.5205 35.2279 52.8545 30.4525C52.6479 28.9617 52.7126 27.1431 52.5461 25.5441C50.8411 22.9151 50.1874 21.7584 48.0969 19.4728C46.1143 19.1789 42.9508 16.983 40.0679 17.2428C36.223 18.6346 32.3503 19.6181 30.5065 23.9667C28.7336 28.1421 29.4551 34.733 29.4551 39.1527C29.4551 46.7581 29.3718 54.3264 29.4489 61.8854L29.6031 62.1204L30.0933 61.9658L30.1488 62.3617L29.9977 62.5751L29.5568 62.4916C29.3687 63.7999 29.1622 70.2454 29.7973 71.4888C30.0132 71.9094 30.7593 72.4692 30.6637 73.4033C30.5558 74.4827 32.3565 76.2704 33.1304 76.9786C34.9465 78.6333 38.2056 80.4334 40.6229 80.087C41.3876 79.9756 42.7165 79.6107 43.2961 79.623C43.6569 79.6292 44.3476 79.6632 44.6621 79.5055C44.9611 79.3509 45.4298 78.9024 45.7443 78.757C47.5049 77.9374 48.3374 77.6498 49.7465 76.1497C51.4392 74.3435 51.9449 72.2496 52.8082 69.8867C53.0611 69.1908 53.2121 67.8268 53.3817 67.1093C53.5482 66.4134 53.5482 67.7526 53.8288 66.8C53.4958 65.5102 52.9316 63.9545 53.1505 62.6833H53.1474ZM44.3691 64.8453C44.3599 67.134 43.3763 68.3742 41.3259 69.0021C40.8634 69.033 40.1049 68.7825 39.6301 68.6557C36.5252 65.7577 38.48 62.1328 38.0391 58.4801C37.9805 58.3502 37.777 58.0409 37.7801 57.8956C37.8849 49.4891 37.9651 41.0363 37.8263 32.6268C37.8078 31.4329 37.9065 30.1494 37.9558 28.9493C38.813 27.6101 39.0319 27.5173 40.3423 26.7812C41.2457 26.7039 43.8234 26.8617 43.9529 28.1823C44.6312 35.0145 44.0577 42.0508 44.1841 48.9108C44.2828 54.2243 44.4771 59.5255 44.3661 64.8484L44.3691 64.8453Z" fill="#EBEBEB"></path>
<path d="M17.0446 13.5159L17.2481 13.3922C17.7908 13.5282 18.019 13.5561 18.5246 13.8561L18.5308 14.1592L17.9357 14.8736L17.9789 15.1273C18.8052 15.7242 20.2297 15.885 20.4764 16.1634C21.4137 17.2211 23.128 18.5325 23.8341 19.7573C24.2134 20.413 24.9595 21.6749 25.1168 22.3708L24.793 22.9182C24.9749 23.2306 25.163 23.543 25.3542 23.8492C25.3974 25.8255 25.6194 31.736 25.3758 33.267C24.9965 33.6752 24.2164 33.9752 23.7169 34.0278C22.4435 34.1639 18.1731 35.5464 17.2975 34.8536C16.5513 33.2608 17.208 31.1422 17.2481 29.3792C17.2728 28.3184 17.279 27.3101 17.2697 26.2492C16.5328 25.4327 16.0549 24.8853 14.9973 24.7739C12.3302 24.4801 10.1904 25.4636 10.4278 29.0699C10.5573 31.0679 10.5943 33.035 10.4679 35.0361C12.2285 39.5331 13.8102 39.1434 16.2368 42.1837C18.7158 45.289 24.8948 50.8036 26.051 54.4222C26.8712 58.4677 26.9914 64.0627 26.7417 68.1732C26.3964 73.9197 23.0201 79.6725 18.426 81.6674C14.2295 83.4891 9.34246 82.4746 5.45438 80.4148C1.3628 75.794 0.977388 75.194 0.971222 68.0495C0.971222 67.2144 1.08222 65.9154 0.786222 65.1607C0.591972 65.2628 0.431639 65.3463 0.234306 65.4391L0.135639 65.1669L0.607389 64.4246C0.382306 63.3607 0.413139 64.536 -0.00927734 63.7163C1.2333 63.2524 0.542639 62.1668 1.0298 61.9596C2.04422 61.5266 8.5038 59.8224 9.17905 59.7853C10.9427 60.9297 8.7628 69.6145 10.474 71.9279C11.1 72.7723 12.4998 72.8589 13.4988 73.063C18.3057 71.2784 17.356 69.0825 17.5534 63.6297C17.8093 56.5007 10.8132 53.4356 7.31055 48.6819C5.73188 46.5416 2.04422 44.5436 1.82222 41.1445C1.66189 38.7197 1.23022 36.1279 1.19939 33.8886L1.55089 33.5855C1.3073 33.4123 1.10072 33.2515 0.866388 33.0659C0.918805 32.9391 0.995888 32.6886 1.15005 32.5896C1.68655 32.2432 0.949638 31.0339 0.878722 30.4432C0.641305 28.4359 1.1593 26.0204 1.6218 24.0935C1.88697 22.9863 1.9918 22.5254 2.52522 21.5604C3.91888 19.0367 6.61988 16.8685 9.01563 15.8788C9.7803 15.5634 10.7577 15.5108 11.6025 15.1087C12.0835 14.8798 14.3621 13.9798 14.7198 14.0911C15.4752 14.32 16.2522 15.1706 17.3869 14.8705C17.7353 14.487 17.6675 14.7128 17.689 14.2179C17.3591 13.8159 17.5534 13.9489 17.0878 13.8097L17.0354 13.5128L17.0446 13.5159Z" fill="#EBEBEB"></path>
</g>
<defs>
<clipPath id="clip0_171_910">
<rect width="219.231" height="121.59" fill="white"></rect>
</clipPath>
</defs>
</svg>