<svg preserveAspectRatio="none" width="100%" height="100%" overflow="visible" style="display: block;" viewBox="0 0 54.6912 49.58" fill="none" xmlns="http://www.w3.org/2000/svg">
<g id="crown" clip-path="url(#clip0_0_4)">
<path id="Vector" d="M22.921 10.9559C22.5013 10.4401 22.0983 9.9597 21.7907 9.36655C18.2893 2.59582 27.5912 -3.6638 32.4145 2.55164C33.4052 3.84758 33.8453 5.48111 33.6402 7.09965C33.4218 8.81757 32.7221 9.63315 31.722 10.907C32.4823 12.9507 33.1977 15.3146 33.8816 17.4096L34.9007 20.5599C35.1428 21.2855 35.4544 22.139 35.661 22.8568L40.5963 17.9104C41.0002 17.5042 41.3977 17.0941 41.8039 16.6894C42.2117 16.284 42.6676 15.873 43.0289 15.4298C42.8412 14.9652 42.6834 14.5613 42.554 14.0747C41.8047 11.258 43.6047 8.14397 46.2541 7.07677C47.7788 6.46943 49.4825 6.49782 50.9859 7.15723C52.0989 7.63995 52.4191 7.97833 53.2804 8.8294C53.5391 9.21669 53.8278 9.58267 54.0431 9.99598C54.6363 11.1342 54.8493 12.6257 54.5764 13.8791C54.1386 15.888 53.1077 16.9702 51.5018 18.106C51.2888 19.1582 51.1074 20.7026 50.9536 21.7935L49.9763 28.763L48.9809 35.7428C48.8697 36.5631 48.7379 37.3818 48.6275 38.2005C48.5999 38.4072 48.6433 38.576 48.7726 38.7282C49.5638 39.6621 49.4415 40.3941 49.4289 41.5473C49.4155 42.7817 49.3682 44.1163 49.3295 45.3593C49.3082 46.3603 49.3847 46.8753 48.82 47.7438C48.581 48.0041 48.4792 48.0829 48.2339 48.3109C47.6487 48.6729 47.2503 48.837 46.5515 48.9104C46.0159 48.9427 44.9889 48.8788 44.3942 48.8749L39.526 48.8686H23.2585L12.7585 48.8772C11.8412 48.8796 10.9239 48.8875 10.0066 48.9025C9.34399 48.9111 8.58678 48.9435 7.93763 48.8599C7.73492 48.8078 7.53142 48.7605 7.32713 48.7179C6.9919 48.5728 6.78446 48.4426 6.47842 48.2462C6.13531 47.9457 5.70543 47.4385 5.61709 46.9826C5.43804 46.0621 5.50667 44.8727 5.48931 43.9072C5.46644 42.6168 5.34339 41.1955 5.46486 39.9256C5.50272 39.5257 5.94443 38.8339 6.1432 38.4671C6.08956 37.758 5.94285 36.9338 5.83873 36.2207L5.33156 32.7218L4.17208 24.5802C3.8826 22.602 3.54028 20.5725 3.30839 18.588L3.2792 18.3774C3.27368 18.3371 3.25633 18.2086 3.22951 18.1849C2.87851 17.8734 2.44785 17.6138 2.07397 17.3236L1.70641 16.9781C1.53288 16.7817 1.34042 16.5806 1.18819 16.3692C-2.36834 11.4158 2.70183 4.91004 8.4101 7.08151C9.8701 7.62575 11.0603 8.7174 11.7284 10.1253C12.3807 11.523 12.5535 13.2851 11.9856 14.7309C11.8538 15.0654 11.7 15.3966 11.5778 15.7287C12.2033 16.2501 12.8082 16.8582 13.3809 17.4395C15.2345 19.3223 17.1685 21.1522 18.9961 23.0579C19.2382 22.4482 19.4772 21.6302 19.6855 20.9834L20.9601 16.9962L22.2821 12.968C22.4848 12.3489 22.7593 11.5719 22.9273 10.9528L22.921 10.9559Z" fill="var(--fill-0, #EBEBEB)"></path>
<path id="Vector_2" d="M27.0084 2.0634C27.0407 2.06025 27.073 2.0563 27.1062 2.05315C28.2507 1.98295 29.3754 2.37654 30.2273 3.14479C31.1068 3.91068 31.6415 4.9976 31.7125 6.16181C31.7835 7.41831 31.3221 8.55649 30.527 9.5172C30.2794 9.81536 29.971 10.0946 29.7028 10.3935C29.8937 11.2769 30.4134 12.7858 30.6982 13.6929L32.8113 20.2917L34.1112 24.3302C34.2555 24.7663 34.4219 25.3563 34.6262 25.7649C34.795 26.1033 35.0813 25.8872 35.2793 25.7042C35.9608 25.0748 36.6194 24.4146 37.2844 23.763L40.4552 20.6719L43.5416 17.6509C44.1513 17.0546 44.9235 16.325 45.4883 15.6995C45.3282 15.4558 45.1373 15.2349 44.9756 14.9778C44.4566 14.1654 44.2397 13.1968 44.3603 12.2408C44.4897 11.1452 45.1333 10.1758 45.9844 9.4967C47.782 8.06115 50.5316 8.47052 51.8993 10.3036C52.5784 11.2004 52.864 12.3347 52.6897 13.4468C52.4964 14.6978 51.7723 15.6727 50.7391 16.3763C50.4732 16.5577 49.6427 16.9016 49.5954 17.2045C49.5015 17.8118 49.4155 18.4381 49.3272 19.047L48.6851 23.457C47.909 28.5847 47.1691 33.7188 46.4624 38.8568C46.9475 39.4996 47.3048 39.9374 47.3277 40.7837C47.3458 41.8754 47.3434 42.9552 47.2764 44.0468C47.2117 45.0951 47.5398 46.4889 46.0333 46.5575C45.4133 46.5851 44.7942 46.5559 44.1773 46.5535L40.3408 46.5417L27.8224 46.5535H15.464L10.972 46.5764C10.4128 46.5788 9.84963 46.5843 9.29039 46.5819C8.55369 46.5788 8.14669 46.5204 7.74915 45.8586C7.72786 44.4886 7.61664 43.0727 7.57641 41.6979C7.53382 40.2166 7.33111 40.0739 8.29892 38.8363C8.23109 37.9458 8.04336 36.8376 7.91558 35.9329L7.09606 30.2569C6.68906 27.3969 6.26628 24.5392 5.82931 21.6839C5.61003 20.1931 5.41757 18.4752 5.15018 17.0144C5.01215 16.9363 4.82758 16.8582 4.67692 16.7951C3.44251 16.2801 2.42422 15.276 2.09136 13.9414C1.81214 12.8292 1.9904 11.6516 2.58592 10.6727C3.1554 9.73806 4.12242 8.97848 5.19672 8.72923C6.31361 8.47446 7.48571 8.67559 8.45431 9.28689C9.3669 9.87688 10.0137 10.7989 10.2558 11.8583C10.4696 12.8071 10.3371 13.9382 9.84332 14.779C9.64061 15.1245 9.41502 15.4148 9.20205 15.7532C9.8378 16.4836 10.7007 17.3078 11.3964 18.0043L15.0775 21.6815C16.0319 22.6501 16.9966 23.6084 17.9715 24.5557C18.3517 24.9249 19.4883 26.1893 20.0231 26.0457C20.1808 25.858 24.8393 11.5562 25.0893 10.4448C24.8606 10.1687 24.5522 9.89739 24.3076 9.62211C23.6112 8.83571 23.1773 8.00515 23.063 6.95688C22.9273 5.79346 23.2641 4.62372 23.9969 3.70955C24.7738 2.75199 25.7842 2.19907 27.0044 2.06577L27.0084 2.0634Z" fill="var(--fill-0, #10100D)"></path>
<path id="Vector_3" d="M27.3933 11.2951C27.5384 11.4063 27.8232 12.3741 27.9091 12.6265L28.7705 15.1726L31.9918 24.9422C32.4421 26.2784 32.8673 27.8417 33.5275 29.0817C33.7389 29.48 33.9361 29.5967 34.3494 29.7008C35.2494 29.5313 35.6974 28.9255 36.3142 28.3024L37.7568 26.8526L44.1166 20.4905C44.5299 20.074 46.7676 17.6738 47.0603 17.5807C47.1699 17.7456 46.8371 19.6623 46.7866 20.0204L46.1635 24.5368C45.5537 28.7906 44.9827 33.0547 44.369 37.3069C44.3454 37.4717 44.2846 37.8424 44.171 37.9537C43.7451 38.0254 42.3435 37.7076 41.7866 37.6516C40.5569 37.5301 39.317 37.3779 38.0834 37.2753C34.4014 36.9543 30.7092 36.7697 27.0139 36.7192C25.8875 36.698 24.6855 36.7421 23.5575 36.7713C20.1051 36.8478 16.659 37.1042 13.2334 37.5388C12.7799 37.5979 10.7299 38.012 10.4925 37.8456C10.3899 37.5845 10.2393 36.2626 10.1927 35.9108C10.0303 34.6629 9.85909 33.4175 9.67925 32.172L8.17351 22.0191L7.71208 18.8554C7.6474 18.4105 7.51804 17.7755 7.4928 17.3472L7.55196 17.3078C7.82251 17.3189 8.36281 17.979 8.58445 18.1999L10.5437 20.1576L16.1045 25.7223C17.3168 26.9362 18.5252 28.2022 19.8219 29.3254C19.9813 29.4634 20.3062 29.5723 20.509 29.6409C20.7969 29.5399 21.121 29.3806 21.2583 29.1014C21.9161 27.7731 22.4611 25.9093 22.9368 24.4871L26.2441 14.5519C26.4373 13.9753 27.1496 11.6902 27.3909 11.2951H27.3933Z" fill="var(--fill-0, #EBEB10)"></path>
<path id="Vector_4" d="M9.79205 40.5755C10.427 40.2198 12.2199 39.9256 13.0228 39.7923C17.8635 38.9862 22.8745 38.7803 27.7719 38.8418C31.7977 38.8678 35.8188 39.1305 39.8147 39.6282C40.5159 39.7205 44.6467 40.2584 44.9535 40.6749C45.0647 41.1308 44.8549 43.8678 44.7768 44.4373C43.9052 44.4704 42.2717 44.2291 41.367 44.132C39.7516 43.9585 38.1323 43.8173 36.5114 43.7085C35.7826 43.6667 35.0545 43.6028 34.3241 43.5831C34.1443 43.5775 33.9668 43.5665 33.7886 43.542C28.4928 43.2597 23.1852 43.2928 17.8942 43.6422C16.4445 43.7266 14.9971 43.8489 13.5537 44.0106C12.5338 44.1312 11.1203 44.3742 10.117 44.3695C10.0492 43.3456 9.75576 41.5433 9.79284 40.5763L9.79205 40.5755Z" fill="var(--fill-0, #EBEB10)"></path>
<path id="Vector_5" d="M33.7877 43.5413C34.1474 43.5002 34.8265 43.5673 35.0182 43.5184C34.877 43.4734 34.9298 43.5136 34.8439 43.4127C34.9787 43.3172 35.8125 43.5192 36.0215 43.5113C36.1177 43.5081 36.2692 43.4703 36.3654 43.449L36.3796 43.4774L36.2203 43.5712L36.214 43.6083C36.3236 43.6698 36.3638 43.6272 36.5097 43.7077C35.7809 43.6659 35.0529 43.602 34.3225 43.5823C34.1427 43.5767 33.9652 43.5657 33.7869 43.5413H33.7877Z" fill="var(--fill-0, #DEC721)"></path>
<path id="Vector_6" d="M39.1032 40.0723C39.246 40.0746 39.3091 40.0668 39.4456 40.1141L39.444 40.1693L39.3138 40.2655L39.3343 40.2916L39.3115 40.3397L39.246 40.3113C39.1679 40.2119 39.1419 40.1945 39.1025 40.0731L39.1032 40.0723Z" fill="var(--fill-0, #DEC721)"></path>
<path id="Vector_7" d="M27.1787 4.02426C28.4439 3.87755 29.586 4.78858 29.7241 6.05454C29.8629 7.3205 28.944 8.45711 27.6764 8.58647C26.4223 8.71503 25.2991 7.80638 25.1626 6.55304C25.0254 5.29969 25.9262 4.17019 27.1787 4.02505V4.02426Z" fill="var(--fill-0, #EBEB10)"></path>
<path id="Vector_8" d="M48.3152 10.7343C49.4542 10.5694 50.5103 11.3613 50.6704 12.5011C50.8313 13.6401 50.0363 14.6939 48.8965 14.8508C47.7623 15.007 46.7148 14.2166 46.5547 13.0824C46.3946 11.9482 47.1817 10.8983 48.3152 10.7351V10.7343Z" fill="var(--fill-0, #EBEB10)"></path>
<path id="Vector_9" d="M5.84349 10.7209C6.97695 10.5536 8.03152 11.3353 8.20189 12.468C8.37227 13.6006 7.59376 14.6576 6.46188 14.8311C5.32528 15.0054 4.26281 14.223 4.09165 13.0856C3.92049 11.9482 4.7061 10.8881 5.84349 10.7209Z" fill="var(--fill-0, #EBEB10)"></path>
<path id="Vector_10" d="M2.06772 17.3267C2.44238 17.617 2.87225 17.8765 3.22325 18.1881C3.25086 18.2125 3.26742 18.3411 3.27294 18.3805C3.11361 18.4255 3.13964 18.4444 2.99136 18.4089C2.69872 18.3395 1.98647 17.7811 1.84686 17.5342C1.84055 17.3835 1.81926 17.4474 1.90286 17.3323L2.06693 17.326L2.06772 17.3267Z" fill="url(#paint0_linear_0_4)"></path>
<path id="Vector_11" d="M3.3029 18.5911C3.21535 18.6172 3.19721 18.6187 3.10571 18.629C2.41239 18.3537 1.49821 17.4167 1.20558 16.7494L1.24739 16.7312C1.3026 16.8314 1.32232 16.8795 1.36491 16.9836C1.51793 17.0191 1.48638 16.9655 1.70093 16.9813L2.06849 17.3267L1.90443 17.3331C1.82082 17.4474 1.84211 17.3835 1.84842 17.535C1.98725 17.7811 2.70029 18.3403 2.99292 18.4097C3.14199 18.4452 3.11518 18.4263 3.27451 18.3813L3.30369 18.5919L3.3029 18.5911Z" fill="var(--fill-0, black)"></path>
</g>
<defs>
<linearGradient id="paint0_linear_0_4" x1="2.47314" y1="17.994" x2="2.61354" y2="17.828" gradientUnits="userSpaceOnUse">
<stop stop-color="#BFC0BE" stop-opacity="0.17"></stop>
<stop offset="1" stop-color="#B3B3B1" stop-opacity="0.22"></stop>
</linearGradient>
<clipPath id="clip0_0_4">
<rect width="54.6912" height="49.58" fill="white"></rect>
</clipPath>
</defs>
</svg>