<svg preserveAspectRatio="none" width="100%" height="100%" overflow="visible" style="display: block;" viewBox="0 0 35.7793 35.6593" fill="none" xmlns="http://www.w3.org/2000/svg">
<g id="Group">
<path id="Vector" d="M11.0629 16.5396C10.6762 16.5396 10.1045 16.1559 10.0801 17.5958C10.0525 19.1533 10.6517 18.7147 11.0186 18.7345C12.9048 18.8278 14.7864 18.785 16.6725 18.7773C16.6725 20.8317 16.6679 22.8813 16.6802 24.9357C16.6802 25.3224 16.2965 25.8941 17.7364 25.9185C19.294 25.946 18.8553 25.3469 18.8751 24.98C18.9776 22.918 18.9179 20.8561 18.9179 18.7939C20.8699 18.8413 22.8234 18.9972 24.7723 19.4512C25.3042 19.5765 26.0791 19.7248 26.0639 17.7682C26.0486 16.1633 25.3164 16.3437 24.8227 16.336C22.8662 16.3085 20.9096 16.4736 18.9531 16.5164C19.0158 14.7509 19.1839 12.987 19.5951 11.2216C19.7204 10.6897 19.8687 9.91474 17.9122 9.93C16.3072 9.94529 16.4876 10.6775 16.4799 11.1712C16.457 12.955 16.59 14.7403 16.645 16.5285C14.7817 16.5285 12.92 16.5285 11.0568 16.5362L11.0629 16.5396Z" fill="var(--fill-0, #EBEBEB)"></path>
<path id="Vector_2" d="M35.7116 16.1451L35.4931 14.6624C35.4304 14.1656 35.2668 13.6918 35.1568 13.2026C34.6279 11.2767 33.7796 9.43787 32.6531 7.78699C30.3985 4.47311 26.9791 1.9953 23.1408 0.790862C21.2241 0.168766 19.1879 -0.0467641 17.1734 0.00825331C15.1589 0.0785668 13.1321 0.442366 11.2366 1.19747C7.44887 2.67707 4.12267 5.41612 1.99358 8.9809C1.51666 9.81853 1.00311 10.7723 0.666824 11.7903C0.581226 12.0441 0.475758 12.2917 0.4085 12.5454C0.350415 12.8038 0.290804 13.0575 0.232719 13.3128C0.119608 13.8172 0.0217822 14.3063 0.0171961 14.7756C-0.00573202 15.2448 -0.00573202 15.6789 0.0171961 16.0702C0.0798674 16.4615 0.170047 16.8055 0.283162 17.0883C0.513969 17.6523 0.85791 17.9534 1.34704 17.9213C1.75055 17.8984 2.05475 17.585 2.29016 17.1112C2.40786 16.8727 2.49804 16.5915 2.59128 16.2812C2.70898 15.9724 2.81445 15.6315 2.90769 15.2724C3.31429 13.8355 3.84314 12.0716 4.5631 10.7677C6.17113 7.82068 8.71445 5.34459 11.8022 3.97033C13.3399 3.27791 14.9831 2.83922 16.6661 2.65883C18.3521 2.48611 20.0595 2.63132 21.7058 3.00275C25.0196 3.73034 28.0171 5.69907 30.1614 8.33271C32.3213 10.9786 33.4921 14.3674 33.5426 17.7792C33.5578 21.3483 32.3564 24.9084 30.0881 27.6796C27.8305 30.4462 24.6098 32.3952 21.1186 33.1074C17.6167 33.7845 13.8873 33.2556 10.7412 31.5697C7.60314 29.8669 5.08256 27.065 3.72512 23.7667C3.53711 23.2103 3.28338 22.6004 3.1611 21.9508C3.08314 21.6298 3.00518 21.3134 2.9257 21C2.87526 20.6836 2.82023 20.3779 2.75298 20.089C2.59707 19.5143 2.51452 18.9931 2.32192 18.6094C2.13391 18.2258 1.87559 17.972 1.5118 17.9323C1.12049 17.8895 0.866772 18.1004 0.709312 18.507C0.631356 18.7073 0.576331 18.9564 0.536586 19.2392C0.493785 19.5204 0.481561 19.8383 0.521301 20.167C0.579386 20.8319 0.674156 21.587 0.904963 22.2993C1.01043 22.6555 1.08839 23.0238 1.21831 23.3555C1.34365 23.6918 1.46441 24.0128 1.57905 24.3108C2.996 28.0237 5.68774 31.2796 9.16683 33.2604C10.8926 34.2616 12.791 34.9708 14.7507 35.3545C16.7149 35.7534 18.7417 35.7335 20.7134 35.4523C22.6853 35.1512 24.6219 34.5413 26.3795 33.589C28.1358 32.6383 29.7331 31.3971 31.083 29.9297C32.4296 28.4623 33.5516 26.7763 34.3388 24.9359C35.1168 23.0971 35.583 21.1283 35.7236 19.141C35.7389 18.6443 35.8016 18.1429 35.771 17.6461L35.6961 16.1512L35.7116 16.1451Z" fill="var(--fill-0, #EBEBEB)"></path>
</g>
</svg>