<svg preserveAspectRatio="none" width="100%" height="100%" overflow="visible" style="display: block;" viewBox="0 0 36 36" fill="none" xmlns="http://www.w3.org/2000/svg">
<g id="backArrow">
<circle id="Ellipse" cx="18" cy="18" r="18" fill="var(--fill-0, black)"></circle>
<g id="back arrow" clip-path="url(#clip0_0_8)">
<path id="Vector" d="M17.949 5.96169C21.059 5.92091 24.0607 7.1027 26.3081 9.25275C28.521 11.3688 29.8123 14.2706 29.903 17.331C29.9158 17.7064 29.7447 18 29.4894 18C29.2341 18 29.0426 17.7242 29.0171 17.3821V17.2851C28.7554 14.5268 27.4393 11.9759 25.343 10.1642C23.2825 8.38651 20.6158 7.47198 17.8979 7.61105C15.2312 7.75576 12.7223 8.92037 10.8905 10.8638C9.05876 12.8072 8.04445 15.3806 8.05757 18.0511C8.07069 20.7217 9.11025 23.285 10.961 25.2103C12.8118 27.1356 15.3321 28.2755 18.0001 28.394C20.7142 28.5003 23.3653 27.5588 25.4043 25.7642C27.4832 23.9352 28.7756 21.3741 29.012 18.6153C29.0452 18.2706 29.2571 18 29.4894 18C29.7218 18 29.9133 18.2885 29.9081 18.6689V18.7659C29.7887 21.8283 28.4711 24.7211 26.2392 26.8213C23.9548 28.9598 20.9224 30.1165 17.7941 30.0425C14.6657 29.9685 11.6914 28.6697 9.5107 26.4255C7.29649 24.1623 6.06191 21.1186 6.07385 17.9524C6.0858 14.7863 7.34331 11.752 9.57453 9.50552C11.7892 7.26577 14.7993 5.99198 17.949 5.96169Z" fill="var(--fill-0, #EBEBEB)"></path>
<path id="Vector_2" d="M24.2988 17.5583C24.3499 17.5583 24.3907 17.76 24.3907 17.9974C24.3907 18.2349 24.3499 18.4289 24.2988 18.4366H24.2835C21.2125 19.0544 18.0536 19.0977 14.9669 18.5642C15.8708 19.5535 16.7132 20.5971 17.4894 21.6894C17.5201 21.7404 17.4128 21.914 17.2341 22.0825C17.0554 22.2511 16.892 22.3583 16.8409 22.3379H16.8256C15.2746 21.2504 13.8222 20.0287 12.4852 18.6868C12.3081 18.5092 12.2086 18.2687 12.2086 18.0179C12.2086 17.7671 12.3081 17.5265 12.4852 17.3489C13.8324 15.9993 15.295 14.7699 16.8562 13.6749C16.9022 13.6391 17.0733 13.7438 17.2418 13.9123C17.4103 14.0808 17.515 14.2519 17.4894 14.2979V14.3132C16.7173 15.401 15.8791 16.4404 14.9796 17.4255C18.0676 16.8938 21.2273 16.9388 24.2988 17.5583Z" fill="var(--fill-0, #EBEBEB)"></path>
</g>
</g>
<defs>
<clipPath id="clip0_0_8">
<rect width="24" height="24" fill="white" transform="matrix(-1 0 0 1 30 6)"></rect>
</clipPath>
</defs>
</svg>