<svg width="261" height="149" viewBox="0 0 261 149" fill="none" xmlns="http://www.w3.org/2000/svg">
<g clip-path="url(#clip0_308_569)">
<path d="M13.0957 61.8183L34.4354 116.384C39.6836 129.8 53.2255 138.076 67.5578 136.626L207.863 122.43C221.925 121.007 233.395 110.532 236.082 96.6561L246.24 44.195C249.268 28.5497 237.003 14.135 221.077 14.6165L40.667 20.0906C19.5232 20.7313 5.39189 42.1221 13.096 61.8234L13.0957 61.8183Z" fill="#EB10EB" stroke="#EBEBEB" stroke-width="12" stroke-miterlimit="10"></path>
<path d="M13.0957 61.8183L34.4354 116.384C39.6836 129.8 53.2255 138.076 67.5578 136.626L207.863 122.43C221.925 121.007 233.395 110.532 236.082 96.6561L246.24 44.195C249.268 28.5497 237.003 14.135 221.077 14.6165L40.667 20.0906C19.5232 20.7313 5.39189 42.1221 13.096 61.8234L13.0957 61.8183Z" fill="#EB1010" stroke="#101010" stroke-width="4.09706" stroke-miterlimit="10"></path>
<path d="M68.4895 88.275C69.3933 88.0601 69.8252 87.5793 69.7851 86.8325C69.7436 86.058 69.4487 85.214 68.9004 84.3003C68.3782 83.3574 67.624 82.4825 66.6376 81.6756C64.0573 79.5949 60.6651 78.6674 56.461 78.8929C54.3866 79.0042 52.469 79.4538 50.7083 80.2417C48.7479 79.376 47.1443 77.9226 45.8976 75.8814C44.6508 73.8401 43.9621 71.6025 43.8316 69.1686C43.4903 62.8071 45.8822 57.7553 51.0072 54.0131C55.4121 50.8088 60.9612 49.0271 67.6546 48.668C72.6332 48.4009 76.8524 48.7155 80.3122 49.6117C83.7706 50.4802 86.623 51.6864 88.8694 53.2302C89.6035 55.0215 90.0232 56.899 90.1286 58.8628C90.2339 60.8266 90.0669 62.6246 89.6274 64.257C89.1879 65.8894 88.4963 67.2164 87.5525 68.2378C86.5751 67.5968 84.8362 66.9828 82.336 66.3957C79.8358 65.8086 77.5762 65.5692 75.5571 65.6776C73.538 65.7859 72.1894 65.983 71.5113 66.2691C70.8609 66.5536 70.5497 66.9586 70.5779 67.4841C70.5913 67.7331 70.6454 67.9659 70.7402 68.1828C71.6949 67.8819 72.9329 67.6907 74.4541 67.6091C79.8475 67.3197 84.3135 68.3561 87.852 70.7182C92.0257 73.5455 94.2758 78.0016 94.6022 84.0865C94.8901 89.4523 92.9578 94.0218 88.8053 97.795C84.3066 101.837 78.0882 104.07 70.1502 104.496C65.7801 104.73 61.9731 104.602 58.7291 104.11C55.4866 103.646 52.3003 102.68 49.1703 101.211C46.9342 98.3076 45.733 95.3069 45.5669 92.2092C45.3992 89.0837 46.3253 86.4405 48.3452 84.2796C50.3652 82.1186 52.924 80.955 56.0218 80.7888C59.1472 80.6211 61.7259 81.1208 63.7579 82.2877C65.8176 83.4532 67.3948 85.449 68.4895 88.275ZM119.458 54.9178L119.558 56.7848C118.575 59.1398 117.828 60.9828 117.317 62.314C116.804 63.6174 116.561 64.5042 116.586 64.9744C116.629 65.7765 117.107 66.1531 118.019 66.1041L125.231 47.7429C127.073 46.3959 129.639 45.6341 132.931 45.4575C136.25 45.2795 139.148 46.0394 141.624 47.7373C144.334 49.6445 145.784 52.3683 145.974 55.9086C146.132 58.8681 145.279 61.8402 143.415 64.825C141.548 67.7822 139.04 70.3993 135.889 72.6765C134.322 71.9007 132.929 71.5454 131.712 71.6107C130.495 71.676 129.919 72.3033 129.983 73.4926C131.268 73.6733 132.435 73.9713 133.484 74.3866C134.559 74.7727 135.836 75.5779 137.317 76.8022L148.898 86.3747C148.576 95.3792 144.336 100.1 136.177 100.538C133.162 100.7 130.534 100.064 128.294 98.6308C125.653 96.9695 123.515 94.3381 121.879 90.7367L117.504 81.3185L117.297 81.3296C116.384 81.3786 115.948 81.7903 115.99 82.5647C116.017 83.0626 116.468 84.2449 117.345 86.1118C118.231 88.1447 119.541 90.8482 121.275 94.2225L121.447 97.417C118.682 100.173 114.534 101.699 109.002 101.996C106.015 102.156 103.42 101.616 101.218 100.375C98.7329 99.0377 97.4177 97.014 97.2723 94.3035L94.9755 51.4879C97.6848 48.7352 101.944 47.203 107.752 46.8915C110.767 46.7297 113.359 47.2286 115.53 48.3882C117.99 49.7818 119.299 51.9583 119.458 54.9178ZM172.958 51.6734L175.257 94.5304C174.044 95.705 172.392 96.7228 170.303 97.5839C168.213 98.4449 165.647 98.957 162.605 99.1202C159.562 99.2834 156.94 98.7445 154.737 97.5035C152.252 96.1667 150.938 94.1568 150.794 91.4739L148.495 48.6169C149.708 47.4423 151.359 46.4245 153.449 45.5635C155.538 44.7024 158.091 44.191 161.105 44.0293C164.12 43.8676 166.77 44.3912 169.054 45.6001C171.514 46.9937 172.815 49.0181 172.958 51.6734ZM200.194 68.4363C200.309 68.5133 200.63 68.5377 201.155 68.5095C201.681 68.4814 202.071 68.2524 202.325 67.8227C202.579 67.393 202.681 66.7079 202.631 65.7675L202.462 62.6144C202.408 61.6187 202.246 60.9201 201.975 60.5186C201.73 60.0879 201.331 59.8874 200.777 59.9171C200.252 59.9453 199.895 60.0199 199.708 60.1409C199.743 60.2777 199.769 60.5121 199.787 60.844L200.194 68.4363ZM202.237 87.1332L202.578 93.4808C201.416 94.5695 199.746 95.5051 197.569 96.2876C195.391 97.0424 193.098 97.4844 190.692 97.6135C187.262 97.7975 184.419 97.2843 182.163 96.0739C179.592 94.6862 178.23 92.5541 178.075 89.6776L175.961 50.264C175.913 49.379 176.461 48.462 177.602 47.5131C178.772 46.5627 180.402 45.6709 182.493 44.8375C186.974 43.0438 192.146 41.9897 198.01 41.6751C206.114 41.2404 212.68 42.913 217.71 46.693C222.739 50.473 225.437 55.7788 225.803 62.6105C226.168 69.4145 224.281 74.8276 220.142 78.8498C216.158 82.6695 210.46 84.7781 203.048 85.1758C201.361 85.2663 199.539 85.1699 197.582 84.8865C195.651 84.574 194.346 84.2834 193.665 84.0148C193.456 84.2479 193.362 84.5581 193.383 84.9453C193.458 86.3559 196.41 87.0852 202.237 87.1332Z" fill="white"></path>
</g>
<defs>
<clipPath id="clip0_308_569">
<rect width="254" height="135.751" fill="white" transform="translate(0 13.2233) rotate(-2.98418)"></rect>
</clipPath>
</defs>
</svg>