<svg preserveAspectRatio="none" width="100%" height="100%" overflow="visible" style="display: block;" viewBox="0 0 25 28" fill="none" xmlns="http://www.w3.org/2000/svg">
<g id="noun-tv-1615952 1" clip-path="url(#clip0_0_4)">
<path id="Vector" d="M20.4035 11.3629C20.6251 11.3813 20.8341 11.4738 20.9972 11.6257C21.1455 11.7639 21.2611 11.9338 21.3353 12.1229C21.4718 12.1623 21.6142 12.1768 21.7558 12.1657C21.9546 12.1657 22.108 12.1343 22.1137 12.0943C22.1782 11.7112 22.109 11.3175 21.9177 10.98C21.788 10.7456 21.6128 10.5398 21.4025 10.3749C21.1921 10.2099 20.9509 10.0893 20.6933 10.02C20.3831 9.93514 20.0579 9.92138 19.7418 9.97973C19.4256 10.0381 19.1265 10.1671 18.8665 10.3571C18.5826 10.5637 18.3514 10.8351 18.1919 11.149C18.0325 11.4629 17.9493 11.8104 17.9493 12.1629C17.9493 12.5153 18.0325 12.8628 18.1919 13.1767C18.3514 13.4906 18.5826 13.762 18.8665 13.9686C19.1266 14.1586 19.4258 14.2872 19.742 14.3451C20.0582 14.403 20.3833 14.3885 20.6933 14.3029C20.9499 14.2329 21.19 14.1119 21.3993 13.947C21.6087 13.7821 21.783 13.5767 21.912 13.3429C22.1013 13.0057 22.1686 12.6129 22.1023 12.2314C22.1023 12.1886 21.912 12.16 21.6961 12.1629C21.5763 12.1539 21.4558 12.1674 21.341 12.2029C21.2659 12.3931 21.1494 12.5639 21.0001 12.7029C20.8352 12.8556 20.6241 12.9481 20.4006 12.9657C20.2879 12.9744 20.1746 12.9604 20.0673 12.9246C19.96 12.8888 19.8609 12.8319 19.7756 12.7571C19.6908 12.6834 19.6228 12.5921 19.5762 12.4896C19.5296 12.387 19.5054 12.2756 19.5054 12.1629C19.5054 12.0501 19.5296 11.9387 19.5762 11.8361C19.6228 11.7336 19.6908 11.6423 19.7756 11.5686C19.8614 11.494 19.9611 11.4374 20.0689 11.4021C20.1768 11.3668 20.2905 11.3534 20.4035 11.3629Z" fill="var(--fill-0, #EBEBEB)"></path>
<path id="Vector_2" d="M18.8695 19.2971C19.1295 19.4871 19.4287 19.6158 19.7449 19.6737C20.0611 19.7315 20.3863 19.7171 20.6962 19.6314C20.9528 19.5615 21.1929 19.4405 21.4022 19.2756C21.6116 19.1107 21.7859 18.9053 21.9149 18.6714C22.1042 18.3342 22.1715 17.9415 22.1053 17.56C22.1053 17.5171 21.9149 17.4886 21.699 17.4914C21.5792 17.4824 21.4588 17.496 21.3439 17.5314C21.2688 17.7216 21.1524 17.8925 21.003 18.0314C20.8381 18.1841 20.627 18.2767 20.4035 18.2943C20.2908 18.3029 20.1775 18.289 20.0702 18.2532C19.9629 18.2174 19.8638 18.1604 19.7785 18.0857C19.6938 18.012 19.6257 17.9207 19.5791 17.8182C19.5325 17.7156 19.5084 17.6042 19.5084 17.4914C19.5084 17.3787 19.5325 17.2672 19.5791 17.1647C19.6257 17.0622 19.6938 16.9709 19.7785 16.8971C19.8636 16.8233 19.9624 16.7671 20.0692 16.7318C20.176 16.6965 20.2886 16.6828 20.4007 16.6914C20.6223 16.7096 20.8314 16.8022 20.9945 16.9543C21.1427 17.0924 21.2583 17.2623 21.3325 17.4514C21.469 17.4909 21.6114 17.5054 21.753 17.4943C21.9518 17.4943 22.1053 17.4629 22.1109 17.4229C22.1754 17.0398 22.1062 16.6461 21.9149 16.3086C21.7853 16.0742 21.61 15.8684 21.3997 15.7034C21.1893 15.5385 20.9482 15.4178 20.6905 15.3486C20.3803 15.2637 20.0552 15.2499 19.739 15.3083C19.4229 15.3666 19.1238 15.4956 18.8638 15.6857C18.5798 15.8923 18.3486 16.1637 18.1891 16.4776C18.0297 16.7915 17.9466 17.1389 17.9466 17.4914C17.9466 17.8439 18.0297 18.1914 18.1891 18.5053C18.3486 18.8192 18.5798 19.0906 18.8638 19.2971H18.8695Z" fill="var(--fill-0, #EBEBEB)"></path>
<path id="Vector_3" d="M14.3921 20.3343C14.2728 20.36 14.1705 20.5486 14.1762 20.7714C14.1739 20.8145 14.1802 20.8577 14.1948 20.8983C14.2094 20.9389 14.2319 20.9761 14.261 21.0078C14.2902 21.0395 14.3253 21.065 14.3644 21.0828C14.4035 21.1006 14.4458 21.1103 14.4887 21.1114C14.8634 21.0811 15.2262 20.9652 15.5497 20.7726C15.8731 20.58 16.1486 20.3158 16.3552 20C16.6012 19.6214 16.7415 19.1833 16.7614 18.7314C16.7813 18.3314 16.7898 17.9629 16.804 17.5571C16.8523 15.9571 16.895 14.1486 16.9262 12.2V11.4629V11.0886C16.9262 10.9629 16.9262 10.8514 16.9262 10.6657C16.8844 9.96233 16.5815 9.30037 16.0775 8.81092C15.5734 8.32147 14.905 8.04022 14.2046 8.02286L12.6023 8H6.02279C5.44706 8.0013 4.88531 8.17849 4.41197 8.50811C3.93863 8.83772 3.57603 9.30419 3.37223 9.84571C3.30366 10.0237 3.25414 10.2086 3.2245 10.3971C3.20782 10.4916 3.19738 10.587 3.19325 10.6829C3.19325 10.7771 3.19325 10.8829 3.19325 10.94L3.21313 14.2229L3.24438 17.4V18.1714C3.2413 18.4575 3.25268 18.7436 3.27848 19.0286C3.36589 19.6929 3.69112 20.3024 4.19325 20.7429C4.66895 21.1656 5.27744 21.4063 5.912 21.4229H6.287H6.63075L7.30688 21.4086L9.84098 21.34C11.4319 21.2886 12.8126 21.2314 13.9177 21.1657C14.0711 21.1657 14.2018 20.9714 14.179 20.7543C14.1563 20.5371 14.0569 20.4086 13.9177 20.4C12.8154 20.3343 11.4319 20.2743 9.84098 20.2257L7.30688 20.1571L6.63075 20.1429H6.287H6.02563H5.96598C5.646 20.1176 5.34471 19.9812 5.1137 19.7571C4.87316 19.5324 4.72092 19.2282 4.68473 18.9C4.68473 18.7714 4.68473 18.4743 4.68473 18.2257V17.4543L4.71598 14.2771L4.73586 10.9943C4.73586 10.9143 4.73586 10.8829 4.73586 10.8371C4.73698 10.794 4.74173 10.7509 4.75007 10.7086C4.7634 10.6234 4.78627 10.54 4.81825 10.46C4.88332 10.2977 4.9799 10.1501 5.10234 10.0257C5.2219 9.89967 5.36559 9.79925 5.52475 9.73051C5.68391 9.66176 5.85526 9.62612 6.02848 9.62571L12.608 9.60286H14.1961C14.536 9.60121 14.8636 9.73113 15.1109 9.96571C15.3566 10.1949 15.5093 10.5073 15.5398 10.8429C15.5398 10.9086 15.5398 11.0486 15.5398 11.1714V11.5457V12.2829C15.5711 14.2314 15.6137 16.0429 15.662 17.64L15.6989 18.7829C15.7054 19.0549 15.6407 19.3238 15.5114 19.5629C15.3888 19.7629 15.2258 19.9349 15.033 20.0678C14.8402 20.2007 14.6219 20.2914 14.3921 20.3343Z" fill="var(--fill-0, #EBEBEB)"></path>
<path id="Vector_4" d="M9.3551 12.4086C9.38842 12.2751 9.39993 12.1371 9.38919 12C9.39827 11.8769 9.38577 11.7531 9.35226 11.6343C8.94747 11.4825 8.52413 11.3864 8.09374 11.3486L7.69033 11.3057L7.4801 11.2886H7.42613C7.37881 11.286 7.33139 11.286 7.28408 11.2886C7.18689 11.2993 7.09144 11.3224 6.99999 11.3571C6.78024 11.4408 6.59035 11.5886 6.45469 11.7815C6.31904 11.9744 6.24379 12.2038 6.23863 12.44V12.84C6.23863 14.0343 6.37499 15.2286 6.63919 15.8229C6.7727 15.8571 6.91097 15.8687 7.04828 15.8571C7.16321 15.8584 7.27752 15.84 7.38635 15.8029C7.65056 15.2086 7.78692 14.0143 7.78692 12.82V12.7371L8.0909 12.7057C8.52374 12.6648 8.94904 12.5648 9.3551 12.4086ZM7.43181 12.7686H7.50567H7.4659H7.43181Z" fill="var(--fill-0, #EBEBEB)"></path>
<path id="Vector_5" d="M22.2187 24.4171C22.8184 24.3241 23.3765 24.0524 23.821 23.6371C24.3226 23.1679 24.6537 22.5433 24.7614 21.8629C24.7782 21.7742 24.7887 21.6845 24.7926 21.5943C24.7926 21.5029 24.7926 21.4086 24.7926 21.3371V20.8657L24.8125 19.8914L24.8523 17.8314C24.9006 14.9914 24.9432 11.7771 24.9744 8.31428C24.9836 8.06027 24.9703 7.80593 24.9347 7.55428C24.8162 6.71619 24.3832 5.95552 23.7244 5.42857C23.2756 5.07147 22.7419 4.83809 22.1761 4.75143C22.0342 4.72807 21.8909 4.7147 21.7472 4.71143C21.6023 4.71143 21.5114 4.71143 21.392 4.71143H20.7074L15.0966 4.68H14.2614C15.0849 3.76775 15.8264 2.7839 16.4773 1.74C16.4972 1.70571 16.3778 1.55428 16.2159 1.40571C16.054 1.25714 15.9318 1.18571 15.9063 1.20571C14.8289 2.00528 13.8257 2.90132 12.9091 3.88286C11.7926 2.28571 10.608 0.774285 9.84659 0.0999992C9.81818 0.0742849 9.64773 0.157142 9.47443 0.279999C9.30114 0.402856 9.20739 0.499999 9.22159 0.531428C9.57102 1.46571 10.5057 3.06571 11.571 4.66571L3.40909 4.65143C2.7674 4.65466 2.13947 4.83877 1.59659 5.18286C1.05319 5.53047 0.618811 6.02578 0.34375 6.61143C0.205264 6.89964 0.109549 7.20671 0.0596591 7.52286C0.0280195 7.67441 0.00807374 7.82821 0 7.98286C0 8.06857 0 8.13143 0 8.19143V9.85143L0.0198864 15.68L0.0568181 21.3257C0.0568181 21.4257 0.0568182 21.6114 0.0738637 21.7371C0.0896185 21.8822 0.113329 22.0262 0.144886 22.1686C0.339538 23.0186 0.854972 23.7593 1.58239 24.2343C2.05326 24.5411 2.59375 24.723 3.15341 24.7629C3.45455 24.78 3.63636 24.7629 3.8608 24.7629H4.375C4.3428 24.9057 4.31345 25.061 4.28693 25.2286C4.26136 25.3829 4.23864 25.5486 4.21875 25.7229L4.19034 25.9886V26.0571V26.1486C4.18422 26.2256 4.18422 26.303 4.19034 26.38C4.24004 26.7665 4.41797 27.1249 4.69534 27.3971C4.97272 27.6693 5.3333 27.8395 5.71875 27.88H5.85511H5.94034H6.25852H6.90057H7.54261H7.86079C7.89489 27.88 8.01704 27.88 8.09943 27.8657C8.18974 27.8534 8.27901 27.8343 8.36648 27.8086C8.69645 27.7148 8.99062 27.5231 9.21059 27.2586C9.43055 26.994 9.56606 26.6689 9.59943 26.3257C9.60471 26.2487 9.60471 26.1713 9.59943 26.0943C9.59943 26.0343 9.59943 25.9971 9.59943 25.9486L9.57102 25.6829C9.55114 25.5086 9.52841 25.3457 9.50284 25.1886C9.47727 25.0314 9.44318 24.8429 9.40909 24.6914C11.6818 24.66 13.8182 24.6257 15.7358 24.5886C15.6903 24.7657 15.6506 24.9657 15.6136 25.1886C15.5881 25.3429 15.5653 25.5086 15.5455 25.6829L15.517 25.9486V26.0914C15.5118 26.1685 15.5118 26.2458 15.517 26.3229C15.5498 26.665 15.6841 26.9893 15.9024 27.2537C16.1208 27.5182 16.4131 27.7105 16.7415 27.8057C16.8289 27.8315 16.9182 27.8506 17.0085 27.8629C17.0909 27.8629 17.2131 27.8771 17.2472 27.88H17.5653H18.2074H18.8494H19.1676H19.2528H19.3892C19.776 27.8408 20.1383 27.6713 20.4173 27.399C20.6963 27.1268 20.8756 26.7677 20.9261 26.38C20.9323 26.303 20.9323 26.2256 20.9261 26.1486V26.0571V25.9886L20.8977 25.7229C20.8778 25.5486 20.8551 25.3857 20.8295 25.2286C20.792 24.975 20.7389 24.7241 20.6705 24.4771L21.2386 24.46C21.5227 24.46 21.7216 24.2657 21.7017 24.0486C21.6795 23.9436 21.6205 23.85 21.5355 23.785C21.4505 23.72 21.3452 23.6878 21.2386 23.6943C17.3182 23.56 11.4233 23.46 4.53693 23.3943H3.8892C3.68182 23.3943 3.42614 23.3943 3.28977 23.38C2.96546 23.3509 2.65373 23.2398 2.38352 23.0571C1.96933 22.7777 1.67908 22.3475 1.57386 21.8571C1.55682 21.7771 1.5483 21.6943 1.53693 21.6114C1.52557 21.5286 1.53693 21.4629 1.53693 21.3257L1.56818 15.6829L1.58807 9.85428C1.58807 9.36286 1.58807 8.87143 1.58807 8.38V8.19428C1.58807 8.12857 1.58807 8.06857 1.58807 8.03143C1.58898 7.94417 1.59754 7.85717 1.61364 7.77143C1.64139 7.59949 1.69504 7.43282 1.77273 7.27714C1.92252 6.96669 2.1545 6.70378 2.44318 6.51728C2.73186 6.33078 3.06607 6.22792 3.40909 6.22L15.0938 6.19714L20.7045 6.16571H21.3892C21.4972 6.16571 21.6307 6.16571 21.7131 6.16571C21.7958 6.1662 21.8784 6.17289 21.9602 6.18571C22.286 6.22944 22.5946 6.35852 22.8551 6.56C23.242 6.85675 23.5013 7.29127 23.5795 7.77428C23.6077 7.95281 23.6191 8.13361 23.6136 8.31428C23.6449 11.7771 23.6875 14.9886 23.7358 17.8314L23.7756 19.8914L23.8097 20.8571V21.3286C23.8097 21.4114 23.8097 21.4714 23.8097 21.5343C23.815 21.597 23.815 21.6601 23.8097 21.7229C23.7566 22.204 23.5469 22.6541 23.2131 23.0029C22.9048 23.323 22.5096 23.5446 22.0767 23.64C21.9685 23.666 21.87 23.7225 21.7926 23.8029C21.7555 23.8403 21.7262 23.8849 21.7067 23.934C21.6872 23.9831 21.6777 24.0357 21.679 24.0886C21.6915 24.1466 21.7157 24.2014 21.75 24.2497C21.7844 24.2981 21.8281 24.3388 21.8786 24.3696C21.9291 24.4003 21.9853 24.4204 22.0438 24.4286C22.1023 24.4367 22.1618 24.4329 22.2187 24.4171ZM8.36932 25.2029C8.34375 25.3571 8.32102 25.5229 8.30114 25.6971L8.27273 25.9629C8.27273 26.0057 8.27273 26.06 8.27273 26.0943C8.26798 26.1099 8.26229 26.1251 8.25568 26.14C8.23329 26.1953 8.19682 26.2437 8.14995 26.2803C8.10307 26.3169 8.04744 26.3404 7.98864 26.3486H7.87216H7.55398H6.91193L6.25 26.3429H5.93182H5.7983C5.73727 26.3376 5.67875 26.316 5.6288 26.2803C5.57885 26.2446 5.53929 26.1962 5.5142 26.14C5.50692 26.1254 5.5012 26.1101 5.49716 26.0943V26.06V25.9914L5.46875 25.7257C5.44886 25.5514 5.42614 25.3886 5.40057 25.2314C5.375 25.0743 5.34375 24.9029 5.30966 24.7571L8.46591 24.7229C8.42898 24.8571 8.39773 25.0257 8.36932 25.2029ZM19.6847 25.2286C19.6591 25.3829 19.6364 25.5486 19.6165 25.7229L19.6023 26V26.0686V26.1029C19.5983 26.1187 19.5926 26.134 19.5852 26.1486C19.5604 26.205 19.5209 26.2536 19.4709 26.2893C19.4209 26.325 19.3623 26.3464 19.3011 26.3514H19.1648H18.8466H18.2045H17.5625H17.2443H17.1278C17.0658 26.3457 17.0065 26.3229 16.9564 26.2856C16.9063 26.2484 16.8674 26.198 16.8438 26.14C16.8371 26.1242 16.8314 26.108 16.8267 26.0914V25.96L16.7983 25.6943C16.7784 25.52 16.7557 25.3571 16.7301 25.2C16.6932 24.9686 16.6506 24.7629 16.6051 24.5829C17.7784 24.5571 18.8778 24.5314 19.8551 24.5029C19.7851 24.7412 19.7291 24.9836 19.6875 25.2286H19.6847Z" fill="var(--fill-0, #EBEBEB)"></path>
</g>
<defs>
<clipPath id="clip0_0_4">
<rect width="25" height="28" fill="white"></rect>
</clipPath>
</defs>
</svg>