<svg preserveAspectRatio="none" width="100%" height="100%" overflow="visible" style="display: block;" viewBox="0 0 32 32" fill="none" xmlns="http://www.w3.org/2000/svg">
<path id="Vector" opacity="0.5" d="M0.306087 12.7899C0.535935 13.2131 0.867449 13.4342 1.34334 13.4123C1.73229 13.3932 2.02257 13.1692 2.24062 12.828C2.35407 12.6596 2.43658 12.4575 2.51909 12.2364C2.62075 12.0153 2.70768 11.7751 2.78725 11.5159C3.11581 10.4967 3.48564 9.24466 4.00132 8.31039C5.15939 6.21046 6.97753 4.44575 9.19212 3.46319C10.2942 2.96823 11.47 2.65337 12.6767 2.5216C13.8878 2.3942 15.1136 2.49524 16.2982 2.75737C18.6777 3.27136 20.8391 4.67278 22.3863 6.55153C23.9437 8.44058 24.7894 10.8626 24.8263 13.3039C24.8381 15.8563 23.9732 18.4056 22.3407 20.3857C20.7156 22.3655 18.3995 23.7596 15.8829 24.2691C13.3591 24.7524 10.6774 24.3775 8.41433 23.1708C6.15565 21.9525 4.34037 19.9507 3.36347 17.5885C3.23087 17.1916 3.05112 16.7523 2.96712 16.2881C2.91114 16.0597 2.85368 15.8312 2.80063 15.6101C2.76233 15.3846 2.72107 15.1635 2.66803 14.9584C2.54427 14.5499 2.46765 14.1794 2.28643 13.9055C2.11257 13.6317 1.86357 13.4486 1.51732 13.4179C1.14013 13.3842 0.895569 13.5409 0.736435 13.8411C0.593516 14.1413 0.483013 14.5836 0.52869 15.0814C0.562577 15.5793 0.634773 16.1416 0.811577 16.6747C0.894086 16.9412 0.954496 17.2106 1.05321 17.4625C1.1475 17.7144 1.23738 17.9502 1.32431 18.1742C2.38072 20.9477 4.4022 23.3772 7.01148 24.8576C8.30952 25.6073 9.73131 26.136 11.2061 26.4215C12.681 26.7217 14.2015 26.7071 15.6837 26.4962C17.1659 26.2707 18.6186 25.8138 19.9387 25.1051C20.7417 24.6745 21.4931 24.1532 22.1944 23.5674C22.0589 23.9804 22.3418 24.159 22.5156 24.3392C23.715 25.5722 25.0837 26.6339 26.3022 27.8449C27.5766 29.1116 28.8482 30.3827 30.1298 31.6421C30.3405 31.8485 30.3906 32.4211 31.3851 31.459C32.4607 30.4208 31.8375 30.39 31.6489 30.1806C29.3106 27.5491 26.4241 25.4609 24.6634 22.2628C24.5308 22.0226 24.354 21.7268 23.8943 21.8923C24.7165 20.9141 25.4104 19.8231 25.9129 18.6502C26.4978 17.278 26.8485 15.8093 26.9545 14.3244C27.2035 11.3517 26.3239 8.31885 24.6428 5.85139C22.9528 3.37365 20.3878 1.51815 17.5027 0.607565C16.0588 0.134579 14.5265 -0.0294308 13.0105 0.00423344C11.4944 0.0496277 9.96354 0.314679 8.52538 0.869681C5.65818 1.96066 3.12826 4.00345 1.49166 6.67582C0.71813 7.90884 0.0477618 9.62946 0.00208484 11.0514C-0.00528193 11.4073 0.00650514 11.7367 0.0433413 12.0296C0.108172 12.3254 0.198047 12.5846 0.311496 12.7941L0.306087 12.7899Z" fill="var(--fill-0, black)"></path>
</svg>