<svg width="255" height="146" viewBox="0 0 255 146" fill="none" xmlns="http://www.w3.org/2000/svg">
<g clip-path="url(#clip0_309_982)">
<path d="M17.8405 49.847L7.51493 106.207C4.35166 123.47 17.837 139.286 35.3812 138.894L217.031 134.835C224.969 134.659 232.103 131.559 237.484 126.626C244.604 120.098 248.66 110.362 247.454 99.9231L239.325 29.4568C237.724 15.5624 225.149 5.60716 211.258 7.22934L42.2438 26.9777C29.9681 28.413 20.0692 37.6912 17.8405 49.847Z" fill="#EBEB10" stroke="#EBEBEB" stroke-width="14.106" stroke-miterlimit="10"></path>
<path d="M17.3503 50.2912L7.02469 106.652C3.86143 123.914 17.3467 139.73 34.891 139.339L216.54 135.28C224.479 135.103 231.613 132.004 236.994 127.07C244.114 120.542 248.17 110.806 246.964 100.367L238.835 29.9011C237.234 16.0067 224.658 6.05143 210.768 7.67362L41.7536 27.422C29.4778 28.8572 19.579 38.1354 17.3503 50.2912Z" fill="#10EB10" stroke="#101010" stroke-width="3.52649" stroke-miterlimit="10"></path>
<path d="M44.6389 64.735L60.4189 63.8885C60.9946 64.7353 61.4379 65.6715 61.7489 66.697C62.0589 67.7043 62.236 68.6182 62.28 69.4387C62.3787 71.2801 62.0884 72.6853 61.409 73.6543C60.7479 74.6223 59.77 75.141 58.4755 75.2104L47.4541 75.8017C46.7795 75.8379 46.4564 76.1203 46.4848 76.6491L46.4965 76.8679C46.5024 76.9772 46.5245 77.0492 46.563 77.0837L59.6355 76.3824C59.994 76.93 60.3147 77.6259 60.5977 78.4701C60.8664 79.3882 61.0203 80.2119 61.0594 80.9412C61.1758 83.1109 60.8656 84.828 60.129 86.0926L54.1944 86.4109C51.4231 86.5596 49.551 86.7697 48.5782 87.0413C47.6044 87.2947 47.0029 87.5007 46.7737 87.6592C46.5455 87.8361 46.4383 88.0521 46.4519 88.3073C46.4656 88.5626 46.604 88.7563 46.8671 88.8885C47.7986 88.5277 48.7805 88.2556 49.8129 88.0722C51.1734 87.8712 52.6559 87.7277 54.2604 87.6416L61.9453 87.2294C63.1416 88.7377 63.7989 90.5949 63.9172 92.801C63.9837 94.0408 63.8923 95.2342 63.643 96.3812C63.3937 97.5282 62.9777 98.4648 62.395 99.1909L41.911 100.29C39.6502 100.411 37.8068 99.9613 36.3807 98.9408C34.823 97.8541 33.9836 96.1804 33.8623 93.9196L32.4671 67.9113C32.4201 67.0361 33.3887 66.3442 35.3727 65.8355C37.3567 65.3268 40.4455 64.96 44.6389 64.735ZM82.3412 91.6481L79.5004 97.999C78.1603 98.5828 76.6881 98.9178 75.0837 99.0039C72.2577 99.1555 69.8991 98.4775 68.0081 96.9699C66.117 95.4622 65.0986 93.3501 64.9529 90.6335C64.8238 88.2269 65.5202 86.0411 67.0421 84.0761C68.564 82.1111 70.7767 80.4108 73.6801 78.9751C73.429 78.3852 73.0391 78.1044 72.5104 78.1328C71.9817 78.1611 71.0413 78.6961 69.6892 79.7377C68.2837 79.1 67.0172 77.9886 65.89 76.4035C64.781 74.8173 64.1687 72.9486 64.0533 70.7972C63.9379 68.6458 64.6322 66.7617 66.1363 65.1451C67.6403 63.5285 69.7871 62.6454 72.5766 62.4958C74.9833 62.3667 76.9855 62.7072 78.5831 63.5175L81.7916 69.1325L83.8267 63.0991C85.3393 62.3231 87.0527 61.8838 88.9671 61.7811C91.6837 61.6353 93.9299 62.2645 95.7057 63.6686C97.4835 65.1092 98.4462 67.206 98.5939 69.959C98.7162 72.2381 98.0106 74.4244 96.4773 76.5179C94.9613 78.5923 92.9583 80.2814 90.4683 81.5852C90.6973 82.1031 91.067 82.3484 91.5775 82.3211C92.1062 82.2927 92.9325 81.8461 94.0563 80.9813L100.069 87.7349C100.226 90.6703 99.6225 93.0523 98.2578 94.8808C96.757 96.8995 94.5936 97.9847 91.7676 98.1363C87.4648 98.3671 84.3227 96.2044 82.3412 91.6481ZM124.371 74.4731L125.402 93.699C124.602 94.4732 123.514 95.1442 122.136 95.7118C120.759 96.2793 119.067 96.6169 117.062 96.7245C115.056 96.8321 113.328 96.4769 111.876 95.6588C110.238 94.7776 109.371 93.4527 109.277 91.6842L108.332 74.0718L101.96 74.4137C100.546 72.6062 99.7797 70.5902 99.6604 68.3659C99.5792 66.8526 99.7458 65.5272 100.16 64.3896C100.592 63.2328 101.147 62.3254 101.824 61.6673L130.103 60.1503C130.675 60.9424 131.166 61.9126 131.575 63.0609C131.984 64.2092 132.219 65.3576 132.281 66.5063C132.397 68.6577 132.008 70.2693 131.114 71.3412C130.22 72.3948 128.971 72.9647 127.366 73.0507L119.353 73.4806C119.305 73.6111 119.285 73.7493 119.293 73.8952C119.311 74.2234 119.514 74.4319 119.903 74.5208C120.311 74.6269 121.171 74.6447 122.484 74.5743L124.371 74.4731ZM145.336 59.3332L161.116 58.4866C161.691 59.3334 162.135 60.2696 162.446 61.2951C162.756 62.3025 162.933 63.2163 162.977 64.0368C163.075 65.8782 162.785 67.2835 162.106 68.2524C161.445 69.2204 160.467 69.7391 159.172 69.8086L148.151 70.3998C147.476 70.436 147.153 70.7185 147.181 71.2472L147.193 71.466C147.199 71.5754 147.221 71.6473 147.26 71.6818L160.332 70.9806C160.691 71.5282 161.011 72.2241 161.294 73.0683C161.563 73.9864 161.717 74.8101 161.756 75.5394C161.872 77.709 161.562 79.4261 160.826 80.6907L154.891 81.0091C152.12 81.1577 150.248 81.3679 149.275 81.6395C148.301 81.8928 147.7 82.0988 147.47 82.2574C147.242 82.4342 147.135 82.6502 147.149 82.9055C147.162 83.1607 147.301 83.3544 147.564 83.4866C148.495 83.1258 149.477 82.8537 150.51 82.6703C151.87 82.4693 153.353 82.3258 154.957 82.2397L162.642 81.8275C163.838 83.3358 164.496 85.193 164.614 87.3991C164.68 88.6389 164.589 89.8323 164.34 90.9793C164.09 92.1264 163.674 93.0629 163.092 93.789L142.608 94.8879C140.347 95.0091 138.503 94.5595 137.077 93.5389C135.52 92.4522 134.68 90.7785 134.559 88.5177L133.164 62.5094C133.117 61.6343 134.085 60.9423 136.069 60.4336C138.053 59.9249 141.142 59.5581 145.336 59.3332ZM166.046 88.5291L164.576 61.126C164.525 60.1779 165.24 59.3534 166.72 58.6523C168.217 57.932 169.996 57.5166 172.056 57.4061C173.223 57.3435 174.324 57.4306 175.361 57.6676C176.415 57.8853 177.227 58.1983 177.798 58.6065C178.596 59.5145 179.332 60.4441 180.004 61.3954C180.677 62.3467 182.195 64.5692 184.558 68.0628C184.759 68.052 184.938 67.9784 185.095 67.842C185.252 67.7055 185.324 67.5097 185.31 67.2545C185.296 66.981 185.04 66.4736 184.543 65.7323L181.317 60.8039L181.236 59.2998C182.125 58.4841 183.223 57.8309 184.532 57.3402C185.84 56.8495 187.205 56.5659 188.628 56.4897C190.943 56.3654 192.834 56.6845 194.301 57.4469C196.014 58.3607 196.928 59.8842 197.042 62.0173L198.432 87.9162C198.516 89.4842 197.83 90.6638 196.373 91.4551C195.131 92.1617 193.443 92.5722 191.31 92.6866C190.125 92.7502 188.96 92.6847 187.816 92.4901C186.69 92.2945 185.797 92.0133 185.138 91.6464C183.754 90.0567 182.369 88.266 180.982 86.2742L177.943 81.7746C177.419 81.8759 177.169 82.1727 177.196 82.6649C177.212 82.9749 177.509 83.5533 178.084 84.4L181.799 89.741L181.877 91.1905C179.835 92.6714 177.484 93.4832 174.822 93.626C172.178 93.7678 170.074 93.3962 168.509 92.511C166.962 91.6249 166.141 90.2976 166.046 88.5291ZM216.2 71.9879C216.103 70.1647 215.953 68.9201 215.753 68.2544C215.552 67.5703 215.233 67.2401 214.795 67.2635C214.521 67.2782 214.28 67.3826 214.071 67.5766C214.125 67.9028 214.203 68.3375 214.306 68.8805C214.408 69.4236 214.507 70.5885 214.603 72.3753L214.698 74.1529C214.765 75.3927 214.786 76.2967 214.761 76.8648C214.737 77.4329 214.717 77.9185 214.702 78.3216C214.696 78.5414 214.689 78.7611 214.683 78.9809C214.912 79.1515 215.163 79.2294 215.436 79.2148C215.874 79.1913 216.156 78.8379 216.284 78.1545C216.411 77.4528 216.426 76.1904 216.328 74.3672L216.2 71.9879ZM207.013 91.4328C204.989 91.5414 203.393 91.0877 202.223 90.0716C201.071 89.0546 200.437 87.4613 200.321 85.2916L199 60.6781C198.926 59.2924 200.249 58.0512 202.969 56.9545C205.707 55.8386 208.79 55.1886 212.217 55.0048C218.252 54.681 223.044 55.8868 226.591 58.622C230.406 61.5623 232.48 66.1411 232.814 72.3583C233.114 77.9556 231.578 82.3898 228.206 85.6607C224.853 88.9308 220.095 90.7311 213.932 91.0617L207.013 91.4328Z" fill="white"></path>
</g>
<defs>
<clipPath id="clip0_309_982">
<rect width="254.718" height="145.954" fill="white"></rect>
</clipPath>
</defs>
</svg>