<svg width="32" height="32" viewBox="0 0 32 32" fill="none" xmlns="http://www.w3.org/2000/svg">
<g clip-path="url(#clip0_1121_2959)">
<path d="M1.0572 13.2444C0.460615 14.6009 0.344142 16.1421 0.719128 17.5567C1.07566 18.9829 1.94498 20.24 3.07851 21.1277C4.21629 22.0184 5.65662 22.5027 7.09269 22.5198C8.59411 22.5311 10.1069 22.0141 11.2701 21.061C11.5897 20.7996 11.8852 20.5042 12.1508 20.1888C13.2375 20.8437 14.3909 21.3891 15.4676 22.061C16.4633 22.6831 17.4605 23.3081 18.4563 23.926C18.2375 24.9374 18.256 25.9914 18.5188 26.9843C18.8753 28.4104 19.7446 29.6675 20.8781 30.5553C22.0159 31.4459 23.4562 31.9303 24.8923 31.9473C26.3937 31.9587 27.9065 31.4417 29.0698 30.4885C30.2374 29.5397 31.0627 28.1832 31.361 26.7031C31.6522 25.2272 31.4263 23.652 30.7061 22.3253C29.986 21.0014 28.8084 19.9432 27.4149 19.3764C26.9604 19.1988 26.378 18.9289 25.8652 18.9503C25.3567 18.9503 24.9704 19.2159 24.9561 19.8736C24.9377 20.6008 25.2033 20.8593 25.5229 20.9787C25.8425 21.098 26.2715 21.1065 26.574 21.2401C27.5016 21.6321 28.3056 22.3239 28.7928 23.196C29.2871 24.0611 29.4917 25.0938 29.334 26.0838C29.0826 28.0767 27.28 29.7671 25.2616 29.8507C24.2574 29.9303 23.2503 29.6149 22.4434 29.0396C21.6324 28.4572 21.0613 27.5808 20.8256 26.6433C20.5969 25.7016 20.7162 24.6874 21.1423 23.8649C21.5756 23.0397 22.2915 22.3962 23.1054 22.0865C23.4903 21.9374 23.942 21.8507 24.2943 21.6107C24.3852 21.5524 24.469 21.48 24.5457 21.3848C24.6224 21.3053 24.6949 21.203 24.7559 21.0794C24.8752 20.8323 24.9662 20.4942 24.959 20.0396C24.9519 19.6689 24.8426 19.4033 24.6423 19.2172C24.442 19.024 24.1508 18.9374 23.8241 18.9189C23.1622 18.882 22.3838 19.1845 21.817 19.4928C20.7545 20.0595 19.854 20.9147 19.2389 21.9431C17.2318 20.6632 15.1011 19.5752 13.4535 17.7242C13.4932 17.575 13.533 17.4301 13.5657 17.2767C13.7986 16.102 13.6964 14.8662 13.2858 13.7426C15.3441 12.5565 17.2164 11.0664 19.5004 10.2412C19.8896 10.7937 20.3583 11.2923 20.8853 11.7028C22.0231 12.5934 23.4634 13.0778 24.8995 13.0948C26.4009 13.1062 27.9137 12.5892 29.077 11.636C30.2446 10.6872 31.0699 9.33066 31.3682 7.85059C31.6594 6.37473 31.4335 4.79946 30.7133 3.47277C29.9931 2.14891 28.8156 1.09066 27.4221 0.523896C26.9676 0.346339 26.3852 0.076441 25.8724 0.0977501C25.3639 0.0977501 24.9775 0.363376 24.9633 1.02106C24.9449 1.74833 25.2105 2.00684 25.5301 2.12619C25.8497 2.2455 26.2787 2.25403 26.5812 2.38755C27.5088 2.77959 28.3127 3.47137 28.8 4.34351C29.2943 5.20857 29.4989 6.24126 29.3412 7.2313C29.0898 9.22421 27.2872 10.9146 25.2688 10.9982C24.2646 11.0778 23.2575 10.7624 22.4506 10.1871C21.6395 9.60471 21.0685 8.72831 20.8327 7.79082C20.6041 6.84908 20.7234 5.83486 21.1495 5.01242C21.5827 4.18715 22.2987 3.54366 23.1126 3.23402C23.4975 3.08487 23.9492 2.99823 24.3015 2.75817C24.3924 2.69993 24.4762 2.62748 24.5529 2.53232C24.6296 2.45277 24.702 2.3505 24.7631 2.22692C24.8824 1.97976 24.9733 1.64168 24.9662 1.18714C24.9591 0.816412 24.8498 0.550776 24.6495 0.364703C24.4492 0.171521 24.158 0.0848738 23.8313 0.0664084C23.1694 0.0294774 22.391 0.332034 21.8242 0.640263C20.5231 1.33488 19.4492 2.4627 18.864 3.82208C18.3072 5.09055 18.1737 6.52095 18.4677 7.85481C17.4677 8.51957 16.5217 9.26532 15.5046 9.90168C14.4251 10.575 13.3441 11.2468 12.2717 11.9272C11.5728 11.0579 10.6609 10.3704 9.62825 9.94855C9.1737 9.771 8.5913 9.5011 8.07854 9.52241C7.57003 9.52241 7.18367 9.78803 7.16945 10.4457C7.15098 11.173 7.41661 11.4315 7.73621 11.5508C8.05581 11.6702 8.48479 11.6787 8.78734 11.8122C9.7149 12.2042 10.5189 12.896 11.0061 13.7682C11.5004 14.6332 11.705 15.6659 11.5473 16.656C11.2959 18.6489 9.49334 20.3392 7.47494 20.4229C6.47068 20.5024 5.46359 20.1871 4.65676 19.6118C3.84567 19.0294 3.27465 18.153 3.03887 17.2155C2.81017 16.2737 2.92949 15.2595 3.35563 14.4371C3.78886 13.6118 4.50479 12.9683 5.31868 12.6587C5.70363 12.5138 6.15534 12.4229 6.50759 12.1828C6.5985 12.1246 6.68231 12.0521 6.75901 11.957C6.83856 11.8774 6.90816 11.7752 6.96924 11.6516C7.08855 11.4044 7.17946 11.0663 7.17236 10.6118C7.16526 10.2411 7.05588 9.97543 6.8556 9.78936C6.65532 9.59618 6.36411 9.50953 6.03742 9.49107C5.37549 9.45414 4.59709 9.75669 4.03033 10.0649C2.7292 10.7595 1.65535 11.8874 1.07011 13.2467L1.0572 13.2444Z" fill="#EBEBEB"></path>
</g>
<defs>
<clipPath id="clip0_1121_2959">
<rect width="32" height="32" fill="white"></rect>
</clipPath>
</defs>
</svg>