<svg width="32" height="32" viewBox="0 0 32 32" fill="none" xmlns="http://www.w3.org/2000/svg">
<g clip-path="url(#clip0_1121_2954)">
<path d="M13.0558 17.5749C13.1684 16.362 13.3017 14.6038 11.5434 14.6423C10.1011 14.6738 10.2632 16.3373 10.2563 17.4554V19.3648V19.8428C10.2605 20.0145 10.2495 20.1134 10.2701 20.4307C10.3127 20.972 10.4912 21.4967 10.7769 21.9568C11.3429 22.8813 12.3662 23.4939 13.439 23.5598C13.9733 23.5956 14.5146 23.5076 15.0036 23.2961C15.2398 23.2013 15.5173 23.0255 15.6121 22.9623L16.0132 22.7054L19.2302 20.6477L20.8442 19.6285L21.6533 19.1217L22.0887 18.8469C22.303 18.7068 22.5036 18.5379 22.6794 18.351C23.4253 17.5667 23.7343 16.4032 23.4775 15.3511C23.3538 14.8277 23.0983 14.3346 22.7384 13.9307C22.5585 13.7302 22.3552 13.5516 22.134 13.3964L21.8744 13.2315L21.6629 13.1011L18.2618 11.009L16.564 9.96505L15.7123 9.4417C15.5543 9.34966 15.476 9.28647 15.1986 9.1395C14.9596 9.01587 14.7027 8.92109 14.4431 8.86203C13.3923 8.61202 12.2274 8.92521 11.45 9.67795C11.0599 10.0475 10.7604 10.5145 10.5956 11.0282C10.5118 11.2851 10.4582 11.5488 10.4376 11.8194L10.4307 12.02V12.1601V12.4101C10.4307 13.2851 10.086 14.5873 11.3799 14.6395C12.7796 14.6999 12.3854 13.3386 12.4033 12.509L12.4143 12.0337C12.4184 11.9279 12.4349 11.8263 12.4637 11.7274C12.5242 11.5309 12.6285 11.3482 12.7659 11.1999C13.0475 10.9004 13.4733 10.7535 13.8703 10.8167C13.9692 10.8304 14.0667 10.8592 14.1615 10.8936C14.2068 10.9114 14.2535 10.9362 14.2989 10.9568L14.4706 11.0625L15.3003 11.5763L16.9637 12.5996L20.2934 14.6354L20.9157 15.0145C20.9788 15.0571 21.0077 15.0708 21.053 15.1065C21.2151 15.2301 21.3442 15.3908 21.4294 15.5776C21.6052 15.9472 21.5805 16.3963 21.3689 16.7452C21.2673 16.921 21.1189 17.0694 20.9472 17.1738L20.1176 17.6766L18.4431 18.6793C17.325 19.3441 16.2 20.0021 15.0709 20.6409L14.2439 21.1051C14.086 21.1821 13.9102 21.2136 13.7412 21.2068C13.4005 21.193 13.0942 20.9952 12.9431 20.7287C12.8662 20.5955 12.8277 20.4472 12.8277 20.3029C12.8277 20.2398 12.8635 19.8277 12.8841 19.5186L13.0462 17.5708L13.0558 17.5749Z" fill="#EBEBEB"></path>
<path d="M32.0925 14.5089L31.8961 13.1765C31.8398 12.7301 31.6928 12.3042 31.5939 11.8646C31.1186 10.1339 30.3563 8.4814 29.3439 6.99783C27.3178 4.01979 24.245 1.79309 20.7957 0.710714C19.0732 0.151663 17.2433 -0.0420249 15.433 0.00741689C13.6226 0.0706046 11.8012 0.397535 10.0978 1.07611C6.69398 2.40576 3.70486 4.86723 1.79154 8.07075C1.36296 8.82349 0.901453 9.68063 0.599246 10.5955C0.522323 10.8235 0.427543 11.046 0.367102 11.2741C0.314903 11.5062 0.261333 11.7342 0.209134 11.9636C0.107487 12.4169 0.0195747 12.8565 0.0154534 13.2782C-0.00515112 13.6999 -0.00515112 14.09 0.0154534 14.4416C0.0717734 14.7933 0.152814 15.1023 0.254465 15.3565C0.461881 15.8633 0.770966 16.1339 1.21053 16.1051C1.57315 16.0845 1.84652 15.8029 2.05807 15.3771C2.16384 15.1628 2.24488 14.9101 2.32867 14.6312C2.43444 14.3537 2.52922 14.0474 2.61301 13.7246C2.97841 12.4334 3.45366 10.8482 4.10066 9.67645C5.54573 7.02811 7.8313 4.80295 10.6062 3.56796C11.988 2.94572 13.4647 2.55149 14.9771 2.38938C16.4923 2.23416 18.0266 2.36465 19.506 2.69844C22.4841 3.3523 25.1778 5.12151 27.1048 7.48825C29.0457 9.86599 30.0979 12.9114 30.1432 15.9774C30.157 19.1848 29.0773 22.3841 27.0389 24.8744C25.01 27.3607 22.1158 29.1122 18.9784 29.7522C15.8314 30.3607 12.4799 29.8854 9.65266 28.3703C6.83262 26.8401 4.56747 24.3221 3.34761 21.3581C3.17865 20.8581 2.95063 20.31 2.84074 19.7262C2.77069 19.4377 2.70063 19.1534 2.6292 18.8718C2.58387 18.5875 2.53442 18.3128 2.47398 18.0531C2.33387 17.5366 2.25969 17.0682 2.08661 16.7235C1.91765 16.3787 1.68552 16.1507 1.35859 16.115C1.00694 16.0765 0.778931 16.2661 0.637428 16.6315C0.567372 16.8114 0.517924 17.0353 0.482207 17.2894C0.443744 17.5422 0.432758 17.8279 0.46847 18.1232C0.520669 18.7207 0.605835 19.3993 0.813251 20.0394C0.908031 20.3595 0.978086 20.6905 1.09484 20.9886C1.20748 21.2908 1.316 21.5793 1.41902 21.8471C2.69238 25.1837 5.11133 28.1096 8.23783 29.8897C9.78867 30.7894 11.4947 31.4267 13.2559 31.7715C15.021 32.13 16.8423 32.1122 18.6143 31.8594C20.3863 31.5888 22.1266 31.0408 23.7061 30.185C25.2844 29.3306 26.7199 28.2152 27.933 26.8965C29.1431 25.5778 30.1514 24.0627 30.8588 22.4088C31.558 20.7563 31.9769 18.9871 32.1033 17.2012C32.117 16.7548 32.1734 16.3042 32.1459 15.8578L32.0786 14.5144L32.0925 14.5089Z" fill="#EBEBEB"></path>
</g>
<defs>
<clipPath id="clip0_1121_2954">
<rect width="32" height="32" fill="white"></rect>
</clipPath>
</defs>
</svg>