<svg width="32" height="32" viewBox="0 0 32 32" fill="none" xmlns="http://www.w3.org/2000/svg">
<g clip-path="url(#clip0_217_289)">
<circle cx="16" cy="16" r="16" fill="#1D1D1D"></circle>
<path fill-rule="evenodd" clip-rule="evenodd" d="M18.9164 7.50668C19.4833 6.83676 20.5016 6.79441 21.1222 7.41494L22.7031 8.99582C23.2547 9.54746 23.2914 10.4299 22.7875 11.0254L12.3818 23.323C12.3381 23.3747 12.2843 23.4169 12.2237 23.4472L10.1182 24.5H24.0001C24.2763 24.5 24.5001 24.7239 24.5001 25C24.5001 25.2761 24.2763 25.5 24.0001 25.5H8.00014C7.76825 25.5 7.56679 25.3406 7.51351 25.1149C7.46023 24.8892 7.56912 24.6565 7.77653 24.5528L11.6847 22.5987L22.0241 10.3795C22.1921 10.1809 22.1798 9.88681 21.9959 9.70293L20.4151 8.12204C20.2082 7.9152 19.8688 7.92932 19.6798 8.15262L9.44403 20.2495L8.47448 23.1581C8.38715 23.4201 8.10399 23.5617 7.84202 23.4743C7.58005 23.387 7.43847 23.1039 7.52579 22.8419L8.52579 19.8419C8.54591 19.7815 8.57735 19.7256 8.61844 19.677L18.9164 7.50668Z" fill="#EBEB10"></path>
</g>
<defs>
<clipPath id="clip0_217_289">
<rect width="32" height="32" fill="white"></rect>
</clipPath>
</defs>
</svg>