<svg width="36" height="32" viewBox="0 0 36 32" fill="none" xmlns="http://www.w3.org/2000/svg">
<g clip-path="url(#clip0_546_825)">
<path d="M17.9236 7.77203C16.2829 7.77985 16.4673 8.20327 16.4595 8.48767C16.4283 9.77987 16.6548 11.072 16.6548 12.3674C16.6908 12.3674 16.6704 12.3674 16.6548 12.3674C16.6548 13.7189 16.647 15.072 16.6626 16.4238C16.6626 16.6472 16.2704 16.9753 17.7423 16.9925C19.3345 17.0081 18.8861 16.6613 18.9064 16.4519C19.1376 13.8081 18.5501 11.1643 19.6423 8.52387C19.7704 8.21606 19.922 7.76763 17.922 7.78011L17.9236 7.77203Z" fill="black"></path>
<path d="M19.592 22.1564C19.2482 20.1611 16.2764 20.2361 16.1404 22.2846C15.8561 25.0721 20.384 24.7127 19.592 22.1564Z" fill="black"></path>
<path d="M0.915612 17.708C1.08436 17.7924 1.13592 17.808 1.2203 17.844L1.46405 17.944C2.00781 18.1643 2.46405 18.4877 2.84373 18.908C3.21561 19.3284 3.48749 19.8315 3.63125 20.3643C3.70313 20.633 3.73906 20.908 3.75156 21.1799C3.75625 21.4205 3.73594 21.8284 3.72813 22.1596L3.64063 24.2518L3.58438 25.2956C3.56407 25.6081 3.54063 26.0752 3.58438 26.5159C3.74063 28.28 4.73594 29.9878 6.29686 31.0283C6.46874 31.1517 6.69217 31.2689 6.87342 31.372C7.02967 31.4564 7.18904 31.5361 7.3531 31.608C7.68122 31.7564 8.01718 31.872 8.3453 31.908C8.99686 31.9845 9.60938 31.7486 9.99374 30.8283C10.3094 30.072 10.0453 29.5517 9.5625 29.1642C9.32188 28.9689 9.02658 28.808 8.72186 28.6595C8.45311 28.5361 8.18594 28.4158 7.9453 28.3033C7.16874 27.8829 6.58906 27.1111 6.40938 26.2392C6.38125 26.1314 6.37344 26.0189 6.35781 25.9111C6.35313 25.7876 6.34219 25.7236 6.34219 25.5267L6.32656 24.5032L6.29063 22.4548L6.27031 21.4314C6.25781 20.9876 6.21094 20.5314 6.10156 20.0907C5.89375 19.211 5.48592 18.3829 4.925 17.6782C4.36092 16.9782 3.64532 16.4017 2.84532 16.0064C2.8297 15.9986 2.81407 15.9939 2.79689 15.9861C2.79689 15.9861 2.8047 15.9861 2.80939 15.9814C3.64531 15.5657 4.38907 14.9579 4.95315 14.2126C5.51723 13.4688 5.91251 12.5923 6.07659 11.672C6.12502 11.4438 6.14534 11.2079 6.16877 10.9766L6.18127 10.6282V10.3438V9.27508V7.13444V6.59852V6.32976L6.18909 6.13758C6.20471 5.89383 6.24065 5.65006 6.3094 5.40946C6.45002 4.93758 6.69378 4.49698 7.03284 4.13758C7.20159 3.95789 7.3844 3.79382 7.5922 3.6579C7.6922 3.58602 7.80001 3.52665 7.90782 3.4704L8.0797 3.38602L8.32345 3.27821C9.17969 2.89383 10.6157 2.69069 10.0719 1.31885C9.48437 -0.160831 8.33125 0.839169 7.51253 1.18291C7.21722 1.30635 6.81721 1.47041 6.46409 1.68759C6.11253 1.90322 5.78441 2.15947 5.48753 2.44695C4.90001 3.03131 4.43909 3.74227 4.17189 4.53131C4.03596 4.9235 3.94064 5.33131 3.90001 5.74379C3.87189 5.94379 3.87658 6.16723 3.86876 6.35627V6.87971V8.97191V10.0204L3.87345 10.5438C3.86564 10.6922 3.87345 10.8282 3.85001 10.9672C3.79377 11.5266 3.60158 12.0797 3.30158 12.5548C3.00158 13.0344 2.5891 13.4423 2.10625 13.7423C1.98594 13.8188 1.8625 13.8829 1.73438 13.9423L1.53907 14.0298L1.29844 14.1251L1.03438 14.2329C0.890627 14.297 0.754691 14.3735 0.626579 14.4735C0.370331 14.6688 0.162499 14.9376 0.0343791 15.2329C-0.217185 15.8251 -0.153121 16.5172 0.206255 17.061C0.385943 17.3376 0.650015 17.5532 0.929695 17.6922L0.915612 17.708ZM1.93593 15.6393C1.93593 15.6393 1.92031 15.6314 1.92812 15.6346C1.92812 15.6346 1.93593 15.6346 1.93593 15.6393ZM1.95624 16.3439C1.95624 16.3439 1.94843 16.3486 1.94374 16.3517C1.94374 16.3517 1.8875 16.3721 1.95624 16.3439Z" fill="black"></path>
<path d="M35.0844 14.292C34.9156 14.2076 34.8641 14.192 34.7797 14.1561L34.5391 14.0561C33.9953 13.8358 33.5391 13.5123 33.1594 13.092C32.7875 12.6717 32.5156 12.1686 32.3719 11.6358C32.3 11.367 32.2641 11.092 32.2516 10.8201C32.2469 10.5795 32.2672 10.1717 32.275 9.84043L32.3625 7.74823L32.4188 6.70447C32.4391 6.39197 32.4625 5.92479 32.4188 5.48415C32.2625 3.72007 31.2672 2.01227 29.7063 0.971752C29.5344 0.848316 29.311 0.731128 29.1297 0.628C28.9735 0.543624 28.8141 0.463936 28.65 0.392064C28.3219 0.243628 27.986 0.128 27.6578 0.0920638C27.0063 0.0154998 26.3938 0.25144 26.0094 1.17174C25.6938 1.92798 25.9578 2.4483 26.4406 2.83582C26.6813 3.03114 26.9766 3.19207 27.2813 3.3405C27.55 3.46394 27.8172 3.58426 28.0578 3.69676C28.8344 4.11708 29.4141 4.88896 29.5938 5.76084C29.6219 5.86865 29.6297 5.98115 29.6453 6.08896C29.65 6.2124 29.6609 6.27646 29.6609 6.47334L29.6766 7.49678L29.7125 9.54522L29.7328 10.5687C29.7453 11.0124 29.7922 11.4733 29.9016 11.9093C30.1141 12.789 30.5172 13.6171 31.0781 14.3218C31.6422 15.0218 32.3578 15.5983 33.1578 15.9937C33.1734 16.0015 33.1891 16.0062 33.2063 16.014C33.2063 16.014 33.1984 16.014 33.1938 16.0187C32.3578 16.4343 31.6141 17.0421 31.05 17.7874C30.4859 18.5312 30.0906 19.4077 29.9266 20.3281C29.8781 20.5562 29.8578 20.7921 29.8344 21.0234L29.8219 21.3718V21.6562V22.7249V24.8656V25.4015V25.6703L29.8141 25.8624C29.7984 26.1062 29.7625 26.35 29.6937 26.5906C29.5531 27.0625 29.3094 27.503 28.9703 27.8624C28.8015 28.0421 28.6187 28.2062 28.4109 28.3421C28.3109 28.414 28.2031 28.4734 28.0953 28.5296L27.9234 28.614L27.6797 28.7218C26.8234 29.1062 25.3875 29.3093 25.9312 30.6812C26.5188 32.1609 27.6719 31.1609 28.4906 30.8171C28.7859 30.6937 29.1859 30.5296 29.539 30.3124C29.8906 30.0968 30.2187 29.8406 30.5156 29.5531C31.1031 28.9687 31.564 28.2578 31.8312 27.4687C31.9672 27.0765 32.0625 26.6687 32.1031 26.2562C32.1312 26.0562 32.1266 25.8328 32.1344 25.6438V25.1203V23.0281V21.9797L32.1297 21.4562C32.1375 21.3078 32.1297 21.1719 32.1531 21.0328C32.2094 20.4734 32.4016 19.9203 32.7016 19.4453C33.0016 18.9656 33.414 18.5578 33.8969 18.2578C34.0172 18.1812 34.1406 18.1171 34.2688 18.0578L34.4641 17.9703L34.7047 17.8749L34.9688 17.7671C35.1125 17.7031 35.2484 17.6265 35.3766 17.5265C35.6328 17.3312 35.8406 17.0624 35.9688 16.7671C36.2203 16.1749 36.1563 15.4828 35.7969 14.939C35.6172 14.6671 35.3531 14.4468 35.0734 14.3078L35.0844 14.292ZM34.0641 16.3608C34.0641 16.3608 34.0797 16.3686 34.0719 16.3655C34.0719 16.3655 34.0641 16.3655 34.0641 16.3608ZM34.0438 15.6561C34.0438 15.6561 34.0516 15.6514 34.0563 15.6483C34.0563 15.6483 34.1125 15.628 34.0438 15.6561Z" fill="black"></path>
</g>
<defs>
<clipPath id="clip0_546_825">
<rect width="36" height="32" fill="white"></rect>
</clipPath>
</defs>
</svg>