<svg width="36" height="36" viewBox="0 0 36 36" fill="none" xmlns="http://www.w3.org/2000/svg">
<g clip-path="url(#clip0_545_797)">
<path d="M12.2861 23.5135C13.3668 24.6324 13.4829 23.9002 13.7535 23.6541C15.2836 22.2692 16.7005 20.7667 18.1557 19.3098C19.5023 20.7222 20.774 22.2141 21.8303 23.9155C22.1191 24.3817 22.5624 25.0344 23.932 23.6373C25.0585 22.4909 24.4135 22.1026 24.0696 21.748C22.7046 20.3479 21.2097 19.0762 19.7957 17.7219C21.0873 16.5205 22.4523 15.394 23.987 14.4386C24.4532 14.1497 25.1059 13.7065 23.7088 12.3369C22.5624 11.2104 22.1741 11.8554 21.8195 12.1993C20.5402 13.4436 19.3693 14.8009 18.145 16.1047C16.8304 14.7856 15.5159 13.468 14.192 12.1612C13.9184 11.8906 13.7854 11.2104 12.7475 12.2116C11.6286 13.2923 12.3608 13.4085 12.6069 13.679C13.8741 15.0761 15.236 16.383 16.5751 17.7098C15.123 19.1619 13.6679 20.6095 12.2234 22.0694C11.9529 22.343 11.2727 22.476 12.2739 23.5092L12.2861 23.5135Z" fill="#101010"></path>
<path d="M35.8164 16.3139L35.5978 14.8312C35.5351 14.3344 35.3716 13.8605 35.2615 13.3714C34.7326 11.4454 33.8843 9.60663 32.7578 7.95575C30.5032 4.64188 27.0839 2.16406 23.2456 0.959624C21.3288 0.337529 19.2926 0.121998 17.2782 0.177016C15.2636 0.247329 13.2368 0.611128 11.3413 1.36623C7.55361 2.84583 4.2274 5.58488 2.09832 9.14966C1.62139 9.98729 1.10785 10.9411 0.77156 11.9591C0.685962 12.2128 0.580494 12.4605 0.513237 12.7142C0.455152 12.9725 0.39554 13.2263 0.337455 13.4815C0.224344 13.986 0.126518 14.4751 0.121932 14.9443C0.0990043 15.4136 0.0990043 15.8477 0.121932 16.239C0.184604 16.6303 0.274784 16.9742 0.387898 17.257C0.618705 17.821 0.962646 18.1222 1.45178 18.0901C1.85529 18.0671 2.15949 17.7538 2.3949 17.28C2.51259 17.0415 2.60278 16.7603 2.69602 16.45C2.81371 16.1412 2.91918 15.8003 3.01242 15.4411C3.41903 14.0043 3.94788 12.2404 4.66784 10.9364C6.27586 7.98945 8.81918 5.51335 11.907 4.13909C13.4447 3.44668 15.0878 3.00799 16.7709 2.82759C18.4569 2.65487 20.1642 2.80008 21.8105 3.17152C25.1244 3.89911 28.1218 5.86784 30.2662 8.50147C32.426 11.1474 33.5968 14.5362 33.6473 17.9479C33.6626 21.5171 32.4612 25.0771 30.1928 27.8483C27.9352 30.615 24.7146 32.564 21.2233 33.2761C17.7215 33.9533 13.992 33.4244 10.8459 31.7384C7.70788 30.0356 5.18729 27.2337 3.82986 23.9354C3.64185 23.379 3.38811 22.7691 3.26583 22.1195C3.18788 21.7985 3.10992 21.4821 3.03044 21.1688C2.98 20.8524 2.92497 20.5467 2.85771 20.2578C2.7018 19.683 2.61926 19.1618 2.42665 18.7782C2.23864 18.3945 1.98033 18.1408 1.61653 18.101C1.22523 18.0582 0.971509 18.2692 0.814048 18.6758C0.736092 18.876 0.681067 19.1251 0.641322 19.4079C0.598522 19.6892 0.586297 20.0071 0.626037 20.3358C0.684122 21.0007 0.778892 21.7558 1.0097 22.4681C1.11517 22.8242 1.19312 23.1926 1.32305 23.5243C1.44839 23.8605 1.56914 24.1815 1.68378 24.4796C3.10074 28.1924 5.79248 31.4483 9.27157 33.4291C10.9973 34.4303 12.8957 35.1396 14.8555 35.5232C16.8196 35.9222 18.8464 35.9023 20.8182 35.6211C22.79 35.3199 24.7266 34.7101 26.4843 33.7578C28.2406 32.807 29.8379 31.5659 31.1877 30.0985C32.5344 28.6311 33.6563 26.9451 34.4435 25.1046C35.2215 23.2658 35.6877 21.297 35.8284 19.3098C35.8437 18.813 35.9063 18.3117 35.8758 17.8149L35.8009 16.32L35.8164 16.3139Z" fill="#101010"></path>
</g>
<defs>
<clipPath id="clip0_545_797">
<rect width="36" height="36" fill="white"></rect>
</clipPath>
</defs>
</svg>