<svg width="40" height="45" viewBox="0 0 40 45" fill="none" xmlns="http://www.w3.org/2000/svg">
<g clip-path="url(#clip0_316_6807)">
<path d="M35.9548 32.7943L35.7874 32.8918C30.9688 35.8469 26.8664 40.1103 23.1967 44.4479C23.0822 44.5831 22.9398 44.6921 22.7793 44.7673C22.6188 44.8426 22.4438 44.8824 22.2664 44.884L1.80133 45.2041C1.39874 45.2078 1.0111 45.0522 0.723389 44.7713C0.435673 44.4904 0.271347 44.1072 0.266441 43.7057V43.6639L0.17342 34.4227L0.140862 29.7835V28.6284C0.140862 28.2572 0.140862 27.8629 0.140862 27.3572C0.194969 26.4012 0.407131 25.4607 0.768768 24.5737C1.48697 22.7902 2.76458 21.2864 4.41063 20.2871C4.82372 20.0424 5.25434 19.8284 5.699 19.6469L6.82458 19.2201L9.06179 18.4407C11.6199 17.5964 14.1781 16.9005 16.8292 16.2974L16.8757 6.33711C16.9393 4.97567 17.5197 3.68932 18.4992 2.73904C19.4787 1.78876 20.784 1.24572 22.1502 1.2201C22.8367 1.2014 23.5199 1.32074 24.1592 1.57101C24.7984 1.82127 25.3806 2.19734 25.8711 2.6768C26.8137 3.60337 27.4026 4.82898 27.5362 6.14227C27.592 6.87062 27.5362 7.21856 27.5362 7.71495V9.1067L27.499 11.918L27.4246 17.5454L27.2804 26.2021C27.9826 25.7376 28.7144 25.3192 29.4711 24.9495C31.0325 24.1987 32.6675 23.6111 34.3502 23.1959C34.9891 23.0719 35.6471 23.083 36.2814 23.2285C36.9158 23.3741 37.5125 23.6509 38.0328 24.0409C38.5532 24.431 38.9857 24.9256 39.3024 25.4929C39.619 26.0601 39.8128 26.6874 39.8711 27.334C39.8711 27.5892 39.8711 27.8582 39.8711 28.0438C39.8653 28.2941 39.8419 28.5437 39.8013 28.7907C39.6174 29.7877 39.1011 30.6934 38.3362 31.3608C37.6618 31.9593 36.8618 31.8851 36.713 31.4907C36.5641 31.0964 36.8525 30.5629 37.2478 30.1871L37.3595 30.0711C37.7918 29.6102 38.0542 29.0164 38.1037 28.3871C38.1691 27.7469 38.0446 27.1017 37.7455 26.5314C37.457 26.0083 37.0012 25.5965 36.4507 25.3619C35.9002 25.1273 35.2868 25.0834 34.7083 25.2371C31.8246 26.1649 28.8757 27.5892 26.8478 29.6907C26.6168 29.9252 26.3029 30.0601 25.9734 30.0665C25.6461 30.0702 25.3306 29.9444 25.0961 29.7166C24.8616 29.4887 24.7272 29.1775 24.7223 28.851V28.8093L24.3874 6.49485C24.2292 5.30722 23.2757 4.38866 22.2153 4.48608C21.688 4.50364 21.1874 4.72132 20.8157 5.09468C20.444 5.46803 20.2292 5.96886 20.2153 6.49485L20.2571 17.6985C20.2584 18.0901 20.1245 18.4703 19.8781 18.7752C19.6317 19.0801 19.2876 19.2912 18.9037 19.3732H18.8757C15.9245 20.0086 13.0089 20.7983 10.1409 21.7392L8.00132 22.4768L6.95481 22.8665C6.68396 22.9761 6.42128 23.1047 6.16877 23.2515C5.40779 23.7125 4.76786 24.3476 4.30196 25.1044C3.83607 25.8611 3.55763 26.7177 3.4897 27.6031C3.4897 27.8675 3.4897 28.2433 3.4897 28.6423V29.7974L3.45249 34.4366L3.37807 42.1655L21.7734 42.4485C23.6528 40.3689 25.6564 38.4045 27.7734 36.566C30.0436 34.5507 32.541 32.8054 35.2153 31.3655C35.913 31.0454 36.6106 31.1057 36.7688 31.5046C36.9269 31.9036 36.5641 32.4742 35.9548 32.7943Z" fill="#10EBEB"></path>
<path d="M6.85077 2.58401C6.9475 2.32568 7.07725 2.08087 7.23681 1.85566C7.36317 1.61442 7.51943 1.38998 7.70193 1.18762C8.83772 1.18987 9.95014 1.50969 10.9129 2.11077C11.8756 2.71186 12.6501 3.57012 13.1484 4.58814C13.0568 4.8397 12.9299 5.0771 12.7717 5.29329C12.648 5.53049 12.4914 5.74913 12.3066 5.94278C11.1739 5.94503 10.063 5.63182 9.09908 5.03841C8.13517 4.445 7.35651 3.59496 6.85077 2.58401Z" fill="#10EBEB"></path>
<path d="M11.7581 12.9247C10.8333 13.5174 9.75729 13.8325 8.65809 13.8325C7.5589 13.8325 6.48286 13.5174 5.55809 12.9247C5.502 12.6549 5.48168 12.3788 5.49763 12.1036C5.48168 11.8284 5.502 11.5524 5.55809 11.2825C6.48553 10.694 7.56299 10.3837 8.66219 10.3887C9.76139 10.3936 10.836 10.7135 11.7581 11.3103C11.8128 11.5726 11.8315 11.841 11.8139 12.1083C11.8315 12.3755 11.8128 12.6439 11.7581 12.9062V12.9247Z" fill="#10EBEB"></path>
<path d="M32.1845 5.29793C32.0268 5.08046 31.9015 4.84139 31.8124 4.58814C32.309 3.57365 33.0799 2.71772 34.0381 2.11688C34.9964 1.51604 36.1039 1.19419 37.2357 1.18762C37.4264 1.38754 37.5891 1.61226 37.7194 1.85566C37.8811 2.07959 38.011 2.32469 38.1055 2.58401C37.6008 3.59213 36.824 4.43975 35.8626 5.0315C34.9012 5.62324 33.7933 5.93563 32.6636 5.9335C32.4753 5.74471 32.3141 5.53082 32.1845 5.29793Z" fill="#10EBEB"></path>
<path d="M39.4009 11.2964C39.4515 11.567 39.4702 11.8426 39.4567 12.1175C39.4702 12.3925 39.4515 12.668 39.4009 12.9387C38.4727 13.5276 37.3945 13.838 36.2945 13.8331C35.1944 13.8281 34.119 13.508 33.1962 12.9108C33.1442 12.6482 33.1255 12.3801 33.1404 12.1129C33.1255 11.8456 33.1442 11.5775 33.1962 11.3149C34.1197 10.7186 35.1957 10.3997 36.2958 10.3964C37.396 10.3932 38.4738 10.7056 39.4009 11.2964Z" fill="#10EBEB"></path>
</g>
<defs>
<clipPath id="clip0_316_6807">
<rect width="40" height="45" fill="white" transform="matrix(-1 0 0 1 40 0)"></rect>
</clipPath>
</defs>
</svg>