<svg width="48" height="48" viewBox="0 0 48 48" fill="none" xmlns="http://www.w3.org/2000/svg">
<path d="M7.38343 27.9183C7.29355 27.6251 7.21456 26.9869 7.18487 26.6574C6.93687 23.907 7.10745 20.8397 7.97726 18.2088C9.60207 13.2943 13.8021 9.08852 18.7931 7.63376C22.1137 6.66591 25.7679 6.46814 29.0705 7.62677C29.7579 7.87298 30.4252 8.17247 31.066 8.52251C31.4035 8.70478 31.7876 8.9981 32.1394 9.10739C32.5245 8.75709 32.9647 8.47247 33.4421 8.26495C34.8432 7.6473 36.4329 7.61536 37.8575 8.17622C39.0359 8.64923 40.3336 9.63771 40.8364 10.8249C40.9484 10.9513 40.9995 11.0732 41.0874 11.2141C41.5395 11.9394 41.7005 12.9224 41.7701 13.7749C41.813 13.9631 41.8048 14.2086 41.7706 14.3988C41.7404 15.6872 41.1354 16.9748 40.2872 17.8558C40.242 17.9026 40.4963 18.4979 40.5638 18.6627L40.6679 18.9141C40.6986 19.0062 40.7719 19.247 40.8068 19.3248L40.9065 19.6578C41.0494 20.1433 41.1708 20.5571 41.2934 21.0517L41.3262 21.1929C41.3504 21.3144 41.3776 21.4735 41.4076 21.5902C41.4223 21.6546 41.4443 21.7679 41.4664 21.8262C41.6513 22.895 41.7802 23.9553 41.7659 25.0421C41.7645 25.1421 41.7605 25.4257 41.7315 25.5071C41.7214 25.6057 41.7132 25.981 41.7057 26.0103C41.7022 26.052 41.6968 26.1645 41.6829 26.1964C41.5201 27.8339 41.2915 28.9615 40.7743 30.541C40.7588 30.5904 40.7307 30.6921 40.7075 30.732C40.3763 31.6238 39.9758 32.4882 39.5093 33.3171C39.4686 33.3907 39.2965 33.7043 39.2513 33.751C39.1744 33.8717 39.1074 33.9807 39.0366 34.1051C38.9445 34.2652 38.8613 34.373 38.7497 34.5214C38.6841 34.6301 38.6311 34.7253 38.5479 34.8225L38.5372 34.838C38.4636 34.9388 38.3243 35.1396 38.2372 35.2205C38.134 35.3539 38.0372 35.4865 37.9179 35.6058C37.8608 35.6846 37.824 35.7392 37.756 35.8081C37.7354 35.8299 37.6493 35.9243 37.6315 35.9372C37.5664 36.016 37.4642 36.1474 37.3936 36.2145C37.2929 36.349 36.8028 36.8651 36.6753 36.9424C36.3685 37.2572 36.0401 37.5502 35.6928 37.8195C35.6072 37.8889 35.4453 38.0271 35.3602 38.0827C34.5399 38.7164 33.6661 39.2778 32.7486 39.7599C32.5433 39.8698 32.2135 40.0528 32.0089 40.1351C31.6915 40.2769 31.373 40.4164 31.0536 40.5532C30.357 40.8514 29.1315 41.1828 28.3826 41.352L28.1989 41.4L27.8515 41.4596C27.6158 41.5048 27.379 41.5446 27.1414 41.5791C27.0054 41.6023 26.8836 41.6236 26.746 41.637C26.5559 41.6616 26.105 41.7181 25.9196 41.7157C25.0011 41.8217 21.8549 41.7417 21.0561 41.4436C20.3534 41.3757 19.1347 40.9676 18.4695 40.7267C16.4817 40.0268 14.5429 38.8025 12.9383 37.4485C12.8337 37.3542 12.7329 37.2713 12.6239 37.1824C12.1173 36.751 11.6015 36.1807 11.1746 35.6806C9.69521 33.9481 8.59885 32.0042 7.9077 29.832C7.69927 29.1769 7.50315 28.6153 7.38343 27.9183ZM41.5065 23.7525C41.5046 23.6989 41.5043 23.6827 41.4938 23.6302L41.4458 23.607C41.4544 23.663 41.461 23.7045 41.4739 23.7603L41.5065 23.7525ZM14.9824 11.7985C14.929 11.7736 14.9482 11.7819 14.8837 11.781C14.9374 11.8207 14.9073 11.8132 14.9721 11.8142L14.9824 11.7985Z" fill="#FCFCFC"></path>
<path d="M40.6012 19.4479L40.6596 19.4203C40.8039 19.4823 40.743 19.5799 40.9068 19.6577C41.0498 20.1432 41.1712 20.557 41.2938 21.0517L41.3266 21.1928C41.3507 21.3143 41.3779 21.4734 41.4079 21.5902C41.4227 21.6546 41.4447 21.7679 41.4667 21.8262C41.6517 22.895 41.7806 23.9552 41.7663 25.042C41.7649 25.1421 41.7609 25.4257 41.7318 25.507C41.7217 25.6057 41.7135 25.9809 41.706 26.0102C41.7025 26.0519 41.6971 26.1644 41.6833 26.1963C41.5204 27.8339 41.2919 28.9615 40.7746 30.5409C40.7592 30.5904 40.731 30.6921 40.7078 30.7319C40.3767 31.6237 39.9761 32.4881 39.5097 33.3171C39.4689 33.3907 39.2969 33.7043 39.2517 33.7509C39.1748 33.8716 39.1078 33.9806 39.037 34.1051C38.9449 34.2651 38.8617 34.3729 38.7501 34.5213C38.6845 34.6301 38.6315 34.7252 38.5483 34.8225L38.5375 34.8379C38.4639 34.9387 38.3247 35.1396 38.2375 35.2204C38.1344 35.3538 38.0376 35.4865 37.9183 35.6058C37.8611 35.6845 37.8243 35.7391 37.7564 35.808C37.7357 35.8298 37.6497 35.9243 37.6319 35.9372C37.5667 36.0159 37.4646 36.1474 37.394 36.2144C37.2932 36.349 36.8032 36.8651 36.6757 36.9424C36.3689 37.2572 36.0405 37.5501 35.6931 37.8194C35.6076 37.8888 35.4456 38.0271 35.3606 38.0826C34.5403 38.7164 33.6665 39.2777 32.7489 39.7598C32.5436 39.8697 32.2139 40.0528 32.0092 40.1351C31.6919 40.2769 31.3734 40.4163 31.0539 40.5532C30.3574 40.8513 29.1318 41.1827 28.383 41.3519L28.1992 41.4L27.8519 41.4595C27.6161 41.5047 27.3794 41.5446 27.1417 41.579C27.0058 41.6022 26.8839 41.6236 26.7464 41.6369C26.5563 41.6615 26.1053 41.718 25.9199 41.7157C25.0014 41.8216 21.8553 41.7417 21.0565 41.4436C20.3537 41.3756 19.1351 40.9676 18.4699 40.7266C16.4821 40.0268 14.5432 38.8024 12.9386 37.4484C12.834 37.3542 12.7332 37.2712 12.6243 37.1824C12.1176 36.7509 11.6019 36.1807 11.1749 35.6805C9.69557 33.948 8.59921 32.0041 7.90806 29.8319C7.69963 29.1769 7.50351 28.6153 7.38379 27.9183C7.4436 28.0134 7.73373 29.081 7.82174 29.3313C9.5163 34.1503 13.4141 37.9333 18.1961 39.667C21.083 40.724 24.2013 40.9835 27.2233 40.4182C28.2229 40.2351 29.1782 39.9982 30.1349 39.6476C33.051 38.5659 35.6008 36.6799 37.4889 34.2084C38.3397 33.1111 39.0799 31.9516 39.6224 30.6759C40.683 28.1822 41.2099 25.6069 41.0653 22.895C41.001 21.6934 40.9326 20.6187 40.6012 19.4479ZM41.5068 23.7525C41.5049 23.6988 41.5047 23.6826 41.4942 23.6301L41.4461 23.6069C41.4548 23.6629 41.4614 23.7044 41.4742 23.7602L41.5068 23.7525Z" fill="#030303"></path>
<path d="M18.4697 40.7267C18.6462 40.6519 18.595 40.651 18.7849 40.7182C18.8589 40.7445 18.9726 40.8094 19.0347 40.8385C19.1231 40.8797 19.2316 40.7885 19.3677 40.8654C19.3751 40.9177 19.3769 40.9355 19.3768 40.9882C19.4354 41.0288 19.423 40.9924 19.4897 41.0196L19.4932 40.9437L19.5347 40.9367C19.5816 40.9765 19.601 40.9971 19.6428 41.0428C19.6978 41.0609 19.7388 41.014 19.7701 40.9753L19.716 40.9505L19.7051 40.9095L19.7335 40.8842C19.8344 40.9142 19.8186 40.9763 19.8574 41.0011C19.9458 41.0571 20.0638 41.0208 20.1555 41.097L20.1815 41.1542C20.141 41.1734 20.1622 41.1675 20.118 41.1715L20.1006 41.1914C20.1451 41.2013 20.1953 41.2107 20.2381 41.2242L20.2566 41.2055C20.2146 41.1214 20.1893 41.1082 20.1982 41.0309L20.2174 41.0288C20.253 41.1108 20.2727 41.1769 20.3359 41.2392C20.5393 41.1235 20.5478 41.3032 20.6798 41.1403C20.7129 41.1982 20.7077 41.2498 20.7108 41.3175C20.7713 41.3625 20.9597 41.3846 21.0272 41.3649C21.0444 41.4028 21.0472 41.4035 21.0563 41.4436C20.3536 41.3757 19.1349 40.9676 18.4697 40.7267Z" fill="#1B1B1C"></path>
<path d="M31.2398 40.2853C31.301 40.2148 31.3012 40.2026 31.3338 40.1114L31.3429 40.0856L31.3896 40.0662C31.5935 40.1862 31.5956 40.0369 31.8234 40.0769L31.8792 40.0938C31.9352 40.1163 31.9506 40.1215 32.0092 40.1351C31.6919 40.2769 31.3734 40.4163 31.0539 40.5532C31.0228 40.447 31.0181 40.4951 31.0509 40.4032C31.1327 40.3101 31.1137 40.4133 31.2398 40.2853Z" fill="#1B1B1C"></path>
<path d="M31.2397 40.2853L31.2903 40.2841L31.2922 40.3195C31.2352 40.3821 31.1307 40.4831 31.0508 40.4032C31.1326 40.3101 31.1136 40.4133 31.2397 40.2853Z" fill="#363738"></path>
<path d="M36.6754 36.9424L36.6709 36.9126C36.7117 36.843 36.8525 36.7298 36.9252 36.6443L36.9149 36.614C36.8385 36.5948 36.8134 36.5904 36.7405 36.5552L36.7365 36.5149L36.7717 36.4837C36.8331 36.4865 36.8835 36.4964 36.9376 36.4701C36.9472 36.4064 36.9545 36.3853 36.9742 36.3232C37.0447 36.2428 37.1242 36.2733 37.2247 36.2203C37.21 36.1486 37.2071 36.1753 37.2226 36.1078C37.307 36.07 37.3351 36.06 37.3991 36.1214L37.3937 36.2144C37.2929 36.349 36.8029 36.865 36.6754 36.9424Z" fill="#1B1B1C"></path>
<path d="M27.1416 41.5791C27.3157 41.4858 27.1829 41.5439 27.2171 41.3916C27.4154 41.2336 27.4772 41.4148 27.6511 41.3754C27.7587 41.2805 27.7735 41.2671 27.9099 41.2263C27.9378 41.4216 27.8632 41.2793 27.8518 41.4595C27.616 41.5048 27.3793 41.5446 27.1416 41.5791Z" fill="#1B1B1C"></path>
<path d="M37.7793 35.5097C37.9052 35.3285 38.0317 35.2118 38.1869 35.0576C38.1963 35.0901 38.2241 35.1965 38.2373 35.2204C38.1341 35.3538 38.0373 35.4865 37.918 35.6058C37.807 35.5643 37.8501 35.5973 37.7793 35.5097Z" fill="#1B1B1C"></path>
<path d="M39.0367 34.1051C38.8855 34.1055 38.8148 34.2021 38.6934 34.1557C38.7372 34.0826 38.7428 34.0851 38.8127 34.0408C38.8727 34.0453 38.8698 34.0451 38.9282 34.0301C39.0016 33.9483 38.9718 33.8679 39.0034 33.7901C39.043 33.6923 39.0545 33.8205 39.2514 33.7509C39.1745 33.8716 39.1075 33.9806 39.0367 34.1051Z" fill="#363738"></path>
<path d="M41.6039 25.6908C41.5502 25.5774 41.4989 25.6437 41.3965 25.5387C41.4968 25.511 41.4872 25.5895 41.5877 25.5598L41.6191 25.4719C41.6866 25.4571 41.6508 25.4571 41.7312 25.507C41.7211 25.6057 41.7129 25.981 41.7054 26.0102L41.688 25.9777C41.6398 25.9866 41.6618 25.9889 41.6215 25.9756C41.6245 25.8645 41.6243 25.7998 41.6039 25.6908Z" fill="#1B1B1C"></path>
<path d="M27.9097 41.2263C28.0304 41.1701 28.0362 41.171 28.1532 41.2165C28.1598 41.3224 28.182 41.3224 28.1989 41.4L27.8516 41.4595C27.863 41.2793 27.9376 41.4215 27.9097 41.2263Z" fill="#1B1B1C"></path>
<path d="M38.3379 34.9092L38.3539 34.9247C38.435 34.8626 38.4401 34.8527 38.5371 34.838C38.4636 34.9387 38.3243 35.1396 38.2371 35.2205C38.224 35.1965 38.1961 35.0901 38.1868 35.0576C38.1631 35.0025 38.1647 35.006 38.1631 34.9458C38.2221 34.897 38.2416 34.9139 38.3379 34.9092Z" fill="#1B1B1C"></path>
<path d="M25.9199 41.7157C25.948 41.6745 25.9588 41.6407 25.9783 41.5945C26.0702 41.5657 26.2905 41.6138 26.3992 41.6194C26.5244 41.6257 26.6364 41.5826 26.7463 41.637C26.5563 41.6616 26.1053 41.718 25.9199 41.7157Z" fill="#1B1B1C"></path>
<path d="M37.6314 35.9372C37.5667 35.9412 37.566 35.9681 37.4837 35.9707C37.4779 35.876 37.5501 35.8341 37.5449 35.812C37.5332 35.7598 37.5191 35.7049 37.5219 35.6224L37.5489 35.6018L37.6005 35.6473L37.6323 35.6494C37.689 35.7532 37.6691 35.7539 37.7558 35.8081C37.7352 35.8299 37.6492 35.9243 37.6314 35.9372Z" fill="url(#paint0_linear_586_1653)"></path>
<path d="M35.3601 38.0826L35.3725 38.0421C35.3545 38.0074 35.335 37.9769 35.3125 37.9453C35.3249 37.8888 35.338 37.8326 35.3516 37.7763C35.4004 37.7641 35.3922 37.8422 35.4941 37.8567C35.6158 37.7892 35.5834 37.7899 35.6927 37.8194C35.6071 37.8888 35.4452 38.0271 35.3601 38.0826Z" fill="#1B1B1C"></path>
<path d="M28.1533 41.2165C28.2478 41.1947 28.3427 41.1739 28.4379 41.1539L28.4526 41.1809C28.4287 41.2402 28.3929 41.2931 28.3828 41.352L28.199 41.4C28.1822 41.3224 28.1599 41.3224 28.1533 41.2165Z" fill="#363738"></path>
<path d="M38.5808 34.4754L38.6094 34.4541C38.6247 34.3737 38.6059 34.3908 38.6493 34.3453C38.758 34.4456 38.6523 34.4403 38.7493 34.5214C38.6837 34.6301 38.6307 34.7253 38.5475 34.8225C38.5419 34.7592 38.5736 34.5603 38.5808 34.4754Z" fill="#1B1B1C"></path>
<path d="M12.624 37.1824C12.7043 37.155 12.7451 37.1236 12.8248 37.1639C12.9437 37.2239 12.966 37.3361 12.9383 37.4484C12.8338 37.3542 12.733 37.2712 12.624 37.1824Z" fill="#1B1B1C"></path>
<path d="M41.6039 25.6908C41.6243 25.7998 41.6246 25.8645 41.6215 25.9756C41.6618 25.9889 41.6398 25.9866 41.6881 25.9777L41.7054 26.0102C41.7019 26.052 41.6965 26.1645 41.6827 26.1963C41.656 26.1394 41.6775 26.156 41.6257 26.1354C41.6011 26.209 41.588 26.2463 41.5545 26.3159L41.5226 26.31C41.5116 26.2228 41.5854 26.1049 41.5882 26.0175C41.5924 25.8853 41.566 25.8277 41.6039 25.6908Z" fill="#5E5E62"></path>
<path d="M37.6328 35.6494C37.6952 35.5946 37.7516 35.5915 37.7795 35.5097C37.8503 35.5974 37.8072 35.5643 37.9183 35.6058C37.8611 35.6846 37.8243 35.7392 37.7563 35.8081C37.6696 35.7539 37.6895 35.7532 37.6328 35.6494Z" fill="#1B1B1C"></path>
<path d="M38.3379 34.9092C38.3536 34.7846 38.4755 34.7295 38.5179 34.6067C38.5315 34.5673 38.4895 34.5666 38.5212 34.4728L38.5812 34.4754C38.5739 34.5603 38.5423 34.7592 38.5479 34.8225L38.5371 34.838C38.4401 34.8528 38.4349 34.8626 38.3538 34.9247L38.3379 34.9092Z" fill="#363738"></path>
<path d="M41.4077 21.5902C41.4225 21.6546 41.4445 21.7679 41.4665 21.8262L41.3882 21.8534L41.3287 21.8243C41.29 21.8661 41.309 21.8566 41.2589 21.8727C41.2146 21.8227 41.2275 21.8509 41.227 21.7832C41.2757 21.7233 41.3807 21.6341 41.4077 21.5902Z" fill="#1B1B1C"></path>
<path d="M40.7079 30.732C40.5966 30.7034 40.601 30.7249 40.5527 30.6537L40.5738 30.6106C40.6652 30.5571 40.6687 30.5553 40.7747 30.541C40.7592 30.5904 40.7311 30.6921 40.7079 30.732Z" fill="#1B1B1C"></path>
<path d="M41.3265 21.1929C41.1575 21.0878 41.1941 21.134 41.0827 20.9466C41.0802 20.865 41.0663 20.8975 41.1174 20.8429L41.1507 20.8439C41.1641 20.9179 41.1753 20.9679 41.1941 21.0409C41.2234 21.0686 41.2311 21.0697 41.2494 21.1062C41.288 21.0752 41.2738 21.0938 41.2937 21.0517L41.3265 21.1929Z" fill="#5E5E62"></path>
<path d="M31.8229 40.0769C31.8259 39.9808 31.8086 39.9766 31.8578 39.9211C31.9114 39.9853 31.8941 40.0076 31.8786 40.0938L31.8229 40.0769Z" fill="#363738"></path>
<path d="M40.002 31.0591C40.1433 31.1693 40.0753 31.4716 40.0992 31.6298C40.1147 31.7323 40.1461 31.6444 40.208 31.8094C40.1393 31.8075 40.1407 31.8127 40.0852 31.7745C39.9858 31.5178 40.017 31.3345 40.002 31.0591Z" fill="#1B1B1C"></path>
<path d="M35.7341 37.3723C35.7845 37.4168 35.8117 37.5131 35.8103 37.5806C35.7487 37.654 35.7763 37.6308 35.6683 37.6577C35.6971 37.6036 35.725 37.5694 35.7163 37.5105L35.6584 37.4808L35.6523 37.4564L35.7341 37.3723Z" fill="#363738"></path>
<path d="M39.2939 32.8502C39.4381 32.864 39.5564 32.9524 39.556 33.1036L39.5061 33.1029C39.4301 33.003 39.3828 32.9423 39.2939 32.8502Z" fill="#1B1B1C"></path>
<path d="M25.8883 41.4574C25.8986 41.5033 25.8796 41.519 25.8564 41.5732C25.7692 41.6224 25.7519 41.6243 25.6534 41.6447C25.6464 41.569 25.641 41.5795 25.6565 41.5073C25.8001 41.5638 25.7814 41.5462 25.8883 41.4574Z" fill="#363738"></path>
<path d="M41.5889 23.4952C41.6878 23.5929 41.6552 23.7542 41.6768 23.8908L41.6805 23.9124C41.665 23.9131 41.6507 23.9039 41.636 23.899C41.6074 23.7628 41.6006 23.6335 41.5889 23.4952Z" fill="#7A797E"></path>
<path d="M39.2812 33.5485C39.2983 33.6593 39.2266 33.6837 39.1474 33.7479L39.1396 33.6528C39.1755 33.5733 39.1746 33.5958 39.2812 33.5485Z" fill="#363738"></path>
<path d="M37.3588 35.8568L37.3698 35.8594L37.3834 35.8915L37.3395 35.9199L37.3569 35.9203C37.2378 35.9665 37.2898 35.9599 37.1544 35.9346C37.1424 35.9152 37.1485 35.9283 37.1445 35.8927C37.2495 35.8978 37.2737 35.9079 37.3588 35.8568Z" fill="#363738"></path>
<path d="M41.4724 25.6819C41.4633 25.8143 41.4895 25.8471 41.5029 25.9711L41.4115 25.8677C41.4 25.7761 41.4183 25.7834 41.4724 25.6819Z" fill="#363738"></path>
<path d="M19.1902 40.4142C19.2598 40.403 19.3394 40.3826 19.398 40.414L19.3757 40.4447C19.3086 40.4616 19.2514 40.4862 19.1885 40.4653L19.1902 40.4142Z" fill="#363738"></path>
<path d="M41.0457 27.6406L41.0951 27.6797C41.1315 27.7587 41.1125 27.8203 41.1015 27.9087C41.0475 27.822 41.037 27.7388 41.0457 27.6406Z" fill="#1B1B1C"></path>
<path d="M40.4118 29.7708L40.4432 29.7879C40.484 29.8615 40.466 29.8786 40.4611 29.9796C40.4123 29.9618 40.4287 29.97 40.3877 29.9365C40.39 29.8729 40.3996 29.8324 40.4118 29.7708Z" fill="#1B1B1C"></path>
<path d="M26.2832 41.1534L26.3109 41.1919C26.2799 41.2559 26.2722 41.2423 26.1932 41.2826L26.1543 41.2523C26.1742 41.1931 26.2089 41.1938 26.2832 41.1534Z" fill="#1B1B1C"></path>
<path d="M41.5671 24.9734L41.6104 25.0076C41.5947 25.0625 41.5872 25.1037 41.5814 25.1604C41.5797 25.182 41.5828 25.1698 41.5657 25.1951C41.5467 25.1152 41.5591 25.0552 41.5671 24.9734Z" fill="#5E5E62"></path>
<path d="M32.2881 39.2021C32.3488 39.1997 32.3917 39.1988 32.4531 39.2009L32.4505 39.2379L32.4022 39.2639C32.3181 39.2522 32.3568 39.2681 32.2881 39.2021Z" fill="#1B1B1C"></path>
<path d="M41.4951 26.9247C41.5504 26.9951 41.5022 27.0726 41.4773 27.1507L41.4482 27.1207C41.4574 27.0417 41.4724 26.9997 41.4951 26.9247Z" fill="#5E5E62"></path>
<path d="M38.0146 33.8363L38.0507 33.8267C38.0667 33.8871 38.0833 33.942 38.1018 34.0015C38.0074 33.9424 38.0257 33.9375 38.0146 33.8363Z" fill="#363738"></path>
<path d="M38.5049 32.9632C38.5764 32.9496 38.5925 32.9405 38.6636 32.9573L38.6675 33.0066C38.5909 33.0084 38.5736 32.9946 38.5049 32.9632Z" fill="#363738"></path>
<path d="M41.1309 27.1409C41.249 27.1242 41.2567 27.1048 41.3146 27.207C41.1885 27.1969 41.2368 27.211 41.1309 27.1409Z" fill="#1B1B1C"></path>
<path d="M41.4453 23.6069L41.4934 23.6301C41.5039 23.6826 41.5041 23.6988 41.506 23.7525L41.4734 23.7602C41.4605 23.7044 41.454 23.6629 41.4453 23.6069Z" fill="#363738" fill-opacity="0.988235"></path>
<path d="M40.8366 10.8249C40.9486 10.9513 40.9997 11.0732 41.0876 11.214C41.5397 11.9394 41.7007 12.9224 41.7703 13.7749C41.8132 13.9631 41.805 14.2085 41.7708 14.3988C41.7406 15.6871 41.1357 16.9748 40.2875 17.8558C40.2422 17.9026 40.4965 18.4979 40.564 18.6627C40.5078 18.7448 40.5071 18.7414 40.4253 18.8016C40.2347 18.0811 39.9959 17.5669 39.751 16.8919C40.0137 16.6666 40.3465 16.2211 40.5359 15.9183C41.3335 14.6332 41.3848 12.9811 41.0911 11.5356C41.0452 11.31 40.8931 11.0634 40.8366 10.8249Z" fill="#030303"></path>
<path d="M41.7702 13.7749C41.813 13.9632 41.8048 14.2086 41.7706 14.3988C41.709 14.4107 41.7005 14.409 41.637 14.4071C41.589 14.3467 41.6047 14.3389 41.5977 14.2441C41.6293 14.285 41.6089 14.2731 41.6574 14.2821C41.6998 14.2361 41.6991 14.2405 41.7069 14.1787C41.709 14.038 41.7237 13.908 41.7702 13.7749Z" fill="#363738"></path>
<path d="M41.5979 14.2441C41.5882 14.1696 41.6021 14.047 41.6213 13.9726C41.6637 14.0319 41.6593 14.0645 41.6647 14.1375L41.6665 14.1648L41.7071 14.1787C41.6993 14.2405 41.7 14.2361 41.6576 14.2821C41.6091 14.2731 41.6295 14.285 41.5979 14.2441Z" fill="#A8A9AB"></path>
<path d="M41.0483 15.6874C41.0971 15.6837 41.0739 15.6783 41.1172 15.7054C41.1589 15.8077 41.1409 15.9167 41.1411 16.0348L41.0968 16.0651C41.0636 16.0011 41.0727 15.9495 41.0235 15.8991C40.9893 15.8639 40.9639 15.824 40.9365 15.7835L40.9461 15.7433L41.0483 15.6874Z" fill="#1B1B1C"></path>
<path d="M41.5967 13.3439C41.6002 13.2335 41.6065 13.174 41.6234 13.0648C41.6761 13.2145 41.6761 13.4198 41.6518 13.5753L41.6316 13.569C41.6065 13.4723 41.6025 13.4437 41.5967 13.3439Z" fill="#A8A9AB"></path>
<path d="M41.5966 13.3438C41.5875 13.2853 41.5485 12.783 41.5596 12.7656L41.598 12.7995C41.6374 12.9155 41.6296 12.9383 41.6233 13.0648C41.6064 13.1739 41.6001 13.2335 41.5966 13.3438Z" fill="#7A797E"></path>
<path d="M40.8326 15.8552C40.8656 15.8837 40.8541 15.8655 40.8645 15.9118C40.8035 15.9784 40.7074 16.0092 40.6223 16.046C40.6158 16.0344 40.62 16.0444 40.6113 16.0011C40.7217 15.9468 40.7487 15.9404 40.8326 15.8552Z" fill="#363738"></path>
<path d="M40.6187 16.1096C40.6927 16.1796 40.6681 16.2762 40.6892 16.42L40.636 16.384C40.5999 16.3013 40.6147 16.2023 40.6187 16.1096Z" fill="#363738"></path>
<path d="M41.6421 14.6567C41.7042 14.76 41.6746 14.8452 41.6327 14.9485C41.5928 14.8247 41.6163 14.7815 41.6421 14.6567Z" fill="#5E5E62"></path>
<path d="M40.9272 16.0605C40.957 16.0712 40.9588 16.0756 40.9856 16.0936C40.9703 16.1329 40.9581 16.1722 40.9474 16.2129L40.9349 16.2298L40.9136 16.2212C40.8995 16.1508 40.9108 16.1308 40.9272 16.0605Z" fill="#363738"></path>
<path d="M40.5908 16.5538C40.6588 16.6122 40.6346 16.5776 40.6656 16.6619L40.6403 16.7017L40.6159 16.7076C40.6145 16.6436 40.6084 16.6156 40.5908 16.5538Z" fill="#1B1B1C"></path>
<path d="M41.4209 13.8636C41.4488 13.8551 41.4336 13.855 41.4659 13.8721L41.4556 13.9975C41.3982 13.9324 41.4174 13.9722 41.4209 13.8636Z" fill="#363738"></path>
<path d="M40.5636 18.6627L40.6676 18.9141C40.6983 19.0062 40.7717 19.247 40.8066 19.3248L40.9062 19.6578C40.7424 19.58 40.8033 19.4823 40.6589 19.4203L40.6006 19.4479L40.5361 19.1703L40.4248 18.8016C40.5066 18.7414 40.5073 18.7448 40.5636 18.6627Z" fill="#1B1B1C"></path>
<path d="M40.6677 18.9141C40.6984 19.0062 40.7717 19.247 40.8066 19.3247C40.7558 19.3011 40.7417 19.3027 40.6848 19.2909C40.6051 19.211 40.628 19.2097 40.6016 19.0743L40.6677 18.9141Z" fill="#363738"></path>
<path d="M38.453 17.9372C38.7966 18.5211 38.8292 19.0974 38.9853 19.7338C39.8635 23.3089 39.5074 27.4577 37.781 30.7352C35.869 34.3645 32.1968 37.2204 28.3006 38.4195C24.6317 39.5693 20.656 39.2112 17.2515 37.4245C14.1421 35.7863 11.2901 33.0087 9.83233 29.7916C9.65034 29.3899 9.40806 28.8736 9.28075 28.4597C8.90259 27.263 8.67102 26.0248 8.59115 24.7723C8.43693 22.3403 8.92701 19.1137 10.0683 16.9653C11.3477 14.5362 13.216 12.4669 15.5023 10.9469C16.3343 10.3853 17.002 9.98072 17.9407 9.58763C18.7196 9.26143 19.4768 9.0443 20.289 8.8215C20.4576 8.75801 20.6521 8.78466 20.8224 8.74514C21.3729 8.61743 21.8852 8.56936 22.4474 8.52605C24.6844 8.35367 27.0242 8.55844 29.1764 9.19995C29.9698 9.43641 30.8628 9.88172 31.5907 10.2744C31.4728 10.3965 31.3533 10.5169 31.227 10.6301C30.8231 10.9917 30.4545 11.3915 30.0488 11.751C29.8676 11.907 29.6754 12.0832 29.4886 12.2305C28.7695 12.7977 28.1719 13.4733 27.532 14.1184C26.3234 15.3322 25.1306 16.5618 23.9538 17.8066C23.497 18.2855 23.0443 18.7682 22.5956 19.2548C22.4221 19.4413 22.0108 19.8975 21.833 20.0469C21.3841 19.5877 20.9223 19.1411 20.4483 18.7078C19.2691 17.6111 18.1549 16.6929 16.4261 16.6796C15.2024 16.6597 14.0231 17.1378 13.1587 18.0042C12.3635 18.7967 11.8622 19.8965 11.5541 20.965C11.4254 21.4116 11.449 21.6832 11.4322 22.1202C11.3725 23.6805 12.36 24.7692 13.3178 25.8677C13.561 26.1464 13.807 26.4225 14.0579 26.6967C15.1126 27.8475 16.1916 28.9756 17.2942 30.0804L18.6693 31.496C19.0701 31.9134 19.4499 32.2922 19.8597 32.6995C20.0166 32.8446 20.1787 33.0005 20.3454 33.1327C20.4568 33.1962 20.5856 33.3096 20.7013 33.3832C22.8134 34.7266 24.5902 32.9285 25.9493 31.4714L27.5773 29.7197L32.8299 24.078L34.046 22.7411C34.2052 22.5655 34.4456 22.2692 34.6207 22.1222C34.7185 21.9715 35.3102 21.3462 35.457 21.1951C35.941 20.6199 36.491 20.0992 36.956 19.5432C37.1874 19.2941 38.2636 18.0557 38.453 17.9372ZM14.9826 11.7985C14.9292 11.7736 14.9484 11.7819 14.8839 11.7809C14.9376 11.8207 14.9075 11.8132 14.9723 11.8142L14.9826 11.7985Z" fill="#10EB10"></path>
<path d="M38.453 17.9372C38.7966 18.5211 38.8292 19.0974 38.9853 19.7338C39.8635 23.3089 39.5074 27.4577 37.781 30.7352C35.869 34.3645 32.1968 37.2204 28.3006 38.4195C24.6317 39.5693 20.656 39.2112 17.2515 37.4245C14.1421 35.7863 11.2901 33.0087 9.83233 29.7916C9.65034 29.3899 9.40806 28.8736 9.28075 28.4597C8.90259 27.263 8.67103 26.0248 8.59115 24.7723C8.43693 22.3403 8.92701 19.1137 10.0683 16.9653C11.3477 14.5362 13.216 12.4669 15.5023 10.9469C16.3343 10.3853 17.002 9.98072 17.9407 9.58763C18.7196 9.26143 19.4768 9.0443 20.289 8.8215C20.4576 8.75801 20.6521 8.78466 20.8224 8.74514C21.3729 8.61743 21.8852 8.56936 22.4474 8.52605C24.6844 8.35367 27.0242 8.55844 29.1764 9.19995C29.9698 9.43641 30.8628 9.88172 31.5907 10.2744C31.4728 10.3965 31.3533 10.5169 31.227 10.6301C30.8231 10.9917 30.4545 11.3915 30.0488 11.751C29.6456 11.4671 28.9092 11.168 28.4492 11.0032C26.3243 10.2266 24.0305 10.031 21.8047 10.4366C18.406 11.021 15.2571 12.8775 13.2591 15.7061C11.6591 17.9712 10.5939 20.347 10.4737 23.1493C10.2864 27.5189 12.4018 32.1602 16.0792 34.6069C19.0338 36.5726 22.7344 37.6423 26.266 36.9731C29.8592 36.3052 33.0117 34.2778 35.1556 31.3277C37.3292 28.3369 37.9906 24.6136 37.3256 21.0046C37.2978 20.8548 37.2673 20.7056 37.2342 20.5568C37.1817 20.3152 37.032 19.7722 36.956 19.5432C37.1874 19.2941 38.2636 18.0557 38.453 17.9372ZM14.9826 11.7985C14.9292 11.7736 14.9484 11.7819 14.8839 11.7809C14.9376 11.8207 14.9075 11.8132 14.9723 11.8142L14.9826 11.7985Z" fill="#030303"></path>
<path d="M9.53416 18.5906C9.58345 18.6247 9.5939 18.6741 9.66506 18.6898C9.70394 18.6983 9.72018 18.7138 9.74974 18.7401L9.7282 18.8174C9.67068 18.8347 9.62697 18.8465 9.56845 18.8598L9.52938 18.8331C9.52881 18.7506 9.5313 18.6731 9.53416 18.5906Z" fill="#1B1B1C"></path>
<path d="M9.37927 19.0229C9.43632 19.0325 9.44068 19.0339 9.49442 19.0554C9.53571 19.1708 9.45254 19.0823 9.49805 19.2885C9.42551 19.2671 9.41733 19.2687 9.35325 19.2248C9.32782 19.1346 9.34838 19.1308 9.37927 19.0229Z" fill="#363738"></path>
<path d="M10.6609 16.3667C10.7104 16.4076 10.6917 16.3843 10.7128 16.441C10.651 16.5733 10.6304 16.6579 10.5423 16.7686L10.5107 16.7317C10.5522 16.6218 10.6115 16.5174 10.6469 16.4106L10.6609 16.3667Z" fill="#1B1B1C"></path>
<path d="M9.14683 25.957C9.28106 25.9868 9.2793 26.0002 9.33349 26.108C9.26022 26.1134 9.24187 26.1206 9.17219 26.0974C9.12702 26.0241 9.14458 26.0639 9.14683 25.957Z" fill="#1B1B1C"></path>
<path d="M9.61621 26.5317C9.72009 26.5859 9.86109 26.587 9.89964 26.6182C9.80322 26.6445 9.79363 26.6517 9.69836 26.6351C9.62001 26.5772 9.64234 26.6135 9.61621 26.5317Z" fill="#1B1B1C"></path>
<path d="M9.84766 20.4393C9.96674 20.4831 10.0164 20.474 10.0153 20.6021C9.94183 20.551 9.87295 20.52 9.84766 20.4393Z" fill="#1B1B1C"></path>
<path d="M11.8379 32.0735C11.9364 32.1054 11.944 32.19 11.9773 32.2837C11.8733 32.2265 11.8761 32.1914 11.8379 32.0735Z" fill="#363738"></path>
<path d="M14.542 13.2556C14.6424 13.3004 14.656 13.3425 14.708 13.4377C14.5973 13.4019 14.5921 13.3558 14.542 13.2556Z" fill="#1B1B1C"></path>
<path d="M10.1483 20.4959C10.1938 20.5283 10.1735 20.5093 10.1996 20.5654C10.1976 20.6441 10.1963 20.6387 10.1578 20.7085C10.1288 20.6443 10.1416 20.5655 10.1483 20.4959Z" fill="#363738"></path>
<path d="M9.46314 28.2073L9.50591 28.204C9.48716 28.2654 9.48133 28.2991 9.47626 28.3634C9.4228 28.3027 9.44397 28.2755 9.46314 28.2073Z" fill="#1B1B1C"></path>
<path d="M11.953 14.6571L11.9685 14.6657C11.971 14.7312 11.9622 14.7353 11.9351 14.7971L11.8887 14.8044C11.932 14.7436 11.9371 14.7301 11.953 14.6571Z" fill="#1B1B1C"></path>
<path d="M9.65723 26.3545C9.71814 26.3461 9.74669 26.3454 9.80847 26.3442L9.84142 26.3806C9.75705 26.3916 9.71636 26.4115 9.65723 26.3545Z" fill="#363738"></path>
<path d="M20.2324 9.97344C20.2845 9.95715 20.2812 9.95507 20.3333 9.96913L20.3594 10.0299C20.2964 10.0101 20.2819 10.0132 20.2324 9.97344Z" fill="#363738"></path>
<path d="M14.8838 11.7809C14.9483 11.7819 14.9291 11.7736 14.9825 11.7985L14.9722 11.8142C14.9074 11.8131 14.9375 11.8207 14.8838 11.7809Z" fill="#1B1B1C" fill-opacity="0.988235"></path>
<path d="M10.2461 19.639L10.2898 19.6285L10.3367 19.6657L10.2837 19.6766L10.2461 19.639Z" fill="#1B1B1C"></path>
<path d="M36.9554 19.5432C37.0313 19.7722 37.1811 20.3152 37.2336 20.5568C37.1192 20.7367 36.9374 20.903 36.8007 21.0677C36.4363 21.5061 36.0582 21.8679 35.6647 22.2683C35.1884 22.755 34.7204 23.2494 34.2601 23.7511C34.1574 23.8617 34.0543 23.9744 33.9552 24.0881C32.6963 25.5293 31.4778 26.958 30.1433 28.3331L28.4924 30.0445C28.0576 30.4964 27.635 30.9743 27.1967 31.425C27.0034 31.624 27.1815 31.6451 26.9457 31.6826C25.3332 33.2805 22.8758 35.8329 20.6629 33.5946C20.6497 33.581 20.6366 33.5674 20.6238 33.5536C20.561 33.3504 20.3582 33.3016 20.3447 33.1327C20.4562 33.1962 20.585 33.3096 20.7006 33.3832C22.8128 34.7266 24.5895 32.9285 25.9487 31.4714L27.5766 29.7197L32.8292 24.078L34.0454 22.7411C34.2045 22.5655 34.445 22.2692 34.6201 22.1222C34.7178 21.9715 35.3096 21.3462 35.4563 21.195C35.9403 20.6199 36.4904 20.0992 36.9554 19.5432Z" fill="#2B7301"></path>
<path d="M35.4564 21.1951L35.4653 21.2435C35.304 21.4464 34.8245 22.0422 34.6201 22.1222C34.7179 21.9715 35.3096 21.3463 35.4564 21.1951Z" fill="#1C5C02"></path>
<path d="M20.6241 33.5536C20.477 33.4397 20.3134 33.2766 20.1782 33.1476C20.1146 33.0869 19.873 32.7579 19.8594 32.6995C20.0163 32.8446 20.1783 33.0005 20.345 33.1326C20.3585 33.3016 20.5613 33.3504 20.6241 33.5536Z" fill="#3F8E08"></path>
<path d="M30.0737 31.3922L30.1717 31.4142C30.2446 31.4853 30.2347 31.4569 30.2603 31.5446C30.223 31.6029 30.2464 31.579 30.1813 31.6081L30.1311 31.5685C30.0896 31.5753 30.0737 31.5774 30.0334 31.5809C30.0196 31.5012 30.0428 31.4771 30.0737 31.3922Z" fill="#3F8E08"></path>
<path d="M15.6962 32.8273C15.7467 32.8685 15.7288 32.8441 15.7447 32.906C15.7051 32.9733 15.6446 32.9902 15.5717 33.0251L15.5592 33.0333L15.5459 33.0176C15.5951 32.9222 15.6187 32.9058 15.6962 32.8273Z" fill="#3F8E08"></path>
<path d="M16.4174 34.4257C16.4463 34.433 16.4606 34.4454 16.4878 34.4616C16.4462 34.5167 16.4023 34.5157 16.3235 34.5441C16.2754 34.4822 16.2803 34.5131 16.2805 34.4517C16.327 34.4459 16.3719 34.437 16.4174 34.4257Z" fill="#1C5C02"></path>
<path d="M21.7112 34.9272C21.7883 34.9509 21.7678 34.9291 21.8093 34.9783C21.7236 35.0463 21.752 35.0037 21.7245 35.1129C21.7271 35.1281 21.7262 35.1155 21.7214 35.1654C21.6945 35.0644 21.703 35.0344 21.7112 34.9272Z" fill="#3F8E08"></path>
<path d="M16.9397 12.5881L16.9544 12.6146C16.854 12.6585 16.8224 12.6738 16.7322 12.7366L16.7115 12.7512L16.6953 12.7295C16.735 12.6411 16.8537 12.6131 16.9397 12.5881Z" fill="#78C10C"></path>
<path d="M35.4162 9.16618C35.5913 9.1176 36.0968 9.25977 36.281 9.27981C38.0531 9.48798 39.326 10.7742 39.6975 12.4961C39.9577 13.4215 39.6335 14.4467 39.0893 15.2124C38.1014 16.6025 36.8831 17.8016 35.7052 19.0274C34.77 20.0004 33.8522 20.998 32.9285 21.9842L30.8042 24.2545C29.9344 25.1669 29.0405 26.0658 28.1899 26.9965C27.0701 28.2213 25.9561 29.445 24.7978 30.6347C24.4636 30.9977 24.1313 31.3626 23.7748 31.7018C22.8547 32.5772 21.9529 32.8017 20.9288 31.9329C20.5283 31.5933 20.2106 31.1976 19.8503 30.8173L17.5929 28.4552C17.3763 28.2431 17.1675 28.0022 16.9578 27.7807C16.3406 27.1385 15.738 26.4827 15.1504 25.8136C14.6414 25.245 13.8828 24.4676 13.4835 23.8439C13.2504 23.4776 13.0804 23.0746 12.9805 22.652C12.5167 20.7654 13.5595 18.6128 15.5041 18.0916C16.5928 17.7997 17.9181 18.354 18.7695 19.0254C19.4145 19.5342 19.9978 20.207 20.5887 20.7778C20.9633 21.1399 21.2097 21.4858 21.6607 21.7639C22.0627 21.5215 22.5965 20.9028 22.9365 20.5445L24.0624 19.3792L29.4453 13.8837C30.1303 13.1765 30.822 12.4754 31.5199 11.7808C32.2613 11.0429 32.8852 10.3838 33.7786 9.80483C34.384 9.41254 34.7506 9.3583 35.4162 9.16618Z" fill="#030303"></path>
<path d="M35.3458 11.0869C36.0253 11.0636 36.5925 11.0779 37.1276 11.5644C37.4995 11.9027 37.6842 12.406 37.7065 12.8961C37.7285 13.3792 37.5351 14.0545 37.2375 14.4376C36.7985 15.0028 36.2149 15.5889 35.7176 16.1121L32.6665 19.2938C29.8373 22.2393 27.0412 25.2161 24.2784 28.2241L23.617 28.9218C23.3363 29.2204 22.6981 30.0054 22.2418 30.0476C22.1308 30.0579 21.6611 29.895 21.5598 29.8085C21.0696 29.3901 20.6203 28.8625 20.1671 28.4072C19.1777 27.4129 18.1899 26.4349 17.2434 25.3992L16.3872 24.4999C15.7522 23.8392 14.9815 23.1115 14.8286 22.151C14.673 21.1791 15.2584 20.1524 16.2744 20.007C17.2182 19.8718 17.7231 20.6172 18.3085 21.2253L20.5409 23.5291C20.8186 23.8129 21.3436 24.3872 21.6279 24.6035L21.6588 24.6269C22.6873 23.5204 23.7319 22.4289 24.7919 21.3528L29.8512 16.2989L32.7518 13.3594C33.3898 12.7102 34.0561 12.0192 34.7344 11.4132C34.9301 11.2382 35.1002 11.1626 35.3458 11.0869Z" fill="#FCFCFC"></path>
<path d="M37.9386 15.449L37.9752 15.4735C38.0574 15.6085 37.9855 15.6681 37.8896 15.759C37.8301 15.7752 37.8078 15.7853 37.7546 15.8167L37.7471 15.8178L37.7363 15.8011C37.8284 15.6584 37.91 15.6172 37.9386 15.449Z" fill="#1B1B1C"></path>
<path d="M36.0632 16.675C36.1568 16.7204 36.1682 16.6791 36.2364 16.7268L36.2564 16.8748C36.1823 16.8822 36.1704 16.8895 36.0998 16.8643C36.0513 16.8014 36.0623 16.756 36.0632 16.675Z" fill="#1B1B1C"></path>
<path d="M30.162 14.543C30.228 14.5737 30.2491 14.5832 30.312 14.6241L30.3134 14.6716C30.2587 14.7271 30.2114 14.7681 30.1526 14.8191L30.139 14.8445L30.1055 14.8354C30.1432 14.6407 30.2018 14.7548 30.162 14.543Z" fill="#1B1B1C"></path>
<path d="M33.3975 10.3425C33.4249 10.3601 33.447 10.4264 33.4643 10.4634C33.4444 10.5653 33.4566 10.5299 33.3593 10.6123L33.3288 10.5948C33.2916 10.4405 33.301 10.4647 33.3975 10.3425Z" fill="#1B1B1C"></path>
<path d="M32.2934 21.5916L32.3384 21.6115C32.3592 21.6836 32.3738 21.7099 32.3566 21.7835L32.325 21.7907L32.2842 21.754L32.2502 21.7667C32.1938 21.8149 32.2252 21.805 32.1539 21.8008L32.1487 21.8228L32.1705 21.8121L32.1387 21.7975C32.1956 21.6913 32.2423 21.7008 32.2934 21.5916Z" fill="#1B1B1C"></path>
<path d="M28.9707 14.8316L28.9988 14.8458C29.0646 14.9858 28.9826 15.0627 28.8704 15.13L28.9086 15.0346C28.8767 14.9871 28.8828 15.0019 28.8643 14.9486L28.9707 14.8316Z" fill="#1B1B1C"></path>
<path d="M32.0673 12.3672C32.0898 12.3749 32.0753 12.3683 32.1055 12.396L32.0338 12.4777C32.1084 12.5766 32.0908 12.5301 32.1006 12.6529C32.0155 12.6263 31.9736 12.6101 31.9434 12.5223C31.9691 12.423 31.9705 12.4483 32.0673 12.3672Z" fill="#1B1B1C"></path>
<path d="M32.5373 12.4344C32.5748 12.5411 32.6142 12.6141 32.6934 12.6937L32.6618 12.6995L32.6154 12.6719L32.5793 12.6756C32.52 12.6479 32.5399 12.6565 32.493 12.6011C32.4863 12.49 32.4778 12.5341 32.5373 12.4344Z" fill="#1B1B1C"></path>
<path d="M18.8759 19.8031L18.9276 19.7846L18.9328 19.811C18.8829 19.8971 18.8875 19.8985 18.8085 19.9541C18.7595 19.9196 18.7632 19.9205 18.7207 19.8776L18.7347 19.8488C18.8035 19.8406 18.8164 19.8382 18.8759 19.8031Z" fill="#1B1B1C"></path>
<path d="M38.13 10.3575C38.2005 10.3802 38.2439 10.4072 38.3079 10.4425L38.3041 10.4728C38.22 10.4714 38.2092 10.4906 38.1314 10.4874C38.1298 10.4428 38.1298 10.4021 38.13 10.3575Z" fill="#1B1B1C"></path>
<path d="M36.3137 16.1319L36.3616 16.1493C36.3531 16.2323 36.2793 16.3554 36.2549 16.4671L36.2148 16.448C36.2247 16.3374 36.2727 16.2368 36.3137 16.1319Z" fill="#363738"></path>
<path d="M31.6662 12.0374C31.7362 12.0576 31.8091 12.0682 31.8567 12.1186L31.8363 12.1415C31.8105 12.1632 31.797 12.1692 31.7679 12.1864C31.7055 12.1603 31.6828 12.1584 31.6406 12.1065L31.6662 12.0374Z" fill="#1B1B1C"></path>
<path d="M20.9918 29.8071L21.0419 29.8378C21.05 29.9217 21.0188 29.9735 20.9629 30.0321L20.9017 30.0178L20.8825 30.0141L20.8662 29.9836C20.9819 29.9386 20.9802 29.9288 20.9918 29.8071Z" fill="#1B1B1C"></path>
<path d="M20.6729 22.0874L20.7141 22.0687C20.7619 22.121 20.7764 22.1488 20.8407 22.1804L20.8241 22.2193L20.7913 22.2465C20.734 22.183 20.7037 22.1636 20.6729 22.0874Z" fill="#1B1B1C"></path>
<path d="M18.8591 27.2613C18.8819 27.2606 18.8683 27.2585 18.8959 27.2803C18.8522 27.3464 18.7846 27.3762 18.715 27.4181L18.6621 27.4132C18.6897 27.3546 18.794 27.3033 18.8591 27.2613Z" fill="#1B1B1C"></path>
<path d="M21.3337 21.9523C21.34 21.9608 21.3686 22.1213 21.4019 22.2058C21.3303 22.1618 21.3183 22.1614 21.2696 22.0914C21.2695 22.0052 21.2659 22.0355 21.3337 21.9523Z" fill="#5E5E62"></path>
<path d="M35.3658 18.0226L35.3761 18.0231L35.386 18.0582L35.3586 18.1007C35.2634 18.1488 35.2491 18.1457 35.1401 18.1566L35.1221 18.129C35.1893 18.0388 35.2196 18.1543 35.3658 18.0226Z" fill="#363738"></path>
<path d="M18.9307 27.5775L19.0086 27.581C19.0928 27.6471 19.0715 27.646 19.1168 27.7631C19.0084 27.7233 18.9938 27.6769 18.9307 27.5775Z" fill="#1B1B1C"></path>
<path d="M33.9674 19.8616L34.003 19.8852C34.0234 19.9476 34.0295 19.9749 34.063 20.0308C34.0269 20.038 34.0051 20.0233 33.962 20.0099C33.9334 19.9467 33.9491 19.9462 33.9674 19.8616Z" fill="#1B1B1C"></path>
<path d="M19.6531 21.2916L19.6934 21.3117C19.7217 21.3743 19.6953 21.4541 19.6822 21.5271C19.587 21.4416 19.6242 21.405 19.6531 21.2916Z" fill="#1B1B1C"></path>
<path d="M23.0614 30.708C23.0837 30.7001 23.0701 30.7017 23.1018 30.7144C23.0502 30.7875 23.0422 30.7866 22.9687 30.8332C22.9715 30.7737 22.9694 30.7814 22.9443 30.728C22.9932 30.7172 23.0124 30.7144 23.0614 30.708Z" fill="#5E5E62"></path>
<path d="M31.2324 21.9787C31.3002 22.027 31.3334 22.1055 31.3145 22.1862L31.284 22.1823C31.2451 22.1187 31.2432 22.0537 31.2324 21.9787Z" fill="#1B1B1C"></path>
<path d="M31.5204 13.2846L31.5685 13.2749C31.5476 13.3556 31.5486 13.3754 31.5556 13.4591C31.5158 13.4309 31.5282 13.439 31.4996 13.3951C31.4956 13.3125 31.4825 13.3464 31.5204 13.2846Z" fill="#363738"></path>
<path d="M27.9281 15.7621C27.9672 15.7891 27.9579 15.7852 27.9881 15.8249L27.9689 15.8517L27.8777 15.8606C27.8505 15.8864 27.8674 15.8776 27.8252 15.8828C27.8451 15.8131 27.8686 15.807 27.9281 15.7621Z" fill="#5E5E62"></path>
<path d="M38.2129 15.6681L38.2864 15.7179L38.2785 15.7428L38.1475 15.7775L38.1064 15.7699L38.1071 15.7409L38.2129 15.6681Z" fill="#5E5E62"></path>
<path d="M37.7389 14.0026L37.7561 14.0275C37.7279 14.0936 37.6951 14.1006 37.6286 14.1515C37.6056 14.1214 37.6168 14.1407 37.6025 14.0895C37.6508 14.047 37.6832 14.0327 37.7389 14.0026Z" fill="#363738"></path>
<path d="M31.6807 21.3594C31.7568 21.4093 31.7629 21.4838 31.7875 21.5742C31.6865 21.533 31.7008 21.4612 31.6807 21.3594Z" fill="#1B1B1C"></path>
<path d="M33.45 11.6028L33.4823 11.6326C33.4612 11.6943 33.4455 11.729 33.4188 11.7877L33.3822 11.7809C33.3665 11.719 33.4092 11.6785 33.45 11.6028Z" fill="#363738"></path>
<path d="M36.6365 15.6261L36.6837 15.604C36.6813 15.6589 36.6806 15.6749 36.6897 15.7276L36.6968 15.7672C36.6583 15.7609 36.6794 15.768 36.6368 15.7366C36.6192 15.6587 36.6129 15.6941 36.6365 15.6261Z" fill="#363738"></path>
<path d="M27.0928 17.3208C27.1413 17.3063 27.2381 17.3615 27.2866 17.3863C27.1943 17.3913 27.1936 17.388 27.1017 17.3654L27.0928 17.3208Z" fill="#1B1B1C"></path>
<path d="M24.9341 19.3752L24.962 19.4028C24.9686 19.4804 24.9517 19.4729 24.8943 19.557C24.8671 19.5332 24.8802 19.5496 24.8652 19.5016L24.9341 19.3752Z" fill="#363738"></path>
<path d="M14.4316 19.8409C14.5075 19.8359 14.5588 19.8347 14.6349 19.8353L14.6372 19.8664C14.5318 19.9026 14.4981 19.9349 14.4316 19.8409Z" fill="#1B1B1C"></path>
<path d="M32.2639 20.1513C32.3432 20.1668 32.3692 20.169 32.4221 20.2259L32.3973 20.2271C32.3256 20.2141 32.3111 20.2351 32.2471 20.2051L32.2639 20.1513Z" fill="#1B1B1C"></path>
<path d="M37.6304 10.1277C37.6423 10.1264 37.6517 10.1391 37.6618 10.1457C37.6691 10.219 37.6721 10.2147 37.6393 10.2797L37.6255 10.2716C37.603 10.1649 37.5931 10.2099 37.6304 10.1277Z" fill="#1B1B1C"></path>
<path d="M37.8772 13.4139C37.9429 13.4295 37.9492 13.4064 38.0146 13.4406L37.9811 13.493L37.9049 13.5218L37.8721 13.5034L37.8772 13.4139Z" fill="#1B1B1C"></path>
<path d="M32.8789 21.1826C32.9403 21.231 32.926 21.201 32.9422 21.2644L32.8745 21.3731L32.8496 21.349C32.8899 21.2705 32.8918 21.2751 32.8789 21.1826Z" fill="#1B1B1C"></path>
<path d="M31.5486 21.2635L31.5971 21.2793L31.6096 21.3112L31.5552 21.4044L31.5172 21.3978L31.4971 21.3654L31.5486 21.2635Z" fill="#1B1B1C"></path>
<path d="M19.9277 22.6057C20.0378 22.6305 20.0545 22.6636 20.0871 22.7628C20.0089 22.7391 19.9784 22.6752 19.9277 22.6057Z" fill="#1B1B1C"></path>
<path d="M20.1189 21.9707L20.1475 21.9661C20.1705 22.0304 20.178 22.03 20.1775 22.0938C20.1654 22.0961 20.175 22.0957 20.1391 22.0867L20.1025 22.0076L20.1189 21.9707Z" fill="#1B1B1C"></path>
<path d="M29.0059 16.0254C29.0326 16.1059 28.9817 16.1345 28.9327 16.2007L28.9004 16.1545C28.94 16.0968 28.9597 16.0764 29.0059 16.0254Z" fill="#1B1B1C"></path>
<path d="M13.96 23.3752C14.0452 23.427 14.0345 23.4525 14.056 23.5413L14.0253 23.5493C14.0013 23.4905 13.9813 23.4349 13.96 23.3752Z" fill="#1B1B1C"></path>
<path d="M35.2158 18.9744L35.2805 18.9899C35.3438 19.0406 35.3461 19.0966 35.3665 19.1775C35.3278 19.1483 35.2639 19.0301 35.2158 18.9744Z" fill="#363738"></path>
<path d="M31.1218 12.9145L31.1382 12.9412L31.1232 12.9777L31.0206 13.007L30.9932 12.9725L31.0042 12.9409L31.1218 12.9145Z" fill="#363738"></path>
<path d="M34.8535 9.89032C34.8928 9.9161 34.876 9.90626 34.9186 9.92925L34.9493 9.94554L34.9214 9.98559C34.8825 9.95269 34.8701 9.9503 34.8232 9.92927L34.8535 9.89032Z" fill="#1B1B1C"></path>
<path d="M22.9325 30.2979C22.947 30.3781 22.9319 30.4008 22.9141 30.4845L22.8855 30.4723C22.873 30.4102 22.906 30.3591 22.9325 30.2979Z" fill="#1B1B1C"></path>
<path d="M33.8896 10.6799C33.9621 10.7095 33.9954 10.7729 34.0425 10.8376L33.9827 10.8299C33.9206 10.7848 33.9262 10.761 33.8896 10.6799Z" fill="#363738"></path>
<path d="M16.7903 26.0829L16.808 26.0887L16.8164 26.1199L16.7326 26.2144L16.6872 26.2005L16.6846 26.1717L16.7903 26.0829Z" fill="#1B1B1C"></path>
<path d="M28.9583 25.0906L28.9808 25.1105C28.9843 25.1801 28.962 25.1775 28.8995 25.2497L28.8868 25.2455L28.877 25.2099L28.9583 25.0906Z" fill="#363738"></path>
<path d="M21.2138 31.623L21.2568 31.6312C21.2712 31.6929 21.2766 31.6915 21.2528 31.7487L21.2441 31.7426C21.2127 31.6702 21.2111 31.6936 21.2138 31.623Z" fill="#1B1B1C"></path>
<path d="M33.5 11.1269C33.5424 11.1899 33.5206 11.2119 33.5103 11.3109L33.4843 11.2895C33.4587 11.2119 33.4723 11.2229 33.5 11.1269Z" fill="#363738"></path>
<path d="M28.3691 15.5909C28.453 15.5883 28.4664 15.5816 28.5198 15.636C28.4582 15.6549 28.4167 15.62 28.3691 15.5909Z" fill="#363738"></path>
<path d="M18.0123 26.6393C18.0973 26.6063 18.1074 26.6177 18.1525 26.6827C18.1175 26.6759 18.0499 26.6719 18.0117 26.6686L18.0123 26.6393Z" fill="#1B1B1C"></path>
<path d="M33.3369 19.5112L33.3709 19.5081L33.4185 19.644C33.3463 19.6068 33.35 19.5832 33.3369 19.5112Z" fill="#363738"></path>
<path d="M25.4642 28.0873L25.501 28.0889L25.4916 28.1611H25.4541L25.4642 28.0873Z" fill="#363738"></path>
<defs>
<linearGradient id="paint0_linear_586_1653" x1="37.4943" y1="35.7741" x2="37.6642" y2="35.8449" gradientUnits="userSpaceOnUse">
<stop stop-color="#252629"></stop>
<stop offset="1" stop-color="#040504"></stop>
</linearGradient>
</defs>
</svg>