<svg width="213" height="217" viewBox="0 0 213 217" fill="none" xmlns="http://www.w3.org/2000/svg">
<g clip-path="url(#clip0_1166_4445)">
<path fill-rule="evenodd" clip-rule="evenodd" d="M174.283 130.743C204.491 105.066 190.157 56.7832 161.405 36.5101C129.565 14.0599 83.9041 15.0915 49.6515 31.2285C8.6316 50.5548 5.255 113.255 43.6284 138.245C76.4394 159.614 126.053 150.307 160.924 137.526C166.62 143.561 171.157 147.179 177.094 152.957C181.243 156.994 186.945 163.344 191.398 167.049C186.026 152.274 180.325 141.719 174.286 130.74L174.283 130.743Z" fill="#EBEBEB" stroke="#EBEBEB" stroke-width="18.9885" stroke-miterlimit="10"></path>
<path fill-rule="evenodd" clip-rule="evenodd" d="M174.283 130.743C204.491 105.066 190.157 56.7832 161.405 36.5101C129.565 14.0599 83.9041 15.0915 49.6515 31.2285C8.6316 50.5548 5.255 113.255 43.6284 138.245C76.4394 159.614 126.053 150.307 160.924 137.526C166.62 143.561 171.157 147.179 177.094 152.957C181.243 156.994 186.945 163.344 191.398 167.049C186.026 152.274 180.325 141.719 174.286 130.74L174.283 130.743Z" fill="#EBEB10" stroke="#101010" stroke-width="4.34023" stroke-miterlimit="10"></path>
</g>
<path d="M64.0003 85.4016C62.6316 85.6155 61.5144 85.4175 60.6485 84.8076C59.795 84.1957 59.2536 83.1561 59.0242 81.6888L56.197 63.6002C56.7638 62.9432 57.4926 62.3935 58.3835 61.9511C59.2847 61.4944 60.2409 61.1871 61.252 61.029C62.744 60.7958 64.0656 60.9682 65.217 61.5461C66.4701 62.2092 67.2123 63.2806 67.4436 64.7602L69.0249 74.8773C68.344 75.0469 67.6967 75.3502 67.0829 75.7872C66.4671 76.2118 66.1862 76.5968 66.2402 76.942C66.273 77.1516 66.418 77.3121 66.6754 77.4235C67.7362 76.2093 69.4688 75.4142 71.8732 75.0384L76.2567 74.3533C77.294 75.6564 77.9293 77.054 78.1625 78.546C78.2781 79.2858 78.2768 80.126 78.1586 81.0666C78.0403 82.0072 77.803 82.7516 77.4466 83.3L64.0003 85.4016ZM84.2385 57.7773L94.9104 56.1093C95.3605 56.6453 95.7268 57.2512 96.0093 57.9271C96.2898 58.5906 96.4735 59.1998 96.5602 59.7546C96.7548 61 96.6547 61.9757 96.2598 62.6816C95.8772 63.3856 95.2481 63.806 94.3727 63.9429L86.919 65.1079C86.4628 65.1792 86.2626 65.3936 86.3185 65.7512L86.3416 65.8992C86.3532 65.9731 86.3732 66.0205 86.4017 66.0413L95.2426 64.6595C95.5243 65.0071 95.7906 65.4581 96.0414 66.0126C96.2877 66.6183 96.4494 67.1678 96.5265 67.661C96.7558 69.1283 96.6638 70.3174 96.2503 71.2283L92.2368 71.8556C90.3626 72.1486 89.1041 72.4211 88.4614 72.6731C87.8168 72.9128 87.422 73.0945 87.2771 73.2182C87.1342 73.3542 87.0762 73.5086 87.1032 73.6812C87.1302 73.8538 87.2377 73.9759 87.4257 74.0476C88.0341 73.7378 88.683 73.4848 89.3724 73.2886C90.2836 73.0578 91.2818 72.8575 92.3669 72.6879L97.5642 71.8756C98.482 72.8185 99.0576 74.0359 99.2908 75.5279C99.4218 76.3663 99.4423 77.1842 99.3522 77.9814C99.262 78.7787 99.044 79.4443 98.698 79.9784L84.8448 82.1436C83.3158 82.3826 82.0311 82.2045 80.9907 81.6092C79.8563 80.9781 79.1696 79.898 78.9306 78.3691L76.1815 60.7798C76.0889 60.1879 76.6997 59.6504 78.0136 59.1671C79.3275 58.6838 81.4025 58.2206 84.2385 57.7773ZM114.31 62.7594L116.342 75.7617C115.852 76.3436 115.158 76.8752 114.261 77.3565C113.363 77.8378 112.237 78.1845 110.88 78.3965C109.524 78.6085 108.324 78.4866 107.28 78.0308C106.105 77.5449 105.424 76.704 105.237 75.5079L103.375 63.5968L99.066 64.2704C97.9797 63.1391 97.319 61.8213 97.0839 60.317C96.9239 59.2936 96.9455 58.3807 97.1485 57.5785C97.3619 56.762 97.6763 56.1065 98.0917 55.6121L117.216 52.623C117.66 53.122 118.061 53.7477 118.419 54.5003C118.777 55.2528 119.016 56.0175 119.138 56.7943C119.365 58.2492 119.212 59.3721 118.679 60.1628C118.144 60.9412 117.333 61.4152 116.248 61.5848L110.829 62.4318C110.806 62.5239 110.802 62.6193 110.817 62.7179C110.852 62.9398 111.004 63.0676 111.275 63.1011C111.56 63.145 112.146 63.0976 113.034 62.9588L114.31 62.7594ZM131.823 67.8853C132.218 67.7477 132.39 67.5125 132.338 67.1796C132.284 66.8343 132.113 66.4694 131.825 66.0849C131.548 65.6861 131.17 65.3283 130.691 65.0116C129.44 64.1967 127.877 63.9357 126.003 64.2286C125.078 64.3732 124.239 64.6622 123.486 65.0957C122.567 64.7972 121.782 64.2188 121.13 63.3607C120.478 62.5026 120.067 61.531 119.898 60.446C119.454 57.61 120.296 55.2363 122.423 53.325C124.251 51.6877 126.657 50.6358 129.641 50.1694C131.86 49.8225 133.766 49.771 135.358 50.0148C136.948 50.2463 138.281 50.6568 139.359 51.2463C139.77 52.0158 140.043 52.8383 140.18 53.7137C140.317 54.5892 140.324 55.4028 140.202 56.1546C140.079 56.9064 139.83 57.5327 139.453 58.0337C138.986 57.7909 138.178 57.595 137.031 57.446C135.883 57.2969 134.86 57.2927 133.96 57.4334C133.059 57.5741 132.464 57.724 132.173 57.8832C131.894 58.0404 131.773 58.2361 131.81 58.4704C131.827 58.5814 131.862 58.6833 131.915 58.7762C132.329 58.5977 132.875 58.4555 133.553 58.3495C135.958 57.9737 138.007 58.2345 139.701 59.1319C141.701 60.2087 142.913 62.1035 143.337 64.8162C143.71 67.2083 143.053 69.3448 141.364 71.2256C139.532 73.2425 136.846 74.5275 133.307 75.0806C131.359 75.3851 129.647 75.5012 128.17 75.4288C126.695 75.3688 125.223 75.081 123.753 74.5655C122.618 73.3661 121.943 72.0758 121.727 70.6948C121.509 69.3015 121.804 68.0744 122.611 67.0136C123.417 65.9527 124.511 65.3144 125.892 65.0985C127.286 64.8807 128.464 64.987 129.428 65.4174C130.405 65.8458 131.203 66.6685 131.823 67.8853ZM54.5458 103.466L65.5136 101.751C66.3764 102.665 66.9225 103.855 67.1518 105.323C67.3793 106.778 67.2622 108.009 66.8006 109.016L66.0423 109.134L66.9095 114.683C64.81 117.171 61.7689 118.726 57.7862 119.349C55.3571 119.728 53.1318 119.634 51.1104 119.066C48.9066 118.463 47.0988 117.362 45.6869 115.764C44.1371 114.01 43.1405 111.716 42.6972 108.88C42.067 104.848 42.7878 101.539 44.8596 98.9544C46.8235 96.4874 49.766 94.9475 53.687 94.3347C55.6229 94.0321 57.4931 94.0366 59.2976 94.3483C61.1144 94.658 62.5897 95.1663 63.7233 95.8734C63.839 96.6132 63.8881 97.5339 63.8709 98.6356C63.8659 99.7353 63.7721 100.59 63.5895 101.2L53.8423 102.723C53.5133 103.204 53.2316 103.867 52.9974 104.712C52.7755 105.555 52.7445 106.488 52.9045 107.512C53.1242 108.917 53.6481 109.966 54.4762 110.658C55.2064 111.289 56.0524 111.529 57.0142 111.379C57.4087 111.317 57.5848 111.151 57.5424 110.879L57.4759 110.454L57.2725 110.486C56.4587 110.613 55.7314 110.405 55.0905 109.861C54.4601 109.302 54.0524 108.431 53.8674 107.248C53.6361 105.768 53.8623 104.507 54.5458 103.466ZM80.5015 102.118C80.3088 100.885 80.1213 100.049 79.939 99.6105C79.7548 99.1593 79.5148 98.9568 79.2188 99.003C79.0339 99.0319 78.877 99.1196 78.7484 99.266C78.8077 99.4841 78.891 99.7743 78.9981 100.136C79.1052 100.499 79.2532 101.284 79.4421 102.492L79.63 103.695C79.761 104.533 79.838 105.146 79.8607 105.534C79.8835 105.922 79.9037 106.254 79.9214 106.529C79.9322 106.679 79.943 106.829 79.9538 106.979C80.1211 107.079 80.2972 107.115 80.4821 107.086C80.778 107.039 80.9458 106.779 80.9855 106.306C81.0232 105.82 80.9458 104.96 80.753 103.727L80.5015 102.118ZM81.8489 115.588C79.6541 115.931 77.5677 115.796 75.5898 115.183C73.6223 114.556 71.932 113.399 70.5189 111.712C69.1039 110.013 68.1777 107.765 67.7402 104.966C67.1062 100.909 67.8316 97.5492 69.9165 94.8865C71.7725 92.5374 74.4082 91.096 77.8237 90.5621C81.5352 89.982 84.65 90.6763 87.1682 92.6448C89.6968 94.599 91.2541 97.4504 91.8399 101.199C92.4913 105.366 91.8295 108.729 89.8544 111.286C88.0562 113.601 85.3877 115.035 81.8489 115.588ZM105.434 98.2215C105.241 96.9885 105.053 96.1525 104.871 95.7137C104.687 95.2624 104.447 95.06 104.151 95.1062C103.966 95.1351 103.809 95.2228 103.68 95.3692C103.74 95.5873 103.823 95.8775 103.93 96.2397C104.037 96.6019 104.185 97.3872 104.374 98.5955L104.562 99.7977C104.693 100.636 104.77 101.249 104.793 101.637C104.815 102.026 104.836 102.357 104.853 102.632C104.864 102.782 104.875 102.932 104.886 103.082C105.053 103.182 105.229 103.218 105.414 103.189C105.71 103.143 105.878 102.883 105.918 102.409C105.955 101.923 105.878 101.064 105.685 99.8306L105.434 98.2215ZM106.781 111.691C104.586 112.034 102.5 111.899 100.522 111.286C98.5543 110.659 96.864 109.502 95.4509 107.815C94.0359 106.117 93.1097 103.868 92.6722 101.069C92.0382 97.012 92.7636 93.6523 94.8485 90.9896C96.7045 88.6406 99.3402 87.1991 102.756 86.6653C106.467 86.0852 109.582 86.7794 112.1 88.7479C114.629 90.7022 116.186 93.5536 116.772 97.302C117.423 101.47 116.762 104.832 114.786 107.389C112.988 109.704 110.32 111.138 106.781 111.691ZM130.366 94.3247C130.173 93.0917 129.985 92.2557 129.803 91.8168C129.619 91.3656 129.379 91.1631 129.083 91.2094C128.898 91.2383 128.741 91.326 128.612 91.4724C128.672 91.6905 128.755 91.9806 128.862 92.3428C128.969 92.705 129.117 93.4903 129.306 94.6987L129.494 95.9009C129.625 96.7394 129.702 97.3526 129.725 97.7407C129.747 98.1287 129.768 98.4603 129.785 98.7354C129.796 98.8853 129.807 99.0352 129.818 99.185C129.985 99.2852 130.161 99.3209 130.346 99.292C130.642 99.2457 130.81 98.9858 130.85 98.5122C130.887 98.0263 130.81 97.1669 130.617 95.9338L130.366 94.3247ZM131.713 107.794C129.518 108.137 127.432 108.002 125.454 107.389C123.486 106.762 121.796 105.605 120.383 103.919C118.968 102.22 118.042 99.9709 117.604 97.1719C116.97 93.1152 117.696 89.7555 119.78 87.0928C121.636 84.7438 124.272 83.3023 127.688 82.7685C131.399 82.1884 134.514 82.8826 137.032 84.8511C139.561 86.8054 141.118 89.6567 141.704 93.4052C142.355 97.5728 141.694 100.935 139.718 103.492C137.92 105.807 135.252 107.241 131.713 107.794ZM155.298 90.4279C155.105 89.1948 154.917 88.3589 154.735 87.92C154.551 87.4688 154.311 87.2663 154.015 87.3126C153.83 87.3415 153.673 87.4291 153.544 87.5756C153.604 87.7937 153.687 88.0838 153.794 88.446C153.901 88.8082 154.049 89.5935 154.238 90.8019L154.426 92.0041C154.557 92.8426 154.634 93.4558 154.657 93.8438C154.679 94.2319 154.7 94.5634 154.717 94.8385C154.728 94.9884 154.739 95.1383 154.75 95.2882C154.917 95.3884 155.093 95.424 155.278 95.3951C155.574 95.3489 155.742 95.089 155.782 94.6154C155.819 94.1295 155.742 93.27 155.549 92.037L155.298 90.4279ZM156.645 103.897C154.45 104.24 152.364 104.105 150.386 103.492C148.418 102.865 146.728 101.708 145.315 100.022C143.9 98.323 142.974 96.0741 142.536 93.2751C141.902 89.2184 142.628 85.8587 144.712 83.196C146.569 80.8469 149.204 79.4055 152.62 78.8717C156.331 78.2916 159.446 78.9858 161.964 80.9543C164.493 82.9086 166.05 85.7599 166.636 89.5083C167.287 93.676 166.626 97.0384 164.65 99.5955C162.852 101.91 160.184 103.344 156.645 103.897Z" fill="black"></path>
<defs>
<clipPath id="clip0_1166_4445">
<rect width="193.072" height="197.874" fill="white" transform="translate(0 19.7781) rotate(-5.87963)"></rect>
</clipPath>
</defs>
</svg>