<svg width="247" height="193" viewBox="0 0 247 193" fill="none" xmlns="http://www.w3.org/2000/svg">
<g clip-path="url(#clip0_1166_4446)">
<path fill-rule="evenodd" clip-rule="evenodd" d="M107.254 153.815C106.902 167.891 87.9893 172.829 63.6349 178.554C89.3066 179.98 128.508 168.69 131.304 156.331C184.321 159.347 213.048 158.442 220.019 149.486C232.44 133.535 238.345 90.3946 234.238 66.3172C232.272 54.8001 232.571 39.7074 207.568 32.8474C194.193 29.1774 173.987 26.5102 148.954 25.6412C130.322 24.9948 102.731 25.3859 91.2987 29.6228C79.3562 34.0495 74.7693 47.7969 74.2365 54.6279C72.9413 71.2379 68.5379 88.0641 70.2371 104.817C71.6862 119.098 74.9625 148.198 107.252 153.809L107.254 153.815Z" fill="#FACAE1" stroke="#EBEBEB" stroke-width="18.1182" stroke-miterlimit="10"></path>
<path fill-rule="evenodd" clip-rule="evenodd" d="M107.254 153.815C106.902 167.891 87.9893 172.829 63.6349 178.554C89.3066 179.98 128.508 168.69 131.304 156.331C184.321 159.347 213.048 158.442 220.019 149.486C232.44 133.535 238.345 90.3946 234.238 66.3172C232.272 54.8001 232.571 39.7074 207.568 32.8474C194.193 29.1774 173.987 26.5102 148.954 25.6412C130.322 24.9948 102.731 25.3859 91.2987 29.6228C79.3562 34.0495 74.7693 47.7969 74.2365 54.6279C72.9413 71.2379 68.5379 88.0641 70.2371 104.817C71.6862 119.098 74.9625 148.198 107.252 153.809L107.254 153.815Z" fill="#EBEB10" stroke="#101010" stroke-width="4.14131" stroke-miterlimit="10"></path>
</g>
<path d="M115.116 77.946C115.163 77.9865 115.305 78.0143 115.542 78.0294C115.779 78.0445 115.965 77.9751 116.1 77.8211C116.236 77.6672 116.317 77.3848 116.345 76.9739L116.37 76.6191C116.401 76.1584 116.367 75.8248 116.269 75.6185C116.183 75.4129 116.015 75.3022 115.766 75.2863C115.529 75.2712 115.366 75.2857 115.275 75.33C115.283 75.393 115.282 75.4993 115.272 75.6487L115.116 77.946ZM115.595 70.9047C115.642 70.9453 115.784 70.9731 116.021 70.9882C116.257 71.0033 116.444 70.9214 116.582 70.7426C116.719 70.5638 116.802 70.2627 116.831 69.8393L116.838 69.7273C116.869 69.279 116.834 68.9579 116.735 68.764C116.649 68.5584 116.481 68.4477 116.232 68.4318C115.996 68.4167 115.832 68.4313 115.741 68.4755C115.75 68.5386 115.749 68.6448 115.738 68.7942L115.595 70.9047ZM105.94 63.0671C105.959 62.7807 106.218 62.4721 106.716 62.1412C107.764 61.4452 109.56 60.9658 112.105 60.7029C113.427 60.5746 114.872 60.5605 116.442 60.6606C120.178 60.8989 122.956 61.8014 124.776 63.3681C126.371 64.7454 127.098 66.4675 126.958 68.5344C126.907 69.2815 126.726 70.0078 126.416 70.7133C126.106 71.4063 125.696 71.9179 125.185 72.248C124.548 71.8697 123.924 71.6611 123.314 71.6222C123.028 71.6039 122.806 71.646 122.649 71.7486C122.492 71.8511 122.403 72.0518 122.383 72.3506C124.208 72.5421 125.59 73.2929 126.526 74.6032C127.358 75.7943 127.717 77.2303 127.603 78.9112C127.426 81.5135 126.207 83.3366 123.947 84.3805C121.829 85.3584 118.715 85.7162 114.605 85.4541C111.728 85.2706 109.623 85.0488 108.29 84.7887C106.957 84.5161 106.015 84.0246 105.463 83.3141C104.911 82.6036 104.682 81.5635 104.775 80.1939L105.94 63.0671ZM141.389 74.013C141.474 72.7679 141.476 71.9114 141.395 71.4435C141.315 70.9633 141.126 70.7136 140.827 70.6945C140.64 70.6826 140.468 70.7341 140.31 70.8491C140.319 71.0748 140.337 71.376 140.361 71.7527C140.385 72.1295 140.356 72.9279 140.273 74.1482L140.19 75.3622C140.133 76.2089 140.072 76.824 140.009 77.2076C139.945 77.5912 139.891 77.9192 139.848 78.1915C139.825 78.3402 139.803 78.4888 139.78 78.6374C139.921 78.7714 140.085 78.8444 140.272 78.8563C140.571 78.8754 140.792 78.6582 140.935 78.2046C141.08 77.7386 141.194 76.883 141.279 75.6379L141.389 74.013ZM139.725 87.4501C137.508 87.3087 135.502 86.7244 133.709 85.6971C131.928 84.6581 130.535 83.1624 129.529 81.21C128.525 79.2451 128.118 76.8494 128.311 74.023C128.589 69.9265 130.04 66.8052 132.663 64.6589C134.993 62.7692 137.883 61.9343 141.333 62.1544C145.082 62.3935 147.967 63.7467 149.988 66.2141C152.022 68.6699 152.911 71.7904 152.654 75.5756C152.367 79.7841 150.978 82.9219 148.486 84.9889C146.22 86.8577 143.299 87.6781 139.725 87.4501ZM170.739 64.2925C172.234 64.3878 173.502 64.8751 174.543 65.7544C175.584 66.6336 176.053 67.8203 175.952 69.3145L175.245 79.6988C175.03 82.8615 173.899 85.2404 171.852 86.8355C169.805 88.4182 167.076 89.1007 163.663 88.8831C160.263 88.6662 157.673 87.657 155.895 85.8553C154.078 84.0512 153.28 81.5368 153.499 78.3119L154.405 64.9952C155.954 63.9185 157.694 63.4417 159.625 63.5649C161.244 63.6681 162.497 64.1795 163.386 65.099C164.275 66.0061 164.66 67.325 164.543 69.0557L163.802 79.9444C163.932 80.0527 164.084 80.1125 164.259 80.1236C164.446 80.1355 164.579 80.1003 164.66 80.0179C164.754 79.9238 164.81 79.7461 164.828 79.4846L165.534 69.1002C165.587 68.3158 165.592 67.6908 165.549 67.2254C165.505 66.7599 165.387 66.2897 165.194 65.8147C166.774 64.6649 168.622 64.1575 170.739 64.2925ZM192.934 75.6311L192.041 88.761C191.434 89.2225 190.64 89.5907 189.658 89.8658C188.676 90.1408 187.5 90.2346 186.13 90.1472C184.76 90.0598 183.617 89.6805 182.699 89.0092C181.66 88.2802 181.182 87.3118 181.264 86.104L182.082 74.0761L177.729 73.7984C176.92 72.4588 176.567 71.0294 176.67 69.5103C176.74 68.4769 176.963 67.5907 177.339 66.8518C177.728 66.1013 178.179 65.5299 178.694 65.1375L198.011 66.3695C198.334 66.9529 198.587 67.6505 198.769 68.4625C198.952 69.2745 199.016 70.0727 198.963 70.8571C198.863 72.3264 198.466 73.389 197.771 74.045C197.076 74.6885 196.181 74.9753 195.085 74.9054L189.611 74.5563C189.568 74.641 189.543 74.7332 189.536 74.8328C189.521 75.057 189.642 75.2147 189.898 75.3061C190.166 75.4107 190.748 75.4917 191.645 75.5489L192.934 75.6311ZM124.834 103.352L123.941 116.482C123.334 116.944 122.539 117.312 121.557 117.587C120.576 117.862 119.4 117.956 118.03 117.869C116.66 117.781 115.516 117.402 114.598 116.731C113.56 116.002 113.081 115.033 113.164 113.825L113.982 101.797L109.629 101.52C108.819 100.18 108.466 98.7507 108.569 97.2316C108.64 96.1982 108.863 95.312 109.238 94.5731C109.627 93.8226 110.078 93.2512 110.593 92.8588L129.91 94.0908C130.233 94.6742 130.486 95.3718 130.669 96.1838C130.851 96.9958 130.916 97.794 130.862 98.5784C130.762 100.048 130.365 101.11 129.67 101.766C128.976 102.41 128.08 102.697 126.984 102.627L121.511 102.278C121.467 102.362 121.442 102.455 121.435 102.554C121.42 102.778 121.541 102.936 121.797 103.027C122.065 103.132 122.648 103.213 123.544 103.27L124.834 103.352ZM142.59 98.2947L141.278 117.588C140.671 118.05 139.876 118.418 138.895 118.693C137.913 118.968 136.737 119.062 135.367 118.974C133.997 118.887 132.853 118.508 131.935 117.836C130.897 117.107 130.418 116.139 130.501 114.931L131.813 95.6378C132.42 95.1763 133.214 94.808 134.196 94.533C135.178 94.258 136.347 94.1638 137.705 94.2503C139.063 94.3369 140.219 94.7108 141.175 95.372C142.199 96.1252 142.671 97.0994 142.59 98.2947ZM163.091 120.743C161.385 120.634 160.065 120.268 159.131 119.646C158.125 118.994 157.615 118.13 157.6 117.053L157.552 115.287C158.716 115.086 159.73 114.438 160.592 113.343C160.826 113.032 160.951 112.759 160.967 112.522C160.989 112.199 160.838 112.026 160.514 112.006L160.458 112.002C160.445 112.014 160.42 112.019 160.382 112.016C159.386 113.791 157.91 114.616 155.955 114.491C154.958 114.428 154.12 114.155 153.44 113.674C152.772 113.194 152.182 112.4 151.669 111.292L151.557 111.284C151.221 111.263 151.043 111.395 151.023 111.682C151.01 111.881 151.069 112.11 151.202 112.368C151.643 113.235 152.222 113.928 152.937 114.449C153.495 114.885 154.095 115.16 154.738 115.276L154.348 118.797C153.568 119.235 152.753 119.533 151.905 119.691C151.067 119.863 149.883 119.9 148.351 119.802C146.831 119.705 145.494 119.32 144.339 118.646C142.919 117.818 142.254 116.75 142.343 115.443C142.454 113.811 143.052 109.804 144.136 103.42C144.713 100.093 145.152 97.7704 145.455 96.4516C146.815 95.3879 148.747 94.9359 151.251 95.0955C153.069 95.2115 154.553 95.6438 155.703 96.3924L156.497 99.8945L155.656 102.598C155.594 102.782 155.557 102.961 155.545 103.135C155.515 103.571 155.749 103.811 156.246 103.855L158.523 96.591C159.052 96.3497 159.735 96.1556 160.57 96.0088C161.407 95.8496 162.311 95.8009 163.282 95.8629C165.101 95.9789 166.424 96.3759 167.254 97.0541C168.097 97.7206 168.55 98.7874 168.612 100.255C168.631 100.531 168.656 100.989 168.688 101.629C169.159 111.438 169.336 117.208 169.218 118.939C167.736 120.307 165.694 120.909 163.091 120.743ZM180.072 97.2901L190.852 97.9776C191.172 98.5983 191.395 99.2691 191.521 99.99C191.648 100.698 191.693 101.333 191.655 101.893C191.569 103.151 191.256 104.081 190.714 104.684C190.185 105.288 189.479 105.562 188.595 105.506L181.066 105.026C180.605 104.996 180.362 105.162 180.338 105.523L180.327 105.672C180.322 105.747 180.331 105.798 180.355 105.824L189.285 106.394C189.483 106.794 189.643 107.292 189.765 107.888C189.871 108.532 189.907 109.103 189.873 109.601C189.773 111.083 189.42 112.224 188.815 113.023L184.761 112.764C182.868 112.644 181.58 112.637 180.897 112.743C180.215 112.837 179.79 112.929 179.621 113.018C179.452 113.12 179.361 113.258 179.349 113.432C179.337 113.606 179.415 113.749 179.583 113.86C180.245 113.689 180.934 113.583 181.65 113.541C182.59 113.514 183.608 113.535 184.704 113.605L189.953 113.94C190.64 115.059 190.933 116.372 190.83 117.878C190.773 118.725 190.612 119.528 190.347 120.286C190.083 121.045 189.723 121.647 189.268 122.093L175.275 121.201C173.73 121.102 172.516 120.65 171.633 119.843C170.666 118.981 170.235 117.778 170.34 116.234L171.548 98.4722C171.589 97.8745 172.303 97.4824 173.692 97.2959C175.081 97.1093 177.207 97.1074 180.072 97.2901Z" fill="black"></path>
<defs>
<clipPath id="clip0_1166_4446">
<rect width="241.283" height="185.687" fill="white" transform="matrix(-0.999588 -0.0287026 -0.0287026 0.999588 246.513 6.92554)"></rect>
</clipPath>
</defs>
</svg>