<svg preserveAspectRatio="none" width="100%" height="100%" overflow="visible" style="display: block;" viewBox="0 0 161.589 116.159" fill="none" xmlns="http://www.w3.org/2000/svg">
<g id="You choose">
<path id="Vector" fill-rule="evenodd" clip-rule="evenodd" d="M90.6361 92.6743C90.6014 102.104 103.167 105.773 119.36 110.074C102.147 110.535 76.1225 102.223 74.488 93.8963C38.9399 94.8965 19.7272 93.7386 15.2326 87.6094C7.22442 76.6926 4.10088 47.7002 7.31282 31.6613C8.85032 23.9894 8.94046 13.8804 25.8096 9.76879C34.8336 7.56914 48.4111 6.17204 65.1849 6.07151C77.6704 5.99697 96.1326 6.78912 103.704 9.84506C111.613 13.0379 114.42 22.3288 114.645 26.9119C115.193 38.0557 117.817 49.4041 116.358 60.5861C115.113 70.1179 112.36 89.5352 90.6378 92.6708L90.6361 92.6743Z" fill="var(--fill-0, #FACAE1)" stroke="var(--stroke-0, #EBEBEB)" stroke-width="12.1336" stroke-miterlimit="10"></path>
<path id="Vector_2" fill-rule="evenodd" clip-rule="evenodd" d="M90.6361 92.6743C90.6014 102.104 103.167 105.773 119.36 110.074C102.147 110.535 76.1225 102.223 74.488 93.8963C38.9399 94.8965 19.7272 93.7386 15.2326 87.6094C7.22442 76.6926 4.10088 47.7002 7.31282 31.6613C8.85032 23.9894 8.94046 13.8804 25.8096 9.76879C34.8336 7.56914 48.4111 6.17204 65.1849 6.07151C77.6704 5.99697 96.1326 6.78912 103.704 9.84506C111.613 13.0379 114.42 22.3288 114.645 26.9119C115.193 38.0557 117.817 49.4041 116.358 60.5861C115.113 70.1179 112.36 89.5352 90.6378 92.6708L90.6361 92.6743Z" fill="var(--fill-0, #EBEB10)" stroke="var(--stroke-0, #101010)" stroke-width="2.7734" stroke-miterlimit="10"></path>
<g id="Group">
<path id="Vector_3" d="M36.9028 41.8015L37.2633 48.7488L32.682 48.9863L32.3215 42.0389L23.5506 32.3979L28.7022 32.131L34.457 38.6987L39.4768 31.5711L44.6284 31.3042L36.9028 41.8015Z" fill="var(--fill-0, #101010)" stroke="var(--stroke-0, #444444)" stroke-width="0.173337"></path>
<path id="Vector_4" d="M70.0208 38.5289C70.0971 39.9901 69.896 41.2936 69.4176 42.4411C68.9392 43.5886 68.2198 44.5627 67.2595 45.3653C66.2993 46.1678 65.1171 46.7988 63.7131 47.2564C62.309 47.714 60.7195 47.9896 58.9446 48.0815C57.1696 48.1734 55.5558 48.0642 54.1032 47.7556C52.6507 47.4453 51.4009 46.9427 50.3557 46.2424C49.3087 45.5438 48.4854 44.6494 47.8822 43.5574C47.279 42.4671 46.9392 41.1913 46.8647 39.7301C46.7884 38.2689 46.9947 36.9654 47.48 35.8179C47.9671 34.6704 48.6951 33.6962 49.6623 32.8919C50.6313 32.0876 51.8204 31.4567 53.2331 30.9991C54.6458 30.5415 56.2388 30.2659 58.0137 30.174C59.7887 30.0821 61.399 30.1913 62.8429 30.5016C64.2868 30.8119 65.5279 31.3163 66.5662 32.0166C67.6045 32.7169 68.4209 33.6113 69.0155 34.7016C69.61 35.7919 69.9463 37.0694 70.0208 38.5306V38.5289ZM65.3754 38.7715C65.3424 38.1354 65.209 37.5079 64.9732 36.8856C64.7375 36.2633 64.3492 35.7156 63.8084 35.2389C63.2659 34.7622 62.5413 34.3896 61.633 34.1226C60.7247 33.8557 59.5807 33.7569 58.2027 33.828C57.2771 33.8765 56.4676 33.9909 55.7742 34.1712C55.0791 34.3514 54.4829 34.5837 53.9854 34.8662C53.4862 35.1488 53.0736 35.4712 52.7443 35.8317C52.4149 36.1923 52.1584 36.5736 51.9712 36.9775C51.7857 37.3796 51.6592 37.7974 51.5951 38.2255C51.5292 38.6554 51.5084 39.0766 51.5292 39.4892C51.5517 39.9104 51.6159 40.3333 51.7251 40.758C51.8343 41.1827 52.0024 41.5865 52.2277 41.9679C52.4548 42.3492 52.7495 42.7011 53.1152 43.02C53.4792 43.3407 53.9247 43.6128 54.4499 43.8382C54.9751 44.0635 55.5922 44.2299 56.3012 44.3374C57.0101 44.4449 57.8265 44.4761 58.7522 44.4275C60.1302 44.3565 61.2586 44.1398 62.134 43.781C63.0093 43.4204 63.6923 42.975 64.1811 42.4446C64.6716 41.9141 65.001 41.3283 65.1708 40.6852C65.3407 40.0438 65.4083 39.4042 65.3754 38.7681V38.7715Z" fill="var(--fill-0, #101010)" stroke="var(--stroke-0, #444444)" stroke-width="0.173337"></path>
<path id="Vector_5" d="M94.184 42.4532C93.801 43.2263 93.2047 43.9162 92.3917 44.5211C91.5788 45.1261 90.5509 45.6253 89.3081 46.0153C88.0652 46.407 86.6023 46.6462 84.9174 46.7329C83.2326 46.8196 81.7488 46.7329 80.4644 46.4729C79.18 46.2129 78.1018 45.8229 77.2317 45.3063C76.3598 44.7881 75.6941 44.1658 75.2348 43.436C74.7737 42.7063 74.5224 41.9159 74.4791 41.0665L73.8932 29.784L78.4762 29.5465L78.9754 39.1823C79.0049 39.7526 79.1054 40.2865 79.2753 40.7874C79.4452 41.2884 79.7416 41.7165 80.1628 42.0771C80.5823 42.4359 81.1595 42.708 81.8944 42.8935C82.6294 43.079 83.5741 43.1414 84.7302 43.0824C85.8777 43.0235 86.8051 42.8623 87.5123 42.6023C88.2195 42.3423 88.762 42.0112 89.1434 41.6108C89.5247 41.2104 89.7709 40.7528 89.8853 40.238C89.9997 39.7232 90.0413 39.1806 90.0118 38.6103L89.5126 28.9745L94.1078 28.7353L94.6937 40.0178C94.737 40.8689 94.5689 41.6801 94.1875 42.4532H94.184Z" fill="var(--fill-0, #101010)" stroke="var(--stroke-0, #444444)" stroke-width="0.173337"></path>
<path id="Vector_6" d="M22.2266 64.3474C22.308 64.344 22.3826 64.318 22.4467 64.2746L22.3878 63.1479C22.9286 62.7389 23.6999 62.3887 24.6984 62.0958C25.6968 61.8046 26.6761 61.633 27.633 61.5827C28.094 62.0056 28.4927 62.6539 28.8325 63.5258C29.1722 64.3977 29.3681 65.1933 29.4218 65.9109C29.2745 66.2507 29.0127 66.6199 28.6418 67.0203C28.2691 67.4207 27.815 67.7951 27.2776 68.147C25.9481 69.0275 24.3968 69.5129 22.6218 69.6048C20.0789 69.7365 18.0387 69.1021 16.5012 67.6998C14.9117 66.2836 14.0503 64.2521 13.9116 61.607C13.7747 58.9601 14.4923 56.8402 16.0644 55.242C16.7561 54.5279 17.5759 53.9732 18.5241 53.5814C19.4722 53.1897 20.4793 52.9644 21.5436 52.9089C23.6237 52.8014 25.3553 53.2157 26.7368 54.1535C28.1183 55.0912 28.8481 56.2994 28.9243 57.7779C28.9815 58.8925 28.6817 59.7332 28.0247 60.3017C27.3678 60.8703 26.4525 61.184 25.2791 61.2447C24.636 61.2776 23.979 61.1528 23.3099 60.8686C22.6409 60.5843 22.237 60.3052 22.1 60.0313C22.0654 59.3536 22.0498 58.8214 22.0532 58.4314C22.0359 58.4245 22.0064 58.421 21.9666 58.4228L21.8799 58.428C21.7568 58.4349 21.6615 58.4748 21.5939 58.5476C21.528 58.6221 21.4726 58.7712 21.431 58.9965C21.3894 59.2218 21.3946 59.8303 21.4448 60.8218C21.5679 63.1913 21.8279 64.3665 22.2248 64.3457L22.2266 64.3474Z" fill="var(--fill-0, #101010)" stroke="var(--stroke-0, #444444)" stroke-width="0.173337"></path>
<path id="Vector_7" d="M44.9769 54.9456L45.6165 67.2561C44.7273 67.9979 43.5607 68.4053 42.1168 68.4816C41.0023 68.5388 40.1061 68.3585 39.4318 67.9373C38.7229 67.5109 38.345 66.8591 38.3 65.9838L38.1734 63.531L39.0522 63.486C39.3902 63.4686 39.6017 63.4132 39.6832 63.323C39.7647 63.2312 39.8011 63.0873 39.7907 62.8897L35.901 63.0908C35.9114 63.2884 35.9564 63.4288 36.0344 63.512C36.1142 63.5952 36.2927 63.6298 36.5735 63.6142L37.5147 63.5657L37.7279 67.6651C37.1143 68.1106 36.525 68.4192 35.9634 68.589C35.4 68.7589 34.8228 68.8594 34.2283 68.8906C33.1137 68.9478 32.2175 68.7676 31.5433 68.3463C30.8343 67.9199 30.4564 67.2682 30.4114 66.3928L29.7718 54.0703C30.1774 53.5936 30.6904 53.2175 31.3093 52.9419C31.9281 52.6663 32.5798 52.5103 33.2662 52.4739C34.2647 52.4219 35.1244 52.6264 35.8438 53.0857C36.6238 53.6075 37.0398 54.365 37.0918 55.3547L37.2062 57.5596L38.7784 57.4781C38.768 57.2632 38.7212 57.1193 38.638 57.0448C38.5548 56.9702 38.4282 56.9373 38.2549 56.946L37.8337 56.9685L37.6621 53.6612C38.0677 53.1845 38.5808 52.8084 39.1996 52.5328C39.8184 52.2572 40.4701 52.1012 41.1566 52.0648C42.155 52.0128 43.0147 52.2173 43.7341 52.6767C44.5141 53.1984 44.9301 53.9559 44.9821 54.9456H44.9769Z" fill="var(--fill-0, #101010)" stroke="var(--stroke-0, #444444)" stroke-width="0.173337"></path>
<path id="Vector_8" d="M54.7394 67.9997C53.2695 68.0759 51.9053 67.8419 50.6486 67.2994C49.3902 66.7568 48.3536 65.878 47.5372 64.6664C46.7208 63.4548 46.2632 61.9121 46.1661 60.0366C46.0257 57.3204 46.7329 55.1554 48.2877 53.5433C49.671 52.122 51.5066 51.3524 53.7929 51.2327C56.2786 51.1045 58.2841 51.7718 59.8147 53.2365C61.3435 54.7012 62.1738 56.6894 62.3038 59.1976C62.4494 61.9883 61.7838 64.1585 60.3069 65.7081C58.9636 67.1104 57.1071 67.8731 54.7376 67.9962L54.7394 67.9997ZM54.7706 59.0329C54.7272 58.2078 54.6613 57.641 54.5712 57.336C54.4811 57.0309 54.3372 56.8818 54.1379 56.8922C54.0148 56.8991 53.9039 56.9459 53.8103 57.0326C53.8345 57.18 53.8692 57.3776 53.916 57.6237C53.9628 57.8698 54.0061 58.3968 54.0477 59.2063L54.0893 60.0106C54.1188 60.5722 54.1275 60.9812 54.1153 61.2378C54.1032 61.4943 54.0945 61.7145 54.0876 61.8982C54.0841 61.997 54.0807 62.0975 54.0789 62.1963C54.1829 62.2743 54.2956 62.309 54.4187 62.3021C54.6163 62.2917 54.7445 62.1305 54.8035 61.8167C54.8624 61.503 54.8694 60.9344 54.826 60.1076L54.7706 59.0295V59.0329Z" fill="var(--fill-0, #101010)" stroke="var(--stroke-0, #444444)" stroke-width="0.173337"></path>
<path id="Vector_9" d="M71.6741 67.1208C70.2042 67.1971 68.84 66.9631 67.5833 66.4205C66.3249 65.878 65.2883 64.9992 64.4719 63.7875C63.6555 62.5759 63.1996 61.0332 63.1008 59.1577C62.9604 56.4415 63.6676 54.2765 65.2224 52.6645C66.6057 51.2431 68.4413 50.4735 70.7276 50.3539C73.2133 50.2256 75.2205 50.893 76.7494 52.3577C78.2782 53.8224 79.1085 55.8106 79.2385 58.3188C79.3841 61.1095 78.7185 63.2797 77.2417 64.8293C75.8983 66.2316 74.0418 66.9943 71.6723 67.1174L71.6741 67.1208ZM71.7053 58.1541C71.6619 57.329 71.5961 56.7622 71.5059 56.4571C71.4158 56.152 71.2719 56.003 71.0726 56.0134C70.9495 56.0203 70.8386 56.0671 70.745 56.1538C70.7692 56.3011 70.8039 56.4987 70.8507 56.7448C70.8975 56.991 70.9408 57.5179 70.9824 58.3274L71.024 59.1317C71.0535 59.6933 71.0622 60.1024 71.05 60.3589C71.0379 60.6155 71.0292 60.8356 71.0223 61.0193C71.0188 61.1182 71.0154 61.2187 71.0136 61.3175C71.1176 61.3955 71.2303 61.4302 71.3534 61.4232C71.551 61.4128 71.6793 61.2516 71.7382 60.9379C71.7971 60.6241 71.8041 60.0556 71.7607 59.2288L71.7053 58.1506V58.1541Z" fill="var(--fill-0, #101010)" stroke="var(--stroke-0, #444444)" stroke-width="0.173337"></path>
<path id="Vector_10" d="M87.1292 61.4007C87.3997 61.3366 87.5279 61.191 87.5158 60.9639C87.5036 60.7368 87.4187 60.4855 87.2592 60.2081C87.0998 59.9308 86.8727 59.6708 86.5798 59.4298C85.8101 58.8076 84.7979 58.5285 83.5429 58.5944C82.9241 58.6273 82.3503 58.759 81.8251 58.9948C81.241 58.7348 80.7626 58.3014 80.3916 57.6913C80.0207 57.0811 79.8161 56.4138 79.778 55.6858C79.6792 53.786 80.3951 52.2797 81.9274 51.1651C83.2448 50.2118 84.9019 49.6814 86.8987 49.5791C88.3842 49.5028 89.6444 49.5964 90.6757 49.8616C91.7088 50.1268 92.5582 50.4908 93.229 50.9519C93.4474 51.4875 93.5722 52.0474 93.6017 52.6333C93.6329 53.2192 93.5809 53.7565 93.4491 54.2436C93.3174 54.7307 93.1094 55.1259 92.8268 55.431C92.5356 55.2385 92.0174 55.0548 91.2703 54.878C90.5249 54.7012 89.8489 54.6284 89.2474 54.6596C88.6442 54.6908 88.2438 54.7497 88.0462 54.8329C87.8469 54.9179 87.7533 55.0392 87.7602 55.1952C87.7637 55.2698 87.7793 55.3391 87.8087 55.4032C88.0947 55.3131 88.4639 55.2576 88.9181 55.2334C90.5284 55.1501 91.8596 55.4622 92.9152 56.1676C94.1598 57.0135 94.8289 58.3448 94.9225 60.1613C95.0057 61.763 94.4267 63.1254 93.1856 64.2504C91.8405 65.4551 89.9841 66.1172 87.6146 66.2403C86.3094 66.3079 85.174 66.2697 84.2068 66.1259C83.2396 65.982 82.2879 65.6891 81.3554 65.2488C80.6898 64.3804 80.3327 63.4825 80.2842 62.5534C80.2356 61.6243 80.513 60.8373 81.1179 60.1943C81.7211 59.5512 82.489 59.2045 83.4181 59.156C84.3472 59.1074 85.1168 59.2582 85.7269 59.6066C86.3371 59.9551 86.8034 60.5531 87.1292 61.3972V61.4007Z" fill="var(--fill-0, #101010)" stroke="var(--stroke-0, #444444)" stroke-width="0.173337"></path>
<path id="Vector_11" d="M100.808 49.1926L107.954 48.8216C108.214 49.2047 108.414 49.6277 108.554 50.0887C108.695 50.5498 108.774 50.9658 108.793 51.3368C108.837 52.1705 108.707 52.8067 108.402 53.2452C108.097 53.6838 107.653 53.9178 107.065 53.9472L102.075 54.2055C101.77 54.2211 101.622 54.3494 101.635 54.5886L101.64 54.6874C101.643 54.7376 101.652 54.7688 101.669 54.7844L107.589 54.4776C107.75 54.7255 107.896 55.041 108.022 55.4241C108.143 55.8401 108.213 56.2127 108.23 56.5438C108.28 57.5266 108.14 58.3032 107.805 58.8752L105.117 59.0139C103.862 59.0797 103.014 59.1716 102.572 59.2895C102.132 59.4073 101.858 59.5027 101.756 59.5737C101.652 59.6535 101.603 59.7506 101.609 59.8667C101.616 59.9828 101.678 60.0695 101.796 60.1302C102.217 59.9672 102.662 59.8459 103.13 59.7627C103.746 59.6726 104.418 59.6084 105.145 59.572L108.625 59.3917C109.166 60.0764 109.463 60.9171 109.513 61.9155C109.542 62.4772 109.501 63.018 109.386 63.5362C109.272 64.0563 109.083 64.4792 108.819 64.8068L99.5441 65.2887C98.5197 65.3424 97.686 65.1361 97.0412 64.6733C96.3374 64.1811 95.9578 63.4218 95.9041 62.3974L95.2922 50.6191C95.2714 50.2222 95.7099 49.9102 96.6095 49.6814C97.5092 49.4526 98.908 49.2896 100.806 49.1908L100.808 49.1926Z" fill="var(--fill-0, #101010)" stroke="var(--stroke-0, #444444)" stroke-width="0.173337"></path>
</g>
</g>
</svg>