<svg preserveAspectRatio="none" width="100%" height="100%" overflow="visible" style="display: block;" viewBox="0 0 169.661 130.226" fill="none" xmlns="http://www.w3.org/2000/svg">
<g id="Layer_1" clip-path="url(#clip0_0_8)">
<path id="Vector" fill-rule="evenodd" clip-rule="evenodd" d="M132.445 82.7221L134.74 99.939L147.563 95.3578L158.548 119.709L144.14 104.663L130.707 109.665L112.147 98.547L104.37 118.739L89.9874 97.1565L70.1778 115.278L63.1678 89.1416L39.8395 101.326L41.5017 82.3092L13.4511 77.3166L34.1775 62.6636L15.9405 43.6054L37.3895 40.7091L34.6541 14.647L55.6903 35.1366L62.0126 13.17L79.2052 36.099L97.3526 13.1427L101.313 43.021L122.95 27.6515L124.192 50.3756L150.017 41.7231L134.74 64.9831L155.556 74.9243L132.445 82.7221Z" fill="var(--fill-0, #EB10EB)" stroke="var(--stroke-0, #EBEBEB)" stroke-width="10.6258"></path>
<path id="Vector_2" fill-rule="evenodd" clip-rule="evenodd" d="M132.445 82.7221L134.74 99.939L147.563 95.3578L158.548 119.709L144.14 104.663L130.707 109.665L112.147 98.547L104.37 118.739L89.9874 97.1565L70.1778 115.278L63.1678 89.1416L39.8395 101.326L41.5017 82.3092L13.4511 77.3166L34.1775 62.6636L15.9405 43.6054L37.3895 40.7091L34.6541 14.647L55.6903 35.1366L62.0126 13.17L79.2052 36.099L97.3526 13.1427L101.313 43.021L122.95 27.6515L124.192 50.3756L150.017 41.7231L134.74 64.9831L155.556 74.9243L132.445 82.7221Z" fill="var(--fill-0, #EB10EB)" stroke="var(--stroke-0, #101010)" stroke-width="2.42876"></path>
<g id="Group">
<path id="Vector_3" d="M56.7619 51.5505C56.5843 52.2548 56.299 52.8438 55.9058 53.3174C55.5111 53.791 55.0284 54.1492 54.4561 54.3891C53.8839 54.6304 53.2311 54.7564 52.4995 54.7686C51.7663 54.7807 50.9724 54.679 50.1178 54.465C49.2631 54.2494 48.5133 53.9625 47.8696 53.6043C47.226 53.2461 46.7069 52.8241 46.3122 52.3413C45.9175 51.8571 45.6579 51.3122 45.5304 50.708C45.4029 50.1023 45.4287 49.4481 45.6048 48.7437C45.7809 48.0394 46.0693 47.4519 46.467 46.9783C46.8647 46.5047 47.352 46.1495 47.9288 45.9097C48.5041 45.6698 49.1614 45.5438 49.8976 45.5332C50.6339 45.5226 51.4293 45.6228 52.2854 45.8383C53.14 46.0539 53.8884 46.3393 54.5275 46.6975C55.1665 47.0558 55.6811 47.4747 56.0728 47.9574C56.4629 48.4401 56.7194 48.9836 56.8424 49.5877C56.9653 50.1919 56.938 50.8461 56.7619 51.5505ZM54.526 50.9873C54.6034 50.6807 54.6307 50.3634 54.6094 50.034C54.5882 49.7046 54.4835 49.3889 54.2967 49.0838C54.1085 48.7787 53.8201 48.4963 53.4285 48.2367C53.0368 47.9772 52.5086 47.7646 51.8452 47.5977C51.3989 47.4853 50.9997 47.4216 50.643 47.4064C50.2878 47.3912 49.9705 47.414 49.6927 47.4747C49.4149 47.5354 49.1721 47.628 48.9641 47.751C48.7546 47.8739 48.577 48.0181 48.4313 48.1821C48.284 48.346 48.1641 48.5252 48.0715 48.7195C47.9774 48.9138 47.9061 49.1111 47.856 49.3099C47.8044 49.5134 47.774 49.7228 47.7634 49.9399C47.7527 50.157 47.774 50.3725 47.8256 50.5866C47.8772 50.8006 47.9668 51.0101 48.0928 51.215C48.2188 51.4199 48.3903 51.6142 48.6059 51.7979C48.8214 51.9816 49.0901 52.1501 49.4104 52.3049C49.7307 52.4597 50.1132 52.5933 50.5595 52.7041C51.2244 52.8711 51.789 52.9334 52.2566 52.8893C52.7241 52.8453 53.1127 52.7345 53.4224 52.5539C53.7321 52.3732 53.9734 52.144 54.148 51.8647C54.3225 51.5854 54.447 51.2924 54.5244 50.9858L54.526 50.9873Z" fill="var(--fill-0, #EBEBEB)"></path>
<path id="Vector_4" d="M68.0046 58.7275L69.1598 54.1341C69.2372 53.8275 69.2812 53.5436 69.2918 53.2825C69.3025 53.0214 69.2599 52.7831 69.1628 52.5706C69.0656 52.3581 68.9032 52.1714 68.6755 52.0104C68.4478 51.8495 68.1351 51.719 67.7374 51.6188C67.4353 51.5429 67.1075 51.5034 66.7553 51.5019C66.4031 51.5004 66.0464 51.5262 65.6866 51.5793C65.3269 51.6325 64.9762 51.7114 64.6347 51.8161C64.2931 51.9209 63.9835 52.0408 63.7026 52.1774L62.4093 57.3203L60.1961 56.7632L62.2575 48.5662L64.4707 49.1233L64.1884 50.245C64.5072 50.157 64.8426 50.072 65.1963 49.9946C65.55 49.9172 65.9204 49.858 66.306 49.82C66.6915 49.7821 67.0938 49.7729 67.5112 49.7927C67.9287 49.8124 68.3583 49.8792 68.8 49.99C69.3525 50.1297 69.8307 50.3194 70.233 50.5623C70.6352 50.8052 70.957 51.0875 71.1969 51.4078C71.4382 51.7281 71.5946 52.0833 71.669 52.4719C71.7434 52.8605 71.7251 53.2688 71.6174 53.6984L70.2132 59.2831L68.0061 58.7275H68.0046Z" fill="var(--fill-0, #EBEBEB)"></path>
<path id="Vector_5" d="M84.4274 62.4268C83.6987 62.4799 82.9883 62.4723 82.2931 62.401C81.5979 62.3296 80.9011 62.2067 80.2013 62.0306C79.3057 61.8059 78.5346 61.5084 77.8849 61.141C77.2352 60.7722 76.7176 60.3456 76.332 59.8599C75.9464 59.3741 75.6945 58.8352 75.5776 58.2432C75.4607 57.6512 75.485 57.0213 75.6535 56.3533C75.8098 55.7325 76.08 55.1891 76.4671 54.7215C76.8527 54.254 77.3278 53.8821 77.8895 53.6073C78.4511 53.3326 79.0887 53.1671 79.8006 53.111C80.5125 53.0548 81.2715 53.1292 82.0791 53.3311C82.8229 53.5178 83.4786 53.7895 84.0464 54.1462C84.6141 54.5029 85.071 54.934 85.4156 55.438C85.7602 55.9435 85.9818 56.5158 86.082 57.1533C86.1822 57.7924 86.1366 58.4861 85.9484 59.239L85.8103 59.7885L77.7316 57.7575C77.7377 58.0337 77.7969 58.3009 77.9077 58.5559C78.0185 58.811 78.1961 59.0508 78.4405 59.2739C78.6849 59.4956 79.0021 59.7005 79.3938 59.8872C79.7839 60.0739 80.2666 60.2394 80.8389 60.3836C81.2442 60.4853 81.648 60.5612 82.0502 60.6082C82.4525 60.6568 82.8335 60.6826 83.1917 60.6857C83.55 60.6887 83.8779 60.675 84.1754 60.6447C84.4729 60.6143 84.7173 60.5688 84.9101 60.5126L84.4289 62.4283L84.4274 62.4268ZM84.0145 57.6087C84.0464 57.4008 84.0373 57.1761 83.9902 56.9332C83.9431 56.6903 83.8323 56.4551 83.6578 56.2243C83.4832 55.9936 83.2327 55.778 82.9079 55.5761C82.583 55.3743 82.155 55.2058 81.6267 55.0722C81.1288 54.9477 80.684 54.9006 80.2909 54.9325C79.8977 54.9644 79.5562 55.0418 79.2663 55.1633C78.9763 55.2847 78.7365 55.4335 78.5483 55.6111C78.36 55.7887 78.2234 55.9602 78.1384 56.1302L84.0145 57.6072V57.6087Z" fill="var(--fill-0, #EBEBEB)"></path>
<path id="Vector_6" d="M104.337 67.8626L105.196 64.4442L99.5643 63.0279L98.7051 66.4464L96.4919 65.8893L98.5533 57.6922L100.767 58.2493L100.017 61.2321L105.648 62.6484L106.398 59.6656L108.611 60.2227L106.55 68.4197L104.337 67.8626Z" fill="var(--fill-0, #EBEBEB)"></path>
<path id="Vector_7" d="M111.56 69.6797L113.621 61.4826L115.834 62.0397L113.773 70.2368L111.56 69.6797Z" fill="var(--fill-0, #EBEBEB)"></path>
<path id="Vector_8" d="M124.989 66.2369L123.377 72.6503L121.163 72.0932L122.775 65.6798L119.298 64.8054L119.747 63.0218L128.923 65.3291L128.474 67.1128L124.99 66.2369H124.989Z" fill="var(--fill-0, #EBEBEB)"></path>
</g>
<g id="Group_2">
<path id="Vector_9" d="M43.8084 58.6349C44.1879 58.3161 44.6433 58.1081 45.1761 58.011C45.7089 57.9153 46.266 57.9457 46.8474 58.1036C47.2709 58.2189 47.6443 58.3632 47.9677 58.5392C48.291 58.7138 48.5521 58.9172 48.7525 59.1464C48.9528 59.3756 49.0879 59.6291 49.1562 59.9039C49.2245 60.1786 49.2154 60.4747 49.1304 60.7889C49.0029 61.138 48.8754 61.5145 48.7464 61.9182C48.6174 62.322 48.4914 62.7213 48.3684 63.1174C48.2455 63.5121 48.1301 63.8916 48.0269 64.2529C47.9221 64.6142 47.8341 64.9254 47.7643 65.1849C47.7202 65.3489 47.6975 65.4992 47.6944 65.6388C47.6929 65.7785 47.7612 65.8665 47.9009 65.9045C47.9494 65.9181 48.0117 65.9257 48.0891 65.9272C48.1058 65.8407 48.1271 65.7496 48.1544 65.6525C48.1802 65.5553 48.209 65.4491 48.2409 65.3352C48.3456 64.9481 48.4731 64.5018 48.6234 63.9964C48.7737 63.4909 48.9331 62.9823 49.1016 62.4693C49.2701 61.9562 49.4386 61.4644 49.6086 60.9938C49.7786 60.5232 49.9319 60.1316 50.0685 59.8174C50.3706 59.7308 50.7152 59.6914 51.0992 59.6974C51.4833 59.705 51.8673 59.7597 52.2484 59.8629C52.5444 59.9434 52.8343 60.0481 53.1182 60.1771C53.402 60.3062 53.6494 60.4595 53.8604 60.6371C54.0714 60.8147 54.2323 61.0151 54.3401 61.2397C54.4479 61.4644 54.4752 61.7118 54.4206 61.9835C54.3143 62.3053 54.1807 62.6666 54.0198 63.0689C53.8589 63.4711 53.6844 63.8901 53.4976 64.3258C53.3109 64.7629 53.1166 65.2123 52.9132 65.6737C52.7098 66.1352 52.5125 66.5875 52.3212 67.0293C52.3698 67.0687 52.4229 67.0961 52.4836 67.1128C52.5686 67.1355 52.6521 67.1279 52.7341 67.0885C52.8161 67.049 52.9132 66.9185 53.0256 66.6953C53.276 66.1792 53.5143 65.6616 53.739 65.1439C53.9637 64.6263 54.1731 64.1239 54.3674 63.6381C54.5617 63.1508 54.7378 62.6863 54.8972 62.2416C55.0566 61.7968 55.1978 61.387 55.3192 61.0105C55.5849 60.9194 55.9127 60.8678 56.3029 60.8526C56.693 60.839 57.1848 60.9118 57.7783 61.0727C58.1715 61.179 58.5146 61.3308 58.806 61.5266C59.0975 61.7224 59.3282 61.9532 59.5012 62.2173C59.6728 62.4814 59.7821 62.7744 59.8276 63.0962C59.8731 63.418 59.8489 63.7535 59.7547 64.1041C59.7229 64.2195 59.6561 64.3971 59.5513 64.6385C59.4466 64.8798 59.3176 65.1637 59.1643 65.4885C59.0109 65.8149 58.8364 66.1686 58.6421 66.5511C58.4478 66.9336 58.2428 67.3268 58.0303 67.7306C57.8163 68.1344 57.6007 68.5336 57.3837 68.9298C57.1651 69.326 56.9556 69.6948 56.7522 70.0349C56.5488 70.3764 56.3606 70.683 56.186 70.9532C56.0114 71.225 55.8611 71.4375 55.7351 71.5908C55.5029 71.8716 55.2509 72.0932 54.9807 72.2541C54.709 72.415 54.4145 72.5243 54.0972 72.5851C53.7785 72.6443 53.4369 72.6579 53.0726 72.6245C52.7083 72.5911 52.3167 72.5168 51.8992 72.4044C51.7171 72.3559 51.5258 72.2891 51.3239 72.2041C51.122 72.1206 50.9262 72.028 50.7364 71.9278C50.5452 71.8276 50.3691 71.7229 50.2067 71.6136C50.0443 71.5043 49.9122 71.401 49.809 71.3009C49.7695 71.1794 49.7361 71.0367 49.7057 70.8728C49.6754 70.7088 49.6511 70.5373 49.6298 70.3597C49.6101 70.1821 49.5949 70.0091 49.5858 69.8406C49.5767 69.6721 49.5752 69.5248 49.5858 69.3973C49.4447 69.3654 49.3414 69.3761 49.2746 69.4292C49.2078 69.4823 49.1593 69.5673 49.1289 69.6812C49.094 69.8087 49.0788 69.9726 49.0819 70.176C49.0849 70.3779 49.0986 70.5965 49.1198 70.8288C48.6993 71.014 48.2515 71.1035 47.7749 71.0974C47.2982 71.0914 46.773 71.0109 46.1977 70.8546C45.9609 70.7908 45.7195 70.7149 45.4691 70.6284C45.2201 70.5419 44.9818 70.4402 44.7571 70.3233C44.5325 70.2064 44.3276 70.0789 44.1454 69.9377C43.9617 69.7965 43.8175 69.6372 43.7097 69.4595C43.6141 68.9267 43.5276 68.2953 43.4532 67.5666C43.3773 66.838 43.3333 66.0168 43.3211 65.1045C43.309 64.1922 43.3378 63.1933 43.4061 62.111C43.476 61.0287 43.6096 59.8705 43.8069 58.6379L43.8084 58.6349Z" fill="var(--fill-0, #EBEBEB)"></path>
<path id="Vector_10" d="M63.2252 75.6149C62.7167 75.4768 62.2294 75.2871 61.7604 75.0472C61.2929 74.8074 60.8678 74.5174 60.4853 74.1805C60.1028 73.8435 59.7703 73.4564 59.488 73.0238C59.2056 72.5896 58.9901 72.1084 58.8413 71.5817C58.6926 71.0534 58.6212 70.4781 58.6273 69.8573C58.6334 69.2349 58.7336 68.567 58.9279 67.852C59.2148 66.7925 59.6261 65.9212 60.1635 65.2381C60.6993 64.555 61.308 64.0343 61.9911 63.6776C62.6727 63.3193 63.4013 63.1159 64.1785 63.0674C64.9557 63.0188 65.7314 63.0992 66.5056 63.3087C67.4255 63.5577 68.2118 63.9326 68.863 64.4305C69.5142 64.9284 70.0212 65.5159 70.3825 66.1929C70.7453 66.8699 70.9593 67.6228 71.0276 68.4531C71.0944 69.2835 71.0049 70.1533 70.759 71.061C70.4675 72.1388 70.0622 73.0238 69.5476 73.7144C69.0315 74.4066 68.441 74.9303 67.7761 75.2855C67.1113 75.6408 66.3917 75.8411 65.6161 75.8836C64.8404 75.9261 64.045 75.8381 63.2283 75.6165L63.2252 75.6149ZM65.3656 69.159C65.4445 68.8691 65.5052 68.6171 65.5508 68.4046C65.5948 68.192 65.6206 68.0129 65.6282 67.8657C65.6328 67.7306 65.6145 67.6349 65.5751 67.5788C65.5356 67.5226 65.4825 67.4847 65.4157 67.468C65.3489 67.4498 65.2942 67.4467 65.2533 67.4573C65.2108 67.4695 65.1758 67.4801 65.147 67.4923C65.1227 67.6031 65.1045 67.7063 65.0924 67.8034C65.0787 67.9006 65.0605 68.0099 65.0377 68.1298C65.0149 68.2497 64.9861 68.3879 64.9497 68.5442C64.9132 68.7006 64.8662 68.8903 64.8055 69.1135L64.6461 69.7039C64.5853 69.9286 64.5307 70.1168 64.4836 70.2686C64.4351 70.422 64.3911 70.5555 64.3501 70.6709C64.3091 70.7863 64.2696 70.8895 64.2317 70.9806C64.1937 71.0716 64.1573 71.1703 64.1224 71.2766C64.1421 71.3009 64.1664 71.3297 64.1967 71.3601C64.2271 71.3919 64.2757 71.4162 64.3425 71.4344C64.4093 71.4527 64.473 71.4481 64.5368 71.4193C64.599 71.3904 64.6628 71.3176 64.728 71.1976C64.7963 71.0671 64.8647 70.8986 64.933 70.6922C65.0013 70.4872 65.0757 70.2383 65.1546 69.9483L65.3686 69.159H65.3656Z" fill="var(--fill-0, #EBEBEB)"></path>
<path id="Vector_11" d="M78.3986 67.518C78.5929 67.427 78.8008 67.3587 79.024 67.3131C79.2471 67.2661 79.4778 67.2403 79.7131 67.2327C79.9484 67.2251 80.1867 67.2357 80.4251 67.2645C80.6634 67.2934 80.8926 67.3374 81.1112 67.3966C81.4497 67.4892 81.773 67.6106 82.0797 67.7609C82.3863 67.9127 82.6443 68.0979 82.8553 68.3165C83.0648 68.5366 83.2121 68.7931 83.294 69.0892C83.376 69.3836 83.3654 69.7221 83.2622 70.1047L80.9306 78.7025C80.8562 78.9742 80.7256 79.1867 80.5389 79.337C80.3522 79.4873 80.1291 79.589 79.8725 79.6391C79.6145 79.6892 79.3336 79.6983 79.027 79.6679C78.7204 79.636 78.4092 79.5784 78.095 79.4934C77.9007 79.4402 77.7094 79.3765 77.5181 79.3021C77.3269 79.2277 77.1493 79.1457 76.9853 79.0547C76.8214 78.9651 76.6711 78.8725 76.5345 78.7769C76.3979 78.6812 76.284 78.5856 76.1929 78.49C76.0229 78.0862 75.8757 77.7021 75.7497 77.3363C75.6252 76.9705 75.5129 76.6229 75.4142 76.2904C75.3156 75.958 75.226 75.6438 75.144 75.3447C75.0621 75.0472 74.9831 74.7633 74.9057 74.4962C74.7994 74.481 74.722 74.4931 74.6704 74.5341C74.6203 74.5751 74.5854 74.6328 74.5657 74.7057C74.5414 74.7967 74.5414 74.8924 74.5657 74.9926C74.59 75.0927 74.6249 75.2187 74.6689 75.366L75.3065 77.5078L75.1759 77.989C75.0681 78.0255 74.9345 78.0634 74.7736 78.1044C74.6127 78.1454 74.4215 78.1727 74.1998 78.1879C73.9782 78.2031 73.7278 78.1985 73.4484 78.1742C73.1691 78.1499 72.8564 78.0923 72.5119 77.9982C72.1187 77.8919 71.7665 77.7538 71.4538 77.5853C71.1426 77.4168 70.8861 77.2225 70.6857 77.0024C70.4854 76.7822 70.3503 76.5394 70.2789 76.2737C70.2076 76.0081 70.2136 75.7227 70.2956 75.4206L72.7623 66.3234C72.8033 66.1716 72.908 66.0456 73.0796 65.9469C73.2496 65.8468 73.4621 65.78 73.7187 65.745C73.9752 65.7101 74.2651 65.7071 74.59 65.7329C74.9148 65.7587 75.2518 65.8194 75.6025 65.9151C76.0017 66.0228 76.3584 66.1716 76.6711 66.3614C76.9838 66.5496 77.2085 66.7378 77.3466 66.9245C77.4331 67.1294 77.5242 67.3708 77.6183 67.6471C77.7124 67.9233 77.8096 68.2254 77.9083 68.5548C78.0069 68.8842 78.1086 69.2334 78.2134 69.6022C78.3181 69.9711 78.4244 70.3506 78.5337 70.7377C78.5944 70.7544 78.6581 70.7498 78.7265 70.727C78.7948 70.7028 78.8403 70.6466 78.8661 70.5555C78.8843 70.4887 78.8813 70.4022 78.8585 70.2959C78.8357 70.1897 78.8084 70.0834 78.7796 69.9772L78.2574 68.022L78.3925 67.5226L78.3986 67.518Z" fill="var(--fill-0, #EBEBEB)"></path>
<path id="Vector_12" d="M83.5386 80.8216C82.8843 80.644 82.4168 80.3313 82.136 79.8805C81.8551 79.4311 81.8141 78.8361 82.0145 78.0984L84.2308 69.9271C84.296 69.6857 84.4873 69.499 84.8061 69.3715C85.1233 69.2425 85.5135 69.1635 85.9764 69.1332C86.4394 69.1028 86.9479 69.1195 87.5035 69.1818C88.0576 69.244 88.6086 69.3503 89.1536 69.4975C90.116 69.7586 90.963 70.1153 91.6946 70.5662C92.4263 71.0185 93.0123 71.5695 93.4525 72.2223C93.8927 72.875 94.1674 73.6279 94.2767 74.4825C94.386 75.3372 94.2949 76.3011 94.005 77.3712C93.75 78.3094 93.372 79.1002 92.8696 79.7438C92.3671 80.3875 91.7614 80.8808 91.0541 81.2254C90.3467 81.57 89.5528 81.7597 88.6708 81.7977C87.7904 81.8356 86.8447 81.7172 85.8337 81.4425L83.537 80.8201L83.5386 80.8216ZM88.6253 75.4662C88.7042 75.1762 88.765 74.9243 88.8105 74.7117C88.856 74.4992 88.8803 74.3201 88.8879 74.1729C88.8925 74.0378 88.8742 73.9421 88.8348 73.886C88.7953 73.8298 88.7422 73.7919 88.6754 73.7752C88.6086 73.7569 88.554 73.7539 88.513 73.7645C88.4705 73.7767 88.4356 73.7873 88.4067 73.7994C88.3824 73.9103 88.3642 74.0135 88.3521 74.1106C88.3384 74.2078 88.3202 74.3171 88.2974 74.437C88.2746 74.5569 88.2458 74.6951 88.2094 74.8514C88.1729 75.0078 88.1259 75.1975 88.0637 75.4206L87.9043 76.0111C87.8435 76.2358 87.7889 76.424 87.7418 76.5758C87.6933 76.7291 87.6492 76.8627 87.6083 76.9781C87.5673 77.0935 87.5278 77.1967 87.4899 77.2878C87.4519 77.3788 87.4155 77.4775 87.3806 77.5853C87.4003 77.6096 87.4246 77.6384 87.4549 77.6688C87.4853 77.7006 87.5339 77.7249 87.6007 77.7432C87.6675 77.7614 87.7312 77.7568 87.795 77.728C87.8572 77.6991 87.921 77.6263 87.9862 77.5063C88.0545 77.3758 88.1228 77.2073 88.1912 77.0009C88.2595 76.7959 88.3339 76.547 88.4128 76.257L88.6268 75.4677L88.6253 75.4662Z" fill="var(--fill-0, #EBEBEB)"></path>
<path id="Vector_13" d="M105.596 74.2199C105.64 74.3687 105.675 74.528 105.7 74.7011C105.724 74.8741 105.736 75.0487 105.733 75.2263C105.73 75.4039 105.718 75.58 105.698 75.7531C105.677 75.9261 105.647 76.0855 105.607 76.2312C105.439 76.8551 105.191 77.2847 104.868 77.5215C104.543 77.7583 104.17 77.819 103.746 77.7052L100.088 76.7124C99.8646 76.6517 99.728 76.7094 99.6809 76.8839C99.6779 76.8961 99.6703 76.9204 99.6612 76.9568C99.6506 76.9932 99.6506 77.0191 99.6612 77.0342L104.001 78.2107C104.031 78.3154 104.053 78.4384 104.068 78.575C104.083 78.7116 104.088 78.8528 104.085 78.9985C104.082 79.1442 104.071 79.2899 104.053 79.4387C104.036 79.5875 104.009 79.7241 103.975 79.8516C103.877 80.2144 103.752 80.5301 103.602 80.7988C103.452 81.066 103.289 81.2785 103.118 81.4333L101.147 80.899C100.633 80.7593 100.203 80.6576 99.86 80.5939C99.517 80.5301 99.2422 80.4937 99.0373 80.4831C98.8324 80.4724 98.6836 80.4831 98.591 80.5134C98.4984 80.5438 98.4453 80.5863 98.4301 80.6409C98.4164 80.6895 98.4119 80.7366 98.4165 80.7836C98.4195 80.8307 98.4453 80.8762 98.4908 80.9202C98.6548 80.9127 98.8217 80.9127 98.9887 80.9187C99.1557 80.9248 99.3394 80.9445 99.5382 80.9749C99.7371 81.0068 99.9587 81.0478 100.202 81.1009C100.444 81.154 100.722 81.2223 101.038 81.3073L103.59 81.9995C103.629 82.1149 103.667 82.2394 103.702 82.376C103.737 82.5126 103.758 82.6644 103.769 82.8329C103.778 83.0014 103.772 83.1896 103.752 83.3991C103.731 83.6086 103.685 83.8423 103.616 84.1019C103.571 84.2659 103.512 84.4359 103.438 84.6135C103.364 84.7911 103.277 84.9641 103.18 85.1326C103.083 85.3011 102.972 85.456 102.849 85.5987C102.726 85.7413 102.594 85.8582 102.451 85.9493L95.6507 84.105C95.294 84.0078 94.9722 83.8742 94.6883 83.7027C94.4029 83.5312 94.1707 83.3217 93.9915 83.0743C93.8109 82.8268 93.694 82.5445 93.6363 82.2272C93.5787 81.91 93.6045 81.5548 93.7107 81.1601L96.0514 72.5258C96.1304 72.2359 96.5235 72.1145 97.2309 72.163C97.9383 72.2116 98.9826 72.4241 100.362 72.7976L105.601 74.2184L105.596 74.2199Z" fill="var(--fill-0, #EBEBEB)"></path>
<path id="Vector_14" d="M115.78 86.5732C115.426 87.4719 114.939 88.114 114.317 88.501C113.696 88.8881 112.946 88.9625 112.069 88.7242C111.783 88.6468 111.507 88.536 111.238 88.3917C110.968 88.2475 110.722 88.0517 110.501 87.8073C110.277 87.5614 110.089 87.2578 109.934 86.8935C109.78 86.5292 109.681 86.092 109.637 85.5805L109.552 84.6014C109.318 84.5315 109.13 84.4663 108.99 84.4055C108.851 84.3448 108.726 84.2902 108.615 84.2401C108.593 84.2538 108.568 84.2735 108.545 84.2993C108.521 84.3251 108.503 84.3661 108.488 84.4207C108.468 84.4936 108.5 84.568 108.582 84.6469C108.664 84.7243 108.852 84.8124 109.144 84.911L109.306 86.3592L109.096 87.1303C108.691 87.2806 108.239 87.355 107.739 87.3519C107.24 87.3489 106.733 87.2791 106.218 87.1394C105.843 87.0377 105.51 86.9072 105.218 86.7463C104.927 86.5869 104.687 86.3956 104.5 86.177C104.313 85.9569 104.187 85.714 104.124 85.4469C104.06 85.1797 104.072 84.8852 104.159 84.5649L106.498 75.9398C106.536 75.8001 106.642 75.6817 106.818 75.5831C106.994 75.4844 107.22 75.4085 107.495 75.3523C107.77 75.2977 108.084 75.2643 108.438 75.2521C108.791 75.2415 109.165 75.2491 109.556 75.278C109.948 75.3068 110.35 75.3554 110.765 75.4252C111.178 75.495 111.581 75.5831 111.975 75.6893C112.852 75.9276 113.628 76.2388 114.3 76.6214C114.973 77.0054 115.516 77.4532 115.929 77.9648C116.342 78.4763 116.615 79.0441 116.749 79.6679C116.882 80.2918 116.85 80.9673 116.653 81.6929C116.538 82.1164 116.368 82.4899 116.14 82.8117C115.912 83.1335 115.653 83.4037 115.36 83.6238C115.067 83.8439 114.746 84.0109 114.399 84.1278C114.051 84.2446 113.701 84.3099 113.347 84.3251C113.316 84.4344 113.327 84.5179 113.376 84.5771C113.424 84.6363 113.491 84.6773 113.576 84.7C113.661 84.7228 113.796 84.7274 113.981 84.7122C114.167 84.697 114.387 84.6408 114.642 84.5406L115.777 86.5732H115.78ZM110.522 81.1996C110.537 81.2163 110.563 81.2315 110.602 81.2451C110.64 81.2588 110.666 81.2679 110.678 81.2709C110.824 81.3104 110.939 81.2922 111.024 81.2178C111.109 81.1434 111.181 81.0038 111.235 80.7973L111.323 80.471C111.381 80.2584 111.396 80.0975 111.372 79.9867C111.346 79.8759 111.264 79.8015 111.126 79.7636C111.096 79.756 111.058 79.7484 111.015 79.7438C110.971 79.7378 110.935 79.7378 110.907 79.7438C110.9 79.7939 110.889 79.8455 110.874 79.9002C110.859 79.9548 110.844 80.0125 110.827 80.0732L110.522 81.1996Z" fill="var(--fill-0, #EBEBEB)"></path>
<path id="Vector_15" d="M119.379 85.0734C119.675 85.1539 119.949 85.2601 120.199 85.3937C120.45 85.5258 120.664 85.6928 120.844 85.8901C121.025 86.089 121.168 86.3242 121.277 86.5975C121.386 86.8707 121.448 87.188 121.467 87.5508C121.676 87.569 121.805 87.49 121.852 87.314C121.89 87.1743 121.887 86.9861 121.845 86.7462C121.802 86.5079 121.697 86.2575 121.53 85.9979C121.363 85.7383 121.119 85.4878 120.797 85.248C120.475 85.0082 120.058 84.8184 119.543 84.6788C119.253 84.5998 118.997 84.5558 118.775 84.5482C118.554 84.5406 118.365 84.5437 118.211 84.5604C118.028 84.3934 117.875 84.2021 117.754 83.9835C117.631 83.7649 117.54 83.5312 117.482 83.2807C117.423 83.0302 117.395 82.7707 117.402 82.4989C117.408 82.2272 117.446 81.9585 117.518 81.6929C117.72 80.9491 118.054 80.354 118.519 79.9078C118.983 79.4615 119.521 79.1412 120.129 78.9454C120.738 78.7495 121.388 78.6615 122.078 78.6797C122.769 78.6979 123.442 78.7951 124.094 78.9727C124.682 79.1321 125.204 79.3127 125.662 79.5146C126.121 79.7165 126.522 79.9275 126.865 80.1476C127.208 80.3677 127.501 80.5893 127.742 80.814C127.983 81.0387 128.181 81.2527 128.332 81.4561C128.346 81.6686 128.34 81.8933 128.314 82.1331C128.288 82.373 128.241 82.6173 128.175 82.8648C128.131 83.0287 128.07 83.1957 127.994 83.3672C127.918 83.5388 127.83 83.7012 127.73 83.856C127.63 84.0108 127.516 84.152 127.391 84.281C127.265 84.4101 127.13 84.5118 126.986 84.5907C126.907 84.4981 126.784 84.3858 126.62 84.2522C126.455 84.1201 126.262 83.9866 126.042 83.8515C125.822 83.7164 125.579 83.5873 125.313 83.4644C125.048 83.3399 124.776 83.2412 124.498 83.1653C124.117 83.0621 123.845 83.0181 123.681 83.0318C123.517 83.0454 123.422 83.1107 123.39 83.2261C123.373 83.2868 123.369 83.3399 123.375 83.3885C123.504 83.3915 123.643 83.4067 123.792 83.4325C123.941 83.4598 124.082 83.4917 124.214 83.5281C124.735 83.6693 125.228 83.8727 125.696 84.1399C126.163 84.407 126.553 84.7425 126.869 85.1508C127.185 85.5577 127.396 86.0389 127.505 86.596C127.614 87.1515 127.572 87.7876 127.378 88.501C127.226 89.0642 126.96 89.5636 126.581 90.0008C126.203 90.438 125.726 90.7825 125.154 91.0376C124.582 91.2911 123.918 91.4368 123.164 91.4732C122.409 91.5096 121.579 91.4034 120.671 91.1575C120.205 91.0315 119.774 90.8964 119.378 90.7537C118.982 90.611 118.608 90.4501 118.261 90.2755C117.912 90.0995 117.585 89.9036 117.28 89.6881C116.975 89.4725 116.679 89.2312 116.394 88.9655C116.272 88.6209 116.193 88.2672 116.154 87.906C116.116 87.5447 116.154 87.1546 116.266 86.7371C116.354 86.4108 116.5 86.1208 116.7 85.8704C116.902 85.6199 117.139 85.4195 117.414 85.2692C117.688 85.119 117.994 85.0249 118.329 84.9869C118.664 84.9474 119.014 84.9778 119.376 85.0765L119.379 85.0734Z" fill="var(--fill-0, #EBEBEB)"></path>
</g>
</g>
<defs>
<clipPath id="clip0_0_8">
<rect width="169.661" height="130.226" fill="white"></rect>
</clipPath>
</defs>
</svg>