<svg preserveAspectRatio="none" width="100%" height="100%" overflow="visible" style="display: block;" viewBox="0 0 175.809 170" fill="none" xmlns="http://www.w3.org/2000/svg">
<g id="Isolation_Mode" clip-path="url(#clip0_0_246)">
<g id="Group">
<g id="Group_2">
<path id="Vector" fill-rule="evenodd" clip-rule="evenodd" d="M11.3656 70.8106C11.4533 70.6949 11.541 70.5792 11.6287 70.4654C12.8323 68.8811 14.1404 67.2185 16.0457 66.515C9.03867 63.7327 6.48406 56.8825 7.57569 52.9656C9.12264 47.4123 13.1178 41.9112 19.4381 41.023C14.495 38.487 6.0698 28.1809 14.2972 24.0308C19.5669 21.3717 25.9226 22.7115 31.0617 24.7996C30.8004 20.8268 29.9999 16.2289 32.4743 12.6834C39.1845 3.06773 56.9157 6.78489 64.0831 13.5045C70.9072 4.32171 85.2683 6.13737 92.4936 14.1893C102.973 3.37376 118.885 4.40195 129.751 14.835C149.699 3.98209 170.08 21.3922 155 39.6179C166.751 43.3667 173.573 58.4649 166.256 68.868C162.677 73.9567 157.249 76.2949 151.319 77.853C157.908 85.1119 161.308 97.049 151.125 102.927C149.691 103.752 147.924 104.278 146.256 104.409C138.157 105.039 130.775 100.309 124.757 95.6774C124.201 97.6928 123.38 99.5196 122.227 101.287C114.507 113.127 100.926 104.517 95.7162 95.5338C91.6445 101.328 83.1858 106.515 76.3803 108.84C72.8236 110.055 68.6941 110.219 65.4117 108.43C61.4931 106.293 59.5841 101.942 58.1472 97.842C56.4436 101.005 53.7714 103.677 50.5487 105.442C46.6338 107.587 41.5526 108.296 37.6563 106.122C33.7581 103.948 31.9947 98.3627 34.8759 95.0355C29.9514 98.8292 23.0452 100.117 16.9973 98.3701C10.8842 96.6049 8.32584 90.8033 6.99722 85.3713C5.51932 79.3291 7.72498 75.6156 11.3656 70.8125V70.8106Z" fill="var(--fill-0, #10EBEB)" stroke="var(--stroke-0, #EBEBEB)" stroke-width="13.0623"></path>
<g id="Group_3">
<path id="Vector_2" fill-rule="evenodd" clip-rule="evenodd" d="M13.1104 71.8667C3.31929 67.2949 5.13494 43.0308 19.4363 41.023C14.4931 38.487 6.06796 28.1809 14.2953 24.0308C19.565 21.3717 25.9208 22.7115 31.0598 24.7996C30.7986 20.8268 29.9981 16.2289 32.4724 12.6834C39.1827 3.0677 56.9138 6.78486 64.0813 13.5045C70.9054 4.32168 85.2664 6.13734 92.4918 14.1893C102.971 3.37373 118.883 4.40192 129.749 14.835C149.697 3.98206 170.078 21.3922 154.998 39.6178C166.749 43.3667 173.571 58.4648 166.254 68.868C162.675 73.9567 157.247 76.2949 151.317 77.853C157.906 85.1119 161.306 97.049 151.123 102.927C149.69 103.752 147.922 104.278 146.254 104.409C138.156 105.039 130.774 100.309 124.756 95.6774C124.2 97.6927 123.378 99.5196 122.225 101.287C114.505 113.127 100.924 104.517 95.7144 95.5337C85.4754 110.1 64.3985 108.652 52.4148 96.9109C50.8567 98.3794 47.3914 100.548 45.1652 100.77C39.2872 101.354 36.1243 97.995 33.7357 93.1284C26.9695 96.9501 19.7815 94.2611 14.6984 89.1799C10.4961 84.9794 10.5035 77.2895 13.1085 71.8705L13.1104 71.8667Z" fill="var(--fill-0, #10EBEB)"></path>
<path id="Vector_3" fill-rule="evenodd" clip-rule="evenodd" d="M13.1104 71.8667C3.31929 67.2949 5.13494 43.0308 19.4363 41.023C14.4931 38.487 6.06796 28.1809 14.2953 24.0308C19.565 21.3717 25.9208 22.7115 31.0598 24.7996C30.7986 20.8268 29.9981 16.2289 32.4724 12.6834C39.1827 3.0677 56.9138 6.78486 64.0813 13.5045C70.9054 4.32168 85.2664 6.13734 92.4918 14.1893C102.971 3.37373 118.883 4.40192 129.749 14.835C149.697 3.98206 170.078 21.3922 154.998 39.6178C166.749 43.3667 173.571 58.4648 166.254 68.868C162.675 73.9567 157.247 76.2949 151.317 77.853C157.906 85.1119 161.306 97.049 151.123 102.927C149.69 103.752 147.922 104.278 146.254 104.409C138.156 105.039 130.774 100.309 124.756 95.6774C124.2 97.6927 123.378 99.5196 122.225 101.287C114.505 113.127 100.924 104.517 95.7144 95.5337C85.4754 110.1 64.3985 108.652 52.4148 96.9109C50.8567 98.3794 47.3914 100.548 45.1652 100.77C39.2872 101.354 36.1243 97.995 33.7357 93.1284C26.9695 96.9501 19.7815 94.2611 14.6984 89.1799C10.4961 84.9794 10.5035 77.2895 13.1085 71.8705L13.1104 71.8667Z" stroke="var(--stroke-0, #EBEBEB)" stroke-width="13.0623"></path>
</g>
</g>
<path id="Vector_4" d="M62.8396 135.295C67.6266 135.295 71.5073 132.182 71.5073 128.343C71.5073 124.503 67.6266 121.39 62.8396 121.39C58.0525 121.39 54.1718 124.503 54.1718 128.343C54.1718 132.182 58.0525 135.295 62.8396 135.295Z" fill="var(--fill-0, #10EBEB)" stroke="var(--stroke-0, #EBEBEB)" stroke-width="13.0623"></path>
<path id="Vector_5" d="M83.034 163.471C85.4909 163.471 87.4827 161.822 87.4827 159.789C87.4827 157.756 85.4909 156.107 83.034 156.107C80.5771 156.107 78.5854 157.756 78.5854 159.789C78.5854 161.822 80.5771 163.471 83.034 163.471Z" fill="var(--fill-0, #10EBEB)" stroke="var(--stroke-0, #EBEBEB)" stroke-width="13.0623"></path>
<path id="Vector_6" d="M71.5078 150.61C73.9647 150.61 75.9564 148.962 75.9564 146.928C75.9564 144.895 73.9647 143.247 71.5078 143.247C69.0508 143.247 67.0591 144.895 67.0591 146.928C67.0591 148.962 69.0508 150.61 71.5078 150.61Z" fill="var(--fill-0, #10EBEB)" stroke="var(--stroke-0, #EBEBEB)" stroke-width="13.0623"></path>
</g>
<g id="Group_4">
<path id="Vector_7" fill-rule="evenodd" clip-rule="evenodd" d="M12.0005 73.3447C2.20943 68.7729 4.02509 44.5088 18.3264 42.5009C13.3833 39.965 4.95811 29.6588 13.1855 25.5087C18.4552 22.8496 24.8109 24.1895 29.95 26.2776C29.6887 22.3048 28.8882 17.7068 31.3626 14.1614C38.0729 4.54565 55.804 8.2628 62.9714 14.9824C69.7955 5.79963 84.1566 7.61528 91.3819 15.6672C101.862 4.85168 117.773 5.87986 128.639 16.3129C148.587 5.46001 168.968 22.8702 153.889 41.0958C165.639 44.8446 172.461 59.9428 165.145 70.346C161.566 75.4346 156.137 77.7728 150.207 79.3309C156.796 86.5898 160.196 98.5269 150.013 104.405C148.58 105.23 146.813 105.756 145.144 105.887C137.046 106.517 129.664 101.787 123.646 97.1554C123.09 99.1707 122.269 100.998 121.115 102.765C113.396 114.605 99.8145 105.995 94.6045 97.0117C84.3656 111.578 63.2887 110.13 51.3049 98.3888C49.7468 99.8574 46.2816 102.026 44.0554 102.248C38.1774 102.832 35.0144 99.473 32.6259 94.6063C25.8596 98.428 18.6716 95.739 13.5885 90.6578C9.38622 86.4573 9.39368 78.7674 11.9987 73.3484L12.0005 73.3447Z" fill="var(--fill-0, #10EBEB)"></path>
<path id="Vector_8" fill-rule="evenodd" clip-rule="evenodd" d="M12.0005 73.3447C2.20943 68.7729 4.02509 44.5088 18.3264 42.5009C13.3833 39.965 4.95811 29.6588 13.1855 25.5087C18.4552 22.8496 24.8109 24.1895 29.95 26.2776C29.6887 22.3048 28.8882 17.7068 31.3626 14.1614C38.0729 4.54565 55.804 8.2628 62.9714 14.9824C69.7955 5.79963 84.1566 7.61528 91.3819 15.6672C101.862 4.85168 117.773 5.87986 128.639 16.3129C148.587 5.46001 168.968 22.8702 153.889 41.0958C165.639 44.8446 172.461 59.9428 165.145 70.346C161.566 75.4346 156.137 77.7728 150.207 79.3309C156.796 86.5898 160.196 98.5269 150.013 104.405C148.58 105.23 146.813 105.756 145.144 105.887C137.046 106.517 129.664 101.787 123.646 97.1554C123.09 99.1707 122.269 100.998 121.115 102.765C113.396 114.605 99.8145 105.995 94.6045 97.0117C84.3656 111.578 63.2887 110.13 51.3049 98.3888C49.7468 99.8574 46.2816 102.026 44.0554 102.248C38.1774 102.832 35.0144 99.473 32.6259 94.6063C25.8596 98.428 18.6716 95.739 13.5885 90.6578C9.38622 86.4573 9.39368 78.7674 11.9987 73.3484L12.0005 73.3447Z" stroke="var(--stroke-0, #101010)" stroke-width="2.98566"></path>
</g>
<path id="Vector_9" d="M62.8392 135.295C67.6262 135.295 71.5069 132.182 71.5069 128.343C71.5069 124.503 67.6262 121.39 62.8392 121.39C58.0521 121.39 54.1714 124.503 54.1714 128.343C54.1714 132.182 58.0521 135.295 62.8392 135.295Z" fill="var(--fill-0, #10EBEB)" stroke="var(--stroke-0, #101010)" stroke-width="2.98566"></path>
<path id="Vector_10" d="M83.0336 163.471C85.4905 163.471 87.4823 161.822 87.4823 159.789C87.4823 157.756 85.4905 156.107 83.0336 156.107C80.5767 156.107 78.585 157.756 78.585 159.789C78.585 161.822 80.5767 163.471 83.0336 163.471Z" fill="var(--fill-0, #10EBEB)" stroke="var(--stroke-0, #101010)" stroke-width="2.98566"></path>
<path id="Vector_11" d="M71.5074 150.61C73.9643 150.61 75.956 148.962 75.956 146.928C75.956 144.895 73.9643 143.247 71.5074 143.247C69.0504 143.247 67.0587 144.895 67.0587 146.928C67.0587 148.962 69.0504 150.61 71.5074 150.61Z" fill="var(--fill-0, #10EBEB)" stroke="var(--stroke-0, #101010)" stroke-width="2.98566"></path>
<g id="Group_5">
<path id="Vector_12" d="M35.7145 43.5235C35.5838 43.4862 35.429 43.447 35.2554 43.4097C35.08 43.3724 34.8878 43.3406 34.6788 43.3145C34.4698 43.2884 34.2534 43.2753 34.0332 43.2772C33.5741 43.2809 33.1449 43.3406 32.7475 43.4545C32.35 43.5702 31.9787 43.7213 31.6353 43.9117C31.2919 44.1001 30.9729 44.3147 30.6762 44.5536C30.3813 44.7924 30.1107 45.0369 29.8626 45.2869L29.9018 50.9951L27.3415 51.0138L27.2762 41.5306L29.8364 41.5119L29.8476 43.0514C30.1537 42.82 30.469 42.5942 30.7918 42.3796C31.1147 42.165 31.4524 41.971 31.8032 41.803C32.1541 41.6351 32.5254 41.5007 32.9154 41.3981C33.3054 41.2973 33.7197 41.2432 34.1563 41.2413C34.3224 41.2413 34.4903 41.2469 34.6639 41.2619C34.8374 41.2768 35.0054 41.2955 35.1677 41.3179C35.3319 41.3402 35.4849 41.3645 35.6268 41.3906C35.7686 41.4168 35.8936 41.4447 36 41.4709L36.0149 43.6168C35.9459 43.5944 35.8451 43.5646 35.7145 43.5254V43.5235Z" fill="var(--fill-0, #101010)" stroke="var(--stroke-0, #444444)" stroke-width="0.186604"></path>
<path id="Vector_13" d="M52.7553 46.1005C52.7609 46.9141 52.6173 47.6344 52.3224 48.2614C52.0276 48.8865 51.604 49.4109 51.0498 49.8345C50.4956 50.2562 49.8238 50.579 49.0307 50.7973C48.2377 51.0175 47.3476 51.1295 46.3586 51.137C45.3696 51.1444 44.4739 51.0437 43.6752 50.8347C42.8747 50.6257 42.1936 50.314 41.63 49.8998C41.0646 49.4855 40.6298 48.9668 40.3219 48.3454C40.014 47.724 39.8573 47.0056 39.8517 46.192C39.8461 45.3784 39.9935 44.6581 40.2921 44.0311C40.5906 43.406 41.0198 42.8816 41.5778 42.458C42.1357 42.0363 42.8131 41.7135 43.6099 41.4951C44.4067 41.2749 45.3005 41.163 46.2895 41.1555C47.2785 41.1481 48.1705 41.2488 48.9673 41.4578C49.7622 41.6668 50.4396 41.9784 50.9994 42.3927C51.5592 42.807 51.9903 43.3257 52.2944 43.9471C52.5967 44.5685 52.7516 45.2869 52.7572 46.1005H52.7553ZM50.1671 46.1192C50.1653 45.7646 50.1056 45.412 49.9899 45.0611C49.8742 44.7103 49.6726 44.395 49.3834 44.1169C49.0942 43.8389 48.7004 43.6131 48.2022 43.4414C47.704 43.2697 47.0714 43.1876 46.3026 43.1932C45.7875 43.197 45.3341 43.2399 44.9441 43.3239C44.5541 43.4078 44.2163 43.5217 43.9308 43.6653C43.6472 43.8109 43.4083 43.9788 43.2161 44.171C43.0239 44.3632 42.8709 44.5685 42.7571 44.7887C42.6433 45.0089 42.563 45.2365 42.5164 45.4735C42.4697 45.7105 42.4473 45.9438 42.4492 46.1752C42.4492 46.4103 42.4772 46.6473 42.5276 46.8861C42.578 47.125 42.6601 47.3526 42.7776 47.571C42.8933 47.7893 43.0501 47.9908 43.2441 48.1793C43.4382 48.3659 43.6789 48.5301 43.9663 48.6682C44.2518 48.8063 44.5914 48.9145 44.9833 48.9929C45.3751 49.0713 45.8286 49.1086 46.3436 49.1048C47.1124 49.0992 47.745 49.0078 48.2395 48.8287C48.7359 48.6495 49.1259 48.42 49.4114 48.1364C49.6969 47.8546 49.8947 47.5355 50.0048 47.1828C50.1149 46.8301 50.169 46.4775 50.1671 46.1229V46.1192Z" fill="var(--fill-0, #101010)" stroke="var(--stroke-0, #444444)" stroke-width="0.186604"></path>
<path id="Vector_14" d="M65.9874 50.7432L65.9799 49.8121C65.6552 49.9931 65.3044 50.1554 64.9312 50.2954C64.558 50.4353 64.168 50.5566 63.7631 50.6555C63.3581 50.7544 62.942 50.8309 62.5128 50.8813C62.0836 50.9317 61.6489 50.9597 61.2122 50.9634C60.7009 50.9671 60.2083 50.9224 59.7306 50.8291C59.2547 50.7358 58.8311 50.5827 58.4617 50.3681C58.0922 50.1535 57.7936 49.8736 57.5697 49.5247C57.3439 49.1757 57.2301 48.7503 57.2263 48.2427C57.2207 47.6027 57.3924 47.069 57.7395 46.6417C58.0866 46.2143 58.6184 45.8617 59.3331 45.5855C60.0497 45.3093 60.9547 45.0928 62.0519 44.938C63.1491 44.7831 64.446 44.6599 65.9463 44.5666V44.367C65.9445 44.2102 65.9016 44.0553 65.8176 43.9023C65.7336 43.7493 65.5825 43.6149 65.3623 43.4974C65.1421 43.3817 64.8435 43.2884 64.4628 43.2175C64.0822 43.1466 63.5989 43.113 63.0092 43.1167C62.5446 43.1204 62.0855 43.1466 61.6321 43.1988C61.1786 43.2511 60.742 43.3182 60.3221 43.4041C59.9022 43.4899 59.5029 43.5888 59.126 43.7026C58.749 43.8165 58.4075 43.934 58.0996 44.0553L58.0829 41.7769C58.4038 41.6911 58.764 41.6089 59.1652 41.5287C59.5645 41.4485 59.9806 41.3776 60.4135 41.316C60.8465 41.2563 61.2831 41.2059 61.7235 41.1686C62.1657 41.1312 62.5875 41.1107 62.9924 41.1088C63.7892 41.1033 64.5226 41.163 65.1962 41.2899C65.8698 41.4167 66.4483 41.6164 66.9353 41.8889C67.4224 42.1613 67.8049 42.5084 68.0811 42.9301C68.3573 43.3518 68.4991 43.8538 68.5028 44.4379L68.5457 50.7264L65.9855 50.7451L65.9874 50.7432ZM65.9575 46.4159C64.9723 46.4588 64.1381 46.5185 63.4496 46.5913C62.761 46.664 62.1919 46.7499 61.7366 46.8451C61.2812 46.9402 60.9248 47.041 60.6655 47.1492C60.4061 47.2575 60.212 47.3657 60.0832 47.4776C59.9545 47.5896 59.8761 47.6997 59.8481 47.8098C59.8183 47.9199 59.8052 48.0225 59.8052 48.114C59.8052 48.2241 59.8369 48.3304 59.8966 48.4349C59.9564 48.5376 60.0627 48.629 60.212 48.7055C60.3613 48.782 60.561 48.8436 60.811 48.8884C61.0592 48.9332 61.3727 48.9537 61.7496 48.95C62.1676 48.9462 62.5781 48.9126 62.9775 48.8455C63.3768 48.7783 63.7556 48.6868 64.1139 48.5711C64.4722 48.4555 64.8081 48.3211 65.1216 48.1643C65.435 48.0076 65.7168 47.8415 65.9631 47.6642L65.9538 46.4159H65.9575Z" fill="var(--fill-0, #101010)" stroke="var(--stroke-0, #444444)" stroke-width="0.186604"></path>
<path id="Vector_15" d="M85.8844 45.8561C85.8882 46.4625 85.8266 47.0037 85.696 47.4758C85.5653 47.9479 85.3806 48.3603 85.1418 48.7111C84.9029 49.0619 84.6155 49.3605 84.2778 49.6068C83.9419 49.8531 83.5668 50.0509 83.1526 50.2021C82.7402 50.3513 82.2942 50.4614 81.8165 50.5324C81.3388 50.6033 80.8387 50.6387 80.3199 50.6425L74.3019 50.6835L74.2366 41.2003L80.2415 41.1592C80.7622 41.1555 81.2604 41.1854 81.74 41.2488C82.2195 41.3122 82.6674 41.4167 83.0854 41.5604C83.5034 41.7041 83.8822 41.8963 84.2255 42.1352C84.567 42.374 84.8619 42.6689 85.1044 43.0197C85.3489 43.3705 85.5392 43.7792 85.6754 44.2475C85.8117 44.7159 85.8826 45.2515 85.8863 45.8542L85.8844 45.8561ZM83.3037 45.8729C83.3 45.4175 83.2384 45.0219 83.119 44.6879C82.9995 44.352 82.8092 44.0777 82.548 43.8594C82.2867 43.6429 81.9452 43.4825 81.5272 43.3761C81.1074 43.2716 80.5961 43.2212 79.9934 43.2249L76.8118 43.2473L76.8491 48.6029L80.0307 48.5805C80.6334 48.5767 81.1428 48.5189 81.5608 48.4069C81.9788 48.2968 82.3166 48.1289 82.576 47.9031C82.8335 47.6773 83.0219 47.3974 83.1358 47.0597C83.2515 46.7238 83.3074 46.3263 83.3037 45.871V45.8729Z" fill="var(--fill-0, #101010)" stroke="var(--stroke-0, #444444)" stroke-width="0.186604"></path>
<path id="Vector_16" d="M104.482 43.0551L104.534 50.4745L101.974 50.4932L101.921 43.0738L97.8981 43.1018L97.8832 41.0379L108.499 40.9633L108.514 43.0271L104.483 43.0551H104.482Z" fill="var(--fill-0, #101010)" stroke="var(--stroke-0, #444444)" stroke-width="0.186604"></path>
<path id="Vector_17" d="M121.455 42.9264C121.324 42.8891 121.17 42.8499 120.996 42.8125C120.821 42.7752 120.628 42.7435 120.419 42.7174C120.21 42.6913 119.994 42.6782 119.774 42.6801C119.315 42.6838 118.886 42.7435 118.488 42.8573C118.091 42.973 117.719 43.1242 117.376 43.3145C117.033 43.503 116.714 43.7176 116.417 43.9564C116.122 44.1953 115.851 44.4397 115.603 44.6898L115.642 50.398L113.082 50.4167L113.017 40.9334L115.577 40.9148L115.588 42.4543C115.894 42.2229 116.21 41.9971 116.533 41.7825C116.855 41.566 117.193 41.3738 117.542 41.2059C117.893 41.0379 118.264 40.9036 118.654 40.801C119.044 40.7002 119.458 40.6461 119.895 40.6442C120.061 40.6442 120.229 40.6498 120.403 40.6647C120.574 40.6797 120.742 40.6983 120.907 40.7207C121.071 40.7431 121.224 40.7674 121.366 40.7935C121.507 40.8196 121.632 40.8476 121.739 40.8737L121.754 43.0197C121.685 42.9973 121.584 42.9674 121.453 42.9282L121.455 42.9264Z" fill="var(--fill-0, #101010)" stroke="var(--stroke-0, #444444)" stroke-width="0.186604"></path>
<path id="Vector_18" d="M126.255 50.3234L126.189 40.8402L128.75 40.8215L128.815 50.3047L126.255 50.3234Z" fill="var(--fill-0, #101010)" stroke="var(--stroke-0, #444444)" stroke-width="0.186604"></path>
<path id="Vector_19" d="M145.225 43.9453C145.229 44.4192 145.162 44.8559 145.027 45.2552C144.893 45.6546 144.673 45.9979 144.369 46.289C144.065 46.5801 143.669 46.8059 143.182 46.9701C142.695 47.1343 142.101 47.2183 141.404 47.2239L137.153 47.2537L137.173 50.2487L134.613 50.2674L134.548 40.7842L141.361 40.7375C142.06 40.7319 142.654 40.8084 143.143 40.9633C143.632 41.1182 144.031 41.3384 144.339 41.6239C144.647 41.9094 144.871 42.249 145.012 42.6446C145.154 43.0402 145.225 43.4731 145.229 43.9471L145.225 43.9453ZM142.637 44.0031C142.637 43.7829 142.603 43.5926 142.54 43.434C142.477 43.2753 142.374 43.1466 142.23 43.0458C142.087 42.9451 141.9 42.8723 141.67 42.8256C141.441 42.779 141.157 42.7566 140.821 42.7585L137.123 42.7846L137.14 45.2272L140.838 45.2011C141.174 45.1992 141.458 45.1768 141.687 45.1358C141.917 45.0947 142.103 45.0276 142.245 44.9324C142.387 44.8372 142.488 44.7141 142.549 44.5611C142.611 44.408 142.641 44.2214 142.639 44.0012L142.637 44.0031Z" fill="var(--fill-0, #101010)" stroke="var(--stroke-0, #444444)" stroke-width="0.186604"></path>
</g>
<g id="Group_6">
<path id="Vector_20" d="M26.1834 60.3832C26.5622 60.1332 26.9914 59.9036 27.4691 59.6965C27.9468 59.4894 28.4525 59.3121 28.9862 59.1684C29.5199 59.0247 30.0722 58.9109 30.6451 58.8288C31.2179 58.7467 31.7946 58.7019 32.373 58.6945C33.1381 58.6833 33.8976 58.743 34.6515 58.8699C35.4035 58.9967 36.092 59.2039 36.7134 59.4894C37.3348 59.7749 37.8704 60.1481 38.3182 60.609C38.7661 61.0699 39.0721 61.6223 39.2382 62.2679L42.7855 76.1065C42.3414 76.6924 41.7144 77.1757 40.9064 77.5601C40.0966 77.9445 39.0684 78.1442 37.8219 78.161C37.2714 78.1684 36.7564 78.1255 36.2749 78.0341C35.7916 77.9427 35.3662 77.8027 34.9948 77.618C34.6235 77.4332 34.3174 77.1962 34.0711 76.9089C33.8267 76.6234 33.6681 76.2837 33.5934 75.8919L33.2445 74.1005C33.5486 74.0874 33.8491 74.0464 34.1476 73.9773C34.4462 73.9101 34.7149 73.828 34.9538 73.731C35.1926 73.634 35.3867 73.5257 35.5378 73.4063C35.689 73.2869 35.7636 73.1675 35.7618 73.0499C35.7599 72.8932 35.6946 72.7663 35.5658 72.6692C35.3904 72.7998 35.187 72.9174 34.9519 73.0238C34.7186 73.1301 34.4705 73.2197 34.2111 73.2925C33.9517 73.3653 33.6923 73.4194 33.4329 73.4586C33.1736 73.4959 32.931 73.5164 32.7052 73.5201C32.2835 73.5257 31.9065 73.5033 31.5781 73.4548C31.2478 73.4063 30.9604 73.3429 30.7141 73.2682C30.4678 73.1936 30.2551 73.1096 30.0778 73.02C29.9005 72.9286 29.7512 72.8409 29.6318 72.7532C29.5926 72.8036 29.559 72.8596 29.531 72.923C29.5031 72.9883 29.4881 73.0592 29.49 73.1376C29.4919 73.285 29.5702 73.4194 29.7232 73.5388C29.8763 73.6601 30.0815 73.7646 30.339 73.8542C30.5947 73.9437 30.8877 74.0165 31.2179 74.0706C31.5482 74.1247 31.8935 74.1602 32.2573 74.1751C32.3264 74.8618 32.3992 75.4086 32.4794 75.8135C32.5578 76.2203 32.6324 76.4759 32.7033 76.5842C32.6175 76.7521 32.4458 76.9331 32.1883 77.1291C31.9308 77.3231 31.6098 77.5079 31.2235 77.6795C30.8373 77.8512 30.3988 77.9949 29.9043 78.1106C29.4098 78.2244 28.8835 78.286 28.3237 78.2935C27.6258 78.3028 26.969 78.2338 26.3476 78.0845C25.7262 77.9352 25.185 77.7243 24.7185 77.4519C24.2539 77.1776 23.8807 76.8454 23.6008 76.4517C23.3209 76.058 23.1772 75.6157 23.1697 75.1249C23.1697 75.0167 23.1716 74.9066 23.179 74.7928C23.1865 74.6808 23.2052 74.5633 23.2332 74.4457L26.1778 60.3869L26.1834 60.3832ZM33.2071 67.8698C33.0915 67.282 32.9981 66.8117 32.931 66.459C32.8619 66.1064 32.7948 65.8395 32.7294 65.6585C32.6623 65.4775 32.5932 65.3618 32.5186 65.3077C32.4439 65.2554 32.3525 65.2293 32.2461 65.2312C32.1771 65.2312 32.1136 65.2424 32.0558 65.2629C31.998 65.2834 31.9438 65.304 31.8953 65.3245L32.4962 68.2915C32.5354 68.3307 32.5932 68.3587 32.666 68.3773C32.7406 68.396 32.8059 68.4053 32.8657 68.4035C32.9534 68.4035 33.0373 68.3885 33.1157 68.3624C33.1941 68.3363 33.2519 68.3139 33.2911 68.2934L33.2109 67.8679L33.2071 67.8698Z" fill="var(--fill-0, #101010)" stroke="var(--stroke-0, #444444)" stroke-width="0.186604"></path>
<path id="Vector_21" d="M45.9556 61.6875C46.3679 61.6819 46.715 61.751 46.9968 61.8947C47.2786 62.0384 47.5286 62.2212 47.7488 62.4433C47.3215 62.852 47.1106 63.1878 47.1144 63.4528C47.1144 63.5704 47.1573 63.6749 47.2357 63.7682C47.3159 63.8596 47.4484 63.9044 47.635 63.9025C47.8272 63.5573 48.0791 63.2233 48.3945 62.9061C48.7098 62.587 49.0793 62.3071 49.5029 62.0664C49.9265 61.8256 50.4005 61.6297 50.923 61.4804C51.4454 61.3311 52.0071 61.2528 52.6061 61.2434C53.3134 61.2341 54.0336 61.3181 54.767 61.4935C55.5003 61.6708 56.1647 61.9842 56.7599 62.4377C57.3552 62.8911 57.8441 63.5125 58.2285 64.3019C58.6129 65.0912 58.8126 66.0895 58.8294 67.2969C58.835 67.7391 58.835 68.2336 58.8294 68.7841C58.8219 69.3346 58.8219 69.844 58.8294 70.3161C58.8387 70.9935 58.9189 71.5514 59.0738 71.9918C59.2268 72.4322 59.5123 72.7756 59.9266 73.0256C59.9378 73.104 59.9434 73.1992 59.9453 73.313C59.9453 73.4268 59.9471 73.5126 59.949 73.5705C59.9583 74.2684 59.8594 74.8842 59.6504 75.4235C59.4414 75.9609 59.1541 76.4143 58.7864 76.7819C58.4188 77.1496 57.9878 77.4295 57.4951 77.6161C57.0025 77.8045 56.4763 77.9016 55.9165 77.9109C55.3268 77.9184 54.7651 77.8456 54.2277 77.6907C53.6903 77.5358 53.2163 77.2783 52.8039 76.9144C52.3915 76.5524 52.0612 76.0747 51.8131 75.485C51.5649 74.8954 51.4342 74.1676 51.4231 73.3036C51.4175 72.8427 51.4286 72.4061 51.4566 71.9918C51.4846 71.5794 51.5201 71.1932 51.5593 70.8349C51.5985 70.4766 51.6358 70.1444 51.6712 69.8403C51.7067 69.5361 51.7216 69.2562 51.7179 69.0006C51.7123 68.5303 51.6563 68.2094 51.5499 68.0377C51.4454 67.8679 51.2794 67.7839 51.0536 67.7876C50.9062 67.7895 50.7699 67.8306 50.643 67.9108L50.867 70.3087C50.8222 70.6035 50.7849 70.9021 50.7531 71.2006C50.7233 71.5011 50.699 71.7828 50.6841 72.0478C50.6673 72.3128 50.6561 72.5535 50.6505 72.77C50.643 72.9864 50.6412 73.1637 50.643 73.2999C50.6542 74.065 50.7382 74.6976 50.8968 75.1958C51.0554 75.694 51.2364 76.1232 51.4361 76.4852C51.0107 76.9424 50.4527 77.3119 49.7641 77.5899C49.0756 77.8698 48.29 78.0154 47.4073 78.0266C46.9651 78.0322 46.5154 77.9743 46.0582 77.8531C45.5991 77.7318 45.1849 77.5433 44.8135 77.2876C44.4422 77.032 44.1362 76.7129 43.8954 76.3285C43.6547 75.9441 43.5297 75.4869 43.5241 74.957L43.4271 67.8306C43.1266 67.4219 42.9027 66.9591 42.7534 66.4404C42.6041 65.9216 42.5258 65.3786 42.5183 64.8094C42.5127 64.3392 42.5762 63.8167 42.7105 63.2457C42.8449 62.6747 43.0557 62.1653 43.345 61.7211L45.9649 61.6857L45.9556 61.6875Z" fill="var(--fill-0, #101010)" stroke="var(--stroke-0, #444444)" stroke-width="0.186604"></path>
<path id="Vector_22" d="M61.6457 68.2635L62.5581 68.2504C62.8138 68.2467 62.9985 68.2001 63.1161 68.1105C63.2318 68.0209 63.2896 67.9015 63.2878 67.7541C63.2878 67.6944 63.2766 67.6365 63.256 67.5787L59.9588 67.6234C59.8468 67.2708 59.7591 66.8826 59.6994 66.4572C59.6397 66.0317 59.6061 65.5969 59.6005 65.1547C59.5967 64.871 59.6098 64.5426 59.6378 64.175C59.6676 63.8074 59.7106 63.4995 59.7647 63.2532C60.1733 62.9919 60.5801 62.712 60.9832 62.4116C61.3863 62.1112 61.7427 61.8425 62.0543 61.6017C62.1402 61.3946 62.2391 61.124 62.3529 60.7881C62.4667 60.4523 62.5787 60.1033 62.6925 59.7376C62.8045 59.3737 62.9127 59.021 63.0172 58.6795C63.1198 58.3399 63.2094 58.0563 63.2859 57.8286C63.5994 57.7465 64.0155 57.6719 64.5343 57.6047C65.053 57.5394 65.583 57.502 66.1242 57.4946C66.5459 57.489 66.9713 57.5076 67.3987 57.5506C67.826 57.5935 68.2962 57.6663 68.8075 57.767L68.856 61.3741L71.4032 61.3386C71.6943 61.7659 71.9145 62.2474 72.0638 62.7792C72.213 63.3129 72.2914 63.8428 72.2989 64.3728C72.3063 64.8729 72.241 65.4066 72.1067 65.9739C71.9723 66.5411 71.7652 67.0319 71.4853 67.448L69.3804 67.476L69.4102 69.6985C69.4196 70.3759 69.5633 70.8573 69.8413 71.1428C70.1193 71.4283 70.5093 71.5683 71.0094 71.5608L71.642 71.5515C71.7241 71.8444 71.7988 72.1579 71.8678 72.4901C71.9369 72.8222 71.9723 73.1563 71.9779 73.4903C71.9966 74.8543 71.5842 75.9012 70.7389 76.629C69.8954 77.3567 68.6825 77.7318 67.102 77.7542C66.307 77.7654 65.5811 77.6665 64.9261 77.4593C64.2712 77.2522 63.7039 76.9313 63.2262 76.4965C62.7485 76.0617 62.379 75.5149 62.114 74.8544C61.849 74.1956 61.711 73.4138 61.6998 72.5106L61.6419 68.256L61.6457 68.2635Z" fill="var(--fill-0, #101010)" stroke="var(--stroke-0, #444444)" stroke-width="0.186604"></path>
<path id="Vector_23" d="M81.032 60.6202C80.5506 60.6556 80.1009 60.7489 79.681 60.8964C79.2611 61.0438 78.8954 61.2117 78.5838 61.3965C78.2721 61.5831 78.0277 61.7715 77.8485 61.9656C77.6694 62.1597 77.5817 62.3295 77.5836 62.4769C77.5836 62.5945 77.6284 62.6915 77.7123 62.7699C77.7963 62.8482 77.8877 62.8949 77.9866 62.9136C78.1602 62.7046 78.3822 62.4974 78.6547 62.294C78.9271 62.0888 79.2481 61.9022 79.6194 61.7361C79.9908 61.5681 80.4162 61.4338 80.8958 61.3293C81.3754 61.2248 81.9146 61.1688 82.5136 61.1595C82.9055 61.1539 83.331 61.1837 83.7882 61.2453C84.2453 61.3088 84.7062 61.4245 85.169 61.5943C85.6337 61.7641 86.0778 61.9917 86.5032 62.2754C86.9287 62.559 87.3094 62.9192 87.6453 63.3577C87.9793 63.7943 88.2499 64.3168 88.4551 64.9214C88.6604 65.5279 88.7667 66.2332 88.7779 67.0375C88.7835 67.4798 88.7835 67.95 88.7761 68.452C88.7686 68.9521 88.7668 69.4391 88.7742 69.9093C88.7835 70.5867 88.8638 71.1447 89.0187 71.585C89.1717 72.0254 89.4572 72.3688 89.8714 72.6188C89.8826 72.6972 89.8882 72.7924 89.8901 72.9062C89.8901 73.02 89.892 73.1059 89.8938 73.1637C89.9032 73.8616 89.8043 74.4774 89.5953 75.0167C89.3863 75.5541 89.0989 76.0076 88.7294 76.3752C88.3618 76.7428 87.9308 77.0227 87.4381 77.2093C86.9455 77.3978 86.4193 77.4948 85.8595 77.5041C85.2698 77.5116 84.7081 77.4388 84.1707 77.2839C83.6333 77.129 83.1593 76.8715 82.7469 76.5077C82.3345 76.1456 82.0042 75.6679 81.756 75.0783C81.5079 74.4886 81.3772 73.7608 81.366 72.8969C81.3604 72.436 81.3716 71.9993 81.3996 71.585C81.4276 71.1726 81.4631 70.7864 81.5023 70.4281C81.5414 70.0698 81.5788 69.7377 81.6142 69.4335C81.6497 69.1293 81.6646 68.8494 81.6609 68.5938C81.6553 68.1235 81.5993 67.8026 81.4929 67.6309C81.3884 67.4611 81.2223 67.3771 80.9966 67.3809C80.8491 67.3827 80.7129 67.4238 80.586 67.504L80.81 69.9019C80.7652 70.1967 80.7279 70.4953 80.698 70.7938C80.6681 71.0943 80.6439 71.376 80.6289 71.641C80.6122 71.906 80.601 72.1467 80.5954 72.3632C80.5879 72.5796 80.586 72.7569 80.5879 72.8931C80.5991 73.6582 80.6831 74.2908 80.8417 74.789C81.0003 75.2873 81.1813 75.7165 81.3828 76.0766C80.9574 76.5338 80.3994 76.9033 79.7109 77.1813C79.0223 77.4612 78.2367 77.6068 77.354 77.618C76.9118 77.6236 76.4621 77.5657 76.0049 77.4444C75.5459 77.3231 75.1316 77.1346 74.7603 76.879C74.3889 76.6234 74.0829 76.3043 73.8422 75.9199C73.6014 75.5355 73.4764 75.0783 73.4708 74.5483L73.2357 57.3658C73.6835 57.0952 74.2378 56.8639 74.8983 56.6735C75.5589 56.4832 76.2363 56.3824 76.9342 56.3731C77.4455 56.3656 77.9437 56.4141 78.4308 56.5149C78.9178 56.6157 79.3526 56.7799 79.7332 57.0057C80.1139 57.2315 80.4218 57.5263 80.6588 57.892C80.8939 58.2578 81.0152 58.7 81.0227 59.2188L81.0413 60.6183L81.032 60.6202Z" fill="var(--fill-0, #101010)" stroke="var(--stroke-0, #444444)" stroke-width="0.186604"></path>
<path id="Vector_24" d="M99.2783 77.5116C97.9329 77.5302 96.7143 77.353 95.619 76.9798C94.5236 76.6065 93.5868 76.0598 92.8068 75.3395C92.0268 74.6192 91.4204 73.7366 90.9893 72.6916C90.5583 71.6466 90.3325 70.4673 90.3157 69.1517C90.297 67.7671 90.5023 66.543 90.9352 65.4775C91.3681 64.412 91.9597 63.5144 92.7098 62.7885C93.46 62.0626 94.3389 61.5103 95.3447 61.1333C96.3504 60.7564 97.4122 60.5605 98.5319 60.5455C99.7187 60.5287 100.792 60.6892 101.749 61.0251C102.706 61.361 103.525 61.8275 104.205 62.4265C104.886 63.0255 105.412 63.7309 105.787 64.5407C106.16 65.3506 106.354 66.2164 106.367 67.1401C106.379 68.0134 106.235 68.7673 105.934 69.3999C105.634 70.0325 105.212 70.5568 104.667 70.9711C104.123 71.3854 103.475 71.697 102.721 71.9041C101.967 72.1113 101.15 72.2195 100.267 72.2325C99.5992 72.2419 98.9536 72.1728 98.3284 72.0236C97.7033 71.8761 97.1678 71.6709 96.7218 71.4115C96.6733 71.4507 96.6416 71.5029 96.6285 71.5682C96.6154 71.6317 96.608 71.6895 96.608 71.738C96.6098 71.8855 96.7199 72.0291 96.9382 72.1672C97.1566 72.3072 97.4365 72.4303 97.7836 72.5386C98.1288 72.6468 98.5225 72.7345 98.9648 72.8017C99.407 72.8689 99.8493 72.9006 100.292 72.8931C100.9 72.8857 101.454 72.8353 101.954 72.7457C102.454 72.6561 102.902 72.546 103.298 72.4173C103.693 72.2885 104.039 72.1486 104.33 71.9974C104.621 71.8463 104.865 71.7007 105.059 71.5608C105.188 71.6671 105.3 71.8258 105.397 72.0347C105.492 72.2437 105.578 72.477 105.649 72.7308C105.722 72.9846 105.776 73.2477 105.813 73.5164C105.85 73.7851 105.871 74.0333 105.875 74.2591C105.878 74.4849 105.869 74.6995 105.847 74.8991C105.824 75.1007 105.794 75.2761 105.759 75.4235C105.447 75.6922 105.108 75.9497 104.738 76.196C104.369 76.4423 103.93 76.6588 103.423 76.8473C102.915 77.0357 102.326 77.1906 101.654 77.3138C100.984 77.4351 100.191 77.5022 99.2783 77.5153V77.5116ZM98.9517 67.5469C99.1962 67.5432 99.3809 67.4891 99.5022 67.3846C99.6235 67.2801 99.6832 67.1439 99.6813 66.9778C99.6795 66.7818 99.6048 66.6456 99.463 66.5691C99.3193 66.4926 99.1495 66.4553 98.9536 66.459C98.6793 66.4627 98.4609 66.5411 98.3005 66.696C98.14 66.8509 98.043 67.0562 98.0075 67.3118C98.1064 67.3696 98.2352 67.4238 98.3919 67.476C98.5486 67.5283 98.7371 67.5525 98.9517 67.5488V67.5469Z" fill="var(--fill-0, #101010)" stroke="var(--stroke-0, #444444)" stroke-width="0.186604"></path>
<path id="Vector_25" d="M111.251 60.7974C111.663 60.7918 112.01 60.8609 112.292 61.0046C112.574 61.1483 112.824 61.3311 113.044 61.5532C112.617 61.9618 112.406 62.2977 112.409 62.5627C112.409 62.6803 112.452 62.7848 112.531 62.8781C112.611 62.9695 112.743 63.0143 112.93 63.0124C113.122 62.6672 113.363 62.3388 113.652 62.0309C113.943 61.723 114.287 61.4506 114.686 61.2136C115.085 60.9784 115.541 60.7881 116.056 60.6426C116.569 60.4989 117.145 60.4224 117.782 60.413C118.273 60.4056 118.728 60.4597 119.146 60.5717C119.564 60.6836 119.943 60.831 120.279 61.012C120.614 61.1949 120.902 61.3946 121.141 61.611C121.38 61.8275 121.568 62.044 121.71 62.2586C121.941 61.9413 122.212 61.6596 122.523 61.4151C122.835 61.1706 123.167 60.9673 123.524 60.8049C123.88 60.6426 124.253 60.5194 124.645 60.4354C125.037 60.3515 125.423 60.3067 125.806 60.3011C126.709 60.288 127.508 60.4205 128.204 60.6948C128.9 60.971 129.487 61.3722 129.965 61.9003C130.443 62.4284 130.81 63.0721 131.066 63.8298C131.322 64.5874 131.456 65.442 131.469 66.3937C131.475 66.8359 131.471 67.3174 131.46 67.8361C131.447 68.3568 131.445 68.8531 131.451 69.3234C131.46 70.0008 131.542 70.5718 131.695 71.0364C131.848 71.501 132.134 71.8575 132.55 72.1075C132.561 72.1859 132.566 72.2699 132.568 72.3576C132.568 72.4453 132.57 72.5199 132.572 72.5778C132.581 73.2757 132.479 73.8914 132.266 74.4307C132.053 74.9682 131.762 75.4216 131.395 75.7892C131.027 76.1568 130.594 76.4367 130.096 76.6252C129.598 76.8137 129.069 76.9107 128.51 76.92C127.92 76.9275 127.358 76.8566 126.821 76.7073C126.283 76.558 125.81 76.3042 125.397 75.946C124.985 75.5877 124.654 75.1174 124.406 74.5315C124.158 73.9456 124.027 73.2215 124.016 72.3576L123.953 67.7055C123.943 67.0487 123.723 66.7221 123.292 66.7277C123.223 66.7277 123.15 66.7426 123.072 66.7669C122.994 66.793 122.936 66.821 122.897 66.8509L123.191 69.0416L123.236 72.3688C123.246 73.0069 123.302 73.578 123.406 74.0818C123.511 74.5856 123.69 75.0223 123.94 75.3917C123.466 75.9086 122.88 76.3098 122.182 76.5935C121.484 76.8771 120.777 77.0245 120.06 77.0339C119.54 77.0413 119.043 76.9835 118.571 76.8622C118.099 76.7409 117.677 76.5263 117.312 76.2165C116.944 75.9068 116.651 75.4888 116.433 74.9626C116.214 74.4363 116.101 73.7739 116.089 72.979L116.018 67.8119C116.009 67.155 115.789 66.8285 115.358 66.8341C115.289 66.8341 115.216 66.849 115.138 66.8733C115.059 66.8994 115.001 66.9274 114.962 66.9572L115.257 69.148L115.311 73.0499C115.319 73.5798 115.352 74.0426 115.412 74.4401C115.472 74.8375 115.597 75.2201 115.789 75.5914C115.363 76.0486 114.805 76.4181 114.117 76.6961C113.428 76.976 112.643 77.1216 111.76 77.1328C111.299 77.1384 110.838 77.0805 110.381 76.9592C109.922 76.8379 109.51 76.6476 109.144 76.3863C108.776 76.127 108.478 75.7985 108.246 75.4048C108.015 75.0111 107.896 74.539 107.888 73.9885L107.793 66.9516C107.492 66.543 107.269 66.0802 107.119 65.5614C106.97 65.0427 106.892 64.4997 106.884 63.9305C106.879 63.4603 106.942 62.9378 107.076 62.3668C107.211 61.7958 107.422 61.2863 107.711 60.8422L111.26 60.7937L111.251 60.7974Z" fill="var(--fill-0, #101010)" stroke="var(--stroke-0, #444444)" stroke-width="0.186604"></path>
<path id="Vector_26" d="M142.06 64.8673C141.904 64.8692 141.751 64.8748 141.603 64.8804C141.456 64.8878 141.325 64.9084 141.213 64.9438C141.101 64.9793 141.01 65.0334 140.943 65.1024C140.875 65.1715 140.842 65.2704 140.844 65.3991C140.844 65.4196 140.844 65.4458 140.844 65.4794C140.844 65.513 140.849 65.5409 140.859 65.5596C141.025 65.5484 141.168 65.5409 141.286 65.5391C141.404 65.5391 141.521 65.5353 141.639 65.5335C142.129 65.526 142.635 65.5559 143.158 65.6231C143.678 65.6902 144.184 65.8022 144.671 65.9627C145.158 66.1231 145.621 66.3377 146.056 66.6065C146.49 66.8752 146.871 67.2036 147.196 67.5917C147.52 67.9799 147.78 68.437 147.974 68.9651C148.168 69.4932 148.269 70.0941 148.278 70.7715C148.291 71.7922 148.119 72.686 147.763 73.4511C147.405 74.2162 146.892 74.8543 146.222 75.3638C145.552 75.8732 144.742 76.2595 143.794 76.5226C142.846 76.7857 141.786 76.9257 140.62 76.9406C139.539 76.9555 138.55 76.8753 137.649 76.7017C136.748 76.5282 135.977 76.2576 135.333 75.8937C134.69 75.5299 134.188 75.0671 133.827 74.5073C133.467 73.9475 133.281 73.285 133.27 72.5199C133.266 72.2363 133.296 71.962 133.361 71.7007C133.426 71.4395 133.51 71.2006 133.617 70.9823C133.721 70.7659 133.842 70.5737 133.977 70.4113C134.111 70.2471 134.247 70.1202 134.384 70.0306C134.622 70.2247 134.932 70.4188 135.311 70.6147C135.692 70.8106 136.126 70.9842 136.613 71.1353C137.1 71.2865 137.63 71.4059 138.201 71.4973C138.772 71.5869 139.375 71.628 140.013 71.6205C140.308 71.6168 140.497 71.5739 140.579 71.4955C140.661 71.4152 140.702 71.307 140.7 71.1708C140.7 71.0924 140.683 71.014 140.653 70.9357C140.545 70.9469 140.461 70.9525 140.403 70.9543C140.346 70.9562 140.29 70.9543 140.241 70.9562C139.278 70.9693 138.368 70.8834 137.505 70.6987C136.643 70.5139 135.886 70.2135 135.233 69.7955C134.579 69.3775 134.057 68.842 133.665 68.1889C133.273 67.5357 133.072 66.7445 133.059 65.8115C133.047 65.0371 133.195 64.2963 133.499 63.5891C133.803 62.8837 134.272 62.2604 134.902 61.7212C135.533 61.1819 136.328 60.7489 137.285 60.4224C138.243 60.0958 139.37 59.9223 140.665 59.9055C141.303 59.8962 141.917 59.926 142.506 59.9913C143.096 60.0566 143.65 60.1499 144.167 60.2712C144.684 60.3925 145.162 60.5344 145.6 60.7004C146.039 60.8665 146.423 61.0401 146.748 61.2229C146.849 61.4282 146.923 61.7025 146.972 62.044C147.02 62.3873 147.046 62.7064 147.052 62.9994C147.061 63.6768 146.97 64.2422 146.782 64.6956C146.591 65.1491 146.365 65.5055 146.104 65.7649C145.876 65.6398 145.615 65.5241 145.319 65.414C145.022 65.3058 144.699 65.2088 144.35 65.1248C143.999 65.0408 143.632 64.9755 143.243 64.927C142.855 64.8785 142.46 64.8561 142.057 64.8617L142.06 64.8673Z" fill="var(--fill-0, #101010)" stroke="var(--stroke-0, #444444)" stroke-width="0.186604"></path>
</g>
</g>
<defs>
<clipPath id="clip0_0_246">
<rect width="175.809" height="170" fill="white"></rect>
</clipPath>
</defs>
</svg>