<svg width="300" height="218" viewBox="0 0 300 218" fill="none" xmlns="http://www.w3.org/2000/svg">
<rect width="300" height="218" fill="#101010"></rect>
<g opacity="0.3" clip-path="url(#clip0_182_47)">
<path d="M20.418 188.987H31.2006V178.205H20.418V188.987ZM31.2006 189.405H20V21H278V189.405H31.2006ZM277.582 32.2006V21.418H266.799V32.2006H277.582ZM266.381 32.2006V21.418H255.599V32.2006H266.381ZM255.181 32.2006V21.418H244.398V32.2006H255.181ZM243.98 32.2006V21.418H233.198V32.2006H243.98ZM232.778 32.2006V21.418H221.996V32.2006H232.778ZM221.578 32.2006V21.418H210.808V32.2006H221.578ZM210.39 32.2006V21.418H199.607V32.2006H210.39ZM199.189 32.2006V21.418H188.407V32.2006H199.189ZM187.987 32.2006V21.418H177.205V32.2006H187.987ZM176.787 32.2006V21.418H166.004V32.2006H176.787ZM165.586 32.2006V21.418H154.804V32.2006H165.586ZM154.386 32.2006V21.418H143.603V32.2006H154.386ZM143.185 32.2006V21.418H132.415V32.2006H143.185ZM131.983 32.2006V21.418H121.213V32.2006H131.983ZM120.795 32.2006V21.418H110.013V32.2006H120.795ZM109.595 32.2006V21.418H98.812V32.2006H109.595ZM98.394 32.2006V21.418H87.6114V32.2006H98.394ZM87.1922 32.2006V21.418H76.4097V32.2006H87.1922ZM75.9916 32.2006V21.418H65.2091V32.2006H75.9916ZM64.791 32.2006V21.418H54.0085V32.2006H64.791ZM53.5904 32.2006V21.418H42.8204V32.2006H53.5904ZM42.4012 32.2006V21.418H31.6186V32.2006H42.4012ZM31.2006 32.2006V21.418H20.418V32.2006H31.2006ZM277.582 32.6186H266.799V43.4012H277.582V32.6186ZM266.381 32.6186H255.599V43.4012H266.381V32.6186ZM255.181 32.6186H244.398V43.4012H255.181V32.6186ZM243.98 32.6186H233.198V43.4012H243.98V32.6186ZM232.778 32.6186H221.996V43.4012H232.778V32.6186ZM221.578 32.6186H210.808V43.4012H221.578V32.6186ZM210.39 32.6186H199.607V43.4012H210.39V32.6186ZM199.189 32.6186H188.407V43.4012H199.189V32.6186ZM187.987 32.6186H177.205V43.4012H187.987V32.6186ZM176.787 32.6186H166.004V43.4012H176.787V32.6186ZM165.586 32.6186H154.804V43.4012H165.586V32.6186ZM154.386 32.6186H143.603V43.4012H154.386V32.6186ZM143.185 32.6186H132.415V43.4012H143.185V32.6186ZM131.983 32.6186H121.213V43.4012H131.983V32.6186ZM120.795 32.6186H110.013V43.4012H120.795V32.6186ZM109.595 32.6186H98.812V43.4012H109.595V32.6186ZM98.394 32.6186H87.6114V43.4012H98.394V32.6186ZM87.1922 32.6186H76.4097V43.4012H87.1922V32.6186ZM75.9916 32.6186H65.2091V43.4012H75.9916V32.6186ZM64.791 32.6186H54.0085V43.4012H64.791V32.6186ZM53.5904 32.6186H42.8204V43.4012H53.5904V32.6186ZM42.4012 32.6186H31.6186V43.4012H42.4012V32.6186ZM31.2006 32.6186H20.418V43.4012H31.2006V32.6186ZM277.582 54.6029V43.8204H266.799V54.6029H277.582ZM266.381 54.6029V43.8204H255.599V54.6029H266.381ZM255.181 54.6029V43.8204H244.398V54.6029H255.181ZM243.98 54.6029V43.8204H233.198V54.6029H243.98ZM232.778 54.6029V43.8204H221.996V54.6029H232.778ZM221.578 54.6029V43.8204H210.808V54.6029H221.578ZM210.39 54.6029V43.8204H199.607V54.6029H210.39ZM199.189 54.6029V43.8204H188.407V54.6029H199.189ZM187.987 54.6029V43.8204H177.205V54.6029H187.987ZM176.787 54.6029V43.8204H166.004V54.6029H176.787ZM165.586 54.6029V43.8204H154.804V54.6029H165.586ZM154.386 54.6029V43.8204H143.603V54.6029H154.386ZM143.185 54.6029V43.8204H132.415V54.6029H143.185ZM131.983 54.6029V43.8204H121.213V54.6029H131.983ZM120.795 54.6029V43.8204H110.013V54.6029H120.795ZM109.595 54.6029V43.8204H98.812V54.6029H109.595ZM98.394 54.6029V43.8204H87.6114V54.6029H98.394ZM87.1922 54.6029V43.8204H76.4097V54.6029H87.1922ZM75.9916 54.6029V43.8204H65.2091V54.6029H75.9916ZM64.791 54.6029V43.8204H54.0085V54.6029H64.791ZM53.5904 54.6029V43.8204H42.8204V54.6029H53.5904ZM42.4012 54.6029V43.8204H31.6186V54.6029H42.4012ZM31.2006 54.6029V43.8204H20.418V54.6029H31.2006ZM277.582 55.021H266.799V65.791H277.582V55.021ZM266.381 55.021H255.599V65.791H266.381V55.021ZM255.181 55.021H244.398V65.791H255.181V55.021ZM243.98 55.021H233.198V65.791H243.98V55.021ZM232.778 55.021H221.996V65.791H232.778V55.021ZM221.578 55.021H210.808V65.791H221.578V55.021ZM210.39 55.021H199.607V65.791H210.39V55.021ZM199.189 55.021H188.407V65.791H199.189V55.021ZM187.987 55.021H177.205V65.791H187.987V55.021ZM176.787 55.021H166.004V65.791H176.787V55.021ZM165.586 55.021H154.804V65.791H165.586V55.021ZM154.386 55.021H143.603V65.791H154.386V55.021ZM143.185 55.021H132.415V65.791H143.185V55.021ZM131.983 55.021H121.213V65.791H131.983V55.021ZM120.795 55.021H110.013V65.791H120.795V55.021ZM109.595 55.021H98.812V65.791H109.595V55.021ZM98.394 55.021H87.6114V65.791H98.394V55.021ZM87.1922 55.021H76.4097V65.791H87.1922V55.021ZM75.9916 55.021H65.2091V65.791H75.9916V55.021ZM64.791 55.021H54.0085V65.791H64.791V55.021ZM53.5904 55.021H42.8204V65.791H53.5904V55.021ZM42.4012 55.021H31.6186V65.791H42.4012V55.021ZM31.2006 55.021H20.418V65.791H31.2006V55.021ZM277.582 76.9916V66.2216H266.799V76.9916H277.582ZM266.381 76.9916V66.2216H255.599V76.9916H266.381ZM255.181 76.9916V66.2216H244.398V76.9916H255.181ZM243.98 76.9916V66.2216H233.198V76.9916H243.98ZM232.778 76.9916V66.2216H221.996V76.9916H232.778ZM221.578 76.9916V66.2216H210.808V76.9916H221.578ZM210.39 76.9916V66.2216H199.607V76.9916H210.39ZM199.189 76.9916V66.2216H188.407V76.9916H199.189ZM187.987 76.9916V66.2216H177.205V76.9916H187.987ZM176.787 76.9916V66.2216H166.004V76.9916H176.787ZM165.586 76.9916V66.2216H154.804V76.9916H165.586ZM154.386 76.9916V66.2216H143.603V76.9916H154.386ZM143.185 76.9916V66.2216H132.415V76.9916H143.185ZM131.983 76.9916V66.2216H121.213V76.9916H131.983ZM120.795 76.9916V66.2216H110.013V76.9916H120.795ZM109.595 76.9916V66.2216H98.812V76.9916H109.595ZM98.394 76.9916V66.2216H87.6114V76.9916H98.394ZM87.1922 76.9916V66.2216H76.4097V76.9916H87.1922ZM75.9916 76.9916V66.2216H65.2091V76.9916H75.9916ZM64.791 76.9916V66.2216H54.0085V76.9916H64.791ZM53.5904 76.9916V66.2216H42.8204V76.9916H53.5904ZM42.4012 76.9916V66.2216H31.6186V76.9916H42.4012ZM31.2006 76.9916V66.2216H20.418V76.9916H31.2006ZM277.582 77.4097H266.799V88.1922H277.582V77.4097ZM266.381 77.4097H255.599V88.1922H266.381V77.4097ZM255.181 77.4097H244.398V88.1922H255.181V77.4097ZM243.98 77.4097H233.198V88.1922H243.98V77.4097ZM232.778 77.4097H221.996V88.1922H232.778V77.4097ZM221.578 77.4097H210.808V88.1922H221.578V77.4097ZM210.39 77.4097H199.607V88.1922H210.39V77.4097ZM199.189 77.4097H188.407V88.1922H199.189V77.4097ZM187.987 77.4097H177.205V88.1922H187.987V77.4097ZM176.787 77.4097H166.004V88.1922H176.787V77.4097ZM165.586 77.4097H154.804V88.1922H165.586V77.4097ZM154.386 77.4097H143.603V88.1922H154.386V77.4097ZM143.185 77.4097H132.415V88.1922H143.185V77.4097ZM131.983 77.4097H121.213V88.1922H131.983V77.4097ZM120.795 77.4097H110.013V88.1922H120.795V77.4097ZM109.595 77.4097H98.812V88.1922H109.595V77.4097ZM98.394 77.4097H87.6114V88.1922H98.394V77.4097ZM87.1922 77.4097H76.4097V88.1922H87.1922V77.4097ZM75.9916 77.4097H65.2091V88.1922H75.9916V77.4097ZM64.791 77.4097H54.0085V88.1922H64.791V77.4097ZM53.5904 77.4097H42.8204V88.1922H53.5904V77.4097ZM42.4012 77.4097H31.6186V88.1922H42.4012V77.4097ZM31.2006 77.4097H20.418V88.1922H31.2006V77.4097ZM277.582 99.394V88.6114H266.799V99.394H277.582ZM266.381 99.394V88.6114H255.599V99.394H266.381ZM255.181 99.394V88.6114H244.398V99.394H255.181ZM243.98 99.394V88.6114H233.198V99.394H243.98ZM232.778 99.394V88.6114H221.996V99.394H232.778ZM221.578 99.394V88.6114H210.808V99.394H221.578ZM210.39 99.394V88.6114H199.607V99.394H210.39ZM199.189 99.394V88.6114H188.407V99.394H199.189ZM187.987 99.394V88.6114H177.205V99.394H187.987ZM176.787 99.394V88.6114H166.004V99.394H176.787ZM165.586 99.394V88.6114H154.804V99.394H165.586ZM154.386 99.394V88.6114H143.603V99.394H154.386ZM143.185 99.394V88.6114H132.415V99.394H143.185ZM131.983 99.394V88.6114H121.213V99.394H131.983ZM120.795 99.394V88.6114H110.013V99.394H120.795ZM109.595 99.394V88.6114H98.812V99.394H109.595ZM98.394 99.394V88.6114H87.6114V99.394H98.394ZM87.1922 99.394V88.6114H76.4097V99.394H87.1922ZM75.9916 99.394V88.6114H65.2091V99.394H75.9916ZM64.791 99.394V88.6114H54.0085V99.394H64.791ZM53.5904 99.394V88.6114H42.8204V99.394H53.5904ZM42.4012 99.394V88.6114H31.6186V99.394H42.4012ZM31.2006 99.394V88.6114H20.418V99.394H31.2006ZM277.582 99.812H266.799V110.595H277.582V99.812ZM266.381 99.812H255.599V110.595H266.381V99.812ZM255.181 99.812H244.398V110.595H255.181V99.812ZM243.98 99.812H233.198V110.595H243.98V99.812ZM232.778 99.812H221.996V110.595H232.778V99.812ZM221.578 99.812H210.808V110.595H221.578V99.812ZM210.39 99.812H199.607V110.595H210.39V99.812ZM199.189 99.812H188.407V110.595H199.189V99.812ZM187.987 99.812H177.205V110.595H187.987V99.812ZM176.787 99.812H166.004V110.595H176.787V99.812ZM165.586 99.812H154.804V110.595H165.586V99.812ZM154.386 99.812H143.603V110.595H154.386V99.812ZM143.185 99.812H132.415V110.595H143.185V99.812ZM131.983 99.812H121.213V110.595H131.983V99.812ZM120.795 99.812H110.013V110.595H120.795V99.812ZM109.595 99.812H98.812V110.595H109.595V99.812ZM98.394 99.812H87.6114V110.595H98.394V99.812ZM87.1922 99.812H76.4097V110.595H87.1922V99.812ZM75.9916 99.812H65.2091V110.595H75.9916V99.812ZM64.791 99.812H54.0085V110.595H64.791V99.812ZM53.5904 99.812H42.8204V110.595H53.5904V99.812ZM42.4012 99.812H31.6186V110.595H42.4012V99.812ZM31.2006 99.812H20.418V110.595H31.2006V99.812ZM277.582 121.795V111.013H266.799V121.795H277.582ZM266.381 121.795V111.013H255.599V121.795H266.381ZM255.181 121.795V111.013H244.398V121.795H255.181ZM243.98 121.795V111.013H233.198V121.795H243.98ZM232.778 121.795V111.013H221.996V121.795H232.778ZM221.578 121.795V111.013H210.808V121.795H221.578ZM210.39 121.795V111.013H199.607V121.795H210.39ZM199.189 121.795V111.013H188.407V121.795H199.189ZM187.987 121.795V111.013H177.205V121.795H187.987ZM176.787 121.795V111.013H166.004V121.795H176.787ZM165.586 121.795V111.013H154.804V121.795H165.586ZM154.386 121.795V111.013H143.603V121.795H154.386ZM143.185 121.795V111.013H132.415V121.795H143.185ZM131.983 121.795V111.013H121.213V121.795H131.983ZM120.795 121.795V111.013H110.013V121.795H120.795ZM109.595 121.795V111.013H98.812V121.795H109.595ZM98.394 121.795V111.013H87.6114V121.795H98.394ZM87.1922 121.795V111.013H76.4097V121.795H87.1922ZM75.9916 121.795V111.013H65.2091V121.795H75.9916ZM64.791 121.795V111.013H54.0085V121.795H64.791ZM53.5904 121.795V111.013H42.8204V121.795H53.5904ZM42.4012 121.795V111.013H31.6186V121.795H42.4012ZM31.2006 121.795V111.013H20.418V121.795H31.2006ZM277.582 122.213H266.799V132.996H277.582V122.213ZM266.381 122.213H255.599V132.996H266.381V122.213ZM255.181 122.213H244.398V132.996H255.181V122.213ZM243.98 122.213H233.198V132.996H243.98V122.213ZM232.778 122.213H221.996V132.996H232.778V122.213ZM221.578 122.213H210.808V132.996H221.578V122.213ZM210.39 122.213H199.607V132.996H210.39V122.213ZM199.189 122.213H188.407V132.996H199.189V122.213ZM187.987 122.213H177.205V132.996H187.987V122.213ZM176.787 122.213H166.004V132.996H176.787V122.213ZM165.586 122.213H154.804V132.996H165.586V122.213ZM154.386 122.213H143.603V132.996H154.386V122.213ZM143.185 122.213H132.415V132.996H143.185V122.213ZM131.983 122.213H121.213V132.996H131.983V122.213ZM120.795 122.213H110.013V132.996H120.795V122.213ZM109.595 122.213H98.812V132.996H109.595V122.213ZM98.394 122.213H87.6114V132.996H98.394V122.213ZM87.1922 122.213H76.4097V132.996H87.1922V122.213ZM75.9916 122.213H65.2091V132.996H75.9916V122.213ZM64.791 122.213H54.0085V132.996H64.791V122.213ZM53.5904 122.213H42.8204V132.996H53.5904V122.213ZM42.4012 122.213H31.6186V132.996H42.4012V122.213ZM31.2006 122.213H20.418V132.996H31.2006V122.213ZM277.582 144.196V133.414H266.799V144.196H277.582ZM266.381 144.196V133.414H255.599V144.196H266.381ZM255.181 144.196V133.414H244.398V144.196H255.181ZM243.98 144.196V133.414H233.198V144.196H243.98ZM232.778 144.196V133.414H221.996V144.196H232.778ZM221.578 144.196V133.414H210.808V144.196H221.578ZM210.39 144.196V133.414H199.607V144.196H210.39ZM199.189 144.196V133.414H188.407V144.196H199.189ZM187.987 144.196V133.414H177.205V144.196H187.987ZM176.787 144.196V133.414H166.004V144.196H176.787ZM165.586 144.196V133.414H154.804V144.196H165.586ZM154.386 144.196V133.414H143.603V144.196H154.386ZM143.185 144.196V133.414H132.415V144.196H143.185ZM131.983 144.196V133.414H121.213V144.196H131.983ZM120.795 144.196V133.414H110.013V144.196H120.795ZM109.595 144.196V133.414H98.812V144.196H109.595ZM98.394 144.196V133.414H87.6114V144.196H98.394ZM87.1922 144.196V133.414H76.4097V144.196H87.1922ZM75.9916 144.196V133.414H65.2091V144.196H75.9916ZM64.791 144.196V133.414H54.0085V144.196H64.791ZM53.5904 144.196V133.414H42.8204V144.196H53.5904ZM42.4012 144.196V133.414H31.6186V144.196H42.4012ZM31.2006 144.196V133.414H20.418V144.196H31.2006ZM277.582 144.614H266.799V155.384H277.582V144.614ZM266.381 144.614H255.599V155.384H266.381V144.614ZM255.181 144.614H244.398V155.384H255.181V144.614ZM243.98 144.614H233.198V155.384H243.98V144.614ZM232.778 144.614H221.996V155.384H232.778V144.614ZM221.578 144.614H210.808V155.384H221.578V144.614ZM210.39 144.614H199.607V155.384H210.39V144.614ZM199.189 144.614H188.407V155.384H199.189V144.614ZM187.987 144.614H177.205V155.384H187.987V144.614ZM176.787 144.614H166.004V155.384H176.787V144.614ZM165.586 144.614H154.804V155.384H165.586V144.614ZM154.386 144.614H143.603V155.384H154.386V144.614ZM143.185 144.614H132.415V155.384H143.185V144.614ZM131.983 144.614H121.213V155.384H131.983V144.614ZM120.795 144.614H110.013V155.384H120.795V144.614ZM109.595 144.614H98.812V155.384H109.595V144.614ZM98.394 144.614H87.6114V155.384H98.394V144.614ZM87.1922 144.614H76.4097V155.384H87.1922V144.614ZM75.9916 144.614H65.2091V155.384H75.9916V144.614ZM64.791 144.614H54.0085V155.384H64.791V144.614ZM53.5904 144.614H42.8204V155.384H53.5904V144.614ZM42.4012 144.614H31.6186V155.384H42.4012V144.614ZM31.2006 144.614H20.418V155.384H31.2006V144.614ZM277.582 166.586V155.816H266.799V166.586H277.582ZM266.381 166.586V155.816H255.599V166.586H266.381ZM255.181 166.586V155.816H244.398V166.586H255.181ZM243.98 166.586V155.816H233.198V166.586H243.98ZM232.778 166.586V155.816H221.996V166.586H232.778ZM221.578 166.586V155.816H210.808V166.586H221.578ZM210.39 166.586V155.816H199.607V166.586H210.39ZM199.189 166.586V155.816H188.407V166.586H199.189ZM187.987 166.586V155.816H177.205V166.586H187.987ZM176.787 166.586V155.816H166.004V166.586H176.787ZM165.586 166.586V155.816H154.804V166.586H165.586ZM154.386 166.586V155.816H143.603V166.586H154.386ZM143.185 166.586V155.816H132.415V166.586H143.185ZM131.983 166.586V155.816H121.213V166.586H131.983ZM120.795 166.586V155.816H110.013V166.586H120.795ZM109.595 166.586V155.816H98.812V166.586H109.595ZM98.394 166.586V155.816H87.6114V166.586H98.394ZM87.1922 166.586V155.816H76.4097V166.586H87.1922ZM75.9916 166.586V155.816H65.2091V166.586H75.9916ZM64.791 166.586V155.816H54.0085V166.586H64.791ZM53.5904 166.586V155.816H42.8204V166.586H53.5904ZM42.4012 166.586V155.816H31.6186V166.586H42.4012ZM31.2006 166.586V155.816H20.418V166.586H31.2006ZM277.582 167.004H266.799V177.787H277.582V167.004ZM266.381 167.004H255.599V177.787H266.381V167.004ZM255.181 167.004H244.398V177.787H255.181V167.004ZM243.98 167.004H233.198V177.787H243.98V167.004ZM232.778 167.004H221.996V177.787H232.778V167.004ZM221.578 167.004H210.808V177.787H221.578V167.004ZM210.39 167.004H199.607V177.787H210.39V167.004ZM199.189 167.004H188.407V177.787H199.189V167.004ZM187.987 167.004H177.205V177.787H187.987V167.004ZM176.787 167.004H166.004V177.787H176.787V167.004ZM165.586 167.004H154.804V177.787H165.586V167.004ZM154.386 167.004H143.603V177.787H154.386V167.004ZM143.185 167.004H132.415V177.787H143.185V167.004ZM131.983 167.004H121.213V177.787H131.983V167.004ZM120.795 167.004H110.013V177.787H120.795V167.004ZM109.595 167.004H98.812V177.787H109.595V167.004ZM98.394 167.004H87.6114V177.787H98.394V167.004ZM87.1922 167.004H76.4097V177.787H87.1922V167.004ZM75.9916 167.004H65.2091V177.787H75.9916V167.004ZM64.791 167.004H54.0085V177.787H64.791V167.004ZM53.5904 167.004H42.8204V177.787H53.5904V167.004ZM42.4012 167.004H31.6186V177.787H42.4012V167.004ZM31.2006 167.004H20.418V177.787H31.2006V167.004ZM266.799 188.987H277.582V178.205H266.799V188.987ZM255.599 188.987H266.381V178.205H255.599V188.987ZM244.398 188.987H255.181V178.205H244.398V188.987ZM233.196 188.987H243.979V178.205H233.196V188.987ZM221.996 188.987H232.778V178.205H221.996V188.987ZM210.808 188.987H221.578V178.205H210.808V188.987ZM199.607 188.987H210.39V178.205H199.607V188.987ZM188.405 188.987H199.188V178.205H188.405V188.987ZM177.205 188.987H187.987V178.205H177.205V188.987ZM166.004 188.987H176.787V178.205H166.004V188.987ZM154.804 188.987H165.586V178.205H154.804V188.987ZM143.603 188.987H154.386V178.205H143.603V188.987ZM132.414 188.987H143.184V178.205H132.414V188.987ZM121.213 188.987H131.983V178.205H121.213V188.987ZM110.013 188.987H120.795V178.205H110.013V188.987ZM98.812 188.987H109.595V178.205H98.812V188.987ZM87.6103 188.987H98.3928V178.205H87.6103V188.987ZM76.4097 188.987H87.1922V178.205H76.4097V188.987ZM65.2091 188.987H75.9916V178.205H65.2091V188.987ZM54.0085 188.987H64.791V178.205H54.0085V188.987ZM42.8192 188.987H53.5893V178.205H42.8192V188.987ZM31.6186 188.987H42.4012V178.205H31.6186V188.987Z" fill="#EBEBEB"></path>
</g>
<defs>
<clipPath id="clip0_182_47">
<rect width="258" height="168.405" fill="white" transform="translate(20 21)"></rect>
</clipPath>
</defs>
</svg>