<svg width="140" height="115" viewBox="0 0 140 115" fill="none" xmlns="http://www.w3.org/2000/svg">
<g clip-path="url(#clip0_185_11)">
<path d="M22.2472 46.3215C22.2172 44.159 22.2629 37.3491 22.29 36.469C22.4215 33.8115 22.3372 31.0129 22.853 28.4039C24.0805 22.206 29.2862 20.8152 34.8848 21.3016C34.9419 15.446 34.4075 8.66615 38.8958 4.29409C40.7778 2.48678 43.1398 1.25576 45.7019 0.746517C48.0811 0.292907 51.1333 0.399889 53.6011 0.401315H63.288L84.6107 0.425566C88.5961 0.402743 92.5828 0.414155 96.5682 0.461228C100.728 0.53255 104.476 1.58812 107.418 4.64499C110.839 8.19827 111.309 12.4263 111.222 17.115C111.196 18.4801 111.251 19.9208 111.212 21.2959C111.208 21.4414 111.202 21.5869 111.195 21.7324C113.81 22.0348 115.622 22.5555 117.567 24.33C117.441 22.7024 118.107 21.293 119.579 20.4999C118.062 18.3389 118.698 15.2349 120.88 13.7315C122.095 12.9055 123.591 12.5989 125.034 12.8799C125.576 12.9869 125.94 13.1195 126.41 13.4162C130.647 10.4292 135.251 13.5032 137.693 17.1906C139.812 20.3901 141.46 24.1645 140.714 28.0986C140.255 30.4951 139.845 30.5635 138.892 32.4564C138.892 32.4564 138.892 32.4578 138.892 32.4593C139.462 35.8285 139.234 40.0865 138.709 43.4714C138.709 43.4714 138.335 45.022 137.155 47.0789C137.155 47.0789 136.256 48.9747 135.754 49.9846C134.877 51.7534 133.991 52.3582 133.568 52.7804C132.199 54.1469 130.866 55.6347 129.225 56.7616C125.736 59.5946 124.017 59.9041 124.017 59.9041C123.853 60.1295 121.176 60.5332 120.132 60.5488C120.134 62.9324 120.12 65.3388 120.064 67.7224C119.979 71.3527 120.62 74.4738 118.57 77.6876C114.549 82.8399 109.069 81.8913 103.217 81.9341C99.0374 81.9641 94.8177 81.9755 90.638 81.927L91.021 82.7172C91.7969 84.5046 93.1544 86.4089 94.5748 87.7226C98.8302 91.6639 105.168 91.4114 110.239 89.3488C111.664 88.7697 113.024 88.0493 114.524 87.6984C118.034 86.9267 120.993 88.8781 122.384 92.0576C123.481 94.5667 124.041 98.9117 123.352 101.598C123.8 101.023 123.169 101.792 123.352 101.598C122.934 103.613 122.162 104.966 122.162 104.966C122.162 104.966 119.881 108.679 119.859 108.584C119.859 108.584 117.538 111.529 113.611 112.119C112.508 112.329 110.899 111.648 110.02 110.985C107.484 109.072 106.717 105.625 106.817 102.609C100.724 103.85 94.3876 102.579 89.2477 99.0829C84.3235 95.7706 80.4411 90.5755 78.4491 85.0181C78.0862 84.0039 77.7161 82.9883 77.4817 81.9341H68.0321C66.9647 82.6887 65.4042 84.1651 64.4769 85.0723C59.3026 90.0577 55.4502 96.2485 53.2639 103.088C53.0967 103.655 52.6823 104.479 52.6295 104.759C52.5937 104.89 51.4906 107.346 51.4791 107.469L50.8776 108.924C50.5289 109.778 50.4346 110.114 50.0631 110.897C49.4029 112.069 49.1785 112.446 48.7656 113.063C48.3469 113.747 48.2883 113.852 47.9096 114.369C47.9096 114.369 47.1709 115.136 47.1723 115.136C47.1737 115.136 47.0708 115.257 46.9037 115.374C46.8765 115.421 46.3064 115.343 46.3064 115.343C45.6305 115.149 45.3818 115.135 45.0346 115.086C43.3884 114.854 42.3124 114.414 40.7892 113.752C37.8627 112.22 35.755 111.075 33.07 108.92C29.5491 106.092 24.8993 101.505 24.2863 96.8491C24.0176 94.8064 24.5706 93.3286 25.8081 91.7652C25.9896 91.6596 26.7512 90.8951 27.0156 90.7025C32.547 86.6842 39.3217 90.4828 42.874 95.0075C42.874 95.0075 42.874 95.0075 42.8755 95.0075C44.5673 90.6069 46.0734 88.0479 48.5255 84.1266C48.9628 83.5175 49.3986 82.9055 49.8287 82.2907C49.943 82.1994 50.6061 81.2922 50.719 81.1225L50.7875 81.074C49.943 80.9342 47.5695 80.9641 46.6107 80.9542L35.5992 80.8957C31.8397 80.8586 29.2219 81.1767 25.801 79.3266C24.6406 78.6077 23.7804 77.8445 22.9688 76.7476C22.6801 76.3239 22.4058 75.8418 22.1414 75.3981C22.1228 75.7961 22.0457 76.0486 21.9471 76.428C21.5441 77.3053 21.2226 77.7789 20.5238 78.4707C20.5238 78.4707 20.5238 78.4707 20.5238 78.4721C21.154 79.2838 21.4269 80.7901 21.2955 81.8058C21.1412 83.0211 20.5024 84.1223 19.525 84.8655C18.0089 86.0223 16.137 86.2135 14.3737 85.5544C14.3737 85.5544 14.3737 85.5544 14.3722 85.5544C13.7478 86.2463 13.1448 86.6685 12.2502 86.9552C8.39351 88.1948 4.93402 84.797 2.97065 81.9256C1.31593 78.9486 -0.0758681 75.3482 1.78176 72.1458C0.858664 69.7566 0.941544 65.0293 1.51455 62.5273C1.7689 61.4204 2.2476 59.9711 2.66342 58.8942C3.48793 56.4664 11.9216 46.631 22.2443 46.3243M21.4441 66.8495C21.577 64.2205 21.597 61.2749 21.8028 58.6802C18.4247 59.2879 15.1239 60.8455 13.7835 64.2291C13.402 65.1919 13.3148 66.1719 13.1848 67.1889C14.5608 67.3287 15.704 67.7809 16.9443 68.3315C18.6262 69.3443 20.1395 70.33 21.3669 71.9005C21.2769 70.6638 21.3769 68.1618 21.4441 66.8495ZM120.65 41.2975C120.622 43.2018 120.747 46.2644 120.607 48.076C123.127 47.0033 125.003 44.8294 126.037 42.3288C127.012 39.9724 127.595 36.5446 126.548 34.1211C126.085 33.0498 125.646 32.7417 124.608 32.3394C124.384 32.2539 124.158 32.1697 123.933 32.087C122.897 31.602 121.618 30.9701 120.727 30.2725C120.726 30.6334 120.742 30.9815 120.756 31.3409C120.872 34.5176 120.697 38.0909 120.649 41.2961L120.65 41.2975Z" fill="#EBEBEB"></path>
<path d="M116.665 30.5202C116.971 33.0436 116.751 35.5242 116.747 38.0575C116.742 42.5423 116.555 47.0541 116.565 51.5303C115.802 51.5346 114.895 51.5517 114.15 51.4904C111.458 51.265 108.159 50.3877 108.087 54.3533C108.013 58.4243 113.209 58.6483 116.148 58.8152L116.135 67.2184C116.129 68.7589 116.092 70.2738 116.037 71.8115C115.975 73.5176 115.675 75.051 114.415 76.2949C113.797 76.9025 113.041 77.349 112.211 77.5958C110.692 78.0366 108.002 77.9324 106.345 77.9281L101.478 77.9082H101.3C100.685 77.961 98.1118 77.9552 97.516 77.8411C96.6029 77.9995 94.9139 77.9053 93.9265 77.9253C91.1786 77.9838 88.3178 77.8169 85.5871 77.8497C86.4931 81.9636 87.139 84.8336 89.6782 88.3968C94.7481 95.6446 104.628 96.5775 112.15 92.8816C113.123 92.475 114.33 91.6092 115.348 91.4394C119.689 90.7105 119.576 97.459 119.6 100.198C119.623 102.831 118.393 108.013 115.173 108.371C109.182 109.039 110.789 100.71 111.381 97.1909C109.209 98.0296 106.813 98.4447 104.502 98.6501C90.8771 99.8583 82.8978 90.3796 81.1459 77.9125C77.2992 77.7227 73.4068 77.7955 69.5543 77.7727C68.6298 77.767 67.6352 77.6999 66.725 77.7327C58.7015 84.0276 53.9945 89.9517 50.0006 99.4447C49.0618 101.716 48.1901 104.014 47.3871 106.334C46.9012 107.707 46.3711 111.03 44.5163 110.551C38.8362 109.082 33.8721 104.994 30.214 100.527C27.1046 96.7344 27.5633 92.4793 33.259 92.9329C37.4187 93.4265 41.6684 100.527 44.342 103.767C44.5063 102.39 45.5323 99.9639 46.041 98.613C48.5688 91.8973 51.9868 85.3671 57.0267 80.1776C57.9298 79.2476 59.0073 78.1336 60.0447 77.3547C52.787 77.2706 45.528 77.1293 38.2732 76.9339L32.9661 76.8184C30.7555 76.7528 28.3906 76.8555 26.7102 75.1651C25.3027 73.7487 25.0897 71.6461 25.114 69.7432C25.1926 66.6778 25.3041 63.5881 25.3884 60.5169L25.5327 55.9138C25.5542 55.1892 25.5384 54.3789 25.5927 53.6671C21.103 53.7199 15.9902 55.4702 12.7722 58.6611C9.4199 61.9848 8.94549 66.0173 9.42419 70.4978C12.4936 70.5006 15.1957 71.0784 17.5478 73.228C17.8135 73.4705 18.0908 73.8499 18.2408 74.1837C19.2196 77.1664 14.9328 75.9012 13.7096 75.4547C14.8999 77.1151 17.2234 79.1791 17.5806 81.0563C17.2034 82.1647 16.5861 82.6254 15.3758 82.1618C13.5724 81.4714 11.8763 80.0692 10.5559 78.6884C10.9903 79.6855 11.9463 81.4229 11.5762 82.4614C11.2289 83.4371 9.75284 83.2445 9.03123 82.8323C5.41742 80.7668 3.20398 75.8926 5.94184 72.2894C3.10681 61.7337 9.05552 52.9996 19.3868 50.5332C21.7074 49.9798 23.4707 49.7986 25.8499 49.8157C25.9457 48.2623 25.9528 46.8031 26.01 45.2625L26.3872 34.9137C26.5073 31.931 26.0543 28.2978 28.4692 26.1481C30.1411 24.6604 32.8104 25.0098 34.8838 25.0412C36.1412 25.0541 37.4001 25.0598 38.659 25.0569C38.7491 22.7703 38.7305 20.4038 38.8277 18.1657C39.0091 14.0048 38.4161 9.73545 41.9242 6.7014C43.1545 5.63727 44.6063 4.91692 46.2753 4.70866C48.3173 4.51608 50.7036 4.59597 52.7885 4.59739L64.7573 4.60167L85.9829 4.6573L93.5335 4.66586C97.9032 4.66871 101.487 4.21938 104.734 7.78692C105.784 8.94663 106.518 10.3574 106.863 11.8837C107.167 13.196 107.133 14.2017 107.144 15.5225C107.171 18.7948 107.006 22.0742 107.074 25.3436C110.918 25.8686 116.062 25.4963 116.671 30.5231L116.665 30.5202Z" fill="#000001"></path>
<path d="M105.407 51.0388L105.283 61.6144L105.275 66.6812C105.264 70.7023 105.325 73.8519 102.012 76.7362C101.64 77.0586 101.064 77.4951 100.726 77.8189C100.936 77.9044 101.069 77.8887 101.303 77.9059C100.688 77.9601 98.1149 77.9544 97.519 77.8402C100.703 76.5636 102.592 74.3583 102.813 70.8307C102.88 69.7666 102.852 68.7053 102.85 67.6397L102.859 61.8156L103.085 43.2775C103.979 43.2375 104.618 43.0991 105.494 42.8937C105.381 45.5854 105.428 48.3399 105.405 51.0402L105.407 51.0388Z" fill="#EBEB10"></path>
<path d="M48.5674 26.8606C57.0754 26.9704 65.5833 27.0161 74.0913 26.9961C78.2981 26.9847 82.505 26.9989 86.7103 27.0389C88.5437 27.0546 90.4442 27.0089 92.269 27.1017C93.0449 27.1416 93.7179 27.3513 94.2623 27.9176C94.6753 28.3469 94.9539 29.0331 94.974 29.6279C95.0254 31.1114 94.9997 32.6662 94.9954 34.1497L94.8553 45.1576L94.7139 58.0998C94.6967 62.6173 94.6639 67.1548 94.5553 71.6439C94.5081 73.5938 93.1978 75.7977 91.2187 75.9617C88.1807 76.2142 84.5555 76.0387 81.5176 75.9902C78.1552 75.9275 74.7915 75.9047 71.4292 75.9175C70.9605 74.9575 68.6299 69.4885 67.9811 69.2688C67.6582 69.159 67.3267 69.1091 66.988 69.0862C65.5633 68.9907 51.2953 68.7696 50.6966 69.0149C50.0564 69.2788 47.5415 74.3384 47.0356 75.2171C43.7647 75.2128 40.6396 75.0859 37.4016 75.0531C36.0884 75.0417 34.7767 75.0217 33.4635 74.9903C32.2717 74.9718 31.0914 75.0103 29.914 74.7664C27.4262 74.2528 26.8474 72.106 26.8974 69.8223C27.0789 61.5346 27.5433 53.2513 27.8077 44.9622L28.0992 35.3708C28.1292 34.3109 28.1278 33.2439 28.1892 32.1884C28.2764 30.6564 28.1864 28.7749 29.4138 27.6351C30.6184 26.5154 32.6547 26.6737 34.1865 26.745C38.9706 26.8848 43.7819 26.8249 48.5674 26.8577V26.8606Z" fill="#EBEB10"></path>
<path d="M89.1106 47.1327C92.3986 53.0938 91.3354 61.5512 85.8897 65.939C83.2205 68.0886 80.6312 68.6507 77.2532 68.4838C74.0595 68.1043 71.1501 66.4682 69.1682 63.9405C66.9147 61.0848 66.3231 58.1064 66.2574 54.5445C66.176 50.1368 67.7435 46.0272 71.3645 43.2285C73.8037 41.3214 76.8845 40.4213 79.9696 40.7166C84.0221 41.1359 87.1501 43.5766 89.112 47.1327H89.1106Z" fill="#000001"></path>
<path d="M84.541 64.6269C82.6962 66.0691 79.724 67.0191 77.3848 66.6254C66.8349 65.3301 64.6886 50.3824 72.4378 44.4399C74.3726 42.9563 77.079 41.9978 79.5411 42.2845C89.9539 43.5298 92.0973 58.7214 84.541 64.6283V64.6269Z" fill="#EBEBEB"></path>
<path d="M83.1721 46.5165C89.7667 51.7116 86.7474 65.765 77.1291 64.2786C66.1505 62.1347 68.3068 43.9817 79.2497 44.8504C80.8358 45.0616 81.9161 45.5266 83.1721 46.5165Z" fill="#000001"></path>
<path d="M78.8996 51.6398C81.496 53.3658 80.6229 58.0588 77.0405 57.7279C73.3524 57.1573 73.9311 50.9266 77.8693 51.2647C78.1937 51.3446 78.6281 51.4587 78.8996 51.6398Z" fill="#EBEBEB"></path>
<path d="M48.9209 44.5053C53.595 49.9457 52.9334 60.4629 47.2461 64.9848C45.2385 66.581 42.0705 67.8134 39.4741 67.4083C31.0376 66.3185 27.7453 59.1335 28.7956 51.338C29.2471 47.9573 31.0219 44.8904 33.7283 42.8092C35.6288 41.3728 38.7082 40.4342 41.0731 40.5768C44.3082 40.8564 46.796 42.0332 48.9209 44.5067V44.5053Z" fill="#000001"></path>
<path d="M49.6921 58.2709C48.226 63.0994 44.3878 66.1107 39.2179 65.5629C36.5329 65.1649 34.2637 64.0352 32.6276 61.8955C28.6622 56.7104 29.3696 47.9163 34.7881 43.9779C36.4086 42.7997 39.1536 41.8425 41.1369 42.1435C49.2148 43.0807 51.8083 51.297 49.6906 58.2723L49.6921 58.2709Z" fill="#EBEBEB"></path>
<path d="M39.149 63.1949C39.0733 63.1835 38.9961 63.1721 38.919 63.1593C36.5683 62.6543 34.9636 61.6672 33.6604 59.6288C32.2586 57.4349 31.8242 54.2825 32.4244 51.7748C33.459 47.4527 36.7055 44.3145 41.2853 44.7082C51.4351 46.0148 49.9462 64.7783 39.149 63.1949Z" fill="#000001"></path>
<path d="M41.4078 51.588C42.3195 53.0244 42.2552 55.5464 40.6619 56.4964C40.0232 56.8787 39.5388 56.8344 38.8472 56.8073C35.2276 55.8559 36.0807 50.2471 39.6302 50.481C40.3819 50.628 40.9892 50.9247 41.4093 51.588H41.4078Z" fill="#EBEBEB"></path>
<path d="M72.2103 30.4664C74.4709 30.5007 76.7629 30.4179 79.0178 30.552C79.2964 30.5691 79.8823 30.5777 80.0909 30.7631C80.5796 31.1982 80.4739 35.198 80.3596 35.9768C80.3181 36.2535 80.2238 36.486 79.9766 36.6401C79.4665 36.9611 71.2429 36.7571 69.9626 36.7499L51.2033 36.5602C50.1016 36.5502 41.7294 36.7057 40.6348 36.2493C40.1204 34.8414 40.5105 32.8229 40.4348 31.3209C40.4133 30.8901 40.752 30.4836 40.7934 30.4679C41.7437 30.1184 43.8714 30.2696 44.8388 30.2724C46.7922 30.2667 48.7455 30.2796 50.6989 30.3124C57.8679 30.4507 65.0398 30.3595 72.2103 30.4679V30.4664Z" fill="#000001"></path>
<path d="M51.3366 31.8568L58.547 31.9809C60.8248 31.9994 63.6055 31.9053 65.8361 32.0394C65.8461 32.7483 65.9161 34.3788 65.7632 35.0121C65.6017 35.1619 65.6975 35.1048 65.4288 35.1205C57.6139 35.0021 49.799 34.955 41.9827 34.9764C41.9884 34.4387 41.9527 32.038 42.1327 31.7427L42.3556 31.7384C45.3064 31.8425 48.3815 31.8268 51.3366 31.8582V31.8568Z" fill="#EBEBEB"></path>
<path d="M78.4813 32.1351C78.4041 33.1721 78.4098 34.1763 78.4098 35.2162L77.108 35.2005L67.4141 35.1206L67.4212 32.0609L68.8259 32.0966C72.0439 32.128 75.2633 32.1422 78.4827 32.1365L78.4813 32.1351Z" fill="#EBEBEB"></path>
<path d="M61.6014 50.6677C62.2201 50.6677 64.4507 50.5721 64.8179 50.9159C64.9265 51.1883 65.0494 51.6947 65.0437 51.9943C64.9622 55.3036 64.9865 58.6144 64.9479 61.9252C64.9451 62.1049 64.8436 62.7782 64.7751 62.8923C64.3807 63.5571 62.1515 63.3117 61.5013 63.3174C60.2567 63.296 54.1365 63.3659 53.4721 62.9665C53.3349 62.6299 53.282 62.2547 53.262 61.8924C53.2006 60.8283 53.1949 51.4964 53.4063 50.953C53.4621 50.8118 53.5878 50.7504 53.725 50.7019C54.5281 50.4166 55.7927 50.6049 56.6472 50.6334C58.3005 50.6705 59.9538 50.6819 61.6056 50.6648L61.6014 50.6677Z" fill="#000001"></path>
<path d="M63.5077 52.3141C63.4748 55.3995 63.4076 58.4464 63.4162 61.5332L62.1159 61.5132C59.6681 61.5018 56.9974 61.4861 54.551 61.4091C54.6353 58.3351 54.6825 55.2597 54.6953 52.1843L55.8399 52.2042C58.3978 52.2855 60.9356 52.2214 63.5077 52.3141Z" fill="#EBEBEB"></path>
<path d="M58.2239 57.9727C57.9195 58.6118 57.4122 58.6973 56.7563 58.6588C55.2774 57.9385 55.4817 55.2567 57.4779 55.455C58.4768 55.9329 58.6983 56.9728 58.2239 57.9727Z" fill="#000001"></path>
<path d="M61.035 58.6741C60.5648 58.5472 60.3548 58.4987 60.099 58.0608C59.566 57.1493 59.8118 55.3776 61.1378 55.3833C62.9726 55.9111 62.754 58.6912 61.035 58.6741Z" fill="#000001"></path>
<path d="M36.377 33.5514C36.0398 35.1106 34.5122 36.1133 32.9432 35.8038C31.903 35.5984 31.0556 34.8495 30.7255 33.8439C30.3954 32.8382 30.6341 31.7327 31.3528 30.9539C32.0687 30.1736 33.1519 29.8413 34.1836 30.0838C35.7397 30.4489 36.7157 31.9909 36.3784 33.5514H36.377Z" fill="#000001"></path>
<path d="M33.2694 34.5259C31.3889 33.7514 31.8233 31.3378 33.7467 31.3621C35.5443 31.8799 35.2899 34.6172 33.2694 34.5259Z" fill="#EBEBEB"></path>
<path d="M90.9885 33.7085C90.787 35.2975 89.3352 36.4244 87.7419 36.2276C86.1444 36.0293 85.0098 34.5743 85.2127 32.9796C85.4156 31.3848 86.876 30.2565 88.4736 30.4619C90.0654 30.6673 91.19 32.1194 90.9885 33.7085Z" fill="#000001"></path>
<path d="M87.5252 34.7633C87.0994 34.4937 86.9694 34.371 86.7193 33.9317C86.6493 32.3683 87.0094 31.7278 88.717 31.8591C90.2688 32.9945 89.5015 35.2882 87.5252 34.7633Z" fill="#EBEBEB"></path>
<path d="M62.3705 44.9588C63.3422 44.9588 64.3253 44.9388 65.2684 44.9916C66.2658 45.0458 66.3258 46.1784 65.8114 46.5849C65.3613 46.9387 63.1136 46.7161 62.5663 46.6919C60.4157 46.6976 58.2651 46.6819 56.1146 46.6448C55.2872 46.6263 54.4541 46.6206 53.6539 46.5678C52.7723 46.5093 52.7823 45.3967 53.2581 45.1057C53.9297 44.6934 55.8659 44.9145 56.6204 44.9345C58.5366 44.9645 60.4543 44.973 62.3691 44.9588H62.3705Z" fill="#000001"></path>
<path d="M92.2761 24.7107C92.2804 23.628 92.4362 20.4941 92.0032 19.6725C91.1887 19.0948 87.8207 19.4614 86.7104 19.3658C86.3889 19.3372 85.673 19.4428 85.5301 19.7096C85.2214 20.2844 85.2686 21.8621 85.2714 22.4369L85.2757 24.568C84.607 24.5438 83.9454 24.5138 83.2766 24.5252L83.2738 22.551C83.3081 19.7153 83.6796 19.1646 80.3701 19.3258C79.407 19.3729 77.6366 19.1661 76.7849 19.5498C76.3305 20.0833 76.4219 21.6823 76.4119 22.4241C75.7918 22.4112 75.1645 22.3898 74.5457 22.4155C74.54 22.0104 74.5686 19.7238 74.2471 19.5954C72.7024 18.9821 70.2775 19.3786 68.6285 19.323C67.3381 19.2788 67.7011 21.4227 67.6325 22.3656C67.1109 22.3684 66.1807 22.3456 65.6948 22.4127C65.7234 19.7038 66.0892 19.1276 62.967 19.2745C61.9553 19.323 60.0648 19.089 59.1674 19.4756C58.7073 19.9734 58.8287 21.4684 58.8316 22.1773L58.7916 24.5053L56.8239 24.4981C56.8196 23.8149 56.8325 23.0061 56.7896 22.3328C56.7796 21.5782 56.8468 20.1903 56.4967 19.5826C55.8908 19.1646 50.6723 19.0919 50.4908 19.5655C50.025 20.7723 50.3365 23.2172 50.2208 24.6408C48.3488 24.6237 46.3326 24.6465 44.4792 24.5666C44.5221 21.795 44.5335 19.0149 44.6579 16.2461C44.7293 14.6499 44.4621 12.8284 45.7353 11.6059C46.6327 10.7443 48.4617 10.9911 49.6792 10.9925L54.6977 11.0068L69.3858 11.0439L88.3122 11.1009C91.4974 11.1081 94.7182 11.0867 97.9019 11.1609C98.8236 11.1823 99.5338 11.5645 100.147 12.2549C100.591 12.7585 100.897 13.369 101.034 14.0266C101.331 15.3732 101.184 18.4072 101.156 19.8665C101.136 21.4812 101.127 23.0945 101.131 24.7092L92.2761 24.7064V24.7107Z" fill="#EBEBEB"></path>
<path d="M58.7913 24.5084L56.8236 24.5012C56.8193 23.818 56.8322 23.0092 56.7893 22.3359C57.1394 22.4015 58.3669 22.4629 58.7227 22.3815L58.8313 22.1804L58.7913 24.5084Z" fill="#EBEB10"></path>
<path d="M85.2752 24.5678C84.6064 24.5436 83.9448 24.5136 83.2761 24.5251L83.2732 22.5508L83.4118 22.7149L83.4604 22.5637C83.7933 22.3141 84.7936 22.4225 85.2723 22.4367L85.2766 24.5678H85.2752Z" fill="#EBEB10"></path>
<path d="M56.4408 70.5281C59.8917 70.6308 63.304 70.6508 66.7549 70.6465L68.3639 73.8788C68.5997 74.3538 69.0241 75.1512 69.2027 75.6205C68.191 75.6205 67.0593 75.6419 66.0576 75.5891C60.3475 75.4451 54.636 75.3623 48.9231 75.3409C49.2875 74.7047 51.5252 70.6565 51.901 70.4611L51.9439 70.4696C53.4257 70.5466 54.9518 70.4853 56.4394 70.5295L56.4408 70.5281Z" fill="#EBEB10"></path>
<path d="M103.799 9.47718C104.558 10.4158 105.07 11.5284 105.29 12.7138C105.678 14.7764 105.414 18.2299 105.43 20.3966C105.453 23.5976 105.421 26.8271 105.418 30.0309C104.99 30.0879 104.665 30.1307 104.242 30.2277C103.776 30.3604 103.312 30.4987 102.849 30.6471C102.838 25.9641 103.036 21.2225 102.993 16.5295C102.958 12.6924 102.313 9.89941 98.1364 9.04497C98.1364 8.50577 97.9907 7.16063 98.1721 6.80545C98.3508 6.69704 98.4822 6.74269 98.6951 6.76836C100.854 6.99517 102.418 7.76688 103.799 9.47861V9.47718Z" fill="#EBEBEB"></path>
<path d="M46.2327 9.11936C42.556 10.9267 43.079 13.3046 42.9504 16.8464C42.8561 19.4397 42.8347 21.9816 42.8189 24.5778C42.0359 24.5949 41.2528 24.5963 40.4697 24.5849L40.354 24.5007L40.5341 17.4555C40.5955 14.3772 40.2068 10.5287 42.6932 8.23497C43.6534 7.34914 44.6766 6.83848 45.9812 6.70154C46.0769 7.46897 46.1212 8.39473 46.2341 9.11936H46.2327Z" fill="#EBEBEB"></path>
<path d="M104.508 40.6168C103.651 40.4142 103.038 40.1175 102.573 39.3144C101.43 37.3345 101.677 33.8526 103.852 32.6544C104.371 32.3634 104.965 32.2364 105.558 32.2892C109.574 33.0281 109.165 40.9192 104.508 40.6182V40.6168Z" fill="#EBEB10"></path>
<path d="M90.5532 21.9874C90.5289 22.8547 90.516 23.7219 90.5146 24.5892C89.3386 24.6049 88.1611 24.6006 86.9851 24.575V22.4296L86.988 20.8633H90.5589L90.5546 21.986L90.5532 21.9874Z" fill="#EBEB10"></path>
<path d="M90.5527 21.9874C90.477 22.2613 90.5256 22.2827 90.3455 22.3996C89.351 22.498 88.0164 22.4082 86.9861 22.4296V20.8633H90.557L90.5527 21.986V21.9874Z" fill="#EBEBEB"></path>
<path d="M63.9784 22.4283L63.9841 24.4981C62.811 24.4952 61.5921 24.4767 60.4232 24.5009L60.4175 22.4354V20.7693C61.6049 20.7979 62.7938 20.8007 63.9798 20.7793V22.4283H63.9784Z" fill="#EBEB10"></path>
<path d="M63.9788 22.4283C63.8173 22.424 60.2778 22.3484 60.4179 22.4354V20.7693C61.6053 20.7979 62.7942 20.8007 63.9802 20.7793V22.4283H63.9788Z" fill="#EBEBEB"></path>
<path d="M72.8367 22.2L72.8325 24.5009L69.3072 24.5166C69.323 23.4482 69.1772 21.8192 69.3344 20.7993L72.8396 20.8135V22.2H72.8367Z" fill="#EBEB10"></path>
<path d="M72.8364 22.2C72.8178 22.2357 72.7177 22.3726 72.6906 22.3741C71.5774 22.4454 70.4229 22.3769 69.3054 22.4111C69.3283 21.852 69.344 21.3584 69.334 20.7993L72.8392 20.8135V22.2H72.8364Z" fill="#EBEBEB"></path>
<path d="M81.556 22.4368V24.518C80.4286 24.5108 79.2525 24.488 78.1294 24.5365V22.4368L78.1308 20.7906C79.2597 20.8106 80.4214 20.7964 81.5532 20.7964V22.4353L81.556 22.4368Z" fill="#EBEB10"></path>
<path d="M81.556 22.4368C80.5529 22.4168 79.1225 22.3654 78.1279 22.4368L78.1308 20.7906C79.2597 20.8106 80.4214 20.7964 81.5531 20.7964V22.4353L81.556 22.4368Z" fill="#EBEBEB"></path>
<path d="M55.1491 22.4254C55.1348 23.1186 55.1262 23.8104 55.1205 24.5037L51.8325 24.5165L51.8354 22.3797L51.844 20.7906L55.1934 20.8006C55.1848 21.3427 55.1691 21.8833 55.1477 22.4254H55.1491Z" fill="#EBEB10"></path>
<path d="M55.149 22.4254C54.183 22.3326 52.8241 22.3654 51.8367 22.3797L51.8452 20.7906L55.1947 20.8006C55.1861 21.3427 55.1704 21.8833 55.149 22.4254Z" fill="#EBEBEB"></path>
<path d="M100.416 38.5187C100.471 38.8853 100.536 39.2519 100.615 39.6142L100.069 38.8895C99.1703 37.2919 99.1546 35.6829 99.8247 33.9897C100.149 33.1723 100.978 32.0782 101.891 31.9627C100.312 34.091 100.039 35.9368 100.416 38.5172V38.5187Z" fill="#EBEB10"></path>
<path d="M67.6267 24.5081C66.9893 24.5081 66.3249 24.4953 65.6904 24.5096L65.6947 22.4127C66.1806 22.3456 67.1108 22.367 67.6324 22.3656L67.6267 24.5081Z" fill="#EBEB10"></path>
<path d="M76.4116 22.4253V24.5137L74.5439 24.5094V22.4168C75.1641 22.3911 75.7928 22.4125 76.4116 22.4253Z" fill="#EBEB10"></path>
<path d="M110.64 76.3285C110.497 76.327 110.497 76.3426 110.368 76.2987C110.543 76.1512 110.441 76.1966 110.699 76.1937L110.64 76.3285Z" fill="#171819"></path>
<path d="M133.337 18.7437C135.312 21.6993 137.311 25.0044 136.312 28.7003C135.999 29.8614 135.343 30.4392 134.527 31.2594C134.847 32.914 135.082 34.2635 135.109 35.9595C135.262 45.5609 130.539 54.355 120.372 56.118C117.348 56.6416 113.583 56.894 110.712 55.7058C109.916 55.3763 109.686 53.1938 111.161 53.3336C113.887 53.5918 116.287 53.6817 118.983 53.0155C123.169 51.92 126.679 49.699 128.854 45.8847C130.911 42.2787 131.769 37.5799 130.709 33.5231C130.348 32.1423 129.772 31.1738 129.047 29.9741C126.488 29.1796 120.995 27.4508 121.527 23.9032C121.764 22.3155 125.665 23.4524 126.665 23.7648C125.706 22.782 121.399 18.8964 122.998 17.3301C124.592 15.7696 127.948 18.6838 128.889 19.9391C129.16 20.2643 129.396 20.6067 129.667 20.9162C129.083 19.3671 127.534 16.0863 130.593 16.3045C131.922 16.6668 132.612 17.6525 133.34 18.7423L133.337 18.7437Z" fill="#000001"></path>
<path d="M124.329 32.802C124.063 32.849 122.804 32.0217 122.391 31.822C122.005 31.6394 121.605 31.4911 121.193 31.377C121.036 31.3327 120.956 31.1815 120.825 31.0303L120.756 31.3413C120.742 30.9804 120.725 30.6338 120.728 30.2729C121.618 30.9704 122.897 31.6023 123.933 32.0873C124.031 32.3797 124.173 32.5053 124.329 32.802Z" fill="black"></path>
<path d="M118.825 77.9715C118.746 78.6976 117.679 79.669 117.125 80.1269C114.591 82.218 112.049 82.6146 108.887 82.7159C105.563 82.8214 102.212 82.7629 98.8797 82.7216C96.3376 82.7415 93.7898 82.7159 91.2534 82.7187C91.1963 82.7073 91.1377 82.6959 91.0805 82.6845L91.0248 82.713L90.6418 81.9228C94.8215 81.9727 99.0412 81.9613 103.221 81.9299C109.072 81.8885 114.552 82.8357 118.573 77.6833C118.755 77.8403 118.718 77.7761 118.825 77.9729V77.9715Z" fill="black"></path>
<path d="M35.6038 80.8906L46.6152 80.9491C47.5741 80.9591 49.9475 80.9291 50.792 81.0689L50.7235 81.1174L50.5234 81.1602C50.2991 81.5397 49.4446 81.7565 49.0659 81.7023C47.3926 81.4584 45.865 81.5682 44.1946 81.6566C43.0729 81.7165 41.9283 81.611 40.8194 81.591L34.4363 81.4783C32.0728 81.417 29.3292 81.7451 27.1744 80.5968C26.7314 80.36 26.5657 79.9392 26.0355 79.8408C25.8055 79.4171 25.8226 79.8622 25.6611 79.4628L25.804 79.3215C29.2264 81.1716 31.8428 80.8535 35.6023 80.8906H35.6038Z" fill="black"></path>
<path d="M22.9721 76.743C22.602 76.7743 22.4577 76.8671 22.1233 77.0226C21.8632 76.927 22.2605 76.8414 21.949 76.4249C22.0461 76.044 22.1247 75.7915 22.1433 75.3936C22.4077 75.8372 22.682 76.3193 22.9721 76.743Z" fill="black"></path>
</g>
<defs>
<clipPath id="clip0_185_11">
<rect width="140" height="115" fill="white"></rect>
</clipPath>
</defs>
</svg>