<svg width="199" height="142" viewBox="0 0 199 142" fill="none" xmlns="http://www.w3.org/2000/svg">
<path d="M23.2793 82.9243C23.4678 83.3954 24.2999 84.3929 24.6447 84.9882C28.3962 91.488 22.7506 99.6817 16.5901 102.175C13.627 103.375 10.4502 103.184 7.48259 101.877C4.49427 100.573 2.16338 98.1165 1.02093 95.0643C-1.2295 89.1368 0.579577 80.2605 3.16562 74.6249C6.039 68.332 11.3007 63.4433 17.7877 61.0392C21.8081 59.5591 24.4861 59.3224 28.6583 59.3201C28.0399 52.1675 27.3365 45.0219 26.548 37.8855C25.8354 30.8249 23.8953 24.1642 29.049 18.2368C36.3888 9.79716 44.6687 9.75579 54.9095 8.70544C62.3435 7.9079 69.7821 7.16553 77.2276 6.47832L114.602 2.70211C119.17 2.20336 123.74 1.7299 128.312 1.28172C131.67 0.920873 135.196 0.622076 138.619 0.19458C145.963 -0.724767 153.4 1.51155 156.11 9.09156C157.301 12.4196 157.698 17.4806 158.314 21.1557L162.818 48.4258C166.496 52.6801 171.916 53.4776 176.566 50.3174C174.895 47.472 174.127 45.2931 174.966 41.9674C175.672 39.1726 177.43 37.5683 179.796 36.0905C185.731 32.3832 193.77 33.1003 197.344 39.7495C202.741 49.7818 193.958 61.6621 185.177 66.3278C179.063 69.5938 172.92 70.1615 166.296 68.3986C166.82 70.805 167.302 74.0158 167.723 76.4866C168.141 78.9389 169.121 84.0022 168.969 86.2799C168.854 88.0795 168.282 89.8194 167.305 91.334C163.151 97.7005 154.556 99.5622 147.511 100.661C146.403 100.833 145.145 101.056 144.039 101.153C145.603 102.704 147.055 104.366 148.384 106.124C149.163 107.158 149.949 108.404 150.742 109.39C154.147 106.294 157.629 103.784 162.553 103.931C164.608 103.993 166.822 104.901 168.199 106.453C169.371 107.733 170.121 109.939 169.875 111.702C168.613 120.647 161.951 128.908 155.593 134.978C152.092 138.317 146.591 139.722 143.035 135.589C141.279 133.55 140.378 130.723 139.132 128.354C135.229 119.923 130.33 113.01 122.181 108.261C115.749 104.511 114.798 104.814 107.653 105.66L96.8654 106.977C95.0678 107.202 92.5439 107.59 90.7946 107.682C91.7163 120.457 86.319 133.21 71.9705 134.396C69.5154 134.598 66.3133 134.281 64.0031 133.394C61.3987 137.331 59.0035 140.85 53.9348 141.85C51.7051 142.273 49.3995 141.795 47.5237 140.514C46.9261 140.108 46.3353 139.579 45.8411 139.053C45.694 138.871 45.5422 138.715 45.3836 138.542C43.3079 135.447 42.4367 131.677 43.2918 127.968C45.1722 119.818 53.4107 109.473 62.7526 110.937C67.1478 111.624 68.3569 116.076 72.1819 116.262C73.5635 114.086 73.729 112.559 73.7933 109.99C72.4578 110.217 72.3888 110.171 71.0671 110.259L67.8397 110.41C65.0674 110.335 64.4514 110.335 61.5504 110.146C60.0011 110.047 58.1024 110.208 56.6726 110.794C54.5762 111.652 53.0912 111.408 50.9235 111.415C44.671 111.438 38.4783 108.877 36.2463 102.635C35.3958 100.337 34.9659 96.8984 34.5429 94.3724L32.7201 83.685C32.3247 81.2764 31.9776 78.5551 31.4627 76.197C26.5779 75.1742 23.1207 76.8819 20.4473 80.996C20.7461 81.1752 21.946 81.9406 22.2035 81.9521" fill="#EBEBEB"></path>
<path d="M141.815 5.51757C142.035 5.48079 142.258 5.45551 142.484 5.44172C145.541 5.23486 148.522 6.49437 150.168 9.13289C151.419 11.1348 151.531 13.44 151.908 15.6878C152.356 18.285 152.791 20.8821 153.209 23.4839C154.232 29.6274 155.218 35.7756 156.165 41.9306C156.529 44.3669 156.772 47.3731 157.338 49.7519C157.809 51.016 159.117 52.2411 160.034 53.1052C166.675 59.3798 176.486 59.2235 182.591 52.3123C184.074 50.7103 183.702 49.5726 182.127 48.2603C175.265 42.5465 187.117 36.6375 191.342 40.7561C196.409 45.6976 192.248 52.6456 188.425 56.8447C184.545 61.1082 179.339 63.6731 173.555 63.8524C168.732 64.0156 162.181 61.9379 158.643 58.5891C160.023 65.0338 161.046 71.5473 162.243 78.0241C162.418 78.9734 162.593 79.9272 162.82 80.8649C163.252 82.637 163.914 84.3286 163.707 86.1833C163.489 88.1599 162.526 89.6148 161 90.8352C159.174 92.2901 156.393 93.7633 154.08 94.1587C152.796 94.3793 151.469 94.4092 150.193 94.6574C148.846 94.9194 148.826 95.4549 147.256 95.2596C146.003 95.1033 134.783 96.6156 133.367 97.0592L133.215 97.1075C131.53 96.2525 124.023 92.8831 122.984 94.7562C123.246 95.2481 124.101 95.4297 124.625 95.6043C127.358 96.5214 130.222 98.036 132.627 99.6334C137.346 102.718 141.479 106.62 144.828 111.153C145.897 112.61 146.996 114.159 147.835 115.756C148.265 116.575 148.791 118.239 149.52 118.76C149.768 118.94 150.097 118.983 150.327 118.772C151.053 118.098 151.628 116.993 152.242 116.193C154.28 113.532 157.218 110.337 160.563 109.454C161.501 109.206 162.829 109.002 163.691 109.551C164.147 109.84 164.379 110.316 164.459 110.836C164.953 114.079 161.455 119.452 159.609 121.916C157.671 124.504 151.646 132.192 148.437 132.544C147.989 132.592 147.527 132.523 147.166 132.24C146.338 131.597 142.297 122.123 141.288 120.257C138.468 115.037 134.85 109.817 130.172 106.099C126.96 103.545 119.754 99.199 115.756 98.5784C114.57 98.3946 106.642 99.7805 104.727 100.056C97.8473 101.109 90.9465 102.035 84.032 102.833C86.7629 110.314 85.4503 121.633 78.6554 126.595C74.189 129.377 68.4514 129.616 63.7782 127.136C63.1322 126.793 62.3989 126.407 61.7024 126.189C60.9852 126.777 59.5945 129.914 58.8819 131.096C57.6176 133.332 55.5304 135.84 52.9145 136.501C50.4135 137.076 48.8159 134.447 48.5102 132.344C47.5999 126.101 54.3604 117.816 60.1347 116.182C62.707 115.453 64.9988 118.659 67.0308 120.082C70.5662 122.56 74.8625 123.077 77.5037 118.981C80.1748 114.582 79.3289 108.402 78.2416 103.554C75.6326 103.952 70.5938 104.651 68.0836 104.793C67.0032 106.253 66.0562 106.655 64.6884 105.237C62.2127 105.6 59.4313 105.853 56.9257 105.949C52.2892 106.126 46.9769 106.967 43.1772 103.653C40.7382 101.525 40.7015 98.3486 40.182 95.3883C39.7728 92.9106 39.4648 90.4123 39.0625 87.9301L37.235 77.2726C36.9914 75.7786 36.5914 73.7561 36.5155 72.2828C32.1158 69.4581 24.7186 69.8672 20.4912 72.8114C17.2593 75.0615 13.8112 79.6927 13.9376 83.8413C14.2158 84.6526 16.3881 85.2824 17.0225 85.4892C24.9209 88.0473 17.1145 98.9462 11.0666 97.2178C3.93368 95.1791 5.08763 87.367 6.46915 81.7521C7.96101 75.6867 11.4941 70.4326 17.0041 67.4585C24.8404 63.2364 32.8675 64.4845 40.713 67.7022C41.0762 67.8516 41.3175 67.7091 41.6255 67.516C42.1795 66.1876 36.527 63.8225 35.3984 63.5674C35.0421 61.9287 34.9018 60.283 34.5869 58.6558C33.5824 53.4684 33.1226 48.4327 32.6123 43.1924L31.109 29.0069C30.8285 26.5844 31.1825 24.286 32.7755 22.3439C34.8168 19.8548 39.3912 16.7083 42.499 15.8119C44.6208 15.2006 48.5331 14.9753 50.8732 14.7363L68.5801 13.0447L141.819 5.52215L141.815 5.51757Z" fill="black"></path>
<path d="M49.8314 38.1705C49.5785 35.8078 48.9694 33.1417 48.6843 30.7376C48.5326 29.5103 48.2269 28.3013 48.3142 27.0556C48.6613 22.036 53.638 22.3026 57.162 21.9234L67.5751 20.8271C78.5123 19.6043 89.4588 18.446 100.41 17.3496C113.152 16.0648 125.893 14.4744 138.656 13.362C140.63 13.1896 142.869 14.6215 143.465 16.5406C144.487 19.8411 144.938 23.5575 145.478 26.9959C146.055 30.7192 147.014 35.2953 147.416 38.9221C144.515 39.3726 140.559 39.6599 137.543 39.9817C135.398 35.9319 133.042 33.3945 128.592 31.9695C124.946 30.8043 122.218 31.7029 118.526 32.0615C112.793 32.5648 106.979 33.6611 101.247 34.0013C100.722 34.1714 98.9662 34.3231 98.3042 34.392C93.9527 34.9413 89.5921 35.4286 85.2268 35.8584C75.3286 36.7846 65.1844 35.8055 62.1984 47.7501C58.7825 47.9915 54.6679 48.566 51.2106 48.9476L49.8291 38.1705H49.8314Z" fill="#EBEBEB"></path>
<path d="M145.478 26.9982C146.055 30.7215 147.014 35.2976 147.416 38.9244C144.515 39.3749 140.559 39.6622 137.543 39.9839C135.398 35.9342 133.042 33.3968 128.592 31.9718C124.946 30.8066 122.218 31.7052 118.526 32.0638C112.793 32.5671 106.98 33.6634 101.247 34.0036C100.723 34.1737 98.9663 34.3254 98.3043 34.3943C98.5801 33.9806 98.8284 33.6795 98.6836 33.1831C98.2813 32.9211 97.8905 32.9946 97.4032 32.8682L97.3066 32.8429C97.7388 32.7372 98.5916 32.6613 99.0629 32.6039C102.38 32.0615 106.387 31.6708 109.789 31.2547L120.756 30.0136C122.912 29.7654 125.098 29.4436 127.252 29.2345L127.739 29.1517C128.739 29.1448 145.184 27.2188 145.297 27.166C145.37 27.1315 145.419 27.0556 145.478 26.9982Z" fill="#EB10EB"></path>
<path d="M85.2643 34.261C87.6802 34.0035 90.0961 33.7254 92.5075 33.429C93.8798 33.2543 95.9946 32.9026 97.3095 32.8406L97.406 32.8659C97.8934 32.99 98.2841 32.9187 98.6864 33.1807C98.8312 33.6795 98.583 33.9783 98.3071 34.392C93.9557 34.9413 89.595 35.4285 85.2298 35.8583C75.3316 36.7846 65.1874 35.8055 62.2014 47.7501C58.7855 47.9914 54.6708 48.566 51.2136 48.9475L49.832 38.1705C52.9238 37.5591 57.2798 37.2213 60.4957 36.911L60.8083 36.8512C61.9278 36.8121 63.2932 36.6145 64.4058 36.449C65.0587 36.3663 65.7138 36.2927 66.3712 36.2307C72.3846 35.5504 79.1405 34.7896 85.1654 34.2794L85.2666 34.2587L85.2643 34.261Z" fill="#EB10EB"></path>
<path d="M91.6378 24.5734C95.0905 24.3229 98.75 23.7828 102.198 23.3805L125.7 20.6087C128.636 20.2525 131.571 19.9192 134.509 19.6043C135.318 19.5147 136.237 19.2412 137.033 19.2389C137.428 19.2389 137.787 19.3584 138.083 19.6227C138.414 19.9192 138.635 20.3651 138.63 20.8133C138.626 21.1925 138.451 21.512 138.177 21.7671C137.775 22.144 129.879 22.8174 128.631 22.9737L102.637 25.9846C99.8373 26.3339 97.0099 26.8235 94.194 27.0878C93.7159 27.1315 92.2447 27.3199 91.8585 27.2832C87.1324 27.906 82.3465 28.0393 77.6089 28.5427C70.5932 29.2896 63.5891 30.1745 56.5711 30.8939C56.2102 30.9307 55.9413 30.7721 55.6424 30.5997C55.139 29.9677 54.9942 29.7677 55.1137 28.9495C55.7941 28.168 56.5849 28.2921 57.555 28.2347C59.0629 28.1749 61.334 27.8692 62.881 27.69L71.2162 26.7339L91.6401 24.5734H91.6378Z" fill="#EB10EB"></path>
<path d="M148.167 48.3844C148.573 48.3362 148.527 48.2764 148.847 48.4281C148.907 48.6465 148.957 48.8648 149.003 49.0854C149.187 49.991 149.309 50.9655 149.452 51.8826C149.776 53.958 150.086 56.0242 150.396 58.1042C150.714 60.2233 151.077 62.6113 149.242 64.1903C148.58 64.7603 147.695 65.0867 146.84 65.2315C144.509 65.6268 142.155 65.875 139.813 66.1807C134.264 66.9208 128.706 67.5873 123.138 68.1757L96.9285 71.3061L70.6589 74.225C67.0683 74.5927 63.4984 75.0777 59.9009 75.3121C54.8415 75.6408 54.6162 71.5152 54.0829 67.785C53.5864 64.5718 53.1427 61.3495 52.752 58.1203C55.9127 57.7802 60.071 57.4147 63.1536 56.9436C63.3789 57.417 63.6202 57.8859 63.8777 58.3433C66.6269 63.1744 71.7783 66.1715 77.3918 65.7256C81.2306 65.4199 85.1568 64.8476 88.9864 64.3811L108.535 62.0643L122.233 60.5014C124.168 60.2808 126.409 60.1774 128.292 59.7981C133.777 58.6926 137.22 54.6107 138.558 49.4302C141.107 48.9797 145.404 48.6832 148.167 48.3821V48.3844Z" fill="#EB10EB"></path>
<path d="M74.6901 40.9216C80.2621 40.0965 85.4388 43.9647 86.2273 49.5405C87.0157 55.1164 83.1125 60.2693 77.5313 61.0209C72.0006 61.7655 66.9043 57.9089 66.1228 52.3836C65.3412 46.8583 69.1663 41.7399 74.6878 40.9216H74.6901Z" fill="#EBEBEB"></path>
<path d="M77.0437 43.659C78.416 43.9233 79.347 44.3209 80.4825 45.1047C80.2021 45.6953 79.9699 46.2286 79.7171 46.8307C80.1814 47.5938 80.5239 47.9271 81.1745 48.4856C81.7009 48.3408 82.333 48.0718 82.7721 48.5246C83.4709 49.2463 83.3398 50.8437 83.3329 51.786C82.2319 51.9676 81.5469 51.7745 81.094 52.9835L80.7653 53.8453L81.8802 54.9853C82.1859 56.084 79.9171 57.2837 79.0321 57.6239C78.5907 57.0768 78.3999 56.7275 77.8758 56.1552L77.3954 56.2058C75.8851 56.3506 76.1196 56.8056 75.5449 57.9824C75.1358 58.2053 75.2599 58.1341 74.7082 58.0789C73.5657 57.8307 72.7635 57.5526 71.8946 56.7505C73.0003 55.1232 73.0968 54.7831 71.4486 53.5558C70.8993 53.7006 70.2993 53.827 69.7407 53.9534C69.2649 53.1306 68.2925 50.9379 69.4212 50.2921C69.7016 50.1312 70.5476 50.0117 70.9038 49.9519C71.2854 49.2164 71.3797 48.897 71.6279 48.1109C71.2073 47.6949 70.5751 47.2375 70.0993 46.8652C71.1337 45.3965 71.5774 45.0449 73.1819 44.2566C73.5382 44.6588 74.083 45.4379 74.4163 45.8884C76.7242 45.5988 76.0208 45.4632 76.9862 43.7532L77.0437 43.6544V43.659Z" fill="black"></path>
<path d="M124.142 35.5917C129.62 35.0539 134.493 39.0669 135.015 44.5439C135.539 50.0209 131.512 54.8842 126.032 55.3922C120.572 55.8978 115.734 51.8917 115.212 46.4354C114.69 40.9768 118.685 36.1272 124.142 35.5917Z" fill="white"></path>
<path d="M125.873 38.3107C126.776 38.4417 128.613 38.9542 129.16 39.692C129.24 40.0804 128.753 40.9492 128.565 41.3698C128.912 42.0731 129.185 42.4316 129.774 42.935C130.017 42.8936 131.008 42.7143 131.178 42.7419C132.075 42.8913 132.167 45.1598 132.111 45.7275C132.015 46.7227 129.716 46.24 129.675 47.5271C129.647 48.4419 130.475 49.136 131.07 49.6807C130.118 50.8253 129.473 51.4045 128.144 52.0434C127.748 51.501 127.447 51.1172 127.011 50.6092C126.383 50.6529 125.983 50.7287 125.374 50.846C124.946 51.7193 125.185 52.5766 124.1 52.5766C121.804 51.9469 120.749 52.0825 122.011 49.5956C121.485 48.7889 121.289 48.5223 120.45 48.0672L118.846 48.5683C118.462 47.7317 118.177 46.8882 118.05 45.9734C117.91 44.9874 118.402 44.9644 119.144 44.645C121.475 43.6429 120.891 42.5971 119.115 41.4893C119.965 40.1701 120.641 39.6001 122.041 38.9427C122.432 39.3288 122.838 39.9241 123.172 40.3746C125.473 40.2091 124.951 40.1861 125.87 38.3107H125.873Z" fill="black"></path>
<path d="M134.693 71.945C135.546 71.9955 136.233 72.2622 136.872 72.839C138.18 74.0158 142.343 81.6326 143.577 83.6804C144.515 85.2387 145.672 86.7993 146.474 88.4243C146.713 88.9046 146.95 89.4562 146.941 90.0055C146.936 90.348 146.846 90.5526 146.6 90.7824C146.037 90.8467 145.561 90.4353 145.203 90.04C143.895 88.5967 142.948 86.5419 141.957 84.8618C141.019 83.269 136.309 75.3466 135.219 74.7536C134.599 74.418 133.472 74.4341 132.769 74.464C130.102 74.5789 127.36 75.0386 124.705 75.3213C117.998 76.043 111.297 76.829 104.605 77.6794C98.8516 78.3643 93.1002 79.0837 87.3535 79.8422C83.4641 80.3616 79.3057 80.8925 75.4899 81.7406C74.5773 81.9222 72.2096 81.8257 71.9361 82.7726C70.9085 86.2293 70.4373 89.9757 69.573 93.4807C69.1914 95.0321 68.5685 100.909 67.2789 101.343C66.5962 101.153 65.9204 100.001 66.0698 99.445C66.4628 97.9855 66.7962 96.5927 67.1111 95.1125L70.173 80.619C70.612 80.2076 70.9361 79.9134 71.5407 79.8031C76.2231 78.9366 80.9815 78.4149 85.7076 77.8702L104.368 75.6844L125.105 73.0735C128.167 72.6943 131.661 72.1771 134.691 71.945H134.693Z" fill="#EBEBEB"></path>
<path d="M99.7248 49.0671C101.201 48.9981 102.706 48.7338 104.242 48.6534C104.522 50.1266 104.943 51.3792 105.547 52.7559C106.014 53.8132 106.517 54.7141 106.823 55.8334L106.858 55.953C103.633 56.277 99.2121 56.6149 96.1641 57.4929C96.3388 56.2035 96.5502 54.9003 96.6215 53.604C96.6905 52.2802 96.5686 50.7701 96.7043 49.4716L98.1961 49.3061L99.7248 49.0694V49.0671Z" fill="#EBEBEB"></path>
<path d="M93.9574 39.9219C95.1619 39.7679 103.472 38.7221 104.187 39.0301C104.256 39.3703 103.908 40.7861 103.862 41.4089C103.741 43.0431 103.84 44.5393 103.708 46.162C103.003 46.2355 98.2789 46.7549 97.8537 46.8974C97.2744 46.9641 96.6928 47.0261 96.109 47.0813C95.6561 44.5416 95.1297 42.2295 93.9551 39.9196L93.9574 39.9219Z" fill="#EBEBEB"></path>
<path d="M103.711 46.1642C105.276 46.2148 106.702 45.6885 108.228 45.6977C108.826 45.7 109.568 46.6653 109.554 47.1272C109.508 48.6488 105.265 48.5775 104.244 48.6511C102.709 48.7315 101.203 48.9981 99.7272 49.0648L98.1986 49.3015C98.5848 48.9452 98.6905 48.6258 99.1687 48.2236L98.8009 48.3362C98.3434 47.8788 98.4745 47.2513 97.8584 46.8974C98.2837 46.7549 103.007 46.2355 103.713 46.1619L103.711 46.1642Z" fill="#EB10EB"></path>
<path d="M61.0074 51.1425C61.5246 51.0919 61.4625 51.0138 61.8372 51.2183C62.0786 51.786 62.1291 52.8295 62.2624 53.5718C59.2304 53.8913 56.2421 54.3096 53.2055 54.5831C52.9849 54.6199 52.4769 54.7302 52.3205 54.5739C51.8539 54.1097 51.8401 52.8479 51.7344 52.1767C54.3365 51.7354 58.3569 51.3424 61.0051 51.1448L61.0074 51.1425Z" fill="#EB10EB"></path>
<path d="M147.72 42.2018C147.929 42.3696 148.166 44.3301 148.226 44.7484C145.964 45.169 141.452 45.5 139.006 45.7551C138.891 45.7344 138.971 45.7551 138.799 45.6241L138.532 43.2062C140.548 42.8109 145.529 42.4018 147.72 42.2018Z" fill="#EB10EB"></path>
<path d="M155.68 80.642C156.034 80.6466 156.478 80.7248 156.806 80.8558C157.533 81.1477 158.103 81.7292 158.376 82.46C159.029 84.1585 158.344 85.8225 156.611 86.4408C153.269 86.5856 152.248 82.1199 155.682 80.642H155.68Z" fill="#EBEBEB"></path>
<path d="M77.0396 90.9984C77.4028 91.0237 78.1246 91.0559 78.4395 91.1777C81.0692 92.1821 81.683 94.9287 79.0165 96.3353L77.8464 96.4801L77.7361 96.4341C76.1454 95.7721 75.8167 95.2022 75.4121 93.5864C75.7339 92.4349 75.865 91.5363 77.0419 90.9984H77.0396Z" fill="#EBEBEB"></path>
<path d="M56.6752 93.5289C60.3876 93.3842 61.622 97.319 58.5371 98.6589C56.3005 98.9232 55.4086 97.9372 54.9189 95.8917C55.0385 95.5653 55.1626 95.2412 55.2913 94.9172C55.6223 94.1081 55.9005 93.8599 56.6729 93.5312L56.6752 93.5289Z" fill="#EBEBEB"></path>
<path d="M89.1625 87.0775C92.4818 86.7902 93.0588 91.6351 90.0406 92.582C87.0431 92.566 85.9305 88.4266 89.1625 87.0775Z" fill="#EBEBEB"></path>
<path d="M134.251 84.5653C135.286 84.5699 135.771 84.8848 136.575 85.464C137.55 87.3394 136.982 89.0333 134.886 89.6056C131.286 89.5872 131.051 85.7145 134.249 84.5653H134.251Z" fill="#EBEBEB"></path>
<path d="M122.441 84.4435C123.689 84.4435 124.733 85.0871 124.843 86.4155C124.898 87.1349 124.661 87.8474 124.183 88.3898C123.576 89.0839 123.048 89.1552 122.183 89.1965C119.503 88.8725 119.055 86.7166 120.767 84.809C121.294 84.7561 121.919 84.5745 122.443 84.4435H122.441Z" fill="#EBEBEB"></path>
<path d="M96.1114 47.0836C96.693 47.0284 97.2769 46.9663 97.8562 46.8997C98.4722 47.2536 98.3412 47.8811 98.7986 48.3385L99.1664 48.2259C98.686 48.6281 98.5826 48.9475 98.1964 49.3038L96.7045 49.4693C95.1713 49.6669 93.638 49.8416 92.1002 49.9956C89.7624 48.3545 92.1784 47.3846 93.838 47.2766C94.5805 47.2284 95.3483 47.118 96.1114 47.0836Z" fill="#EB10EB"></path>
<path d="M50.0087 90.194C50.0248 89.7275 49.9903 89.1988 50.2064 88.8035C50.6616 90.6468 50.9259 92.651 51.2684 94.5334C51.7856 97.2316 52.3603 99.9207 52.9947 102.596C52.1396 102.198 50.6845 101.203 50.5788 100.371C50.2593 97.8637 49.9191 92.605 50.0087 90.194Z" fill="#EBEBEB"></path>
<path d="M49.8968 87.7072L50.1515 87.6382C50.1469 88.0956 50.1354 88.3553 50.2042 88.8058C49.9886 89.2011 50.0253 89.7297 50.0069 90.1963C49.8785 89.47 49.9014 88.4679 49.8945 87.7095L49.8968 87.7072Z" fill="#CDD5D5"></path>
</svg>