<svg width="161.307" height="166.596" viewBox="0 0 161.307 166.596" fill="none" xmlns="http://www.w3.org/2000/svg">
<g id="Duke">
<path id="Vector" d="M60.5278 4.90641C61.0153 4.48606 61.9263 3.7029 62.4793 3.37366C68.6566 -0.302379 77.7748 -0.676376 84.6729 0.829201C86.7299 1.27832 89.7251 2.10622 91.1587 3.65176C91.4528 3.96822 91.8268 4.55159 92.0666 4.92079C93.7256 5.5585 95.5077 5.97246 97.2002 6.65172C109.801 11.7071 117.535 23.6878 120.525 36.5299C120.796 37.7206 121.018 38.9225 121.19 40.1324C121.305 40.922 121.429 41.7451 121.572 42.5906C121.774 43.7733 123.3 45.2181 123.418 46.0381C124.122 50.9048 124.568 56.3437 124.708 61.2585C124.742 62.4412 123.818 63.4577 123.072 64.113C123.07 64.268 123.07 64.4214 123.072 64.5749C123.08 65.1998 123.135 65.9894 123.199 66.6191C123.655 71.1358 123.551 75.9003 124.392 80.3467C124.577 81.3232 126.215 83.15 126.923 83.8245C129.778 86.5448 133.961 88.2965 137.916 88.223C138.108 86.5672 138.268 85.0936 139.016 83.5704C140.178 81.2017 142.312 79.4005 144.797 78.5246C147.063 77.6296 151.148 77.7623 153.137 79.2678C154.858 80.572 155.027 81.1011 157.228 81.9258C159.359 82.7249 160.807 85.7073 160.756 87.9081C160.725 89.1915 160.665 90.9368 161.12 92.2778L161.155 92.3769C161.331 93.3662 161.317 94.2373 161.294 95.2378C160.176 100.143 156.325 103.26 151.441 104.092C147.651 104.74 144.46 103.889 141.791 101.091C135.97 102.831 130.826 101.899 125.427 99.3582L125.435 100.83C125.691 101.02 126.057 101.27 126.274 101.492C127.472 102.719 127.417 105.142 127.528 106.734C127.673 108.738 127.798 110.743 127.903 112.75C128.095 116.26 128.383 119.778 128.474 123.297C128.518 124.98 128.165 125.832 126.978 127.064C126.382 127.684 125.913 127.931 125.044 128.105C123.062 128.484 120.92 128.49 118.895 128.53C115.166 128.605 111.331 128.819 107.61 128.81C110.707 132.363 113.723 137.52 115.502 141.877C118.267 139.261 121.759 136.553 125.744 136.532C129.452 136.513 132.575 139.664 132.287 143.41C131.902 148.409 126.159 154.297 122.659 157.705C120.441 159.866 116.13 163.216 112.906 163.093C111.192 162.915 109.596 162.204 108.626 160.732C106.616 157.681 105.398 153.626 103.99 150.23C100.8 142.355 96.2077 135.124 90.4363 128.89C88.5008 128.794 86.0922 128.96 84.1215 128.995L68.6438 129.406C67.0088 129.444 65.3658 129.567 63.7403 129.558C63.6796 130.433 63.304 132.342 63.125 133.275C61.7361 140.53 57.6924 146.082 51.627 150.175C51.9131 150.975 52.2103 151.708 52.53 152.493C55.9455 153.244 60.0355 153.951 61.7872 157.473C62.4921 158.921 62.5896 160.59 62.0605 162.111C61.5027 163.698 60.304 164.79 58.8096 165.493C55.3142 167.139 50.2253 166.764 46.6595 165.54C41.39 163.729 37.1849 159.311 34.8467 154.353C33.6 151.71 32.307 147.505 33.3842 144.647C34.9378 140.522 39.4209 139.945 42.9212 138.318C46.9121 136.462 49.1065 133.891 50.5881 129.833C49.7074 129.943 48.2642 129.914 47.3036 129.943L41.5626 130.138C39.6143 130.194 36.3906 130.462 34.4903 130.283C33.7534 130.215 33.0342 130.015 32.3661 129.695C29.3054 128.252 29.5724 125.741 29.4413 122.902L29.192 117.185C28.7524 109.049 28.3673 100.91 28.038 92.7685C28.0076 91.8862 27.8878 86.0525 27.7056 85.5411C27.3651 85.5203 26.9784 85.8208 26.7003 86.0269C23.4893 88.3972 20.8985 91.4883 19.7062 95.3497C19.2715 96.7578 19.0733 98.1627 18.8399 99.6011C21.2629 101.15 22.8196 102.384 24.3508 104.943C25.7717 107.319 26.2128 110.444 25.5719 113.1C24.9741 115.573 23.2416 116.396 21.5202 117.841C20.5309 118.672 20.6827 119.308 19.0973 120.107C16.588 121.374 15.2326 121.202 12.6578 120.468C9.41968 121.426 7.57367 120.459 5.00684 118.603C3.78416 117.719 2.82679 117.556 1.78152 116.196C-0.988293 112.586 -0.203539 107.063 1.92377 103.343C2.53591 102.28 3.73142 101.003 4.04308 99.8185C4.3947 98.4759 4.50978 96.8329 4.70956 95.4328C5.05959 92.9683 5.73566 90.5629 6.7202 88.2773C9.79688 81.002 15.1943 75.7996 22.1979 72.2993C23.5804 71.6089 25.1084 71.0511 26.55 70.4661C26.3742 64.5797 26.045 58.7907 25.7269 52.9138C25.5495 49.6534 25.2362 45.9006 25.3257 42.6849C25.5894 34.4825 28.3784 26.5615 33.3107 20.0021C34.9809 17.7597 36.8973 15.714 39.0246 13.8999C45.6334 8.18927 52.0649 6.16745 60.5294 4.908L60.5278 4.90641ZM61.9646 7.51799C51.2738 8.69752 43.0314 12.1018 36.1621 20.7261C31.2841 26.7996 28.444 34.2556 28.0428 42.036C27.8894 45.2997 28.1243 48.1686 28.3033 51.3939L28.9666 64.1897C29.0929 66.5711 29.3438 69.7741 29.3198 72.1076C27.2628 73.1081 25.0764 73.8417 23.0386 74.8534C16.1308 78.2801 10.9556 83.6903 8.49588 91.0727C7.38508 94.4067 7.16292 97.3459 6.51242 100.752C6.28706 101.936 4.96369 103.381 4.38192 104.455C3.11448 106.55 2.46878 108.964 2.74208 111.356C3.05854 114.133 3.89924 114.997 6.28387 116.151C6.95195 116.474 8.05795 117.857 9.06487 117.98C10.644 118.49 11.4847 118.224 12.9055 117.654C15.8048 119.217 18.1894 118.368 19.7158 115.544C21.012 115.023 22.2842 114.208 22.7909 112.865C24.3652 108.705 21.8447 104.624 18.3924 102.35C17.7451 101.923 16.8085 101.366 16.2699 100.901C16.2347 95.2985 18.0248 90.8266 21.939 86.711C23.7802 84.7771 27.5665 82.1607 30.2069 81.5102C30.5233 90.809 31.0332 100.317 31.4551 109.626L31.9666 120.476C32.0449 122.033 32.0832 123.62 32.1903 125.167C32.2271 125.691 32.3358 126.582 32.7162 126.919C33.0886 127.267 33.7934 127.584 34.3017 127.63C35.9511 127.785 37.6724 127.696 39.3314 127.646C43.8753 127.51 48.4208 127.341 52.9647 127.235C53.1693 127.231 53.7639 127.299 53.7335 127.573C53.3643 130.931 51.5918 134.629 49.2647 137.042C47.5881 138.78 45.9419 139.811 43.8146 140.808C40.7923 142.256 35.3613 142.806 35.609 147.273C35.8552 151.713 38.6074 156.604 41.8104 159.568C45.1843 162.691 49.1257 164.079 53.6808 163.919C55.3909 163.858 57.6637 163.476 58.8911 162.21C59.4457 161.645 59.7446 160.874 59.719 160.083C59.6232 155.894 53.7431 155.448 50.6856 154.981C50.3611 154.042 48.3905 149.745 48.6078 149.156C48.846 148.51 50.5977 147.677 51.1619 147.276C56.1821 143.706 59.4473 138.473 60.5597 132.425C60.889 130.628 60.9993 128.819 61.1064 127C62.7798 126.844 64.4611 126.765 66.1425 126.769C68.0509 126.751 69.9448 126.647 71.85 126.601L83.2105 126.339C85.771 126.26 88.7406 126.11 91.2866 126.126C92.3191 127.015 93.9302 128.845 94.83 129.914C99.4842 135.442 103.28 141.639 106.09 148.297C106.747 149.894 107.388 151.497 108.013 153.108C108.74 155.01 110.436 160.67 113.199 160.395C118.187 159.898 130.035 147.524 129.663 142.804C129.581 141.725 129.068 140.725 128.24 140.028C124.732 137.063 118.761 142.344 116.296 144.618C115.783 145.091 115.079 145.721 114.516 146.114C113.754 144.517 113.148 142.913 112.409 141.335C110.901 138.116 109.087 135.051 106.991 132.179C106.251 131.169 105.47 130.191 104.648 129.246C103.822 128.311 102.948 127.43 102.188 126.441C109.443 125.806 116.923 126.312 124.192 125.623C125.333 125.514 125.873 124.555 125.862 123.468C125.563 117.371 125.175 111.261 124.756 105.168C124.646 103.562 124.225 103.143 122.968 102.296C122.717 100.114 122.45 96.5324 122.463 94.3779C128.987 99.3885 135.234 100.498 143.029 98.0204C143.498 99.0673 143.99 99.9431 145.032 100.55C149.435 103.119 156.578 100.908 158.339 95.9842C158.572 95.3433 158.691 94.6656 158.689 93.9848C158.68 92.9539 158.109 91.7871 158.12 91.0727C158.173 87.6044 158.379 83.5576 153.412 83.8037C152.934 82.5379 152.251 81.6764 150.982 81.1138C149.223 80.3307 147.142 80.441 145.371 81.1298C143.552 81.8379 142.12 83.0733 141.34 84.8778C140.983 85.7025 140.792 86.5911 140.68 87.4798C140.592 88.175 140.582 89.7989 140.328 90.3311C140.243 90.5069 140.028 90.646 139.849 90.7147C139.221 90.9576 138.362 90.8649 137.701 90.8362C134.825 90.7099 132.281 90.1729 129.692 88.8863C126.498 87.2992 122.993 84.4958 121.815 80.994C121.604 80.3627 121.526 79.6562 121.452 78.9961C121.272 77.3915 120.172 63.3346 120.417 62.8695C120.812 62.1167 121.793 62.0912 122.052 61.1482C122.336 60.1173 121.155 48.3524 120.788 46.8276C120.533 45.7727 119.84 45.2997 119.023 44.6747C118.737 41.9704 118.352 38.825 117.695 36.1831C115.617 27.8145 111.153 19.4491 104.346 13.991C99.5018 10.1072 95.781 8.69272 89.8961 7.28944C89.7571 6.40879 89.5365 5.62083 88.7422 5.0998C85.8525 3.20104 78.5531 2.4035 75.2463 2.688C71.5847 2.9677 63.8138 4.01936 61.9598 7.52598L61.9646 7.51799Z" fill="var(--fill-0, #EBEBEB)"></path>
<path id="Vector_2" d="M75.2513 2.68158C78.5581 2.39868 85.8558 3.19463 88.7471 5.09338C89.5415 5.61442 89.762 6.40397 89.9011 7.28302C95.7875 8.6863 99.5083 10.1008 104.351 13.9846C111.158 19.4427 115.622 27.8081 117.7 36.1767C118.357 38.8186 118.742 41.964 119.028 44.6683C119.845 45.2916 120.538 45.7663 120.793 46.8212C121.16 48.3459 122.341 60.1109 122.057 61.1417C121.798 62.0863 120.817 62.1103 120.422 62.8631C120.177 63.3298 121.277 77.385 121.457 78.9897C121.531 79.6498 121.609 80.3562 121.82 80.9875C122.998 84.4894 126.503 87.2927 129.697 88.8798C132.286 90.1664 134.83 90.7019 137.706 90.8297C138.369 90.8601 139.226 90.9512 139.854 90.7083C140.033 90.6395 140.248 90.5005 140.333 90.3247C140.587 89.7925 140.597 88.1686 140.685 87.4734C140.795 86.5847 140.988 85.6961 141.345 84.8714C142.123 83.0669 143.557 81.8314 145.376 81.1234C147.147 80.4345 149.228 80.3243 150.987 81.1074C152.258 81.6716 152.939 82.5315 153.417 83.7973C158.384 83.5512 158.178 87.5996 158.125 91.0663C158.116 91.7807 158.685 92.9475 158.694 93.9783C158.696 94.6608 158.577 95.3385 158.344 95.9778C156.583 100.902 149.442 103.112 145.037 100.544C143.995 99.9367 143.502 99.0609 143.034 98.014C135.241 100.491 128.993 99.3821 122.468 94.3715C122.455 96.526 122.723 100.108 122.973 102.289C124.229 103.136 124.651 103.555 124.761 105.161C125.18 111.254 125.568 117.364 125.867 123.462C125.878 124.549 125.338 125.509 124.197 125.616C116.928 126.305 109.448 125.798 102.193 126.435C102.953 127.424 103.827 128.305 104.653 129.24C105.475 130.184 106.256 131.162 106.996 132.172C109.092 135.044 110.906 138.11 112.414 141.329C113.154 142.906 113.759 144.511 114.521 146.108C115.084 145.715 115.788 145.085 116.301 144.612C118.766 142.337 124.737 137.057 128.245 140.022C129.073 140.718 129.585 141.719 129.668 142.798C130.04 147.517 118.192 159.891 113.204 160.388C110.439 160.663 108.745 155.004 108.018 153.102C107.394 151.492 106.752 149.888 106.095 148.291C103.285 141.633 99.4892 135.436 94.835 129.908C93.9351 128.84 92.3241 127.008 91.2916 126.12C88.7471 126.104 85.7759 126.254 83.2155 126.332L71.8549 126.594C69.9498 126.639 68.0542 126.745 66.1475 126.762C64.4661 126.759 62.7847 126.837 61.1113 126.994C61.0027 128.813 60.894 130.622 60.5647 132.419C59.4539 138.465 56.1886 143.699 51.1669 147.27C50.6027 147.671 48.851 148.504 48.6128 149.149C48.3938 149.741 50.3661 154.037 50.6906 154.975C53.7465 155.442 59.6281 155.889 59.724 160.077C59.7496 160.869 59.4507 161.638 58.8961 162.204C57.6686 163.47 55.3959 163.852 53.6857 163.913C49.1307 164.074 45.1893 162.685 41.8153 159.562C38.6124 156.597 35.8602 151.706 35.614 147.266C35.3663 142.799 40.7972 142.25 43.8196 140.801C45.9469 139.806 47.5931 138.773 49.2697 137.036C51.5968 134.624 53.3693 130.926 53.7385 127.566C53.7689 127.293 53.1743 127.224 52.9697 127.229C48.4258 127.334 43.8803 127.504 39.3364 127.64C37.6774 127.689 35.9561 127.777 34.3066 127.624C33.7984 127.577 33.0935 127.261 32.7211 126.912C32.3408 126.574 32.2321 125.685 32.1953 125.161C32.0882 123.614 32.0499 122.028 31.9716 120.47L31.4601 109.619C31.0382 100.311 30.5283 90.8026 30.2119 81.5038C27.5715 82.1559 23.7852 84.7707 21.944 86.7046C18.0282 90.8201 16.2397 95.2937 16.2749 100.894C16.8119 101.359 17.7501 101.919 18.3974 102.344C21.8497 104.62 24.3702 108.698 22.7958 112.859C22.2876 114.201 21.017 115.018 19.7208 115.538C18.1944 118.362 15.8114 119.21 12.9105 117.647C11.4896 118.218 10.6489 118.483 9.06985 117.973C8.06293 117.852 6.95853 116.469 6.28885 116.145C3.90422 114.991 3.06352 114.126 2.74707 111.35C2.47376 108.957 3.11946 106.544 4.3869 104.449C4.96707 103.373 6.29045 101.93 6.5174 100.745C7.1679 97.3395 7.39006 94.4003 8.50086 91.0663C10.9606 83.6854 16.1358 78.2737 23.0436 74.847C25.083 73.8353 27.2694 73.1017 29.3248 72.1011C29.3504 69.7676 29.0979 66.5647 28.9716 64.1833L28.3083 51.3875C28.1277 48.1621 27.8944 45.2932 28.0478 42.0296C28.449 34.2491 31.2907 26.7948 36.167 20.7197C43.0364 12.0954 51.2787 8.6895 61.9696 7.51157C63.822 4.00495 71.5928 2.95488 75.2561 2.67359L75.2513 2.68158ZM52.9793 45.175C53.8168 45.1478 55.3304 45.1925 56.0256 44.8361C56.4012 44.4142 56.4348 43.0061 56.4811 42.4036C57.1716 33.4948 62.0831 24.9088 70.0169 20.5567C70.7362 20.1619 71.4857 19.8263 72.1858 19.3932L72.2737 19.3372C72.0324 18.1018 71.6152 17.2211 71.1373 16.0624C70.8816 15.3287 70.0425 13.8328 69.5918 13.1759C68.7591 11.7822 67.4933 10.2095 66.0788 9.38315C64.8689 9.82428 63.4592 10.6058 62.3452 11.2515C51.779 17.3745 46.1531 29.8027 45.9804 41.7099C45.9693 42.5122 45.7919 44.2336 46.1307 44.916C46.8323 45.1734 48.7694 45.0167 49.6853 45.1078C50.7897 45.2405 51.8717 45.2133 52.9793 45.175ZM48.6144 62.7912L47.4285 62.8183C47.4077 64.9409 47.6506 67.7107 47.7881 69.8603C48.0262 73.4389 48.2452 77.0174 48.445 80.5992L49.364 95.738C49.5142 98.0012 49.6245 100.701 49.8818 102.919C50.8312 102.916 51.9948 102.94 52.9266 102.898C54.2643 102.924 57.4209 102.906 58.6164 102.748C59.3085 102.745 59.8519 102.727 60.5408 102.675C60.6031 101.391 60.4049 98.8147 60.3314 97.4642L59.8007 87.8873L58.4694 62.6473C57.5903 62.6281 56.5834 62.6921 55.6964 62.7288H51.3459C50.6682 62.7256 49.2601 62.6905 48.6128 62.7928L48.6144 62.7912ZM114.136 62.5147C113.154 62.5195 109.477 62.4731 108.689 62.6074C108.262 62.6202 108.221 62.553 107.906 62.74C107.771 63.5967 107.97 66.0309 108.027 66.9818L108.548 75.4048L109.518 93.0769C109.616 95.0476 109.731 97.0183 109.862 98.9873C109.926 100.013 109.947 101.223 110.111 102.219C110.378 102.547 112.458 102.368 112.932 102.355C114.157 102.369 115.379 102.347 116.602 102.291C117.777 102.246 118.843 102.216 120.019 102.128C120.07 100.447 119.816 97.3092 119.711 95.5798C119.444 91.3124 119.154 87.0466 118.843 82.7824L117.973 69.245C117.836 67.1161 117.735 64.5525 117.503 62.4603C116.469 62.4012 115.171 62.4603 114.139 62.5163L114.136 62.5147ZM88.9693 13.7209C88.7791 14.6415 88.6049 15.4582 88.4882 16.3948L87.8841 19.39C89.4919 20.1475 90.94 20.7917 92.4695 21.7139C97.9436 24.9743 102.114 30.0393 104.263 36.0376C105.62 39.7856 105.539 41.4222 106.168 45.0583C106.769 45.0551 107.511 45.0711 108.101 45.0423C109.384 45.0423 111.487 44.9768 112.701 45.0519C113.488 45.0455 114.943 45.0391 115.681 44.8953C116.135 44.3918 115.645 41.7994 115.561 41.0706C114.115 28.4298 106.175 16.0304 94.087 11.2499C92.6246 10.6714 91.1909 10.3341 89.6693 9.96812L88.9677 13.7193L88.9693 13.7209Z" fill="var(--fill-0, black)"></path>
<path id="Vector_3" d="M93.0353 73.3909C95.6213 73.2982 99.6537 73.2631 102.229 73.3702C102.898 74.0335 103.063 74.8182 103.128 75.7372C103.434 79.9487 103.641 84.1617 103.942 88.3748L104.436 95.8771C104.543 97.4242 104.767 99.2559 104.695 100.79C104.388 107.46 101.055 113.202 94.8125 115.91C89.014 118.424 84.379 118.064 78.6172 115.884C76.3764 114.809 73.7632 113.17 72.0899 111.353C69.7915 108.889 68.0878 105.93 67.1128 102.703C66.2194 99.7306 66.0995 95.7508 65.9061 92.591C65.7047 89.508 65.5225 86.4233 65.3627 83.3386C65.246 80.9939 64.9232 77.3834 65.0111 75.1315C65.3579 74.4906 65.5177 74.3243 66.1251 73.9248C69.6269 73.6722 73.2086 73.7554 76.7137 73.7026L93.0353 73.3878V73.3909Z" fill="var(--fill-0, #EBEBEB)"></path>
<path id="Vector_4" d="M90.4621 99.6442C91.4866 100.677 94.0422 103.992 95.0619 105.24C93.9623 106.952 92.8515 108.657 91.7295 110.354C91.0503 109.86 87.8585 105.595 87.1025 104.637C88.2229 103.045 89.3705 101.268 90.4605 99.6442H90.4621Z" fill="var(--fill-0, black)"></path>
<path id="Vector_5" d="M86.3833 105.767C86.8068 106.184 87.7146 107.353 88.1142 107.853C89.1099 109.082 90.0913 110.326 91.0566 111.579C90.7386 112.165 90.5468 112.53 90.1088 113.036C89.054 113.394 88.7551 113.445 87.6427 113.461C86.3689 113.465 85.549 113.447 84.2975 113.236C83.8132 112.51 83.2778 111.793 82.7648 111.085C83.5335 110.115 85.8255 106.811 86.3849 105.767H86.3833Z" fill="var(--fill-0, black)"></path>
<path id="Vector_6" d="M77.8788 94.5697C78.8186 95.5399 80.5863 98.022 81.4765 99.1983C80.2666 100.942 79.0759 102.699 77.906 104.468C77.6982 104.244 77.0909 103.41 76.8623 103.117L74.3243 99.8728C75.4654 98.0971 76.7137 96.3534 77.8788 94.5697Z" fill="var(--fill-0, black)"></path>
<path id="Vector_7" d="M93.9639 94.3619C94.3251 94.5617 97.966 99.1711 98.4838 99.7993L95.746 104.079C94.747 103.143 92.3704 99.9447 91.1925 98.6389C92.0412 97.2117 93.0721 95.8084 93.9639 94.3619Z" fill="var(--fill-0, black)"></path>
<path id="Vector_8" d="M73.6386 89.1164C74.3211 89.7733 76.4484 92.6805 77.1197 93.5676C76.0616 94.9629 74.5193 97.2788 73.5779 98.762C73.4356 98.6981 70.5316 94.8814 70.1544 94.4131C71.0031 92.7637 72.6173 90.8106 73.6386 89.1148V89.1164Z" fill="var(--fill-0, black)"></path>
<path id="Vector_9" d="M82.2086 100.287C82.736 100.768 84.972 103.848 85.6609 104.706C84.4669 106.45 83.2858 108.2 82.1143 109.958C80.9523 108.473 79.816 106.968 78.7084 105.441C79.8943 103.736 81.061 102.018 82.2086 100.288V100.287Z" fill="var(--fill-0, black)"></path>
<path id="Vector_10" d="M97.5712 88.9198C97.9004 89.2107 100.419 92.3976 100.833 92.9235C100.937 96.4157 101.049 95.6581 99.1519 98.6038C99.0017 98.5702 98.8722 98.3448 98.7459 98.1866C97.4162 96.5068 96.056 94.8494 94.6687 93.216C95.6708 91.8079 96.6378 90.3742 97.5712 88.9198Z" fill="var(--fill-0, black)"></path>
<path id="Vector_11" d="M86.1291 94.4594C86.4983 94.6768 89.1835 98.0987 89.6358 98.6597C88.5266 100.293 87.4317 101.935 86.3497 103.586C86.1579 103.413 85.3092 102.281 85.111 102.019C84.387 101.064 83.6486 100.116 82.8942 99.1823C83.7237 98.217 85.3668 95.6118 86.1291 94.461V94.4594Z" fill="var(--fill-0, black)"></path>
<path id="Vector_12" d="M81.7419 89.0173C82.9214 90.3023 84.0945 92.0396 85.37 93.4413C84.3263 94.9821 83.2459 96.5148 82.183 98.0444C81.7179 97.6895 79.2134 94.2437 78.6588 93.5404L81.7419 89.0173Z" fill="var(--fill-0, black)"></path>
<path id="Vector_13" d="M77.4665 83.6663C77.8868 83.946 80.3961 87.3311 80.9699 88.0376C79.9486 89.4824 78.8826 90.956 77.9044 92.4264C77.5176 92.1227 74.8661 88.6976 74.3866 88.0983C75.3775 86.6582 76.5459 85.1239 77.4665 83.6663Z" fill="var(--fill-0, black)"></path>
<path id="Vector_14" d="M85.4403 83.6551C85.7664 83.9172 88.549 87.5149 88.9709 88.0535L86.0077 92.3753C84.996 91.0024 83.5895 89.3561 82.4963 88.0184C83.2427 86.727 84.5613 84.9401 85.4403 83.6551Z" fill="var(--fill-0, black)"></path>
<path id="Vector_15" d="M73.3349 78.2945C73.6961 78.6221 76.2758 82.0424 76.7345 82.6322C75.6812 84.0562 74.6535 85.5922 73.645 87.053C72.6077 85.8 71.4042 84.069 70.3318 82.7153C71.3163 81.2305 72.3168 79.7569 73.3349 78.2945Z" fill="var(--fill-0, black)"></path>
<path id="Vector_16" d="M81.2097 78.3792C81.6892 78.7803 84.2144 82.0888 84.6364 82.7073C83.6423 84.0562 82.6833 85.4995 81.6908 86.8692C81.304 86.5991 78.8394 83.3866 78.2545 82.7041C78.9785 81.4734 80.361 79.5986 81.2097 78.3792Z" fill="var(--fill-0, black)"></path>
<path id="Vector_17" d="M89.7621 89.0189C90.0609 89.2746 92.834 92.8068 93.2079 93.2735C92.3705 94.5777 91.2437 96.3374 90.3215 97.5537C89.1739 96.128 88.0056 94.7247 86.882 93.2799C87.8281 91.9869 88.859 90.371 89.7605 89.0189H89.7621Z" fill="var(--fill-0, black)"></path>
<path id="Vector_18" d="M88.9869 78.3888C89.7397 79.1415 91.7887 81.7899 92.4903 82.7089C91.5537 83.946 90.6283 85.5538 89.6534 86.8788C88.4882 85.442 87.2735 84.0163 86.1307 82.5651C86.9555 81.5278 88.2181 79.5379 88.9869 78.3888Z" fill="var(--fill-0, black)"></path>
<path id="Vector_19" d="M93.3421 83.6647C93.7225 84.0147 96.2734 87.2352 96.8008 87.8857C95.8482 89.3114 94.8829 90.7274 93.9063 92.1355C93.7385 92.0492 90.8808 88.4291 90.4908 87.9544C91.3155 86.8372 92.5654 84.8602 93.3421 83.6647Z" fill="var(--fill-0, black)"></path>
<path id="Vector_20" d="M96.82 78.4751C97.4737 79.0872 99.7928 81.9657 100.117 82.7233C99.3629 83.6822 98.153 85.752 97.4641 86.8692C96.9447 86.0509 94.7519 83.4233 94.0582 82.6593C94.9165 81.2609 95.901 79.8432 96.82 78.4767V78.4751Z" fill="var(--fill-0, black)"></path>
<path id="Vector_21" d="M73.6035 100.854C74.7814 102.446 75.9769 104.025 77.1868 105.593C76.5443 106.523 75.913 107.463 75.2944 108.409L75.2161 108.425C74.2556 107.792 72.3728 104.698 71.8054 103.643C72.3952 102.759 73.0872 101.77 73.6035 100.853V100.854Z" fill="var(--fill-0, black)"></path>
<path id="Vector_22" d="M69.2498 83.4057C69.571 83.6838 72.5406 87.6556 72.8651 88.1255L71.1789 90.59C70.7042 91.2213 70.2551 91.8862 69.806 92.5367C69.8124 90.6507 69.5502 85.3221 69.2482 83.4057H69.2498Z" fill="var(--fill-0, black)"></path>
<path id="Vector_23" d="M95.8786 106.2C96.5835 106.739 97.0981 108.011 97.8797 108.277L97.9053 108.417C97.568 109.584 95.2058 111.19 94.1525 111.79C93.8984 111.943 93.3757 112.188 93.0928 112.331L92.4599 111.483C93.5979 109.814 94.7694 107.912 95.8802 106.2H95.8786Z" fill="var(--fill-0, black)"></path>
<path id="Vector_24" d="M99.3053 100.763C99.8583 101.284 100.269 101.796 100.726 102.401C100.275 104.209 99.6713 105.943 98.5989 107.484L98.4646 107.378C97.8765 106.605 97.2787 105.782 96.617 105.075C97.5216 103.643 98.4167 102.206 99.3069 100.763H99.3053Z" fill="var(--fill-0, black)"></path>
<path id="Vector_25" d="M77.9635 106.582C79.1047 108.008 80.2379 109.531 81.3503 110.986C81.1393 111.388 80.8436 111.849 80.6023 112.242L79.9086 111.861C78.288 111.077 77.4952 110.501 76.0952 109.333C76.6753 108.596 77.4233 107.399 77.9635 106.582Z" fill="var(--fill-0, black)"></path>
<path id="Vector_26" d="M93.9383 77.6408C94.5536 77.604 95.2792 77.6072 95.9026 77.5944C94.9979 78.905 94.0965 80.3019 93.2095 81.6317L92.738 81.0163C91.8781 79.9199 90.9943 78.8395 90.0912 77.7782C91.1557 77.6551 92.8035 77.6807 93.9383 77.6408Z" fill="var(--fill-0, black)"></path>
<path id="Vector_27" d="M84.8265 77.8214C85.8287 77.7622 86.9458 77.7814 87.9592 77.7798L85.4099 81.4894L85.314 81.539C85.0583 81.3344 82.8303 78.4639 82.3988 77.9221C83.2091 77.8821 84.0178 77.8485 84.8281 77.8214H84.8265Z" fill="var(--fill-0, black)"></path>
<path id="Vector_28" d="M79.7632 77.9141L79.8831 77.9237C79.8719 78.2273 77.791 81.1714 77.4553 81.6636C77.1628 81.2033 76.792 80.7446 76.4564 80.3083C75.8554 79.5219 75.2369 78.7468 74.6056 77.9828C76.3253 77.946 78.0387 78.0052 79.7632 77.9141Z" fill="var(--fill-0, black)"></path>
<path id="Vector_29" d="M100.256 84.686C100.44 84.9065 100.648 90.1712 100.675 90.9049L99.7257 89.671C99.2862 89.11 98.7699 88.4036 98.2633 87.9241C98.9362 86.834 99.6458 85.8207 100.258 84.686H100.256Z" fill="var(--fill-0, black)"></path>
<path id="Vector_30" d="M70.1527 96.5132C70.5299 96.8073 72.3648 99.3262 72.7883 99.8904L71.8741 101.223L71.1852 102.257C70.3078 100.007 70.5171 98.8067 70.1527 96.5116V96.5132Z" fill="var(--fill-0, black)"></path>
<path id="Vector_31" d="M71.8406 78.0211C71.9141 78.0307 71.863 78.018 71.9716 78.1075C71.4234 78.8091 69.6557 81.6029 69.2849 81.9225L68.9381 78.1602C69.8923 78.1346 70.8832 78.0707 71.8406 78.0227V78.0211Z" fill="var(--fill-0, black)"></path>
<path id="Vector_32" d="M97.827 77.6264C98.364 77.5768 99.2606 77.5976 99.8264 77.596C99.8312 78.3616 100.012 79.6402 100.103 80.4377C99.8088 80.2028 97.958 77.9572 97.827 77.628V77.6264Z" fill="var(--fill-0, black)"></path>
<path id="Vector_33" d="M101.065 97.7103C101.249 98.3273 101.196 100.137 101.015 100.809C100.805 100.779 100.669 100.515 100.486 100.293L99.9159 99.7002C100.357 99.0017 100.709 98.4615 101.063 97.7103H101.065Z" fill="var(--fill-0, black)"></path>
<path id="Vector_34" d="M57.2051 11.2707C57.1987 11.3171 54.8652 13.2254 54.5088 13.5594C48.429 19.2557 44.8968 27.3238 43.5734 35.451C43.0715 38.5373 43.0268 41.9017 42.9021 45.0087C42.485 45.1686 41.8696 45.3859 41.5132 45.6097C41.1664 45.8271 40.8643 46.3641 40.8372 46.7764C40.6997 48.8798 41.152 51.2692 41.16 53.3757C41.1696 55.8291 40.8803 58.2521 40.9842 60.7022C41.0018 61.1226 41.0945 61.7011 41.371 62.0336C41.916 62.6889 43.6789 62.6937 44.55 62.7608C44.729 64.805 44.8089 67.2136 44.9367 69.285L45.9676 85.9278L46.5973 96.2351C46.762 98.5958 47.1136 101.877 47.0545 104.183C46.8003 104.569 46.3512 105.219 46.356 105.67C46.4247 112.028 47.3805 118.611 47.4492 124.948C44.2862 125.236 41.0146 125.18 37.8372 125.3C36.875 125.337 35.8601 125.351 34.9012 125.316C34.6902 123.898 34.6678 121.977 34.6087 120.499L33.394 93.705C33.2118 89.7397 32.7243 84.0163 32.8042 80.182C35.0178 79.4228 38.5852 79.1719 39.9357 77.0957C40.9442 75.4255 40.8819 71.9077 38.98 70.8944C37.0924 69.8875 34.0061 70.8992 32.0259 71.4043L31.2411 54.6591C30.8351 46.5527 29.865 40.4089 32.6684 32.5981C33.4915 30.2566 34.6007 28.0255 35.9704 25.9573C40.3497 19.4043 45.7311 14.6271 53.3485 12.161C54.6047 11.755 55.9073 11.5264 57.2035 11.2691L57.2051 11.2707Z" fill="var(--fill-0, #10EB10)"></path>
<path id="Vector_35" d="M79.036 22.366C86.0764 21.6995 93.2959 26.3776 97.445 31.775C100.627 35.9161 101.624 40.0013 101.943 45.0615C95.9266 45.2181 89.9091 45.282 83.89 45.2549L60.9803 45.3396C60.8716 44.379 60.9627 43.3066 61.041 42.3396C61.3975 37.4425 63.317 32.7883 66.5183 29.0659C69.635 25.4219 74.2076 22.7416 79.036 22.3692V22.366Z" fill="var(--fill-0, #10EB10)"></path>
<path id="Vector_36" d="M49.6837 45.1078C48.7679 45.0167 46.8307 45.1718 46.1291 44.9161C45.7903 44.2336 45.9677 42.5122 45.9789 41.7099C46.1531 29.8027 51.779 17.3745 62.3436 11.2515C63.4576 10.6058 64.8673 9.82269 66.0772 9.38316C67.4917 10.2095 68.7575 11.7838 69.5902 13.1759C70.0409 13.8328 70.88 15.3288 71.1357 16.0624C71.6136 17.2211 72.0308 18.1018 72.2721 19.3372L72.1842 19.3932C71.4858 19.8247 70.7346 20.1619 70.0154 20.5567C62.0815 24.9088 57.17 33.4964 56.4795 42.4036C56.4332 43.0061 56.3996 44.4126 56.024 44.8361C55.3272 45.1926 53.8152 45.1478 52.9777 45.175C51.8701 45.2133 50.7865 45.2405 49.6837 45.1078ZM48.5585 43.4281C48.8781 43.5719 49.2186 43.7349 49.5462 43.8548C49.6981 43.5735 49.8659 41.3583 49.9074 40.9076C50.7545 31.6551 55.0219 22.6728 62.5674 17.0437C64.1928 15.8306 65.724 14.9995 67.4741 14.0326C66.9706 13.5579 66.4224 13.0176 65.887 12.5941C65.0591 12.8099 64.017 13.4364 63.269 13.8951C54.3698 19.3388 49.4823 29.7276 48.7503 39.8959C48.6656 41.0802 48.5026 42.2405 48.5601 43.4265L48.5585 43.4281ZM70.1224 16.9766C67.4613 17.4257 63.7789 20.2115 61.8258 22.1278C56.8424 27.0154 53.9894 33.8879 53.1807 40.7589C53.0672 41.7211 52.8898 43.1627 53.0433 44.0929C53.0576 44.1777 53.0736 44.2624 53.0912 44.3455C53.243 44.0178 53.4988 43.452 53.5563 43.094C53.9383 40.6998 54.1876 38.3775 54.8509 36.028C56.609 29.7468 60.3458 24.1976 65.5034 20.2051C66.9291 19.0831 68.8023 18.1257 70.1192 16.9766H70.1224Z" fill="var(--fill-0, #10EB10)"></path>
<path id="Vector_37" d="M49.6837 45.1078C48.7679 45.0167 46.8307 45.1718 46.1291 44.9161C45.7903 44.2336 45.9677 42.5122 45.9789 41.7099C46.1531 29.8027 51.779 17.3745 62.3436 11.2515C63.4576 10.6058 64.8673 9.82269 66.0772 9.38316C67.4917 10.2095 68.7575 11.7838 69.5902 13.1759C68.9605 13.5099 68.155 13.844 67.4725 14.0341C66.969 13.5595 66.4208 13.0192 65.8854 12.5957C65.0575 12.8115 64.0154 13.438 63.2674 13.8967C54.3682 19.3404 49.4807 29.7292 48.7487 39.8975C48.664 41.0818 48.501 42.2421 48.5585 43.4281C48.8781 43.5719 49.2186 43.7349 49.5462 43.8548C49.7045 44.0194 49.6805 44.8186 49.6853 45.1062L49.6837 45.1078Z" fill="var(--fill-0, #EBEBEB)"></path>
<path id="Vector_38" d="M70.1224 16.9766C70.2646 16.8183 70.9119 16.2765 71.1357 16.0639C71.6136 17.2227 72.0307 18.1033 72.2721 19.3388L72.1841 19.3948C71.4857 19.8263 70.7345 20.1635 70.0153 20.5583C62.0814 24.9104 57.1699 33.4979 56.4795 42.4051C56.4331 43.0077 56.3996 44.4142 56.024 44.8377C55.3271 45.1941 53.8152 45.1494 52.9777 45.1766C52.9952 44.8697 53.0384 44.6475 53.0911 44.347C53.243 44.0194 53.4987 43.4536 53.5562 43.0956C53.9382 40.7014 54.1876 38.3791 54.8508 36.0296C56.6089 29.7484 60.3457 24.1992 65.5034 20.2067C66.929 19.0847 68.8022 18.1273 70.1192 16.9782L70.1224 16.9766Z" fill="var(--fill-0, #EBEBEB)"></path>
<path id="Vector_39" d="M55.6964 62.7272C56.585 62.6905 57.5903 62.625 58.4694 62.6457L59.8007 87.8857L60.3314 97.4626C60.4033 98.8131 60.6031 101.391 60.5408 102.673C59.8519 102.727 59.3085 102.745 58.6164 102.746C57.4209 102.905 54.2643 102.921 52.9266 102.897C51.9948 102.938 50.8328 102.913 49.8818 102.918C49.6245 100.699 49.5142 97.9996 49.364 95.7365L48.445 80.5976C48.2436 77.0174 48.0246 73.4373 47.7881 69.8588C47.6507 67.7091 47.4077 64.9393 47.4285 62.8168L48.6144 62.7896C49.2617 62.6873 50.6682 62.7225 51.3475 62.7241H55.698L55.6964 62.7272ZM54.2867 102.468C54.2915 100.133 54.1029 98.1786 53.9511 95.8627L53.3741 86.9284L52.1338 64.3287C51.5441 64.3974 50.8504 64.4038 50.3645 64.6899C50.0017 65.2349 50.7337 74.0319 50.8296 75.5662L51.6671 89.8964L52.1226 97.2468C52.1834 98.2745 52.2297 100.795 52.5542 101.677C53.3165 101.911 53.6298 101.986 54.2883 102.467L54.2867 102.468ZM55.6996 64.0043C55.5062 64.3575 55.5733 64.8881 55.5893 65.3037C55.9873 73.7953 56.4747 82.2822 57.0549 90.7642L57.4113 96.7625C57.4593 97.6288 57.52 100.311 57.8317 100.971C58.0187 99.8232 57.7438 96.9911 57.6639 95.7205L57.1061 86.6215L56.2813 71.2876C56.195 69.7293 56.0304 65.2349 55.6996 64.0027V64.0043Z" fill="var(--fill-0, #10EB10)"></path>
<path id="Vector_40" d="M47.4285 62.8183L48.6144 62.7912C49.7955 62.8072 50.9767 62.8104 52.1578 62.8024L52.1322 64.3303C51.5425 64.399 50.8488 64.4054 50.3629 64.6915C50.0001 65.2365 50.7321 74.0335 50.828 75.5678L51.6655 89.8979L52.121 97.2484C52.1818 98.2761 52.2281 100.797 52.5526 101.679C53.3149 101.912 53.6282 101.987 54.2867 102.468L54.2116 102.732C53.9271 102.876 53.3677 102.828 52.9282 102.897C51.9964 102.938 50.8344 102.913 49.8834 102.918C49.6261 100.699 49.5158 97.9996 49.3656 95.7364L48.4466 80.5976C48.2452 77.0174 48.0262 73.4373 47.7897 69.8588C47.6522 67.7091 47.4093 64.9393 47.4301 62.8167L47.4285 62.8183Z" fill="var(--fill-0, #EBEBEB)"></path>
<path id="Vector_41" d="M55.6964 62.7272C56.585 62.6905 57.5903 62.625 58.4694 62.6457L59.8007 87.8857L60.3314 97.4626C60.4033 98.8131 60.6031 101.391 60.5407 102.673C59.8519 102.727 59.3085 102.745 58.6164 102.746C57.2898 102.783 57.4449 101.975 57.8301 100.971C58.0171 99.8233 57.7421 96.9911 57.6622 95.7205L57.1044 86.6215L56.2797 71.2876C56.1934 69.7293 56.0288 65.2349 55.6979 64.0027L55.5765 63.8269C55.5285 63.3474 55.5893 63.1939 55.6964 62.7256V62.7272Z" fill="var(--fill-0, #EBEBEB)"></path>
<path id="Vector_42" d="M89.6709 9.96972C91.1925 10.3357 92.6261 10.6746 94.0886 11.2515C106.176 16.032 114.117 28.4314 115.563 41.0722C115.646 41.801 116.137 44.3918 115.683 44.8969C114.943 45.0407 113.49 45.0471 112.702 45.0535C111.489 44.9768 109.386 45.0423 108.102 45.0439C107.511 45.0727 106.771 45.0567 106.17 45.0599C105.54 41.4254 105.623 39.7888 104.265 36.0392C102.115 30.0409 97.9452 24.9759 92.4711 21.7155C90.94 20.7932 89.4919 20.1475 87.8856 19.3916L88.4898 16.3964C88.6065 15.4598 88.7807 14.6431 88.9709 13.7225L89.6725 9.97132L89.6709 9.96972ZM112.421 44.1329C112.621 43.8851 112.828 43.6438 113.041 43.4057C113.175 42.7727 112.867 41.2959 112.763 40.6087C112.004 35.6253 110.421 31.0638 107.899 26.6893C104.505 20.798 97.8573 14.7869 91.1365 13.088C90.6427 13.4108 90.4301 13.4332 90.4493 14.0229C91.7215 14.3298 92.8259 14.9867 93.9847 15.5429C99.585 18.2312 104.014 22.4634 107.236 27.7825C109.478 31.5512 111.027 35.694 111.807 40.0093C112.053 41.3519 112.146 42.8447 112.419 44.1329H112.421ZM108.948 43.8532C109.218 43.2123 108.782 41.3391 108.657 40.5975C107.03 30.9183 101.055 22.4171 92.2186 18.0266C91.8222 17.83 91.0119 17.4081 90.6075 17.3777C91.3507 17.9947 92.3512 18.4741 93.1775 18.992C94.5585 19.8567 95.9362 20.7277 97.2308 21.7186C102.393 25.847 105.743 31.3627 107.626 37.6471C108.238 39.6913 108.392 42.0168 108.946 43.8516L108.948 43.8532Z" fill="var(--fill-0, #10EB10)"></path>
<path id="Vector_43" d="M89.671 9.96972C91.1925 10.3357 92.6262 10.6746 94.0886 11.2515C106.176 16.032 114.117 28.4314 115.563 41.0722C115.646 41.801 116.137 44.3918 115.683 44.8969C114.943 45.0407 113.49 45.0471 112.702 45.0535L112.517 44.9096C112.365 44.574 112.395 44.4957 112.421 44.1345C112.621 43.8867 112.828 43.6454 113.041 43.4073C113.175 42.7743 112.867 41.2975 112.763 40.6103C112.004 35.6269 110.421 31.0654 107.899 26.6909C104.505 20.7996 97.8573 14.7885 91.1366 13.0896C90.6427 13.4124 90.4301 13.4348 90.4493 14.0245C89.9555 13.9606 89.4584 13.8328 88.9693 13.7209L89.671 9.96972Z" fill="var(--fill-0, #EBEBEB)"></path>
<path id="Vector_44" d="M88.4882 16.3948C88.899 16.561 90.4142 17.0916 90.6075 17.3793C91.3507 17.9963 92.3513 18.4758 93.1776 18.9936C94.5585 19.8583 95.9362 20.7293 97.2308 21.7203C102.393 25.8486 105.743 31.3643 107.626 37.6487C108.238 39.6929 108.392 42.0184 108.946 43.8532C109.072 44.2208 109.202 44.5868 109.333 44.9528C109.004 44.9688 108.401 44.9784 108.101 45.0407C107.509 45.0695 106.769 45.0535 106.168 45.0567C105.539 41.4222 105.622 39.7856 104.263 36.036C102.114 30.0377 97.9436 24.9728 92.4695 21.7123C90.9384 20.7901 89.4904 20.1444 87.8841 19.3884L88.4882 16.3932V16.3948Z" fill="var(--fill-0, #EBEBEB)"></path>
<path id="Vector_45" d="M114.136 62.5147C115.168 62.4603 116.466 62.3996 117.5 62.4587C117.733 64.5525 117.834 67.1145 117.97 69.2434L118.839 82.7808C119.151 87.045 119.44 91.3108 119.707 95.5782C119.813 97.3076 120.067 100.443 120.016 102.126C118.839 102.213 117.773 102.245 116.599 102.289C115.378 102.345 114.153 102.368 112.929 102.353C112.453 102.366 110.373 102.545 110.108 102.217C109.943 101.222 109.924 100.013 109.859 98.9857C109.728 97.0167 109.613 95.046 109.515 93.0753L108.545 75.4032L108.024 66.9803C107.968 66.0293 107.768 63.5951 107.902 62.7384C108.217 62.5514 108.26 62.6186 108.686 62.6058C109.474 62.4715 113.151 62.5163 114.133 62.5131L114.136 62.5147ZM116.402 100.926C116.843 100.771 116.794 100.861 117.056 100.552C117.209 99.7337 117.045 97.1957 116.99 96.2655L116.551 89.3433L115.756 76.4197C115.558 72.8076 115.334 67.6931 114.865 64.204C114.622 63.9323 114.636 64.0123 114.19 63.918C114.104 65.0783 114.224 66.5263 114.292 67.7107L114.772 74.8789L116.401 100.924L116.402 100.926ZM112.812 101.095C112.935 100.437 112.788 98.6597 112.745 97.8829L112.341 91.29C112.061 85.931 111.754 80.5736 111.422 75.2194C111.195 71.3515 111.024 67.8529 110.672 63.9835C110.349 65.1007 110.883 70.5668 110.974 72.0516L111.726 85.4627C111.898 89.1515 112.101 92.8404 112.333 96.526C112.414 97.6672 112.526 100.066 112.812 101.095Z" fill="var(--fill-0, #10EB10)"></path>
<path id="Vector_46" d="M114.136 62.5147C115.168 62.4603 116.466 62.3996 117.5 62.4587C117.733 64.5525 117.834 67.1145 117.97 69.2434L118.839 82.7808C119.151 87.045 119.44 91.3108 119.707 95.5782C119.813 97.3076 120.067 100.443 120.016 102.126C118.839 102.213 117.773 102.245 116.599 102.289C116.509 101.866 116.458 101.361 116.4 100.926C116.842 100.771 116.792 100.861 117.054 100.552C117.208 99.7337 117.043 97.1957 116.989 96.2655L116.549 89.3433L115.755 76.4197C115.557 72.8076 115.333 67.6931 114.863 64.204C114.62 63.9323 114.634 64.0123 114.188 63.918C114.139 63.7166 114.139 62.7784 114.134 62.5147H114.136Z" fill="var(--fill-0, #EBEBEB)"></path>
<path id="Vector_47" d="M112.931 102.353C112.454 102.366 110.375 102.545 110.11 102.217C109.945 101.222 109.926 100.013 109.86 98.9858C109.729 97.0167 109.614 95.046 109.517 93.0753L108.547 75.4032L108.026 66.9803C107.97 66.0293 107.77 63.5951 107.904 62.7384C108.219 62.5514 108.262 62.6186 108.687 62.6058L110.739 62.6202C110.746 62.9606 110.784 63.683 110.669 63.9819C110.346 65.0991 110.88 70.5652 110.971 72.05L111.722 85.4611C111.895 89.15 112.098 92.8388 112.33 96.5244C112.411 97.6656 112.523 100.065 112.809 101.094C112.881 101.54 112.899 101.904 112.927 102.352L112.931 102.353Z" fill="var(--fill-0, #EBEBEB)"></path>
<path id="Vector_48" d="M35.9401 72.9147C36.5874 72.8379 38.0898 72.6669 38.1761 73.5907C38.5053 77.1421 34.7206 77.222 32.451 77.9508C26.3872 79.8991 21.1065 83.0254 17.4592 88.3812C15.0874 91.8638 12.9936 98.2953 13.7784 102.497C17.1843 103.771 21.2567 106.774 20.798 110.958C20.6989 111.863 20.2578 112.283 19.5897 112.814C19.3164 111.871 18.375 108.903 17.3138 109.039C13.7352 109.498 19.5641 113.34 16.5818 115.681C14.1604 116.803 13.8295 115.376 13.4923 113.5C13.4763 113.413 13.1902 113.377 13.1135 113.372C11.3554 113.27 12.0426 116.337 9.8594 115.763C8.31227 115.381 8.72782 114.257 7.9143 113.092C7.42363 113.373 6.69961 113.902 6.15939 113.504C5.56004 113.068 5.21481 111.956 5.1301 111.304C4.62664 107.421 7.08639 104.858 9.01072 101.891C9.22489 101.562 9.47102 98.412 9.56692 97.6544C10.1615 92.9634 11.7933 88.4387 14.6622 84.6332C18.6531 79.3909 24.0105 76.3573 30.1959 74.3579C32.3248 73.669 33.7217 73.2375 35.9417 72.9163L35.9401 72.9147Z" fill="var(--fill-0, #EBEBEB)"></path>
<path id="Vector_49" d="M61.4949 105.361C61.8625 105.334 62.3644 105.339 62.7448 105.329C63.1939 110.461 63.4464 115.601 63.8524 120.737C63.9499 121.963 64.0474 123.198 64.0841 124.427C62.3851 124.582 60.7549 124.507 59.0591 124.568C56.609 124.657 54.218 124.732 51.7646 124.734L50.4093 124.744C50.12 122.6 50.0017 119.501 49.8595 117.307C49.5957 113.439 49.3544 109.57 49.137 105.699L61.4949 105.361Z" fill="var(--fill-0, #10EB10)"></path>
<path id="Vector_50" d="M120.981 104.72L122.114 104.685C122.221 105.363 122.273 106.648 122.317 107.359L122.615 112.207C122.826 115.724 123.204 119.96 123.238 123.393C119.265 123.625 114.914 123.593 110.901 123.711L109.731 123.762C109.584 117.69 108.841 111.158 108.785 105.062C112.371 104.743 117.326 104.831 120.983 104.72H120.981Z" fill="var(--fill-0, #10EB10)"></path>
<path id="Vector_51" d="M55.2169 131.998C55.3527 132.139 55.3927 132.22 55.503 132.387C55.4726 132.562 55.455 132.684 55.439 132.86C55.7603 133.373 56.4523 133.381 57.0693 133.571L56.8759 133.857C57.0677 133.93 57.0741 133.884 57.3346 133.847L57.4657 133.946C57.4864 134.645 56.8056 136.003 56.5259 136.7C54.8301 140.931 51.6351 144.227 47.8121 146.613C46.5734 147.385 45.3299 148.003 44.0369 148.676C43.6182 148.905 42.3795 150.081 43.1099 150.532C43.8403 150.981 45.087 150.577 45.8606 150.369C46.7013 151.732 48.1829 156.837 49.543 157.246C51.9484 157.945 55.0842 157.722 57.0837 159.45C58.2152 160.427 56.2286 161.071 55.6196 161.272C48.1797 162.846 40.7029 157.3 38.8026 150.314C38.5964 149.557 37.8612 146.699 38.4206 146.106C40.2282 144.19 43.5463 143.958 45.7775 142.601C49.2425 140.731 51.8621 138.53 53.7513 135.014C54.2755 134.038 54.6767 132.987 55.2121 132L55.2169 131.998Z" fill="var(--fill-0, #EBEBEB)"></path>
<path id="Vector_52" d="M100.47 129.03C101.217 129.331 102.344 130.681 102.9 131.312C106.023 134.854 108.401 138.807 110.453 143.044C110.942 144.054 113.009 149.739 113.528 150.086C114.409 150.047 121.28 142.691 124.975 141.904C125.458 141.802 126.006 141.784 126.423 142.091C126.679 142.28 126.844 142.536 126.877 142.855C127.018 144.204 124.791 146.777 123.976 147.831C122.261 150.06 120.355 152.138 118.282 154.04C117.475 154.782 114.404 157.587 113.332 157.579C112.531 157.572 111.444 154.606 111.121 153.81C109.603 150.059 108.179 146.394 106.371 142.753C104.19 138.358 101.656 134.659 98.6852 130.779C99.5962 130.085 99.7161 129.919 100.467 129.029L100.47 129.03Z" fill="var(--fill-0, #EBEBEB)"></path>
<path id="Vector_53" d="M75.6748 5.1749C78.7899 4.72578 84.403 5.93088 87.3167 7.04968C87.0466 9.61651 86.289 12.3927 85.8542 14.95C85.6657 16.0576 85.3923 17.3426 85.1015 18.423C82.744 18.0107 81.483 17.7677 79.0632 17.7997C77.548 17.9675 76.3845 18.2152 74.9013 18.5365C74.1692 16.7336 73.669 14.8748 72.7372 13.1423C71.9333 11.6479 70.9871 10.1375 69.7804 8.92605C69.034 8.17646 68.1373 7.64424 67.3973 6.86747C69.555 6.02678 73.3573 5.32993 75.6732 5.1749H75.6748Z" fill="var(--fill-0, #10EB10)"></path>
<path id="Vector_54" d="M147.444 83.0669C153.38 82.4867 150.556 88.7744 148.462 88.386C147.708 87.7195 148.524 85.6018 147.42 85.4995C147.103 85.629 146.712 85.8111 146.574 86.2027C145.719 88.9102 146.307 93.0721 147.027 95.7956C147.744 98.5127 152.864 98.0188 154.809 97.2612C152.809 99.3358 150.148 100.21 147.337 99.1679C145.352 98.4311 144.944 97.0199 144.188 95.2554C143.429 95.5319 142.683 95.9011 141.891 96.1488C139.643 96.8552 137.359 97.1094 135.017 96.9671C130.91 96.5995 127.443 95.3257 124.2 92.6901C121.605 90.5804 122.145 89.102 121.894 86.0317C123.625 87.8186 125.143 89.1132 127.32 90.3694C130.614 92.2714 134.22 93.3774 138.043 93.2336C139.118 93.1936 139.942 93.1808 140.985 92.8947C143.3 92.2618 142.938 91.0072 143.069 89.0381C143.151 87.809 143.463 86.3706 144.108 85.3077C144.922 83.9683 146.01 83.4361 147.442 83.0685L147.444 83.0669Z" fill="var(--fill-0, #EBEBEB)"></path>
<path id="Vector_55" d="M52.4726 47.5148C54.4289 47.4653 56.7592 47.4909 58.7107 47.5548C58.9249 48.9469 58.9297 51.8574 58.9776 53.3709C56.056 53.4381 52.9122 53.3805 49.9729 53.3805H43.7445C43.7365 51.4226 43.5175 49.5207 43.5415 47.55C46.4104 47.4541 49.5686 47.5324 52.4726 47.5148Z" fill="var(--fill-0, #10EB10)"></path>
<path id="Vector_56" d="M57.0884 55.4615C57.8045 55.4487 58.5381 55.4711 59.2557 55.4854C59.2989 56.9814 59.4523 58.7715 59.4027 60.2355C54.8445 60.3682 50.2846 60.4625 45.7247 60.5184C44.9783 60.52 44.4173 60.5024 43.6741 60.4465C43.4424 58.9905 43.5718 57.0294 43.6437 55.535C45.1397 55.4711 46.9106 55.5094 48.4242 55.5046L57.09 55.4647L57.0884 55.4615Z" fill="var(--fill-0, #10EB10)"></path>
<path id="Vector_57" d="M112.501 47.331C114.377 47.2863 116.255 47.2735 118.133 47.2895C118.261 49.2602 118.36 51.2324 118.429 53.2063L111.893 53.2766C109.999 53.2894 108.107 53.291 106.213 53.283C106.203 51.2932 106.068 49.412 106.013 47.4349C107.939 47.3167 110.517 47.363 112.501 47.3326V47.331Z" fill="var(--fill-0, #10EB10)"></path>
<path id="Vector_58" d="M88.9389 66.269C89.9106 66.2227 91.0582 66.2371 92.0427 66.2275C92.1978 67.4805 92.177 68.8151 92.1754 70.0809C91.031 70.001 88.4514 70.1496 87.1952 70.1752L78.3215 70.3207L74.9843 70.3846C74.7718 69.0868 74.7861 67.8178 74.7861 66.5088C79.5043 66.52 84.224 66.44 88.9389 66.269Z" fill="var(--fill-0, #EBEBEB)"></path>
<path id="Vector_59" d="M117.692 55.2729C118.189 55.2489 118.609 55.3016 119.102 55.3464C119.225 56.7145 119.316 58.6772 119.34 60.0309L108.117 60.194L106.528 60.1972C106.349 58.6117 106.382 57.0198 106.386 55.4247C110.154 55.4167 113.923 55.3656 117.692 55.2713V55.2729Z" fill="var(--fill-0, #10EB10)"></path>
<path id="Vector_60" d="M79.41 57.9979C81.7419 58.0171 84.0738 58.0091 86.4056 57.9756C86.436 59.2702 86.5015 61.121 86.4088 62.3788C84.9097 62.5339 81.1153 62.4396 79.4292 62.438C79.3812 61.0091 79.41 59.438 79.4084 57.9979H79.41Z" fill="var(--fill-0, #EBEBEB)"></path>
<path id="Vector_61" d="M91.2021 57.8685C92.4056 57.8205 93.4829 57.8189 94.688 57.8333L94.7519 62.2989L91.6145 62.3452C90.518 62.3421 89.3737 62.3085 88.2868 62.4284C88.2836 60.9244 88.2693 59.4188 88.2437 57.9148C89.2298 57.9148 90.216 57.9004 91.2005 57.8685H91.2021Z" fill="var(--fill-0, #EBEBEB)"></path>
<path id="Vector_62" d="M79.1622 49.1483C81.4462 49.1035 83.8244 49.1339 86.1163 49.1355C86.2314 50.4844 86.2458 51.8462 86.2442 53.1983L79.2358 53.2095C79.231 51.8542 79.2374 50.502 79.1622 49.1483Z" fill="var(--fill-0, #EBEBEB)"></path>
<path id="Vector_63" d="M77.2524 58.0523C77.3834 58.0379 77.3035 58.0315 77.4793 58.1338C77.6359 58.6804 77.572 61.7347 77.5688 62.4412L71.4554 62.5354L71.3563 62.5035C71.2189 62.1694 71.1278 58.7268 71.1022 58.1098C73.1512 58.1098 75.2018 58.0906 77.2508 58.0523H77.2524Z" fill="var(--fill-0, #EBEBEB)"></path>
<path id="Vector_64" d="M96.6043 57.8429C98.6309 57.7566 100.691 57.8829 102.746 57.7614C102.865 59.235 102.884 60.7725 102.882 62.2494C100.79 62.2398 98.698 62.2525 96.6075 62.2877C96.5931 60.8061 96.5931 59.3245 96.6043 57.8429Z" fill="var(--fill-0, #EBEBEB)"></path>
<path id="Vector_65" d="M91.3939 49.0892C92.4104 49.0316 93.4221 49.046 94.4386 49.0492C94.6176 50.347 94.5665 51.8222 94.5585 53.1424C93.3805 53.1951 92.1882 53.1903 91.0071 53.1983L88.0391 53.1951C88.0599 51.9357 87.9672 50.3869 87.908 49.1147C89.07 49.1355 90.2319 49.1275 91.3939 49.0907V49.0892Z" fill="var(--fill-0, #EBEBEB)"></path>
<path id="Vector_66" d="M66.3888 58.1386L69.2337 58.1066C69.2817 59.5962 69.3169 61.0874 69.3392 62.577C68.4266 62.6425 67.2631 62.617 66.3329 62.6202L63.4432 62.617C63.277 61.5317 63.2834 59.3453 63.2562 58.1642C64.2775 58.1865 65.3627 58.153 66.3904 58.1386H66.3888Z" fill="var(--fill-0, #EBEBEB)"></path>
<path id="Vector_67" d="M75.1538 49.273C75.8714 49.2362 76.5443 49.2426 77.2635 49.2458C77.4122 50.5356 77.377 51.9629 77.369 53.267C75.9561 53.2766 74.5432 53.2942 73.132 53.3214C72.384 53.3454 71.7527 53.339 71.0031 53.3166C70.8816 52.0204 70.9056 50.5803 70.9056 49.2745C72.2481 49.3225 73.7968 49.2793 75.1538 49.2714V49.273Z" fill="var(--fill-0, #EBEBEB)"></path>
<path id="Vector_68" d="M62.9621 49.2266C64.7698 49.1435 67.2151 49.1723 69.0388 49.2074C69.05 50.4717 69.1906 52.1099 69.1331 53.2974C67.1113 53.3709 65.0894 53.3965 63.066 53.3757C62.9062 52.1339 62.9557 50.502 62.9605 49.2266H62.9621Z" fill="var(--fill-0, #EBEBEB)"></path>
<path id="Vector_69" d="M96.3342 48.9725C98.3 48.9085 100.431 48.9485 102.408 48.9485C102.516 49.6613 102.595 52.2825 102.574 53.0113C100.546 53.1104 98.4663 53.08 96.4173 53.1584C96.4317 51.7471 96.315 50.3805 96.3326 48.9725H96.3342Z" fill="var(--fill-0, #EBEBEB)"></path>
<path id="Vector_70" d="M83.6502 53.892C84.51 53.868 85.3699 53.8552 86.2298 53.852C86.2682 54.9404 86.249 56.1631 86.2554 57.2627C84.7818 57.3155 83.3065 57.3554 81.8329 57.3794C80.9986 57.3762 80.2395 57.413 79.4083 57.4545C79.3252 56.283 79.2629 55.1099 79.223 53.9367C80.6982 53.9367 82.175 53.9207 83.6502 53.892Z" fill="var(--fill-0, #EBEBEB)"></path>
<path id="Vector_71" d="M88.0982 53.7833C90.2511 53.7497 92.404 53.7433 94.5568 53.7641C94.5728 54.9069 94.56 56.08 94.5616 57.226C92.4167 57.2707 90.2718 57.2803 88.127 57.2563C88.071 56.1088 88.0934 54.9341 88.0966 53.7833H88.0982Z" fill="var(--fill-0, #EBEBEB)"></path>
<path id="Vector_72" d="M71.0894 53.9383L77.3754 53.9351C77.4314 55.0268 77.5145 56.3373 77.4825 57.4194C75.4847 57.4993 73.1288 57.4481 71.1022 57.4465C71.0798 56.2926 71.0926 55.0955 71.0894 53.9383Z" fill="var(--fill-0, #EBEBEB)"></path>
<path id="Vector_73" d="M63.1412 53.9383C65.0927 53.9335 67.22 53.8888 69.1571 53.9639C69.2897 54.9021 69.2418 56.4524 69.237 57.4401L63.2291 57.4737C63.1124 56.3661 63.1428 55.0651 63.1428 53.9383H63.1412Z" fill="var(--fill-0, #EBEBEB)"></path>
<path id="Vector_74" d="M96.4156 53.7513H102.67C102.689 54.3363 102.822 56.7753 102.583 57.1221C100.814 57.2404 98.332 57.2068 96.5051 57.2308C96.4492 56.072 96.4188 54.9117 96.414 53.7497L96.4156 53.7513Z" fill="var(--fill-0, #EBEBEB)"></path>
<path id="Vector_75" d="M153.455 85.9949C154.256 86.0972 154.529 86.1644 155.203 86.6007C155.763 87.8058 155.868 88.557 155.466 89.8004C154.473 90.7706 152.116 91.4706 150.76 91.8558C150.166 91.9757 149.562 92.1148 148.969 92.2426C148.865 91.7551 148.77 91.2549 148.671 90.7642C152.044 89.1531 151.868 89.5815 153.455 85.9949Z" fill="var(--fill-0, #EBEBEB)"></path>
<path id="Vector_76" d="M67.4932 66.3346C68.7319 66.2802 70.319 66.0149 70.872 67.4422C71.1261 68.1086 71.0942 68.8502 70.7841 69.4927C70.514 70.0426 70.1656 70.164 69.6205 70.3446C68.4059 70.4773 66.5934 70.6483 66.1363 69.2083C65.7527 67.9968 66.253 66.7245 67.4932 66.333V66.3346Z" fill="var(--fill-0, #EBEBEB)"></path>
<path id="Vector_77" d="M97.2835 65.9654C98.1482 65.927 98.8227 65.951 99.6746 66.074C100.605 66.7134 100.68 67.2839 100.865 68.334C100.531 69.2818 100.391 69.5679 99.4348 69.9515C98.9314 70.0218 98.4231 70.0074 97.9245 70.0442C95.3368 70.228 94.867 66.5743 97.2851 65.9654H97.2835Z" fill="var(--fill-0, #EBEBEB)"></path>
<path id="Vector_78" d="M155.848 92.3913C155.903 92.4488 155.945 92.484 155.979 92.5639C156.872 94.7743 155.08 95.3912 153.317 95.7668C151.992 96.0481 151.209 96.0833 149.907 95.6469C149.485 95.4392 149.1 95.1499 149.111 94.64C149.24 94.4403 149.351 94.3188 149.603 94.2788C151.826 93.9384 153.738 93.1057 155.851 92.3913H155.848Z" fill="var(--fill-0, #EBEBEB)"></path>
</g>
</svg>