<svg width="120" height="135" viewBox="0 0 120 135" fill="none" xmlns="http://www.w3.org/2000/svg">
<g clip-path="url(#clip0_1140_2965)">
<mask id="mask0_1140_2965" style="mask-type:luminance" maskUnits="userSpaceOnUse" x="0" y="0" width="120" height="136">
<path d="M120 0H0V135.784H120V0Z" fill="white"></path>
</mask>
<g mask="url(#mask0_1140_2965)">
<path d="M119.967 29.7788C119.768 33.5398 118.969 37.2457 117.601 40.7543C116.958 42.3729 116.032 44.186 115.176 45.7249C113.335 49.0348 111.674 51.4642 111.55 55.3804C111.376 60.8427 117.031 60.3757 119.025 64.2208C119.44 65.0156 119.633 65.9062 119.587 66.8011C119.402 70.8942 115.192 72.6797 111.599 71.3235C111.464 71.2742 111.331 71.222 111.196 71.1712C111.184 71.3526 111.16 71.2597 111.248 71.3903C113.366 74.529 114.644 79.5388 114.191 83.1518C114.504 83.7842 115.222 84.5993 115.633 85.2491C118.911 90.446 116.078 96.8598 110.971 99.5765C107.963 101.137 104.414 101.478 101.163 100.509C98.2261 99.6331 96.255 97.778 94.7784 95.157C91.8819 90.0153 94.4535 84.7371 99.1109 81.6985C98.0434 78.5641 97.1702 77.3631 94.2403 75.6038L91.8399 89.7049C91.454 92.0067 91.0581 94.3085 90.6476 96.6075C90.0544 99.9275 89.6758 101.965 88.2022 105.043C90.62 104.129 92.7739 103.783 95.2034 104.93C104.665 109.4 105.992 128.473 95.3963 132.426C88.7838 134.893 80.7934 130.125 82.3511 122.44C74.1693 122.179 67.3522 117.958 63.7595 110.487C63.5666 110.085 62.6862 107.819 62.4019 107.243C60.2698 106.911 56.4116 106.359 54.1968 106.114C53.3164 106.016 52.7304 106.787 52.2228 107.258C50.4997 108.856 48.8679 110.503 47.4247 112.339L47.3638 112.407C45.4565 114.613 43.3316 118.31 42.1756 120.96C40.277 125.316 39.1094 133.038 33.1191 133.447C29.1275 133.72 23.0604 129.12 20.1175 126.428C15.8574 122.387 10.5504 117.433 9.63037 111.367C9.40337 109.869 10.0414 107.471 11.1004 106.443C16.5774 101.126 24.9503 105.314 29.4684 109.31C29.9572 109.744 30.4431 110.182 30.9246 110.623C31.5889 109.434 33.08 107.706 33.9198 106.566C34.2969 106.056 35.4645 104.56 35.8634 104.174C32.3475 103.443 28.6939 101.52 26.6778 98.4771C24.8227 95.6734 24.914 92.89 25.6683 89.7513C26.0106 88.3299 26.3398 86.6532 26.7604 85.2433C22.8878 86.791 19.5704 86.8403 15.5414 85.8221C13.2004 87.0056 9.78637 87.4408 7.29237 86.6213C6.99137 86.5545 6.64338 86.5371 6.35438 86.4327C4.19338 85.6596 1.84738 84.2527 0.831375 82.0959C-0.475625 79.3241 0.0433744 75.8271 0.499374 72.8915C0.903374 70.1284 2.32637 67.6554 4.94437 66.4762C7.98037 65.1084 11.8024 65.3782 14.8814 66.4864C17.4444 67.4103 18.7674 68.9332 19.5574 71.441C23.0096 71.8587 25.1432 71.0944 27.9063 68.9956C30.5127 67.0158 30.5403 66.263 31.1088 63.3201L32.0908 58.1826L36.2434 36.1738L37.5081 29.364C38.3349 24.8256 38.5336 20.3133 43.2852 18.187C44.3498 17.7214 45.4841 17.4415 46.6415 17.3559C48.6504 17.2225 50.8536 17.3864 52.8639 17.4734L59.9536 17.7417L70.4692 18.1696C71.9951 18.245 73.7834 18.2769 75.2977 18.4452L75.3818 18.4553C75.5457 15.6284 76.4377 12.8175 78.5916 10.8754C79.5605 10.0022 79.5329 9.34229 80.0493 8.26897C82.9284 2.29029 89.4176 -0.320488 95.7386 0.0319672C111.306 0.710769 120.632 15.1556 119.967 29.7788ZM102.26 63.3491C101.695 62.2206 101.244 61.3228 100.869 60.0856C99.3777 55.1846 100.563 49.9659 102.611 45.4159C103.43 43.5681 104.511 41.9291 105.442 40.1378C107.716 35.7633 108.906 30.4373 108.266 25.5247C107.831 22.1786 106.044 18.2058 103.8 15.7329C102.028 13.7777 99.2095 11.8617 96.4943 11.7123C95.1773 11.4193 92.7957 11.8414 91.6585 12.6391C89.9412 13.8444 90.7636 15.3644 90.9116 17.0469C90.9914 17.9607 90.9348 18.6946 90.7752 19.5954C94.2896 21.2285 97.878 22.7138 99.9927 26.2398C100.766 27.5147 101.172 28.9782 101.169 30.4692C101.175 31.8994 100.772 33.9053 100.534 35.3848C100.071 38.1246 99.6258 40.8659 99.1993 43.6116L97.3515 55.128C97.1006 56.6959 96.7496 59.5721 96.3884 61.0168C97.2369 61.2416 99.6664 62.2134 100.486 62.5992C101.21 62.869 101.577 62.9792 102.258 63.3505L102.26 63.3491Z" fill="#EBEBEB"></path>
<path d="M96.3823 3.59283C93.876 3.39992 90.8127 3.8278 88.5558 4.93738C86.1887 6.10062 84.4873 8.16024 83.6287 10.6376C83.3255 11.5107 83.1428 12.4303 82.8469 13.2875L82.8222 13.3557C79.0642 13.8329 79.7111 19.0805 79.0163 21.8306C77.65 21.8755 76.4186 21.7841 75.0653 21.7305L69.677 21.5115L53.9209 20.8892C53.1827 20.8617 52.3835 20.8066 51.6496 20.8008C49.6335 20.7863 46.9806 20.2713 45.0936 21.0459C42.6337 22.0554 42.3595 25.3986 41.9027 27.6787C41.4023 30.1734 41.0179 32.7465 40.5494 35.2674L36.0473 59.0689L35.0755 64.479C34.9058 65.4276 34.7506 66.485 34.4634 67.4002C34.2342 68.1283 33.3872 68.723 32.8331 69.2582C31.6205 70.4302 30.3964 71.5949 29.0083 72.5638C28.1671 73.1613 27.2649 73.669 26.3192 74.0794C23.8158 75.1818 20.6596 75.7562 17.917 74.8917C16.356 74.4029 16.896 72.3955 16.223 71.1452C15.155 69.1625 13.779 69.2075 11.822 69.0523C11.603 69.0349 10.958 68.6026 10.681 68.5374C9.56195 68.2676 8.23695 68.2864 7.19395 68.8086C6.29295 69.2568 5.61596 70.0516 5.31596 71.0103C5.06896 71.824 5.35496 72.5144 5.72996 73.2077C4.01596 74.4377 4.05695 75.7518 5.15295 77.3864C4.66995 78.0304 4.30896 79.0254 4.57696 79.7709C5.58196 82.5746 9.99996 82.8633 12.412 82.0945C13.27 81.8218 13.943 81.5289 14.73 81.2924C15.672 81.5347 16.484 81.7377 17.44 81.919C22.8034 82.9445 27.7798 80.7746 32.1238 77.7708C32.0658 78.8514 31.7351 80.544 31.5451 81.6492C31.139 84.0004 30.714 86.3486 30.2745 88.694C29.7408 91.5499 28.7284 93.9431 30.7474 96.4204C33.8528 100.231 38.6203 100.741 43.137 101.355C40.1041 104.328 36.7928 108.914 34.5171 112.475C33.6439 113.84 32.6939 115.721 31.8483 117.175L31.7786 117.063C31.4392 116.529 30.6589 115.607 30.2383 115.093C27.4578 111.702 23.8216 108.613 19.454 107.635C17.518 107.201 14.262 107.111 13.86 109.629C13.568 111.444 14.636 113.377 15.692 114.818C19.222 119.63 23.7041 123.877 28.7298 127.101C30.0613 127.957 31.4581 128.798 32.9999 129.117C34.5649 129.442 35.2437 128.077 35.7499 126.879C36.6506 124.67 37.241 122.345 38.1649 120.119C41.2442 112.833 46.2061 106.498 52.5401 101.761C55.5672 102.115 58.7016 102.297 61.7373 102.618C62.9658 102.749 64.3336 102.823 65.5432 103.01C65.8797 103.703 66.2786 104.756 66.5469 105.478C68.7995 111.556 72.8099 116.858 79.6168 117.939C83.1181 118.494 85.6158 118.162 88.5717 116.079C90.6096 119.456 86.2772 120.924 86.3932 124.415C86.4266 125.497 86.8878 126.521 87.6739 127.265C88.7675 128.302 90.3268 128.811 91.8164 128.753C97.4063 128.533 99.1135 122.209 98.9438 117.62C98.6319 114.092 97.6761 110.146 94.1588 108.469C91.9773 107.371 89.3651 108.33 87.5709 109.759C84.9109 111.878 82.9267 113.608 79.4311 111.94C76.1299 110.365 74.327 107.583 73.1 104.206C74.2386 104.303 75.2771 104.425 76.4026 104.553C78.3868 104.752 81.0164 105.628 82.8121 104.367C85.5853 102.422 86.2946 98.6004 86.9052 95.527C87.2678 93.7821 87.5927 92.0285 87.8784 90.2692C88.4673 86.807 89.136 83.4579 89.6697 79.9566L90.6241 73.6168C90.8054 72.3941 90.9708 71.0074 91.2159 69.8065C94.1414 70.3301 98.3317 72.2969 100.301 74.4537C102.932 77.3328 103.658 79.6607 103.589 83.3999C103.093 83.6436 102.632 83.9061 102.13 84.1686C98.9046 85.8497 96.4969 90.1357 98.4448 93.5863C99.0714 94.6973 100.036 95.131 101.254 95.4182C101.304 95.4849 101.353 95.5516 101.404 95.6183C102.213 96.6859 103.479 97.0731 104.779 96.9165C105.611 96.815 106.145 96.4465 106.773 95.9491C109.069 96.6496 110.186 96.2101 111.035 93.8981C113.361 92.4521 113.973 89.5207 112.614 87.158C112.025 86.1354 111.203 85.4059 110.248 84.7285C110.816 81.2533 110.491 77.8897 109.007 74.6625C108.215 72.9438 107.131 71.3744 105.804 70.024C101.758 65.8541 97.473 65.242 92.4226 63.3666C92.4313 62.5775 92.6489 61.3287 92.7736 60.5281L93.5134 55.9752L96.4215 37.8781C96.8261 35.2485 97.4585 32.0445 97.5572 29.4569C97.7298 24.8692 89.9598 22.9793 86.4802 21.9916C86.4338 19.1023 88.4296 15.44 85.7289 13.2237C85.9784 12.3186 86.3265 11.4324 86.8457 10.6535C89.938 6.0107 97.1177 6.31384 101.553 8.51849C110.524 12.9771 113.899 23.4739 112.468 32.8654C111.808 37.1921 109.926 40.9545 107.626 44.611C102.605 52.9728 102.779 64.2905 113.796 67.2523C114.453 67.4292 115.754 67.129 115.734 66.2138C115.695 64.4747 113.344 63.867 112.218 62.9198C106.35 58.9544 107.437 51.7196 110.216 46.1862C111.367 43.8829 112.826 41.7638 113.792 39.3663C115.595 34.8917 116.189 30.3707 115.815 25.5524C114.925 14.0577 108.54 4.73142 96.3809 3.58993L96.3823 3.59283Z" fill="black"></path>
<path d="M88.805 25.3231C87.942 24.2672 85.5821 24.2439 84.3333 24.1656C82.658 24.0583 80.9683 24.0365 79.2901 23.9785L67.3545 23.5521L55.0563 23.1039L50.9501 22.9458C49.5432 22.882 48.1189 22.7979 46.7105 22.8559C46.1782 22.8776 45.8011 23.0227 45.3747 23.3403C44.2724 24.125 43.9359 27.3377 43.6806 28.7287C43.2498 31.0465 42.8335 33.3672 42.4303 35.6908L39.1059 53.8864L35.3522 73.9038C34.1498 80.0798 32.9706 86.2586 31.8045 92.4432C31.3505 94.8539 32.8386 95.743 34.9562 95.9924C38.0239 96.3536 41.0974 96.6916 44.1708 97.0048L60.4693 98.6409C63.3847 98.9325 66.2972 99.2385 69.2082 99.562C70.9313 99.7505 72.6689 99.9956 74.3906 100.028C76.0383 100.058 77.7382 98.947 78.1515 97.3181C78.3706 96.458 78.504 95.4732 78.6519 94.5884L79.4366 89.8557L81.882 75.1265L86.4045 46.6023L88.6338 32.4882C88.876 30.9333 89.14 29.3872 89.388 27.828C89.5215 26.9867 89.5186 26.3007 89.024 25.5479C88.9558 25.4435 88.9021 25.4072 88.805 25.326V25.3231Z" fill="#10EBEB"></path>
<path d="M52.5122 26.656C47.1123 26.3833 47.4531 28.3516 46.6394 32.8595L45.3689 39.9101L44.1374 46.6952C43.8227 48.3748 42.761 51.8268 43.9692 53.2859C44.9178 54.4318 47.6011 54.3709 49.0733 54.4738L54.4921 54.8713L75.5407 56.3681C81.077 56.8627 80.9915 55.2121 81.7602 50.3764C82.1446 47.9759 82.5159 45.574 82.8727 43.1692L84.0765 35.7604C84.297 34.4115 84.5363 33.064 84.6988 31.7064C84.8656 30.3213 84.7539 28.7127 83.157 28.2602C81.4745 27.7844 79.631 27.8207 77.8875 27.7467L71.3678 27.4799C68.6628 27.3827 65.9403 27.2333 63.2367 27.0969C59.6948 26.92 56.0426 26.8808 52.5137 26.656H52.5122Z" fill="black"></path>
<path d="M50.4214 28.9754C50.1777 28.9913 49.7208 28.9957 49.5729 29.1871C48.8825 30.0719 48.7519 32.3012 48.5634 33.3658L47.2362 40.8544L46.1078 47.261C45.8844 48.5112 45.6263 49.7673 45.4856 51.0263C45.4101 51.7109 45.5479 52.1083 46.2993 52.1823C47.6728 52.3186 49.0594 52.3897 50.4359 52.4782L57.1543 52.935L77.4777 54.3927C78.1493 54.4435 78.9253 54.5204 79.1008 53.6965C79.2995 52.7682 79.4373 51.8385 79.5852 50.903L80.3438 46.1282C81.0821 41.4955 81.8798 36.8701 82.5905 32.233C82.6906 31.5818 82.8429 31.18 82.4338 30.626C81.6738 30.2401 79.5446 30.2648 78.6178 30.2198L71.9849 29.9428C64.7952 29.6817 57.6068 29.3583 50.4228 28.9739L50.4214 28.9754Z" fill="#EBEBEB"></path>
<path d="M59.2473 59.8696C58.7078 59.8014 57.4575 59.8377 56.9237 59.8754C53.376 60.1321 50.2314 61.4476 47.4249 63.6015C43.9264 66.2993 41.6391 70.275 41.0662 74.6553C39.9798 83.2027 45.6075 89.9094 54.0519 90.932C54.1737 90.9523 54.2985 90.9683 54.4203 90.9813C58.7658 91.431 63.3709 89.9994 66.749 87.2392C70.0168 84.5515 72.088 80.6804 72.513 76.4712C72.9351 72.191 72.0256 68.4619 69.2611 65.1013C66.717 62.0075 63.2157 60.2525 59.2459 59.8696H59.2473Z" fill="black"></path>
<path d="M58.4543 62.1902C51.3733 61.5737 44.0545 67.8164 43.3321 74.8698C42.9739 78.1217 43.9283 81.3837 45.9835 83.9307C48.2781 86.7271 51.4633 88.0572 54.9965 88.398C58.2411 88.4894 60.5633 88.0789 63.4192 86.437C74.3815 80.1349 71.7142 63.2562 58.4558 62.1902H58.4543Z" fill="#EBEBEB"></path>
<path d="M53.916 68.3325C54.8623 68.6829 56.7894 70.9576 57.6143 71.7651C58.3592 72.4949 61.0627 74.9616 61.1221 75.9642C60.7424 76.8142 58.1077 77.837 57.1526 78.2773C56.1677 78.7422 53.3569 80.342 52.4134 80.0544C51.8532 79.5251 52.3363 77.2033 52.4566 76.3982C52.8144 74.0035 53.0702 71.57 53.4808 69.1861C53.5449 68.8165 53.6764 68.5889 53.916 68.3325Z" fill="black"></path>
<path d="M63.0799 73.0337C62.8507 73.2802 62.1748 77.9303 62.0979 78.583C63.1655 78.3364 63.763 78.1131 64.774 77.6809C65.6558 77.2704 66.033 77.0891 66.6523 76.3218C65.9793 75.0715 64.2649 73.8488 63.0799 73.0337Z" fill="black"></path>
<path d="M49.5254 72.043C48.1954 72.3201 46.4432 72.7015 45.5309 73.7444C45.9501 74.5537 46.333 74.8815 46.9741 75.5255C47.4702 75.9853 48.133 76.5611 48.6958 76.9252C49.025 75.2949 49.2672 73.6864 49.5254 72.0445V72.043Z" fill="black"></path>
<path d="M88.241 111.799C87.6057 112.201 87.0342 112.674 86.3757 113.071C84.5003 114.206 82.5843 114.488 80.4623 114.008C77.1887 113.27 74.7244 111.167 72.9694 108.363C72.2993 107.299 71.738 106.167 71.2956 104.989C70.492 102.859 70.6907 101.716 67.787 102.313C69.2316 105.879 70.566 109.486 73.316 112.291C76.52 115.559 81.6139 117.365 86.0001 115.524C87.0342 115.09 87.9117 114.462 88.898 114.017C91.8656 115.446 91.5451 119.025 89.806 121.271C88.8618 122.49 87.9726 123.427 88.5195 125.129C89.0982 126.932 91.6814 127.139 93.2029 126.578C96.8217 125.152 97.1539 120.207 96.9305 116.908C96.9044 116.503 96.8696 115.714 96.7347 115.379C96.6317 114.265 95.9703 112.398 95.2364 111.541C92.9476 108.869 90.405 110.002 88.2424 111.799H88.241Z" fill="#EBEBEB"></path>
<path d="M88.0443 64.3572C86.881 64.2557 86.5967 65.3275 86.7592 66.295C86.8796 67.0129 87.8731 66.9433 88.4547 67.0129C91.9996 67.4365 95.688 68.6099 98.7876 70.3852C102.029 72.2954 104.466 75.3196 105.341 79.0283C105.625 80.238 106.163 83.6639 105.37 84.9446C105.088 85.1854 104.439 85.4508 104.114 85.564C101.557 86.4589 99.1154 89.1683 99.8232 92.0343C99.8885 92.2969 99.9741 92.3549 100.196 92.4782C101.016 92.4956 101.794 91.1786 102.463 91.2888C102.889 92.3331 102.215 94.1882 103.692 94.854C104.27 95.115 104.631 95.0048 105.186 94.8221C106.028 94.1346 105.624 92.6986 106.189 92.1359C107.014 92.014 107.537 93.8314 108.363 93.9939C109.466 94.21 109.416 91.8936 109.434 91.2511C110.63 91.8153 111.395 92.1649 111.662 90.4345C111.911 88.8448 111.115 87.274 109.685 86.5386C107.882 85.5944 107.831 86.0774 108.039 83.6595C108.127 82.6268 108.027 81.3316 107.879 80.2916C107.509 77.617 106.481 75.0759 104.885 72.8973C101.4 68.1196 96.3117 66.3501 90.8146 64.9881C89.9052 64.7633 88.9696 64.4993 88.0457 64.3558L88.0443 64.3572Z" fill="#EBEBEB"></path>
<path d="M48.137 99.897C47.4553 99.868 46.4298 101.001 45.9541 101.458C40.6774 106.536 36.2956 112.449 33.3977 119.198C33.0496 120.01 32.7058 120.996 32.2649 121.748C31.7674 121.057 31.0219 119.692 30.4896 118.874C28.0659 115.106 25.0577 111.64 20.776 109.973C19.8532 109.615 16.0842 108.415 15.5642 109.769C15.7502 109.992 18.4132 110.935 18.8022 111.35C18.8472 111.397 19.5112 111.817 19.5892 111.872C24.1831 115.021 26.5807 119.598 30.0356 123.797C30.8797 124.823 32.1793 126.306 33.2352 127.039C33.8343 126.212 34.3883 124.296 34.7712 123.233C35.2107 122.035 35.6647 120.843 36.1347 119.655C37.1354 117.179 38.3596 114.8 39.7926 112.549C41.4635 109.892 43.1446 107.764 45.2303 105.419C45.9149 104.66 46.6184 103.919 47.3407 103.195C47.9948 102.544 48.691 101.929 49.3292 101.262C49.599 100.982 49.7847 100.763 49.6788 100.376C49.2872 99.9884 48.7012 99.984 48.1384 99.8985L48.137 99.897Z" fill="#EBEBEB"></path>
<path d="M13.259 70.446C10.864 70.2821 9.63897 73.1134 10.142 75.1367C10.32 75.8547 10.512 76.0316 11.025 76.4914C11.079 76.2013 11.134 75.9112 11.191 75.6226C11.337 74.8916 11.684 73.8502 12.336 73.4948C13.624 72.7943 14.218 74.5304 13.797 75.5066C13.323 76.606 12.615 77.0121 11.645 77.4763C11.676 78.7903 11.634 79.4706 10.631 80.3989C12.499 80.0769 12.915 79.533 14.499 78.6279C15.265 78.8136 16.206 79.2255 17.076 79.4271C20.3631 80.19 23.2089 79.9884 26.3157 78.7425C28.3115 77.9012 31.34 76.1549 32.7861 74.5551C33.0225 73.3193 33.1255 72.8349 33.1023 71.5585C32.3118 72.1256 31.5445 72.8363 30.7787 73.4513C29.862 74.1794 28.8917 74.8336 27.872 75.4065C24.8551 77.0977 21.2261 77.8041 17.855 76.8424C13.362 75.5631 15.922 73.2628 14.727 71.309C14.428 70.8217 13.887 70.6085 13.359 70.4707L13.259 70.446Z" fill="#EBEBEB"></path>
<path d="M10.0801 78.0667C9.12708 78.3538 8.36508 78.4322 7.37508 78.4075C6.84108 78.3945 6.04508 78.3974 5.83308 78.9949C5.84208 79.4475 6.05507 79.6723 6.35107 80.0088C8.16507 81.3301 9.94808 80.177 10.0781 78.0667H10.0801Z" fill="#EBEBEB"></path>
<path d="M9.6434 69.5744C8.2064 69.4642 7.1994 69.9501 6.6854 71.3265C6.9114 72.0923 7.05741 72.3273 7.69341 72.7828C7.99041 72.9539 8.1204 73.0279 8.4354 73.1555C8.8724 71.5789 9.19841 70.9146 10.4414 69.8543C10.1744 69.7383 9.9184 69.6614 9.6434 69.5744Z" fill="#EBEBEB"></path>
<path d="M7.41386 74.574C6.09886 74.4986 5.69986 74.9149 6.10986 76.168C6.69086 76.6699 6.86886 76.7149 7.59086 76.9092C8.30086 76.9484 8.60786 76.8744 9.25586 76.667C9.24486 76.6525 9.23485 76.6351 9.22285 76.6206L9.16885 76.5423C8.36585 75.3834 8.92086 74.8989 7.41386 74.574Z" fill="#EBEBEB"></path>
<path d="M82.5625 108.061C82.1723 108.117 81.627 108.18 81.2745 108.324C81.9374 108.415 81.9736 108.359 82.5625 108.061Z" fill="#8D8D8F"></path>
</g>
</g>
<defs>
<clipPath id="clip0_1140_2965">
<rect width="120" height="135" fill="white" transform="matrix(-1 0 0 1 120 0)"></rect>
</clipPath>
</defs>
</svg>