<svg width="129" height="118" viewBox="0 0 129 118" fill="none" xmlns="http://www.w3.org/2000/svg">
<path d="M18.8439 46.0206C19.1472 44.0934 19.7438 41.6372 20.1526 39.6896L23.3074 24.863L25.6172 13.6855C26.0795 11.4008 26.4291 8.87863 27.1571 6.69208C28.0556 3.96623 30.5431 1.15098 33.3729 0.43728C37.3742 -0.572458 42.3694 0.432883 46.4386 0.800727L68.2725 2.95063L90.7999 5.25588C92.4177 5.43028 94.0356 5.59002 95.6549 5.73511C97.8145 5.93002 100.354 6.06045 102.48 6.86795C107.789 8.88156 113.256 14.6923 113.446 20.6819C113.488 22.0463 112.783 24.5962 112.475 25.9973L110.73 33.8729C110.167 36.461 109.589 39.0462 108.995 41.627C108.725 42.836 108.341 44.8584 107.959 45.9517C110.409 46.1495 112.411 46.365 114.77 47.2384C121.237 49.6184 125.978 55.2958 127.232 62.1573C127.4 63.0542 127.512 63.9614 127.569 64.8714C127.593 65.3272 127.582 67.1166 127.666 67.2676C129.808 71.0881 129.057 75.6136 127.608 79.6365C126.829 81.7952 124.749 84.7379 122.345 85.7154C120.72 86.3764 119.487 86.2855 117.799 85.5909C116.691 86.054 115.692 86.3265 114.489 86.1023C113.095 85.8517 111.86 85.0427 111.061 83.8571C110.086 82.396 110.09 80.9657 110.416 79.3067C104.614 75.7294 109.46 66.7854 114.304 64.5842C113.986 63.3898 113.766 62.5032 112.931 61.5491C111.026 59.367 108.053 59.0006 105.372 58.942C104.969 60.3855 104.559 62.5164 104.214 64.0244L101.973 73.6572C101.326 76.4065 100.816 79.0298 99.6143 81.568C96.8019 87.5107 90.4026 88.2376 84.665 87.2352C83.5354 87.0388 82.3119 86.9538 81.1519 86.7486C83.9572 89.4217 87.9729 89.8188 91.5525 88.6963C94.4574 87.7847 96.1273 86.6299 99.1954 87.8946C101.086 89.0231 101.839 90.068 102.841 92.0039C104.65 96.3917 107.861 104.125 106.188 108.824C105.589 110.405 104.185 111.955 102.626 112.583C96.8539 114.905 92.6359 108.171 90.7869 103.718C89.5821 103.984 88.5912 103.99 87.3691 103.968C82.621 103.87 78.0014 102.387 74.0607 99.6964C69.5336 96.5793 65.7923 91.2609 64.7725 85.7814C64.0025 85.7946 62.961 85.6451 62.1651 85.5586L58.1811 85.1409C57.1902 85.0354 56.0764 84.8786 55.0971 84.8727C48.0666 90.2087 43.9627 98.1913 41.8493 106.719C41.1401 109.367 41.0101 112.448 39.5771 114.818C36.3862 120.089 30.4925 117.825 26.3669 115.078C21.4368 111.796 16.3087 106.962 14.6085 101.052C14.2214 99.7081 14.4381 97.6359 15.2586 96.4972C18.6387 91.6376 25.8556 94.6858 29.7442 97.3193C30.2614 93.5002 33.9781 86.221 36.3298 83.2153L30.1458 82.4986C28.2477 82.2744 26.0578 82.0282 24.2276 81.5299C20.8893 80.6198 18.1158 78.3087 16.4647 75.2473C14.0928 70.8522 14.2864 66.2886 15.273 61.5477C15.559 60.173 15.7728 58.8335 16.1614 57.4618C12.8751 56.5312 9.90228 54.7052 7.56648 52.1816C4.70922 49.1494 2.81545 44.6635 2.39365 40.4927C2.3012 39.5826 2.32576 38.6783 2.34309 37.7639C-1.352 33.5549 -0.141488 25.5869 2.3012 21.0673C3.62438 18.6199 5.76805 15.8281 8.80588 15.8501C10.0077 15.8589 10.8253 16.2927 11.8423 16.8671C11.9968 16.7953 12.1601 16.7235 12.3219 16.6693C13.7577 16.1959 15.3207 16.3249 16.6612 17.0269C19.5965 18.5803 20.3115 21.9598 18.7948 24.8278C20.8373 26.327 21.4599 28.962 20.8763 31.3654C19.9807 35.0483 17.5785 37.2304 14.5522 39.1224C15.091 42.2733 15.4724 44.8775 18.8424 46.022L18.8439 46.0206Z" fill="#EBEBEB"></path>
<path d="M36.4049 3.26718C37.3944 3.14408 39.567 3.39761 40.62 3.49873L46.765 4.10252L89.7916 8.43165L95.5408 8.9944C97.0908 9.13949 98.4775 9.25526 100.027 9.53225C103.647 10.224 106.604 13.2107 108.618 16.1725C110.529 18.9833 109.995 20.95 109.327 23.9705L108.203 29.0529C106.713 35.6726 105.286 42.307 103.922 48.9545C105.751 48.9457 109.707 49.3634 111.478 49.7547C115.76 50.6677 119.492 53.3012 121.827 57.0544C123.544 59.8037 124.306 62.7582 124.282 65.9984C124.278 66.5289 124.306 67.4141 124.196 67.9065C124.547 68.3975 124.873 68.8723 125.125 69.4263C126.244 71.8927 125.64 75.6576 124.752 78.0991C124.07 79.8973 122.922 81.9036 121.119 82.7316C119.867 83.3076 118.748 82.8357 118.217 81.5651C117.164 82.3008 116.033 83.334 114.627 82.8415C114.112 82.6598 113.697 82.2627 113.488 81.7527C112.8 80.123 114.106 77.3635 114.728 75.788C113.398 76.5457 111.42 76.8813 111.051 74.8604C110.557 72.155 112.97 69.0335 115.178 67.7893C115.949 67.354 116.772 67.1357 117.643 66.9481C117.616 64.8333 117.36 62.9091 116.336 61.0289C113.589 55.9846 107.439 55.9333 102.45 55.9157C102.012 57.6201 101.606 59.6689 101.213 61.4114L98.6263 72.731C97.8333 76.1148 97.3883 80.3619 94.6004 82.6408C91.174 85.4414 86.514 84.1649 82.5011 83.8366C80.3213 83.6593 77.9711 83.4336 75.8057 83.1698C77.4915 89.4686 82.9532 93.2218 89.3452 92.4348C90.4272 92.2941 91.499 92.0787 92.5535 91.7885C94.102 91.3474 96.4913 90.1955 98.0687 91.0118C99.7212 92.0992 100.626 94.998 101.276 96.7903C102.265 99.5176 105.333 108.202 101.371 109.485C97.1457 110.852 93.959 103.42 92.8049 100.085C86.046 101.086 80.5828 100.532 74.8408 96.3023C72.2002 94.2359 69.915 91.1598 68.7608 87.9664C68.1671 86.328 67.858 84.6896 67.5243 82.9852C66.4958 82.8254 65.1307 82.7272 64.0618 82.6188L57.6813 81.9564C56.8825 81.8714 54.6738 81.6867 54.0281 81.4962C46.1641 86.9142 40.7501 96.9647 38.5457 106.127C38.1008 107.977 37.6689 112.032 36.6216 113.395C34.2627 116.463 28.6507 112.767 26.3294 111.086C22.9738 108.579 19.92 105.359 18.0364 101.559C17.4412 100.357 17.1812 98.6559 18.3513 97.7341C18.7225 97.4424 19.3596 97.1933 19.8261 97.1889C24.0962 97.1449 28.3676 99.7052 31.599 102.378C33.0869 94.9994 36.9452 86.0027 42.1021 80.4953C39.0311 80.2754 35.895 79.8959 32.8341 79.5588C27.4836 78.9682 22.7094 79.3185 19.5502 74.0998C18.867 72.9567 18.3527 71.7198 18.0263 70.4243C17.0483 66.677 17.7648 64.6472 18.5839 61.0215C19.0201 59.0123 19.4693 57.0075 19.9302 55.0056C18.9638 54.7829 18.045 54.7096 17.0165 54.437C13.7274 53.5709 10.834 51.5822 8.82033 48.805C6.39787 45.4388 4.98368 40.5513 5.6366 36.4068C1.22359 33.2545 3.31092 24.797 5.93562 21.1083C6.53221 20.2686 7.38736 19.2163 8.46931 19.0932C9.98173 18.9218 10.6419 19.8597 10.7849 21.2593C12.1601 19.8304 15.104 18.2007 16.2582 21.0644C16.8345 22.4932 15.2326 25.2469 14.4511 26.5776C15.0578 26.3666 15.7338 26.3563 16.303 26.7124C18.2978 27.9611 18.0349 30.7221 17.0035 32.5335C15.8378 34.5793 13.8444 36.1928 11.6039 36.8552C11.458 40.6304 11.9477 44.218 14.7169 47.0537C16.3795 48.7567 18.9017 49.2799 21.1912 49.2505C21.7156 46.5437 22.396 43.7593 22.9983 41.0598L26.4825 25.2733L28.7331 14.6308C29.1419 12.6538 29.5146 10.6519 29.9898 8.68958C30.8392 5.17235 32.9337 3.66434 36.4049 3.26718Z" fill="#101010"></path>
<path d="M87.0846 77.1656C86.3074 77.384 85.5115 77.5935 84.6982 77.5364C82.5545 77.3854 80.3675 77.1143 78.2282 76.8857L66.7818 75.7001L50.3691 74.0807C42.0082 73.2234 33.6127 72.2679 25.2301 71.7857C23.4981 71.6553 21.3183 71.2831 20.1396 69.8571C18.5246 67.9051 19.4592 64.8216 19.9417 62.5691L21.1537 57.0324L25.1088 39.1766L29.4149 19.2911L30.7626 12.9029C31.2205 10.7296 31.5268 7.82786 33.3295 6.34476C34.1674 5.65597 35.6393 5.12545 36.7314 5.15037C39.4428 5.21338 42.1845 5.56364 44.8901 5.83036L59.3122 7.25631L83.1728 9.64949L94.1584 10.7003C95.5899 10.8366 97.0445 10.9377 98.4631 11.0828C100.118 11.2513 102.142 11.7027 103.205 13.1198C103.598 13.6445 103.782 14.1076 103.704 14.7583C103.662 15.2126 103.562 15.6581 103.464 16.1021C103.068 17.9194 102.615 19.7234 102.219 21.5407L98.4024 38.8689L93.1342 63.3004C92.7196 65.1455 92.3181 66.992 91.9324 68.843C91.4499 71.1394 91.0642 74.5145 89.2542 76.1207C88.7674 76.553 87.736 77.0967 87.0831 77.1612L87.0846 77.1656Z" fill="#1010EB"></path>
<path d="M65.3575 59.9444C64.1239 60.1877 62.8859 60.5086 61.6465 60.727C58.1305 61.3527 54.5438 61.4583 50.9975 61.0435C36.4916 59.2673 28.083 48.2584 29.8901 33.6018C30.858 25.7481 34.5097 19.2471 40.6937 14.408C46.3158 9.92647 53.4864 7.94363 60.5732 8.91234C71.4707 10.3529 79.0414 18.019 80.6738 29.0323C80.8442 30.1989 80.9699 31.3728 81.0493 32.5496C81.071 32.9086 81.0204 34.2115 81.1996 34.4474C81.5853 34.3932 81.7788 33.722 81.9825 33.4054C82.8059 32.1392 82.7336 31.1046 82.6065 29.6625C81.9796 22.6134 78.5503 17.2775 73.2923 12.8194C73.9668 13.0539 74.8393 13.8658 75.4504 14.301C80.1884 17.679 83.921 22.7644 84.7892 28.7129C85.4378 27.4569 86.7148 25.1399 87.0976 23.8708C86.0127 23.4605 85.8018 23.1044 85.5476 21.9437C86.0315 21.0849 86.774 20.1382 87.3547 19.3248C88.3601 17.9135 89.3077 16.3747 90.5788 15.1979C93.0201 13.0671 97.3421 15.3474 97.9589 18.296C98.3374 20.0048 97.7942 21.6359 96.8929 23.0736C96.0623 24.3251 95.0164 26.1746 93.7265 26.9484C93.4433 27.1184 92.9392 27.2708 92.6156 27.3749L92.5593 27.4481C91.4759 28.8799 90.4026 30.8071 89.312 32.3298C88.5276 33.426 87.437 34.9193 86.7335 36.0228C86.5732 36.2764 85.9679 38.7619 85.8148 39.307C85.2543 41.3368 84.5855 43.3328 83.8127 45.2893C79.3881 56.1766 70.7875 63.5364 59.1302 65.3228C47.73 67.0697 36.6231 61.9082 31.625 51.0986C31.6134 51.0751 31.6149 50.9593 31.6149 50.9286C38.3103 61.1227 50.6176 64.2076 61.9369 61.5096C62.7935 61.1813 64.7623 60.491 65.3589 59.9444H65.3575Z" fill="black"></path>
<path d="M77.5767 52.1435L77.7024 52.2827C77.074 52.9715 76.5713 53.6148 75.8967 54.2787C72.8733 57.2097 69.2389 59.4153 65.265 60.7314C64.5254 60.9776 62.6331 61.6136 61.9354 61.511C62.792 61.1828 64.7609 60.4925 65.3575 59.9459C68.6308 58.857 75.2091 54.6217 77.5767 52.1435Z" fill="#FEFEFE"></path>
<path d="M77.5767 52.1435C77.8569 51.8577 78.1112 51.591 78.4145 51.3272C78.1849 51.6467 77.9552 51.9837 77.7024 52.2827L77.5767 52.1435Z" fill="#AA5E2A"></path>
<path d="M55.9334 24.3735C58.3299 24.3075 61.125 25.1092 63.0145 26.6392C64.7956 28.0607 65.9324 30.1535 66.165 32.4411C66.8179 38.6725 62.1059 44.259 56.1429 45.216C55.7514 45.279 55.3455 45.3186 54.9512 45.3582C52.26 45.5648 49.6671 44.8306 47.5971 43.0294C43.2823 39.2777 44.1375 32.2975 47.6491 28.3025C49.8997 25.7437 52.598 24.5743 55.9334 24.372V24.3735Z" fill="#FEFEFE"></path>
<path d="M55.841 25.7672C57.7506 25.6324 60.397 26.3475 61.947 27.5155C65.7374 30.3689 65.3821 36.2016 62.662 39.6969C60.6397 42.2967 58.3068 43.5482 55.0942 43.9747C52.5532 44.1037 50.5006 43.7886 48.4913 42.0241C47.0828 40.7623 46.2219 38.8146 46.1251 36.9183C45.8232 31.0723 50.073 26.0603 55.841 25.7687V25.7672Z" fill="#1010EB"></path>
<path d="M55.0263 31.3684C56.5878 31.0826 58.0872 32.1216 58.392 33.7015C58.6968 35.2813 57.6943 36.8171 56.1414 37.1498C55.1173 37.3682 54.0556 37.0106 53.3636 36.2134C52.6717 35.4161 52.4565 34.3023 52.8017 33.2985C53.1455 32.2946 53.9963 31.5574 55.0277 31.3684H55.0263Z" fill="black"></path>
<path d="M75.2496 45.1486C79.6294 40.6524 83.167 34.6599 86.1745 29.1335C86.8101 27.9537 87.4327 26.7652 88.0394 25.5679C88.3644 24.9348 88.7602 24.0716 89.1589 23.5C89.5908 22.8801 91.1523 22.3936 91.7605 23.0223C91.8717 23.2597 91.8746 23.4341 91.7691 23.673C91.0425 25.3231 89.9216 27.243 89.0289 28.7847C86.475 33.1988 80.4672 43.4559 76.541 46.2316C76.2839 45.9561 76.1495 45.7846 75.8317 45.5765C75.6584 45.4241 75.4388 45.279 75.2481 45.1471L75.2496 45.1486Z" fill="#FEFEFE"></path>
<path d="M68.9067 47.9052C70.3136 48.9721 71.6845 50.571 72.1641 52.3135C71.1298 53.5474 68.222 55.3925 66.7847 56.052C65.9627 56.518 64.7407 57.0647 63.7873 57.1702C62.4222 57.3211 62.4497 56.5136 62.3876 55.4423C62.3977 54.2069 62.5667 53.2792 63.2557 52.2285C64.5081 50.3218 66.8078 48.679 68.9067 47.9052Z" fill="#1010EB"></path>
<path d="M62.3861 55.4409C62.8426 54.8591 63.7396 53.7643 64.4489 53.5489L64.6107 53.5943C64.654 53.9827 64.6049 54.0369 64.8201 54.2934C65.4008 54.5176 67.2368 54.267 68.014 54.2362C67.5719 54.6612 66.8598 55.3324 66.7558 55.9641L66.7832 56.0535C65.9613 56.5195 64.7392 57.0661 63.7859 57.1716C62.4208 57.3226 62.4482 56.5151 62.3861 55.4438V55.4409Z" fill="#1010EB"></path>
<path d="M71.5054 46.3151C71.9373 45.5575 72.7087 45.1266 73.5378 44.9566C74.2225 44.8144 74.614 44.9507 75.251 45.15C75.4417 45.2834 75.6613 45.4285 75.8346 45.5794C75.878 46.639 76.3561 47.5476 75.3579 48.4518C74.1965 49.5026 74.016 49.2418 73.0987 48.1822C72.5686 47.5667 72.0139 46.9834 71.5068 46.3166L71.5054 46.3151Z" fill="#1010EB"></path>
<path d="M41.3784 23.3125C46.1165 16.4964 56.1602 12.7329 63.8769 16.2487C57.4516 14.729 52.6804 15.1891 46.8199 18.7445C45.1371 19.7645 42.7233 21.822 41.5185 23.4224L41.3799 23.3125H41.3784Z" fill="#FEFEFE"></path>
<path d="M55.0696 18.9511C56.9822 18.7679 60.5443 19.0507 62.2301 19.8201C57.2335 18.8925 52.9649 19.212 48.328 21.4175C46.6856 22.225 45.1703 23.4737 43.8746 24.7633C44.0132 24.5127 44.162 24.2709 44.3484 24.054C47.184 20.7713 50.905 19.3145 55.0696 18.9511Z" fill="#FEFEFE"></path>
<path d="M62.6158 47.2721L62.7053 47.3234C62.4699 47.5535 62.3688 47.5799 62.0972 47.7528C58.834 49.8294 54.9179 50.5519 51.1391 49.5554C51.0553 49.5349 51.0105 49.5041 50.931 49.4631C51.0755 49.4249 52.2903 49.5964 52.5316 49.614C55.9262 49.847 59.7123 49.0219 62.6158 47.2736V47.2721Z" fill="#FEFEFE"></path>
<path d="M60.8592 52.5538L60.9647 52.5699L60.917 52.6593C57.7925 54.2817 53.5976 54.0897 50.2882 53.184L49.7567 52.9598C49.8217 52.9114 51.818 53.2617 52.1358 53.2895C54.9396 53.5416 58.1941 53.5855 60.8607 52.5553L60.8592 52.5538Z" fill="#FEFEFE"></path>
<path d="M60.4967 56.5327L60.5472 56.5898C60.2598 56.7921 59.2573 57.0588 58.8817 57.1658C55.8756 58.0275 52.7815 57.9572 49.7639 57.1804C49.592 57.1409 49.6425 57.1526 49.4836 57.0588C49.6454 57.0075 51.8339 57.3006 52.2499 57.3343C55.1115 57.5659 57.7217 57.2112 60.4967 56.5327Z" fill="#FEFEFE"></path>
<path d="M41.3784 23.3125L41.5171 23.4224C41.3654 23.6129 41.0433 24.0818 40.8237 24.1097C40.9436 23.7873 41.156 23.5792 41.377 23.3125H41.3784Z" fill="#FEFEFE"></path>
<path d="M87.0846 77.1656C86.3074 77.384 85.5115 77.5935 84.6982 77.5364C82.5545 77.3854 80.3675 77.1143 78.2282 76.8857L66.7818 75.7001L50.3691 74.0807C42.0082 73.2234 33.6127 72.2679 25.2301 71.7857C23.4981 71.6553 21.3183 71.2831 20.1396 69.8571C18.5246 67.9051 19.4592 64.8216 19.9417 62.5691L21.1537 57.0324L25.1088 39.1766L29.4149 19.2911L30.7626 12.9029C31.2205 10.7296 31.5268 7.82786 33.3295 6.34476C34.1674 5.65597 35.6393 5.12545 36.7314 5.15037C39.4428 5.21338 42.1845 5.56364 44.8901 5.83036L59.3122 7.25631L83.1728 9.64949L94.1584 10.7003C95.5899 10.8366 97.0445 10.9377 98.4631 11.0828C100.118 11.2513 102.142 11.7027 103.205 13.1198C103.598 13.6445 103.782 14.1076 103.704 14.7583C103.494 14.534 103.266 14.2233 103.058 13.9801C101.811 12.5204 99.9856 12.2303 98.1886 12.0383C93.4607 11.5356 88.7154 11.2425 83.9817 10.7882C79.8923 10.4101 75.8072 9.98802 71.7264 9.52052C69.9641 9.32414 67.1704 8.88889 65.5279 8.82001C67.4275 9.48828 69.2158 10.1331 70.942 11.2C71.7437 11.6953 72.505 12.2947 73.2937 12.8179C78.5518 17.276 81.9811 22.6119 82.608 29.6611C82.7365 31.1031 82.8073 32.1378 81.9839 33.404C81.7788 33.7191 81.5867 34.3917 81.201 34.4459C81.0219 34.21 81.0725 32.9072 81.0508 32.5481C80.9713 31.3713 80.8457 30.1974 80.6752 29.0309C79.0429 18.0161 71.4722 10.35 60.5747 8.91087C53.4879 7.94217 46.3172 9.925 40.6952 14.4065C34.5126 19.2457 30.8594 25.7467 29.8916 33.6003C28.0845 48.2584 36.493 59.2659 50.9989 61.0421C54.5452 61.4583 58.132 61.3513 61.648 60.7255C62.8859 60.5071 64.1253 60.1862 65.3589 59.9429C64.7623 60.4896 62.792 61.1798 61.9369 61.5081C50.6176 64.2061 38.3103 61.1212 31.6149 50.9271C30.6904 49.3253 29.8598 47.8143 29.3152 46.0074C27.7291 40.7433 27.8692 34.2437 29.1433 28.9561C30.8637 21.8206 36.0409 15.3371 42.261 11.6543C44.9868 10.0349 47.9654 8.90208 51.0668 8.30268C52.1387 8.09165 53.6944 7.97441 54.6492 7.70036C50.2911 7.397 45.9359 6.96467 41.5922 6.53528C38.199 6.19967 33.7239 5.64864 32.7286 10.0349C32.3473 11.7188 32.0251 13.4144 31.6712 15.1056L29.6272 24.7531L24.5858 47.7543L21.6477 60.4749C21.3689 61.681 20.4516 65.2246 20.4083 66.3164C20.3707 67.3189 20.7405 68.2949 21.4325 69.013C22.5548 70.1883 24.2059 70.4624 25.7342 70.6778C27.9198 70.9856 30.1328 71.1101 32.3328 71.2816L43.5481 72.2093C54.122 73.156 64.6829 74.2346 75.2308 75.4451C76.9787 75.6298 86.1066 76.512 87.086 77.1568L87.0846 77.1656Z" fill="#FEFEFE"></path>
<path d="M87.2131 52.4864C87.3446 52.4791 87.4702 52.4747 87.6017 52.4879C87.9614 52.523 88.337 52.6271 88.5637 52.9319C88.9725 53.4844 88.0668 57.7491 87.9773 58.7309C88.8021 59.8096 89.039 60.8208 89.0087 62.172C88.9379 65.2789 89.1314 66.9495 85.5173 67.0008C85.3425 68.267 84.873 72.1594 84.418 73.1531C83.5888 73.1941 83.1786 73.2439 82.5964 72.5844C82.5415 71.8385 83.2624 67.7072 83.4155 66.7458C81.6387 66.2607 80.6694 65.9442 80.6203 63.7049C80.5958 62.553 80.6998 59.2527 81.4451 58.432C82.1515 57.6523 84.6751 58.3543 85.783 58.347H85.9029C86.0662 56.773 86.2886 54.9763 86.5689 53.4185C86.657 52.9231 86.8101 52.7238 87.2131 52.4864Z" fill="black"></path>
<path d="M82.1515 59.0094C82.9475 58.8922 86.1962 59.024 86.6021 59.8052C86.9372 60.4515 86.384 62.6336 86.1803 63.381C84.8643 63.6258 82.9633 63.1714 81.6517 62.8666C81.6532 62.0562 81.8655 59.726 82.1515 59.0094Z" fill="#FEFEFE"></path>
<path d="M28.4427 58.1506C29.4481 58.0539 30.4549 58.3353 31.2697 58.9405C34.4548 61.2604 34.3725 67.4082 29.7125 68.1747C26.8942 68.2319 24.9715 66.5758 24.5945 63.7181C24.2305 60.9541 25.4901 58.495 28.4427 58.1521V58.1506Z" fill="black"></path>
<path d="M28.044 59.1222C29.6243 58.8379 31.1368 59.899 31.4314 61.4993C31.7276 63.1011 30.6976 64.6443 29.1216 64.9608C28.0888 65.1689 27.0256 64.7967 26.3366 63.9877C25.649 63.1788 25.441 62.0577 25.7935 61.0509C26.1459 60.044 27.0054 59.3084 28.0411 59.1222H28.044Z" fill="#FEFEFE"></path>
<path d="M73.847 62.4651C79.0025 62.1207 81.0999 70.8874 75.0112 72.2693C69.0295 73.0827 67.9475 63.721 73.847 62.4651Z" fill="black"></path>
<path d="M71.2598 66.1142C71.5704 64.4289 73.1521 63.1143 74.8567 63.4792C75.6078 63.6433 76.2622 64.1064 76.6739 64.763C78.0231 66.8895 76.3099 68.9661 74.068 69.2738C72.0947 69.1156 71.2251 68.1014 71.2598 66.1157V66.1142Z" fill="#FEFEFE"></path>
<path d="M71.2598 66.1142C71.5704 64.4289 73.1521 63.1143 74.8567 63.4792C75.6078 63.6433 76.2622 64.1064 76.6739 64.763C78.0231 66.8895 76.3099 68.9661 74.068 69.2738C75.0661 68.4722 76.0787 67.6632 76.0383 66.227C76.0109 65.0414 75.0575 64.2618 73.9091 64.3981C72.6986 64.5417 71.9748 65.1997 71.2598 66.1157V66.1142Z" fill="#FEFEFE"></path>
<path d="M32.7084 105.599C33.175 103.369 33.4509 101.232 34.0605 98.9974C35.6726 93.0943 39.2478 85.5806 43.6882 81.4083C43.967 81.59 44.2747 81.7849 44.5463 81.974C43.5438 83.246 42.6337 84.354 41.7121 85.7066C37.7252 91.5613 34.5372 99.3476 33.5087 106.403C33.2371 106.137 32.9655 105.878 32.707 105.599H32.7084Z" fill="#FEFEFE"></path>
<path d="M69.223 82.9485C69.4975 83.3926 69.7171 84.2103 69.9207 84.713C72.2811 90.5707 76.528 95.379 82.7712 96.9471C84.1811 97.3018 85.6935 97.5567 87.1467 97.7092C88.3398 97.866 92.542 97.9393 93.3552 98.3188C85.6617 100.18 76.489 98.0858 72.0052 91.0264C70.5144 88.6831 69.4383 85.733 69.2245 82.9485H69.223Z" fill="#FEFEFE"></path>
<path d="M101.164 50.5006C106.759 50.7615 113.986 50.6604 118.059 55.0232C117.879 55.0115 115.527 53.927 115.111 53.7731C114.106 53.4097 113.079 53.1136 112.036 52.885C108.293 52.0497 104.716 52.035 100.988 51.6643C101.03 51.2979 101.108 50.8699 101.164 50.5006Z" fill="#FEFEFE"></path>
</svg>