<svg width="118" height="119" viewBox="0 0 118 119" fill="none" xmlns="http://www.w3.org/2000/svg">
<circle cx="59" cy="61.2322" r="51.5" fill="#1010EB" stroke="#EBEBEB" stroke-width="11"></circle>
<circle cx="59" cy="61.2322" r="50" fill="#1010EB" stroke="#101010" stroke-width="8"></circle>
<circle cx="59" cy="61.2322" r="49" fill="#1010EB" stroke="#10EB10" stroke-width="6"></circle>
<mask id="path-4-outside-1_647_1052" maskUnits="userSpaceOnUse" x="15.1318" y="-6.10352e-05" width="62" height="29" fill="black">
<rect fill="white" x="15.1318" y="-6.10352e-05" width="62" height="29"></rect>
<path d="M23.9135 16.5857L27.0423 21.2158C27.1091 21.1876 27.1635 21.1576 27.2057 21.1259C27.3602 21.0097 27.3589 20.8275 27.2016 20.5793L23.6659 15.2324C23.716 14.9968 23.8985 14.6837 24.2133 14.2931C24.5199 13.9307 24.8231 13.6368 25.1229 13.4115C25.8301 12.8798 26.4808 12.6435 27.075 12.7026C27.6692 12.7617 28.1582 13.0465 28.542 13.557C28.7567 13.8427 29.122 14.5724 29.6378 15.7461C30.1547 16.9115 30.8326 18.5057 31.6716 20.5286C31.9595 21.2431 31.9234 21.941 31.5632 22.6222C31.2451 23.2132 30.6856 23.8097 29.8847 24.4118C29.3789 24.7921 28.8589 25.095 28.3248 25.3206C27.7907 25.5462 27.3086 25.6557 26.8785 25.6491C25.8959 25.1124 24.682 24.2729 23.237 23.1307C21.7885 21.9839 20.4213 20.7503 19.1354 19.4299C19.0863 18.4479 19.5418 17.596 20.5019 16.8742C21.7384 15.9447 22.8756 15.8485 23.9135 16.5857Z"></path>
<path d="M34.6266 9.81413L38.7413 17.9073C38.6073 18.2384 38.375 18.5766 38.0446 18.9221C37.7141 19.2676 37.2616 19.5864 36.687 19.8786C36.1125 20.1707 35.5591 20.291 35.0268 20.2395C34.4316 20.1937 34.0053 19.9175 33.7477 19.4109L29.633 11.3177C29.767 10.9867 29.9993 10.6484 30.3297 10.3029C30.6602 9.95738 31.1101 9.6399 31.6794 9.35045C32.2487 9.061 32.8061 8.9354 33.3514 8.97367C33.9466 9.03256 34.3717 9.31272 34.6266 9.81413Z"></path>
<path d="M39.1583 16.7007L36.5584 8.28655C36.4685 7.99544 36.6264 7.68293 37.0323 7.34902C37.442 7.00778 37.9631 6.73943 38.5957 6.54396C38.954 6.43326 39.3037 6.37425 39.6449 6.36696C39.99 6.35233 40.2672 6.38625 40.4767 6.46872C40.7961 6.6889 41.0978 6.92074 41.3815 7.16424C41.6653 7.40773 42.3115 7.98077 43.3202 8.88338C43.3817 8.86435 43.4317 8.82746 43.4699 8.7727C43.5082 8.71795 43.5152 8.65138 43.491 8.57301C43.4651 8.48903 43.3458 8.35111 43.1332 8.15923L41.7437 6.87755L41.601 6.41569C41.8138 6.09235 42.1047 5.80316 42.4736 5.54813C42.8425 5.29309 43.2452 5.09812 43.6819 4.96319C44.3929 4.74351 45.0065 4.69497 45.5227 4.81756C46.1273 4.96805 46.5308 5.3708 46.7332 6.02579L49.1903 13.9781C49.3391 14.4595 49.2177 14.8803 48.8261 15.2405C48.4947 15.5575 48.0016 15.8172 47.3466 16.0196C46.9827 16.132 46.6151 16.2027 46.2438 16.2316C45.8781 16.2587 45.5782 16.241 45.3442 16.1784C44.7894 15.7917 44.2182 15.3427 43.6309 14.8311L42.3333 13.6683C42.1779 13.7408 42.1235 13.8527 42.1702 14.0038C42.1996 14.099 42.337 14.2558 42.5824 14.4744L44.1562 15.8463L44.2937 16.2914C43.774 16.9119 43.1055 17.3484 42.2882 17.601C41.4764 17.8518 40.7924 17.9007 40.2361 17.7475C39.6853 17.5927 39.3261 17.2437 39.1583 16.7007Z"></path>
<path d="M50.0528 13.4434L49.4014 4.6609C49.3789 4.35705 49.6027 4.0878 50.073 3.85316C50.5487 3.61224 51.1166 3.46729 51.7769 3.41832C52.1509 3.39058 52.505 3.41133 52.8391 3.48055C53.1787 3.5435 53.4413 3.63859 53.627 3.76583C53.8892 4.05191 54.1312 4.34536 54.3533 4.64616C54.5754 4.94696 55.077 5.65007 55.8582 6.75548C55.9225 6.75071 55.9794 6.72592 56.0289 6.68112C56.0785 6.63631 56.1002 6.57301 56.0942 6.4912C56.0877 6.40355 56.0023 6.24244 55.838 6.00785L54.7705 4.44777L54.7347 3.9657C55.0145 3.69817 55.3627 3.4814 55.7793 3.31536C56.1959 3.14933 56.6321 3.04941 57.0879 3.01561C57.83 2.96057 58.4389 3.05054 58.9146 3.28553C59.4702 3.56747 59.7733 4.05028 59.824 4.73395L60.4396 13.0344C60.4769 13.5369 60.2644 13.9199 59.8022 14.1833C59.4083 14.4182 58.8695 14.561 58.1859 14.6117C57.8061 14.6398 57.432 14.6265 57.0636 14.5715C56.7011 14.5161 56.4128 14.4318 56.1988 14.3184C55.7445 13.8174 55.2883 13.2519 54.8303 12.622L53.8258 11.1982C53.658 11.2342 53.58 11.331 53.5917 11.4888C53.5991 11.5881 53.6979 11.7718 53.8882 12.0397L55.1151 13.729L55.1496 14.1935C54.5042 14.682 53.755 14.9579 52.9019 15.0212C52.0546 15.084 51.377 14.9786 50.869 14.7049C50.3669 14.4307 50.0948 14.0102 50.0528 13.4434Z"></path>
<path d="M65.0299 12.2145C65.1922 12.239 65.2868 12.1614 65.3139 11.9818C64.1618 10.9371 63.3403 9.74367 62.8493 8.40158C62.3641 7.06037 62.1937 5.63623 62.3379 4.12918C62.6571 3.78029 63.0903 3.54042 63.6374 3.40958C64.1903 3.2796 64.742 3.2561 65.2924 3.33908C66.0166 3.44826 66.6181 3.6841 67.0967 4.04661C67.2893 4.9704 67.43 5.8449 67.519 6.67011C67.0464 7.8788 66.8101 8.48314 66.8101 8.48314C66.7739 8.56656 66.75 8.64593 66.7387 8.72125C66.709 8.91824 66.7984 9.03246 67.007 9.0639C67.1097 8.85421 67.3724 8.21237 67.795 7.13837C67.9016 6.86407 68.045 6.48275 68.2252 5.9944C68.4122 5.50113 68.6416 4.92243 68.9136 4.25828C69.4851 4.0837 70.1126 4.04795 70.7963 4.15101C71.6249 4.27591 72.2548 4.57827 72.6861 5.05808C73.1184 5.5321 73.2773 6.14861 73.1628 6.90762C72.9951 8.02005 72.5189 9.05634 71.7342 10.0165C71.116 10.7766 70.3467 11.4576 69.4264 12.0596L68.994 14.9276C68.4686 15.1506 68.0077 15.2796 67.6113 15.3146C67.2141 15.3555 66.804 15.344 66.381 15.2803C65.5814 15.1597 64.9755 14.9143 64.5632 14.544C64.1509 14.1738 63.9897 13.6902 64.0797 13.0935L64.3103 11.5639C64.3988 11.6839 64.5146 11.8198 64.6577 11.9718C64.8015 12.1179 64.9256 12.1988 65.0299 12.2145Z"></path>
</mask>
<path d="M23.9135 16.5857L27.0423 21.2158C27.1091 21.1876 27.1635 21.1576 27.2057 21.1259C27.3602 21.0097 27.3589 20.8275 27.2016 20.5793L23.6659 15.2324C23.716 14.9968 23.8985 14.6837 24.2133 14.2931C24.5199 13.9307 24.8231 13.6368 25.1229 13.4115C25.8301 12.8798 26.4808 12.6435 27.075 12.7026C27.6692 12.7617 28.1582 13.0465 28.542 13.557C28.7567 13.8427 29.122 14.5724 29.6378 15.7461C30.1547 16.9115 30.8326 18.5057 31.6716 20.5286C31.9595 21.2431 31.9234 21.941 31.5632 22.6222C31.2451 23.2132 30.6856 23.8097 29.8847 24.4118C29.3789 24.7921 28.8589 25.095 28.3248 25.3206C27.7907 25.5462 27.3086 25.6557 26.8785 25.6491C25.8959 25.1124 24.682 24.2729 23.237 23.1307C21.7885 21.9839 20.4213 20.7503 19.1354 19.4299C19.0863 18.4479 19.5418 17.596 20.5019 16.8742C21.7384 15.9447 22.8756 15.8485 23.9135 16.5857Z" fill="#EBEBEB"></path>
<path d="M34.6266 9.81413L38.7413 17.9073C38.6073 18.2384 38.375 18.5766 38.0446 18.9221C37.7141 19.2676 37.2616 19.5864 36.687 19.8786C36.1125 20.1707 35.5591 20.291 35.0268 20.2395C34.4316 20.1937 34.0053 19.9175 33.7477 19.4109L29.633 11.3177C29.767 10.9867 29.9993 10.6484 30.3297 10.3029C30.6602 9.95738 31.1101 9.6399 31.6794 9.35045C32.2487 9.061 32.8061 8.9354 33.3514 8.97367C33.9466 9.03256 34.3717 9.31272 34.6266 9.81413Z" fill="#EBEBEB"></path>
<path d="M39.1583 16.7007L36.5584 8.28655C36.4685 7.99544 36.6264 7.68293 37.0323 7.34902C37.442 7.00778 37.9631 6.73943 38.5957 6.54396C38.954 6.43326 39.3037 6.37425 39.6449 6.36696C39.99 6.35233 40.2672 6.38625 40.4767 6.46872C40.7961 6.6889 41.0978 6.92074 41.3815 7.16424C41.6653 7.40773 42.3115 7.98077 43.3202 8.88338C43.3817 8.86435 43.4317 8.82746 43.4699 8.7727C43.5082 8.71795 43.5152 8.65138 43.491 8.57301C43.4651 8.48903 43.3458 8.35111 43.1332 8.15923L41.7437 6.87755L41.601 6.41569C41.8138 6.09235 42.1047 5.80316 42.4736 5.54813C42.8425 5.29309 43.2452 5.09812 43.6819 4.96319C44.3929 4.74351 45.0065 4.69497 45.5227 4.81756C46.1273 4.96805 46.5308 5.3708 46.7332 6.02579L49.1903 13.9781C49.3391 14.4595 49.2177 14.8803 48.8261 15.2405C48.4947 15.5575 48.0016 15.8172 47.3466 16.0196C46.9827 16.132 46.6151 16.2027 46.2438 16.2316C45.8781 16.2587 45.5782 16.241 45.3442 16.1784C44.7894 15.7917 44.2182 15.3427 43.6309 14.8311L42.3333 13.6683C42.1779 13.7408 42.1235 13.8527 42.1702 14.0038C42.1996 14.099 42.337 14.2558 42.5824 14.4744L44.1562 15.8463L44.2937 16.2914C43.774 16.9119 43.1055 17.3484 42.2882 17.601C41.4764 17.8518 40.7924 17.9007 40.2361 17.7475C39.6853 17.5927 39.3261 17.2437 39.1583 16.7007Z" fill="#EBEBEB"></path>
<path d="M50.0528 13.4434L49.4014 4.6609C49.3789 4.35705 49.6027 4.0878 50.073 3.85316C50.5487 3.61224 51.1166 3.46729 51.7769 3.41832C52.1509 3.39058 52.505 3.41133 52.8391 3.48055C53.1787 3.5435 53.4413 3.63859 53.627 3.76583C53.8892 4.05191 54.1312 4.34536 54.3533 4.64616C54.5754 4.94696 55.077 5.65007 55.8582 6.75548C55.9225 6.75071 55.9794 6.72592 56.0289 6.68112C56.0785 6.63631 56.1002 6.57301 56.0942 6.4912C56.0877 6.40355 56.0023 6.24244 55.838 6.00785L54.7705 4.44777L54.7347 3.9657C55.0145 3.69817 55.3627 3.4814 55.7793 3.31536C56.1959 3.14933 56.6321 3.04941 57.0879 3.01561C57.83 2.96057 58.4389 3.05054 58.9146 3.28553C59.4702 3.56747 59.7733 4.05028 59.824 4.73395L60.4396 13.0344C60.4769 13.5369 60.2644 13.9199 59.8022 14.1833C59.4083 14.4182 58.8695 14.561 58.1859 14.6117C57.8061 14.6398 57.432 14.6265 57.0636 14.5715C56.7011 14.5161 56.4128 14.4318 56.1988 14.3184C55.7445 13.8174 55.2883 13.2519 54.8303 12.622L53.8258 11.1982C53.658 11.2342 53.58 11.331 53.5917 11.4888C53.5991 11.5881 53.6979 11.7718 53.8882 12.0397L55.1151 13.729L55.1496 14.1935C54.5042 14.682 53.755 14.9579 52.9019 15.0212C52.0546 15.084 51.377 14.9786 50.869 14.7049C50.3669 14.4307 50.0948 14.0102 50.0528 13.4434Z" fill="#EBEBEB"></path>
<path d="M65.0299 12.2145C65.1922 12.239 65.2868 12.1614 65.3139 11.9818C64.1618 10.9371 63.3403 9.74367 62.8493 8.40158C62.3641 7.06037 62.1937 5.63623 62.3379 4.12918C62.6571 3.78029 63.0903 3.54042 63.6374 3.40958C64.1903 3.2796 64.742 3.2561 65.2924 3.33908C66.0166 3.44826 66.6181 3.6841 67.0967 4.04661C67.2893 4.9704 67.43 5.8449 67.519 6.67011C67.0464 7.8788 66.8101 8.48314 66.8101 8.48314C66.7739 8.56656 66.75 8.64593 66.7387 8.72125C66.709 8.91824 66.7984 9.03246 67.007 9.0639C67.1097 8.85421 67.3724 8.21237 67.795 7.13837C67.9016 6.86407 68.045 6.48275 68.2252 5.9944C68.4122 5.50113 68.6416 4.92243 68.9136 4.25828C69.4851 4.0837 70.1126 4.04795 70.7963 4.15101C71.6249 4.27591 72.2548 4.57827 72.6861 5.05808C73.1184 5.5321 73.2773 6.14861 73.1628 6.90762C72.9951 8.02005 72.5189 9.05634 71.7342 10.0165C71.116 10.7766 70.3467 11.4576 69.4264 12.0596L68.994 14.9276C68.4686 15.1506 68.0077 15.2796 67.6113 15.3146C67.2141 15.3555 66.804 15.344 66.381 15.2803C65.5814 15.1597 64.9755 14.9143 64.5632 14.544C64.1509 14.1738 63.9897 13.6902 64.0797 13.0935L64.3103 11.5639C64.3988 11.6839 64.5146 11.8198 64.6577 11.9718C64.8015 12.1179 64.9256 12.1988 65.0299 12.2145Z" fill="#EBEBEB"></path>
<path d="M23.9135 16.5857L27.0423 21.2158C27.1091 21.1876 27.1635 21.1576 27.2057 21.1259C27.3602 21.0097 27.3589 20.8275 27.2016 20.5793L23.6659 15.2324C23.716 14.9968 23.8985 14.6837 24.2133 14.2931C24.5199 13.9307 24.8231 13.6368 25.1229 13.4115C25.8301 12.8798 26.4808 12.6435 27.075 12.7026C27.6692 12.7617 28.1582 13.0465 28.542 13.557C28.7567 13.8427 29.122 14.5724 29.6378 15.7461C30.1547 16.9115 30.8326 18.5057 31.6716 20.5286C31.9595 21.2431 31.9234 21.941 31.5632 22.6222C31.2451 23.2132 30.6856 23.8097 29.8847 24.4118C29.3789 24.7921 28.8589 25.095 28.3248 25.3206C27.7907 25.5462 27.3086 25.6557 26.8785 25.6491C25.8959 25.1124 24.682 24.2729 23.237 23.1307C21.7885 21.9839 20.4213 20.7503 19.1354 19.4299C19.0863 18.4479 19.5418 17.596 20.5019 16.8742C21.7384 15.9447 22.8756 15.8485 23.9135 16.5857Z" stroke="#070707" stroke-width="6" mask="url(#path-4-outside-1_647_1052)"></path>
<path d="M34.6266 9.81413L38.7413 17.9073C38.6073 18.2384 38.375 18.5766 38.0446 18.9221C37.7141 19.2676 37.2616 19.5864 36.687 19.8786C36.1125 20.1707 35.5591 20.291 35.0268 20.2395C34.4316 20.1937 34.0053 19.9175 33.7477 19.4109L29.633 11.3177C29.767 10.9867 29.9993 10.6484 30.3297 10.3029C30.6602 9.95738 31.1101 9.6399 31.6794 9.35045C32.2487 9.061 32.8061 8.9354 33.3514 8.97367C33.9466 9.03256 34.3717 9.31272 34.6266 9.81413Z" stroke="#070707" stroke-width="6" mask="url(#path-4-outside-1_647_1052)"></path>
<path d="M39.1583 16.7007L36.5584 8.28655C36.4685 7.99544 36.6264 7.68293 37.0323 7.34902C37.442 7.00778 37.9631 6.73943 38.5957 6.54396C38.954 6.43326 39.3037 6.37425 39.6449 6.36696C39.99 6.35233 40.2672 6.38625 40.4767 6.46872C40.7961 6.6889 41.0978 6.92074 41.3815 7.16424C41.6653 7.40773 42.3115 7.98077 43.3202 8.88338C43.3817 8.86435 43.4317 8.82746 43.4699 8.7727C43.5082 8.71795 43.5152 8.65138 43.491 8.57301C43.4651 8.48903 43.3458 8.35111 43.1332 8.15923L41.7437 6.87755L41.601 6.41569C41.8138 6.09235 42.1047 5.80316 42.4736 5.54813C42.8425 5.29309 43.2452 5.09812 43.6819 4.96319C44.3929 4.74351 45.0065 4.69497 45.5227 4.81756C46.1273 4.96805 46.5308 5.3708 46.7332 6.02579L49.1903 13.9781C49.3391 14.4595 49.2177 14.8803 48.8261 15.2405C48.4947 15.5575 48.0016 15.8172 47.3466 16.0196C46.9827 16.132 46.6151 16.2027 46.2438 16.2316C45.8781 16.2587 45.5782 16.241 45.3442 16.1784C44.7894 15.7917 44.2182 15.3427 43.6309 14.8311L42.3333 13.6683C42.1779 13.7408 42.1235 13.8527 42.1702 14.0038C42.1996 14.099 42.337 14.2558 42.5824 14.4744L44.1562 15.8463L44.2937 16.2914C43.774 16.9119 43.1055 17.3484 42.2882 17.601C41.4764 17.8518 40.7924 17.9007 40.2361 17.7475C39.6853 17.5927 39.3261 17.2437 39.1583 16.7007Z" stroke="#070707" stroke-width="6" mask="url(#path-4-outside-1_647_1052)"></path>
<path d="M50.0528 13.4434L49.4014 4.6609C49.3789 4.35705 49.6027 4.0878 50.073 3.85316C50.5487 3.61224 51.1166 3.46729 51.7769 3.41832C52.1509 3.39058 52.505 3.41133 52.8391 3.48055C53.1787 3.5435 53.4413 3.63859 53.627 3.76583C53.8892 4.05191 54.1312 4.34536 54.3533 4.64616C54.5754 4.94696 55.077 5.65007 55.8582 6.75548C55.9225 6.75071 55.9794 6.72592 56.0289 6.68112C56.0785 6.63631 56.1002 6.57301 56.0942 6.4912C56.0877 6.40355 56.0023 6.24244 55.838 6.00785L54.7705 4.44777L54.7347 3.9657C55.0145 3.69817 55.3627 3.4814 55.7793 3.31536C56.1959 3.14933 56.6321 3.04941 57.0879 3.01561C57.83 2.96057 58.4389 3.05054 58.9146 3.28553C59.4702 3.56747 59.7733 4.05028 59.824 4.73395L60.4396 13.0344C60.4769 13.5369 60.2644 13.9199 59.8022 14.1833C59.4083 14.4182 58.8695 14.561 58.1859 14.6117C57.8061 14.6398 57.432 14.6265 57.0636 14.5715C56.7011 14.5161 56.4128 14.4318 56.1988 14.3184C55.7445 13.8174 55.2883 13.2519 54.8303 12.622L53.8258 11.1982C53.658 11.2342 53.58 11.331 53.5917 11.4888C53.5991 11.5881 53.6979 11.7718 53.8882 12.0397L55.1151 13.729L55.1496 14.1935C54.5042 14.682 53.755 14.9579 52.9019 15.0212C52.0546 15.084 51.377 14.9786 50.869 14.7049C50.3669 14.4307 50.0948 14.0102 50.0528 13.4434Z" stroke="#070707" stroke-width="6" mask="url(#path-4-outside-1_647_1052)"></path>
<path d="M65.0299 12.2145C65.1922 12.239 65.2868 12.1614 65.3139 11.9818C64.1618 10.9371 63.3403 9.74367 62.8493 8.40158C62.3641 7.06037 62.1937 5.63623 62.3379 4.12918C62.6571 3.78029 63.0903 3.54042 63.6374 3.40958C64.1903 3.2796 64.742 3.2561 65.2924 3.33908C66.0166 3.44826 66.6181 3.6841 67.0967 4.04661C67.2893 4.9704 67.43 5.8449 67.519 6.67011C67.0464 7.8788 66.8101 8.48314 66.8101 8.48314C66.7739 8.56656 66.75 8.64593 66.7387 8.72125C66.709 8.91824 66.7984 9.03246 67.007 9.0639C67.1097 8.85421 67.3724 8.21237 67.795 7.13837C67.9016 6.86407 68.045 6.48275 68.2252 5.9944C68.4122 5.50113 68.6416 4.92243 68.9136 4.25828C69.4851 4.0837 70.1126 4.04795 70.7963 4.15101C71.6249 4.27591 72.2548 4.57827 72.6861 5.05808C73.1184 5.5321 73.2773 6.14861 73.1628 6.90762C72.9951 8.02005 72.5189 9.05634 71.7342 10.0165C71.116 10.7766 70.3467 11.4576 69.4264 12.0596L68.994 14.9276C68.4686 15.1506 68.0077 15.2796 67.6113 15.3146C67.2141 15.3555 66.804 15.344 66.381 15.2803C65.5814 15.1597 64.9755 14.9143 64.5632 14.544C64.1509 14.1738 63.9897 13.6902 64.0797 13.0935L64.3103 11.5639C64.3988 11.6839 64.5146 11.8198 64.6577 11.9718C64.8015 12.1179 64.9256 12.1988 65.0299 12.2145Z" stroke="#070707" stroke-width="6" mask="url(#path-4-outside-1_647_1052)"></path>
<path d="M92.2688 54.7726C92.0478 53.3681 91.613 51.578 91.3152 50.1585L89.0163 39.3527L87.3332 31.2064C86.9963 29.5413 86.7416 27.7031 86.2111 26.1095C85.5564 24.1229 83.7438 22.0711 81.6818 21.5509C78.7661 20.815 75.1262 21.5477 72.161 21.8158L56.251 23.3827L39.8358 25.0628C38.6568 25.1899 37.4779 25.3063 36.298 25.4121C34.7243 25.5541 32.8739 25.6492 31.3245 26.2377C27.4562 27.7052 23.4721 31.9402 23.3342 36.3055C23.3037 37.2998 23.8173 39.1583 24.0415 40.1794L25.3131 45.9193C25.7236 47.8055 26.1446 49.6896 26.5772 51.5705C26.7741 52.4517 27.0541 53.9257 27.3319 54.7225C25.5467 54.8666 24.0878 55.0237 22.3689 55.6602C17.6565 57.3948 14.2019 61.5326 13.2882 66.5333C13.1661 67.187 13.084 67.8481 13.0429 68.5114C13.025 68.8436 13.0335 70.1477 12.9724 70.2577C11.4114 73.0422 11.9588 76.3405 13.0145 79.2724C13.5819 80.8457 15.0976 82.9904 16.8491 83.7028C18.0333 84.1845 18.9322 84.1183 20.1617 83.612C20.969 83.9495 21.6974 84.1482 22.5742 83.9848C23.59 83.8021 24.4899 83.2125 25.072 82.3485C25.7825 81.2836 25.7794 80.2411 25.5415 79.0321C29.7698 76.4249 26.2383 69.9063 22.7089 68.3021C22.9405 67.4316 23.1005 66.7854 23.7089 66.0901C25.0973 64.4997 27.2635 64.2327 29.2171 64.19C29.5108 65.242 29.8098 66.795 30.0613 67.8941L31.6939 74.9146C32.1655 76.9183 32.537 78.8302 33.4128 80.6801C35.4622 85.0112 40.1252 85.541 44.3061 84.8104C45.1293 84.6673 46.0208 84.6053 46.8661 84.4558C44.8219 86.404 41.8957 86.6934 39.2874 85.8753C37.1706 85.2109 35.9538 84.3693 33.7181 85.291C32.3402 86.1135 31.7918 86.875 31.0613 88.2859C29.7434 91.4838 27.4035 97.1201 28.6224 100.544C29.0593 101.697 30.0824 102.827 31.2181 103.284C35.4243 104.977 38.4979 100.069 39.8452 96.8232C40.7231 97.0175 41.4452 97.0218 42.3357 97.0058C45.7956 96.9342 49.1618 95.8533 52.0333 93.8923C55.3321 91.6205 58.0583 87.7444 58.8015 83.7509C59.3625 83.7605 60.1214 83.6515 60.7014 83.5885L63.6045 83.2841C64.3266 83.2072 65.1381 83.0929 65.8518 83.0886C70.9748 86.9775 73.9652 92.7954 75.5051 99.0106C76.022 100.941 76.1167 103.186 77.1609 104.913C79.4861 108.755 83.7807 107.105 86.7869 105.103C90.3794 102.71 94.1161 99.1879 95.355 94.8803C95.6371 93.9009 95.4792 92.3906 94.8814 91.5607C92.4183 88.0189 87.1595 90.2405 84.3259 92.1599C83.9491 89.3765 81.2407 84.0713 79.5271 81.8806L84.0333 81.3583C85.4164 81.1949 87.0121 81.0155 88.3458 80.6523C90.7783 79.9891 92.7993 78.3047 94.0024 76.0735C95.7308 72.8703 95.5898 69.5443 94.8708 66.089C94.6624 65.0871 94.5066 64.1109 94.2235 63.1112C96.6181 62.433 98.7844 61.1021 100.486 59.2629C102.568 57.053 103.948 53.7836 104.256 50.7438C104.323 50.0806 104.305 49.4215 104.293 48.7551C106.985 45.6875 106.103 39.8803 104.323 36.5864C103.359 34.8027 101.797 32.768 99.5833 32.784C98.7075 32.7904 98.1118 33.1065 97.3707 33.5252C97.2581 33.4729 97.1392 33.4206 97.0213 33.381C95.975 33.0361 94.8361 33.13 93.8593 33.6417C91.7204 34.7738 91.1994 37.2368 92.3046 39.3271C90.8162 40.4197 90.3626 42.3401 90.7878 44.0918C91.4404 46.7759 93.1909 48.3663 95.3961 49.7452C95.0035 52.0416 94.7256 53.9395 92.2699 54.7737L92.2688 54.7726Z" fill="#EBEBEB"></path>
<path d="M79.4724 23.6134C78.7513 23.5237 77.1682 23.7085 76.4009 23.7822L71.9231 24.2222L40.5705 27.3773L36.3811 27.7875C35.2517 27.8932 34.2412 27.9776 33.1118 28.1795C30.474 28.6836 28.3193 30.8604 26.852 33.019C25.4594 35.0675 25.8488 36.5009 26.3351 38.7022L27.1541 42.4064C28.2403 47.2309 29.2803 52.0661 30.274 56.911C28.9414 56.9045 26.0583 57.209 24.7678 57.4941C21.6479 58.1595 18.928 60.0789 17.227 62.8143C15.9755 64.818 15.4208 66.9712 15.4376 69.3328C15.4408 69.7194 15.4208 70.3646 15.5007 70.7234C15.245 71.0812 15.0071 71.4273 14.8239 71.831C14.0082 73.6286 14.4482 76.3725 15.0955 78.152C15.5923 79.4625 16.4291 80.9247 17.7428 81.5282C18.6554 81.9479 19.4701 81.604 19.8575 80.678C20.6248 81.2142 21.449 81.9672 22.4732 81.6083C22.8489 81.4758 23.151 81.1864 23.3037 80.8147C23.8047 79.627 22.8531 77.6158 22.3995 76.4676C23.3689 77.0198 24.8099 77.2644 25.0794 75.7915C25.4394 73.8198 23.6805 71.5448 22.0721 70.638C21.51 70.3208 20.91 70.1616 20.2753 70.0249C20.2953 68.4837 20.4816 67.0813 21.2279 65.7109C23.23 62.0346 27.7109 61.9972 31.3466 61.9844C31.6655 63.2265 31.9613 64.7197 32.2476 65.9897L34.1328 74.2396C34.7107 76.7058 35.0349 79.8011 37.0664 81.462C39.5631 83.5031 42.9588 82.5728 45.8829 82.3335C47.4713 82.2043 49.1839 82.0398 50.7617 81.8475C49.5333 86.4382 45.5535 89.1735 40.8957 88.6C40.1073 88.4974 39.3263 88.3404 38.5579 88.1289C37.4295 87.8074 35.6885 86.9679 34.5391 87.5629C33.3349 88.3554 32.676 90.468 32.2023 91.7743C31.4813 93.762 29.2456 100.091 32.1328 101.026C35.2117 102.023 37.5337 96.6063 38.3747 94.1754C43.2999 94.9049 47.2808 94.5011 51.4649 91.4186C53.389 89.9126 55.0542 87.6707 55.8952 85.3434C56.3279 84.1493 56.5531 82.9551 56.7963 81.713C57.5457 81.5965 58.5404 81.525 59.3193 81.4459L63.9687 80.9632C64.5508 80.9012 66.1602 80.7666 66.6307 80.6278C72.361 84.5765 76.3062 91.9014 77.9124 98.5791C78.2366 99.927 78.5514 102.882 79.3145 103.876C81.0334 106.112 85.1227 103.419 86.8142 102.193C89.2594 100.366 91.4846 98.0194 92.8572 95.2499C93.2909 94.374 93.4803 93.134 92.6277 92.4622C92.3572 92.2496 91.893 92.068 91.553 92.0648C88.4416 92.0328 85.329 93.8987 82.9744 95.8469C81.8902 90.4691 79.0787 83.9121 75.3209 79.8983C77.5588 79.7381 79.8439 79.4614 82.0744 79.2158C85.9732 78.7853 89.4521 79.0406 91.7541 75.2372C92.252 74.404 92.6267 73.5026 92.8646 72.5584C93.5772 69.8273 93.0551 68.348 92.4583 65.7056C92.1404 64.2412 91.813 62.7801 91.4773 61.3211C92.1814 61.1587 92.8509 61.1053 93.6003 60.9067C95.9971 60.2754 98.1055 58.826 99.5728 56.802C101.338 54.3486 102.368 50.7866 101.893 47.766C105.108 45.4686 103.587 39.3046 101.675 36.6163C101.24 36.0043 100.617 35.2374 99.8286 35.1477C98.7265 35.0227 98.2455 35.7063 98.1412 36.7263C97.1392 35.6849 94.994 34.4972 94.153 36.5842C93.733 37.6256 94.9003 39.6325 95.4698 40.6024C95.0277 40.4486 94.5351 40.4411 94.1203 40.7006C92.6667 41.6106 92.8583 43.6229 93.6098 44.9431C94.4593 46.4341 95.9118 47.6101 97.5444 48.0928C97.6507 50.8442 97.2939 53.4589 95.2761 55.5257C94.0645 56.7668 92.2267 57.1481 90.5583 57.1267C90.1762 55.154 89.6805 53.1246 89.2415 51.1572L86.7027 39.6518L85.0627 31.8953C84.7648 30.4545 84.4933 28.9955 84.147 27.5653C83.528 25.0019 82.0018 23.9029 79.4724 23.6134Z" fill="#101010"></path>
<path d="M42.543 77.4716C43.1093 77.6307 43.6893 77.7835 44.2819 77.7418C45.844 77.6318 47.4376 77.4342 48.9965 77.2676L57.3373 76.4035L69.2969 75.2233C75.3894 74.5984 81.507 73.9021 87.6153 73.5507C88.8773 73.4556 90.4657 73.1843 91.3246 72.1451C92.5014 70.7224 91.8204 68.4751 91.4688 66.8335L90.5857 62.7982L87.7037 49.7847L84.5659 35.2918L83.5838 30.6361C83.2502 29.0521 83.027 26.9373 81.7134 25.8564C81.1029 25.3544 80.0303 24.9677 79.2345 24.9859C77.2588 25.0318 75.2609 25.2871 73.2894 25.4815L62.7803 26.5207L45.3935 28.2649L37.3885 29.0307C36.3453 29.1301 35.2854 29.2038 34.2517 29.3095C33.0454 29.4323 31.5708 29.7613 30.796 30.7941C30.5097 31.1765 30.3761 31.514 30.4329 31.9883C30.4634 32.3194 30.5361 32.6441 30.6076 32.9677C30.896 34.2921 31.2266 35.6069 31.515 36.9314L34.2959 49.5604L38.1348 67.3664C38.4369 68.7112 38.7295 70.0569 39.0105 71.4059C39.3621 73.0796 39.6431 75.5394 40.962 76.71C41.3168 77.0251 42.0683 77.4214 42.5441 77.4684L42.543 77.4716Z" fill="#1010EB"></path>
<path d="M58.3752 64.9205C59.2741 65.0978 60.1762 65.3317 61.0793 65.4909C63.6413 65.947 66.2549 66.0239 68.839 65.7216C79.4092 64.4271 85.5364 56.4036 84.2196 45.7217C83.5144 39.9978 80.8534 35.2598 76.3472 31.733C72.2505 28.4668 67.0254 27.0217 61.8614 27.7277C53.9206 28.7776 48.4039 34.3647 47.2145 42.3914C47.0903 43.2416 46.9987 44.0971 46.9408 44.9548C46.925 45.2165 46.9618 46.166 46.8313 46.338C46.5503 46.2985 46.4092 45.8093 46.2608 45.5786C45.6608 44.6557 45.7135 43.9017 45.8061 42.8507C46.2629 37.7132 48.7618 33.8243 52.5932 30.5752C52.1017 30.7461 51.4659 31.3378 51.0207 31.655C47.5681 34.117 44.8482 37.8232 44.2156 42.1586C43.743 41.2432 42.8125 39.5546 42.5336 38.6296C43.3241 38.3305 43.4778 38.071 43.663 37.2251C43.3104 36.5992 42.7694 35.9092 42.3462 35.3164C41.6136 34.2878 40.9231 33.1664 39.9968 32.3087C38.2179 30.7557 35.0686 32.4176 34.6191 34.5666C34.3433 35.812 34.7391 37.0008 35.3959 38.0486C36.0012 38.9607 36.7632 40.3086 37.7032 40.8726C37.9095 40.9965 38.2769 41.1076 38.5126 41.1834L38.5537 41.2368C39.3431 42.2803 40.1252 43.6849 40.9199 44.7946C41.4915 45.5935 42.2862 46.6819 42.7988 47.4862C42.9157 47.671 43.3567 49.4824 43.4683 49.8797C43.8767 51.359 44.364 52.8138 44.9272 54.2397C48.1513 62.1745 54.4184 67.5384 62.9129 68.8404C71.22 70.1136 79.3134 66.3518 82.9554 58.4736C82.9638 58.4565 82.9628 58.3721 82.9628 58.3497C78.084 65.7793 69.1159 68.0276 60.8677 66.0612C60.2435 65.822 58.8088 65.3189 58.3741 64.9205H58.3752Z" fill="black"></path>
<path d="M49.4712 59.2351L49.3797 59.3366C49.8375 59.8386 50.2038 60.3075 50.6954 60.7913C52.8985 62.9275 55.5468 64.5349 58.4425 65.4941C58.9815 65.6735 60.3604 66.1371 60.8688 66.0623C60.2446 65.8231 58.8099 65.32 58.3752 64.9216C55.99 64.128 51.1964 61.0412 49.4712 59.2351Z" fill="#FEFEFE"></path>
<path d="M49.4712 59.2351C49.267 59.0268 49.0818 58.8324 48.8607 58.6402C49.0281 58.873 49.1955 59.1187 49.3797 59.3366L49.4712 59.2351Z" fill="#AA5E2A"></path>
<path d="M65.2423 38.996C63.4961 38.9479 61.4593 39.5321 60.0825 40.6472C58.7846 41.6833 57.9562 43.2085 57.7868 44.8758C57.311 49.4173 60.7446 53.4888 65.0897 54.1863C65.3749 54.2322 65.6707 54.261 65.9581 54.2899C67.9191 54.4405 69.8085 53.9054 71.3169 52.5927C74.461 49.8584 73.8378 44.7711 71.279 41.8595C69.639 39.9946 67.6728 39.1423 65.2423 38.9949V38.996Z" fill="#FEFEFE"></path>
<path d="M65.3097 40.0117C63.9181 39.9135 61.9898 40.4347 60.8603 41.2859C58.0983 43.3655 58.3573 47.6165 60.3393 50.1639C61.8129 52.0586 63.5129 52.9708 65.8539 53.2816C67.7054 53.3756 69.2011 53.146 70.6653 51.86C71.6916 50.9404 72.3189 49.5209 72.3894 48.1388C72.6094 43.8782 69.5127 40.2253 65.3097 40.0128V40.0117Z" fill="#1010EB"></path>
<path d="M65.9033 44.0939C64.7655 43.8857 63.6729 44.6429 63.4508 45.7943C63.2287 46.9457 63.9592 48.0651 65.0907 48.3075C65.837 48.4667 66.6107 48.2061 67.1149 47.625C67.6191 47.044 67.7759 46.2322 67.5243 45.5006C67.2738 44.769 66.6538 44.2317 65.9023 44.0939H65.9033Z" fill="black"></path>
<path d="M51.167 54.1371C47.9755 50.8603 45.3977 46.4929 43.2062 42.4651C42.743 41.6053 42.2894 40.7391 41.8473 39.8665C41.6104 39.405 41.322 38.7759 41.0315 38.3594C40.7168 37.9076 39.5789 37.553 39.1358 38.0112C39.0547 38.1842 39.0526 38.3113 39.1295 38.4854C39.6589 39.6881 40.4757 41.0873 41.1262 42.2109C42.9872 45.428 47.365 52.9035 50.2259 54.9265C50.4133 54.7257 50.5112 54.6007 50.7428 54.449C50.8691 54.3379 51.0291 54.2322 51.168 54.1361L51.167 54.1371Z" fill="#FEFEFE"></path>
<path d="M55.7889 56.1462C54.7637 56.9238 53.7648 58.0891 53.4153 59.359C54.169 60.2583 56.2879 61.6031 57.3352 62.0837C57.9341 62.4233 58.8246 62.8217 59.5193 62.8986C60.514 63.0087 60.494 62.4201 60.5393 61.6394C60.5319 60.739 60.4088 60.0629 59.9067 59.2971C58.9941 57.9075 57.3184 56.7102 55.7889 56.1462Z" fill="#1010EB"></path>
<path d="M60.5404 61.6383C60.2077 61.2143 59.5541 60.4164 59.0372 60.2594L58.9194 60.2925C58.8878 60.5756 58.9236 60.6151 58.7667 60.802C58.3436 60.9654 57.0057 60.7828 56.4394 60.7603C56.7615 61.0701 57.2805 61.5593 57.3562 62.0196L57.3362 62.0848C57.9352 62.4244 58.8257 62.8228 59.5204 62.8997C60.5151 63.0097 60.4951 62.4212 60.5404 61.6404V61.6383Z" fill="#1010EB"></path>
<path d="M53.8953 54.9873C53.5806 54.4351 53.0185 54.1211 52.4143 53.9972C51.9154 53.8936 51.6301 53.9929 51.1659 54.1382C51.027 54.2354 50.867 54.3411 50.7407 54.4512C50.7091 55.2234 50.3607 55.8856 51.088 56.5446C51.9343 57.3104 52.0659 57.1203 52.7343 56.3481C53.1206 55.8995 53.5248 55.4744 53.8943 54.9884L53.8953 54.9873Z" fill="#1010EB"></path>
<path d="M75.8483 38.2227C72.3958 33.255 65.077 30.5122 59.4541 33.0745C64.136 31.9669 67.6128 32.3023 71.8831 34.8935C73.1094 35.6368 74.8683 37.1364 75.7462 38.3028L75.8472 38.2227H75.8483Z" fill="#FEFEFE"></path>
<path d="M65.8718 35.0441C64.4781 34.9105 61.8824 35.1167 60.654 35.6774C64.295 35.0013 67.4054 35.2342 70.7842 36.8416C71.981 37.4302 73.0852 38.3402 74.0294 39.2801C73.9283 39.0974 73.8199 38.9212 73.6841 38.7631C71.6179 36.3706 68.9064 35.3089 65.8718 35.0441Z" fill="#FEFEFE"></path>
<path d="M60.373 55.6848L60.3077 55.7222C60.4793 55.8899 60.553 55.9091 60.7509 56.0351C63.1287 57.5486 65.9823 58.0752 68.7359 57.3489C68.7969 57.3339 68.8296 57.3115 68.8875 57.2816C68.7822 57.2538 67.897 57.3788 67.7212 57.3916C65.2476 57.5614 62.4887 56.9601 60.373 55.6859V55.6848Z" fill="#FEFEFE"></path>
<path d="M61.653 59.5342L61.5761 59.5459L61.6108 59.6111C63.8876 60.7934 66.9444 60.6535 69.3559 59.9935L69.7432 59.83C69.6959 59.7948 68.2412 60.0501 68.0096 60.0704C65.9665 60.2541 63.595 60.2861 61.6519 59.5352L61.653 59.5342Z" fill="#FEFEFE"></path>
<path d="M61.9172 62.434L61.8803 62.4757C62.0898 62.6231 62.8203 62.8175 63.094 62.8954C65.2844 63.5235 67.5391 63.4722 69.738 62.9061C69.8632 62.8773 69.8264 62.8858 69.9422 62.8175C69.8243 62.7801 68.2296 62.9937 67.9264 63.0183C65.8412 63.187 63.9392 62.9285 61.9172 62.434Z" fill="#FEFEFE"></path>
<path d="M75.8483 38.2227L75.7472 38.3028C75.8578 38.4416 76.0925 38.7834 76.2525 38.8037C76.1651 38.5687 76.0104 38.4171 75.8493 38.2227H75.8483Z" fill="#FEFEFE"></path>
<path d="M42.543 77.4716C43.1093 77.6307 43.6893 77.7835 44.2819 77.7418C45.844 77.6318 47.4376 77.4342 48.9965 77.2676L57.3373 76.4035L69.2969 75.2233C75.3894 74.5984 81.507 73.9021 87.6153 73.5507C88.8773 73.4556 90.4657 73.1843 91.3246 72.1451C92.5014 70.7224 91.8204 68.4751 91.4688 66.8335L90.5857 62.7982L87.7037 49.7847L84.5659 35.2918L83.5838 30.6361C83.2502 29.0521 83.027 26.9373 81.7134 25.8564C81.1029 25.3544 80.0303 24.9677 79.2345 24.9859C77.2588 25.0318 75.2609 25.2871 73.2894 25.4815L62.7803 26.5207L45.3935 28.2649L37.3885 29.0307C36.3453 29.1301 35.2854 29.2038 34.2517 29.3095C33.0454 29.4323 31.5708 29.7613 30.796 30.7941C30.5097 31.1765 30.3761 31.514 30.4329 31.9883C30.5855 31.8248 30.7518 31.5984 30.9034 31.4211C31.8118 30.3573 33.1423 30.1458 34.4517 30.0059C37.8969 29.6395 41.3547 29.4259 44.804 29.0948C47.7839 28.8193 50.7607 28.5116 53.7343 28.1709C55.0184 28.0278 57.0542 27.7106 58.251 27.6604C56.8668 28.1474 55.5637 28.6174 54.3058 29.3949C53.7216 29.756 53.1669 30.1928 52.5922 30.5741C48.7607 33.8232 46.2619 37.7121 45.805 42.8496C45.7114 43.9006 45.6598 44.6547 46.2598 45.5775C46.4092 45.8071 46.5492 46.2974 46.8303 46.3369C46.9608 46.165 46.9239 45.2154 46.9397 44.9537C46.9976 44.0961 47.0892 43.2405 47.2134 42.3903C48.4029 34.3626 53.9195 28.7755 61.8603 27.7266C67.0244 27.0206 72.2495 28.4657 76.3462 31.7319C80.8513 35.2587 83.5133 39.9968 84.2185 45.7206C85.5353 56.4036 79.4082 64.426 68.838 65.7205C66.2539 66.0239 63.6403 65.9459 61.0782 65.4898C60.1762 65.3307 59.273 65.0968 58.3741 64.9195C58.8088 65.3179 60.2446 65.8209 60.8677 66.0602C69.1159 68.0265 78.084 65.7782 82.9628 58.3486C83.6365 57.1812 84.2417 56.08 84.6385 54.763C85.7943 50.9265 85.6922 46.1895 84.7638 42.3359C83.5101 37.1354 79.7376 32.4102 75.2051 29.7261C73.2189 28.5458 71.0484 27.7202 68.7885 27.2833C68.0075 27.1295 66.8738 27.0441 66.1781 26.8444C69.3538 26.6233 72.5273 26.3082 75.6925 25.9952C78.1651 25.7506 81.426 25.349 82.1512 28.5458C82.4291 29.7731 82.6639 31.0088 82.9217 32.2414L84.4112 39.2726L88.0847 56.0362L90.2257 65.3072C90.4289 66.1862 91.0973 68.7688 91.1288 69.5646C91.1562 70.2951 90.8867 71.0065 90.3826 71.5298C89.5647 72.3864 88.3616 72.5862 87.2479 72.7432C85.6553 72.9675 84.0428 73.0583 82.4397 73.1832L74.2673 73.8593C66.5623 74.5493 58.8667 75.3354 51.1807 76.2177C49.907 76.3522 43.2556 76.9952 42.542 77.4652L42.543 77.4716Z" fill="#FEFEFE"></path>
<path d="M42.4494 59.485C42.3536 59.4797 42.262 59.4765 42.1662 59.4861C41.9041 59.5117 41.6304 59.5876 41.4652 59.8097C41.1673 60.2124 41.8273 63.3205 41.8925 64.0362C41.2915 64.8223 41.1189 65.5592 41.141 66.544C41.1926 68.8084 41.0515 70.026 43.6851 70.0634C43.8125 70.9862 44.1546 73.823 44.4861 74.5472C45.0903 74.5771 45.3893 74.6134 45.8135 74.1328C45.8535 73.5891 45.3282 70.5782 45.2166 69.8775C46.5113 69.524 47.2176 69.2933 47.2534 67.6612C47.2713 66.8217 47.1955 64.4164 46.6524 63.8183C46.1377 63.25 44.2988 63.7617 43.4914 63.7563H43.4041C43.2851 62.6092 43.123 61.2997 42.9188 60.1643C42.8546 59.8033 42.743 59.6581 42.4494 59.485Z" fill="black"></path>
<path d="M46.1377 64.2391C45.5577 64.1536 43.1904 64.2498 42.8946 64.8191C42.6504 65.2901 43.0536 66.8805 43.202 67.4252C44.1609 67.6036 45.5461 67.2724 46.5019 67.0503C46.5008 66.4596 46.3461 64.7614 46.1377 64.2391Z" fill="#FEFEFE"></path>
<path d="M85.2743 63.6132C84.5417 63.5427 83.808 63.7478 83.2144 64.1889C80.8934 65.8797 80.9534 70.3603 84.3491 70.9189C86.4027 70.9605 87.8037 69.7536 88.0784 67.6708C88.3437 65.6564 87.4258 63.8642 85.2743 63.6143V63.6132Z" fill="black"></path>
<path d="M85.5648 64.3213C84.4133 64.1141 83.3112 64.8874 83.0965 66.0538C82.8807 67.2212 83.6312 68.3459 84.7796 68.5766C85.5322 68.7282 86.3069 68.457 86.809 67.8674C87.31 67.2778 87.4616 66.4607 87.2048 65.7269C86.9479 64.9932 86.3216 64.457 85.5669 64.3213H85.5648Z" fill="#FEFEFE"></path>
<path d="M52.189 66.7576C48.4323 66.5066 46.904 72.8959 51.3407 73.9031C55.6995 74.4959 56.4879 67.673 52.189 66.7576Z" fill="black"></path>
<path d="M54.0742 69.4172C53.8479 68.1889 52.6953 67.2308 51.4533 67.4967C50.9059 67.6164 50.4291 67.9539 50.1291 68.4324C49.146 69.9822 50.3944 71.4957 52.028 71.72C53.4659 71.6046 54.0995 70.8655 54.0742 69.4182V69.4172Z" fill="#FEFEFE"></path>
<path d="M54.0742 69.4172C53.8479 68.1889 52.6953 67.2308 51.4533 67.4967C50.9059 67.6164 50.4291 67.9539 50.1291 68.4324C49.146 69.9822 50.3944 71.4957 52.028 71.72C51.3007 71.1357 50.5628 70.5461 50.5923 69.4994C50.6123 68.6353 51.307 68.0671 52.1438 68.1664C53.0259 68.2711 53.5532 68.7507 54.0742 69.4182V69.4172Z" fill="#FEFEFE"></path>
<path d="M82.166 98.1946C81.826 96.5689 81.6249 95.0117 81.1807 93.3829C80.006 89.0806 77.4009 83.6045 74.1652 80.5637C73.962 80.6961 73.7378 80.8382 73.5399 80.976C74.2704 81.9031 74.9336 82.7105 75.6051 83.6964C78.5103 87.9634 80.8334 93.6381 81.5828 98.7799C81.7807 98.5866 81.9786 98.3975 82.167 98.1946H82.166Z" fill="#FEFEFE"></path>
<path d="M55.5584 81.6863C55.3584 82.0099 55.1984 82.6059 55.05 82.9722C53.3301 87.2414 50.2354 90.7458 45.6861 91.8886C44.6588 92.1471 43.5567 92.3329 42.4978 92.444C41.6283 92.5583 38.5663 92.6117 37.9737 92.8883C43.5798 94.2448 50.2638 92.7185 53.5311 87.5735C54.6174 85.8657 55.4016 83.7156 55.5574 81.6863H55.5584Z" fill="#FEFEFE"></path>
<path d="M32.2834 58.0378C28.2067 58.2279 22.9405 58.1542 19.9722 61.3339C20.1038 61.3254 21.8174 60.535 22.1205 60.4228C22.8531 60.1579 23.6015 59.9422 24.3615 59.7756C27.0888 59.1668 29.695 59.1561 32.4118 58.8858C32.3813 58.6188 32.3244 58.3069 32.2834 58.0378Z" fill="#FEFEFE"></path>
<g clip-path="url(#clip0_647_1052)">
<path d="M73.6135 99.8036C73.5086 99.4615 73.4165 98.7169 73.3819 98.3325C73.0925 95.1237 73.2915 91.5452 74.3063 88.4758C76.2019 82.7422 81.1019 77.8355 86.9248 76.1383C90.7988 75.0091 95.0621 74.7784 98.9151 76.1301C99.7171 76.4174 100.496 76.7668 101.243 77.1752C101.637 77.3878 102.085 77.73 102.496 77.8575C102.945 77.4488 103.458 77.1168 104.015 76.8747C105.65 76.1541 107.505 76.1168 109.167 76.7712C110.541 77.323 112.055 78.4762 112.642 79.8613C112.773 80.0088 112.832 80.151 112.935 80.3153C113.462 81.1615 113.65 82.3083 113.731 83.3029C113.781 83.5226 113.772 83.8089 113.732 84.0308C113.697 85.5339 112.991 87.0362 112.001 88.064C111.949 88.1186 112.245 88.8131 112.324 89.0054L112.445 89.2987C112.481 89.4062 112.567 89.6871 112.608 89.7778L112.724 90.1663C112.891 90.7327 113.032 91.2155 113.175 91.7926L113.213 91.9573C113.242 92.099 113.273 92.2846 113.308 92.4208C113.326 92.496 113.351 92.6281 113.377 92.6962C113.593 93.9431 113.743 95.18 113.726 96.448C113.725 96.5647 113.72 96.8956 113.686 96.9905C113.674 97.1056 113.665 97.5434 113.656 97.5775C113.652 97.6262 113.646 97.7575 113.63 97.7946C113.44 99.7051 113.173 101.021 112.569 102.863C112.551 102.921 112.519 103.04 112.492 103.086C112.105 104.127 111.638 105.135 111.094 106.102C111.046 106.188 110.845 106.554 110.793 106.608C110.703 106.749 110.625 106.876 110.542 107.022C110.435 107.208 110.338 107.334 110.208 107.507C110.131 107.634 110.069 107.745 109.972 107.859L109.96 107.877C109.874 107.994 109.711 108.228 109.61 108.323C109.489 108.478 109.376 108.633 109.237 108.772C109.17 108.864 109.127 108.928 109.048 109.008C109.024 109.034 108.924 109.144 108.903 109.159C108.827 109.251 108.708 109.404 108.625 109.482C108.508 109.639 107.936 110.242 107.787 110.332C107.429 110.699 107.046 111.041 106.641 111.355C106.541 111.436 106.352 111.597 106.253 111.662C105.296 112.401 104.277 113.056 103.206 113.619C102.967 113.747 102.582 113.961 102.343 114.057C101.973 114.222 101.601 114.385 101.229 114.544C100.416 114.892 98.9862 115.279 98.1126 115.476L97.8982 115.532L97.493 115.602C97.2179 115.654 96.9417 115.701 96.6645 115.741C96.5059 115.768 96.3637 115.793 96.2032 115.809C95.9814 115.837 95.4553 115.903 95.239 115.901C94.1674 116.024 90.4969 115.931 89.565 115.583C88.7451 115.504 87.3233 115.028 86.5473 114.747C84.2282 113.93 81.9662 112.502 80.0941 110.922C79.9721 110.812 79.8545 110.715 79.7274 110.612C79.1363 110.108 78.5346 109.443 78.0365 108.86C76.3106 106.838 75.0315 104.57 74.2252 102.036C73.982 101.272 73.7532 100.617 73.6135 99.8036ZM113.424 94.9435C113.422 94.8809 113.421 94.862 113.409 94.8008L113.353 94.7737C113.363 94.8391 113.371 94.8875 113.386 94.9525L113.424 94.9435ZM82.479 80.9972C82.4167 80.9681 82.4391 80.9778 82.3638 80.9767C82.4265 81.023 82.3914 81.0143 82.467 81.0155L82.479 80.9972Z" fill="#FCFCFC"></path>
<path d="M112.368 89.9215L112.436 89.8893C112.604 89.9616 112.533 90.0755 112.724 90.1663C112.891 90.7327 113.033 91.2155 113.176 91.7925L113.214 91.9573C113.242 92.099 113.274 92.2846 113.309 92.4208C113.326 92.496 113.352 92.6281 113.378 92.6962C113.593 93.9431 113.744 95.18 113.727 96.448C113.726 96.5647 113.721 96.8956 113.687 96.9905C113.675 97.1056 113.666 97.5433 113.657 97.5775C113.653 97.6262 113.646 97.7574 113.63 97.7946C113.44 99.7051 113.174 101.021 112.57 102.863C112.552 102.921 112.519 103.04 112.492 103.086C112.106 104.127 111.639 105.135 111.095 106.102C111.047 106.188 110.846 106.554 110.793 106.608C110.704 106.749 110.626 106.876 110.543 107.022C110.436 107.208 110.338 107.334 110.208 107.507C110.132 107.634 110.07 107.745 109.973 107.859L109.96 107.877C109.874 107.994 109.712 108.228 109.61 108.323C109.49 108.478 109.377 108.633 109.238 108.772C109.171 108.864 109.128 108.928 109.049 109.008C109.025 109.034 108.924 109.144 108.904 109.159C108.828 109.251 108.708 109.404 108.626 109.482C108.509 109.639 107.937 110.242 107.788 110.332C107.43 110.699 107.047 111.041 106.642 111.355C106.542 111.436 106.353 111.597 106.254 111.662C105.297 112.401 104.277 113.056 103.207 113.619C102.967 113.747 102.583 113.961 102.344 114.057C101.974 114.222 101.602 114.385 101.229 114.544C100.417 114.892 98.987 115.279 98.1133 115.476L97.899 115.532L97.4937 115.602C97.2186 115.654 96.9425 115.701 96.6652 115.741C96.5066 115.768 96.3644 115.793 96.2039 115.809C95.9822 115.837 95.4561 115.903 95.2398 115.901C94.1682 116.024 90.4977 115.931 89.5657 115.583C88.7459 115.504 87.3241 115.028 86.548 114.747C84.2289 113.93 81.967 112.502 80.0949 110.922C79.9729 110.812 79.8553 110.715 79.7282 110.612C79.1371 110.108 78.5354 109.443 78.0372 108.86C76.3113 106.838 75.0323 104.57 74.2259 102.036C73.9827 101.272 73.7539 100.617 73.6143 99.8036C73.684 99.9146 74.0225 101.16 74.1252 101.452C76.1022 107.074 80.6496 111.488 86.2286 113.51C89.5966 114.744 93.2347 115.046 96.7604 114.387C97.9266 114.173 99.0411 113.897 100.157 113.488C103.559 112.226 106.534 110.025 108.737 107.142C109.73 105.862 110.593 104.509 111.226 103.021C112.463 100.111 113.078 97.1069 112.909 93.9431C112.834 92.5413 112.755 91.2874 112.368 89.9215ZM113.424 94.9435C113.422 94.8809 113.422 94.862 113.41 94.8008L113.354 94.7737C113.364 94.839 113.371 94.8874 113.386 94.9525L113.424 94.9435Z" fill="#030303"></path>
<path d="M86.5479 114.747C86.7537 114.659 86.694 114.658 86.9155 114.737C87.0019 114.767 87.1346 114.843 87.207 114.877C87.3102 114.925 87.4367 114.819 87.5955 114.909C87.6041 114.97 87.6062 114.99 87.6061 115.052C87.6745 115.099 87.66 115.057 87.7378 115.088L87.7419 115L87.7903 114.992C87.845 115.038 87.8677 115.062 87.9164 115.116C87.9806 115.137 88.0285 115.082 88.0649 115.037L88.0018 115.008L87.9891 114.96L88.0223 114.93C88.14 114.965 88.1215 115.038 88.1668 115.067C88.27 115.132 88.4076 115.09 88.5146 115.179L88.5449 115.245C88.4977 115.268 88.5224 115.261 88.4709 115.266L88.4506 115.289C88.5024 115.3 88.561 115.311 88.6109 115.327L88.6325 115.305C88.5835 115.207 88.554 115.192 88.5644 115.102L88.5868 115.099C88.6283 115.195 88.6513 115.272 88.725 115.345C88.9624 115.21 88.9722 115.419 89.1263 115.229C89.1649 115.297 89.1589 115.357 89.1625 115.436C89.233 115.488 89.4528 115.514 89.5315 115.491C89.5516 115.536 89.555 115.536 89.5655 115.583C88.7457 115.504 87.3239 115.028 86.5479 114.747Z" fill="#1B1B1C"></path>
<path d="M101.446 114.232C101.517 114.149 101.518 114.135 101.556 114.029L101.566 113.999L101.621 113.976C101.859 114.116 101.861 113.942 102.127 113.989L102.192 114.008C102.257 114.035 102.275 114.041 102.344 114.056C101.973 114.222 101.602 114.385 101.229 114.544C101.193 114.42 101.187 114.476 101.226 114.369C101.321 114.261 101.299 114.381 101.446 114.232Z" fill="#1B1B1C"></path>
<path d="M101.446 114.232L101.505 114.23L101.507 114.272C101.441 114.345 101.319 114.463 101.226 114.369C101.321 114.261 101.299 114.381 101.446 114.232Z" fill="#363738"></path>
<path d="M107.787 110.332L107.782 110.297C107.83 110.216 107.994 110.084 108.079 109.984L108.067 109.949C107.978 109.926 107.948 109.921 107.863 109.88L107.859 109.833L107.9 109.797C107.971 109.8 108.03 109.811 108.093 109.781C108.105 109.706 108.113 109.682 108.136 109.609C108.218 109.516 108.311 109.551 108.428 109.489C108.411 109.406 108.408 109.437 108.426 109.358C108.524 109.314 108.557 109.302 108.632 109.374L108.626 109.482C108.508 109.639 107.936 110.242 107.787 110.332Z" fill="#1B1B1C"></path>
<path d="M96.665 115.741C96.8682 115.632 96.7132 115.7 96.7531 115.522C96.9844 115.338 97.0566 115.549 97.2595 115.504C97.385 115.393 97.4022 115.377 97.5614 115.33C97.5939 115.557 97.507 115.391 97.4936 115.602C97.2185 115.654 96.9423 115.701 96.665 115.741Z" fill="#1B1B1C"></path>
<path d="M109.075 108.66C109.222 108.449 109.37 108.313 109.551 108.133C109.562 108.171 109.594 108.295 109.609 108.323C109.489 108.478 109.376 108.633 109.237 108.772C109.107 108.724 109.158 108.762 109.075 108.66Z" fill="#1B1B1C"></path>
<path d="M110.542 107.022C110.366 107.022 110.283 107.135 110.142 107.081C110.193 106.995 110.199 106.998 110.281 106.947C110.351 106.952 110.348 106.951 110.416 106.934C110.501 106.839 110.466 106.745 110.503 106.654C110.55 106.54 110.563 106.69 110.793 106.608C110.703 106.749 110.625 106.876 110.542 107.022Z" fill="#363738"></path>
<path d="M113.538 97.2048C113.475 97.0725 113.415 97.1499 113.296 97.0274C113.413 96.9951 113.402 97.0867 113.519 97.052L113.556 96.9494C113.634 96.9322 113.593 96.9322 113.686 96.9904C113.675 97.1056 113.665 97.5433 113.656 97.5775L113.636 97.5395C113.58 97.5499 113.605 97.5526 113.558 97.537C113.562 97.4074 113.562 97.332 113.538 97.2048Z" fill="#1B1B1C"></path>
<path d="M97.561 115.33C97.7018 115.264 97.7086 115.265 97.8451 115.318C97.8527 115.442 97.8787 115.442 97.8984 115.532L97.4932 115.602C97.5066 115.391 97.5935 115.557 97.561 115.33Z" fill="#1B1B1C"></path>
<path d="M109.727 107.96L109.746 107.978C109.841 107.905 109.847 107.894 109.96 107.877C109.874 107.994 109.712 108.228 109.61 108.323C109.595 108.295 109.562 108.171 109.551 108.133C109.523 108.068 109.525 108.073 109.523 108.002C109.592 107.945 109.615 107.965 109.727 107.96Z" fill="#1B1B1C"></path>
<path d="M95.2393 115.901C95.2721 115.852 95.2846 115.813 95.3073 115.759C95.4145 115.726 95.6716 115.782 95.7984 115.788C95.9445 115.796 96.0752 115.745 96.2034 115.809C95.9816 115.837 95.4555 115.903 95.2393 115.901Z" fill="#1B1B1C"></path>
<path d="M108.903 109.159C108.828 109.164 108.827 109.195 108.731 109.198C108.724 109.088 108.808 109.039 108.802 109.013C108.789 108.952 108.772 108.888 108.775 108.792L108.807 108.768L108.867 108.821L108.904 108.823C108.97 108.944 108.947 108.945 109.048 109.008C109.024 109.034 108.924 109.144 108.903 109.159Z" fill="url(#paint0_linear_647_1052)"></path>
<path d="M106.254 111.662L106.268 111.615C106.247 111.574 106.224 111.539 106.198 111.502C106.213 111.436 106.228 111.37 106.244 111.305C106.301 111.29 106.291 111.381 106.41 111.398C106.552 111.32 106.514 111.32 106.642 111.355C106.542 111.436 106.353 111.597 106.254 111.662Z" fill="#1B1B1C"></path>
<path d="M97.8457 115.318C97.9559 115.293 98.0666 115.268 98.1777 115.245L98.1949 115.277C98.167 115.346 98.1252 115.408 98.1134 115.476L97.899 115.532C97.8793 115.442 97.8534 115.442 97.8457 115.318Z" fill="#363738"></path>
<path d="M110.011 107.454L110.045 107.429C110.062 107.335 110.041 107.355 110.091 107.302C110.218 107.419 110.095 107.413 110.208 107.507C110.131 107.634 110.07 107.745 109.972 107.858C109.966 107.785 110.003 107.552 110.011 107.454Z" fill="#1B1B1C"></path>
<path d="M79.7275 110.612C79.8212 110.58 79.8687 110.543 79.9618 110.59C80.1005 110.66 80.1265 110.791 80.0942 110.922C79.9722 110.812 79.8546 110.715 79.7275 110.612Z" fill="#1B1B1C"></path>
<path d="M113.539 97.2048C113.562 97.332 113.563 97.4074 113.559 97.537C113.606 97.5526 113.58 97.5499 113.637 97.5395L113.657 97.5775C113.653 97.6262 113.647 97.7574 113.63 97.7946C113.599 97.7282 113.624 97.7476 113.564 97.7235C113.535 97.8094 113.52 97.8529 113.481 97.9341L113.444 97.9272C113.431 97.8255 113.517 97.688 113.52 97.586C113.525 97.4318 113.494 97.3645 113.539 97.2048Z" fill="#5E5E62"></path>
<path d="M108.904 108.823C108.977 108.759 109.043 108.756 109.075 108.66C109.158 108.762 109.108 108.724 109.237 108.772C109.171 108.864 109.128 108.928 109.048 109.008C108.947 108.945 108.97 108.944 108.904 108.823Z" fill="#1B1B1C"></path>
<path d="M109.728 107.96C109.746 107.814 109.888 107.75 109.938 107.607C109.953 107.561 109.904 107.56 109.941 107.451L110.011 107.454C110.003 107.553 109.966 107.785 109.973 107.859L109.96 107.877C109.847 107.894 109.841 107.905 109.746 107.978L109.728 107.96Z" fill="#363738"></path>
<path d="M113.309 92.4208C113.326 92.4959 113.352 92.6281 113.378 92.6962L113.286 92.7278L113.217 92.6939C113.172 92.7427 113.194 92.7316 113.135 92.7503C113.084 92.6921 113.099 92.7249 113.098 92.646C113.155 92.5761 113.278 92.472 113.309 92.4208Z" fill="#1B1B1C"></path>
<path d="M112.492 103.086C112.362 103.053 112.367 103.078 112.311 102.995L112.335 102.945C112.442 102.882 112.446 102.88 112.569 102.863C112.551 102.921 112.519 103.04 112.492 103.086Z" fill="#1B1B1C"></path>
<path d="M113.213 91.9572C113.016 91.8347 113.059 91.8885 112.929 91.6699C112.926 91.5747 112.91 91.6126 112.97 91.5489L113.008 91.5501C113.024 91.6365 113.037 91.6947 113.059 91.7799C113.093 91.8123 113.102 91.8135 113.123 91.8561C113.169 91.8199 113.152 91.8416 113.175 91.7925L113.213 91.9572Z" fill="#5E5E62"></path>
<path d="M102.127 113.989C102.13 113.877 102.11 113.872 102.167 113.807C102.23 113.882 102.21 113.908 102.192 114.008L102.127 113.989Z" fill="#363738"></path>
<path d="M111.669 103.468C111.834 103.596 111.755 103.949 111.782 104.134C111.8 104.253 111.837 104.151 111.909 104.343C111.829 104.341 111.831 104.347 111.766 104.302C111.65 104.003 111.686 103.789 111.669 103.468Z" fill="#1B1B1C"></path>
<path d="M106.689 110.833C106.748 110.885 106.78 110.998 106.778 111.076C106.706 111.162 106.738 111.135 106.612 111.166C106.646 111.103 106.679 111.063 106.668 110.995L106.601 110.96L106.594 110.931L106.689 110.833Z" fill="#363738"></path>
<path d="M110.843 105.557C111.011 105.574 111.149 105.677 111.148 105.853L111.09 105.852C111.002 105.736 110.946 105.665 110.843 105.557Z" fill="#1B1B1C"></path>
<path d="M95.203 115.599C95.215 115.653 95.1929 115.671 95.1658 115.734C95.0641 115.792 95.0438 115.794 94.929 115.818C94.9208 115.729 94.9145 115.742 94.9325 115.657C95.1002 115.723 95.0783 115.703 95.203 115.599Z" fill="#363738"></path>
<path d="M113.521 94.6432C113.636 94.7573 113.598 94.9454 113.623 95.1048L113.627 95.13C113.609 95.1308 113.593 95.1201 113.575 95.1144C113.542 94.9555 113.534 94.8046 113.521 94.6432Z" fill="#7A797E"></path>
<path d="M110.828 106.372C110.848 106.501 110.765 106.53 110.672 106.605L110.663 106.494C110.705 106.401 110.704 106.427 110.828 106.372Z" fill="#363738"></path>
<path d="M108.585 109.065L108.598 109.068L108.614 109.106L108.562 109.139L108.583 109.139C108.444 109.193 108.504 109.185 108.346 109.156C108.333 109.133 108.34 109.149 108.335 109.107C108.457 109.113 108.486 109.125 108.585 109.065Z" fill="#363738"></path>
<path d="M113.384 97.1944C113.374 97.3489 113.404 97.3872 113.42 97.5318L113.313 97.4113C113.3 97.3043 113.321 97.3128 113.384 97.1944Z" fill="#363738"></path>
<path d="M87.3877 114.382C87.4689 114.369 87.5618 114.345 87.6301 114.382L87.6042 114.418C87.5259 114.437 87.4591 114.466 87.3857 114.442L87.3877 114.382Z" fill="#363738"></path>
<path d="M112.887 99.4796L112.945 99.5252C112.987 99.6174 112.965 99.6893 112.952 99.7924C112.889 99.6912 112.877 99.5941 112.887 99.4796Z" fill="#1B1B1C"></path>
<path d="M112.146 101.965L112.183 101.985C112.231 102.071 112.209 102.091 112.204 102.208C112.147 102.188 112.166 102.197 112.118 102.158C112.121 102.084 112.132 102.037 112.146 101.965Z" fill="#1B1B1C"></path>
<path d="M95.6641 115.245L95.6963 115.289C95.6602 115.364 95.6512 115.348 95.5591 115.395L95.5137 115.36C95.5369 115.291 95.5774 115.292 95.6641 115.245Z" fill="#1B1B1C"></path>
<path d="M113.495 96.3678L113.545 96.4077C113.527 96.4717 113.518 96.5199 113.511 96.586C113.51 96.6112 113.513 96.597 113.493 96.6265C113.471 96.5333 113.485 96.4633 113.495 96.3678Z" fill="#5E5E62"></path>
<path d="M102.669 112.968C102.74 112.965 102.79 112.964 102.861 112.967L102.858 113.01L102.802 113.04C102.704 113.026 102.749 113.045 102.669 112.968Z" fill="#1B1B1C"></path>
<path d="M113.41 98.6445C113.475 98.7265 113.418 98.817 113.389 98.9081L113.355 98.8731C113.366 98.7809 113.384 98.732 113.41 98.6445Z" fill="#5E5E62"></path>
<path d="M109.351 106.708L109.393 106.697C109.411 106.767 109.431 106.831 109.452 106.901C109.342 106.832 109.363 106.826 109.351 106.708Z" fill="#363738"></path>
<path d="M109.923 105.689C110.006 105.673 110.025 105.663 110.108 105.682L110.113 105.74C110.023 105.742 110.003 105.726 109.923 105.689Z" fill="#363738"></path>
<path d="M112.985 98.8966C113.123 98.8772 113.132 98.8545 113.2 98.9737C113.053 98.9619 113.109 98.9783 112.985 98.8966Z" fill="#1B1B1C"></path>
<path d="M113.354 94.7737L113.41 94.8008C113.422 94.862 113.422 94.8809 113.424 94.9435L113.386 94.9525C113.371 94.8874 113.364 94.839 113.354 94.7737Z" fill="#363738" fill-opacity="0.988235"></path>
<path d="M112.643 79.8613C112.773 80.0088 112.833 80.151 112.935 80.3153C113.463 81.1615 113.651 82.3083 113.732 83.3029C113.782 83.5225 113.772 83.8089 113.732 84.0308C113.697 85.5339 112.991 87.0362 112.002 88.064C111.949 88.1186 112.246 88.8131 112.325 89.0054C112.259 89.1011 112.258 89.0972 112.163 89.1674C111.94 88.3268 111.662 87.727 111.376 86.9395C111.683 86.6766 112.071 86.1569 112.292 85.8036C113.222 84.3043 113.282 82.3769 112.939 80.6904C112.886 80.4272 112.708 80.1396 112.643 79.8613Z" fill="#030303"></path>
<path d="M113.732 83.3029C113.782 83.5225 113.772 83.8089 113.732 84.0308C113.66 84.0446 113.65 84.0427 113.576 84.0405C113.52 83.97 113.538 83.961 113.53 83.8503C113.567 83.8981 113.543 83.8841 113.6 83.8946C113.649 83.8409 113.649 83.8461 113.658 83.774C113.66 83.6099 113.677 83.4582 113.732 83.3029Z" fill="#363738"></path>
<path d="M113.53 83.8503C113.519 83.7634 113.535 83.6204 113.557 83.5336C113.607 83.6028 113.602 83.6408 113.608 83.726L113.61 83.7578L113.657 83.7741C113.648 83.8461 113.649 83.8409 113.6 83.8946C113.543 83.8841 113.567 83.8981 113.53 83.8503Z" fill="#A8A9AB"></path>
<path d="M112.89 85.5342C112.947 85.5299 112.92 85.5236 112.971 85.5552C113.019 85.6745 112.998 85.8017 112.998 85.9395L112.947 85.9748C112.908 85.9002 112.919 85.84 112.861 85.7812C112.821 85.7401 112.792 85.6936 112.76 85.6463L112.771 85.5994L112.89 85.5342Z" fill="#1B1B1C"></path>
<path d="M113.529 82.8001C113.533 82.6713 113.541 82.6019 113.56 82.4745C113.622 82.6491 113.622 82.8887 113.594 83.07L113.57 83.0626C113.541 82.9499 113.536 82.9165 113.529 82.8001Z" fill="#A8A9AB"></path>
<path d="M113.53 82.8001C113.519 82.7318 113.474 82.1458 113.487 82.1254L113.531 82.165C113.577 82.3004 113.568 82.327 113.561 82.4745C113.541 82.6019 113.534 82.6713 113.53 82.8001Z" fill="#7A797E"></path>
<path d="M112.639 85.73C112.678 85.7633 112.664 85.742 112.676 85.796C112.605 85.8737 112.493 85.9096 112.394 85.9526C112.386 85.939 112.391 85.9507 112.381 85.9001C112.51 85.8368 112.541 85.8294 112.639 85.73Z" fill="#363738"></path>
<path d="M112.388 86.0267C112.475 86.1084 112.446 86.2211 112.471 86.3889L112.409 86.3469C112.366 86.2505 112.384 86.135 112.388 86.0267Z" fill="#363738"></path>
<path d="M113.582 84.3317C113.654 84.4522 113.62 84.5516 113.571 84.6721C113.524 84.5277 113.552 84.4773 113.582 84.3317Z" fill="#5E5E62"></path>
<path d="M112.749 85.9695C112.784 85.982 112.786 85.9871 112.817 86.0081C112.799 86.0539 112.785 86.0998 112.772 86.1473L112.758 86.167L112.733 86.157C112.717 86.0749 112.73 86.0515 112.749 85.9695Z" fill="#363738"></path>
<path d="M112.355 86.545C112.435 86.6131 112.407 86.5727 112.443 86.6711L112.413 86.7176L112.385 86.7244C112.383 86.6498 112.376 86.6171 112.355 86.545Z" fill="#1B1B1C"></path>
<path d="M113.324 83.4065C113.357 83.3965 113.339 83.3964 113.377 83.4164L113.365 83.5627C113.298 83.4868 113.32 83.5331 113.324 83.4065Z" fill="#363738"></path>
<path d="M112.324 89.0054L112.445 89.2987C112.481 89.4061 112.567 89.687 112.608 89.7777L112.724 90.1662C112.533 90.0755 112.604 89.9616 112.435 89.8893L112.367 89.9215L112.292 89.5975L112.162 89.1674C112.258 89.0972 112.258 89.1011 112.324 89.0054Z" fill="#1B1B1C"></path>
<path d="M112.446 89.2987C112.482 89.4062 112.568 89.687 112.608 89.7778C112.549 89.7501 112.533 89.752 112.466 89.7383C112.373 89.6451 112.4 89.6435 112.369 89.4855L112.446 89.2987Z" fill="#363738"></path>
<path d="M109.861 88.1589C110.262 88.8402 110.3 89.5125 110.482 90.255C111.507 94.4259 111.092 99.2662 109.077 103.09C106.847 107.324 102.562 110.656 98.0168 112.055C93.7364 113.396 89.0982 112.979 85.1263 110.894C81.4986 108.983 78.1713 105.742 76.4706 101.989C76.2582 101.52 75.9756 100.918 75.8271 100.435C75.3859 99.039 75.1157 97.5944 75.0225 96.1332C74.8426 93.296 75.4144 89.5315 76.7459 87.025C78.2385 84.1911 80.4182 81.7769 83.0855 80.0036C84.0562 79.3483 84.8351 78.8764 85.9303 78.4178C86.8391 78.0372 87.7225 77.7839 88.67 77.524C88.8668 77.4499 89.0936 77.481 89.2923 77.4349C89.9346 77.2859 90.5323 77.2298 91.1881 77.1793C93.798 76.9782 96.5277 77.2171 99.0387 77.9655C99.9643 78.2414 101.006 78.7609 101.855 79.219C101.718 79.3614 101.578 79.5019 101.431 79.634C100.96 80.0559 100.53 80.5223 100.056 80.9418C99.845 81.1237 99.6208 81.3293 99.4029 81.5012C98.564 82.1628 97.8667 82.9511 97.1202 83.7036C95.7101 85.1198 94.3186 86.5543 92.9457 88.0066C92.4127 88.5653 91.8845 89.1285 91.3611 89.6961C91.1587 89.9138 90.6788 90.446 90.4713 90.6203C89.9476 90.0845 89.4089 89.5635 88.8558 89.058C87.4801 87.7785 86.1803 86.7073 84.1633 86.6917C82.7356 86.6686 81.3598 87.2263 80.3513 88.2371C79.4236 89.1617 78.8387 90.4448 78.4793 91.6914C78.3291 92.2124 78.3566 92.5293 78.3371 93.0392C78.2674 94.8595 79.4195 96.1296 80.537 97.4112C80.8206 97.7364 81.1077 98.0585 81.4003 98.3784C82.6309 99.721 83.8898 101.037 85.1761 102.326L86.7804 103.978C87.2479 104.465 87.6911 104.906 88.1692 105.382C88.3522 105.551 88.5413 105.733 88.7358 105.887C88.8658 105.961 89.0161 106.093 89.151 106.179C91.6152 107.747 93.688 105.649 95.2737 103.949L97.173 101.905L103.301 95.3233L104.72 93.7635C104.906 93.5587 105.186 93.2129 105.39 93.0415C105.504 92.8656 106.195 92.1362 106.366 91.9598C106.931 91.2888 107.572 90.6813 108.115 90.0326C108.385 89.742 109.64 88.2972 109.861 88.1589ZM82.4792 80.9971C82.4169 80.9681 82.4393 80.9778 82.3641 80.9766C82.4267 81.023 82.3916 81.0142 82.4672 81.0155L82.4792 80.9971Z" fill="#10EB10"></path>
<path d="M109.861 88.1589C110.262 88.8402 110.3 89.5125 110.482 90.255C111.507 94.4259 111.092 99.2662 109.077 103.09C106.847 107.324 102.562 110.656 98.0168 112.055C93.7364 113.396 89.0982 112.979 85.1263 110.894C81.4986 108.983 78.1713 105.742 76.4706 101.989C76.2582 101.52 75.9756 100.918 75.8271 100.435C75.3859 99.039 75.1157 97.5944 75.0225 96.1332C74.8426 93.296 75.4144 89.5315 76.7459 87.025C78.2385 84.1911 80.4182 81.7769 83.0855 80.0036C84.0562 79.3483 84.8351 78.8764 85.9303 78.4178C86.8391 78.0372 87.7225 77.7839 88.67 77.524C88.8668 77.4499 89.0936 77.481 89.2924 77.4349C89.9346 77.2859 90.5323 77.2298 91.1881 77.1793C93.798 76.9782 96.5277 77.2171 99.0387 77.9655C99.9643 78.2414 101.006 78.7609 101.855 79.219C101.718 79.3614 101.578 79.5019 101.431 79.634C100.96 80.0559 100.53 80.5223 100.056 80.9418C99.5861 80.6105 98.727 80.2615 98.1902 80.0693C95.7112 79.1632 93.0351 78.935 90.4384 79.4082C86.4731 80.0901 82.7995 82.256 80.4684 85.556C78.6018 88.1986 77.359 90.9704 77.2188 94.2397C77.0003 99.3376 79.4682 104.752 83.7586 107.607C87.2056 109.9 91.523 111.148 95.6431 110.368C99.8352 109.588 103.513 107.223 106.014 103.781C108.55 100.292 109.322 95.9481 108.546 91.7376C108.514 91.5629 108.478 91.3887 108.439 91.2152C108.378 90.9333 108.203 90.2998 108.115 90.0326C108.385 89.742 109.64 88.2972 109.861 88.1589ZM82.4792 80.9971C82.4169 80.9681 82.4393 80.9778 82.3641 80.9766C82.4267 81.023 82.3916 81.0142 82.4672 81.0155L82.4792 80.9971Z" fill="#030303"></path>
<path d="M76.1229 88.9213C76.1804 88.9611 76.1926 89.0186 76.2756 89.0369C76.3209 89.0469 76.3399 89.065 76.3744 89.0956L76.3492 89.1858C76.2821 89.2061 76.2311 89.2198 76.1629 89.2354L76.1173 89.2041C76.1166 89.1079 76.1195 89.0175 76.1229 88.9213Z" fill="#1B1B1C"></path>
<path d="M75.9422 89.4256C76.0087 89.4368 76.0138 89.4384 76.0765 89.4636C76.1247 89.5982 76.0276 89.495 76.0807 89.7355C75.9961 89.7105 75.9866 89.7124 75.9118 89.6612C75.8821 89.556 75.9061 89.5515 75.9422 89.4256Z" fill="#363738"></path>
<path d="M77.4379 86.3267C77.4956 86.3744 77.4738 86.3472 77.4984 86.4134C77.4263 86.5677 77.4023 86.6664 77.2995 86.7956L77.2627 86.7526C77.3111 86.6243 77.3802 86.5025 77.4215 86.3779L77.4379 86.3267Z" fill="#1B1B1C"></path>
<path d="M75.6711 97.5154C75.8277 97.5502 75.8257 97.5658 75.8889 97.6915C75.8034 97.6978 75.782 97.7063 75.7007 97.6792C75.648 97.5936 75.6685 97.6401 75.6711 97.5154Z" fill="#1B1B1C"></path>
<path d="M76.2188 98.1859C76.3399 98.2491 76.5044 98.2504 76.5494 98.2868C76.4369 98.3174 76.4257 98.3259 76.3146 98.3065C76.2232 98.239 76.2492 98.2813 76.2188 98.1859Z" fill="#1B1B1C"></path>
<path d="M76.4883 91.0781C76.6272 91.1292 76.6851 91.1185 76.6839 91.2679C76.5981 91.2084 76.5178 91.1722 76.4883 91.0781Z" fill="#1B1B1C"></path>
<path d="M78.8115 104.651C78.9265 104.689 78.9353 104.787 78.9742 104.897C78.8528 104.83 78.8561 104.789 78.8115 104.651Z" fill="#363738"></path>
<path d="M81.9658 82.6971C82.083 82.7494 82.0988 82.7985 82.1595 82.9095C82.0303 82.8678 82.0243 82.8141 81.9658 82.6971Z" fill="#1B1B1C"></path>
<path d="M76.8402 91.1442C76.8932 91.182 76.8695 91.1598 76.9001 91.2252C76.8977 91.317 76.8962 91.3108 76.8512 91.3921C76.8174 91.3173 76.8324 91.2254 76.8402 91.1442Z" fill="#363738"></path>
<path d="M76.0398 100.141L76.0897 100.137C76.0679 100.209 76.0611 100.248 76.0552 100.323C75.9928 100.252 76.0175 100.22 76.0398 100.141Z" fill="#1B1B1C"></path>
<path d="M78.9452 84.3322L78.9632 84.3422C78.9662 84.4186 78.9559 84.4235 78.9243 84.4956L78.8701 84.504C78.9206 84.4331 78.9267 84.4174 78.9452 84.3322Z" fill="#1B1B1C"></path>
<path d="M76.2666 97.9792C76.3377 97.9693 76.371 97.9685 76.4431 97.9672L76.4815 98.0095C76.3831 98.0224 76.3356 98.0456 76.2666 97.9792Z" fill="#363738"></path>
<path d="M88.6055 78.8679C88.6663 78.8489 88.6624 78.8465 88.7232 78.8629L88.7536 78.9338C88.6801 78.9107 88.6632 78.9144 88.6055 78.8679Z" fill="#363738"></path>
<path d="M82.3643 80.9767C82.4395 80.9778 82.4171 80.9681 82.4794 80.9971L82.4674 81.0155C82.3918 81.0143 82.4269 81.023 82.3643 80.9767Z" fill="#1B1B1C" fill-opacity="0.988235"></path>
<path d="M76.9541 90.1444L77.0051 90.1322L77.0599 90.1756L76.998 90.1882L76.9541 90.1444Z" fill="#1B1B1C"></path>
<path d="M108.115 90.0327C108.204 90.2998 108.379 90.9333 108.44 91.2152C108.307 91.4251 108.094 91.619 107.935 91.8112C107.51 92.3227 107.069 92.7447 106.61 93.212C106.054 93.7798 105.508 94.3565 104.971 94.9418C104.851 95.0709 104.731 95.2024 104.615 95.335C103.147 97.0164 101.725 98.6833 100.168 100.288L98.2419 102.284C97.7347 102.811 97.2417 103.369 96.7303 103.895C96.5047 104.127 96.7126 104.151 96.4375 104.195C94.5562 106.06 91.6892 109.037 89.1076 106.426C89.0921 106.41 89.0769 106.394 89.0619 106.378C88.9887 106.141 88.752 106.084 88.7363 105.887C88.8664 105.961 89.0167 106.093 89.1516 106.179C91.6158 107.747 93.6886 105.649 95.2743 103.949L97.1736 101.905L103.302 95.3233L104.72 93.7635C104.906 93.5587 105.187 93.2129 105.391 93.0415C105.505 92.8656 106.195 92.1362 106.367 91.9598C106.931 91.2888 107.573 90.6813 108.115 90.0327Z" fill="#2B7301"></path>
<path d="M106.366 91.9598L106.377 92.0163C106.189 92.253 105.629 92.9481 105.391 93.0415C105.505 92.8656 106.195 92.1362 106.366 91.9598Z" fill="#1C5C02"></path>
<path d="M89.0611 106.378C88.8896 106.245 88.6987 106.055 88.541 105.904C88.4667 105.834 88.1849 105.45 88.1689 105.382C88.352 105.551 88.5411 105.733 88.7355 105.887C88.7512 106.084 88.9879 106.141 89.0611 106.378Z" fill="#3F8E08"></path>
<path d="M100.086 103.856L100.2 103.882C100.285 103.965 100.274 103.932 100.304 104.034C100.26 104.102 100.288 104.074 100.211 104.108L100.153 104.062C100.105 104.07 100.086 104.072 100.039 104.077C100.023 103.984 100.05 103.955 100.086 103.856Z" fill="#3F8E08"></path>
<path d="M83.312 105.531C83.371 105.579 83.3501 105.55 83.3686 105.623C83.3224 105.701 83.2519 105.721 83.1669 105.761L83.1523 105.771L83.1367 105.753C83.1941 105.641 83.2216 105.622 83.312 105.531Z" fill="#3F8E08"></path>
<path d="M84.1541 107.396C84.1878 107.404 84.2045 107.419 84.2362 107.437C84.1878 107.502 84.1365 107.501 84.0445 107.534C83.9885 107.461 83.9942 107.498 83.9944 107.426C84.0487 107.419 84.101 107.409 84.1541 107.396Z" fill="#1C5C02"></path>
<path d="M90.3298 107.981C90.4197 108.008 90.3957 107.983 90.4442 108.04C90.3442 108.12 90.3773 108.07 90.3452 108.197C90.3483 108.215 90.3472 108.2 90.3417 108.259C90.3102 108.141 90.3202 108.106 90.3298 107.981Z" fill="#3F8E08"></path>
<path d="M84.7636 81.9183L84.7808 81.9492C84.6637 82.0005 84.6267 82.0184 84.5215 82.0916L84.4974 82.1086L84.4785 82.0833C84.5248 81.9802 84.6633 81.9475 84.7636 81.9183Z" fill="#78C10C"></path>
<path d="M106.319 77.9261C106.523 77.8694 107.113 78.0353 107.328 78.0587C109.396 78.3015 110.881 79.8021 111.314 81.811C111.618 82.8906 111.239 84.0866 110.605 84.98C109.452 86.6018 108.031 88.0008 106.656 89.4308C105.565 90.566 104.495 91.7298 103.417 92.8805L100.939 95.5292C99.9238 96.5937 98.8809 97.6423 97.8886 98.7281C96.5821 100.157 95.2825 101.585 93.9311 102.973C93.5412 103.396 93.1535 103.822 92.7376 104.218C91.6641 105.239 90.6121 105.501 89.4173 104.487C88.9501 104.091 88.5793 103.629 88.159 103.186L85.5253 100.43C85.2727 100.183 85.0291 99.9014 84.7844 99.643C84.0644 98.8938 83.3613 98.1287 82.6758 97.3481C82.082 96.6847 81.1969 95.7777 80.7311 95.0501C80.4592 94.6227 80.2608 94.1526 80.1442 93.6596C79.6032 91.4585 80.8198 88.9472 83.0884 88.339C84.3586 87.9986 85.9048 88.6452 86.898 89.4285C87.6506 90.0221 88.3311 90.807 89.0205 91.473C89.4576 91.8954 89.745 92.299 90.2711 92.6234C90.7401 92.3406 91.3629 91.6189 91.7595 91.2008L93.0731 89.8413L99.3531 83.4299C100.152 82.6048 100.959 81.7869 101.774 80.9765C102.638 80.1156 103.366 79.3467 104.409 78.6712C105.115 78.2135 105.543 78.1502 106.319 77.9261Z" fill="#030303"></path>
<path d="M106.236 80.167C107.029 80.1398 107.691 80.1565 108.315 80.7241C108.749 81.1187 108.964 81.706 108.99 82.2778C109.016 82.8413 108.791 83.6292 108.443 84.0762C107.931 84.7355 107.25 85.4193 106.67 86.0297L103.11 89.7417C99.8097 93.1781 96.5476 96.6511 93.3243 100.16L92.5527 100.974C92.2252 101.323 91.4806 102.239 90.9483 102.288C90.8188 102.3 90.2708 102.11 90.1526 102.009C89.5807 101.521 89.0565 100.905 88.5278 100.374C87.3734 99.214 86.221 98.073 85.1168 96.8647L84.1179 95.8155C83.3771 95.0447 82.478 94.1956 82.2995 93.0752C82.1181 91.9413 82.801 90.7435 83.9863 90.5737C85.0874 90.4161 85.6765 91.2857 86.3594 91.9951L88.9639 94.6829C89.2878 95.014 89.9003 95.684 90.2321 95.9363L90.2681 95.9637C91.468 94.6728 92.6867 93.3993 93.9234 92.1439L99.8259 86.2476L103.21 82.8183C103.954 82.0609 104.732 81.2547 105.523 80.5476C105.751 80.3435 105.95 80.2553 106.236 80.167Z" fill="#FCFCFC"></path>
<path d="M109.261 85.256L109.304 85.2846C109.4 85.4421 109.316 85.5117 109.204 85.6177C109.135 85.6366 109.109 85.6484 109.047 85.685L109.038 85.6863L109.025 85.6669C109.133 85.5003 109.228 85.4523 109.261 85.256Z" fill="#1B1B1C"></path>
<path d="M107.074 86.6864C107.183 86.7393 107.197 86.6912 107.276 86.7469L107.3 86.9195C107.213 86.9281 107.199 86.9367 107.117 86.9073C107.06 86.8339 107.073 86.781 107.074 86.6864Z" fill="#1B1B1C"></path>
<path d="M100.19 84.199C100.267 84.2348 100.292 84.246 100.365 84.2936L100.367 84.349C100.303 84.4138 100.248 84.4617 100.179 84.5212L100.163 84.5508L100.124 84.5401C100.168 84.3131 100.236 84.4461 100.19 84.199Z" fill="#1B1B1C"></path>
<path d="M103.964 79.2986C103.996 79.319 104.022 79.3964 104.042 79.4395C104.019 79.5584 104.033 79.5171 103.92 79.6133L103.884 79.5929C103.841 79.4129 103.851 79.441 103.964 79.2986Z" fill="#1B1B1C"></path>
<path d="M102.676 92.4224L102.728 92.4456C102.752 92.5298 102.769 92.5605 102.749 92.6463L102.712 92.6547L102.665 92.6119L102.625 92.6268C102.559 92.6829 102.596 92.6714 102.513 92.6665L102.507 92.6922L102.532 92.6798L102.495 92.6626C102.562 92.5388 102.616 92.5498 102.676 92.4224Z" fill="#1B1B1C"></path>
<path d="M98.7989 84.5358L98.8318 84.5523C98.9086 84.7156 98.8129 84.8053 98.6819 84.8839L98.7265 84.7726C98.6893 84.7172 98.6964 84.7344 98.6748 84.6722L98.7989 84.5358Z" fill="#1B1B1C"></path>
<path d="M102.411 81.6606C102.437 81.6696 102.421 81.662 102.456 81.6943L102.372 81.7896C102.459 81.905 102.439 81.8508 102.45 81.994C102.351 81.9629 102.302 81.944 102.267 81.8416C102.297 81.7258 102.298 81.7553 102.411 81.6606Z" fill="#1B1B1C"></path>
<path d="M102.961 81.7391C103.004 81.8635 103.05 81.9487 103.143 82.0416L103.106 82.0483L103.052 82.0162L103.01 82.0205C102.94 81.9881 102.964 81.9981 102.909 81.9335C102.901 81.8039 102.891 81.8554 102.961 81.7391Z" fill="#1B1B1C"></path>
<path d="M87.0219 90.3358L87.0822 90.3143L87.0883 90.3451C87.0301 90.4455 87.0354 90.4471 86.9432 90.512C86.8861 90.4717 86.8904 90.4728 86.8408 90.4227L86.8572 90.3892C86.9375 90.3796 86.9524 90.3768 87.0219 90.3358Z" fill="#1B1B1C"></path>
<path d="M109.485 79.316C109.568 79.3424 109.618 79.374 109.693 79.4152L109.689 79.4505C109.59 79.4488 109.578 79.4713 109.487 79.4675C109.485 79.4155 109.485 79.368 109.485 79.316Z" fill="#1B1B1C"></path>
<path d="M107.365 86.0528L107.421 86.0731C107.411 86.1699 107.325 86.3135 107.297 86.4438L107.25 86.4216C107.261 86.2925 107.318 86.1751 107.365 86.0528Z" fill="#363738"></path>
<path d="M101.944 81.2759C102.026 81.2995 102.111 81.3119 102.166 81.3706L102.142 81.3973C102.112 81.4226 102.096 81.4297 102.063 81.4498C101.99 81.4193 101.963 81.417 101.914 81.3565L101.944 81.2759Z" fill="#1B1B1C"></path>
<path d="M89.4902 102.007L89.5487 102.043C89.5581 102.141 89.5218 102.201 89.4566 102.27L89.3851 102.253L89.3627 102.249L89.3438 102.213C89.4787 102.161 89.4767 102.149 89.4902 102.007Z" fill="#1B1B1C"></path>
<path d="M89.1191 93.0008L89.1673 92.9791C89.2231 93.0401 89.2399 93.0726 89.315 93.1094L89.2956 93.1548L89.2573 93.1865C89.1905 93.1125 89.1552 93.0898 89.1191 93.0008Z" fill="#1B1B1C"></path>
<path d="M87.0023 99.0371C87.0289 99.0363 87.013 99.0338 87.0452 99.0593C86.9942 99.1364 86.9154 99.1711 86.8342 99.22L86.7725 99.2143C86.8046 99.1459 86.9264 99.0861 87.0023 99.0371Z" fill="#1B1B1C"></path>
<path d="M89.8894 92.8433C89.8967 92.8531 89.93 93.0404 89.9689 93.1389C89.8854 93.0877 89.8713 93.0872 89.8145 93.0055C89.8144 92.9049 89.8102 92.9403 89.8894 92.8433Z" fill="#5E5E62"></path>
<path d="M106.26 88.2586L106.272 88.2591L106.283 88.3002L106.251 88.3497C106.14 88.4058 106.124 88.4023 105.997 88.415L105.976 88.3828C106.054 88.2776 106.089 88.4123 106.26 88.2586Z" fill="#363738"></path>
<path d="M87.0859 99.406L87.1769 99.4101C87.2751 99.4872 87.2503 99.4859 87.3031 99.6226C87.1766 99.5761 87.1596 99.5219 87.0859 99.406Z" fill="#1B1B1C"></path>
<path d="M104.628 90.4041L104.67 90.4317C104.693 90.5045 104.701 90.5363 104.74 90.6015C104.698 90.6099 104.672 90.5927 104.622 90.5771C104.588 90.5034 104.607 90.5029 104.628 90.4041Z" fill="#1B1B1C"></path>
<path d="M87.929 92.0724L87.9759 92.0958C88.009 92.1689 87.9782 92.262 87.9629 92.3472C87.8518 92.2474 87.8953 92.2048 87.929 92.0724Z" fill="#1B1B1C"></path>
<path d="M91.9041 103.058C91.9302 103.049 91.9144 103.051 91.9513 103.066C91.8911 103.151 91.8817 103.15 91.796 103.204C91.7993 103.135 91.7968 103.144 91.7676 103.082C91.8246 103.069 91.847 103.066 91.9041 103.058Z" fill="#5E5E62"></path>
<path d="M101.438 92.8741C101.517 92.9304 101.555 93.022 101.533 93.1162L101.498 93.1116C101.452 93.0375 101.45 92.9615 101.438 92.8741Z" fill="#1B1B1C"></path>
<path d="M101.774 82.7309L101.83 82.7197C101.806 82.8138 101.807 82.8369 101.815 82.9346C101.768 82.9017 101.783 82.9111 101.75 82.8599C101.745 82.7636 101.73 82.8031 101.774 82.7309Z" fill="#363738"></path>
<path d="M97.582 85.6214C97.6276 85.6528 97.6167 85.6483 97.652 85.6946L97.6295 85.7259L97.5232 85.7363C97.4914 85.7663 97.5111 85.756 97.4619 85.7622C97.4852 85.6808 97.5125 85.6738 97.582 85.6214Z" fill="#5E5E62"></path>
<path d="M109.581 85.5117L109.667 85.5698L109.658 85.5989L109.505 85.6393L109.457 85.6304L109.458 85.5966L109.581 85.5117Z" fill="#5E5E62"></path>
<path d="M109.028 83.5686L109.048 83.5976C109.015 83.6748 108.977 83.683 108.899 83.7423C108.873 83.7072 108.886 83.7298 108.869 83.67C108.925 83.6205 108.963 83.6037 109.028 83.5686Z" fill="#363738"></path>
<path d="M101.961 92.1515C102.05 92.2098 102.057 92.2967 102.086 92.4021C101.968 92.3541 101.984 92.2703 101.961 92.1515Z" fill="#1B1B1C"></path>
<path d="M104.024 80.7689L104.062 80.8036C104.037 80.8756 104.019 80.9161 103.988 80.9845L103.945 80.9766C103.927 80.9044 103.977 80.8572 104.024 80.7689Z" fill="#363738"></path>
<path d="M107.743 85.4627L107.798 85.437C107.795 85.501 107.794 85.5197 107.805 85.5812L107.813 85.6273C107.768 85.62 107.793 85.6283 107.743 85.5917C107.722 85.5008 107.715 85.542 107.743 85.4627Z" fill="#363738"></path>
<path d="M96.6084 87.4399C96.665 87.423 96.7779 87.4874 96.8345 87.5163C96.7268 87.5221 96.726 87.5183 96.6188 87.4919L96.6084 87.4399Z" fill="#1B1B1C"></path>
<path d="M94.0902 89.8366L94.1227 89.8689C94.1304 89.9594 94.1107 89.9506 94.0437 90.0488C94.012 90.021 94.0273 90.0401 94.0098 89.9841L94.0902 89.8366Z" fill="#363738"></path>
<path d="M81.8369 90.38C81.9254 90.3741 81.9852 90.3727 82.074 90.3734L82.0767 90.4097C81.9538 90.4519 81.9145 90.4896 81.8369 90.38Z" fill="#1B1B1C"></path>
<path d="M102.642 90.7421C102.734 90.7602 102.765 90.7627 102.826 90.8292L102.797 90.8305C102.714 90.8154 102.697 90.8399 102.622 90.8049L102.642 90.7421Z" fill="#1B1B1C"></path>
<path d="M108.902 79.0479C108.916 79.0463 108.927 79.0612 108.939 79.0689C108.947 79.1544 108.951 79.1494 108.912 79.2252L108.896 79.2158C108.87 79.0912 108.859 79.1438 108.902 79.0479Z" fill="#1B1B1C"></path>
<path d="M109.191 82.8819C109.267 82.9 109.275 82.8731 109.351 82.913L109.312 82.9741L109.223 83.0077L109.185 82.9862L109.191 82.8819Z" fill="#1B1B1C"></path>
<path d="M103.358 91.9452C103.43 92.0017 103.413 91.9667 103.432 92.0407L103.353 92.1675L103.324 92.1394C103.371 92.0478 103.373 92.0531 103.358 91.9452Z" fill="#1B1B1C"></path>
<path d="M101.806 92.0397L101.863 92.0581L101.877 92.0953L101.814 92.2041L101.77 92.1964L101.746 92.1586L101.806 92.0397Z" fill="#1B1B1C"></path>
<path d="M88.249 93.6055C88.3774 93.6345 88.3969 93.6731 88.435 93.7889C88.3437 93.7612 88.3081 93.6867 88.249 93.6055Z" fill="#1B1B1C"></path>
<path d="M88.4722 92.8648L88.5056 92.8593C88.5324 92.9344 88.5412 92.9339 88.5406 93.0084C88.5265 93.011 88.5377 93.0106 88.4958 93.0001L88.4531 92.9078L88.4722 92.8648Z" fill="#1B1B1C"></path>
<path d="M98.8408 85.9285C98.872 86.0224 98.8127 86.0558 98.7555 86.1331L98.7178 86.0792C98.764 86.0118 98.787 85.988 98.8408 85.9285Z" fill="#1B1B1C"></path>
<path d="M81.2871 94.5033C81.3866 94.5637 81.3741 94.5935 81.3991 94.6971L81.3633 94.7064C81.3353 94.6378 81.312 94.5729 81.2871 94.5033Z" fill="#1B1B1C"></path>
<path d="M106.085 89.369L106.16 89.3871C106.234 89.4463 106.237 89.5116 106.261 89.606C106.216 89.572 106.141 89.4341 106.085 89.369Z" fill="#363738"></path>
<path d="M101.309 82.2992L101.328 82.3303L101.311 82.3729L101.191 82.4071L101.159 82.3669L101.172 82.33L101.309 82.2992Z" fill="#363738"></path>
<path d="M105.662 78.771C105.708 78.801 105.688 78.7896 105.738 78.8164L105.774 78.8354L105.742 78.8821C105.696 78.8437 105.682 78.8409 105.627 78.8164L105.662 78.771Z" fill="#1B1B1C"></path>
<path d="M91.7543 102.58C91.7712 102.673 91.7535 102.7 91.7328 102.797L91.6995 102.783C91.6849 102.711 91.7234 102.651 91.7543 102.58Z" fill="#1B1B1C"></path>
<path d="M104.537 79.6921C104.622 79.7266 104.66 79.8007 104.715 79.876L104.646 79.8671C104.573 79.8145 104.58 79.7867 104.537 79.6921Z" fill="#363738"></path>
<path d="M84.5882 97.6623L84.6088 97.6691L84.6186 97.7055L84.5209 97.8157L84.4679 97.7996L84.4648 97.7659L84.5882 97.6623Z" fill="#1B1B1C"></path>
<path d="M98.7853 96.5045L98.8116 96.5278C98.8157 96.609 98.7897 96.606 98.7167 96.6902L98.7019 96.6853L98.6904 96.6437L98.7853 96.5045Z" fill="#363738"></path>
<path d="M89.7491 104.126L89.7992 104.135C89.8161 104.207 89.8223 104.206 89.7946 104.272L89.7845 104.265C89.7479 104.181 89.746 104.208 89.7491 104.126Z" fill="#1B1B1C"></path>
<path d="M104.083 80.2136C104.132 80.2871 104.107 80.3128 104.095 80.4283L104.065 80.4032C104.035 80.3127 104.051 80.3256 104.083 80.2136Z" fill="#363738"></path>
<path d="M98.0967 85.4216C98.1946 85.4186 98.2102 85.4108 98.2725 85.4743C98.2006 85.4962 98.1522 85.4556 98.0967 85.4216Z" fill="#363738"></path>
<path d="M86.0143 98.3114C86.1135 98.2729 86.1253 98.2863 86.1779 98.362C86.1371 98.3541 86.0582 98.3494 86.0137 98.3456L86.0143 98.3114Z" fill="#1B1B1C"></path>
<path d="M103.893 89.9953L103.932 89.9916L103.988 90.1502C103.904 90.1068 103.908 90.0793 103.893 89.9953Z" fill="#363738"></path>
<path d="M94.708 100.001L94.751 100.003L94.74 100.087H94.6963L94.708 100.001Z" fill="#363738"></path>
</g>
<defs>
<linearGradient id="paint0_linear_647_1052" x1="108.743" y1="108.969" x2="108.941" y2="109.051" gradientUnits="userSpaceOnUse">
<stop stop-color="#252629"></stop>
<stop offset="1" stop-color="#040504"></stop>
</linearGradient>
<clipPath id="clip0_647_1052">
<rect width="41" height="41" fill="white" transform="translate(73 75.2322)"></rect>
</clipPath>
</defs>
</svg>