<svg width="141.590" height="132.671" viewBox="0 0 141.59 132.671" fill="none" xmlns="http://www.w3.org/2000/svg">
<g id="walker">
<path id="Vector" d="M28.9295 24.3047C30.126 21.6551 30.9211 19.5635 32.5414 16.9929C37.5377 9.07093 44.3766 3.14361 53.5891 0.874429C62.4465 -1.30673 72.02 0.735683 79.7122 5.4098C86.5854 9.58414 91.7444 15.7382 95.0818 23.0232C96.1216 25.2372 96.9437 27.5451 97.5374 29.9187C100.283 31.072 102.203 33.8141 102 36.8277C101.973 37.2275 101.901 37.6289 101.836 38.0242C102.095 38.3301 102.802 38.8776 103.156 39.2416C104.169 40.2845 104.745 41.284 105.424 42.5372C107.934 48.3989 107.664 53.728 105.376 59.6239C104.731 61.2859 104.024 62.472 103.172 64.0116C103.002 64.2951 102.922 64.3085 102.956 64.5591C103.159 64.6591 103.159 64.6591 103.38 64.7039C104.041 64.9485 104.608 65.0888 105.264 65.3021C111.511 67.2132 117.032 70.9266 120.15 76.7972C120.883 78.1638 121.432 79.6199 121.784 81.1297C121.939 81.7876 122.021 82.5157 122.209 83.1452C122.46 83.9837 123.209 84.6923 123.604 85.4726C123.949 86.1544 124.21 86.7362 124.411 87.4926C126.765 96.2904 120.623 102.683 111.834 102.717C111.525 102.668 110.862 102.646 110.521 102.626C109.495 102.352 108.922 102.327 107.929 101.858L107.653 101.73C108.337 102.288 109.304 102.985 110.138 103.292C110.344 103.383 110.687 103.551 110.888 103.614C111.549 103.853 112.889 104.253 113.575 104.275C115.403 104.597 116.828 104.448 118.576 104.063C125.364 102.84 125.755 95.4087 131.256 92.6322C134.562 90.9643 139.53 91.3686 141.308 95.0476C141.604 95.9726 141.642 96.447 141.537 97.4182C141.223 98.7087 140.701 99.4845 139.561 100.183C138.038 101.117 136.912 101.055 135.214 101.029C134.471 101.751 133.245 104.515 132.554 105.616C129.154 111.072 123.204 114.414 116.775 114.483C101.619 114.633 92.9931 101.951 93.1065 87.97C93.1304 85.1623 93.3542 82.3277 93.8584 79.5647L92.5321 79.5438L90.4673 92.7441C89.7244 97.4675 89.7288 100.295 87.1449 104.575C85.641 106.493 84.3684 107.842 82.0217 108.779C80.5253 109.365 79.3094 109.717 77.6773 109.664C79.1319 110.462 80.6074 110.431 82.0918 109.704C84.4684 108.831 85.3934 106.923 87.4179 105.46C93.2885 101.773 100.148 108.336 103.052 113.064C103.278 113.441 103.492 113.831 103.687 114.226C105.157 117.247 105.656 120.311 104.193 123.424C103.18 125.062 102.599 125.609 100.9 126.533C100.478 126.704 100.15 126.841 99.7126 126.968C99.6276 126.988 99.1397 127.092 99.0831 127.112C97.151 127.35 96.1052 127.158 94.2732 126.542C92.8588 125.646 92.6261 125.691 91.3849 124.375C91.1014 124.01 90.8105 123.649 90.5509 123.265C89.6826 123.767 88.9322 124.18 87.9848 124.544C86.4899 125.099 85.4635 125.429 83.8642 125.705C83.8508 125.708 83.8373 125.711 83.8224 125.712C79.5735 126.372 75.2261 125.52 71.5396 123.306C70.9384 122.948 69.9418 122.178 69.3435 121.741C64.9812 118.056 63.3118 114.521 61.9676 109.191C61.9348 108.821 61.8572 108.472 61.7856 108.108C60.0162 108.032 57.9424 107.751 56.1551 107.563C54.8796 107.429 52.5776 107.254 51.4034 106.971C50.4441 108.226 49.2551 109.738 48.4167 111.068C48.1198 111.512 47.6991 112.106 47.4544 112.563C47.1903 112.94 46.9054 113.396 46.7159 113.817C46.4175 114.183 45.8939 115.214 45.6626 115.66L45.4343 116.14C44.4497 117.733 43.2442 121.257 42.7624 123.119C41.9896 126.109 42.3894 130.042 39.2191 131.805C37.6869 132.569 36.7291 132.712 34.9955 132.661C34.4749 132.646 34.0467 132.657 33.5305 132.511C28.4386 131.026 25.5399 129.057 21.3775 125.915C21.1582 125.706 20.9851 125.579 20.7419 125.396C20.5883 125.188 18.7652 123.507 18.4235 123.14C15.3412 119.828 13.4719 116.985 12.8214 112.439C12.7349 110.316 13.172 108.391 14.5088 106.708C18.8547 101.238 26.5066 103.62 31.1151 107.344C32.0938 105.874 32.9949 104.594 34.0885 103.214C34.0139 103.189 33.9393 103.162 33.8647 103.134C29.6441 101.514 26.7304 98.6446 24.873 94.5762C24.6582 93.8601 24.4045 93.2663 24.2195 92.5084C23.7481 90.5794 23.8108 88.7936 23.8421 86.8377C23.9749 86.2409 24.1405 84.5312 24.2434 83.8226C24.5731 81.5743 24.9625 79.3349 25.4131 77.109C21.5431 76.7345 20.1228 76.5257 16.4885 74.9264C16.3065 74.7772 15.4278 74.3117 15.1533 74.1521C14.1477 73.5717 13.369 72.8541 12.447 72.1872L11.337 71.1175C10.1196 69.7569 9.55864 68.8707 8.82314 67.2371C8.80822 67.1819 8.79181 67.1267 8.7739 67.0715C8.75003 66.9954 8.63217 66.6762 8.5725 66.6597C7.37301 66.3435 6.38985 66.0197 5.28733 65.4438C0.898165 63.0926 -0.399788 58.1306 0.101491 53.4848C0.869819 47.7096 4.04458 42.8252 10.327 42.7953C11.3817 40.7708 13.4659 39.2998 15.7455 39.0939C16.7213 39.0059 17.9222 39.0939 18.8069 39.5355C19.0024 38.0138 19.35 36.5159 19.8438 35.0643C21.3894 30.423 24.5149 26.5023 28.9205 24.3062L28.9295 24.3047ZM47.8259 22.1802L61.8244 23.6945C63.5012 23.881 65.4527 24.0436 67.0982 24.2928C71.4098 24.7478 75.711 25.2909 80.0002 25.9249C79.2945 24.436 78.5844 23.0739 77.5699 21.7551C73.9833 17.0854 68.1828 15.1012 62.4599 15.2563C56.1134 15.6577 52.1643 17.5181 47.8259 22.1802ZM25.7099 64.7337C26.3082 64.7829 26.9721 64.8545 27.5674 64.8381C28 62.5719 28.2581 60.2282 28.7475 57.9694C26.9885 57.4413 24.2076 56.2314 23.1305 54.7231C22.201 56.3791 21.273 57.862 20.5584 59.6806C19.7931 61.632 20.2123 62.9389 22.1786 63.8938C23.129 64.3563 24.6179 64.7606 25.7114 64.7337H25.7099Z" fill="var(--fill-0, #EBEBEB)"></path>
<path id="Vector_2" d="M59.6953 3.76421C66.919 3.38228 74.3681 5.98863 80.1641 10.2405C86.1019 14.5969 90.2374 20.6868 92.8766 27.5182C93.5375 29.2294 94.2342 31.2868 94.5162 33.089C94.9026 33.1143 95.2875 33.1666 95.6665 33.2471C96.5124 33.4276 97.3105 33.917 97.7506 34.6689C98.6473 36.2056 98.2504 37.693 97.8804 39.2729C98.5354 39.7399 98.9725 40.0293 99.5752 40.5813C102.113 42.8997 103.414 46.5638 103.524 49.9474C103.736 55.0438 101.889 60.0118 98.3981 63.7311C99.1112 65.1962 99.9318 66.1719 100.491 67.8279C105.438 69.005 109.525 70.3462 113.35 73.9297C115.613 76.0363 117.254 78.7232 118.096 81.6981C118.372 82.6797 118.49 83.7166 118.815 84.6446C118.971 85.0936 119.571 85.9977 119.835 86.4304C120.686 87.8014 121.162 89.3724 121.217 90.9851C121.27 92.9515 120.55 94.9581 119.173 96.4082C116.514 99.21 111.143 100.227 108.16 97.3854C106.735 96.0292 106.241 94.1599 106.201 92.2547C103.347 91.8355 102.672 88.9442 104.057 86.7213C105.122 85.0101 107.097 84.2209 108.994 83.7987C107.691 79.5632 104.695 77.2626 100.42 76.3526C100.021 80.3867 99.1858 84.7639 99.2127 88.8085C99.25 94.239 101.303 100.357 105.268 104.162C111.091 109.747 122.883 109.638 127.404 102.37C129.368 99.3263 130.939 95.7577 135.015 95.4713C137.874 95.2699 138.457 97.5525 135.836 97.545C133.062 97.4301 131.556 99.5979 130.365 101.863C126.94 108.482 120.829 111.059 113.565 110.231C102.601 109.068 96.3617 97.8911 96.6705 87.6895C96.7854 83.9091 97.4314 79.9167 97.7999 76.1049C94.7758 76.0154 92.5469 75.7916 89.3751 75.8692L89.3602 76.0229C89.2006 77.7385 88.7903 79.7974 88.5009 81.516L87.1447 89.9229C86.7464 92.5218 86.3883 97.7598 85.5857 100.05C85.0531 101.594 84.0983 102.959 82.8272 103.989C79.5301 106.681 75.7347 106.144 71.8229 105.756C72.6076 109.421 75.3692 113.555 79.3645 114.11C82.2901 114.515 84.7338 112.801 86.7747 110.923C88.0831 109.716 89.5929 107.681 91.5906 108.057C94.6878 108.636 97.0972 111.154 98.9412 113.535C99.2067 113.919 99.4648 114.307 99.714 114.699C100.794 116.432 101.813 118.717 101.321 120.805C100.808 122.985 98.519 123.802 96.5258 123.192C94.097 122.448 92.4454 120.549 91.2594 118.39C89.1767 120.211 86.442 121.403 83.7238 121.875C79.7583 122.56 75.6839 121.633 72.4062 119.298C68.6213 116.603 66.4163 112.288 65.366 107.867C65.1019 106.755 64.9512 105.642 64.7632 104.515C61.7287 104.165 58.6987 103.778 55.6731 103.354C54.1573 103.146 51.5734 102.71 50.1158 102.634C49.2863 103.459 48.3956 104.638 47.6691 105.567C44.0915 110.144 40.7302 115.519 39.4397 121.265C39.2667 122.035 39.1249 122.81 39.0145 123.591C38.8325 124.983 38.8445 127.138 37.8658 128.189C37.3794 128.709 36.3843 129.091 35.6831 129.038C30.9583 128.676 24.8877 123.799 21.5713 120.737C19.1424 118.494 16.3392 115.006 16.3944 111.761C16.3466 110.657 16.733 109.122 17.6088 108.37C21.164 105.325 27.0376 108.378 29.9229 110.996C30.7076 111.708 31.3536 112.419 32.0399 113.134C32.9276 111.881 33.7019 110.305 34.6776 109.01C36.8035 106.189 39.107 103.481 41.3837 100.785C36.9453 99.8515 32.8023 99.5098 29.6529 95.5802C28.4116 94.0256 27.6567 92.1384 27.4792 90.1586C27.2628 87.8462 27.8611 85.7322 28.1669 83.4868C28.619 80.1793 29.3202 76.7091 29.6976 73.415C24.0016 73.4255 18.2458 73.0376 14.1192 68.5365C12.6512 66.9357 12.0365 65.4005 11.7158 63.282C8.74987 63.2224 6.38968 62.3541 4.77246 59.7283C2.12434 55.4287 3.94893 46.5444 10.0612 46.6369C10.4387 46.6429 11.6546 46.8801 12.0723 46.7846C12.8571 45.9715 12.9734 44.8675 13.782 43.9933C14.9472 42.7326 16.0288 42.564 17.5924 42.9728C17.6118 43.8142 17.5745 43.9798 17.2597 44.7631C16.5271 44.7586 15.9483 44.6676 15.3396 45.2107C14.4937 45.9656 14.2222 47.177 14.1341 48.2452C16.2183 47.2024 18.7277 46.7951 20.0913 49.3402C21.255 51.511 19.2872 53.6727 18.3786 55.5182C17.2895 57.6979 16.0393 60.4072 16.6927 62.8822C18.0414 67.989 26.3543 69.2899 30.6331 68.1188C30.8583 67.1714 31.1045 65.0798 31.2626 64.0429C31.7192 60.9994 32.1936 57.959 32.6844 54.9214C32.2607 54.917 31.8281 54.9155 31.4073 54.8692C25.5263 54.2561 22.0725 48.1258 22.0681 42.6536C22.0651 37.2917 24.6252 30.8854 29.4918 28.1389C30.2049 27.7361 31.0135 27.4571 31.7803 27.1781C32.1727 26.2322 32.483 25.2968 32.9052 24.333C34.3956 20.8838 36.3605 17.6598 38.7445 14.7535C44.3048 8.07729 51.0825 4.55342 59.6893 3.7657L59.6953 3.76421ZM47.8257 22.1802L61.8242 23.6945C63.5011 23.881 65.4525 24.0436 67.0981 24.2927C71.4097 24.7478 75.7108 25.2908 80 25.9249C79.2943 24.436 78.5842 23.0739 77.5697 21.755C73.9832 17.0854 68.1827 15.1012 62.4597 15.2563C56.1132 15.6576 52.1641 17.518 47.8257 22.1802Z" fill="var(--fill-0, black)"></path>
<path id="Vector_3" d="M36.2352 96.8543C33.514 96.3366 31.3045 94.9864 30.2348 92.3293C29.18 89.7081 29.8812 86.7914 30.2751 84.0985C30.6451 81.5474 31.0329 78.9992 31.4373 76.4525L34.524 56.8669L36.9618 41.4466L37.6749 36.9619C37.8912 35.6177 38.0732 33.9647 38.6073 32.7324C39.4115 30.875 40.7303 29.4831 42.628 28.7356C44.0871 28.1612 45.7998 28.1105 47.3603 28.1344C49.9652 28.1761 52.658 28.4969 55.2524 28.7759C58.3481 29.0787 61.4408 29.4159 64.5291 29.7889L72.8643 30.7482C74.7501 30.966 77.8279 31.148 79.5003 31.8865C80.1403 31.709 81.9843 32.5594 82.6064 32.9114C84.4176 33.9364 86.2228 35.9057 86.36 38.0689C85.5156 39.2192 84.2893 40.259 83.3747 41.5048C80.4357 45.509 79.5048 50.2652 80.1448 55.1437C80.4834 57.7426 81.4741 60.5698 83.2718 62.5107C83.0227 64.2786 82.9466 67.1416 81.3368 68.1054C78.6693 69.7017 77.8816 71.9813 80.4029 74.3489C79.9195 75.805 79.6972 78.1622 79.4645 79.7093L78.538 85.6083C77.9129 89.7364 77.3072 94.6895 75.7258 98.5192C73.9116 102.916 69.0913 101.915 65.4093 101.299C65.3466 101.272 65.284 101.245 65.2213 101.218C64.3456 101.209 61.4647 100.627 60.5711 100.454C59.6342 100.372 57.4634 99.9141 56.4594 99.7366C53.7382 99.2622 51.0125 98.8146 48.2823 98.3939C46.0459 98.0821 43.8066 97.8061 41.5628 97.5644C40.4976 97.4495 37.0319 97.1168 36.2337 96.8498L36.2352 96.8543Z" fill="var(--fill-0, #EB1010)"></path>
<path id="Vector_4" d="M36.2352 96.8543C33.514 96.3366 31.3045 94.9864 30.2348 92.3293C29.18 89.7081 29.8812 86.7914 30.2751 84.0985C30.6451 81.5474 31.0329 78.9992 31.4373 76.4525L34.524 56.8669L36.9618 41.4466L37.6749 36.9619C37.8912 35.6177 38.0732 33.9647 38.6073 32.7324C39.4115 30.875 40.7303 29.4831 42.628 28.7356C44.0871 28.1612 45.7998 28.1105 47.3603 28.1344C49.9652 28.1761 52.658 28.4969 55.2524 28.7759C58.3481 29.0787 61.4408 29.4159 64.5291 29.7889L72.8643 30.7482C74.7501 30.966 77.8279 31.148 79.5003 31.8865C80.1403 31.709 81.9843 32.5594 82.6064 32.9114C84.4176 33.9364 86.2228 35.9057 86.36 38.0689C85.5156 39.2192 84.2893 40.259 83.3747 41.5048C80.4357 45.509 79.5048 50.2652 80.1448 55.1437C80.4834 57.7426 81.4741 60.5698 83.2718 62.5107C83.0227 64.2786 82.9466 67.1416 81.3368 68.1054C78.6693 69.7017 77.8816 71.9813 80.4029 74.3489C79.9195 75.805 79.6972 78.1622 79.4645 79.7093L78.538 85.6083C77.9129 89.7364 77.3072 94.6895 75.7258 98.5192C73.9116 102.916 69.0913 101.915 65.4093 101.299C65.3466 101.272 65.284 101.245 65.2213 101.218C64.3456 101.209 61.4647 100.627 60.5711 100.454C60.6113 100.298 60.8993 100.28 61.0544 100.238C63.6608 99.5277 67.674 98.7012 69.3956 96.4574C69.7865 95.9472 70.0983 94.9267 70.1983 94.3091C70.5683 91.9981 70.9204 89.6708 71.2874 87.3613L73.746 71.8933L78.1322 45.2032C78.3635 43.7561 79.6793 36.7725 79.4675 35.6953C79.3451 35.0717 78.9572 34.5749 78.4216 34.2422C78.1083 34.0468 77.7339 33.8976 77.3699 33.8319C75.9346 33.5723 74.4189 33.4724 72.9658 33.2934C69.5732 32.8741 66.1776 32.4848 62.7791 32.1252C60.0608 31.8164 57.3396 31.5329 54.6169 31.2733C51.1766 30.9123 47.1171 30.3051 43.6574 30.8795C42.7563 31.0302 41.9462 31.4792 41.3897 32.2073C40.8332 32.9353 40.5692 33.7976 40.3991 34.6898C39.8456 37.6199 39.3906 40.5694 38.9027 43.5114L35.6429 64.0727L33.2887 78.9306C32.8874 81.4713 32.4309 84.0821 32.1101 86.6303C31.6536 90.2615 32.8948 94.8014 36.2591 96.7394L36.2337 96.8468L36.2352 96.8543Z" fill="var(--fill-0, #EBEBEB)"></path>
<path id="Vector_5" d="M79.5003 31.888C80.1403 31.7105 81.9843 32.5608 82.6064 32.9129C84.4176 33.9379 86.2228 35.9072 86.36 38.0704C85.5156 39.2207 84.2893 40.2605 83.3747 41.5063C80.4357 45.5105 79.5047 50.2667 80.1448 55.1452C80.4834 57.7441 81.474 60.5713 83.2718 62.5122C83.0226 64.2801 82.9466 67.1431 81.3368 68.1068C78.6693 69.7032 77.8816 71.9828 80.4029 74.3504C79.9195 75.8065 79.6972 78.1637 79.4645 79.7108L78.538 85.6098C77.9129 89.7379 77.3072 94.691 75.7258 98.5207C73.9116 102.917 69.0913 101.916 65.4093 101.3C65.3466 101.273 65.284 101.246 65.2213 101.22C67.3696 100.796 69.9327 99.8396 71.3008 98.0388C71.8021 97.3779 72.19 96.35 72.3362 95.5354C72.7897 93.0141 73.1343 90.448 73.5342 87.9178C74.4367 82.4052 75.311 76.8867 76.1524 71.3652L79.3958 51.4632L80.9146 42.4521C81.2726 40.2889 81.9932 37.0783 81.8067 34.9449C81.6799 33.5097 80.5744 32.6533 79.4973 31.885L79.5003 31.888Z" fill="var(--fill-0, #EB1010)"></path>
<path id="Vector_6" d="M78.8363 62.1765L78.9587 62.2795C79.0213 62.5137 78.9079 62.6778 78.8065 62.9106C78.7513 62.6972 78.811 62.4108 78.8378 62.1765H78.8363Z" fill="var(--fill-0, #3FB15F)"></path>
<path id="Vector_7" d="M57.7961 38.5255C57.9677 38.518 58.1393 38.512 58.3108 38.5061C61.7631 38.4195 65.1094 39.6966 67.6233 42.0628C74.4577 48.5809 71.9528 58.8645 70.7279 67.1326C70.1341 71.1414 69.3031 76.6032 67.8023 80.3449C66.8728 82.6126 65.5331 84.6878 63.8488 86.4677C61.42 88.9979 57.6977 90.9299 54.1484 91.006C50.7141 91.0597 47.2409 90.081 44.6391 87.7611C37.8151 81.6742 39.4279 71.1324 40.599 63.1105C41.5777 56.4133 42.4773 49.4327 46.9769 44.1604C49.8727 40.7648 53.3726 38.8477 57.7961 38.527V38.5255Z" fill="var(--fill-0, black)"></path>
<path id="Vector_8" d="M57.4768 41.0602C63.8248 40.647 68.9495 45.1525 69.5582 51.4095C70.0356 56.3089 68.9958 61.8394 68.2826 66.691C67.7396 70.3835 67.204 74.243 66.1343 77.8057C64.4693 83.3496 60.1995 87.7522 54.2841 88.4191L54.1782 88.431C53.5292 88.5041 52.8474 88.4623 52.2089 88.3922C45.2029 87.6284 41.7268 81.6712 41.9819 75.0293C42.1505 70.6237 42.8323 66.3583 43.4649 62.005C43.9214 58.8645 44.2078 55.3078 45.1746 52.3032C45.8922 50.0623 47.026 47.9752 48.5135 46.1521C50.7871 43.3533 53.8634 41.4302 57.4798 41.0617L57.4768 41.0602Z" fill="var(--fill-0, #EBEBEB)"></path>
<path id="Vector_9" d="M57.2545 42.8475C60.0638 42.6759 61.8496 43.0101 64.2127 44.6512C66.2641 46.076 67.7068 48.7614 67.9992 51.2499C68.6422 56.7028 67.2219 62.9046 66.4252 68.3336C65.9045 71.219 65.6226 74.1669 64.7737 76.9807C63.2445 82.0487 59.7639 85.7963 54.4632 86.587C48.6298 87.2897 44.4839 83.3123 43.7767 77.7132C43.3903 74.6578 43.7334 72.0917 44.1064 69.0796C44.3615 67.0193 44.633 64.9619 44.9225 62.9076C45.3924 59.5016 45.7728 55.4899 46.8306 52.2674C47.405 50.5487 48.2658 48.9404 49.3758 47.5097C51.3376 44.9332 54.035 43.2727 57.253 42.849L57.2545 42.8475Z" fill="var(--fill-0, black)"></path>
<path id="Vector_10" d="M55.7477 53.2908C59.9728 52.8358 64.6559 55.7315 64.8528 60.1371C64.9706 62.7629 64.1949 68.4575 63.3266 70.9265C63.0043 71.859 62.5209 72.7273 61.8943 73.4881C60.2771 75.4604 58.2347 76.4048 55.7328 76.6465C53.759 76.921 51.3317 76.2481 49.7667 75.0158C48.051 73.6582 46.9515 71.6695 46.7128 69.4928C46.4666 67.3937 47.1469 61.9722 47.8436 59.9775C48.2509 58.7989 48.8566 57.6979 49.6354 56.7222C51.1944 54.7648 53.2548 53.5683 55.7462 53.2893L55.7477 53.2908Z" fill="var(--fill-0, #EBEBEB)"></path>
<path id="Vector_11" d="M55.8118 59.5538C58.3152 59.2957 60.5978 60.6847 60.7007 63.385C60.8335 66.8462 59.6773 70.4312 55.7268 70.7236C50.1336 70.8012 49.3519 65.7974 51.8926 61.7245C52.6818 60.4609 54.3647 59.7612 55.8118 59.5553V59.5538Z" fill="var(--fill-0, black)"></path>
<path id="Vector_12" d="M43.6335 40.6753C44.0601 40.647 44.4167 40.7305 44.3988 41.2363C44.1735 41.0005 44.0214 40.8871 43.6917 40.829L43.6335 40.6753Z" fill="var(--fill-0, #3FB15F)"></path>
<path id="Vector_13" d="M69.1703 80.6209C69.3538 80.8432 69.2942 81.2744 69.318 81.6518C69.0346 81.3833 69.1286 80.9715 69.1703 80.6209Z" fill="var(--fill-0, #3FB15F)"></path>
<path id="Vector_14" d="M39.9499 86.9824H40.0081L40.0663 87.0555C39.8709 87.1942 39.6769 87.3345 39.486 87.4777L39.4531 87.5448L39.383 87.4807C39.5456 87.2002 39.6635 87.1614 39.9499 86.9824Z" fill="var(--fill-0, #3FB15F)"></path>
<path id="Vector_15" d="M67.8291 86.308C67.9679 86.3334 67.8992 86.3036 68.0231 86.4095C67.8784 86.5467 67.6501 86.5482 67.4383 86.5825L67.3816 86.6452L67.3159 86.6124C67.4427 86.414 67.6009 86.3901 67.8291 86.3065V86.308Z" fill="var(--fill-0, #3FB15F)"></path>
<path id="Vector_16" d="M38.2015 64.8843L38.2581 64.9231C38.2641 65.126 38.1657 65.1544 37.9851 65.3618L37.9269 65.2991C37.9598 65.0649 38 65.0962 38.2015 64.8858V64.8843Z" fill="var(--fill-0, #3FB15F)"></path>
<path id="Vector_17" d="M48.5105 91.3298L48.6224 91.3432L48.6045 91.57H48.4807L48.5105 91.3298Z" fill="var(--fill-0, #3FB15F)"></path>
<path id="Vector_18" d="M61.5408 11.3102C65.8613 10.976 71.3665 12.283 75.0037 14.6148C81.295 18.6459 84.2639 24.3405 85.8916 31.3867C81.2965 29.7292 78.9005 29.6158 74.0474 29.0161L66.109 28.0255C62.2151 27.5376 58.3153 27.105 54.4095 26.7275C51.4764 26.4232 48.3405 25.986 45.3865 26.1576C43.635 26.2591 41.797 27.0528 40.2275 27.7898C41.1704 24.6165 43.2397 21.2478 45.4522 18.7847C49.6474 14.118 55.2972 11.6026 61.5393 11.3117L61.5408 11.3102ZM47.8258 22.1802L61.8243 23.6945C63.5012 23.881 65.4526 24.0436 67.0981 24.2927C71.4097 24.7478 75.7109 25.2908 80.0001 25.9249C79.2944 24.436 78.5843 23.0739 77.5698 21.755C73.9832 17.0854 68.1827 15.1011 62.4598 15.2563C56.1133 15.6576 52.1642 17.518 47.8258 22.1802Z" fill="var(--fill-0, #EBEBEB)"></path>
<path id="Vector_19" d="M82.5721 70.1373C83.6611 69.8494 85.0068 69.7793 86.1422 69.7106C88.85 69.545 91.7144 69.3765 94.4207 69.375C99.2485 69.375 104.22 70.3954 108.418 72.8421C112.47 75.2128 115.148 78.7351 116.355 83.278C116.584 84.0508 116.595 85.022 116.932 85.7471C117.239 86.411 117.761 87.0226 118.106 87.6791C119.458 90.2496 119.277 94.224 116.381 95.713C116.365 95.1281 116.69 92.0891 115.783 92.2189C114.74 93.0246 114.235 97.457 112.292 97.2735C110.427 97.0974 113.833 92.8903 112.388 92.2145C110.997 92.3293 110.45 96.0486 109.117 94.9983C107.942 94.0719 108.603 91.3283 108.971 90.1392C109.074 89.7394 109.799 88.1759 108.825 88.2251C107.882 88.3982 106.941 90.2989 105.849 90.0766C105.679 89.9632 105.592 89.8498 105.558 89.6514C105.197 87.5538 107.485 86.1394 109.274 85.8366C109.696 85.765 110.251 85.6471 110.629 85.5054C111.07 85.0444 111.311 84.6639 111.275 83.9986C111.17 82.1188 109.925 79.9764 108.882 78.4905C108.491 78.3786 108.169 78.0787 107.869 77.8206C103.502 74.0565 97.3553 73.2703 91.795 73.4165C89.6347 73.4732 82.5064 74.4937 81.4203 72.0484C81.286 71.7351 81.2875 71.3801 81.4308 71.0683C81.6501 70.5774 82.0932 70.3164 82.575 70.1388L82.5721 70.1373Z" fill="var(--fill-0, #EBEBEB)"></path>
<path id="Vector_20" d="M108.88 78.4875C108.489 78.3756 108.167 78.0757 107.867 77.8176C103.5 74.0536 97.3538 73.2673 91.7935 73.4135C89.6332 73.4702 82.505 74.4907 81.4188 72.0455C81.2846 71.7322 81.2861 71.3771 81.4293 71.0653C81.6486 70.5745 82.0917 70.3134 82.5736 70.1358C82.6467 70.4924 82.7541 71.0623 83.1181 71.2622C84.2758 71.8963 85.7468 71.8605 87.0403 71.8426C88.4218 71.8262 89.8003 71.6606 91.1789 71.6307C92.438 71.6039 93.7882 71.5502 95.0488 71.6307C99.253 71.8993 104.12 72.8302 107.08 76.0706C107.603 76.6435 108.558 77.7997 108.88 78.4875Z" fill="var(--fill-0, #606060)"></path>
<path id="Vector_21" d="M87.8952 57.6427C84.1848 45.4926 96.39 34.827 100.358 46.1819C102.611 51.0574 99.9497 61.0934 94.1522 62.6181C90.9759 63.4536 88.5158 60.4519 87.8967 57.6412L87.8952 57.6427Z" fill="var(--fill-0, #EB1010)"></path>
<path id="Vector_22" d="M87.8952 57.6427C84.1848 45.4926 96.39 34.827 100.358 46.1819L100.244 46.0879C99.8304 45.7463 99.4842 45.2793 99.0188 45.0018C96.5482 43.5263 93.3257 43.9828 91.5354 46.261C89.2662 49.1508 88.0309 53.9935 87.9906 57.589L87.8952 57.6427Z" fill="var(--fill-0, #EBEBEB)"></path>
<path id="Vector_23" d="M91.2833 110.402C91.7458 110.408 92.1963 110.569 92.6111 110.762C95.1369 111.928 97.8611 115.288 98.7891 117.906C99.0531 118.654 99.2172 119.594 98.8353 120.328C98.6951 120.596 98.4802 120.807 98.1848 120.893C97.5299 121.087 96.8451 120.942 96.2454 120.647C93.8464 119.468 92.7648 115.804 91.8204 115.473C91.0118 115.19 89.7437 116.717 89.1857 117.193C88.8247 117.502 88.4204 117.777 88.019 118.03C85.0054 119.934 81.025 120.314 77.61 119.525C77.1282 119.38 76.6522 119.212 76.1883 119.019C72.9389 117.651 70.352 114.894 69.0152 111.652C69.7761 111.306 70.7786 111.026 71.5932 110.793C72.9329 112.865 74.1608 114.289 76.4538 115.403C80.2358 117.238 84.5698 115.895 87.6595 113.328C88.8605 112.328 89.6691 110.963 91.1848 110.435L91.2833 110.401V110.402Z" fill="var(--fill-0, #EBEBEB)"></path>
<path id="Vector_24" d="M45.3089 104.239L45.4522 104.254C45.4745 104.611 44.375 105.859 44.0945 106.228C43.4709 107.062 42.8652 107.909 42.2789 108.769C39.6696 112.6 37.7375 116.705 36.8424 121.265C36.5783 122.61 36.4456 123.74 35.728 124.941C34.4509 123.882 33.969 122.692 32.9679 121.429C30.105 117.818 26.6408 114.083 22.3904 112.155C21.1581 111.649 20.1794 111.529 18.9217 111.202C18.7979 111.169 18.6368 110.896 18.6382 110.771C18.6576 109.753 19.702 109.18 20.6255 109.182C24.8983 109.045 28.4549 112.106 31.1031 115.142C31.9505 116.113 33.0112 117.602 33.9601 118.421C34.16 117.589 34.2196 116.723 34.4434 115.863C35.4937 111.833 38.0792 108.505 40.7825 105.44C41.2823 104.873 44.4347 104.37 45.3074 104.239H45.3089Z" fill="var(--fill-0, #EBEBEB)"></path>
<path id="Vector_25" d="M60.2861 5.70517C64.0651 5.54404 68.5871 6.64357 72.0199 8.21156C80.4432 12.0607 86.1512 19.371 89.3453 27.927C89.9212 29.4681 91.5698 34.3302 91.0312 36.028C90.9208 36.3786 90.1435 36.6218 89.7869 36.7501C89.4871 35.758 89.4617 34.7375 89.2573 33.7305C87.1746 23.5095 81.3353 14.3671 71.8036 9.72733C69.7239 8.72179 67.5174 8.00269 65.2452 7.59093C51.1288 5.08752 40.0261 14.6118 34.7508 26.8707C34.5911 27.2407 34.4584 27.3496 34.1003 27.2572C33.4289 26.5589 34.4315 24.7642 34.8045 24.0123C39.8754 13.7734 48.4941 6.20197 60.2876 5.70517H60.2861Z" fill="var(--fill-0, #EBEBEB)"></path>
<path id="Vector_26" d="M9.28553 48.5809C10.479 48.5108 12.6035 49.4611 12.9496 50.68C13.6866 53.2774 9.91063 49.9072 9.1244 51.5095C9.03936 51.681 9.0319 51.8809 9.10202 52.06C9.43024 52.9104 11.0027 52.8641 11.7457 53.3027C12.7467 53.8935 13.0406 54.8886 13.3316 55.9329C11.3339 56.652 10.0897 55.6913 9.00207 56.1418C8.84094 56.5595 9.00207 57.0817 9.3452 57.3592C10.2866 58.1201 11.6069 58.0843 12.7318 57.9992C13.4539 57.9261 14.2729 57.7188 15.0681 57.6337C15.0547 58.3066 14.8787 59.6716 14.4833 60.164C13.1257 61.8677 9.61375 61.4619 8.001 60.3117C4.92769 58.1216 5.14252 52.8164 7.08348 49.9549C7.6519 49.1165 8.3143 48.742 9.28702 48.5809H9.28553Z" fill="var(--fill-0, #EBEBEB)"></path>
<path id="Vector_27" d="M35.5713 31.1734L35.6981 31.2599C35.7265 31.6195 35.2774 32.4311 35.1058 32.7921C32.7263 37.7974 31.5611 43.4428 32.2981 48.9703C32.4234 49.9057 32.7248 50.8053 32.8561 51.7407L32.871 51.8466C31.9415 51.7377 31.7774 51.602 31.115 50.9694C28.0805 47.635 28.8742 41.6092 30.4183 37.7765C31.4507 35.2164 32.9157 32.346 35.5713 31.1719V31.1734Z" fill="var(--fill-0, #EB1010)"></path>
<path id="Vector_28" d="M91.9441 38.3688C92.5275 38.3226 93.2033 38.6418 93.1928 39.2953C93.0138 39.6474 92.3365 39.9995 91.9889 40.174C88.7753 41.7912 86.7314 45.0376 85.6617 48.3929C85.0053 50.4517 85.0918 52.3688 83.3433 53.9532C82.5541 54.4888 82.3885 53.3952 82.3139 52.8283C81.8544 49.3835 83.1464 45.603 85.2112 42.8654C86.7344 40.8469 89.3646 38.7209 91.9426 38.3688H91.9441Z" fill="var(--fill-0, #EBEBEB)"></path>
<path id="Vector_29" d="M31.2612 29.1653C31.3805 29.1936 31.3343 29.1877 31.4462 29.2891C31.5148 29.9664 30.1393 32.1312 29.7424 32.8488C29.0815 34.0498 28.4967 35.2895 27.9924 36.5636C26.6408 39.9383 26.405 41.6092 25.6114 45.0197C25.4816 44.8884 25.316 44.6915 25.1906 44.5483C25.0295 44.317 24.8893 44.0321 24.8057 43.765C23.3049 38.9805 26.4125 30.8601 31.2627 29.1668L31.2612 29.1653Z" fill="var(--fill-0, #EBEBEB)"></path>
<path id="Vector_30" d="M16.3407 49.2433C17.5313 49.2 18.1385 49.3925 18.4995 50.5934C18.2265 52.051 17.3612 53.5698 16.3974 54.6753C16.0975 54.9438 15.7947 55.2213 15.374 55.1825C15.2113 55.0885 15.0547 54.9408 15.0055 54.7529C14.5937 53.164 14.4758 49.9579 16.3407 49.2418V49.2433Z" fill="var(--fill-0, #EBEBEB)"></path>
<path id="Vector_31" d="M96.1185 65.0723L96.2423 65.0828C96.6183 65.4841 97.306 67.0193 97.5761 67.5832C95.5545 67.5742 93.5315 67.5802 91.5085 67.6056L90.403 67.6697C90.2822 66.9268 90.1852 66.1032 90.0823 65.3498C92.4245 65.4468 93.7881 65.508 96.12 65.0738L96.1185 65.0723Z" fill="var(--fill-0, #EBEBEB)"></path>
<path id="Vector_32" d="M93.9657 35.2343C94.5655 35.194 95.1309 35.1195 95.6695 35.4507C96.8689 36.1921 96.3005 38.3509 95.665 39.3251C95.4815 39.3952 95.4845 39.3818 95.2846 39.3714C94.6057 38.5374 95.847 37.4886 93.3898 36.6307C93.357 35.8863 93.1914 35.5387 93.9657 35.2343Z" fill="var(--fill-0, #EBEBEB)"></path>
<path id="Vector_33" d="M26.4602 47.3993L26.7616 47.4784C26.8959 47.644 27.7851 50.1474 27.9551 50.6173L27.8238 50.6859C26.9809 49.8475 25.671 48.6659 26.4617 47.3993H26.4602Z" fill="var(--fill-0, #EB1010)"></path>
<path id="Vector_34" d="M69.3464 121.739C69.9447 122.176 70.9398 122.946 71.5425 123.304C75.229 125.518 79.5764 126.37 83.8253 125.711C83.8402 125.709 83.8536 125.706 83.8671 125.703L83.8507 125.875C83.0555 126.306 81.5487 126.289 80.6446 126.234L80.6625 126.222C79.7569 126.107 78.8558 126.067 77.9502 125.981C76.7999 125.872 72.554 124.968 71.8767 124.101C71.5097 123.631 70.9741 123.543 70.5071 123.203C70.2699 123.03 70.0536 122.692 69.7955 122.579C69.518 122.457 69.1077 122.046 68.9451 121.788L68.9898 121.766C69.0689 121.803 69.1465 121.842 69.2256 121.879L69.3479 121.738L69.3464 121.739Z" fill="var(--fill-0, black)"></path>
<path id="Vector_35" d="M82.0276 108.778C84.3743 107.841 85.6469 106.492 87.1508 104.573C87.4447 105.084 87.0299 105.033 87.4238 105.46C85.3993 106.922 84.4758 108.83 82.0977 109.704L82.0097 109.655L82.0574 109.576C82.0693 109.325 82.1081 109.004 82.0291 108.779L82.0276 108.778Z" fill="url(#paint0_linear_0_8)"></path>
<path id="Vector_36" d="M77.6817 109.664C79.3138 109.717 80.5312 109.365 82.0261 108.779C82.1052 109.006 82.0664 109.325 82.0544 109.576L82.0067 109.655L82.0947 109.704C80.6103 110.431 79.1348 110.463 77.6802 109.664H77.6817Z" fill="url(#paint1_linear_0_8)"></path>
<path id="Vector_37" d="M90.5553 123.264C90.8149 123.647 91.1043 124.008 91.3893 124.374L91.2013 124.601C90.7642 124.62 90.8387 124.169 90.2286 124.231C89.5736 124.298 88.6024 124.897 87.9892 124.542C88.9366 124.178 89.6885 123.765 90.5553 123.264Z" fill="var(--fill-0, black)"></path>
<path id="Vector_38" d="M107.655 101.725L107.931 101.854C108.925 102.322 109.498 102.346 110.524 102.622C110.861 103.225 110.808 102.617 110.966 103.055C110.656 103.304 110.523 103.299 110.141 103.287C109.305 102.98 108.339 102.283 107.655 101.725Z" fill="var(--fill-0, black)"></path>
<path id="Vector_39" d="M110.524 102.622C110.865 102.641 111.528 102.664 111.837 102.713L111.169 102.776L111.199 102.959C111.727 103.14 111.951 102.977 112.31 103.219C112.14 103.266 112.037 103.29 111.875 103.363L111.833 103.457L111.858 103.474C111.458 103.721 111.443 103.639 110.893 103.608C110.693 103.545 110.348 103.378 110.142 103.286C110.523 103.298 110.657 103.302 110.967 103.053C110.809 102.616 110.863 103.223 110.526 102.62L110.524 102.622Z" fill="url(#paint2_linear_0_8)"></path>
<path id="Vector_40" d="M41.5956 131.268C42.5011 131.174 42.5041 131.296 43.3366 131.684C42.4325 131.902 41.8686 131.818 40.954 131.763L40.966 131.705C41.1689 131.533 41.4285 131.713 41.8074 131.578V131.472L41.5956 131.268Z" fill="var(--fill-0, black)"></path>
<path id="Vector_41" d="M99.717 126.967C100.154 126.84 100.484 126.703 100.905 126.531L101.218 126.649L101.201 126.752C100.788 126.956 100.171 127.053 99.7155 126.967H99.717Z" fill="var(--fill-0, black)"></path>
</g>
<defs>
<linearGradient id="paint0_linear_0_8" x1="83.8813" y1="106.604" x2="85.4858" y2="107.775" gradientUnits="userSpaceOnUse">
<stop stop-color="#989899" stop-opacity="0.02"></stop>
<stop offset="1" stop-color="#8A8987" stop-opacity="0.05"></stop>
</linearGradient>
<linearGradient id="paint1_linear_0_8" x1="80.0657" y1="110.107" x2="79.9426" y2="109.583" gradientUnits="userSpaceOnUse">
<stop stop-color="#9D9C9C" stop-opacity="0.02"></stop>
<stop offset="1" stop-color="#969695" stop-opacity="0.07"></stop>
</linearGradient>
<linearGradient id="paint2_linear_0_8" x1="111.399" y1="103.701" x2="111.138" y2="103.025" gradientUnits="userSpaceOnUse">
<stop stop-color="#ACAAAA" stop-opacity="0"></stop>
<stop offset="1" stop-color="#9A9B99" stop-opacity="0.05"></stop>
</linearGradient>
</defs>
</svg>